<?xml version="1.0" encoding="UTF-8"?>
<!--?xml version="1.0" encoding="utf-8"?-->
<!-- Generator: Adobe Illustrator 24.1.2, SVG Export Plug-In . SVG Version: 6.00 Build 0)  -->
<svg xmlns="http://www.w3.org/2000/svg" xmlns:xlink="http://www.w3.org/1999/xlink" version="1.1" x="0px" y="0px" viewBox="0 0 512 512" style="enable-background:new 0 0 512 512;" xml:space="preserve" width="512" height="512">
<style type="text/css">
	.st0{clip-path:url(#SVGID_1_);}
	.st1{clip-path:url(#SVGID_2_);}
	.st2{fill:url(#SVGID_3_);}
	.st3{fill:none;stroke:#E0B481;stroke-width:4;stroke-miterlimit:10;}

@-webkit-keyframes animate-svg-stroke-1 {
  0% {
    stroke-dashoffset: 1453.800048828125px;
    stroke-dasharray: 1453.800048828125px;
  }

  100% {
    stroke-dashoffset: 0;
    stroke-dasharray: 1453.800048828125px;
  }
}

@keyframes animate-svg-stroke-1 {
  0% {
    stroke-dashoffset: 1453.800048828125px;
    stroke-dasharray: 1453.800048828125px;
  }

  100% {
    stroke-dashoffset: 0;
    stroke-dasharray: 1453.800048828125px;
  }
}

.svg-elem-1 {
  -webkit-animation: animate-svg-stroke-1 3s ease-in-out 0s infinite alternate;
          animation: animate-svg-stroke-1 3s ease-in-out 0s infinite alternate;
}

@-webkit-keyframes animate-svg-stroke-2 {
  0% {
    stroke-dashoffset: 2349.599365234375px;
    stroke-dasharray: 2349.599365234375px;
  }

  100% {
    stroke-dashoffset: 0;
    stroke-dasharray: 2349.599365234375px;
  }
}

@keyframes animate-svg-stroke-2 {
  0% {
    stroke-dashoffset: 2349.599365234375px;
    stroke-dasharray: 2349.599365234375px;
  }

  100% {
    stroke-dashoffset: 0;
    stroke-dasharray: 2349.599365234375px;
  }
}

.svg-elem-2 {
  -webkit-animation: animate-svg-stroke-2 5s ease-in-out 0s infinite alternate;
          animation: animate-svg-stroke-2 5s ease-in-out 0s infinite alternate;
}

@-webkit-keyframes animate-svg-stroke-3 {
  0% {
    stroke-dashoffset: 1451.800048828125px;
    stroke-dasharray: 1451.800048828125px;
  }

  100% {
    stroke-dashoffset: 0;
    stroke-dasharray: 1451.800048828125px;
  }
}

@keyframes animate-svg-stroke-3 {
  0% {
    stroke-dashoffset: 1451.800048828125px;
    stroke-dasharray: 1451.800048828125px;
  }

  100% {
    stroke-dashoffset: 0;
    stroke-dasharray: 1451.800048828125px;
  }
}

.svg-elem-3 {
  -webkit-animation: animate-svg-stroke-3 7s ease-in-out 0s infinite alternate;
          animation: animate-svg-stroke-3 7s ease-in-out 0s infinite alternate;
}

@-webkit-keyframes animate-svg-stroke-4 {
  0% {
    stroke-dashoffset: 721.9326171875px;
    stroke-dasharray: 721.9326171875px;
  }

  100% {
    stroke-dashoffset: 0;
    stroke-dasharray: 721.9326171875px;
  }
}

@keyframes animate-svg-stroke-4 {
  0% {
    stroke-dashoffset: 721.9326171875px;
    stroke-dasharray: 721.9326171875px;
  }

  100% {
    stroke-dashoffset: 0;
    stroke-dasharray: 721.9326171875px;
  }
}

.svg-elem-4 {
  -webkit-animation: animate-svg-stroke-4 5s ease-in-out 0s infinite alternate;
          animation: animate-svg-stroke-4 5s ease-in-out 0s infinite alternate;
}

@-webkit-keyframes animate-svg-stroke-5 {
  0% {
    stroke-dashoffset: 319.7435607910156px;
    stroke-dasharray: 319.7435607910156px;
  }

  100% {
    stroke-dashoffset: 0;
    stroke-dasharray: 319.7435607910156px;
  }
}

@keyframes animate-svg-stroke-5 {
  0% {
    stroke-dashoffset: 319.7435607910156px;
    stroke-dasharray: 319.7435607910156px;
  }

  100% {
    stroke-dashoffset: 0;
    stroke-dasharray: 319.7435607910156px;
  }
}

.svg-elem-5 {
  -webkit-animation: animate-svg-stroke-5 3s ease-in-out 0s infinite alternate;
          animation: animate-svg-stroke-5 3s ease-in-out 0s infinite alternate;
}

@-webkit-keyframes animate-svg-stroke-6 {
  0% {
    stroke-dashoffset: 721.6879272460938px;
    stroke-dasharray: 721.6879272460938px;
  }

  100% {
    stroke-dashoffset: 0;
    stroke-dasharray: 721.6879272460938px;
  }
}

@keyframes animate-svg-stroke-6 {
  0% {
    stroke-dashoffset: 721.6879272460938px;
    stroke-dasharray: 721.6879272460938px;
  }

  100% {
    stroke-dashoffset: 0;
    stroke-dasharray: 721.6879272460938px;
  }
}

.svg-elem-6 {
  -webkit-animation: animate-svg-stroke-6 6s ease-in-out 0s infinite alternate;
          animation: animate-svg-stroke-6 6s ease-in-out 0s infinite alternate;
}

@-webkit-keyframes animate-svg-stroke-7 {
  0% {
    stroke-dashoffset: 721.5630493164062px;
    stroke-dasharray: 721.5630493164062px;
  }

  100% {
    stroke-dashoffset: 0;
    stroke-dasharray: 721.5630493164062px;
  }
}

@keyframes animate-svg-stroke-7 {
  0% {
    stroke-dashoffset: 721.5630493164062px;
    stroke-dasharray: 721.5630493164062px;
  }

  100% {
    stroke-dashoffset: 0;
    stroke-dasharray: 721.5630493164062px;
  }
}

.svg-elem-7 {
  -webkit-animation: animate-svg-stroke-7 8s ease-in-out 0s infinite alternate;
          animation: animate-svg-stroke-7 8s ease-in-out 0s infinite alternate;
}

}

</style>
<g id="Layer_2">
	<g>
		<defs>
			<rect id="SVGID_6_" x="23.5" y="125.5" width="464.9" height="261" class="svg-elem-1"></rect>
		</defs>
		<clipPath id="SVGID_1_">
			<use xlink:href="#SVGID_6_" style="overflow:visible;"></use>
		</clipPath>
		<g class="st0">
			<g>
				<defs>
					<path id="SVGID_8_" d="M113.9,171c0,1.5,0.1,3,0.2,4.5c0.1,1.5,0.4,3,0.7,4.4c0.3,1.5,0.7,2.9,1.1,4.3c0.4,1.4,0.9,2.8,1.5,4.2       c0.6,1.4,1.2,2.7,1.9,4c0.7,1.3,1.5,2.6,2.3,3.8c0.8,1.2,1.7,2.4,2.7,3.6c0.9,1.2,1.9,2.3,3,3.3c1.1,1.1,2.2,2.1,3.3,3       c1.2,0.9,2.3,1.8,3.6,2.7s2.5,1.6,3.8,2.3c1.3,0.7,2.7,1.3,4,1.9c1.4,0.6,2.8,1.1,4.2,1.5c1.4,0.4,2.9,0.8,4.3,1.1       c1.5,0.3,2.9,0.5,4.4,0.7c1.5,0.2,3,0.2,4.5,0.2c33.3,0,53.8-33.1,93.6-32.3c39.7-0.8,60.2,32.3,93.6,32.3c1.5,0,3-0.1,4.4-0.3       c1.5-0.2,2.9-0.4,4.4-0.7c1.5-0.3,2.9-0.7,4.3-1.1c1.4-0.4,2.8-0.9,4.2-1.5c1.4-0.6,2.7-1.2,4-1.9c1.3-0.7,2.6-1.5,3.8-2.3       c1.2-0.8,2.4-1.7,3.6-2.7c1.1-0.9,2.2-1.9,3.3-3c1-1.1,2-2.2,3-3.3c0.9-1.2,1.8-2.3,2.6-3.6c0.8-1.2,1.6-2.5,2.3-3.8       c0.7-1.3,1.3-2.7,1.9-4s1.1-2.8,1.5-4.2c0.4-1.4,0.8-2.9,1.1-4.3c0.3-1.5,0.5-2.9,0.7-4.4c0.1-1.5,0.2-3,0.2-4.4       s-0.1-3-0.2-4.4c-0.1-1.5-0.4-2.9-0.7-4.4c-0.3-1.5-0.6-2.9-1.1-4.3c-0.4-1.4-0.9-2.8-1.5-4.2c-0.6-1.4-1.2-2.7-1.9-4       c-0.7-1.3-1.4-2.6-2.3-3.8c-0.8-1.2-1.7-2.4-2.6-3.6c-0.9-1.2-1.9-2.3-3-3.3c-1-1.1-2.1-2.1-3.3-3c-1.1-0.9-2.3-1.8-3.6-2.7       c-1.2-0.8-2.5-1.6-3.8-2.3c-1.3-0.7-2.6-1.3-4-1.9c-1.4-0.6-2.8-1.1-4.2-1.5c-1.4-0.4-2.8-0.8-4.3-1.1       c-1.4-0.3-2.9-0.5-4.4-0.7c-1.5-0.2-3-0.2-4.4-0.3c-33.3,0-53.8,33.1-93.6,32.4c-39.7,0.8-60.3-32.4-93.6-32.3       c-1.5,0-3,0.1-4.5,0.2c-1.5,0.1-3,0.4-4.4,0.7c-1.5,0.3-2.9,0.7-4.3,1.1c-1.4,0.4-2.8,0.9-4.2,1.5c-1.4,0.6-2.7,1.2-4,1.9       c-1.3,0.7-2.6,1.5-3.8,2.3c-1.2,0.8-2.4,1.7-3.6,2.7c-1.2,0.9-2.3,1.9-3.3,3c-1.1,1.1-2.1,2.2-3,3.3c-0.9,1.2-1.8,2.3-2.7,3.6       c-0.8,1.2-1.6,2.5-2.3,3.8c-0.7,1.3-1.3,2.7-1.9,4c-0.6,1.4-1.1,2.8-1.5,4.2c-0.4,1.4-0.8,2.9-1.1,4.3       c-0.3,1.5-0.5,2.9-0.7,4.4C113.9,168.1,113.9,169.6,113.9,171z M396.9,256.1c0,1.5,0.1,3,0.2,4.5c0.1,1.5,0.4,3,0.7,4.4       c0.3,1.5,0.7,2.9,1.1,4.3c0.4,1.4,0.9,2.8,1.5,4.2c0.6,1.4,1.2,2.7,1.9,4.1c0.7,1.3,1.5,2.6,2.3,3.8c0.8,1.2,1.7,2.4,2.7,3.6       c1,1.2,2,2.3,3,3.3c1.1,1.1,2.2,2.1,3.3,3c1.2,1,2.4,1.8,3.6,2.7c1.2,0.8,2.5,1.6,3.8,2.3c1.3,0.7,2.7,1.3,4.1,1.9       c1.4,0.6,2.8,1.1,4.2,1.5c1.4,0.4,2.9,0.8,4.4,1.1c1.5,0.3,2.9,0.5,4.4,0.7c1.5,0.1,3,0.2,4.5,0.2c1.5,0,3-0.1,4.5-0.2       c1.5-0.2,3-0.4,4.4-0.7c1.5-0.3,2.9-0.7,4.3-1.1c1.4-0.4,2.8-0.9,4.2-1.5c1.4-0.6,2.7-1.2,4.1-1.9c1.3-0.7,2.6-1.5,3.8-2.3       c1.2-0.8,2.4-1.7,3.6-2.7c1.2-1,2.3-2,3.3-3c1.1-1.1,2.1-2.2,3-3.3c1-1.2,1.8-2.4,2.7-3.6c0.8-1.2,1.6-2.5,2.3-3.8       c0.7-1.3,1.3-2.7,1.9-4.1c0.6-1.4,1.1-2.8,1.5-4.2c0.4-1.4,0.8-2.9,1.1-4.4c0.3-1.5,0.5-2.9,0.7-4.4c0.1-1.5,0.2-3,0.2-4.5       c0-1.5-0.1-3-0.2-4.5c-0.1-1.5-0.4-3-0.7-4.4c-0.3-1.5-0.7-2.9-1.1-4.4c-0.4-1.4-0.9-2.8-1.5-4.2c-0.6-1.4-1.2-2.7-1.9-4.1       c-0.7-1.3-1.5-2.6-2.3-3.8c-0.8-1.2-1.7-2.4-2.7-3.6c-1-1.2-2-2.3-3-3.3c-1.1-1.1-2.2-2.1-3.3-3c-1.2-0.9-2.4-1.8-3.6-2.7       c-1.2-0.8-2.5-1.6-3.8-2.3c-1.3-0.7-2.7-1.3-4.1-1.9c-1.4-0.6-2.8-1.1-4.2-1.5c-1.4-0.4-2.9-0.8-4.3-1.1       c-1.5-0.3-2.9-0.5-4.4-0.7c-1.5-0.1-3-0.2-4.5-0.2c-1.5,0-3,0.1-4.5,0.2c-1.5,0.1-3,0.4-4.4,0.7c-1.5,0.3-2.9,0.7-4.3,1.1       c-1.4,0.4-2.8,0.9-4.2,1.5c-1.4,0.6-2.7,1.2-4.1,1.9c-1.3,0.7-2.6,1.5-3.8,2.3c-1.2,0.8-2.4,1.7-3.6,2.7c-1.2,0.9-2.3,2-3.3,3       c-1.1,1.1-2.1,2.2-3,3.3c-0.9,1.2-1.8,2.4-2.7,3.6c-0.8,1.3-1.6,2.5-2.3,3.8c-0.7,1.3-1.3,2.7-1.9,4.1       c-0.6,1.4-1.1,2.8-1.5,4.2c-0.4,1.4-0.8,2.9-1.1,4.4c-0.3,1.5-0.5,2.9-0.7,4.4C396.9,253.1,396.9,254.6,396.9,256.1z        M24.4,256.1c0-1.5,0.1-3,0.2-4.5c0.2-1.5,0.4-3,0.7-4.4c0.3-1.5,0.7-2.9,1.1-4.3c0.4-1.4,0.9-2.8,1.5-4.2       c0.6-1.4,1.2-2.7,1.9-4c0.7-1.3,1.5-2.6,2.3-3.8s1.7-2.4,2.7-3.6c0.9-1.2,1.9-2.3,3-3.3c1.1-1.1,2.2-2.1,3.3-3       c1.2-0.9,2.3-1.8,3.6-2.7c1.2-0.8,2.5-1.6,3.8-2.3c1.3-0.7,2.7-1.3,4-1.9c1.4-0.6,2.8-1.1,4.2-1.5c1.4-0.4,2.9-0.8,4.3-1.1       c1.5-0.3,2.9-0.5,4.4-0.7c1.5-0.1,3-0.2,4.5-0.2c33.3,0,53.8,33.1,93.6,32.3c39.7,0.8,60.3-32.3,93.5-32.3c1.5,0,3,0.1,4.5,0.2       c1.5,0.1,3,0.4,4.4,0.7c1.5,0.3,2.9,0.7,4.3,1.1c1.4,0.4,2.8,0.9,4.2,1.5c1.4,0.6,2.7,1.2,4,1.9c1.3,0.7,2.6,1.5,3.8,2.3       c1.2,0.8,2.4,1.7,3.6,2.7c1.2,0.9,2.3,1.9,3.3,3c1.1,1.1,2.1,2.2,3,3.3c0.9,1.2,1.8,2.3,2.7,3.6c0.8,1.2,1.6,2.5,2.3,3.8       c0.7,1.3,1.3,2.7,1.9,4c0.6,1.4,1.1,2.8,1.5,4.2s0.8,2.9,1.1,4.3c0.3,1.5,0.5,2.9,0.7,4.4c0.1,1.5,0.2,3,0.2,4.5       c0,1.5-0.1,3-0.2,4.5c-0.1,1.5-0.4,3-0.7,4.4c-0.3,1.5-0.7,2.9-1.1,4.3s-0.9,2.8-1.5,4.2c-0.6,1.4-1.2,2.7-1.9,4       s-1.5,2.6-2.3,3.8c-0.8,1.2-1.7,2.4-2.7,3.6c-0.9,1.2-1.9,2.3-3,3.3c-1.1,1.1-2.2,2.1-3.3,3c-1.2,0.9-2.3,1.8-3.6,2.7       c-1.2,0.8-2.5,1.6-3.8,2.3c-1.3,0.7-2.7,1.3-4,1.9c-1.4,0.6-2.8,1.1-4.2,1.5c-1.4,0.4-2.9,0.8-4.3,1.1       c-1.5,0.3-2.9,0.5-4.4,0.7c-1.5,0.1-3,0.2-4.5,0.2c-33.3,0-53.8-33.1-93.5-32.3c-39.7-0.8-60.3,32.3-93.6,32.3       c-1.5,0-3-0.1-4.5-0.2c-1.5-0.1-3-0.4-4.4-0.7c-1.5-0.3-2.9-0.7-4.3-1.1c-1.4-0.4-2.8-0.9-4.2-1.5c-1.4-0.6-2.7-1.2-4-1.9       c-1.3-0.7-2.6-1.5-3.8-2.3c-1.2-0.8-2.4-1.7-3.6-2.7c-1.2-0.9-2.3-1.9-3.3-3c-1.1-1.1-2.1-2.2-3-3.3c-0.9-1.2-1.8-2.3-2.7-3.6       c-0.8-1.2-1.6-2.5-2.3-3.8c-0.7-1.3-1.3-2.7-1.9-4c-0.6-1.4-1.1-2.8-1.5-4.2c-0.4-1.4-0.8-2.9-1.1-4.3       c-0.3-1.5-0.5-2.9-0.7-4.4C24.5,259.1,24.4,257.6,24.4,256.1z M113.9,341c0,1.5,0.1,3,0.2,4.5c0.2,1.5,0.4,3,0.7,4.4       c0.3,1.5,0.7,2.9,1.1,4.3c0.4,1.4,0.9,2.8,1.5,4.2c0.6,1.4,1.2,2.7,1.9,4c0.7,1.3,1.5,2.6,2.3,3.8c0.8,1.2,1.7,2.4,2.7,3.6       c0.9,1.2,1.9,2.3,3,3.3c1.1,1.1,2.2,2.1,3.3,3c1.2,0.9,2.3,1.8,3.6,2.7s2.5,1.6,3.8,2.3c1.3,0.7,2.7,1.3,4,1.9       c1.4,0.6,2.8,1.1,4.2,1.5c1.4,0.4,2.9,0.8,4.3,1.1c1.5,0.3,2.9,0.5,4.4,0.7c1.5,0.1,3,0.2,4.5,0.2c33.3,0,53.8-33.1,93.6-32.3       c39.7-0.8,60.2,32.3,93.6,32.3c1.5,0,3-0.1,4.5-0.2s3-0.4,4.4-0.7c1.5-0.3,2.9-0.7,4.3-1.1c1.4-0.4,2.8-0.9,4.2-1.5       c1.4-0.6,2.7-1.2,4-1.9c1.3-0.7,2.6-1.5,3.8-2.3s2.4-1.7,3.6-2.7c1.2-0.9,2.3-1.9,3.3-3c1.1-1.1,2.1-2.2,3-3.3       c0.9-1.2,1.8-2.3,2.7-3.6c0.8-1.2,1.6-2.5,2.3-3.8c0.7-1.3,1.3-2.7,1.9-4c0.6-1.4,1.1-2.8,1.5-4.2c0.4-1.4,0.8-2.9,1.1-4.3       c0.3-1.5,0.5-2.9,0.7-4.4c0.1-1.5,0.2-3,0.2-4.5c0-1.5-0.1-3-0.2-4.5c-0.1-1.5-0.4-3-0.7-4.4c-0.3-1.5-0.7-2.9-1.1-4.3       c-0.4-1.4-0.9-2.8-1.5-4.2c-0.6-1.4-1.2-2.7-1.9-4c-0.7-1.3-1.5-2.6-2.3-3.8c-0.8-1.2-1.7-2.4-2.7-3.6c-0.9-1.2-1.9-2.3-3-3.3       c-1.1-1.1-2.2-2.1-3.3-3c-1.2-0.9-2.3-1.8-3.6-2.7c-1.2-0.8-2.5-1.6-3.8-2.3c-1.3-0.7-2.7-1.3-4-1.9c-1.4-0.6-2.8-1.1-4.2-1.5       c-1.4-0.4-2.9-0.8-4.3-1.1c-1.5-0.3-2.9-0.5-4.4-0.7c-1.5-0.1-3-0.2-4.5-0.2c-33.3,0-53.8,33.1-93.6,32.3       c-39.7,0.8-60.3-32.3-93.6-32.4c-1.5,0-3,0.1-4.5,0.2s-3,0.4-4.4,0.7c-1.5,0.3-2.9,0.7-4.3,1.1c-1.4,0.4-2.8,0.9-4.2,1.5       c-1.4,0.6-2.7,1.2-4,1.9c-1.3,0.7-2.6,1.5-3.8,2.3c-1.2,0.8-2.4,1.7-3.6,2.7c-1.2,0.9-2.3,1.9-3.3,3c-1.1,1.1-2.1,2.2-3,3.3       c-0.9,1.2-1.8,2.3-2.7,3.6c-0.8,1.2-1.6,2.5-2.3,3.8c-0.7,1.3-1.3,2.7-1.9,4c-0.6,1.4-1.1,2.8-1.5,4.2       c-0.4,1.4-0.8,2.9-1.1,4.3c-0.3,1.5-0.5,2.9-0.7,4.4C113.9,338,113.9,339.5,113.9,341z" class="svg-elem-2"></path>
				</defs>
				<clipPath id="SVGID_2_">
					<use xlink:href="#SVGID_8_" style="overflow:visible;"></use>
				</clipPath>
				<g class="st1">
					
						<linearGradient id="SVGID_3_" gradientUnits="userSpaceOnUse" x1="486.3656" y1="87.7206" x2="569.6901" y2="171.0451" gradientTransform="matrix(-4.3493 0 0 -4.35 2552.9004 818.8154)">
						<stop offset="0" style="stop-color:#C18757"></stop>
						<stop offset="0.125" style="stop-color:#C18757"></stop>
						<stop offset="0.1563" style="stop-color:#C18757"></stop>
						<stop offset="0.1641" style="stop-color:#C18858"></stop>
						<stop offset="0.1719" style="stop-color:#C28858"></stop>
						<stop offset="0.1797" style="stop-color:#C38959"></stop>
						<stop offset="0.1875" style="stop-color:#C38A5A"></stop>
						<stop offset="0.1953" style="stop-color:#C48B5A"></stop>
						<stop offset="0.2031" style="stop-color:#C48B5B"></stop>
						<stop offset="0.2109" style="stop-color:#C58C5C"></stop>
						<stop offset="0.2188" style="stop-color:#C58D5D"></stop>
						<stop offset="0.2266" style="stop-color:#C68E5D"></stop>
						<stop offset="0.2344" style="stop-color:#C68E5E"></stop>
						<stop offset="0.2422" style="stop-color:#C78F5F"></stop>
						<stop offset="0.25" style="stop-color:#C7905F"></stop>
						<stop offset="0.2578" style="stop-color:#C89160"></stop>
						<stop offset="0.2656" style="stop-color:#C89261"></stop>
						<stop offset="0.2734" style="stop-color:#C99262"></stop>
						<stop offset="0.2813" style="stop-color:#C99362"></stop>
						<stop offset="0.2891" style="stop-color:#CA9463"></stop>
						<stop offset="0.2969" style="stop-color:#CA9564"></stop>
						<stop offset="0.3047" style="stop-color:#CB9565"></stop>
						<stop offset="0.3125" style="stop-color:#CC9665"></stop>
						<stop offset="0.3203" style="stop-color:#CC9766"></stop>
						<stop offset="0.3281" style="stop-color:#CD9867"></stop>
						<stop offset="0.3359" style="stop-color:#CD9867"></stop>
						<stop offset="0.3438" style="stop-color:#CE9968"></stop>
						<stop offset="0.3516" style="stop-color:#CE9A69"></stop>
						<stop offset="0.3594" style="stop-color:#CF9B6A"></stop>
						<stop offset="0.36" style="stop-color:#CF9C6A"></stop>
						<stop offset="0.3672" style="stop-color:#D09C6B"></stop>
						<stop offset="0.375" style="stop-color:#D09C6B"></stop>
						<stop offset="0.3828" style="stop-color:#D09D6C"></stop>
						<stop offset="0.3906" style="stop-color:#D19E6D"></stop>
						<stop offset="0.3984" style="stop-color:#D19F6D"></stop>
						<stop offset="0.4063" style="stop-color:#D29F6E"></stop>
						<stop offset="0.4141" style="stop-color:#D2A06F"></stop>
						<stop offset="0.4219" style="stop-color:#D3A16F"></stop>
						<stop offset="0.4297" style="stop-color:#D3A270"></stop>
						<stop offset="0.4375" style="stop-color:#D4A271"></stop>
						<stop offset="0.4453" style="stop-color:#D5A372"></stop>
						<stop offset="0.4531" style="stop-color:#D5A472"></stop>
						<stop offset="0.4609" style="stop-color:#D6A573"></stop>
						<stop offset="0.4688" style="stop-color:#D6A574"></stop>
						<stop offset="0.4766" style="stop-color:#D7A674"></stop>
						<stop offset="0.4844" style="stop-color:#D7A775"></stop>
						<stop offset="0.4922" style="stop-color:#D8A876"></stop>
						<stop offset="0.5" style="stop-color:#D8A977"></stop>
						<stop offset="0.5078" style="stop-color:#D9A977"></stop>
						<stop offset="0.5156" style="stop-color:#D9AA78"></stop>
						<stop offset="0.5234" style="stop-color:#DAAB79"></stop>
						<stop offset="0.5313" style="stop-color:#DAAC7A"></stop>
						<stop offset="0.5391" style="stop-color:#DBAC7A"></stop>
						<stop offset="0.5469" style="stop-color:#DBAD7B"></stop>
						<stop offset="0.5547" style="stop-color:#DCAE7C"></stop>
						<stop offset="0.5625" style="stop-color:#DCAF7C"></stop>
						<stop offset="0.5703" style="stop-color:#DDAF7D"></stop>
						<stop offset="0.5781" style="stop-color:#DEB07E"></stop>
						<stop offset="0.5859" style="stop-color:#DEB17F"></stop>
						<stop offset="0.5938" style="stop-color:#DFB27F"></stop>
						<stop offset="0.6016" style="stop-color:#DFB380"></stop>
						<stop offset="0.6094" style="stop-color:#E0B381"></stop>
						<stop offset="0.6172" style="stop-color:#E0B481"></stop>
						<stop offset="0.625" style="stop-color:#E1B582"></stop>
						<stop offset="0.6328" style="stop-color:#E1B683"></stop>
						<stop offset="0.64" style="stop-color:#E2B684"></stop>
						<stop offset="0.6406" style="stop-color:#E2B784"></stop>
						<stop offset="0.6484" style="stop-color:#E2B784"></stop>
						<stop offset="0.6563" style="stop-color:#E3B885"></stop>
						<stop offset="0.6641" style="stop-color:#E3B986"></stop>
						<stop offset="0.6719" style="stop-color:#E4B987"></stop>
						<stop offset="0.6797" style="stop-color:#E4BA87"></stop>
						<stop offset="0.6875" style="stop-color:#E5BB88"></stop>
						<stop offset="0.6953" style="stop-color:#E5BC89"></stop>
						<stop offset="0.7031" style="stop-color:#E6BD89"></stop>
						<stop offset="0.7109" style="stop-color:#E7BD8A"></stop>
						<stop offset="0.7188" style="stop-color:#E7BE8B"></stop>
						<stop offset="0.7266" style="stop-color:#E8BF8C"></stop>
						<stop offset="0.7344" style="stop-color:#E8C08C"></stop>
						<stop offset="0.7422" style="stop-color:#E9C08D"></stop>
						<stop offset="0.75" style="stop-color:#E9C18E"></stop>
						<stop offset="0.7578" style="stop-color:#EAC28E"></stop>
						<stop offset="0.7656" style="stop-color:#EAC38F"></stop>
						<stop offset="0.7734" style="stop-color:#EBC390"></stop>
						<stop offset="0.7813" style="stop-color:#EBC491"></stop>
						<stop offset="0.7891" style="stop-color:#ECC591"></stop>
						<stop offset="0.7969" style="stop-color:#ECC692"></stop>
						<stop offset="0.8047" style="stop-color:#EDC793"></stop>
						<stop offset="0.8125" style="stop-color:#EDC794"></stop>
						<stop offset="0.8203" style="stop-color:#EEC894"></stop>
						<stop offset="0.8281" style="stop-color:#EEC995"></stop>
						<stop offset="0.8359" style="stop-color:#EFCA96"></stop>
						<stop offset="0.8438" style="stop-color:#F0CA96"></stop>
						<stop offset="0.875" style="stop-color:#F0CB97"></stop>
						<stop offset="1" style="stop-color:#F0CB97"></stop>
					</linearGradient>
					<path class="st2 svg-elem-3" d="M488.3,125.5v261H24.4v-261H488.3z"></path>
				</g>
			</g>
		</g>
	</g>
</g>
<g id="Layer_1">
	<path class="st3 svg-elem-4" d="M346.5,391.9c-17.2,0-31.3-8.1-44.9-15.9c-14.4-8.3-29.4-16.9-48.9-16.5l-0.1,0l-0.1,0   c-19.7-0.4-34.6,8.2-49.1,16.5c-13.6,7.8-27.6,15.9-44.7,15.9c-1.7,0-3.3-0.1-4.8-0.2l-0.3,0c-1.6-0.2-3.2-0.4-4.8-0.8   c-1.3-0.3-2.8-0.7-4.6-1.2c-1.6-0.5-3.2-1-4.8-1.7l-1-0.5c-1.1-0.5-2.2-1-3.4-1.6c-1.3-0.7-2.8-1.6-4.2-2.5c-1.1-0.7-1.9-1.4-2.7-2   c-0.4-0.3-0.7-0.6-1.1-0.9l-0.2-0.1c-1.2-1-2.4-2.1-3.6-3.3c-1.3-1.2-2.4-2.4-3.5-3.8c-1.1-1.3-2.1-2.6-2.9-3.9   c-1-1.4-1.8-2.9-2.5-4.2c-0.7-1.3-1.4-2.7-2.1-4.4c-0.7-1.6-1.3-3.2-1.7-4.8c-0.4-1.5-0.9-3-1.2-4.7c-0.3-1.5-0.5-3.2-0.8-4.7   l0-0.3c-0.1-1.6-0.2-3.2-0.2-4.8c0-1.6,0.1-3.1,0.2-4.6l0.1-0.6c0.2-1.8,0.4-3.2,0.8-4.7c0.3-1.4,0.7-2.9,1.2-4.7   c0.5-1.6,1-3.2,1.7-4.8l0.5-1c0.5-1.1,1-2.2,1.6-3.4c0.7-1.4,1.6-2.8,2.6-4.2c0.7-1,1.4-1.9,2-2.7c0.3-0.4,0.6-0.7,0.9-1.1l0.1-0.2   c1-1.2,2.1-2.4,3.3-3.6c1.2-1.3,2.4-2.4,3.8-3.5c1.3-1.1,2.6-2.1,3.9-2.9c1.5-1,2.9-1.8,4.2-2.6c1.3-0.7,2.7-1.4,4.4-2.1   c1.6-0.7,3.2-1.3,4.8-1.7c1.8-0.5,3.3-0.9,4.6-1.2c1.5-0.3,3.3-0.7,5.1-0.8c1.6-0.1,3.2-0.2,4.8-0.2c17.1,0.1,31.2,8.1,44.7,15.9   c14.5,8.3,29.5,17,49.1,16.6l0.1,0l0.1,0c19.6,0.4,34.6-8.2,49.1-16.5c13.6-7.8,27.6-15.9,44.7-15.9c1.7,0,3.3,0.1,4.8,0.2l0.3,0   c1.5,0.2,3,0.4,4.7,0.8c1.4,0.3,2.9,0.7,4.7,1.2c1.6,0.5,3.2,1,4.8,1.7l1,0.5c1.1,0.5,2.2,1,3.4,1.6c1.3,0.7,2.8,1.6,4.2,2.5   c1.1,0.7,1.9,1.4,2.7,2c0.4,0.3,0.7,0.6,1.1,0.9l0.2,0.1c1.2,1,2.4,2.1,3.6,3.3c1.3,1.2,2.4,2.4,3.5,3.8c1.1,1.3,2.1,2.6,2.9,3.9   c1,1.4,1.8,2.9,2.5,4.2c0.7,1.3,1.3,2.7,2.1,4.4c0.7,1.6,1.3,3.2,1.7,4.8c0.4,1.5,0.9,3,1.2,4.7c0.3,1.4,0.7,3.2,0.8,5.1   c0.1,1.6,0.2,3.2,0.2,4.8c0,1.7-0.1,3.3-0.2,4.8l0,0.4c-0.2,1.5-0.4,3-0.8,4.7c-0.3,1.4-0.7,2.9-1.2,4.7c-0.5,1.6-1,3.2-1.7,4.8   l-0.5,1.1c-0.5,1.1-1,2.2-1.6,3.4c-0.7,1.3-1.6,2.8-2.5,4.2c-0.7,1.1-1.4,1.9-2,2.7c-0.3,0.4-0.6,0.7-0.9,1.1l-0.1,0.2   c-1,1.2-2.1,2.4-3.3,3.6c-1.2,1.3-2.4,2.4-3.8,3.5c-1.3,1.1-2.6,2.1-3.9,2.9c-1.5,1-2.9,1.8-4.2,2.6c-1.3,0.7-2.7,1.4-4.4,2.1   c-1.6,0.7-3.2,1.3-4.8,1.7c-1.4,0.4-3,0.9-4.7,1.2c-1.4,0.3-3.2,0.7-5.1,0.8C349.8,391.8,348.2,391.9,346.5,391.9z"></path>
	<path class="st3 svg-elem-5" d="M442.8,306.9c-1.7,0-3.3-0.1-4.8-0.2l-0.4,0c-1.5-0.2-3-0.4-4.7-0.8c-1.8-0.4-3.5-0.8-4.8-1.2   c-1.6-0.5-3.2-1-4.8-1.7c-1.5-0.6-3-1.3-4.5-2.1c-1.3-0.7-2.8-1.6-4.2-2.5l-0.2-0.2c-0.4-0.3-0.8-0.6-1.1-0.8   c-0.9-0.6-1.7-1.3-2.7-2c-1.2-1-2.4-2.1-3.6-3.3c-1.1-1.1-2.2-2.3-3.3-3.6c-1.1-1.3-2.1-2.7-3-4c-1-1.5-1.8-2.9-2.6-4.2l-0.1-0.1   c-0.7-1.5-1.4-2.9-2-4.4c-0.7-1.6-1.3-3.2-1.7-4.8c-0.4-1.4-0.9-3-1.2-4.7c-0.3-1.4-0.7-3.2-0.8-5.1c-0.1-1.6-0.2-3.2-0.2-4.8   c0-1.7,0.1-3.4,0.3-5.2c0.2-1.5,0.4-3.1,0.8-4.8c0.4-1.8,0.8-3.5,1.2-4.8c0.5-1.6,1-3.2,1.7-4.8c0.6-1.5,1.3-3,2.1-4.5   c0.6-1.1,1.2-2.1,1.8-3c0.2-0.3,0.4-0.7,0.6-1l0.3-0.4l2.8-3.8c1-1.2,2.1-2.5,3.3-3.7c1.1-1.1,2.3-2.3,3.7-3.4   c1.3-1.1,2.6-2.1,3.9-2.9c1.4-1,2.9-1.8,4.2-2.5l0.1-0.1c1.5-0.7,2.8-1.4,4.4-2c1.6-0.7,3.2-1.3,4.8-1.7c1.5-0.4,3-0.9,4.7-1.2   c1.4-0.3,3.2-0.7,5.1-0.8c1.6-0.1,3.2-0.2,4.8-0.2s3.3,0.1,4.8,0.2l0.3,0c1.5,0.2,3,0.4,4.7,0.8c1.4,0.3,2.9,0.7,4.7,1.2   c1.6,0.5,3.2,1,4.8,1.7c1.5,0.6,3,1.3,4.5,2.1c1.3,0.7,2.8,1.6,4.2,2.5l0.2,0.2l3.8,2.8c1.2,1,2.5,2.1,3.7,3.3   c1.1,1.1,2.2,2.3,3.3,3.6c1.1,1.3,2.1,2.7,3,4c1,1.4,1.8,2.9,2.5,4.2l0.1,0.1c0.7,1.5,1.4,2.9,2,4.4c0.7,1.6,1.3,3.2,1.7,4.8   l0.2,0.8c0.3,1.3,0.7,2.6,1,4c0.3,1.4,0.7,3.2,0.8,5.1c0.1,1.6,0.2,3.2,0.2,4.8c0,1.7-0.1,3.3-0.2,4.8l0,0.3   c-0.2,1.4-0.4,3-0.8,4.7c-0.4,1.8-0.9,3.6-1.2,4.8c-0.5,1.6-1,3.2-1.7,4.8c-0.6,1.4-1.3,3-2.1,4.5c-0.7,1.4-1.6,2.8-2.6,4.2   l-0.2,0.2c-0.3,0.4-0.6,0.8-0.8,1.1c-0.6,0.9-1.3,1.7-2,2.7c-1,1.2-2.1,2.4-3.3,3.6c-1.1,1.1-2.3,2.2-3.6,3.3c-1.3,1.1-2.7,2.1-4,3   c-1.4,1-2.9,1.8-4.2,2.5l-0.1,0.1c-1.5,0.7-2.8,1.4-4.4,2c-1.6,0.7-3.2,1.3-4.8,1.7c-1.5,0.4-3,0.9-4.7,1.2   c-1.5,0.3-3.2,0.5-4.7,0.8l-0.3,0C446.1,306.7,444.5,306.9,442.8,306.9z"></path>
	<path class="st3 svg-elem-6" d="M256.8,306.8c-17.2,0-31.2-8.1-44.7-15.9c-14.4-8.3-29.3-16.9-48.9-16.5l-0.1,0l-0.1,0   c-19.6-0.4-34.5,8.2-48.9,16.5c-13.6,7.8-27.6,15.9-44.9,15.9c-1.7,0-3.3-0.1-4.8-0.2c-1.9-0.1-3.6-0.5-5.1-0.8   c-1.6-0.3-3.2-0.8-4.6-1.2c-1.6-0.5-3.2-1-4.8-1.7c-1.7-0.7-3.1-1.4-4.4-2.1c-1.3-0.7-2.8-1.6-4.2-2.5c-1.3-0.9-2.6-1.9-3.9-2.9   c-1.4-1-2.7-2.2-3.8-3.5c-1.2-1.2-2.3-2.4-3.3-3.6l-0.1-0.2c-0.3-0.4-0.6-0.8-0.9-1.1c-0.6-0.8-1.3-1.7-2-2.6   c-1-1.5-1.9-2.9-2.6-4.3c-0.6-1.1-1.1-2.3-1.6-3.4l-0.5-1c-0.7-1.6-1.3-3.2-1.7-4.8c-0.5-1.8-0.9-3.3-1.2-4.6   c-0.4-1.8-0.6-3.3-0.8-4.8l0-0.3c-0.1-1.6-0.2-3.2-0.2-4.8c0-1.7,0.1-3.3,0.2-4.8l0-0.4c0.2-1.6,0.4-3.2,0.8-4.8   c0.3-1.6,0.8-3.2,1.2-4.6c0.5-1.6,1-3.2,1.7-4.8c0.7-1.7,1.4-3.1,2.1-4.4c0.7-1.3,1.6-2.8,2.5-4.2c0.9-1.3,1.9-2.6,2.9-3.9   c1-1.4,2.2-2.7,3.5-3.8c1.2-1.2,2.4-2.3,3.6-3.3l0.2-0.1c0.4-0.3,0.8-0.6,1.1-0.9c0.8-0.6,1.7-1.3,2.6-2c1.5-1,2.9-1.9,4.3-2.6   c1.1-0.6,2.3-1.1,3.4-1.6l1-0.5c1.6-0.7,3.2-1.3,4.8-1.7c1.8-0.5,3.3-0.9,4.6-1.2c1.8-0.4,3.3-0.6,4.8-0.8l0.3,0   c1.6-0.1,3.2-0.2,4.8-0.2c17.2,0,31.2,8.1,44.7,15.9c14.5,8.3,29.4,16.9,49.1,16.5l0.1,0l0.1,0c19.6,0.4,34.5-8.2,49-16.5   c13.6-7.8,27.6-15.9,44.7-15.9c1.7,0,3.3,0.1,4.8,0.2c1.9,0.1,3.6,0.5,5.2,0.8c1.6,0.3,3.2,0.8,4.6,1.2c1.6,0.5,3.2,1,4.8,1.7   c1.7,0.7,3.1,1.4,4.4,2.1c1.3,0.7,2.8,1.6,4.2,2.5c1.3,0.9,2.6,1.9,3.9,2.9c1.4,1,2.7,2.2,3.8,3.5c1.2,1.2,2.3,2.4,3.3,3.6l0.1,0.2   c0.3,0.4,0.6,0.8,0.9,1.1c0.6,0.8,1.3,1.7,2,2.6c1,1.5,1.9,2.9,2.6,4.3c0.6,1.1,1.1,2.3,1.6,3.4l0.5,1.1c0.7,1.6,1.3,3.2,1.7,4.8   c0.5,1.8,0.9,3.3,1.2,4.6c0.4,1.8,0.6,3.3,0.8,4.8l0,0.3c0.1,1.6,0.2,3.2,0.2,4.8c0,1.7-0.1,3.3-0.2,4.8c-0.1,1.9-0.5,3.7-0.8,5.2   c-0.3,1.6-0.8,3.1-1.2,4.6c-0.5,1.6-1,3.2-1.7,4.8c-0.8,1.8-1.4,3.1-2.1,4.4c-0.7,1.3-1.6,2.8-2.5,4.2c-0.9,1.3-1.9,2.6-2.9,3.9   c-1,1.4-2.2,2.7-3.5,3.8c-1.2,1.2-2.4,2.3-3.6,3.3l-0.2,0.1c-0.4,0.3-0.8,0.6-1.1,0.9c-0.8,0.6-1.7,1.3-2.6,1.9   c-1.5,1-2.9,1.9-4.3,2.6c-1.1,0.6-2.3,1.1-3.4,1.6l-1,0.5c-1.6,0.7-3.2,1.3-4.8,1.7c-1.8,0.5-3.3,0.9-4.6,1.2   c-1.8,0.4-3.3,0.6-4.8,0.8l-0.3,0C260,306.6,258.4,306.8,256.8,306.8z"></path>
	<path class="st3 svg-elem-7" d="M346.5,221.4c-17.2,0-31.3-8.1-44.9-15.9c-14.4-8.3-29.4-16.9-48.9-16.5l-0.1,0l-0.1,0   c-19.6-0.4-34.6,8.2-49.1,16.5c-13.6,7.8-27.6,15.9-44.7,15.9c-1.6,0-3.3,0-5.2-0.2c-1.6-0.2-3.2-0.4-4.8-0.8   c-1.3-0.3-2.8-0.7-4.6-1.2c-1.6-0.5-3.2-1-4.8-1.7l-1-0.5c-1.1-0.5-2.2-1-3.4-1.6c-1.4-0.7-2.8-1.6-4.2-2.6c-1-0.7-1.9-1.4-2.7-2   c-0.4-0.3-0.7-0.6-1.1-0.9l-0.2-0.1c-1.2-1-2.4-2.1-3.6-3.3c-1.3-1.2-2.4-2.4-3.5-3.8c-1.1-1.3-2.1-2.6-2.9-3.9   c-1-1.4-1.8-2.9-2.6-4.2c-0.7-1.3-1.4-2.7-2.1-4.4c-0.7-1.6-1.3-3.2-1.7-4.8c-0.4-1.5-0.9-3-1.2-4.7c-0.3-1.4-0.7-3.2-0.8-5.1   c-0.1-1.6-0.2-3.2-0.2-4.8c0-1.6,0.1-3.2,0.2-4.7l0-0.3c0.2-1.4,0.4-3,0.8-4.7c0.3-1.4,0.7-2.9,1.2-4.7c0.5-1.6,1-3.2,1.7-4.8   l0.5-1c0.5-1.1,1-2.2,1.6-3.4c0.7-1.4,1.6-2.8,2.6-4.2c0.7-1,1.4-1.9,2-2.7c0.3-0.4,0.6-0.7,0.9-1.1l0.1-0.2c1-1.2,2.1-2.4,3.3-3.6   c1.2-1.3,2.4-2.4,3.8-3.5c1.3-1.1,2.6-2.1,3.9-2.9c1.5-1,2.9-1.8,4.2-2.6c1.3-0.7,2.7-1.3,4.4-2.1c1.6-0.7,3.2-1.3,4.8-1.7   c1.8-0.5,3.3-0.9,4.6-1.2c1.5-0.3,3.3-0.7,5.1-0.8c1.6-0.1,3.3-0.2,5-0.2c17.1,0,31.1,8.1,44.7,15.9c14.5,8.3,29.4,16.9,48.9,16.5   l0.1,0l0.1,0c19.6,0.3,34.6-8.3,49-16.6c13.6-7.8,27.6-15.9,44.8-15.9l0.4,0c0.4,0,0.9,0.1,1.4,0.1c1,0,2.2,0.1,3.4,0.3   c1.6,0.2,3.2,0.4,4.8,0.8c1.6,0.3,3.2,0.8,4.6,1.2c1.6,0.5,3.2,1,4.8,1.7c1.7,0.7,3.1,1.4,4.4,2.1c1.3,0.7,2.8,1.6,4.2,2.5   c1.5,1,2.7,2,3.9,2.9c1.4,1,2.6,2.2,3.8,3.4c1.3,1.2,2.4,2.5,3.5,3.8c0.9,1.2,1.8,2.5,2.7,3.7c1.1,1.5,1.9,3,2.6,4.3   c0.7,1.3,1.4,2.7,2.1,4.4c0.7,1.5,1.2,3.1,1.7,4.7c0.6,1.7,0.9,3.3,1.2,4.9l0.1,0.4c0.3,1.5,0.6,3,0.7,4.7c0.1,1.4,0.2,3.2,0.2,4.7   c0,1.6-0.1,3.2-0.2,4.7l0,0.3c-0.2,1.5-0.4,3-0.8,4.7c-0.3,1.4-0.7,2.9-1.2,4.7c-0.5,1.9-1.1,3.6-1.8,4.9l-0.4,0.9   c-0.5,1.1-1,2.2-1.6,3.4c-0.7,1.3-1.5,2.7-2.5,4.1c-0.7,1.2-1.5,2.2-2.2,3.1l-0.9,1.2l-3.2,3.5c-1.2,1.2-2.5,2.3-3.7,3.3   c-1.3,1.1-2.7,2.1-4,3c-1.4,1-2.9,1.8-4.2,2.5c-1.3,0.7-2.7,1.4-4.4,2.1c-1.6,0.7-3.2,1.3-4.8,1.7c-1.5,0.4-3,0.9-4.7,1.2   c-1.7,0.3-3.3,0.6-4.7,0.8C350,221.3,348.3,221.4,346.5,221.4z"></path>
</g>
</svg>
