<svg xmlns="http://www.w3.org/2000/svg" width="470" height="609" fill="none" viewBox="0 0 470 609">
  <path fill="#BEBFC2" d="M237.895 62.95h-3.39v353.02h3.39V62.95Zm-26.24 0v150.48H91.005c-11.43 0-20.73 9.25-20.83 20.65v34.83h3.39v-34.64c0-9.62 7.83-17.45 17.45-17.45h124.04V62.95h-3.4Zm49.04 0v150.48h120.65c11.43 0 20.73 9.25 20.83 20.65v34.83h-3.39v-34.64c0-9.62-7.83-17.45-17.45-17.45h-124.04V62.95h3.4Z"/>
  <path fill="#3C3C3B" d="M402.115 251.12c-34.02 1.11-61.69 28.79-62.8 62.81-.39 12.06 2.52 23.41 7.88 33.23 3.03 5.55 2.19 12.42-2.29 16.89l-58.74 58.74c-4.58 4.58-11.64 5.36-17.23 2.09-9.62-5.63-20.82-8.86-32.77-8.86-14.3 0-27.51 4.62-38.24 12.45-5.61 4.09-13.35 3.51-18.25-1.4l-58.32-58.32c-4.66-4.66-5.3-11.91-1.73-17.45 6.78-10.49 10.63-23.07 10.36-36.55-.69-34.35-28.53-62.54-62.87-63.63-38.28-1.22-69.43 30.67-66.98 69.21 2.08 32.84 28.92 59.18 61.8 60.69 13.04.6 25.28-2.65 35.69-8.7 5.55-3.23 12.56-2.46 17.1 2.08l60.89 60.89c4.35 4.35 5.29 10.99 2.51 16.48-4.67 9.23-7.2 19.72-6.94 30.83.84 35.49 30.54 63.98 66.03 63.42 35.41-.56 63.95-29.44 63.95-64.99 0-12.88-3.75-24.88-10.21-34.98-3.58-5.6-2.86-12.91 1.84-17.61l56.9-56.9c4.78-4.78 12.32-5.61 17.9-1.79 10.54 7.22 23.31 11.42 37.06 11.34 34.71-.2 63.47-28.17 64.58-62.87 1.2-37.59-29.53-68.32-67.13-67.09l.01-.01ZM23.05 465.018c-1.414 0-2.639-.413-3.675-1.239-1.036-.84-1.673-1.932-1.91-3.276l1.805-.588c.14 1.022.567 1.848 1.281 2.478.714.616 1.561.924 2.541.924 1.008 0 1.813-.217 2.415-.651.602-.448.903-1.036.903-1.764 0-.602-.21-1.106-.63-1.512-.406-.42-.917-.721-1.533-.903-.616-.196-1.288-.413-2.016-.651-.728-.238-1.4-.483-2.016-.735a3.644 3.644 0 0 1-1.554-1.218c-.406-.56-.609-1.246-.609-2.058 0-1.134.462-2.058 1.386-2.772.924-.714 2.114-1.071 3.57-1.071 1.344 0 2.492.336 3.444 1.008.952.658 1.52 1.533 1.701 2.625l-1.743.672c-.154-.798-.532-1.428-1.134-1.89-.588-.476-1.344-.714-2.268-.714-.938 0-1.68.196-2.226.588-.532.378-.798.896-.798 1.554 0 .448.154.826.462 1.134.308.308.707.546 1.197.714.504.168 1.05.329 1.638.483.602.154 1.197.336 1.785.546.602.21 1.148.476 1.638.798.504.308.91.749 1.218 1.323.308.574.462 1.26.462 2.058 0 1.246-.49 2.247-1.47 3.003-.966.756-2.254 1.134-3.864 1.134Zm13.166-.252c-.462.168-1.015.252-1.659.252-.952 0-1.715-.273-2.289-.819-.56-.56-.84-1.4-.84-2.52v-5.838h-1.974v-1.575h1.974v-3.213h1.785v3.213h2.835v1.575h-2.835v5.901c0 .546.14.959.42 1.239.28.28.658.42 1.134.42.518 0 .96-.091 1.323-.273l.126 1.638Zm5.847-10.668c1.302 0 2.352.357 3.15 1.071s1.197 1.68 1.197 2.898v6.783h-1.764v-1.806c-.308.602-.784 1.085-1.428 1.449a4.25 4.25 0 0 1-2.1.525c-1.05 0-1.911-.287-2.583-.861-.658-.588-.987-1.344-.987-2.268 0-1.988 1.68-3.15 5.04-3.486l2.058-.231v-.21c0-.728-.238-1.302-.714-1.722-.462-.434-1.085-.651-1.87-.651-.727 0-1.33.203-1.805.609-.476.406-.75.966-.82 1.68l-1.658-.315c.154-1.05.623-1.89 1.407-2.52.798-.63 1.757-.945 2.877-.945Zm-.672 9.45c1.022 0 1.82-.315 2.394-.945.574-.63.86-1.477.86-2.541v-.504l-2.057.231c-2.17.238-3.255.931-3.255 2.079 0 .49.189.896.567 1.218.392.308.889.462 1.49.462Zm15.124 1.302-3.99-5.208-1.407 1.281v3.927h-1.806v-14.868h1.806v8.589l4.893-4.305h2.373l-4.536 4.179 4.893 6.405h-2.226Zm13.037-5.775c0 .294-.014.567-.042.819h-8.358c.056 1.064.392 1.925 1.008 2.583.63.644 1.421.966 2.373.966.812 0 1.484-.182 2.016-.546.532-.364.875-.875 1.03-1.533l1.68.399c-.267 1.022-.82 1.82-1.66 2.394-.826.574-1.848.861-3.066.861-1.554 0-2.807-.525-3.759-1.575-.938-1.05-1.407-2.345-1.407-3.885 0-1.554.462-2.849 1.386-3.885.938-1.05 2.184-1.575 3.738-1.575 1.526 0 2.751.483 3.675 1.449.924.952 1.386 2.128 1.386 3.528Zm-8.295-.672h6.405c-.084-.84-.406-1.519-.966-2.037-.56-.518-1.295-.777-2.205-.777-.826 0-1.526.252-2.1.756-.574.49-.952 1.176-1.134 2.058Zm-43.079 11.579h2.058v2.268h-2.058v-2.268Zm.126 14.868v-10.584h1.785v10.584h-1.785Zm4.676 0v-10.584h1.785v1.995a4.41 4.41 0 0 1 1.512-1.575 3.933 3.933 0 0 1 2.121-.588c1.106 0 2.009.343 2.709 1.029.714.686 1.071 1.589 1.071 2.709v7.014h-1.785v-6.678c0-.728-.217-1.316-.651-1.764-.434-.462-1.015-.693-1.743-.693-.994 0-1.785.406-2.373 1.218-.574.798-.861 1.89-.861 3.276v4.641H22.98Zm17.249 0v-14.7h5.313c1.4 0 2.499.336 3.297 1.008.798.658 1.197 1.582 1.197 2.772 0 .644-.189 1.232-.567 1.764-.378.518-.833.889-1.365 1.113 1.722.602 2.583 1.855 2.583 3.759 0 1.33-.427 2.38-1.281 3.15-.854.756-2.037 1.134-3.549 1.134h-5.628Zm1.89-8.652h3.339c1.792 0 2.688-.735 2.688-2.205 0-1.47-.896-2.205-2.688-2.205h-3.339v4.41Zm0 6.93h3.423c2.156 0 3.234-.868 3.234-2.604 0-1.764-1.078-2.646-3.234-2.646h-3.423v5.25Zm10.758-13.146h2.058v2.268h-2.058v-2.268Zm.126 14.868v-10.584h1.785v10.584h-1.785Zm4.676 0v-10.584h1.785v1.995a4.41 4.41 0 0 1 1.512-1.575 3.933 3.933 0 0 1 2.121-.588c1.106 0 2.01.343 2.71 1.029.713.686 1.07 1.589 1.07 2.709v7.014h-1.785v-6.678c0-.728-.217-1.316-.65-1.764-.435-.462-1.016-.693-1.744-.693-.994 0-1.785.406-2.373 1.218-.574.798-.86 1.89-.86 3.276v4.641h-1.786Zm16.048-10.752c1.302 0 2.352.357 3.15 1.071s1.197 1.68 1.197 2.898v6.783H76.31v-1.806c-.308.602-.784 1.085-1.428 1.449a4.25 4.25 0 0 1-2.1.525c-1.05 0-1.911-.287-2.583-.861-.658-.588-.987-1.344-.987-2.268 0-1.988 1.68-3.15 5.04-3.486l2.058-.231v-.21c0-.728-.238-1.302-.714-1.722-.462-.434-1.085-.651-1.87-.651-.727 0-1.33.203-1.805.609-.476.406-.75.966-.82 1.68l-1.658-.315c.154-1.05.623-1.89 1.407-2.52.798-.63 1.757-.945 2.877-.945Zm-.672 9.45c1.022 0 1.82-.315 2.394-.945.574-.63.86-1.477.86-2.541v-.504l-2.057.231c-2.17.238-3.255.931-3.255 2.079 0 .49.189.896.567 1.218.392.308.889.462 1.49.462Zm7.921 1.302v-14.868h1.785v6.363c.77-1.498 1.974-2.247 3.612-2.247 1.204 0 2.163.343 2.877 1.029.728.686 1.092 1.603 1.092 2.751v6.972h-1.785v-6.636c0-.784-.23-1.393-.693-1.827-.448-.448-1.078-.672-1.89-.672-.98 0-1.764.413-2.352 1.239-.574.826-.86 1.946-.86 3.36v4.536h-1.786Z"/>
  <path fill="#3C3C3B" d="M30.823 435.044c-3.296 0-6.08-.848-8.352-2.544-2.272-1.696-3.632-3.952-4.08-6.768l5.904-1.104c.32 1.472 1.04 2.64 2.16 3.504 1.12.832 2.496 1.248 4.128 1.248 1.76 0 3.184-.544 4.272-1.632 1.088-1.088 1.632-2.528 1.632-4.32 0-1.856-.576-3.312-1.728-4.368-1.12-1.088-2.64-1.632-4.56-1.632-2.656 0-4.752 1.136-6.288 3.408l-4.704-1.008 2.784-18.768H40.52v5.616H26.743l-1.248 8.016c1.76-1.6 3.872-2.4 6.336-2.4 3.328 0 6.016 1.04 8.064 3.12 2.08 2.048 3.12 4.72 3.12 8.016 0 3.52-1.12 6.336-3.36 8.448-2.208 2.112-5.152 3.168-8.832 3.168Zm39.219-4.656c-2.432 3.104-5.76 4.656-9.984 4.656s-7.552-1.552-9.984-4.656c-2.432-3.104-3.648-7.28-3.648-12.528s1.216-9.424 3.648-12.528c2.432-3.104 5.76-4.656 9.984-4.656s7.552 1.552 9.984 4.656c2.432 3.104 3.648 7.28 3.648 12.528s-1.216 9.424-3.648 12.528Zm-15.216-4.032c1.216 2.016 2.96 3.024 5.232 3.024 2.272 0 4.016-1.008 5.232-3.024 1.248-2.016 1.872-4.848 1.872-8.496 0-3.648-.624-6.48-1.872-8.496-1.216-2.048-2.96-3.072-5.232-3.072-2.272 0-4.016 1.024-5.232 3.072-1.216 2.016-1.824 4.848-1.824 8.496 0 3.648.608 6.48 1.824 8.496Zm29.648-8.784c-2.368 0-4.272-.784-5.712-2.352-1.44-1.568-2.16-3.6-2.16-6.096s.72-4.528 2.16-6.096c1.44-1.568 3.344-2.352 5.712-2.352 2.336 0 4.224.784 5.664 2.352 1.44 1.568 2.16 3.6 2.16 6.096s-.72 4.528-2.16 6.096c-1.44 1.568-3.328 2.352-5.664 2.352Zm-3.936 17.088 22.464-33.6h4.896l-22.464 33.6h-4.896Zm3.936-21.216c.992 0 1.76-.384 2.304-1.152.576-.768.864-1.824.864-3.168s-.288-2.4-.864-3.168c-.544-.768-1.312-1.152-2.304-1.152-1.024 0-1.824.384-2.4 1.152-.576.768-.864 1.824-.864 3.168s.288 2.4.864 3.168c.576.768 1.376 1.152 2.4 1.152Zm25.296 19.248c-1.44 1.568-3.328 2.352-5.664 2.352s-4.24-.784-5.712-2.352c-1.44-1.568-2.16-3.6-2.16-6.096s.72-4.528 2.16-6.096c1.472-1.568 3.376-2.352 5.712-2.352s4.224.784 5.664 2.352c1.44 1.568 2.16 3.6 2.16 6.096s-.72 4.528-2.16 6.096Zm-8.016-2.928c.576.768 1.36 1.152 2.352 1.152.992 0 1.776-.384 2.352-1.152.576-.768.864-1.824.864-3.168s-.288-2.4-.864-3.168c-.576-.768-1.36-1.152-2.352-1.152-.992 0-1.776.384-2.352 1.152-.576.768-.864 1.824-.864 3.168s.288 2.4.864 3.168Zm268.44 38.908v-14.406h1.785v1.533c.294-.49.756-.896 1.386-1.218a4.63 4.63 0 0 1 2.1-.483c1.582 0 2.821.511 3.717 1.533.896 1.008 1.344 2.317 1.344 3.927 0 1.596-.455 2.905-1.365 3.927-.91 1.022-2.156 1.533-3.738 1.533a4.569 4.569 0 0 1-1.953-.441c-.63-.308-1.127-.707-1.491-1.197v5.292h-1.785Zm5.061-5.25c1.05 0 1.89-.35 2.52-1.05.63-.714.945-1.652.945-2.814 0-1.162-.315-2.093-.945-2.793-.63-.714-1.47-1.071-2.52-1.071-1.036 0-1.869.357-2.499 1.071-.616.7-.924 1.631-.924 2.793 0 1.162.308 2.1.924 2.814.63.7 1.463 1.05 2.499 1.05Zm13.746-7.413c-.392-.168-.847-.252-1.365-.252-.896 0-1.631.434-2.205 1.302-.56.854-.84 2.107-.84 3.759v4.032h-1.785v-10.584h1.785v2.142a4.078 4.078 0 0 1 1.386-1.659c.616-.434 1.253-.651 1.911-.651.462 0 .868.063 1.218.189l-.105 1.722Zm9.983 7.476c-1.008 1.022-2.296 1.533-3.864 1.533s-2.856-.511-3.864-1.533c-1.008-1.036-1.512-2.345-1.512-3.927 0-1.582.504-2.884 1.512-3.906 1.008-1.036 2.296-1.554 3.864-1.554s2.856.518 3.864 1.554c1.022 1.022 1.533 2.324 1.533 3.906 0 1.582-.511 2.891-1.533 3.927Zm-6.426-1.134c.658.714 1.512 1.071 2.562 1.071 1.05 0 1.904-.357 2.562-1.071.658-.728.987-1.659.987-2.793 0-1.134-.329-2.058-.987-2.772-.658-.728-1.512-1.092-2.562-1.092-1.05 0-1.904.364-2.562 1.092-.658.714-.987 1.638-.987 2.772s.329 2.065.987 2.793Zm10.16-12.369h2.058v2.268h-2.058v-2.268ZM401.5 468.84l-.441-.021-.042-1.596c.098.014.196.021.294.021 1.022 0 1.533-.658 1.533-1.974v-11.004h1.785v11.235c0 .98-.287 1.778-.861 2.394-.574.63-1.33.945-2.268.945Zm15.574-9.765c0 .294-.014.567-.042.819h-8.358c.056 1.064.392 1.925 1.008 2.583.63.644 1.421.966 2.373.966.812 0 1.484-.182 2.016-.546.532-.364.875-.875 1.029-1.533l1.68.399c-.266 1.022-.819 1.82-1.659 2.394-.826.574-1.848.861-3.066.861-1.554 0-2.807-.525-3.759-1.575-.938-1.05-1.407-2.345-1.407-3.885 0-1.554.462-2.849 1.386-3.885.938-1.05 2.184-1.575 3.738-1.575 1.526 0 2.751.483 3.675 1.449.924.952 1.386 2.128 1.386 3.528Zm-8.295-.672h6.405c-.084-.84-.406-1.519-.966-2.037-.56-.518-1.295-.777-2.205-.777-.826 0-1.526.252-2.1.756-.574.49-.952 1.176-1.134 2.058Zm15.234 6.615c-1.568 0-2.835-.497-3.801-1.491-.966-1.008-1.449-2.331-1.449-3.969s.483-2.954 1.449-3.948c.966-1.008 2.233-1.512 3.801-1.512 1.232 0 2.261.315 3.087.945.84.616 1.358 1.449 1.554 2.499l-1.764.357a2.478 2.478 0 0 0-.945-1.575c-.518-.42-1.148-.63-1.89-.63-1.036 0-1.869.357-2.499 1.071-.616.7-.924 1.631-.924 2.793 0 1.162.308 2.1.924 2.814.63.7 1.463 1.05 2.499 1.05.756 0 1.386-.196 1.89-.588.518-.392.847-.938.987-1.638l1.743.357c-.224 1.092-.756 1.946-1.596 2.562-.826.602-1.848.903-3.066.903Zm12.369-.252c-.462.168-1.015.252-1.659.252-.952 0-1.715-.273-2.289-.819-.56-.56-.84-1.4-.84-2.52v-5.838h-1.974v-1.575h1.974v-3.213h1.785v3.213h2.835v1.575h-2.835v5.901c0 .546.14.959.42 1.239.28.28.658.42 1.134.42.518 0 .959-.091 1.323-.273l.126 1.638Zm-66.188 23.906v-14.406h1.785v1.533c.294-.49.756-.896 1.386-1.218a4.63 4.63 0 0 1 2.1-.483c1.582 0 2.821.511 3.717 1.533.896 1.008 1.344 2.317 1.344 3.927 0 1.596-.455 2.905-1.365 3.927-.91 1.022-2.156 1.533-3.738 1.533a4.569 4.569 0 0 1-1.953-.441c-.63-.308-1.127-.707-1.491-1.197v5.292h-1.785Zm5.061-5.25c1.05 0 1.89-.35 2.52-1.05.63-.714.945-1.652.945-2.814 0-1.162-.315-2.093-.945-2.793-.63-.714-1.47-1.071-2.52-1.071-1.036 0-1.869.357-2.499 1.071-.616.7-.924 1.631-.924 2.793 0 1.162.308 2.1.924 2.814.63.7 1.463 1.05 2.499 1.05Zm7.425-13.44h2.058v2.268h-2.058v-2.268Zm.126 14.868v-10.584h1.785v10.584h-1.785Zm4.676 3.822v-14.406h1.785v1.533c.294-.49.756-.896 1.386-1.218a4.63 4.63 0 0 1 2.1-.483c1.582 0 2.821.511 3.717 1.533.896 1.008 1.344 2.317 1.344 3.927 0 1.596-.455 2.905-1.365 3.927-.91 1.022-2.156 1.533-3.738 1.533a4.569 4.569 0 0 1-1.953-.441c-.63-.308-1.127-.707-1.491-1.197v5.292h-1.785Zm5.061-5.25c1.05 0 1.89-.35 2.52-1.05.63-.714.945-1.652.945-2.814 0-1.162-.315-2.093-.945-2.793-.63-.714-1.47-1.071-2.52-1.071-1.036 0-1.869.357-2.499 1.071-.616.7-.924 1.631-.924 2.793 0 1.162.308 2.1.924 2.814.63.7 1.463 1.05 2.499 1.05Zm17.128-4.347c0 .294-.014.567-.042.819h-8.358c.056 1.064.392 1.925 1.008 2.583.63.644 1.421.966 2.373.966.812 0 1.484-.182 2.016-.546.532-.364.875-.875 1.029-1.533l1.68.399c-.266 1.022-.819 1.82-1.659 2.394-.826.574-1.848.861-3.066.861-1.554 0-2.807-.525-3.759-1.575-.938-1.05-1.407-2.345-1.407-3.885 0-1.554.462-2.849 1.386-3.885.938-1.05 2.184-1.575 3.738-1.575 1.526 0 2.751.483 3.675 1.449.924.952 1.386 2.128 1.386 3.528Zm-8.295-.672h6.405c-.084-.84-.406-1.519-.966-2.037-.56-.518-1.295-.777-2.205-.777-.826 0-1.526.252-2.1.756-.574.49-.952 1.176-1.134 2.058Zm10.593 6.447v-14.868h1.785v14.868h-1.785Zm4.549-14.868h2.058v2.268h-2.058v-2.268Zm.126 14.868v-10.584h1.785v10.584h-1.785Zm4.676 0v-10.584h1.785v1.995a4.41 4.41 0 0 1 1.512-1.575 3.933 3.933 0 0 1 2.121-.588c1.106 0 2.009.343 2.709 1.029.714.686 1.071 1.589 1.071 2.709v7.014h-1.785v-6.678c0-.728-.217-1.316-.651-1.764-.434-.462-1.015-.693-1.743-.693-.994 0-1.785.406-2.373 1.218-.574.798-.861 1.89-.861 3.276v4.641h-1.785Zm21.676-5.775c0 .294-.014.567-.042.819h-8.358c.056 1.064.392 1.925 1.008 2.583.63.644 1.421.966 2.373.966.812 0 1.484-.182 2.016-.546.532-.364.875-.875 1.029-1.533l1.68.399c-.266 1.022-.819 1.82-1.659 2.394-.826.574-1.848.861-3.066.861-1.554 0-2.807-.525-3.759-1.575-.938-1.05-1.407-2.345-1.407-3.885 0-1.554.462-2.849 1.386-3.885.938-1.05 2.184-1.575 3.738-1.575 1.526 0 2.751.483 3.675 1.449.924.952 1.386 2.128 1.386 3.528Zm-8.295-.672h6.405c-.084-.84-.406-1.519-.966-2.037-.56-.518-1.295-.777-2.205-.777-.826 0-1.526.252-2.1.756-.574.49-.952 1.176-1.134 2.058Zm-62.018-77.727-2.976 11.76h-6.96l6.048-11.76h3.888Zm9.072 0-2.976 11.76h-7.008l6.048-11.76h3.936Zm27.896 24.432c0 2.592-.896 4.752-2.688 6.48-1.76 1.728-4.144 2.816-7.152 3.264v4.896l-5.376-.048v-4.896c-2.752-.48-5.088-1.664-7.008-3.552-1.92-1.888-3.056-4.144-3.408-6.768l5.808-1.776c.256 1.984 1.072 3.616 2.448 4.896 1.408 1.248 3.056 1.872 4.944 1.872 1.76 0 3.168-.384 4.224-1.152 1.056-.768 1.584-1.792 1.584-3.072 0-1.12-.448-2.048-1.344-2.784-.864-.768-1.952-1.328-3.264-1.68a147.454 147.454 0 0 1-4.32-1.344 49.371 49.371 0 0 1-4.272-1.728c-1.312-.64-2.416-1.616-3.312-2.928-.864-1.344-1.296-2.976-1.296-4.896 0-2.336.848-4.32 2.544-5.952 1.728-1.632 3.952-2.656 6.672-3.072v-4.608h5.376v4.656c2.496.448 4.592 1.408 6.288 2.88 1.728 1.472 2.816 3.264 3.264 5.376l-5.856 2.4c-.352-1.632-1.12-2.928-2.304-3.888-1.152-.96-2.592-1.44-4.32-1.44-1.6 0-2.864.336-3.792 1.008-.928.64-1.392 1.52-1.392 2.64 0 .8.32 1.472.96 2.016.672.544 1.536.976 2.592 1.296a74.2 74.2 0 0 0 3.504.96c1.28.288 2.56.688 3.84 1.2 1.28.48 2.448 1.088 3.504 1.824s1.904 1.776 2.544 3.12c.672 1.344 1.008 2.944 1.008 4.8Zm25.24 9.552h-6.624l-4.8-7.296-4.848 7.296h-6.624l8.16-12.24-7.92-11.952h6.528l4.704 7.008 4.656-7.008h6.528l-7.92 11.952 8.16 12.24Zm12.417-33.984-2.976 11.76h-6.96l6.048-11.76h3.888Zm9.072 0-2.976 11.76h-7.008l6.048-11.76h3.936ZM183.496 575.12c0 1.974-.616 3.668-1.848 5.082l1.722 1.869-2.037 1.827-1.89-2.037c-1.064.518-2.219.777-3.465.777-2.184 0-3.99-.707-5.418-2.121-1.428-1.428-2.142-3.227-2.142-5.397 0-2.17.714-3.962 2.142-5.376 1.428-1.428 3.234-2.142 5.418-2.142 2.17 0 3.962.714 5.376 2.142 1.428 1.428 2.142 3.22 2.142 5.376Zm-7.539 4.662c.434 0 .882-.07 1.344-.21l-2.331-2.52 2.079-1.869 2.415 2.625c.476-.756.714-1.652.714-2.688 0-1.344-.399-2.457-1.197-3.339-.798-.896-1.806-1.344-3.024-1.344-1.232 0-2.247.441-3.045 1.323-.784.882-1.176 2.002-1.176 3.36 0 1.344.392 2.457 1.176 3.339.798.882 1.813 1.323 3.045 1.323Zm9.58 2.688v-14.7h3.318v11.844h6.594v2.856h-9.912Zm11.463 0v-14.7h5.019c1.036 0 2.002.154 2.898.462a7.385 7.385 0 0 1 2.415 1.323c.714.574 1.274 1.344 1.68 2.31.42.952.63 2.037.63 3.255s-.21 2.31-.63 3.276c-.406.952-.966 1.722-1.68 2.31a7.94 7.94 0 0 1-2.415 1.323 9.242 9.242 0 0 1-2.898.441H197Zm3.255-2.856h1.407c.63 0 1.204-.077 1.722-.231a4.532 4.532 0 0 0 1.47-.735c.462-.336.819-.805 1.071-1.407s.378-1.309.378-2.121c0-1.582-.441-2.73-1.323-3.444-.882-.714-1.988-1.071-3.318-1.071h-1.407v9.009Zm16.433 3.906v-16.8h3.318v16.8h-3.318Zm15.087-1.05-5.271-14.7h3.381l3.465 10.71 3.486-10.71h3.381l-5.271 14.7h-3.171Zm9.871 0v-14.7h3.318v14.7h-3.318Zm12.73.168c-2.1 0-3.857-.658-5.271-1.974-1.414-1.316-2.121-3.164-2.121-5.544 0-2.366.707-4.207 2.121-5.523 1.428-1.33 3.185-1.995 5.271-1.995 1.834 0 3.346.455 4.536 1.365 1.204.91 1.911 2.128 2.121 3.654l-3.297.693c-.168-.882-.56-1.582-1.176-2.1-.616-.518-1.351-.777-2.205-.777-1.162 0-2.128.413-2.898 1.239-.756.812-1.134 1.96-1.134 3.444s.378 2.632 1.134 3.444c.756.812 1.722 1.218 2.898 1.218.854 0 1.575-.224 2.163-.672.588-.462.966-1.092 1.134-1.89l3.339.756c-.35 1.456-1.106 2.597-2.268 3.423-1.162.826-2.611 1.239-4.347 1.239Zm13.787.882v-16.8h3.318v16.8h-3.318Zm15.905-.882c-1.47 0-2.751-.441-3.843-1.323-1.092-.896-1.708-2.016-1.848-3.36l2.898-.861c.098.812.42 1.47.966 1.974a2.83 2.83 0 0 0 1.953.756c.658 0 1.183-.14 1.575-.42.406-.294.609-.672.609-1.134 0-.378-.14-.693-.42-.945-.28-.252-.644-.455-1.092-.609a13.646 13.646 0 0 0-1.449-.462 19.992 19.992 0 0 1-1.617-.546 9.127 9.127 0 0 1-1.47-.777c-.434-.308-.791-.735-1.071-1.281-.28-.546-.42-1.183-.42-1.911 0-1.19.497-2.177 1.491-2.961 1.008-.784 2.24-1.176 3.696-1.176 1.414 0 2.639.35 3.675 1.05 1.05.686 1.701 1.589 1.953 2.709l-2.961 1.239c-.154-.672-.469-1.204-.945-1.596-.462-.392-1.036-.588-1.722-.588-.574 0-1.029.119-1.365.357a1.072 1.072 0 0 0-.504.945c0 .308.14.567.42.777.28.196.637.357 1.071.483.448.126.938.252 1.47.378.546.112 1.085.28 1.617.504a6.76 6.76 0 0 1 1.47.819c.448.322.812.784 1.092 1.386.28.602.42 1.309.42 2.121 0 1.33-.518 2.408-1.554 3.234-1.036.812-2.401 1.218-4.095 1.218Zm17.051-.168-1.071-3.024h-5.25l-1.071 3.024h-3.444l5.565-14.7h3.129l5.565 14.7h-3.423Zm-5.313-5.796h3.234l-1.617-4.557-1.617 4.557ZM161.628 602.47v-14.7h9.261v1.701h-7.35v4.326h5.964v1.722h-5.964v5.229h7.581v1.722h-9.492Zm20.147 0h-2.016l-2.667-3.969-2.667 3.969h-2.016l3.675-5.46-3.444-5.124h1.995l2.457 3.633 2.436-3.633h2.016l-3.444 5.124 3.675 5.46Zm1.856 3.822v-14.406h1.785v1.533c.294-.49.756-.896 1.386-1.218a4.63 4.63 0 0 1 2.1-.483c1.582 0 2.821.511 3.717 1.533.896 1.008 1.344 2.317 1.344 3.927 0 1.596-.455 2.905-1.365 3.927-.91 1.022-2.156 1.533-3.738 1.533a4.569 4.569 0 0 1-1.953-.441c-.63-.308-1.127-.707-1.491-1.197v5.292h-1.785Zm5.061-5.25c1.05 0 1.89-.35 2.52-1.05.63-.714.945-1.652.945-2.814 0-1.162-.315-2.093-.945-2.793-.63-.714-1.47-1.071-2.52-1.071-1.036 0-1.869.357-2.499 1.071-.616.7-.924 1.631-.924 2.793 0 1.162.308 2.1.924 2.814.63.7 1.463 1.05 2.499 1.05Zm11.397-9.324c1.302 0 2.352.357 3.15 1.071s1.197 1.68 1.197 2.898v6.783h-1.764v-1.806c-.308.602-.784 1.085-1.428 1.449a4.25 4.25 0 0 1-2.1.525c-1.05 0-1.911-.287-2.583-.861-.658-.588-.987-1.344-.987-2.268 0-1.988 1.68-3.15 5.04-3.486l2.058-.231v-.21c0-.728-.238-1.302-.714-1.722-.462-.434-1.085-.651-1.869-.651-.728 0-1.33.203-1.806.609-.476.406-.749.966-.819 1.68l-1.659-.315c.154-1.05.623-1.89 1.407-2.52.798-.63 1.757-.945 2.877-.945Zm-.672 9.45c1.022 0 1.82-.315 2.394-.945.574-.63.861-1.477.861-2.541v-.504l-2.058.231c-2.17.238-3.255.931-3.255 2.079 0 .49.189.896.567 1.218.392.308.889.462 1.491.462Zm7.921 1.302v-10.584h1.785v1.995a4.41 4.41 0 0 1 1.512-1.575 3.933 3.933 0 0 1 2.121-.588c1.106 0 2.009.343 2.709 1.029.714.686 1.071 1.589 1.071 2.709v7.014h-1.785v-6.678c0-.728-.217-1.316-.651-1.764-.434-.462-1.015-.693-1.743-.693-.994 0-1.785.406-2.373 1.218-.574.798-.861 1.89-.861 3.276v4.641h-1.785Zm15.649.168c-1.176 0-2.142-.301-2.898-.903-.742-.602-1.246-1.33-1.512-2.184l1.533-.672c.476 1.498 1.435 2.247 2.877 2.247.63 0 1.141-.154 1.533-.462.406-.322.609-.707.609-1.155 0-.49-.21-.875-.63-1.155-.42-.28-.931-.49-1.533-.63a48.021 48.021 0 0 1-1.785-.462 3.427 3.427 0 0 1-1.512-.945c-.42-.448-.63-1.043-.63-1.785 0-.84.336-1.519 1.008-2.037.672-.518 1.575-.777 2.709-.777.938 0 1.771.245 2.499.735.728.476 1.204 1.099 1.428 1.869l-1.491.651a2.177 2.177 0 0 0-.924-1.281 2.578 2.578 0 0 0-1.554-.504c-.602 0-1.078.119-1.428.357a1.08 1.08 0 0 0-.525.966c0 .35.147.637.441.861a2.99 2.99 0 0 0 1.134.483c.462.084.959.21 1.491.378a11.98 11.98 0 0 1 1.47.525c.448.196.819.532 1.113 1.008.308.462.462 1.036.462 1.722 0 .924-.357 1.68-1.071 2.268-.714.588-1.652.882-2.814.882Zm6.025-15.036h2.058v2.268h-2.058v-2.268Zm.126 14.868v-10.584h1.785v10.584h-1.785Zm13.307-1.365c-1.008 1.022-2.296 1.533-3.864 1.533s-2.856-.511-3.864-1.533c-1.008-1.036-1.512-2.345-1.512-3.927 0-1.582.504-2.884 1.512-3.906 1.008-1.036 2.296-1.554 3.864-1.554s2.856.518 3.864 1.554c1.022 1.022 1.533 2.324 1.533 3.906 0 1.582-.511 2.891-1.533 3.927Zm-6.426-1.134c.658.714 1.512 1.071 2.562 1.071 1.05 0 1.904-.357 2.562-1.071.658-.728.987-1.659.987-2.793 0-1.134-.329-2.058-.987-2.772-.658-.728-1.512-1.092-2.562-1.092-1.05 0-1.904.364-2.562 1.092-.658.714-.987 1.638-.987 2.772s.329 2.065.987 2.793Zm10.243 2.499v-10.584h1.785v1.995a4.41 4.41 0 0 1 1.512-1.575 3.933 3.933 0 0 1 2.121-.588c1.106 0 2.009.343 2.709 1.029.714.686 1.071 1.589 1.071 2.709v7.014h-1.785v-6.678c0-.728-.217-1.316-.651-1.764-.434-.462-1.015-.693-1.743-.693-.994 0-1.785.406-2.373 1.218-.574.798-.861 1.89-.861 3.276v4.641h-1.785Zm17.165 3.822v-14.406h1.785v1.533c.294-.49.756-.896 1.386-1.218a4.63 4.63 0 0 1 2.1-.483c1.582 0 2.821.511 3.717 1.533.896 1.008 1.344 2.317 1.344 3.927 0 1.596-.455 2.905-1.365 3.927-.91 1.022-2.156 1.533-3.738 1.533a4.569 4.569 0 0 1-1.953-.441c-.63-.308-1.127-.707-1.491-1.197v5.292h-1.785Zm5.061-5.25c1.05 0 1.89-.35 2.52-1.05.63-.714.945-1.652.945-2.814 0-1.162-.315-2.093-.945-2.793-.63-.714-1.47-1.071-2.52-1.071-1.036 0-1.869.357-2.499 1.071-.616.7-.924 1.631-.924 2.793 0 1.162.308 2.1.924 2.814.63.7 1.463 1.05 2.499 1.05Zm7.551 1.428v-14.868h1.785v14.868h-1.785Zm8.624-10.752c1.302 0 2.352.357 3.15 1.071s1.197 1.68 1.197 2.898v6.783h-1.764v-1.806c-.308.602-.784 1.085-1.428 1.449a4.25 4.25 0 0 1-2.1.525c-1.05 0-1.911-.287-2.583-.861-.658-.588-.987-1.344-.987-2.268 0-1.988 1.68-3.15 5.04-3.486l2.058-.231v-.21c0-.728-.238-1.302-.714-1.722-.462-.434-1.085-.651-1.869-.651-.728 0-1.33.203-1.806.609-.476.406-.749.966-.819 1.68l-1.659-.315c.154-1.05.623-1.89 1.407-2.52.798-.63 1.757-.945 2.877-.945Zm-.672 9.45c1.022 0 1.82-.315 2.394-.945.574-.63.861-1.477.861-2.541v-.504l-2.058.231c-2.17.238-3.255.931-3.255 2.079 0 .49.189.896.567 1.218.392.308.889.462 1.491.462Zm7.921 1.302v-10.584h1.785v1.995a4.41 4.41 0 0 1 1.512-1.575 3.933 3.933 0 0 1 2.121-.588c1.106 0 2.009.343 2.709 1.029.714.686 1.071 1.589 1.071 2.709v7.014h-1.785v-6.678c0-.728-.217-1.316-.651-1.764-.434-.462-1.015-.693-1.743-.693-.994 0-1.785.406-2.373 1.218-.574.798-.861 1.89-.861 3.276v4.641h-1.785Zm15.649.168c-1.176 0-2.142-.301-2.898-.903-.742-.602-1.246-1.33-1.512-2.184l1.533-.672c.476 1.498 1.435 2.247 2.877 2.247.63 0 1.141-.154 1.533-.462.406-.322.609-.707.609-1.155 0-.49-.21-.875-.63-1.155-.42-.28-.931-.49-1.533-.63a48.021 48.021 0 0 1-1.785-.462 3.427 3.427 0 0 1-1.512-.945c-.42-.448-.63-1.043-.63-1.785 0-.84.336-1.519 1.008-2.037.672-.518 1.575-.777 2.709-.777.938 0 1.771.245 2.499.735.728.476 1.204 1.099 1.428 1.869l-1.491.651a2.177 2.177 0 0 0-.924-1.281 2.578 2.578 0 0 0-1.554-.504c-.602 0-1.078.119-1.428.357a1.08 1.08 0 0 0-.525.966c0 .35.147.637.441.861a2.99 2.99 0 0 0 1.134.483c.462.084.959.21 1.491.378a11.98 11.98 0 0 1 1.47.525c.448.196.819.532 1.113 1.008.308.462.462 1.036.462 1.722 0 .924-.357 1.68-1.071 2.268-.714.588-1.652.882-2.814.882Z"/>
  <path fill="#C0AFA9" d="M372.22 0H96.21C77.869 0 63 14.866 63 33.205S77.869 66.41 96.21 66.41h276.01c18.341 0 33.21-14.866 33.21-33.205S390.561 0 372.22 0Z"/>
  <path fill="#fff" d="M103.552 42.82V21.832h-7.596V17.62h20.088v4.212h-7.596V42.82h-4.896Zm15.223 0V17.332h4.536v10.152c1.248-2.064 3.168-3.096 5.76-3.096 2.04 0 3.672.6 4.896 1.8 1.248 1.2 1.872 2.784 1.872 4.752v11.88h-4.536V32.056c0-1.128-.324-2.016-.972-2.664-.648-.648-1.524-.972-2.628-.972-1.392 0-2.472.576-3.24 1.728-.768 1.128-1.152 2.724-1.152 4.788v7.884h-4.536Zm38.545-9.684c0 .72-.024 1.32-.072 1.8h-13.464c.192 1.368.708 2.436 1.548 3.204.84.768 1.908 1.152 3.204 1.152 1.056 0 1.944-.24 2.664-.72.72-.48 1.2-1.164 1.44-2.052l4.248 1.152c-.504 1.704-1.5 3.036-2.988 3.996s-3.3 1.44-5.436 1.44c-2.856 0-5.112-.924-6.768-2.772-1.632-1.872-2.448-4.068-2.448-6.588 0-2.544.78-4.74 2.34-6.588 1.584-1.848 3.792-2.772 6.624-2.772 2.88 0 5.112.888 6.696 2.664 1.608 1.752 2.412 3.78 2.412 6.084Zm-13.428-1.512h8.568c-.12-1.128-.54-2.04-1.26-2.736-.72-.696-1.716-1.044-2.988-1.044-1.128 0-2.076.324-2.844.972-.744.648-1.236 1.584-1.476 2.808Zm37.352 11.484c-3.696 0-6.756-1.212-9.18-3.636-2.4-2.448-3.6-5.532-3.6-9.252 0-3.72 1.2-6.792 3.6-9.216 2.424-2.448 5.484-3.672 9.18-3.672 3.672 0 6.708 1.224 9.108 3.672 2.424 2.424 3.636 5.496 3.636 9.216 0 3.72-1.212 6.804-3.636 9.252-2.4 2.424-5.436 3.636-9.108 3.636Zm-5.652-6.696c1.488 1.632 3.372 2.448 5.652 2.448 2.28 0 4.152-.804 5.616-2.412 1.464-1.632 2.196-3.708 2.196-6.228 0-2.52-.732-4.596-2.196-6.228-1.464-1.632-3.336-2.448-5.616-2.448s-4.164.828-5.652 2.484c-1.464 1.632-2.196 3.696-2.196 6.192s.732 4.56 2.196 6.192Zm21.863 12.96V24.676h4.536v2.088c.528-.72 1.26-1.296 2.196-1.728.96-.432 2.028-.648 3.204-.648 2.592 0 4.644.864 6.156 2.592 1.512 1.704 2.268 3.96 2.268 6.768 0 2.784-.804 5.04-2.412 6.768-1.584 1.728-3.696 2.592-6.336 2.592-2.256 0-3.948-.696-5.076-2.088v8.352h-4.536Zm9.072-10.188c1.44 0 2.592-.492 3.456-1.476.888-1.008 1.332-2.328 1.332-3.96 0-1.632-.444-2.94-1.332-3.924-.864-1.008-2.016-1.512-3.456-1.512-1.464 0-2.64.504-3.528 1.512-.864.984-1.296 2.292-1.296 3.924 0 1.632.432 2.952 1.296 3.96.888.984 2.064 1.476 3.528 1.476Zm12.725 10.188V24.676h4.536v2.088c.528-.72 1.26-1.296 2.196-1.728.96-.432 2.028-.648 3.204-.648 2.592 0 4.644.864 6.156 2.592 1.512 1.704 2.268 3.96 2.268 6.768 0 2.784-.804 5.04-2.412 6.768-1.584 1.728-3.696 2.592-6.336 2.592-2.256 0-3.948-.696-5.076-2.088v8.352h-4.536Zm9.072-10.188c1.44 0 2.592-.492 3.456-1.476.888-1.008 1.332-2.328 1.332-3.96 0-1.632-.444-2.94-1.332-3.924-.864-1.008-2.016-1.512-3.456-1.512-1.464 0-2.64.504-3.528 1.512-.864.984-1.296 2.292-1.296 3.924 0 1.632.432 2.952 1.296 3.96.888.984 2.064 1.476 3.528 1.476Zm28.025 1.296c-1.776 1.752-4.044 2.628-6.804 2.628-2.76 0-5.028-.876-6.804-2.628-1.776-1.776-2.664-4.02-2.664-6.732 0-2.712.888-4.944 2.664-6.696 1.776-1.776 4.044-2.664 6.804-2.664 2.76 0 5.028.888 6.804 2.664 1.776 1.752 2.664 3.984 2.664 6.696 0 2.712-.888 4.956-2.664 6.732Zm-10.368-2.772c.912.984 2.1 1.476 3.564 1.476s2.64-.504 3.528-1.512c.912-1.008 1.368-2.316 1.368-3.924s-.456-2.916-1.368-3.924c-.888-1.008-2.064-1.512-3.528-1.512s-2.652.504-3.564 1.512c-.888.984-1.332 2.292-1.332 3.924 0 1.632.444 2.952 1.332 3.96Zm26.847-8.82c-.336-.096-.744-.144-1.224-.144-1.368 0-2.484.6-3.348 1.8-.864 1.2-1.296 3.072-1.296 5.616v6.66h-4.536V24.676h4.536v3.312c.408-1.056 1.092-1.92 2.052-2.592.96-.672 1.98-1.008 3.06-1.008l1.08.108-.324 4.392Zm14.985 13.752c-.864.312-1.836.468-2.916.468-1.92 0-3.468-.528-4.644-1.584-1.176-1.056-1.764-2.604-1.764-4.644v-8.388h-3.06v-3.816h3.06v-5.328h4.536v5.328h4.572v3.816h-4.572v7.956c0 .84.204 1.5.612 1.98.432.456 1.008.684 1.728.684.84 0 1.548-.144 2.124-.432l.324 3.96Zm19.866-17.964V42.82h-4.536v-2.736c-.6.912-1.404 1.644-2.412 2.196-.984.552-2.1.828-3.348.828-1.968 0-3.564-.6-4.788-1.8-1.224-1.2-1.836-2.784-1.836-4.752v-11.88h4.536v10.8c0 1.08.312 1.956.936 2.628.624.648 1.464.972 2.52.972 1.392 0 2.472-.564 3.24-1.692.768-1.128 1.152-2.712 1.152-4.752v-7.956h4.536Zm4.42 18.144V24.676h4.536v2.736a6.744 6.744 0 0 1 2.376-2.196c1.008-.552 2.136-.828 3.384-.828 1.992 0 3.588.6 4.788 1.8 1.224 1.2 1.836 2.784 1.836 4.752v11.88h-4.536v-10.8c0-1.08-.312-1.944-.936-2.592-.624-.672-1.464-1.008-2.52-1.008-1.392 0-2.472.564-3.24 1.692-.768 1.128-1.152 2.712-1.152 4.752v7.956h-4.536Zm25.625-21.708c-.552.528-1.236.792-2.052.792-.816 0-1.488-.264-2.016-.792-.528-.552-.792-1.224-.792-2.016s.264-1.452.792-1.98 1.2-.792 2.016-.792c.816 0 1.5.276 2.052.828.552.528.828 1.176.828 1.944 0 .792-.276 1.464-.828 2.016Zm-4.32 21.708V24.676h4.536V42.82h-4.536Zm19.694-.18c-.864.312-1.836.468-2.916.468-1.92 0-3.468-.528-4.644-1.584-1.176-1.056-1.764-2.604-1.764-4.644v-8.388h-3.06v-3.816h3.06v-5.328h4.536v5.328h4.572v3.816h-4.572v7.956c0 .84.204 1.5.612 1.98.432.456 1.008.684 1.728.684.84 0 1.548-.144 2.124-.432l.324 3.96ZM368.1 24.676h4.644l-9.576 24.696h-4.608l2.808-7.272-7.056-17.424h4.932L363.6 36.34l4.5-11.664Z"/>
  <path fill="#357C77" d="M65.005 374.16c32.077 0 58.08-26.003 58.08-58.08S97.082 258 65.005 258c-32.076 0-58.08 26.003-58.08 58.08s26.004 58.08 58.08 58.08Z"/>
  <path fill="#357C77" d="M65.005 358.06c23.185 0 41.98-18.795 41.98-41.98 0-23.185-18.795-41.98-41.98-41.98-23.185 0-41.98 18.795-41.98 41.98 0 23.185 18.795 41.98 41.98 41.98Z"/>
  <path fill="#fff" d="M65.005 359.46c-23.92 0-43.38-19.46-43.38-43.38s19.46-43.38 43.38-43.38 43.38 19.46 43.38 43.38-19.46 43.38-43.38 43.38Zm0-83.96c-22.38 0-40.58 18.2-40.58 40.58s18.2 40.58 40.58 40.58 40.58-18.2 40.58-40.58-18.2-40.58-40.58-40.58Z"/>
  <path fill="url(#a)" d="M65.005 346.86c17 0 30.78-13.781 30.78-30.78 0-16.999-13.78-30.78-30.78-30.78s-30.78 13.781-30.78 30.78c0 16.999 13.78 30.78 30.78 30.78Z"/>
  <path fill="url(#b)" d="M65.005 344.07c15.459 0 27.99-12.532 27.99-27.99 0-15.458-12.531-27.99-27.99-27.99-15.458 0-27.99 12.532-27.99 27.99 0 15.458 12.532 27.99 27.99 27.99Z"/>
  <path fill="#C0AFA9" d="M236.175 539.1c32.077 0 58.08-26.003 58.08-58.08s-26.003-58.08-58.08-58.08c-32.076 0-58.08 26.003-58.08 58.08s26.004 58.08 58.08 58.08Z"/>
  <path fill="#C0AFA9" d="M277.655 487.781c3.715-22.885-11.826-44.449-34.711-48.163-22.886-3.715-44.449 11.825-48.164 34.711-3.715 22.885 11.826 44.449 34.711 48.164 22.885 3.715 44.449-11.826 48.164-34.712Z"/>
  <path fill="#fff" d="M236.175 524.39c-23.92 0-43.38-19.46-43.38-43.38s19.46-43.38 43.38-43.38 43.38 19.46 43.38 43.38-19.46 43.38-43.38 43.38Zm0-83.95c-22.38 0-40.58 18.2-40.58 40.58s18.2 40.58 40.58 40.58 40.58-18.2 40.58-40.58-18.2-40.58-40.58-40.58Z"/>
  <path fill="url(#c)" d="M236.175 511.8c17 0 30.78-13.781 30.78-30.78 0-16.999-13.78-30.78-30.78-30.78-16.999 0-30.78 13.781-30.78 30.78 0 16.999 13.781 30.78 30.78 30.78Z"/>
  <path fill="url(#d)" d="M236.175 509.01c15.459 0 27.99-12.532 27.99-27.99 0-15.459-12.531-27.99-27.99-27.99-15.458 0-27.99 12.531-27.99 27.99 0 15.458 12.532 27.99 27.99 27.99Z"/>
  <path fill="#BEBFC2" d="M404.285 374.16c32.077 0 58.08-26.003 58.08-58.08S436.362 258 404.285 258c-32.076 0-58.08 26.003-58.08 58.08s26.004 58.08 58.08 58.08Z"/>
  <path fill="#BEBFC2" d="M404.285 358.06c23.185 0 41.98-18.795 41.98-41.98 0-23.185-18.795-41.98-41.98-41.98-23.185 0-41.98 18.795-41.98 41.98 0 23.185 18.795 41.98 41.98 41.98Z"/>
  <path fill="#fff" d="M404.285 359.46c-23.92 0-43.38-19.46-43.38-43.38s19.46-43.38 43.38-43.38 43.38 19.46 43.38 43.38-19.46 43.38-43.38 43.38Zm0-83.96c-22.38 0-40.58 18.2-40.58 40.58s18.2 40.58 40.58 40.58 40.58-18.2 40.58-40.58-18.2-40.58-40.58-40.58Z"/>
  <path fill="url(#e)" d="M404.285 346.86c17 0 30.78-13.781 30.78-30.78 0-16.999-13.78-30.78-30.78-30.78-16.999 0-30.78 13.781-30.78 30.78 0 16.999 13.781 30.78 30.78 30.78Z"/>
  <path fill="url(#f)" d="M404.285 344.07c15.459 0 27.99-12.532 27.99-27.99 0-15.458-12.531-27.99-27.99-27.99-15.458 0-27.99 12.532-27.99 27.99 0 15.458 12.532 27.99 27.99 27.99Z"/>
  <path fill="#3C3C3B" d="m243.715 485.82-.97-.97c.1-.21.19-.43.27-.65h1.36c.42 0 .77-.34.77-.77v-3.26a.77.77 0 0 0-.77-.77h-1.36c-.08-.22-.17-.44-.27-.65l.97-.97c.3-.3.3-.78 0-1.08l-2.31-2.31a.76.76 0 0 0-1.08 0l-.97.97c-.21-.1-.43-.19-.65-.27v-1.36a.77.77 0 0 0-.77-.77h-3.26a.77.77 0 0 0-.77.77v1.36c-.22.08-.44.17-.65.27l-.97-.97a.76.76 0 0 0-1.08 0l-2.31 2.31c-.3.3-.3.78 0 1.08l.97.97c-.1.21-.19.43-.27.65h-1.36a.77.77 0 0 0-.77.77v3.26c0 .42.34.77.77.77h1.36c.08.22.17.44.27.65l-.97.97c-.3.3-.3.78 0 1.08l2.31 2.31c.3.3.78.3 1.08 0l.97-.97c.21.1.43.19.65.27v1.36c0 .42.34.77.77.77h3.26c.42 0 .77-.34.77-.77v-1.36c.22-.08.44-.17.65-.27l.97.97c.3.3.78.3 1.08 0l2.31-2.31c.3-.3.3-.78 0-1.08Zm-2.44-.28.82.82-1.23 1.23-.82-.82a.758.758 0 0 0-.93-.12c-.43.25-.89.44-1.37.57a.76.76 0 0 0-.57.74v1.16h-1.73v-1.16a.76.76 0 0 0-.57-.74 5.67 5.67 0 0 1-1.37-.57.772.772 0 0 0-.93.12l-.82.82-1.23-1.23.82-.82c.25-.25.29-.63.12-.93a5.67 5.67 0 0 1-.57-1.37.76.76 0 0 0-.74-.57h-1.16v-1.73h1.16c.35 0 .65-.23.74-.57.13-.48.32-.94.57-1.37.17-.3.13-.68-.12-.93l-.82-.82 1.23-1.23.82.82c.25.25.63.3.93.12.43-.25.89-.44 1.37-.57a.76.76 0 0 0 .57-.74v-1.16h1.73v1.16c0 .35.23.65.57.74.48.13.94.32 1.37.57.3.17.68.13.93-.12l.82-.82 1.23 1.23-.82.82c-.25.25-.29.63-.12.93.25.43.44.89.57 1.37.09.34.39.57.74.57h1.16v1.73h-1.16a.76.76 0 0 0-.74.57c-.13.48-.32.94-.57 1.37-.17.3-.13.68.12.93Zm-4.97-7.83c-2.26 0-4.1 1.84-4.1 4.1s1.84 4.1 4.1 4.1 4.1-1.84 4.1-4.1-1.84-4.1-4.1-4.1Zm0 6.66a2.57 2.57 0 1 1 2.57-2.57 2.57 2.57 0 0 1-2.57 2.57Zm-3.49-21 2.84-4.91a.76.76 0 0 1 .66-.38c.27 0 .53.15.66.38l2.84 4.91a.77.77 0 0 1-1.33.77l-1.41-2.44v8.99a.77.77 0 0 1-1.54 0v-8.99l-1.41 2.44c-.21.37-.68.49-1.05.28a.767.767 0 0 1-.28-1.05h.02Zm-13.89 21.65a.75.75 0 0 1-.66.38c-.13 0-.26-.03-.38-.1l-4.91-2.84a.76.76 0 0 1-.38-.66c0-.27.15-.53.38-.66l4.91-2.84a.77.77 0 0 1 .77 1.33l-2.44 1.41h8.99a.77.77 0 0 1 0 1.54h-8.99l2.44 1.41c.37.21.49.68.28 1.05l-.01-.02Zm20.88 15.21-2.84 4.91a.76.76 0 0 1-.66.38c-.27 0-.53-.15-.66-.38l-2.84-4.91a.77.77 0 0 1 1.33-.77l1.41 2.44v-8.99a.77.77 0 0 1 1.54 0v8.99l1.41-2.44c.21-.37.68-.49 1.05-.28.37.21.49.68.28 1.05h-.02Zm20.23-18.43c0 .27-.15.53-.38.66l-4.91 2.84a.772.772 0 0 1-1.04-.28.77.77 0 0 1 .28-1.05l2.44-1.41h-8.99a.77.77 0 0 1 0-1.54h8.99l-2.44-1.41a.767.767 0 0 1-.28-1.05c.21-.37.68-.49 1.05-.28l4.91 2.84c.24.14.38.39.38.66l-.01.02Zm-37.38-12.72c-.07-.26 0-.55.2-.74.19-.19.48-.27.74-.2l5.48 1.47c.41.11.65.53.54.94-.11.41-.53.65-.94.54l-2.72-.73 3.04 3.04c.3.3.3.78 0 1.08-.3.3-.78.3-1.08 0l-3.04-3.04.73 2.72c.11.41-.13.83-.54.94-.07.02-.13.03-.2.03-.34 0-.65-.23-.74-.57l-1.47-5.48Zm6.96 23.97c.11.41-.13.83-.54.94l-5.48 1.47c-.07.02-.13.03-.2.03-.2 0-.4-.08-.54-.22a.778.778 0 0 1-.2-.74l1.47-5.48c.11-.41.53-.65.94-.54.41.11.65.53.54.94l-.73 2.72 3.04-3.04c.3-.3.78-.3 1.08 0 .3.3.3.78 0 1.08l-3.04 3.04 2.72-.73c.41-.11.83.13.94.54v-.01Zm20.35 1.47c.07.26 0 .55-.2.74-.15.15-.34.22-.54.22-.07 0-.13 0-.2-.03l-5.48-1.47a.765.765 0 0 1-.54-.94c.11-.41.53-.65.94-.54l2.72.73-3.04-3.04a.76.76 0 0 1 0-1.08c.3-.3.78-.3 1.08 0l3.04 3.04-.73-2.72c-.11-.41.13-.83.54-.94.41-.11.83.13.94.54l1.47 5.48v.01Zm-6.96-23.97c-.11-.41.13-.83.54-.94l5.48-1.47c.26-.07.55 0 .74.2.19.19.27.48.2.74l-1.47 5.48c-.09.34-.4.57-.74.57-.07 0-.13 0-.2-.03a.765.765 0 0 1-.54-.94l.73-2.72-3.04 3.04c-.3.3-.78.3-1.08 0a.76.76 0 0 1 0-1.08l3.04-3.04-2.72.73a.765.765 0 0 1-.94-.54Zm179.55-164.88c-.35 0-.63.28-.63.63s.28.63.63.63c.4 0 .72.32.72.72v22.95c0 .4-.32.72-.72.72h-32.41c-1.88 0-3.42-1.53-3.42-3.42s1.53-3.42 3.42-3.42c.35 0 .63-.28.63-.63v-16.92h3.42c.35 0 .63-.28.63-.63s-.28-.63-.63-.63h-3.42v-7.47c0-.35-.28-.63-.63-.63-2.58 0-4.68 2.1-4.68 4.68v25.65c0 2.58 2.1 4.68 4.68 4.68h32.41c1.09 0 1.98-.89 1.98-1.98v-22.95c0-1.09-.89-1.98-1.98-1.98Zm-35.83-3.42c0-1.67 1.2-3.06 2.78-3.36v24.37a4.64 4.64 0 0 0-2.78 1.44v-22.46.01Z"/>
  <path fill="#3C3C3B" d="M414.445 305.67h-10.8c-.35 0-.63.28-.63.63s.28.63.63.63h10.8c.35 0 .63-.28.63-.63s-.28-.63-.63-.63Zm.51 19.15-17.55-22.95c-.16-.22-.45-.3-.71-.22-.26.09-.43.33-.43.6v22.95c0 .35.28.63.63.63h17.55c.24 0 .46-.14.57-.35.11-.22.08-.47-.06-.66Zm-17.43-.25v-20.45l15.64 20.45h-15.64Z"/>
  <path fill="#3C3C3B" d="m408.125 321.44-7.35-9.61c-.16-.22-.45-.3-.71-.22-.26.09-.43.33-.43.6v9.61c0 .35.28.63.63.63h7.35c.24 0 .46-.14.57-.35a.63.63 0 0 0-.06-.66Zm-7.22-.25v-7.1l5.43 7.1h-5.43Zm19.53-18.5-1.35-3.38c-.1-.24-.33-.4-.59-.4-.26 0-.49.16-.59.4l-1.35 3.38c-.03.07-.05.15-.05.24v24.3c0 .72.59 1.31 1.31 1.31h1.35c.72 0 1.31-.59 1.31-1.31v-24.3c0-.08-.02-.16-.05-.24h.01Zm-1.94-1.44.69 1.71h-1.37l.69-1.71h-.01Zm.72 25.98s-.02.04-.04.04h-1.35s-.04-.02-.04-.04v-1.39h1.43v1.39Zm0-2.66h-1.43v-20.34h1.43v20.34Zm-373.25 3.27c-.45 0-.81-.36-.81-.81v-16.1c0-.45.36-.81.81-.81h3.49v-3.49c0-.45.36-.81.81-.81h3.49v-3.49c0-.45.36-.81.81-.81h29.55c.45 0 .81.36.81.81v16.1c0 .45-.36.81-.81.81h-3.49v3.49c0 .45-.36.81-.81.81h-3.49v3.49c0 .45-.36.81-.81.81h-29.55Zm.81-1.62h27.94v-14.48h-27.94v14.48Zm4.3-16.1h24.45c.45 0 .81.36.81.81v11h2.68v-14.48h-27.94v2.68-.01Zm4.3-4.3h24.45c.45 0 .81.36.81.81v11h2.68v-14.48h-27.94v2.68-.01Z"/>
  <path fill="#3C3C3B" d="M68.635 322.93c-2.18 0-3.95-1.77-3.95-3.95s1.77-3.95 3.95-3.95 3.95 1.77 3.95 3.95-1.77 3.95-3.95 3.95Zm0-6.28c-1.29 0-2.33 1.05-2.33 2.33s1.05 2.33 2.33 2.33 2.33-1.05 2.33-2.33-1.05-2.33-2.33-2.33Zm-16.65 7.1c-.44 0-.81-.36-.81-.8v-.37h-1.16c-.45 0-.81-.36-.81-.81 0-.45.36-.81.81-.81h2.53c.33 0 .6-.27.6-.6 0-.33-.27-.6-.6-.6h-1.12a2.221 2.221 0 0 1-.53-4.38l.28-.07v-.29c.02-.44.38-.79.81-.79.43 0 .77.32.81.74l.03.34h1.13c.45 0 .81.36.81.81 0 .45-.36.81-.81.81h-2.53c-.33 0-.6.27-.6.6 0 .33.27.6.6.6h1.12c1.23 0 2.22 1 2.22 2.22 0 1.02-.69 1.91-1.68 2.16l-.29.07v.3c0 .51-.36.88-.81.88v-.01Zm6.09-4.99c-.45 0-.81-.36-.81-.81 0-.45.36-.81.81-.81h3.93c.45 0 .81.36.81.81 0 .45-.36.81-.81.81h-3.93Zm0 3.32c-.45 0-.81-.36-.81-.81 0-.45.36-.81.81-.81h2.36c.45 0 .81.36.81.81 0 .45-.36.81-.81.81h-2.36Z"/>
  <defs>
    <linearGradient id="a" x1="81.085" x2="34.345" y1="338.51" y2="273.3" gradientUnits="userSpaceOnUse">
      <stop stop-color="#fff"/>
      <stop offset=".16" stop-color="#F9F9F9"/>
      <stop offset="1" stop-color="#E5E6E6"/>
    </linearGradient>
    <linearGradient id="b" x1="59.965" x2="91.035" y1="309.37" y2="350.79" gradientUnits="userSpaceOnUse">
      <stop stop-color="#fff"/>
      <stop offset=".16" stop-color="#F9F9F9"/>
      <stop offset="1" stop-color="#E5E6E6"/>
    </linearGradient>
    <linearGradient id="c" x1="252.255" x2="205.515" y1="503.44" y2="438.24" gradientUnits="userSpaceOnUse">
      <stop stop-color="#fff"/>
      <stop offset=".16" stop-color="#F9F9F9"/>
      <stop offset="1" stop-color="#E5E6E6"/>
    </linearGradient>
    <linearGradient id="d" x1="231.135" x2="262.205" y1="474.3" y2="515.72" gradientUnits="userSpaceOnUse">
      <stop stop-color="#fff"/>
      <stop offset=".16" stop-color="#F9F9F9"/>
      <stop offset="1" stop-color="#E5E6E6"/>
    </linearGradient>
    <linearGradient id="e" x1="420.355" x2="373.625" y1="338.51" y2="273.3" gradientUnits="userSpaceOnUse">
      <stop stop-color="#fff"/>
      <stop offset=".16" stop-color="#F9F9F9"/>
      <stop offset="1" stop-color="#E5E6E6"/>
    </linearGradient>
    <linearGradient id="f" x1="399.245" x2="430.315" y1="309.37" y2="350.79" gradientUnits="userSpaceOnUse">
      <stop stop-color="#fff"/>
      <stop offset=".16" stop-color="#F9F9F9"/>
      <stop offset="1" stop-color="#E5E6E6"/>
    </linearGradient>
  </defs>
</svg>
