<svg xmlns="http://www.w3.org/2000/svg" width="355" height="304" fill="none" viewBox="0 0 355 304">
  <path fill="#B8A9A4" d="M17.856 87V35.928c-4.736 3.52-9.792 5.824-15.168 6.912V29.304c6.08-1.472 12-4.64 17.76-9.504h11.424V87H17.856Zm71.571-8.544c-5.056 6.208-11.872 9.312-20.448 9.312s-15.392-3.104-20.448-9.312c-4.992-6.272-7.488-14.624-7.488-25.056s2.496-18.752 7.488-24.96c5.056-6.272 11.872-9.408 20.448-9.408s15.392 3.136 20.448 9.408c5.12 6.208 7.68 14.528 7.68 24.96s-2.56 18.784-7.68 25.056ZM59.475 69.24c2.176 3.648 5.344 5.472 9.504 5.472 4.16 0 7.36-1.824 9.6-5.472 2.24-3.712 3.36-8.992 3.36-15.84 0-6.848-1.12-12.128-3.36-15.84-2.24-3.712-5.44-5.568-9.6-5.568-4.16 0-7.328 1.856-9.504 5.568-2.176 3.712-3.264 8.992-3.264 15.84 0 6.848 1.088 12.128 3.264 15.84Zm92.296 9.216c-5.056 6.208-11.872 9.312-20.448 9.312s-15.392-3.104-20.448-9.312c-4.992-6.272-7.488-14.624-7.488-25.056s2.496-18.752 7.488-24.96c5.056-6.272 11.872-9.408 20.448-9.408s15.392 3.136 20.448 9.408c5.12 6.208 7.68 14.528 7.68 24.96s-2.56 18.784-7.68 25.056Zm-29.952-9.216c2.176 3.648 5.344 5.472 9.504 5.472 4.16 0 7.36-1.824 9.6-5.472 2.24-3.712 3.36-8.992 3.36-15.84 0-6.848-1.12-12.128-3.36-15.84-2.24-3.712-5.44-5.568-9.6-5.568-4.16 0-7.328 1.856-9.504 5.568-2.176 3.712-3.264 8.992-3.264 15.84 0 6.848 1.088 12.128 3.264 15.84Zm91.336-19.008v12h-17.76v17.76h-12V62.136h-17.856V50.232h17.856V32.376h11.904v17.856h17.856Z"/>
  <path fill="#fff" d="M22.848 174v-27.744L.096 106.8h16.128l14.208 25.248L44.736 106.8h16.032l-22.752 39.456V174H22.848Zm41.606 0v-67.2h46.176v12.96H79.622v12.288h24.576v13.056H79.622v15.84h32.064V174H64.454Zm100.408 0-4.896-13.824h-24L131.07 174h-15.744l25.44-67.2h14.304l25.44 67.2h-15.648Zm-24.288-26.496h14.784l-7.392-20.832-7.392 20.832ZM242.583 174h-17.76l-14.592-26.304h-8.448V174h-15.168l-.192-67.2h26.784c6.656 0 11.968 1.856 15.936 5.568 3.968 3.712 5.952 8.672 5.952 14.88 0 3.648-.864 7.008-2.592 10.08-1.664 3.008-4.032 5.408-7.104 7.2L242.583 174Zm-40.8-54.24v14.976h8.832c2.944 0 5.216-.64 6.816-1.92 1.664-1.344 2.496-3.2 2.496-5.568 0-2.368-.832-4.192-2.496-5.472-1.6-1.344-3.872-2.016-6.816-2.016h-8.832Zm67.758 55.008c-6.72 0-12.576-2.016-17.568-6.048-4.992-4.096-7.808-9.216-8.448-15.36l13.248-3.936c.448 3.712 1.92 6.72 4.416 9.024 2.56 2.304 5.536 3.456 8.928 3.456 3.008 0 5.408-.64 7.2-1.92 1.856-1.344 2.784-3.072 2.784-5.184 0-1.728-.64-3.168-1.92-4.32-1.28-1.152-2.944-2.08-4.992-2.784-1.984-.768-4.192-1.472-6.624-2.112a91.394 91.394 0 0 1-7.392-2.496c-2.432-1.024-4.672-2.208-6.72-3.552-1.984-1.408-3.616-3.36-4.896-5.856-1.28-2.496-1.92-5.408-1.92-8.736 0-5.44 2.272-9.952 6.816-13.536 4.608-3.584 10.24-5.376 16.896-5.376 6.464 0 12.064 1.6 16.8 4.8 4.8 3.136 7.776 7.264 8.928 12.384l-13.536 5.664c-.704-3.072-2.144-5.504-4.32-7.296-2.112-1.792-4.736-2.688-7.872-2.688-2.624 0-4.704.544-6.24 1.632-1.536 1.024-2.304 2.464-2.304 4.32 0 1.408.64 2.592 1.92 3.552 1.28.896 2.912 1.632 4.896 2.208 2.048.576 4.288 1.152 6.72 1.728 2.496.512 4.96 1.28 7.392 2.304 2.496 1.024 4.736 2.272 6.72 3.744 2.048 1.472 3.712 3.584 4.992 6.336 1.28 2.752 1.92 5.984 1.92 9.696 0 6.08-2.368 11.008-7.104 14.784-4.736 3.712-10.976 5.568-18.72 5.568Zm52.763-.384c-3.744 0-6.816-1.168-9.216-3.504-2.368-2.368-3.552-5.36-3.552-8.976 0-3.616 1.184-6.592 3.552-8.928 2.4-2.368 5.472-3.552 9.216-3.552 3.68 0 6.72 1.184 9.12 3.552 2.432 2.336 3.648 5.312 3.648 8.928 0 3.616-1.216 6.608-3.648 8.976-2.4 2.336-5.44 3.504-9.12 3.504Zm0-6c1.696 0 3.072-.592 4.128-1.776 1.056-1.216 1.584-2.784 1.584-4.704s-.528-3.472-1.584-4.656c-1.056-1.216-2.432-1.824-4.128-1.824-1.728 0-3.12.608-4.176 1.824-1.056 1.184-1.584 2.736-1.584 4.656 0 1.92.528 3.488 1.584 4.704 1.056 1.184 2.448 1.776 4.176 1.776ZM340.735 174v-18.336h-3.792v-5.856h3.792v-1.68c0-2.816.848-5.024 2.544-6.624 1.728-1.6 3.952-2.4 6.672-2.4 1.44 0 2.72.208 3.84.624l-.48 5.664c-.896-.352-1.696-.528-2.4-.528-.96 0-1.728.304-2.304.912-.544.608-.816 1.44-.816 2.496v1.536h5.52v5.856h-5.52V174h-7.056ZM25.92 232.384c-3.648 0-6.624-1.152-8.928-3.456-2.304-2.336-3.456-5.344-3.456-9.024 0-3.68 1.152-6.672 3.456-8.976 2.304-2.336 5.28-3.504 8.928-3.504 3.232 0 5.904.768 8.016 2.304 2.112 1.536 3.36 3.632 3.744 6.288l-6.816 1.344c-.192-1.216-.704-2.176-1.536-2.88-.832-.704-1.872-1.056-3.12-1.056-1.664 0-2.992.592-3.984 1.776-.96 1.152-1.44 2.72-1.44 4.704 0 1.952.496 3.52 1.488 4.704.992 1.184 2.304 1.776 3.936 1.776 2.496 0 4.016-1.216 4.56-3.648l6.864 1.392c-.448 2.56-1.712 4.576-3.792 6.048-2.08 1.472-4.72 2.208-7.92 2.208Zm27.618 0c-3.744 0-6.816-1.168-9.216-3.504-2.368-2.368-3.552-5.36-3.552-8.976 0-3.616 1.184-6.592 3.552-8.928 2.4-2.368 5.472-3.552 9.216-3.552 3.68 0 6.72 1.184 9.12 3.552 2.432 2.336 3.648 5.312 3.648 8.928 0 3.616-1.216 6.608-3.648 8.976-2.4 2.336-5.44 3.504-9.12 3.504Zm0-6c1.696 0 3.072-.592 4.128-1.776 1.056-1.216 1.584-2.784 1.584-4.704s-.528-3.472-1.584-4.656c-1.056-1.216-2.432-1.824-4.128-1.824-1.728 0-3.12.608-4.176 1.824-1.056 1.184-1.584 2.736-1.584 4.656 0 1.92.528 3.488 1.584 4.704 1.056 1.184 2.448 1.776 4.176 1.776ZM70.518 232v-24.192h7.055v3.264c1.568-2.432 3.84-3.648 6.816-3.648 3.616 0 6.048 1.44 7.296 4.32.704-1.248 1.776-2.272 3.216-3.072 1.44-.832 3.088-1.248 4.944-1.248 2.592 0 4.688.768 6.288 2.304 1.6 1.536 2.4 3.472 2.4 5.808V232h-7.008v-14.4c0-1.344-.352-2.384-1.056-3.12-.672-.768-1.632-1.152-2.88-1.152-1.44 0-2.576.56-3.408 1.68-.8 1.12-1.2 2.656-1.2 4.608V232h-6.96v-14.4c0-1.312-.352-2.352-1.056-3.12-.672-.768-1.616-1.152-2.832-1.152-1.44 0-2.56.576-3.36 1.728-.8 1.12-1.2 2.64-1.2 4.56V232h-7.056Zm56.987.384c-2.944 0-5.088-.928-6.432-2.784v2.4h-7.056v-33.984h7.056v12.096c1.472-1.792 3.648-2.688 6.528-2.688 3.488 0 6.24 1.136 8.256 3.408 2.048 2.24 3.072 5.264 3.072 9.072 0 3.808-1.024 6.848-3.072 9.12-2.048 2.24-4.832 3.36-8.352 3.36Zm-1.152-6c1.696 0 3.056-.592 4.08-1.776 1.056-1.184 1.584-2.752 1.584-4.704s-.528-3.52-1.584-4.704c-1.024-1.184-2.384-1.776-4.08-1.776-1.728 0-3.12.592-4.176 1.776-1.024 1.184-1.536 2.752-1.536 4.704s.512 3.52 1.536 4.704c1.056 1.184 2.448 1.776 4.176 1.776Zm16.677-28.368h7.44v6.768h-7.44v-6.768Zm.144 33.984v-24.192h7.056V232h-7.056Zm12.515 0v-24.192h7.056v3.216c1.632-2.4 4.096-3.6 7.392-3.6 2.656 0 4.8.8 6.432 2.4 1.632 1.6 2.448 3.728 2.448 6.384V232h-7.008v-13.92c0-1.312-.384-2.368-1.152-3.168-.736-.832-1.744-1.248-3.024-1.248-3.392 0-5.088 2.576-5.088 7.728V232h-7.056Zm52.013-12.72c0 1.056-.032 1.936-.096 2.64H190.23c.704 3.072 2.592 4.608 5.664 4.608 2.592 0 4.16-1.04 4.704-3.12l6.624 1.776c-.704 2.272-2.08 4.048-4.128 5.328-2.048 1.248-4.512 1.872-7.392 1.872-3.904 0-6.96-1.248-9.168-3.744-2.176-2.528-3.264-5.44-3.264-8.736 0-2.112.4-4.08 1.2-5.904.8-1.824 2.128-3.376 3.984-4.656 1.888-1.28 4.16-1.92 6.816-1.92 2.08 0 3.936.368 5.568 1.104 1.664.704 2.976 1.648 3.936 2.832s1.68 2.448 2.16 3.792c.512 1.344.768 2.72.768 4.128Zm-17.376-2.352h9.84c-.128-1.28-.608-2.304-1.44-3.072-.8-.8-1.952-1.2-3.456-1.2-2.624 0-4.272 1.424-4.944 4.272Zm31.836 15.456c-3.52 0-6.304-1.12-8.352-3.36-2.016-2.272-3.024-5.312-3.024-9.12 0-3.808 1.008-6.832 3.024-9.072 2.016-2.272 4.768-3.408 8.256-3.408 2.88 0 5.056.896 6.528 2.688v-12.096h7.056V232h-7.056v-2.4c-1.344 1.856-3.488 2.784-6.432 2.784Zm1.152-6c1.728 0 3.104-.592 4.128-1.776 1.056-1.184 1.584-2.752 1.584-4.704s-.528-3.52-1.584-4.704c-1.024-1.184-2.4-1.776-4.128-1.776-1.696 0-3.072.592-4.128 1.776-1.024 1.184-1.536 2.752-1.536 4.704s.512 3.52 1.536 4.704c1.056 1.184 2.432 1.776 4.128 1.776ZM15.024 290v-33.6h23.088v6.48H22.608v6.144h12.288v6.528H22.608v7.92H38.64V290H15.024Zm55.196 0h-7.968l-6.864-11.328L48.524 290h-8.016l10.848-17.952L41.9 256.4h8.016l5.472 9.024 5.424-9.024h8.016l-9.456 15.648L70.22 290Zm3.399 0v-33.6h13.92c3.488 0 6.256.96 8.304 2.88 2.08 1.888 3.12 4.432 3.12 7.632 0 3.2-1.04 5.76-3.12 7.68-2.048 1.888-4.816 2.832-8.304 2.832h-6.336V290h-7.584Zm7.584-19.056h5.568c1.44 0 2.56-.352 3.36-1.056.832-.736 1.248-1.728 1.248-2.976s-.416-2.224-1.248-2.928c-.8-.736-1.92-1.104-3.36-1.104h-5.568v8.064ZM102.82 290v-33.6h23.088v6.48h-15.504v6.144h12.288v6.528h-12.288v7.92h16.032V290H102.82Zm56.252 0h-8.88l-7.296-13.152h-4.224V290h-7.584l-.096-33.6h13.392c3.328 0 5.984.928 7.968 2.784 1.984 1.856 2.976 4.336 2.976 7.44 0 1.824-.432 3.504-1.296 5.04-.832 1.504-2.016 2.704-3.552 3.6L159.073 290Zm-20.4-27.12v7.488h4.416c1.472 0 2.608-.32 3.408-.96.832-.672 1.248-1.6 1.248-2.784 0-1.184-.416-2.096-1.248-2.736-.8-.672-1.936-1.008-3.408-1.008h-4.416Zm23.96 27.12v-33.6h7.584V290h-7.584Zm13.641 0v-33.6h23.088v6.48h-15.504v6.144h12.288v6.528h-12.288v7.92h16.032V290h-23.616Zm28.172 0v-33.6h7.536l13.056 21.6v-21.6h7.056V290h-7.536l-13.056-21.6V290h-7.056Zm49.159.384c-4.8 0-8.816-1.504-12.048-4.512-3.232-3.008-4.848-7.232-4.848-12.672 0-5.408 1.616-9.616 4.848-12.624 3.264-3.04 7.28-4.56 12.048-4.56 4.192 0 7.648 1.04 10.368 3.12 2.752 2.08 4.368 4.864 4.848 8.352l-7.536 1.584c-.384-2.016-1.28-3.616-2.688-4.8-1.408-1.184-3.088-1.776-5.04-1.776-2.656 0-4.864.944-6.624 2.832-1.728 1.856-2.592 4.48-2.592 7.872 0 3.392.864 6.016 2.592 7.872 1.728 1.856 3.936 2.784 6.624 2.784 1.952 0 3.6-.512 4.944-1.536 1.344-1.056 2.208-2.496 2.592-4.32l7.632 1.728c-.8 3.328-2.528 5.936-5.184 7.824s-5.968 2.832-9.936 2.832ZM273.54 290v-33.6h23.088v6.48h-15.504v6.144h12.288v6.528h-12.288v7.92h16.032V290H273.54Z"/>
</svg>
