<svg xmlns="http://www.w3.org/2000/svg" width="328" height="518" fill="none" viewBox="0 0 328 518">
  <path fill="#B4A39D" d="M70.36 107.61v-53.2c-4.93 3.67-10.2 6.07-15.8 7.2v-14.1c6.33-1.53 12.5-4.83 18.5-9.9h11.9v70h-14.6Zm74.65-8.95c-5.3 6.501-12.42 9.751-21.35 9.751-8.93 0-16.02-3.25-21.25-9.75s-7.85-15.18-7.85-26.05c0-10.87 2.62-19.55 7.85-26.05 5.23-6.5 12.32-9.75 21.25-9.75s16.05 3.25 21.35 9.75c5.3 6.5 7.95 15.18 7.95 26.05 0 10.87-2.65 19.55-7.95 26.05Zm-31.25-9.6c2.27 3.83 5.57 5.75 9.9 5.75s7.67-1.92 10-5.75 3.5-9.32 3.5-16.45c0-7.13-1.17-12.63-3.5-16.5-2.33-3.87-5.67-5.8-10-5.8s-7.63 1.93-9.9 5.8c-2.27 3.87-3.4 9.37-3.4 16.5 0 7.13 1.13 12.62 3.4 16.45Zm96.15 9.6c-5.3 6.501-12.42 9.751-21.35 9.751-8.93 0-16.02-3.25-21.25-9.75s-7.85-15.18-7.85-26.05c0-10.87 2.62-19.55 7.85-26.05 5.23-6.5 12.32-9.75 21.25-9.75s16.05 3.25 21.35 9.75c5.3 6.5 7.95 15.18 7.95 26.05 0 10.87-2.65 19.55-7.95 26.05Zm-31.25-9.6c2.27 3.83 5.57 5.75 9.9 5.75s7.67-1.92 10-5.75 3.5-9.32 3.5-16.45c0-7.13-1.17-12.63-3.5-16.5-2.33-3.87-5.67-5.8-10-5.8s-7.63 1.93-9.9 5.8c-2.27 3.87-3.4 9.37-3.4 16.5 0 7.13 1.13 12.62 3.4 16.45Zm95.1-19.75v12.5h-18.5v18.5h-12.5v-18.6h-18.6v-12.4h18.6v-18.6h12.4v18.6h18.6Z"/>
  <path fill="#70737C" d="M20.08 209.25v-24.48L0 149.96h14.23l12.54 22.28 12.62-22.28h14.15l-20.08 34.81v24.48H20.08Zm36.76 0v-59.29h40.74v11.44H70.22v10.84H91.9v11.52H70.22v13.98h28.29v11.52H56.84v-.01Zm88.6 0-4.32-12.2h-21.18l-4.32 12.2h-13.89l22.45-59.29h12.62l22.45 59.29h-13.81Zm-21.43-23.38h13.04l-6.52-18.38-6.52 18.38Zm89.96 23.38H198.3l-12.88-23.21h-7.45v23.21h-13.38l-.17-59.29h23.63c5.87 0 10.56 1.64 14.06 4.91 3.5 3.28 5.25 7.65 5.25 13.13 0 3.22-.75 6.17-2.25 8.85-1.5 2.68-3.6 4.81-6.31 6.39l15.16 26 .01.01Zm-36-47.86v13.21h7.79c2.6 0 4.62-.58 6.06-1.74 1.44-1.16 2.16-2.78 2.16-4.87 0-2.09-.72-3.71-2.16-4.87-1.44-1.16-3.46-1.74-6.06-1.74h-7.79v.01Zm59.8 48.54c-5.93 0-11.1-1.79-15.5-5.38-4.4-3.58-6.89-8.09-7.45-13.51l11.69-3.47c.39 3.28 1.71 5.93 3.94 7.96 2.23 2.03 4.84 3.05 7.83 3.05 2.65 0 4.79-.58 6.4-1.74 1.61-1.16 2.41-2.67 2.41-4.53 0-1.52-.57-2.79-1.69-3.81-1.13-1.02-2.58-1.85-4.36-2.5a75.32 75.32 0 0 0-5.89-1.86 60.38 60.38 0 0 1-6.48-2.2c-2.17-.88-4.15-1.92-5.93-3.13-1.78-1.21-3.23-2.92-4.36-5.12-1.13-2.2-1.69-4.77-1.69-7.71 0-4.8 2.02-8.78 6.06-11.94 4.04-3.16 8.99-4.74 14.87-4.74 5.88 0 10.66 1.4 14.87 4.19 4.21 2.79 6.82 6.45 7.83 10.97l-11.94 5c-.62-2.71-1.88-4.86-3.77-6.44-1.89-1.58-4.22-2.37-6.99-2.37-2.32 0-4.15.47-5.51 1.4-1.36.93-2.03 2.22-2.03 3.85 0 1.24.56 2.27 1.69 3.09 1.13.82 2.58 1.48 4.36 1.99 1.78.51 3.75 1 5.93 1.48 2.17.48 4.35 1.17 6.52 2.08 2.17.9 4.15 2.01 5.93 3.3 1.78 1.3 3.23 3.16 4.36 5.59 1.13 2.43 1.69 5.28 1.69 8.55 0 5.37-2.09 9.7-6.27 13-4.18 3.3-9.69 4.96-16.52 4.96v-.01Zm59.42-.299c-3.65 0-6.63-1.15-8.95-3.44-2.32-2.29-3.48-5.2-3.48-8.72 0-3.52 1.16-6.43 3.48-8.72 2.32-2.29 5.31-3.44 8.95-3.44 3.64 0 6.55 1.15 8.91 3.44 2.36 2.29 3.53 5.2 3.53 8.72 0 3.52-1.18 6.43-3.53 8.72-2.35 2.29-5.32 3.44-8.91 3.44Zm0-5.85c1.65 0 2.99-.58 4.02-1.75 1.03-1.17 1.54-2.69 1.54-4.56 0-1.87-.51-3.39-1.54-4.56-1.03-1.17-2.37-1.75-4.02-1.75-1.65 0-3.04.58-4.07 1.75-1.03 1.17-1.54 2.69-1.54 4.56 0 1.87.51 3.39 1.54 4.56 1.03 1.17 2.38 1.75 4.07 1.75Zm17.95 5.469v-17.86h-3.69v-5.7h3.69v-1.64c0-2.74.83-4.89 2.5-6.45 1.67-1.56 3.83-2.34 6.48-2.34 1.4 0 2.65.2 3.74.61l-.47 5.52c-.87-.34-1.65-.51-2.34-.51-.94 0-1.68.3-2.22.89-.54.59-.82 1.4-.82 2.43v1.5h5.38v5.7h-5.38v17.86h-6.87v-.01ZM67.63 263.06c-3.55 0-6.45-1.13-8.7-3.39-2.24-2.26-3.37-5.18-3.37-8.77s1.12-6.51 3.37-8.77c2.24-2.26 5.14-3.39 8.7-3.39 3.15 0 5.75.75 7.81 2.24 2.06 1.5 3.27 3.54 3.65 6.12l-6.64 1.31c-.19-1.18-.69-2.12-1.5-2.81-.81-.68-1.82-1.03-3.04-1.03-1.62 0-2.91.57-3.86 1.71-.95 1.14-1.43 2.67-1.43 4.61 0 1.94.48 3.43 1.45 4.58s2.25 1.73 3.83 1.73c2.43 0 3.91-1.18 4.44-3.55l6.69 1.36c-.44 2.49-1.67 4.46-3.69 5.89-2.03 1.43-4.6 2.15-7.71 2.15v.01Zm26.88 0c-3.65 0-6.63-1.15-8.95-3.44-2.32-2.29-3.48-5.2-3.48-8.72 0-3.52 1.16-6.43 3.48-8.72 2.32-2.29 5.31-3.44 8.95-3.44 3.64 0 6.55 1.15 8.91 3.44 2.36 2.29 3.53 5.2 3.53 8.72 0 3.52-1.18 6.43-3.53 8.72-2.35 2.29-5.32 3.44-8.91 3.44Zm0-5.85c1.65 0 2.99-.58 4.02-1.75 1.03-1.17 1.54-2.69 1.54-4.56 0-1.87-.51-3.39-1.54-4.56-1.03-1.17-2.37-1.75-4.02-1.75-1.65 0-3.04.58-4.07 1.75-1.03 1.17-1.54 2.69-1.54 4.56 0 1.87.51 3.39 1.54 4.56 1.03 1.17 2.38 1.75 4.07 1.75Zm16.55 5.47v-23.56h6.87v3.18c1.53-2.37 3.74-3.55 6.64-3.55 3.52 0 5.89 1.4 7.11 4.21.69-1.22 1.73-2.22 3.13-3.02 1.4-.8 3.01-1.19 4.82-1.19 2.53 0 4.57.75 6.12 2.24 1.56 1.5 2.34 3.38 2.34 5.66v16.04h-6.83v-14.03c0-1.31-.33-2.33-1-3.06-.67-.73-1.61-1.1-2.83-1.1-1.4 0-2.5.55-3.3 1.64-.8 1.09-1.19 2.59-1.19 4.49v12.06h-6.78v-14.03c0-1.28-.33-2.29-1-3.04-.67-.75-1.6-1.12-2.78-1.12-1.4 0-2.49.55-3.27 1.66-.78 1.11-1.17 2.59-1.17 4.46v12.06h-6.88Zm55.5.38c-2.87 0-4.96-.9-6.26-2.71v2.34h-6.87v-33.1h6.87v11.78c1.43-1.75 3.55-2.62 6.36-2.62 3.4 0 6.08 1.1 8.07 3.3 1.98 2.2 2.97 5.15 2.97 8.86 0 3.71-1 6.66-2.99 8.86-2 2.2-4.71 3.3-8.14 3.3l-.01-.01Zm-1.13-5.85c1.65 0 2.98-.58 4-1.73 1.01-1.15 1.52-2.68 1.52-4.58s-.51-3.43-1.52-4.58-2.35-1.73-4-1.73-3.03.58-4.04 1.73c-1.01 1.15-1.52 2.68-1.52 4.58s.51 3.43 1.52 4.58 2.36 1.73 4.04 1.73Zm16.23-27.63h7.25v6.59h-7.25v-6.59Zm.14 33.1v-23.56h6.87v23.56h-6.87Zm12.2 0v-23.56h6.87v3.13c1.59-2.34 3.99-3.51 7.2-3.51 2.59 0 4.67.78 6.26 2.34 1.59 1.56 2.38 3.63 2.38 6.22v15.38h-6.83v-13.56c0-1.28-.37-2.31-1.1-3.11-.73-.79-1.72-1.19-2.97-1.19-3.3 0-4.96 2.51-4.96 7.53v10.33h-6.87.02Zm50.68-12.39c0 1.03-.03 1.89-.09 2.57h-16.92c.69 2.99 2.52 4.49 5.52 4.49 2.53 0 4.05-1.01 4.58-3.04l6.45 1.73c-.69 2.21-2.03 3.93-4.02 5.17-2 1.23-4.39 1.85-7.2 1.85-3.8 0-6.77-1.22-8.91-3.67-2.14-2.45-3.2-5.28-3.2-8.49 0-2.06.39-3.97 1.17-5.75.78-1.78 2.08-3.29 3.9-4.54 1.82-1.25 4.03-1.87 6.62-1.87 2.03 0 3.84.35 5.45 1.05 1.6.7 2.88 1.63 3.81 2.78.93 1.15 1.64 2.38 2.13 3.69.48 1.31.72 2.65.72 4.02l-.01.01ZM227.76 248h9.58c-.12-1.25-.58-2.25-1.38-3.02-.8-.77-1.92-1.15-3.39-1.15-2.56 0-4.16 1.39-4.82 4.16l.01.01Zm30.99 15.06c-3.43 0-6.13-1.1-8.11-3.3-1.98-2.2-2.97-5.15-2.97-8.86 0-3.71.98-6.66 2.95-8.86 1.97-2.2 4.64-3.3 8.04-3.3 2.8 0 4.92.87 6.36 2.62v-11.78h6.87v33.1h-6.87v-2.34c-1.31 1.81-3.4 2.71-6.26 2.71l-.01.01Zm1.13-5.85c1.68 0 3.03-.58 4.04-1.73 1.01-1.15 1.52-2.68 1.52-4.58s-.51-3.43-1.52-4.58-2.36-1.73-4.04-1.73c-1.68 0-2.99.58-4 1.73-1.01 1.15-1.52 2.68-1.52 4.58s.51 3.43 1.52 4.58 2.35 1.73 4 1.73ZM2.55 326.61v-38.74h26.62v7.47H11.29v7.08h14.17v7.53H11.29v9.13h18.48v7.53H2.54h.01Zm63.64 0H57l-7.91-13.06-7.91 13.06h-9.24l12.51-20.7-10.9-18.04h9.24l6.31 10.4 6.25-10.4h9.24l-10.9 18.04 12.51 20.7h-.01Zm3.93 0v-38.74h16.05c4.02 0 7.22 1.1 9.6 3.29 2.38 2.2 3.57 5.14 3.57 8.83 0 3.69-1.19 6.63-3.57 8.83s-5.58 3.29-9.6 3.29h-7.3v14.5h-8.75Zm8.75-21.97h6.42c1.66 0 2.96-.42 3.9-1.25.94-.83 1.41-1.96 1.41-3.4s-.47-2.57-1.41-3.4c-.94-.83-2.24-1.25-3.9-1.25h-6.42v9.3Zm24.9 21.97v-38.74h26.62v7.47h-17.88v7.08h14.17v7.53h-14.17v9.13h18.48v7.53h-27.23.01Zm64.86 0h-10.24l-8.41-15.16h-4.87v15.16h-8.74l-.11-38.74h15.44c3.84 0 6.9 1.07 9.19 3.21 2.29 2.14 3.43 5 3.43 8.58 0 2.1-.49 4.03-1.47 5.78a10.95 10.95 0 0 1-4.12 4.18l9.91 16.99h-.01Zm-23.52-31.26v8.63h5.09c1.7 0 3.02-.38 3.96-1.13.94-.76 1.41-1.82 1.41-3.18s-.47-2.43-1.41-3.18c-.94-.76-2.26-1.13-3.96-1.13h-5.09v-.01Zm27.61 31.26v-38.74h8.74v38.74h-8.74Zm15.72 0v-38.74h26.62v7.47h-17.88v7.08h14.17v7.53h-14.17v9.13h18.48v7.53h-27.23.01Zm32.49 0v-38.74h8.69l15.05 24.9v-24.9h8.13v38.74h-8.69l-15.05-24.9v24.9h-8.14.01Zm56.66.45c-5.53 0-10.17-1.73-13.89-5.2-3.73-3.47-5.59-8.34-5.59-14.61s1.87-11.1 5.62-14.58c3.74-3.49 8.37-5.23 13.86-5.23 4.83 0 8.83 1.2 11.98 3.6 3.15 2.4 5.01 5.61 5.56 9.63l-8.69 1.83c-.44-2.32-1.48-4.17-3.1-5.53-1.62-1.36-3.56-2.05-5.81-2.05-3.06 0-5.6 1.08-7.61 3.24-2.01 2.16-3.02 5.19-3.02 9.1 0 3.91 1 6.94 2.99 9.08 1.99 2.14 4.54 3.21 7.64 3.21 2.25 0 4.15-.6 5.7-1.8 1.55-1.2 2.55-2.85 2.99-4.95l8.8 1.99c-.92 3.84-2.92 6.84-5.98 9.02-3.06 2.18-6.88 3.26-11.46 3.26l.01-.01Zm22.97-.45v-38.74h26.62v7.47H309.3v7.08h14.17v7.53H309.3v9.13h18.48v7.53h-27.23.01Z"/>
  <path stroke="#70737C" stroke-miterlimit="10" d="M5.65 374.19h317.32M5.65 1h317.32"/>
  <path fill="#B4A39D" d="M103.25 468.751c-.08-.98 1.11-1.54 1.81-.84l8.26 8.26c.9.9 1.94 1.57 3.04 2.02.5-1.81 1.47-3.46 2.83-4.83l6.9-6.9c-3.34-.2-6.51-1.61-8.91-4.01-2.6-2.6-4.04-6.07-4.04-9.75 0-3.68 1.41-7.08 3.96-9.67 2.58-2.62 6.05-4.07 9.77-4.09 3.72-.01 7.2 1.41 9.8 4.02a13.66 13.66 0 0 1 4.01 8.91l6.9-6.9c1.36-1.36 3.02-2.33 4.83-2.83a9.034 9.034 0 0 0-2.02-3.04l-8.26-8.26c-.7-.7-.14-1.89.85-1.81 3.38.28 6.85-.87 9.43-3.46 4.66-4.66 4.63-12.32-.06-16.95-4.67-4.6-12.18-4.58-16.82.06a11.868 11.868 0 0 0-3.45 9.44c.08.98-1.11 1.54-1.81.84l-8.26-8.26c-3.59-3.59-9.42-3.59-13.01 0l-24.06 24.06c-3.59 3.59-3.59 9.42 0 13.01l8.26 8.26c.7.7.14 1.89-.85 1.81-3.38-.28-6.85.87-9.43 3.46-4.66 4.66-4.63 12.32.06 16.95 4.67 4.6 12.18 4.58 16.82-.06 2.59-2.59 3.74-6.06 3.45-9.44Z"/>
  <path fill="#70737C" d="M207.51 407.851a11.868 11.868 0 0 0-3.45 9.44c.08.98-1.11 1.54-1.81.84l-8.26-8.261c-3.59-3.59-9.42-3.59-13.01 0l-24.06 24.06c-3.59 3.59-3.59 9.42 0 13.01l8.26 8.261c.7.7.14 1.89-.85 1.81-3.38-.28-6.85.87-9.43 3.46-4.66 4.66-4.63 12.319.06 16.949 4.67 4.6 12.18 4.58 16.82-.06 2.59-2.59 3.74-6.06 3.45-9.44-.08-.98 1.11-1.539 1.81-.839l8.26 8.26c3.59 3.59 9.42 3.59 13.01 0l24.06-24.06c3.59-3.59 3.59-9.42 0-13.01l-8.26-8.26c-.7-.7-.14-1.89.85-1.81 3.38.28 6.85-.871 9.43-3.461 4.66-4.66 4.63-12.319-.06-16.949-4.67-4.6-12.18-4.58-16.82.06Z"/>
  <path fill="#D7D7D7" d="M177.11 469.74c-.2 3.37-1.61 6.51-4.01 8.91a13.742 13.742 0 0 1-9.7 4.04c-3.66.01-7.11-1.4-9.72-3.96-2.64-2.6-4.09-6.09-4.09-9.82 0-3.73 1.43-7.16 4.02-9.75 2.4-2.4 5.57-3.81 8.91-4.01l-6.9-6.9a10.96 10.96 0 0 1-2.67-4.32c-1.48.41-2.88 1.2-4.05 2.36l-8.26 8.26c-.7.7-1.89.14-1.81-.85.28-3.38-.87-6.85-3.46-9.43-4.66-4.66-12.32-4.63-16.95.06-4.6 4.67-4.58 12.18.06 16.82 2.59 2.59 6.06 3.74 9.44 3.45.98-.08 1.54 1.11.84 1.81l-8.26 8.26a9.21 9.21 0 0 0-1.91 2.78c-.9 2.03-.4 4.4 1.17 5.96l.02.02 6.9 6.9c.2-3.37 1.61-6.51 4.01-8.91 2.59-2.59 6.04-4.02 9.7-4.04 3.66-.01 7.11 1.4 9.72 3.96 2.64 2.6 4.09 6.09 4.09 9.82 0 3.73-1.43 7.16-4.02 9.75-2.4 2.4-5.57 3.81-8.91 4.01l6.9 6.9c.06.06.11.11.16.17 2.03 2.12 5.28 2.57 7.74.97a8.97 8.97 0 0 0 1.49-1.21l8.26-8.26c.7-.7 1.89-.14 1.81.85-.28 3.38.87 6.85 3.46 9.43 4.66 4.66 12.32 4.63 16.95-.06 4.6-4.67 4.58-12.18-.06-16.82a11.868 11.868 0 0 0-9.44-3.45c-.98.08-1.54-1.11-.84-1.81l8.26-8.26a9.046 9.046 0 0 0 2.36-4.06c-1.58-.52-3.06-1.41-4.32-2.67l-6.9-6.9h.01Z"/>
</svg>
