<svg xmlns="http://www.w3.org/2000/svg" width="792" height="339" fill="none" viewBox="0 0 792 339">
  <path fill="#fff" d="M0 0h792v339H0z"/>
  <circle cx="70" cy="70" r="65" fill="#F7F7F7" stroke="#377D78" stroke-width="10"/>
  <circle cx="70" cy="70" r="58.5" fill="#F7F7F7" stroke="#fff" stroke-width="3"/>
  <path fill="#000" d="M70.3 66.6c-2 0-3.6 1.6-3.6 3.6s1.6 3.5 3.6 3.5 3.5-1.6 3.5-3.5c0-2-1.7-3.6-3.5-3.6Zm27.5-24V36l-8 8v6.6l6.7.1 8-8h-6.7Z"/>
  <path stroke="#000" stroke-miterlimit="10" stroke-width="2" d="M99.5 52.5a34.4 34.4 0 0 1-29.3 52A34.4 34.4 0 0 1 36 70.3a34.2 34.2 0 0 1 58.3-24.4"/>
  <path stroke="#000" stroke-miterlimit="10" stroke-width="2" d="M90.3 58.1a23.5 23.5 0 1 1-3.5-4.5"/>
  <path stroke="#000" stroke-miterlimit="10" stroke-width="2" d="M81.1 63.6a12.8 12.8 0 1 1-1.9-2.4m18.6-18.6L70.3 70.1"/>
  <path fill="#377D78" d="M164.1 68.9c-3.6 0-6.6-1-9-2.8a9.1 9.1 0 0 1-3.6-7.5 8.4 8.4 0 0 1 5.9-8.2 7.8 7.8 0 0 1-3.2-2.8 7.2 7.2 0 0 1-1.2-4 8 8 0 0 1 3.1-6.4 12 12 0 0 1 8-2.7c3.2 0 5.8.9 7.9 2.7a8 8 0 0 1 1.9 10.5 7.4 7.4 0 0 1-3.2 2.7 8.4 8.4 0 0 1 5.9 8.1c0 3.2-1.2 5.7-3.6 7.6a14 14 0 0 1-8.9 2.8Zm0-21.3c1.3 0 2.3-.3 3-1 .8-.7 1.2-1.6 1.2-2.7s-.4-2-1.2-2.7c-.7-.7-1.7-1-3-1s-2.3.3-3.1 1c-.8.7-1.2 1.6-1.2 2.7s.4 2 1.2 2.7c.8.7 1.8 1 3.1 1Zm-3.8 14c1 .8 2.2 1.2 3.8 1.2 1.5 0 2.8-.4 3.7-1.2a4 4 0 0 0 1.4-3.2 4 4 0 0 0-1.4-3.2c-1-.8-2.2-1.2-3.7-1.2-1.6 0-2.9.4-3.8 1.2a4 4 0 0 0-1.4 3.2 4 4 0 0 0 1.4 3.2ZM187 51.4c-2.4 0-4.3-.8-5.8-2.3a8.7 8.7 0 0 1-2-6.1 9 9 0 0 1 2-6.2 7.5 7.5 0 0 1 5.8-2.3c2.4 0 4.3.8 5.7 2.3a8.6 8.6 0 0 1 2.1 6.2c0 2.5-.7 4.6-2.1 6.1a7.3 7.3 0 0 1-5.7 2.3Zm-4.4 17.1L205 34.9h5.5l-22.4 33.6h-5.6Zm4.4-21.7c1.7 0 2.6-1.3 2.6-3.8 0-2.6-.9-3.8-2.6-3.8-1.8 0-2.7 1.2-2.7 3.8 0 2.5 1 3.8 2.7 3.8Zm19.3 22c-2.4 0-4.3-.7-5.7-2.2a8.7 8.7 0 0 1-2.1-6.2c0-2.5.7-4.6 2-6.1a7.5 7.5 0 0 1 5.8-2.3c2.4 0 4.3.8 5.7 2.3a8.6 8.6 0 0 1 2.2 6.1c0 2.6-.7 4.6-2.2 6.2a7.3 7.3 0 0 1-5.7 2.3Zm0-4.6c.9 0 1.5-.3 2-1a5 5 0 0 0 .7-2.8c0-1.2-.3-2.1-.7-2.7-.5-.7-1.1-1-2-1-1.7 0-2.6 1.2-2.6 3.7 0 2.6.9 3.8 2.6 3.8Z"/>
  <path fill="#000" d="M154.8 109.5V97.1h-4.4v-1.6H161v1.6h-4.5v12.4h-1.8Zm9.7-10.2c1.3 0 2.3.3 3 1 .8.7 1.2 1.6 1.2 2.7v6.5H167v-1.7c-.3.6-.8 1-1.4 1.4a4 4 0 0 1-2 .5c-1 0-1.8-.3-2.4-.9-.7-.5-1-1.2-1-2.1 0-2 1.6-3 4.8-3.3l2-.3v-.2a2 2 0 0 0-.7-1.6c-.4-.4-1-.6-1.8-.6-.7 0-1.2.2-1.7.6-.4.3-.7.9-.8 1.6l-1.5-.3c.1-1 .5-1.8 1.3-2.4.8-.6 1.7-1 2.7-1Zm-.6 9a3 3 0 0 0 2.3-1c.5-.5.8-1.3.8-2.4v-.4l-2 .2c-2 .2-3 .9-3 2 0 .4.1.8.5 1.1.3.3.8.5 1.4.5Zm13.4-7.2c-.3-.2-.8-.3-1.3-.3-.8 0-1.5.5-2 1.3-.6.8-.9 2-.9 3.6v3.8h-1.7v-10h1.7v2c.3-.7.8-1.2 1.4-1.6a3 3 0 0 1 1.8-.6l1.1.1v1.7Zm8.8-1.7h1.6v9.6a4 4 0 0 1-1.3 3.1c-.8.8-2 1.2-3.4 1.2-1.1 0-2.1-.3-3-.9a3.2 3.2 0 0 1-1.4-2.2l1.6-.2c0 .5.4 1 .9 1.3.5.4 1.2.6 2 .6s1.6-.3 2.1-.8c.6-.5.9-1.1.9-1.9v-1.4c-.3.4-.7.8-1.3 1-.6.3-1.2.4-2 .4-1.5 0-2.6-.4-3.5-1.3a5.7 5.7 0 0 1 0-7.2c.8-1 2-1.4 3.5-1.4a4.3 4.3 0 0 1 3.3 1.5v-1.4Zm-5.4 7.4a3 3 0 0 0 2.3 1 3 3 0 0 0 2.3-1c.6-.6 1-1.5 1-2.5s-.4-2-1-2.6a3 3 0 0 0-2.3-1 3 3 0 0 0-2.4 1c-.5.7-.8 1.5-.8 2.6 0 1 .3 1.9.9 2.5Zm19-2.8-.1.8h-8c0 1 .4 1.8 1 2.4a3 3 0 0 0 2.2 1c.8 0 1.5-.2 2-.6.5-.3.8-.8 1-1.4l1.5.4c-.2 1-.7 1.7-1.5 2.2a5 5 0 0 1-3 .9c-1.4 0-2.6-.5-3.5-1.5a5 5 0 0 1-1.4-3.7c0-1.5.5-2.8 1.3-3.7 1-1 2.1-1.5 3.6-1.5a4.6 4.6 0 0 1 4.8 4.7Zm-8-.6h6.1a3 3 0 0 0-.9-2 3 3 0 0 0-2.1-.7 3 3 0 0 0-2 .7c-.5.5-1 1.1-1 2Zm15.3 6c-.4.2-1 .3-1.5.3a3 3 0 0 1-2.2-.8c-.6-.6-.8-1.4-.8-2.4v-5.6h-2v-1.5h2v-3h1.7v3h2.7v1.5h-2.7v5.6c0 .6.1 1 .4 1.2.2.3.6.4 1 .4.5 0 1 0 1.3-.2l.1 1.5Zm11-5.4v.8h-8c0 1 .4 1.8 1 2.4a3 3 0 0 0 2.2 1c.8 0 1.4-.2 2-.6.4-.3.8-.8.9-1.4l1.6.4c-.3 1-.8 1.7-1.6 2.2a5 5 0 0 1-2.9.9c-1.5 0-2.7-.5-3.6-1.5-.9-1-1.3-2.3-1.3-3.7a5 5 0 0 1 1.3-3.7c.9-1 2-1.5 3.6-1.5a4.6 4.6 0 0 1 4.8 4.7Zm-8-.6h6.2a3 3 0 0 0-1-2 3 3 0 0 0-2-.7 3 3 0 0 0-2 .7c-.6.5-1 1.1-1.1 2Zm14.5 6.3c-1.6 0-2.8-.5-3.6-1.5-.9-1-1.3-2.2-1.3-3.7 0-1.6.4-2.8 1.3-3.8.8-1 2-1.4 3.5-1.4.7 0 1.3.1 2 .4.5.3 1 .7 1.3 1.2v-5.6h1.7v14.2h-1.7V108c-.2.5-.6.9-1.2 1.2-.6.3-1.3.5-2 .5ZM222 107a3 3 0 0 0 2.4 1 3 3 0 0 0 2.4-1c.6-.6.9-1.5.9-2.6s-.3-2-1-2.7a3 3 0 0 0-2.3-1 3 3 0 0 0-2.4 1 4 4 0 0 0-.9 2.7c0 1 .3 2 1 2.6Zm14.9 2.4v-14h2.2l4.7 11.4 4.7-11.4h2.2v14H249V98.9l-4.3 10.6H243l-4.3-10.6v10.6H237Zm20.4-10.2c1.2 0 2.2.3 3 1 .8.7 1.1 1.6 1.1 2.7v6.5H260v-1.7c-.3.6-.8 1-1.4 1.4a4 4 0 0 1-2 .5c-1 0-1.8-.3-2.5-.9-.6-.5-.9-1.2-.9-2.1 0-2 1.6-3 4.8-3.3l2-.3v-.2a2 2 0 0 0-.7-1.6c-.5-.4-1-.6-1.8-.6-.7 0-1.3.2-1.7.6-.5.3-.7.9-.8 1.6l-1.6-.3c.2-1 .6-1.8 1.4-2.4a4 4 0 0 1 2.7-1Zm-.6 9a3 3 0 0 0 2.2-1c.6-.5.9-1.3.9-2.4v-.4l-2 .2c-2 .2-3 .9-3 2 0 .4 0 .8.4 1.1.4.3.9.5 1.5.5Zm13.4-7.2c-.4-.2-.8-.3-1.3-.3-.8 0-1.5.5-2 1.3-.6.8-.9 2-.9 3.6v3.8h-1.7v-10h1.7v2c.3-.7.7-1.2 1.3-1.6.6-.4 1.2-.6 1.8-.6l1.2.1v1.7Zm8.7-1.7h1.7v9.6a4 4 0 0 1-1.3 3.1c-.9.8-2 1.2-3.4 1.2-1.2 0-2.2-.3-3-.9a3.2 3.2 0 0 1-1.4-2.2l1.6-.2c0 .5.3 1 .9 1.3a3 3 0 0 0 2 .6c.8 0 1.5-.3 2.1-.8.6-.5.8-1.1.8-1.9v-1.4a2 2 0 0 1-1.2 1c-.6.3-1.3.4-2 .4-1.5 0-2.7-.4-3.5-1.3-.9-1-1.3-2.2-1.3-3.6 0-1.5.4-2.7 1.3-3.6.8-1 2-1.4 3.5-1.4a4.3 4.3 0 0 1 3.2 1.5v-1.4Zm-5.4 7.4a3 3 0 0 0 2.4 1 3 3 0 0 0 2.3-1c.6-.6.9-1.5.9-2.5s-.3-2-.9-2.6a3 3 0 0 0-2.3-1 3 3 0 0 0-2.4 1c-.6.7-.8 1.5-.8 2.6 0 1 .3 1.9.8 2.5Zm9.8-11.5h2v2.2h-2v-2.2Zm0 14.2v-10h1.8v10h-1.7Zm4.5 0v-10h1.7v1.8c.4-.6.9-1.1 1.5-1.5.6-.4 1.2-.5 2-.5 1 0 1.9.3 2.6 1 .6.6 1 1.5 1 2.5v6.7h-1.7V103a2.2 2.2 0 0 0-2.3-2.3c-1 0-1.7.4-2.3 1.2-.5.7-.8 1.8-.8 3v4.5h-1.7Z"/>
  <circle cx="433" cy="70" r="65" fill="#F7F7F7" stroke="#B8A9A4" stroke-width="10"/>
  <circle cx="433" cy="70" r="58.5" fill="#F7F7F7" stroke="#fff" stroke-width="3"/>
  <path fill="#000" d="M433 42c-.3 0-.7.1-1 .4-.2.2-.3.6-.3.9v21.6l-11.9 11.7-5.7-5.6a1.3 1.3 0 0 0-1.8 0l-11.9 11.7c-.3.4-.5.9-.4 1.3.2.5.5.8 1 1 .4 0 1 0 1.3-.4l11-10.8 4.6 4.7-17.5 17.3c-.3.3-.5.8-.4 1.2.2.5.5.8 1 1 .4 0 1 0 1.3-.4l14.3-14.2v.1l6 3 5.1-3.8 5.3 3.9 5.3-4 5.1 3.9 6-3 14.3 14.1a1.3 1.3 0 0 0 2.3-.6c0-.4 0-1-.4-1.2l-17.5-17.3 4.7-4.7 11 10.8c.3.3.8.5 1.2.3a1.3 1.3 0 0 0 .6-2.2L453.7 71a1.3 1.3 0 0 0-1.8 0l-5.7 5.6L434.3 65V54.2l11-4.3c.6-.2.9-.7.9-1.2s-.3-1-.8-1.2l-11.8-5.4-.6-.1Zm1.3 3.3 7.2 3.3-7.2 2.8v-6Zm-1.3 22 12 11.9.4.4 2 2-3.7 1.8-5.4-4-5.3 4-5.3-4-5.4 4-3.8-1.8 2-2 .4-.4 12.1-12Z"/>
  <path fill="#B8A9A4" d="M540.1 58.7a9 9 0 0 1-2.6 6.5c-1.7 1.8-4.1 3-7 3.4v4.5h-6.1v-4.5a13 13 0 0 1-7-3.7c-1.9-1.8-3-4.1-3.2-6.7l6.6-2a7 7 0 0 0 2.2 4.5 6.5 6.5 0 0 0 4.5 1.8 6 6 0 0 0 3.6-1 3 3 0 0 0 1.4-2.6c0-.9-.3-1.6-1-2.2-.6-.5-1.4-1-2.5-1.4l-3.3-1L522 53c-1.2-.5-2.3-1-3.3-1.7a8 8 0 0 1-2.5-3c-.6-1.2-1-2.7-1-4.3a8 8 0 0 1 2.6-6c1.7-1.7 4-2.8 6.6-3.2v-4.3h6v4.4c2.5.4 4.6 1.4 6.3 2.9A9.8 9.8 0 0 1 540 43l-6.8 2.8c-.3-1.5-1-2.7-2.2-3.6-1-.9-2.3-1.4-3.9-1.4a5 5 0 0 0-3.1.9c-.8.5-1.2 1.2-1.2 2.1 0 .7.4 1.3 1 1.8.6.4 1.5.8 2.4 1.1l3.4.9a19.7 19.7 0 0 1 7 3c1 .7 2 1.8 2.6 3.2.6 1.3 1 3 1 4.8ZM555.6 69c-3.4 0-6.2-.9-8.5-2.6-2.3-1.7-3.6-4-4.1-6.8l6.8-1.2a5.3 5.3 0 0 0 5.5 4A5 5 0 0 0 559 61c1-1 1.4-2.3 1.4-3.8a5 5 0 0 0-1.5-3.8c-1-.9-2.3-1.4-4-1.4-2.3 0-4.2 1-5.7 3l-5.5-1 2.9-19.1h18.9v6.5H552l-1.1 7a8.7 8.7 0 0 1 6-2.2c3.2 0 5.9 1 8 3 2 2 3 4.7 3 8 0 3.5-1.1 6.3-3.4 8.5a12.5 12.5 0 0 1-9 3.2Zm39.8-4.7c-2.6 3.1-6 4.7-10.3 4.7-4.3 0-7.7-1.6-10.2-4.7a19.5 19.5 0 0 1-3.7-12.5c0-5.2 1.2-9.4 3.7-12.5 2.5-3.1 6-4.7 10.2-4.7 4.3 0 7.7 1.6 10.3 4.7a19 19 0 0 1 3.8 12.5c0 5.2-1.3 9.4-3.8 12.5Zm-15-4.6c1 1.8 2.6 2.8 4.7 2.8s3.7-1 4.8-2.8c1.1-1.8 1.7-4.5 1.7-7.9 0-3.4-.6-6-1.7-8a5.3 5.3 0 0 0-4.8-2.7c-2 0-3.6 1-4.7 2.8a15.5 15.5 0 0 0-1.7 7.9c0 3.4.6 6 1.7 8Zm46.1 4.6c-2.5 3.1-6 4.7-10.2 4.7-4.3 0-7.7-1.6-10.2-4.7a19.5 19.5 0 0 1-3.8-12.5c0-5.2 1.3-9.4 3.8-12.5 2.5-3.1 6-4.7 10.2-4.7 4.3 0 7.7 1.6 10.2 4.7a19 19 0 0 1 3.9 12.5c0 5.2-1.3 9.4-3.9 12.5Zm-15-4.6a5.5 5.5 0 0 0 9.6 0c1.1-1.8 1.7-4.5 1.7-7.9 0-3.4-.6-6-1.7-8a5.3 5.3 0 0 0-4.8-2.7c-2 0-3.7 1-4.8 2.8-1 1.8-1.6 4.5-1.6 7.9 0 3.4.6 6 1.6 8Zm23.4 8.9V34.9h8.4l9.7 22.8 9.8-22.8h8.3v33.6h-7V49l-8.3 19.5h-5.5L642 49v19.5h-7Z"/>
  <path fill="#000" d="m524 109.5-1.3-3.6h-6.3l-1.3 3.6h-2l5.6-14h1.7l5.5 14H524Zm-7-5.2h5l-2.4-6.4-2.5 6.4Zm10.5 5.2v-10h1.7v1.8a5 5 0 0 1 1.4-1.5c.6-.4 1.3-.5 2-.5 1.1 0 2 .3 2.6 1 .7.6 1 1.5 1 2.5v6.7h-1.6v-6.4c0-.7-.2-1.2-.7-1.6a2 2 0 0 0-1.6-.7c-1 0-1.7.4-2.3 1.2-.5.7-.8 1.8-.8 3v4.5h-1.7Zm11.5 0v-10h1.7v1.8c.4-.6.9-1.1 1.5-1.5.6-.4 1.2-.5 2-.5 1 0 1.9.3 2.6 1 .6.6 1 1.5 1 2.5v6.7H546v-6.4a2.2 2.2 0 0 0-2.3-2.3c-1 0-1.7.4-2.3 1.2-.5.7-.8 1.8-.8 3v4.5H539Zm20.2-10v10h-1.7v-1.9a4 4 0 0 1-3.4 2.1c-1.1 0-2-.4-2.6-1-.7-.7-1-1.5-1-2.6v-6.7h1.7v6.4c0 .7.2 1.2.6 1.7.4.4 1 .6 1.6.6 1 0 1.7-.4 2.3-1.1.5-.8.8-1.8.8-3.2v-4.4h1.7Zm6.5-.2c1.3 0 2.3.3 3 1 .8.7 1.2 1.6 1.2 2.7v6.5h-1.7v-1.7c-.3.6-.7 1-1.4 1.4a4 4 0 0 1-2 .5c-1 0-1.8-.3-2.4-.9-.6-.5-1-1.2-1-2.1 0-2 1.6-3 4.8-3.3l2-.3v-.2a2 2 0 0 0-.7-1.6c-.4-.4-1-.6-1.8-.6-.7 0-1.2.2-1.7.6-.4.3-.7.9-.8 1.6l-1.5-.3c.1-1 .6-1.8 1.3-2.4.8-.6 1.7-1 2.7-1Zm-.6 9a3 3 0 0 0 2.3-1c.5-.5.8-1.3.8-2.4v-.4l-2 .2c-2 .2-3 .9-3 2 0 .4.1.8.5 1.1.4.3.8.5 1.4.5Zm7.5 1.2V95.3h1.7v14.2h-1.7Zm15.2-8.4c-.4-.2-.8-.3-1.3-.3-.8 0-1.5.5-2 1.3-.6.8-.9 2-.9 3.6v3.8H582v-10h1.7v2c.3-.7.8-1.2 1.3-1.6a3.4 3.4 0 0 1 3-.4v1.6Zm10.4 2.9v.8h-8c0 1 .4 1.8 1 2.4a3 3 0 0 0 2.2 1c.8 0 1.5-.2 2-.6.5-.3.8-.8 1-1.4l1.5.4c-.2 1-.7 1.7-1.5 2.2a5 5 0 0 1-3 .9c-1.4 0-2.6-.5-3.5-1.5a5 5 0 0 1-1.4-3.7c0-1.5.5-2.8 1.3-3.7 1-1 2.1-1.5 3.6-1.5a4.6 4.6 0 0 1 4.8 4.7Zm-7.9-.6h6.1a3 3 0 0 0-.9-2 3 3 0 0 0-2-.7 3 3 0 0 0-2 .7c-.6.5-1 1.1-1.2 2Zm12.3 6.1-3.6-10h1.7l2.8 8 2.8-8h1.8l-3.7 10h-1.8Zm16-5.5-.1.8h-8c0 1 .4 1.8 1 2.4a3 3 0 0 0 2.2 1c.8 0 1.5-.2 2-.6.5-.3.8-.8 1-1.4l1.5.4c-.2 1-.7 1.7-1.5 2.2a5 5 0 0 1-3 .9c-1.4 0-2.6-.5-3.5-1.5a5 5 0 0 1-1.4-3.7c0-1.5.5-2.8 1.3-3.7 1-1 2.1-1.5 3.6-1.5a4.6 4.6 0 0 1 4.8 4.7Zm-8-.6h6.1a3 3 0 0 0-.9-2 3 3 0 0 0-2.1-.7 3 3 0 0 0-2 .7c-.5.5-1 1.1-1 2Zm10.1 6.1v-10h1.7v1.8a5 5 0 0 1 1.4-1.5c.6-.4 1.3-.5 2-.5 1.1 0 2 .3 2.6 1 .7.6 1 1.5 1 2.5v6.7h-1.6v-6.4c0-.7-.2-1.2-.7-1.6a2 2 0 0 0-1.6-.7c-1 0-1.7.4-2.3 1.2-.5.7-.8 1.8-.8 3v4.5h-1.7Zm20.2-10v10h-1.7v-1.9a5 5 0 0 1-1.4 1.5c-.6.4-1.3.6-2 .6a4 4 0 0 1-2.7-1c-.6-.7-1-1.5-1-2.6v-6.7h1.7v6.4c0 .7.2 1.2.7 1.7.4.4 1 .6 1.6.6 1 0 1.7-.4 2.3-1.1.5-.8.8-1.8.8-3.2v-4.4h1.7Zm11.9 4.5v.8h-8c0 1 .4 1.8 1 2.4a3 3 0 0 0 2.2 1c.8 0 1.4-.2 2-.6.4-.3.8-.8.9-1.4l1.6.4c-.3 1-.8 1.7-1.6 2.2a5 5 0 0 1-2.9.9c-1.5 0-2.7-.5-3.6-1.5-.9-1-1.3-2.3-1.3-3.7a5 5 0 0 1 1.3-3.7c.9-1 2-1.5 3.6-1.5a4.6 4.6 0 0 1 4.8 4.7Zm-8-.6h6.2a3 3 0 0 0-1-2 3 3 0 0 0-2-.7 3 3 0 0 0-2 .7c-.6.5-1 1.1-1.1 2Zm20.4 6c-.5.2-1 .3-1.6.3a3 3 0 0 1-2.2-.8c-.5-.6-.8-1.4-.8-2.4v-5.6h-1.9v-1.5h1.9v-3h1.7v3h2.7v1.5h-2.7v5.6c0 .6.1 1 .4 1.2.3.3.6.4 1 .4.6 0 1 0 1.3-.2l.1 1.5Zm5.5-10.1c1.3 0 2.3.3 3 1 .8.7 1.2 1.6 1.2 2.7v6.5h-1.7v-1.7c-.3.6-.8 1-1.4 1.4a4 4 0 0 1-2 .5c-1 0-1.8-.3-2.4-.9-.7-.5-1-1.2-1-2.1 0-2 1.6-3 4.8-3.3l2-.3v-.2a2 2 0 0 0-.7-1.6c-.4-.4-1-.6-1.8-.6-.7 0-1.2.2-1.7.6-.5.3-.7.9-.8 1.6l-1.6-.3c.2-1 .6-1.8 1.4-2.4.7-.6 1.7-1 2.7-1Zm-.6 9a3 3 0 0 0 2.3-1c.5-.5.8-1.3.8-2.4v-.4l-2 .2c-2 .2-3 .9-3 2 0 .4.1.8.5 1.1.3.3.8.5 1.4.5Zm13.4-7.2c-.4-.2-.8-.3-1.3-.3-.8 0-1.5.5-2 1.3-.6.8-.9 2-.9 3.6v3.8h-1.7v-10h1.7v2c.3-.7.8-1.2 1.3-1.6a3.4 3.4 0 0 1 3-.4v1.6Zm8.8-1.7h1.6v9.6a4 4 0 0 1-1.3 3.1c-.9.8-2 1.2-3.4 1.2-1.1 0-2.1-.3-3-.9a3.2 3.2 0 0 1-1.4-2.2l1.6-.2c0 .5.4 1 .9 1.3.5.4 1.2.6 2 .6s1.6-.3 2.1-.8c.6-.5.9-1.1.9-1.9v-1.4c-.3.4-.7.8-1.3 1-.6.3-1.3.4-2 .4-1.5 0-2.7-.4-3.5-1.3-.9-1-1.3-2.2-1.3-3.6 0-1.5.4-2.7 1.3-3.6.8-1 2-1.4 3.5-1.4a4.3 4.3 0 0 1 3.3 1.5v-1.4Zm-5.4 7.4a3 3 0 0 0 2.3 1 3 3 0 0 0 2.3-1c.6-.6.9-1.5.9-2.5s-.3-2-.9-2.6a3 3 0 0 0-2.3-1 3 3 0 0 0-2.4 1c-.5.7-.8 1.5-.8 2.6 0 1 .3 1.9.9 2.5Zm18.9-2.8v.8h-8c0 1 .4 1.8 1 2.4a3 3 0 0 0 2.2 1c.8 0 1.4-.2 2-.6.5-.3.8-.8 1-1.4l1.5.4c-.2 1-.8 1.7-1.6 2.2a5 5 0 0 1-2.9.9c-1.5 0-2.6-.5-3.6-1.5a6 6 0 0 1-1.3-3.7 5 5 0 0 1 1.3-3.7c1-1 2.1-1.5 3.6-1.5a4.6 4.6 0 0 1 4.8 4.7Zm-7.9-.6h6.1a3 3 0 0 0-1-2 3 3 0 0 0-2-.7 3 3 0 0 0-2 .7c-.6.5-1 1.1-1.1 2Zm15.3 6c-.4.2-1 .3-1.6.3a3 3 0 0 1-2.1-.8c-.6-.6-.8-1.4-.8-2.4v-5.6h-2v-1.5h2v-3h1.7v3h2.7v1.5h-2.7v5.6c0 .6 0 1 .4 1.2.2.3.6.4 1 .4.5 0 1 0 1.3-.2l.1 1.5Zm11.8.3c-.7 0-1.4-.2-2-.5a3 3 0 0 1-1.3-1.2v1.5H720V95.3h1.7v5.6c.3-.5.8-1 1.4-1.2.6-.3 1.3-.4 2-.4 1.4 0 2.6.4 3.5 1.4.8 1 1.3 2.2 1.3 3.8 0 1.5-.5 2.7-1.3 3.7-.9 1-2 1.5-3.6 1.5Zm-2.5-2.6a3 3 0 0 0 2.3 1 3 3 0 0 0 2.4-1c.6-.6 1-1.5 1-2.6s-.4-2-1-2.7a3 3 0 0 0-2.4-1 3 3 0 0 0-2.3 1 4 4 0 0 0-1 2.7c0 1 .4 2 1 2.6Zm15.8-7.7h1.8l-5.3 13.7h-1.7l1.4-3.7-4-10h2l2.9 7.7 3-7.7Zm7.5 10.1v-1.6l5.2-4.5c1.6-1.4 2.3-2.6 2.3-3.9 0-.7-.2-1.4-.7-1.8-.5-.5-1.1-.7-2-.7-.9 0-1.7.3-2.2 1-.5.5-.7 1.4-.6 2.4l-1.8-.1c0-1.5.3-2.7 1.2-3.6.8-.9 2-1.4 3.5-1.4 1.3 0 2.4.4 3.3 1.2a4 4 0 0 1 1.2 3c0 .9-.2 1.7-.7 2.5a11 11 0 0 1-2.4 2.6l-3.8 3.3h7v1.6h-9.5Zm16.7.2c-1.7 0-3-.7-4-2-.9-1.3-1.3-3-1.3-5.2s.4-4 1.4-5.2c.9-1.3 2.2-2 4-2 1.6 0 3 .7 3.9 2 1 1.3 1.4 3 1.4 5.2s-.5 4-1.4 5.2c-1 1.3-2.3 2-4 2Zm0-1.7c1.1 0 2-.5 2.6-1.5.6-1 1-2.3 1-4 0-1.7-.4-3-1-4s-1.5-1.5-2.6-1.5c-1 0-2 .5-2.6 1.4a8 8 0 0 0-.9 4.1c0 1.7.3 3 1 4 .5 1 1.4 1.5 2.5 1.5Zm6.8 1.5v-1.6l5.2-4.5c1.6-1.4 2.4-2.6 2.4-3.9 0-.7-.3-1.4-.8-1.8-.4-.5-1-.7-1.9-.7-1 0-1.7.3-2.2 1-.6.5-.8 1.4-.7 2.4l-1.7-.1c-.1-1.5.3-2.7 1.1-3.6.9-.9 2-1.4 3.5-1.4 1.4 0 2.5.4 3.3 1.2a4.2 4.2 0 0 1 .5 5.5 11 11 0 0 1-2.3 2.6l-3.8 3.3h6.9v1.6h-9.5Zm16.2-4.6a5 5 0 0 1-3.5-1.4c-1-.9-1.4-2-1.4-3.4s.5-2.5 1.4-3.4c1-1 2.2-1.4 3.7-1.4s2.8.6 3.7 1.8a7 7 0 0 1 1.5 4.6c0 2.5-.6 4.5-1.8 5.9a5.9 5.9 0 0 1-4.7 2 6 6 0 0 1-3.8-1.2l.9-1.4c.8.7 1.8 1 2.9 1 1.3 0 2.5-.5 3.4-1.5.9-1 1.3-2.2 1.4-3.7-.4.6-.9 1.1-1.5 1.5-.7.4-1.4.6-2.2.6Zm2.4-7a3 3 0 0 0-2.3-1 3 3 0 0 0-2.3 1 3 3 0 0 0-.9 2.3c0 .9.3 1.7 1 2.3.5.5 1.3.8 2.2.8 1 0 1.7-.3 2.3-.8a3 3 0 0 0 1-2.3 3 3 0 0 0-1-2.3Z"/>
  <circle cx="283.2" cy="269" r="65" fill="#F7F7F7" stroke="#6B717A" stroke-width="10"/>
  <circle cx="283.2" cy="269" r="58.5" fill="#F7F7F7" stroke="#fff" stroke-width="3"/>
  <path fill="#000" d="M260.2 237v22.9H250l.2 37.1H314v-54.3h-23.3v28.6h-7.2V237h-23.3Zm2.9 2.9h17.4v31.4h-7.2v-11.4H263v-20Zm4.4 2.8v2.9h2.9v-2.9h-3Zm5.8 0v2.9h2.9v-2.9h-2.9Zm20.3 2.9h17.5V294h-7.3v-5.7h-2.9v5.7h-7.3v-48.5Zm-26.1 2.8v2.9h2.9v-2.9h-3Zm5.8 0v2.9h2.9v-2.9h-3Zm24.7 0v2.9h3v-2.9h-3Zm5.8 0v3h2.9v-3h-2.9Zm-5.8 5.8v2.8h3v-2.8h-3Zm5.8 0v2.8h2.9v-2.8h-2.9Zm-5.8 5.7v2.8h3V260h-3Zm5.8 0v2.8h2.9V260h-2.9Zm-50.9 2.8h17.5v31.4h-7.3v-5.7h-2.9v5.7h-7l-.3-31.4Zm4.4 2.9v2.9h3v-3h-3Zm5.9 0v2.9h2.8v-3h-2.8Zm34.8 0v2.8h3v-2.8h-3Zm5.8 0v2.8h2.9v-2.8h-2.9Zm-46.5 5.7v2.8h3v-2.8h-3Zm5.9 0v2.8h2.8v-2.8h-2.8Zm34.8 0v2.9h3v-3h-3Zm5.8 0v2.9h2.9v-3h-2.9Zm-30.5 2.8h17.4v20h-7.2v-5.7h-3v5.7h-7.2v-20Zm-16 2.9v2.9h3V277h-3Zm5.9 0v2.9h2.8V277h-2.8Zm14.4 0v2.9h3V277h-3Zm5.9 0v2.9h2.9V277h-3Zm14.5 0v2.9h3V277h-3Zm5.8 0v2.9h2.9V277h-2.9Zm-26.2 5.7v2.9h3v-3h-3Zm5.9 0v2.9h2.9v-3h-3Zm14.5 0v2.9h3v-3h-3Zm5.8 0v2.9h2.9v-3h-2.9Z"/>
  <path fill="#6B717A" d="M390.3 245.2a9 9 0 0 1-2.7 6.5c-1.7 1.8-4 3-7 3.4v4.5h-6V255a13 13 0 0 1-7-3.7c-2-1.8-3-4.1-3.2-6.7l6.6-2a7 7 0 0 0 2.2 4.5 6.5 6.5 0 0 0 4.5 1.8 6 6 0 0 0 3.6-1 3 3 0 0 0 1.3-2.6c0-.9-.3-1.6-1-2.2a9 9 0 0 0-2.4-1.4l-3.3-1-3.7-1.3a18 18 0 0 1-3.4-1.7 8 8 0 0 1-2.4-3c-.7-1.2-1-2.7-1-4.3a8 8 0 0 1 2.6-6c1.7-1.7 3.9-2.8 6.5-3.2V217h6v4.4c2.5.4 4.6 1.4 6.3 2.9a9.8 9.8 0 0 1 3.3 5.3l-6.7 2.8a6.7 6.7 0 0 0-2.2-3.6c-1-.9-2.4-1.4-4-1.4-1.2 0-2.3.3-3 .9-.8.5-1.2 1.2-1.2 2.1 0 .7.3 1.3 1 1.8a9 9 0 0 0 2.4 1.1l3.4.9a19.7 19.7 0 0 1 7 3c1 .7 1.9 1.8 2.5 3.2.7 1.3 1 3 1 4.8Zm10.3 9.8v-25.5a19 19 0 0 1-7.6 3.4v-6.7c3-.8 6-2.4 8.9-4.8h5.7V255h-7Zm24 .4c-3.3 0-6-.9-8.4-2.6-2.3-1.7-3.6-4-4.1-6.8l6.8-1.2a5.3 5.3 0 0 0 5.5 4 5 5 0 0 0 3.7-1.3c1-1 1.4-2.3 1.4-3.8a5 5 0 0 0-1.5-3.8c-1-.9-2.3-1.4-4-1.4-2.3 0-4.2 1-5.7 3l-5.5-1 2.9-19.1h18.9v6.5h-13.4l-1.1 7a8.7 8.7 0 0 1 6-2.2c3.2 0 5.9 1 8 3 2 2 3 4.7 3 8 0 3.5-1.1 6.3-3.4 8.5a12.5 12.5 0 0 1-9 3.2Zm39.9-4.7c-2.6 3.1-6 4.7-10.3 4.7-4.3 0-7.7-1.6-10.2-4.7a19.5 19.5 0 0 1-3.7-12.5c0-5.2 1.2-9.4 3.7-12.5 2.5-3.1 6-4.7 10.2-4.7 4.3 0 7.7 1.6 10.3 4.7a19 19 0 0 1 3.8 12.5c0 5.2-1.3 9.4-3.8 12.5Zm-15-4.6c1 1.8 2.6 2.8 4.7 2.8s3.7-1 4.8-2.8c1.1-1.8 1.7-4.5 1.7-7.9 0-3.4-.6-6-1.7-8a5.3 5.3 0 0 0-4.8-2.7c-2 0-3.6 1-4.7 2.8a15.5 15.5 0 0 0-1.7 7.9c0 3.4.6 6 1.7 8Zm23.4 8.9v-33.6h8.3l9.8 22.8 9.7-22.8h8.4V255h-7v-19.5l-8.3 19.5h-5.6l-8.3-19.5V255h-7Zm-82.6 48.2a9 9 0 0 1-2.7 6.5c-1.7 1.8-4 3-7 3.4v4.5h-6V313a13 13 0 0 1-7-3.7c-2-1.8-3-4.1-3.2-6.7l6.6-2a7 7 0 0 0 2.2 4.5 6.5 6.5 0 0 0 4.5 1.8 6 6 0 0 0 3.6-1 3 3 0 0 0 1.3-2.6c0-.9-.3-1.6-1-2.2a9 9 0 0 0-2.4-1.4l-3.3-1-3.7-1.3a18 18 0 0 1-3.4-1.7 8 8 0 0 1-2.4-3c-.7-1.2-1-2.7-1-4.3a8 8 0 0 1 2.6-6c1.7-1.7 3.9-2.8 6.5-3.2V275h6v4.4c2.5.4 4.6 1.4 6.3 2.9a9.8 9.8 0 0 1 3.3 5.3l-6.7 2.8a6.7 6.7 0 0 0-2.2-3.6c-1-.9-2.4-1.4-4-1.4-1.2 0-2.3.3-3 .9-.8.5-1.2 1.2-1.2 2.1 0 .7.3 1.3 1 1.8a9 9 0 0 0 2.4 1.1l3.4.9a19.7 19.7 0 0 1 7 3c1 .7 1.9 1.8 2.5 3.2.7 1.3 1 3 1 4.8Zm2.7 9.8v-6l11.6-9.7c3.4-2.7 5-5.2 5-7.4 0-1.3-.4-2.4-1.2-3.2-.9-.8-2-1.2-3.4-1.2-1.6 0-2.9.6-3.8 1.9-.9 1.2-1.2 2.9-1 5l-7.2-.5a11 11 0 0 1 3-9 12 12 0 0 1 9-3.9c3.7 0 6.6 1 8.8 3a10 10 0 0 1 3.4 8 11 11 0 0 1-2 6c-1.2 2-3.3 4-6.2 6.3l-5.4 4.2h13.6v6.5H393Zm52.3-4.3c-2.5 3.1-6 4.7-10.2 4.7-4.3 0-7.7-1.6-10.2-4.7a19.5 19.5 0 0 1-3.8-12.5c0-5.2 1.3-9.4 3.8-12.5 2.5-3.1 6-4.7 10.2-4.7 4.3 0 7.7 1.6 10.2 4.7a19 19 0 0 1 3.9 12.5c0 5.2-1.3 9.4-3.9 12.5Zm-15-4.6a5.5 5.5 0 0 0 9.6 0c1.1-1.8 1.7-4.5 1.7-7.9 0-3.4-.6-6-1.7-8a5.3 5.3 0 0 0-4.8-2.7c-2 0-3.7 1-4.7 2.8a15.5 15.5 0 0 0-1.7 7.9c0 3.4.6 6 1.7 8Zm46.2 4.6c-2.5 3.1-6 4.7-10.2 4.7-4.3 0-7.7-1.6-10.2-4.7a19.5 19.5 0 0 1-3.8-12.5c0-5.2 1.3-9.4 3.8-12.5 2.5-3.1 5.9-4.7 10.2-4.7 4.3 0 7.7 1.6 10.2 4.7a19 19 0 0 1 3.8 12.5c0 5.2-1.2 9.4-3.8 12.5Zm-15-4.6a5.5 5.5 0 0 0 9.6 0c1-1.8 1.7-4.5 1.7-7.9 0-3.4-.6-6-1.7-8a5.3 5.3 0 0 0-4.8-2.7c-2.1 0-3.7 1-4.8 2.8-1 1.8-1.6 4.5-1.6 7.9 0 3.4.5 6 1.6 8ZM485 313v-33.6h8.4l9.7 22.8 9.8-22.8h8.3V313h-7v-19.5l-8.3 19.5h-5.5l-8.3-19.5V313h-7Z"/>
  <path fill="#000" d="M520.7 273v-12.4h-4.5V259h10.7v1.6h-4.4V273h-1.8Zm9.7-10.2c1.2 0 2.2.3 3 1 .7.7 1.1 1.6 1.1 2.7v6.5h-1.7v-1.7c-.3.6-.7 1-1.3 1.4a4 4 0 0 1-2 .5c-1 0-1.8-.3-2.5-.9-.6-.5-1-1.2-1-2.1 0-2 1.7-3 4.9-3.3l2-.3v-.2a2 2 0 0 0-.7-1.6c-.5-.4-1-.6-1.8-.6-.7 0-1.3.2-1.7.6-.5.3-.8.9-.8 1.6l-1.6-.3c.1-1 .6-1.8 1.3-2.4.8-.6 1.7-1 2.8-1Zm-.7 9a3 3 0 0 0 2.3-1c.6-.5.8-1.3.8-2.4v-.4l-2 .2c-2 .2-3 .9-3 2 0 .4.2.8.5 1.1.4.3.9.5 1.4.5Zm13.5-7.2c-.4-.2-.8-.3-1.3-.3-.9 0-1.6.5-2.1 1.3-.6.8-.8 2-.8 3.6v3.8h-1.7v-10h1.7v2c.3-.7.7-1.2 1.3-1.6.6-.4 1.2-.6 1.8-.6l1.2.1-.1 1.7Zm8.7-1.7h1.7v9.6a4 4 0 0 1-1.3 3.1c-.9.8-2 1.2-3.4 1.2-1.2 0-2.2-.3-3-.9a3.2 3.2 0 0 1-1.5-2.2l1.7-.2c0 .5.3 1 .8 1.3.6.4 1.2.6 2 .6.9 0 1.6-.3 2.2-.8.5-.5.8-1.1.8-1.9v-1.4a2 2 0 0 1-1.2 1c-.6.3-1.3.4-2 .4-1.5 0-2.7-.4-3.6-1.3-.8-1-1.2-2.2-1.2-3.6 0-1.5.4-2.7 1.2-3.6.9-1 2-1.4 3.5-1.4a4.3 4.3 0 0 1 3.3 1.5v-1.4Zm-5.4 7.4a3 3 0 0 0 2.3 1 3 3 0 0 0 2.4-1c.6-.6.8-1.5.8-2.5s-.2-2-.8-2.6a3 3 0 0 0-2.4-1 3 3 0 0 0-2.3 1c-.6.7-.9 1.5-.9 2.6 0 1 .3 1.9 1 2.5Zm19-2.8v.8h-8a3 3 0 0 0 1 2.4 3 3 0 0 0 2.2 1c.8 0 1.4-.2 1.9-.6.5-.3.8-.8 1-1.4l1.6.4c-.3 1-.8 1.7-1.6 2.2a5 5 0 0 1-3 .9c-1.4 0-2.6-.5-3.5-1.5-.9-1-1.3-2.3-1.3-3.7a5 5 0 0 1 1.3-3.7c.9-1 2-1.5 3.5-1.5a4.6 4.6 0 0 1 4.9 4.7Zm-8-.6h6.2a3 3 0 0 0-1-2 3 3 0 0 0-2-.7 3 3 0 0 0-2 .7c-.6.5-1 1.1-1.1 2Zm15.4 6c-.5.2-1 .3-1.6.3a3 3 0 0 1-2.2-.8c-.5-.6-.8-1.4-.8-2.4v-5.6h-1.9V263h2v-3h1.6v3h2.7v1.5H570v5.6c0 .6.1 1 .4 1.2.3.3.6.4 1 .4.6 0 1 0 1.4-.2v1.5Zm10.8-5.4v.8h-8c0 1 .4 1.8 1 2.4a3 3 0 0 0 2.2 1c.8 0 1.5-.2 2-.6.5-.3.8-.8 1-1.4l1.5.4c-.2 1-.7 1.7-1.5 2.2a5 5 0 0 1-3 .9c-1.4 0-2.6-.5-3.5-1.5a5 5 0 0 1-1.4-3.7c0-1.5.5-2.8 1.3-3.7 1-1 2.1-1.5 3.6-1.5a4.6 4.6 0 0 1 4.8 4.7Zm-7.9-.6h6.1a3 3 0 0 0-.9-2 3 3 0 0 0-2.1-.7 3 3 0 0 0-2 .7c-.5.5-.9 1.1-1 2Zm14.4 6.3c-1.5 0-2.7-.5-3.6-1.5-.8-1-1.3-2.2-1.3-3.7 0-1.6.5-2.8 1.3-3.8.9-1 2-1.4 3.6-1.4.6 0 1.3.1 1.9.4.6.3 1 .7 1.4 1.2v-5.6h1.7V273h-1.7v-1.5a3 3 0 0 1-1.3 1.2c-.6.3-1.3.5-2 .5Zm-2.2-2.6a3 3 0 0 0 2.4 1 3 3 0 0 0 2.3-1c.6-.6 1-1.5 1-2.6s-.4-2-1-2.7a3 3 0 0 0-2.3-1 3 3 0 0 0-2.4 1 4 4 0 0 0-1 2.7c0 1 .4 2 1 2.6Zm14.7 6V263h1.7v1.5c.3-.5.8-.9 1.4-1.2.6-.3 1.2-.4 2-.4 1.5 0 2.7.4 3.5 1.4.9 1 1.3 2.2 1.3 3.8 0 1.5-.4 2.7-1.3 3.7a4.5 4.5 0 0 1-5.4 1c-.6-.3-1.1-.6-1.5-1.1v5h-1.7Zm4.9-5a3 3 0 0 0 2.4-1c.6-.6.9-1.5.9-2.6s-.3-2-1-2.7a3 3 0 0 0-2.3-1 3 3 0 0 0-2.4 1 4 4 0 0 0-.9 2.7c0 1 .3 2 .9 2.6a3 3 0 0 0 2.4 1Zm13-7c-.3-.2-.7-.3-1.2-.3-.9 0-1.6.5-2.1 1.3-.6.8-.8 2-.8 3.6v3.8h-1.7v-10h1.7v2c.3-.7.7-1.2 1.3-1.6.6-.4 1.2-.6 1.8-.6l1.2.1-.1 1.7Zm9.6 7.1a5 5 0 0 1-3.7 1.5 5 5 0 0 1-5.1-5.2 5 5 0 0 1 1.4-3.8 5 5 0 0 1 3.7-1.4 5 5 0 0 1 5.1 5.2c0 1.5-.5 2.7-1.4 3.7Zm-6.2-1c.7.6 1.5 1 2.5 1s1.8-.4 2.4-1a4 4 0 0 0 1-2.7c0-1.1-.3-2-1-2.7-.6-.7-1.4-1-2.4-1s-1.8.3-2.5 1a4 4 0 0 0-.9 2.7c0 1 .3 2 1 2.6Zm9.7-11.9h2v2.2h-2v-2.2Zm-1.1 18h-.5v-1.5h.3c1 0 1.4-.6 1.4-1.9v-10.5h1.7v10.7c0 1-.2 1.7-.8 2.3-.5.6-1.2.9-2.1.9Zm14.8-9.3v.8h-8c0 1 .4 1.8 1 2.4a3 3 0 0 0 2.2 1c.8 0 1.4-.2 2-.6a3 3 0 0 0 1-1.4l1.5.4c-.2 1-.8 1.7-1.6 2.2a5 5 0 0 1-2.9.9c-1.5 0-2.7-.5-3.6-1.5-.9-1-1.3-2.3-1.3-3.7a5 5 0 0 1 1.3-3.7c1-1 2-1.5 3.6-1.5a4.6 4.6 0 0 1 4.8 4.7Zm-8-.6h6.2a3 3 0 0 0-1-2 3 3 0 0 0-2-.7 3 3 0 0 0-2 .7c-.6.5-1 1.1-1.1 2Zm14.6 6.3c-1.5 0-2.7-.5-3.6-1.5-1-1-1.4-2.2-1.4-3.7 0-1.6.5-2.9 1.4-3.8.9-1 2.1-1.4 3.6-1.4 1.2 0 2.2.3 3 .9.7.5 1.2 1.3 1.4 2.3l-1.7.4c0-.6-.4-1.1-.9-1.5-.4-.4-1-.6-1.8-.6a3 3 0 0 0-2.3 1 4 4 0 0 0-1 2.7c0 1 .4 2 1 2.6a3 3 0 0 0 2.3 1c.8 0 1.4-.1 1.8-.5.5-.4.9-1 1-1.6l1.6.4c-.2 1-.7 1.8-1.5 2.4-.8.6-1.7.9-2.9.9Zm11.8-.3c-.5.2-1 .3-1.6.3a3 3 0 0 1-2.2-.8c-.5-.6-.8-1.4-.8-2.4v-5.6h-1.9V263h2v-3h1.6v3h2.7v1.5H663v5.6c0 .6.2 1 .4 1.2.3.3.6.4 1.1.4.5 0 1 0 1.3-.2v1.5Zm5.5.3c-1.1 0-2-.3-2.8-.9a4.3 4.3 0 0 1-1.4-2l1.4-.7c.5 1.4 1.4 2.1 2.8 2.1.6 0 1-.1 1.4-.4.4-.3.6-.7.6-1.1 0-.5-.2-.9-.6-1.1-.4-.3-.9-.5-1.4-.6l-1.7-.5c-.6-.1-1-.4-1.5-.9-.4-.4-.6-1-.6-1.7 0-.8.3-1.4 1-1.9.6-.5 1.5-.7 2.6-.7.9 0 1.6.2 2.3.7a3 3 0 0 1 1.4 1.7l-1.4.7a2 2 0 0 0-.9-1.3c-.4-.3-1-.4-1.5-.4s-1 0-1.3.3a1 1 0 0 0-.5 1c0 .3.1.5.4.7.3.3.6.4 1 .5a11.7 11.7 0 0 1 2.9.9c.4.1.8.5 1 1a2.8 2.8 0 0 1-.5 3.7 4 4 0 0 1-2.7.9Zm16.6-8.6c-.4-.2-.8-.3-1.3-.3-.9 0-1.6.5-2.1 1.3-.6.8-.8 2-.8 3.6v3.8H682v-10h1.7v2c.3-.7.7-1.2 1.3-1.6.6-.4 1.2-.6 1.8-.6l1.2.1-.1 1.7Zm5.1-1.8c1.3 0 2.3.3 3 1 .8.7 1.2 1.6 1.2 2.7v6.5h-1.7v-1.7c-.3.6-.8 1-1.4 1.4a4 4 0 0 1-2 .5c-1 0-1.8-.3-2.4-.9-.7-.5-1-1.2-1-2.1 0-2 1.6-3 4.8-3.3l2-.3v-.2a2 2 0 0 0-.7-1.6c-.4-.4-1-.6-1.8-.6-.7 0-1.2.2-1.7.6-.4.3-.7.9-.8 1.6l-1.5-.3c.1-1 .5-1.8 1.3-2.4.8-.6 1.7-1 2.7-1Zm-.6 9a3 3 0 0 0 2.3-1c.5-.5.8-1.3.8-2.4v-.4l-2 .2c-2 .2-3 .9-3 2 0 .4.1.8.5 1.1.3.3.8.5 1.4.5Zm7.5 1.2v-10h1.7v1.8c.4-.6.9-1.1 1.5-1.5.6-.4 1.2-.5 2-.5 1 0 2 .3 2.6 1 .7.6 1 1.5 1 2.5v6.7H707v-6.4a2.2 2.2 0 0 0-2.3-2.3c-1 0-1.7.4-2.2 1.2-.6.7-.9 1.8-.9 3v4.5H700Zm19-10h1.7v9.5a4 4 0 0 1-1.3 3.1 5 5 0 0 1-3.4 1.2c-1.2 0-2.2-.3-3-.9a3.2 3.2 0 0 1-1.5-2.2l1.7-.2c0 .5.3 1 .8 1.3.6.4 1.2.6 2 .6.9 0 1.6-.3 2.2-.8.5-.5.8-1.1.8-1.9v-1.4a2 2 0 0 1-1.2 1c-.6.3-1.3.4-2 .4-1.5 0-2.7-.4-3.6-1.3-.8-1-1.2-2.2-1.2-3.6 0-1.5.4-2.7 1.2-3.6.9-1 2-1.4 3.5-1.4a4.3 4.3 0 0 1 3.3 1.5v-1.4Zm-5.4 7.3a3 3 0 0 0 2.3 1 3 3 0 0 0 2.4-1c.5-.6.8-1.5.8-2.5s-.3-2-.8-2.6a3 3 0 0 0-2.4-1 3 3 0 0 0-2.3 1c-.6.7-.9 1.5-.9 2.6 0 1 .3 1.9.9 2.5Zm19-2.8v.8h-8a3 3 0 0 0 1 2.4 3 3 0 0 0 2.2 1 3 3 0 0 0 1.9-.6c.5-.3.8-.8 1-1.4l1.6.4c-.3 1-.8 1.7-1.6 2.2a5 5 0 0 1-3 .9c-1.4 0-2.6-.5-3.5-1.5-.9-1-1.3-2.3-1.3-3.7a5 5 0 0 1 1.3-3.7c.9-1 2-1.5 3.5-1.5a4.6 4.6 0 0 1 4.9 4.7Zm-8-.6h6.2a3 3 0 0 0-1-2 3 3 0 0 0-2-.7 3 3 0 0 0-2 .7c-.6.5-1 1.1-1.1 2Z"/>
  <path fill="#6B717A" d="m444.9 273-1.6.2a3 3 0 0 1-2.2-.8c-.5-.6-.8-1.4-.8-2.4v-5.6h-1.8V263h1.8v-3h1.7v3h2.7v1.5H442v5.6c0 .6.2 1 .4 1.2.3.3.7.4 1.1.4.5 0 1 0 1.3-.2l.1 1.5Zm10-1.3a5 5 0 0 1-3.7 1.5 5 5 0 0 1-5.1-5.2 5 5 0 0 1 1.4-3.8 5 5 0 0 1 3.7-1.4 5 5 0 0 1 5.1 5.2c0 1.5-.5 2.7-1.4 3.7Zm-6.2-1c.7.6 1.5 1 2.5 1s1.8-.4 2.4-1c.6-.8 1-1.7 1-2.7a4 4 0 0 0-1-2.7c-.6-.7-1.4-1-2.4-1s-1.8.3-2.5 1a4 4 0 0 0-1 2.7c0 1 .4 2 1 2.6Z"/>
</svg>
