<svg xmlns="http://www.w3.org/2000/svg" width="800" height="500" fill="none" viewBox="0 0 800 500">
  <path fill="#fff" d="M0 0h800v500H0z"/>
  <path fill="url(#a)" d="M0 196h186v111H0z"/>
  <path fill="url(#b)" d="M139 196h502v111H139z"/>
  <path fill="url(#c)" d="M578 196h222v111H578z"/>
  <path fill="url(#d)" d="M101 196h357v111H101z"/>
  <path fill="#F7F7F7" d="M23 240h57.3l7.7 10H30.7L23 240Z"/>
  <path fill="url(#e)" d="M23 260h57.3l7.7-10H30.7L23 260Z"/>
  <circle cx="113" cy="250" r="15" fill="#fff"/>
  <circle cx="113" cy="250" r="11.5" fill="#fff" stroke="#BEBFC2" stroke-width="5"/>
  <path fill="#F7F7F7" d="M138 240h57.3l7.7 10h-57.3l-7.7-10Z"/>
  <path fill="url(#f)" d="M138 260h57.3l7.7-10h-57.3l-7.7 10Z"/>
  <circle cx="228" cy="250" r="15" fill="#fff"/>
  <circle cx="228" cy="250" r="11.5" fill="#fff" stroke="#BEBFC2" stroke-width="5"/>
  <path fill="#F7F7F7" d="M253 240h57.3l7.7 10h-57.3l-7.7-10Z"/>
  <path fill="url(#g)" d="M253 260h57.3l7.7-10h-57.3l-7.7 10Z"/>
  <circle cx="343" cy="250" r="15" fill="#fff"/>
  <circle cx="343" cy="250" r="11.5" fill="#fff" stroke="#BEBFC2" stroke-width="5"/>
  <path fill="#F7F7F7" d="M368 240h57.3l7.7 10h-57.3l-7.7-10Z"/>
  <path fill="url(#h)" d="M368 260h57.3l7.7-10h-57.3l-7.7 10Z"/>
  <circle cx="458" cy="250" r="15" fill="#fff"/>
  <circle cx="458" cy="250" r="11.5" fill="#fff" stroke="#BEBFC2" stroke-width="5"/>
  <path fill="#F7F7F7" d="M483 240h57.3l7.7 10h-57.3l-7.7-10Z"/>
  <path fill="url(#i)" d="M483 260h57.3l7.7-10h-57.3l-7.7 10Z"/>
  <circle cx="573" cy="250" r="15" fill="#fff"/>
  <circle cx="573" cy="250" r="11.5" fill="#fff" stroke="#BEBFC2" stroke-width="5"/>
  <path fill="#F7F7F7" d="M598 240h57.3l7.7 10h-57.3l-7.7-10Z"/>
  <path fill="url(#j)" d="M598 260h57.3l7.7-10h-57.3l-7.7 10Z"/>
  <circle cx="688" cy="250" r="15" fill="#fff"/>
  <circle cx="688" cy="250" r="11.5" fill="#fff" stroke="#BEBFC2" stroke-width="5"/>
  <path fill="#F7F7F7" d="M713 240h57.3l7.7 10h-57.3l-7.7-10Z"/>
  <path fill="url(#k)" d="M713 260h57.3l7.7-10h-57.3l-7.7 10Z"/>
  <path fill="#377D78" d="M82.8 347.1c-1.6 0-3-.5-4-1.5a5.4 5.4 0 0 1-1.7-4.2c0-1.8.6-3.2 1.7-4.2 1-1 2.4-1.5 4-1.5 1.4 0 2.5.3 3.4 1a4 4 0 0 1 1.6 2.8l-2.5.5c0-.6-.4-1.2-.9-1.6-.4-.4-1-.6-1.6-.6-1 0-1.7.3-2.2 1-.6.6-1 1.5-1 2.6s.4 2 1 2.6c.5.6 1.3 1 2.2 1 .6 0 1.2-.2 1.6-.6.5-.3.7-.8.9-1.4l2.5.6c-.2 1-.8 2-1.7 2.6-.9.6-2 1-3.3 1Zm6.5-.1v-11.3h2.4v4.3c.5-.8 1.3-1.2 2.4-1.2 1 0 1.7.3 2.2.8.6.5.8 1.3.8 2.2v5.2h-2.3v-4.6a1.4 1.4 0 0 0-1.4-1.5c-1.1 0-1.7.9-1.7 2.6v3.5h-2.4Zm12.8-8.2a4 4 0 0 1 2.7.9c.7.6 1 1.4 1 2.5v4.8h-2.3v-1a2 2 0 0 1-1 .8 3 3 0 0 1-1.2.3c-.8 0-1.5-.2-2-.7-.5-.4-.7-1-.7-1.7 0-1.5 1.1-2.4 3.5-2.7l1.4-.1c0-.5-.1-.8-.4-1-.2-.2-.5-.3-1-.3-.4 0-.7 0-1 .3-.2.2-.3.5-.4.9l-2-.4c0-.8.5-1.4 1.1-1.9.7-.5 1.4-.7 2.3-.7Zm-.3 6.6c.5 0 1-.1 1.2-.5.4-.3.5-.8.5-1.2v-.1l-1.5.1c-.4 0-.7.2-.9.3l-.3.6c0 .3.1.5.3.6.2.2.4.2.7.2Zm5.8 1.6v-8h2.4v1c.5-.8 1.3-1.2 2.4-1.2a3 3 0 0 1 2.2.8c.5.5.8 1.3.8 2.1v5.3h-2.3v-4.6c0-.5-.2-.8-.4-1.1-.3-.3-.6-.4-1-.4-1.2 0-1.7.8-1.7 2.6v3.5h-2.4Zm9.6 0v-8h2.4v1c.5-.8 1.3-1.2 2.4-1.2a3 3 0 0 1 2.2.8c.5.5.8 1.3.8 2.1v5.3h-2.3v-4.6c0-.5-.2-.8-.4-1.1-.3-.3-.6-.4-1-.4-1.2 0-1.7.8-1.7 2.6v3.5h-2.4Zm17.4-4.2v.8h-5.9c.3 1 .9 1.6 2 1.6.8 0 1.3-.4 1.5-1l2.2.5c-.2.8-.7 1.4-1.4 1.8-.7.4-1.5.6-2.4.6-1.3 0-2.4-.4-3.1-1.2-.7-.9-1-1.8-1-3 0-.6 0-1.3.3-1.9.3-.6.7-1.1 1.3-1.6a4 4 0 0 1 2.3-.6 4 4 0 0 1 1.9.4c.5.2 1 .5 1.3 1a4.3 4.3 0 0 1 1 2.6Zm-5.8-.8h3.2c0-.5-.2-.8-.4-1-.3-.3-.7-.4-1.2-.4-.9 0-1.4.4-1.6 1.4Zm7.2 5v-11.3h2.3V347H136Zm10 0v-8.5c-.7.6-1.6 1-2.5 1.1v-2.2c1-.3 2-.8 3-1.6h1.9V347H146Z"/>
  <path fill="#414042" d="M58.5 366.1c-1.5 0-2.8-.5-3.9-1.5-1-1-1.5-2.4-1.5-4.2 0-1.8.5-3.2 1.5-4.2 1.1-1 2.4-1.5 3.9-1.5a5 5 0 0 1 3 1c1 .6 1.5 1.4 1.7 2.5l-1.4.3c-.2-.8-.6-1.4-1.2-1.9-.5-.4-1.2-.6-2.1-.6-1.2 0-2.1.4-2.9 1.1-.7.8-1 1.9-1 3.3s.3 2.5 1 3.3c.8.7 1.7 1.1 2.9 1.1.9 0 1.6-.2 2.1-.6.6-.5 1-1 1.2-1.8l1.4.3c-.3 1-.8 1.9-1.7 2.5a5 5 0 0 1-3 1Zm13.4-8.2v8.1h-1.4v-1.5c-.2.5-.6.9-1.1 1.2a3 3 0 0 1-1.6.4c-.9 0-1.6-.2-2.1-.8-.5-.5-.8-1.2-.8-2v-5.4h1.4v5.1c0 .6.1 1 .5 1.4.3.3.7.5 1.3.5a2 2 0 0 0 1.8-1c.4-.5.6-1.4.6-2.4v-3.6H72Zm7 1.4c-.4-.2-.7-.2-1.1-.2-.7 0-1.2.3-1.7 1-.4.6-.6 1.6-.6 2.8v3.1H74v-8h1.4v1.6c.2-.5.6-1 1-1.3a3 3 0 0 1 1.5-.5c.3 0 .7 0 1 .2l-.2 1.3Zm6 0c-.2-.2-.6-.2-1-.2-.7 0-1.2.3-1.7 1-.4.6-.6 1.6-.6 2.8v3.1h-1.4v-8h1.4v1.6c.2-.5.6-1 1-1.3a3 3 0 0 1 1.5-.5c.4 0 .7 0 1 .2l-.1 1.3Zm8.4 2.3v.6h-6.4c0 .8.3 1.5.8 2 .4.5 1 .7 1.8.7.6 0 1.1-.1 1.5-.4.4-.3.7-.7.8-1.2l1.3.3a3 3 0 0 1-1.3 1.9 4 4 0 0 1-2.3.6c-1.2 0-2.2-.4-2.9-1.2-.7-.8-1-1.8-1-3 0-1.1.3-2.1 1-2.9.7-.8 1.7-1.2 2.8-1.2a3.7 3.7 0 0 1 3.9 3.8Zm-6.3-.5h4.9c-.1-.7-.4-1.2-.8-1.6-.4-.4-1-.6-1.7-.6-.6 0-1.1.2-1.6.6a3 3 0 0 0-.8 1.6Zm8 4.9v-8h1.4v1.5c.3-.5.7-1 1.2-1.2a3 3 0 0 1 1.6-.5c.8 0 1.5.3 2 .8.6.5.8 1.2.8 2v5.4h-1.3v-5c0-.6-.2-1-.5-1.4-.3-.4-.8-.6-1.3-.6-.8 0-1.4.3-1.8 1-.5.6-.7 1.4-.7 2.5v3.5H95Zm13.3 0-1.3.1c-.7 0-1.3-.2-1.8-.6-.4-.4-.6-1-.6-2v-4.4h-1.5V358h1.5v-2.4h1.4v2.4h2.1v1.2H106v4.5c0 .4 0 .8.3 1 .2.2.5.3.8.3.4 0 .8 0 1-.2l.2 1.2Zm5.5 0v-11.2h4.2c1.1 0 2 .3 2.6.9a3 3 0 0 1 1 2.3 3 3 0 0 1-1 2.4c-.6.6-1.5.9-2.6.9h-2.8v4.7h-1.4Zm1.4-6h2.8c.6 0 1.1-.2 1.5-.5.4-.4.6-.8.6-1.5 0-.6-.2-1-.6-1.4-.4-.3-.9-.5-1.5-.5h-2.8v3.9Zm10.5-2.2c1 0 1.8.3 2.4.8a3 3 0 0 1 1 2.2v5.2h-1.4v-1.4a2 2 0 0 1-1.1 1.1 3 3 0 0 1-1.6.4 3 3 0 0 1-2-.6c-.5-.5-.7-1-.7-1.8 0-1.5 1.3-2.4 3.8-2.6l1.6-.2v-.1c0-.6-.2-1-.6-1.4a2 2 0 0 0-1.4-.5 2 2 0 0 0-1.4.5c-.3.3-.5.7-.6 1.3l-1.2-.3a3 3 0 0 1 1-1.9c.6-.5 1.4-.7 2.2-.7Zm-.5 7.2c.8 0 1.4-.2 1.8-.7.5-.5.7-1.1.7-2v-.3l-1.6.1c-1.6.2-2.5.8-2.5 1.6 0 .4.2.7.5 1 .3.2.7.3 1.1.3Zm10.1-5.8a2 2 0 0 0-.5-.1c-.7 0-1.2.3-1.6 1-.4.6-.6 1.6-.6 2.8v3.1h-1.4v-8h1.4v1.6c.2-.5.5-1 1-1.3.4-.3.9-.5 1.4-.5h.4v1.4Zm6.2 6.7c-.3.2-.7.2-1.2.2-.7 0-1.3-.2-1.8-.6-.4-.4-.6-1-.6-2v-4.4h-1.5V358h1.5v-2.4h1.4v2.4h2.1v1.2h-2.1v4.5c0 .4 0 .8.3 1 .2.2.5.3.8.3.4 0 .8 0 1-.2l.1 1.2Zm1.6.1v-8h1.4v1.5c.3-.5.7-1 1.1-1.2a3 3 0 0 1 1.7-.5c.8 0 1.5.3 2 .8.6.5.8 1.2.8 2v5.4h-1.3v-5c0-.6-.2-1-.5-1.4-.3-.4-.8-.6-1.3-.6-.8 0-1.4.3-1.8 1-.5.6-.7 1.4-.7 2.5v3.5H143Zm16.6-4.4v.6h-6.4c0 .8.2 1.5.7 2 .5.5 1.1.7 1.8.7.6 0 1.2-.1 1.6-.4.4-.3.6-.7.7-1.2l1.3.3a3 3 0 0 1-1.2 1.9 4 4 0 0 1-2.4.6c-1.2 0-2.1-.4-2.8-1.2a4 4 0 0 1-1.1-3c0-1.1.3-2.1 1-2.9.8-.8 1.7-1.2 2.9-1.2a3.7 3.7 0 0 1 3.8 3.8Zm-6.4-.5h5c-.2-.7-.4-1.2-.8-1.6-.5-.4-1-.6-1.7-.6-.6 0-1.2.2-1.6.6-.4.4-.7 1-.9 1.6Zm12.8-1.8c-.3-.2-.6-.2-1-.2-.7 0-1.3.3-1.7 1-.4.6-.6 1.6-.6 2.8v3.1h-1.4v-8h1.4v1.6c.2-.5.5-1 1-1.3a3 3 0 0 1 1.5-.5c.3 0 .6 0 .9.2v1.3Zm4 6.8c-1 0-1.7-.2-2.3-.7-.6-.4-1-1-1.1-1.6l1.1-.5c.4 1.1 1.1 1.7 2.2 1.7.5 0 .9-.1 1.2-.4.3-.2.4-.5.4-.9a1 1 0 0 0-.4-.8l-1.2-.5-1.4-.4c-.4-.1-.8-.3-1.1-.7a2 2 0 0 1-.5-1.3c0-.7.3-1.2.8-1.6.5-.4 1.2-.6 2-.6s1.4.2 2 .6c.5.3.9.8 1 1.4l-1.1.5c-.1-.4-.3-.7-.7-1a2 2 0 0 0-1.2-.4 2 2 0 0 0-1 .3c-.4.2-.5.4-.5.7 0 .3.1.5.4.7l.8.4a9.3 9.3 0 0 1 2.3.6l.8.8c.3.4.4.8.4 1.3 0 .7-.3 1.3-.8 1.8-.6.4-1.3.6-2.2.6Z"/>
  <path stroke="#6B717A" stroke-dasharray="1 1" d="M113 251v77"/>
  <circle cx="113" cy="250" r="3" fill="#6B717A"/>
  <path fill="#377D78" d="M196.3 144.1c-1.6 0-3-.5-4-1.5-1.1-1-1.6-2.4-1.6-4.2 0-1.8.5-3.2 1.6-4.2 1-1 2.4-1.5 4-1.5 1.4 0 2.5.3 3.4 1a4 4 0 0 1 1.7 2.8l-2.6.5c0-.6-.4-1.2-.9-1.6-.4-.4-1-.6-1.6-.6-1 0-1.7.3-2.2 1-.6.6-.9 1.5-.9 2.6s.3 2 .9 2.6c.5.6 1.3 1 2.2 1 .6 0 1.2-.2 1.6-.6.5-.3.8-.8.9-1.4l2.5.6c-.2 1-.8 2-1.7 2.6-.9.6-2 1-3.3 1Zm6.5-.1v-11.3h2.4v4.3c.5-.8 1.4-1.2 2.5-1.2.9 0 1.6.3 2.1.8.6.5.9 1.3.9 2.2v5.2h-2.4v-4.6a1.4 1.4 0 0 0-1.4-1.5c-1.1 0-1.7.9-1.7 2.6v3.5h-2.3Zm12.8-8.2a4 4 0 0 1 2.7.9c.7.6 1 1.4 1 2.5v4.8H217v-1a2 2 0 0 1-1 .8 3 3 0 0 1-1.2.3c-.8 0-1.5-.2-2-.7-.5-.4-.7-1-.7-1.7 0-1.5 1.2-2.4 3.5-2.7l1.4-.1c0-.5 0-.8-.3-1-.3-.2-.6-.3-1-.3-.5 0-.8 0-1 .3-.3.2-.4.5-.5.9l-2-.4c.1-.8.5-1.4 1.1-1.9.7-.5 1.5-.7 2.3-.7Zm-.3 6.6c.6 0 1-.1 1.3-.5.3-.3.4-.8.4-1.2v-.1l-1.5.1c-.4 0-.7.2-.9.3l-.3.6c0 .3.1.5.3.6.2.2.4.2.7.2Zm5.8 1.6v-8h2.4v1c.5-.8 1.3-1.2 2.4-1.2a3 3 0 0 1 2.2.8c.5.5.8 1.3.8 2.1v5.3h-2.3v-4.6c0-.5-.2-.8-.4-1.1-.3-.3-.6-.4-1-.4-1.2 0-1.7.8-1.7 2.6v3.5H221Zm9.6 0v-8h2.4v1c.5-.8 1.3-1.2 2.4-1.2a3 3 0 0 1 2.2.8c.5.5.8 1.3.8 2.1v5.3h-2.3v-4.6c0-.5-.2-.8-.4-1.1-.3-.3-.6-.4-1-.4-1.2 0-1.7.8-1.7 2.6v3.5h-2.4Zm17.4-4.2v.8h-5.9c.3 1 .9 1.6 2 1.6.8 0 1.3-.4 1.5-1l2.2.5c-.2.8-.7 1.4-1.4 1.8-.7.4-1.5.6-2.4.6-1.3 0-2.4-.4-3-1.2a4.2 4.2 0 0 1-1.2-3c0-.6.2-1.3.4-1.9.3-.6.7-1.1 1.3-1.6a4 4 0 0 1 2.3-.6 4 4 0 0 1 1.9.4c.5.2 1 .5 1.3 1a4.3 4.3 0 0 1 1 2.6Zm-5.8-.8h3.3c0-.5-.3-.8-.5-1-.3-.3-.7-.4-1.2-.4-.9 0-1.4.4-1.6 1.4Zm7.2 5v-11.3h2.3V144h-2.3Zm7.5 0v-2l3.9-3.2c1.1-1 1.7-1.8 1.7-2.5 0-.4-.2-.8-.5-1-.2-.3-.6-.5-1-.5-.6 0-1 .2-1.3.7-.3.4-.4 1-.4 1.6l-2.4-.1c-.1-1.2.2-2.2 1-3a4 4 0 0 1 3-1.3c1.2 0 2.2.3 3 1a3.5 3.5 0 0 1 .4 4.6c-.4.7-1 1.4-2 2.1l-1.8 1.4h4.5v2.2h-8Z"/>
  <path fill="#414042" d="M192 163v-9.9h-3.6v-1.3h8.6v1.3h-3.5v9.9H192Zm12.2-4.4v.6h-6.4c0 .8.3 1.5.8 2s1 .7 1.8.7c.6 0 1.1-.1 1.5-.4.4-.3.7-.7.8-1.2l1.3.3a3 3 0 0 1-1.3 1.9 4 4 0 0 1-2.3.6c-1.2 0-2.1-.4-2.9-1.2-.7-.8-1-1.8-1-3 0-1.1.3-2.1 1-2.9.7-.8 1.7-1.2 2.9-1.2a3.7 3.7 0 0 1 3.8 3.8Zm-6.3-.5h4.9a2 2 0 0 0-.8-1.6c-.4-.4-1-.6-1.6-.6-.7 0-1.2.2-1.6.6-.5.4-.8 1-.9 1.6Zm8 4.9v-8h1.4v1.5c.3-.5.7-1 1.2-1.2a3 3 0 0 1 1.6-.5c.8 0 1.5.3 2 .8.6.5.9 1.2.9 2v5.4h-1.4v-5c0-.6-.1-1-.5-1.4-.3-.4-.8-.6-1.3-.6-.8 0-1.4.3-1.8 1-.4.6-.7 1.4-.7 2.5v3.5H206Zm12.7.1c-1.2 0-2.2-.4-2.8-1.1-.7-.8-1-1.8-1-3 0-1.3.3-2.3 1-3 .6-.8 1.6-1.2 2.8-1.2.5 0 1 .1 1.5.4.5.2.9.5 1.1.9v-4.4h1.4V163h-1.4v-1.2c-.1.4-.5.7-1 1-.5.2-1 .3-1.6.3Zm-1.8-2c.5.5 1.2.8 2 .8.7 0 1.4-.3 1.8-.8.5-.5.8-1.2.8-2.1a3 3 0 0 0-.8-2.2c-.4-.5-1-.8-1.9-.8-.7 0-1.4.3-1.9.8a3 3 0 0 0-.7 2.2c0 .9.3 1.6.7 2.1Zm15.3-2.5v.6h-6.4c0 .8.3 1.5.8 2 .4.5 1 .7 1.8.7.6 0 1.1-.1 1.5-.4.4-.3.7-.7.8-1.2l1.3.3a3 3 0 0 1-1.3 1.9 4 4 0 0 1-2.3.6c-1.2 0-2.2-.4-2.9-1.2-.7-.8-1-1.8-1-3 0-1.1.3-2.1 1-2.9.7-.8 1.7-1.2 2.8-1.2a3.7 3.7 0 0 1 3.9 3.8Zm-6.3-.5h4.9c-.1-.7-.4-1.2-.8-1.6-.4-.4-1-.6-1.7-.6-.6 0-1.1.2-1.6.6a3 3 0 0 0-.8 1.6Zm12.8-1.8c-.3-.2-.7-.2-1-.2-.8 0-1.3.3-1.8 1-.4.6-.6 1.6-.6 2.8v3.1h-1.4v-8h1.4v1.6c.2-.5.6-1 1-1.3a3 3 0 0 1 1.5-.5c.4 0 .7 0 1 .2l-.1 1.3Zm5.3 6.7v-11.2h1.5v9.9h5.5v1.3h-7Zm8.2-11.3h1.6v1.7h-1.6v-1.7Zm.1 11.3v-8h1.4v8h-1.4Zm6.3.1c-.9 0-1.6-.2-2.2-.7-.6-.4-1-1-1.2-1.6l1.2-.5c.4 1.1 1.1 1.7 2.2 1.7.5 0 .9-.1 1.2-.4.3-.2.4-.5.4-.9a1 1 0 0 0-.4-.8l-1.2-.5-1.4-.4c-.4-.1-.8-.3-1.1-.7a2 2 0 0 1-.5-1.3c0-.7.3-1.2.8-1.6.5-.4 1.2-.6 2-.6.7 0 1.4.2 2 .6.5.3.8.8 1 1.4l-1.1.5c-.1-.4-.4-.7-.7-1a2 2 0 0 0-1.2-.4 2 2 0 0 0-1 .3c-.4.2-.5.4-.5.7 0 .3.1.5.3.7l1 .4a9.3 9.3 0 0 1 2.2.6l.8.8c.2.4.4.8.4 1.3 0 .7-.3 1.3-.9 1.8-.5.4-1.2.6-2.1.6Zm8.9-.2c-.4.2-.8.2-1.3.2-.7 0-1.3-.2-1.7-.6-.5-.4-.7-1-.7-2v-4.4h-1.5V155h1.5v-2.4h1.4v2.4h2.1v1.2h-2.1v4.5c0 .4 0 .8.3 1 .2.2.5.3.9.3s.7 0 1-.2v1.2Z"/>
  <path stroke="#6B717A" stroke-dasharray="1 1" d="M228 249v-77"/>
  <circle cx="228" cy="250" r="3" fill="#6B717A" transform="rotate(-180 228 250)"/>
  <path fill="#377D78" d="M425.8 144.1c-1.6 0-3-.5-4-1.5s-1.6-2.4-1.6-4.2c0-1.8.5-3.2 1.6-4.2 1-1 2.4-1.5 4-1.5 1.4 0 2.6.3 3.5 1a4 4 0 0 1 1.6 2.8l-2.5.5c-.2-.6-.5-1.2-1-1.6-.4-.4-1-.6-1.6-.6-.9 0-1.6.3-2.2 1-.6.6-.9 1.5-.9 2.6s.3 2 .9 2.6a3 3 0 0 0 2.2 1c.6 0 1.2-.2 1.6-.6.5-.3.8-.8.9-1.4l2.5.6c-.2 1-.8 2-1.7 2.6-.9.6-2 1-3.3 1Zm6.6-.1v-11.3h2.3v4.3a3 3 0 0 1 2.5-1.2c.9 0 1.6.3 2.2.8.5.5.8 1.3.8 2.2v5.2h-2.4v-4.6c0-.5 0-.8-.3-1.1-.3-.3-.6-.4-1-.4-1.2 0-1.8.9-1.8 2.6v3.5h-2.3Zm12.8-8.2c1 0 2 .3 2.6.9.7.6 1 1.4 1 2.5v4.8h-2.2v-1l-1 .8a3 3 0 0 1-1.3.3c-.8 0-1.4-.2-2-.7-.4-.4-.7-1-.7-1.7 0-1.5 1.2-2.4 3.5-2.7l1.5-.1c0-.5-.2-.8-.4-1-.3-.2-.6-.3-1-.3s-.8 0-1 .3c-.3.2-.4.5-.5.9l-2-.4c.1-.8.5-1.4 1.2-1.9.6-.5 1.4-.7 2.3-.7Zm-.3 6.6c.5 0 .9-.1 1.2-.5.3-.3.4-.8.5-1.2v-.1l-1.5.1c-.4 0-.7.2-1 .3l-.2.6c0 .3 0 .5.2.6.2.2.4.2.8.2Zm5.8 1.6v-8h2.3v1a3 3 0 0 1 2.5-1.2 3 3 0 0 1 2.1.8c.6.5.8 1.3.8 2.1v5.3h-2.3v-4.6c0-.5-.1-.8-.4-1.1-.2-.3-.6-.4-1-.4-1.1 0-1.7.8-1.7 2.6v3.5h-2.3Zm9.5 0v-8h2.4v1c.5-.8 1.4-1.2 2.5-1.2a3 3 0 0 1 2.1.8c.6.5.8 1.3.8 2.1v5.3h-2.3v-4.6c0-.5-.1-.8-.4-1.1-.2-.3-.6-.4-1-.4-1.1 0-1.7.8-1.7 2.6v3.5h-2.4Zm17.4-4.2v.8h-5.8c.2 1 .8 1.6 1.8 1.6s1.4-.4 1.6-1l2.2.5a3 3 0 0 1-1.3 1.8c-.7.4-1.6.6-2.5.6-1.3 0-2.3-.4-3-1.2a4.2 4.2 0 0 1-1.2-3c0-.6.2-1.3.4-1.9.3-.6.8-1.1 1.4-1.6a4 4 0 0 1 2.2-.6c.7 0 1.4.1 1.9.4.6.2 1 .5 1.3 1a4.3 4.3 0 0 1 1 2.6Zm-5.8-.8h3.3c0-.5-.2-.8-.5-1-.3-.3-.7-.4-1.2-.4-.8 0-1.4.4-1.6 1.4Zm7.2 5v-11.3h2.4V144H479Zm13 0v-2.1h-5.5v-2.2l5.3-6.9h2.7v6.9h1.4v2.2h-1.4v2.1H492Zm-3-4.3h3v-3.8l-3 3.8Z"/>
  <path fill="#414042" d="M391.9 163v-9.9h-3.6v-1.3h8.6v1.3h-3.6v9.9H392Zm7.8-8.2c1 0 1.7.3 2.4.8.6.6.9 1.3.9 2.2v5.2h-1.4v-1.4c-.2.5-.6.9-1 1.1a3 3 0 0 1-1.7.4 3 3 0 0 1-2-.6c-.4-.5-.7-1-.7-1.8 0-1.5 1.3-2.4 3.9-2.6l1.5-.2v-.1c0-.6-.2-1-.5-1.4a2 2 0 0 0-1.4-.5 2 2 0 0 0-1.4.5c-.4.3-.6.7-.6 1.3l-1.3-.3a3 3 0 0 1 1-1.9c.7-.5 1.4-.7 2.3-.7Zm-.6 7.2c.8 0 1.4-.2 1.9-.7a3 3 0 0 0 .6-2v-.3l-1.5.1c-1.7.2-2.5.8-2.5 1.6 0 .4.1.7.4 1 .3.2.7.3 1.1.3Zm10.8-5.7c-.3-.2-.7-.2-1-.2-.7 0-1.3.3-1.7 1-.5.6-.7 1.6-.7 2.8v3.1h-1.3v-8h1.3v1.6c.3-.5.6-1 1-1.3.6-.3 1-.5 1.5-.5.4 0 .7 0 1 .2l-.1 1.3Zm7-1.4h1.3v7.7c0 1-.3 1.9-1 2.5a4.3 4.3 0 0 1-5.1.3c-.7-.5-1-1-1.2-1.8l1.3-.2c0 .4.3.8.7 1 .4.3 1 .5 1.6.5.7 0 1.3-.2 1.7-.6.5-.4.7-1 .7-1.5v-1.2a2 2 0 0 1-1 .9c-.5.2-1 .3-1.6.3-1.2 0-2.1-.4-2.8-1.1-.7-.8-1-1.7-1-2.9s.3-2.1 1-2.9c.6-.7 1.6-1 2.8-1a3.4 3.4 0 0 1 2.6 1.1v-1Zm-4.3 6c.4.4 1 .7 1.8.7s1.4-.3 1.9-.8.7-1.1.7-2c0-.8-.2-1.5-.7-2-.5-.5-1-.8-1.9-.8-.8 0-1.4.3-1.9.8-.4.5-.6 1.2-.6 2 0 .9.2 1.5.7 2Zm15.1-2.3v.6h-6.4c0 .8.3 1.5.8 2s1 .7 1.8.7c.6 0 1.1-.1 1.5-.4.4-.3.7-.7.8-1.2l1.3.3a3 3 0 0 1-1.3 1.9 4 4 0 0 1-2.3.6c-1.2 0-2.1-.4-2.9-1.2-.7-.8-1-1.8-1-3 0-1.1.3-2.1 1-2.9.7-.8 1.7-1.2 2.9-1.2a3.7 3.7 0 0 1 3.8 3.8Zm-6.3-.5h4.9a2 2 0 0 0-.8-1.6c-.4-.4-1-.6-1.6-.6-.7 0-1.2.2-1.6.6-.5.4-.8 1-.9 1.6Zm12.3 4.8c-.4.2-.8.2-1.3.2-.7 0-1.3-.2-1.8-.6-.4-.4-.6-1-.6-2v-4.4h-1.5V155h1.5v-2.4h1.4v2.4h2.1v1.2h-2.1v4.5c0 .4 0 .8.3 1 .2.2.5.3.8.3.4 0 .8 0 1-.2l.1 1.2Zm5.5.1v-11.2h4.2c1.1 0 2 .3 2.6.9a3 3 0 0 1 1 2.3 3 3 0 0 1-1 2.4c-.6.6-1.5.9-2.6.9h-2.8v4.7h-1.4Zm1.4-6h2.8c.6 0 1.1-.2 1.5-.5.4-.4.6-.8.6-1.5 0-.6-.2-1-.6-1.4-.4-.3-.9-.5-1.5-.5h-2.8v3.9Zm10.5-2.2c1 0 1.8.3 2.4.8a3 3 0 0 1 1 2.2v5.2H453v-1.4a2 2 0 0 1-1.1 1.1 3 3 0 0 1-1.6.4 3 3 0 0 1-2-.6c-.5-.5-.7-1-.7-1.8 0-1.5 1.3-2.4 3.8-2.6l1.6-.2v-.1c0-.6-.2-1-.6-1.4a2 2 0 0 0-1.4-.5 2 2 0 0 0-1.4.5c-.3.3-.5.7-.6 1.3l-1.2-.3a3 3 0 0 1 1-1.9c.6-.5 1.4-.7 2.2-.7Zm-.5 7.2c.8 0 1.4-.2 1.8-.7.5-.5.7-1.1.7-2v-.3l-1.6.1c-1.6.2-2.5.8-2.5 1.6 0 .4.2.7.5 1 .3.2.6.3 1.1.3Zm10.1-5.8a2 2 0 0 0-.5-.1c-.7 0-1.2.3-1.6 1-.4.6-.6 1.6-.6 2.8v3.1h-1.4v-8h1.4v1.6c.2-.5.5-1 1-1.3.4-.3.9-.5 1.4-.5h.4v1.4Zm6.2 6.7c-.3.2-.7.2-1.2.2-.7 0-1.3-.2-1.8-.6-.4-.4-.6-1-.6-2v-4.4h-1.5V155h1.5v-2.4h1.4v2.4h2.1v1.2h-2.1v4.5c0 .4 0 .8.3 1 .2.2.5.3.8.3.4 0 .8 0 1-.2l.1 1.2Zm1.6.1v-8h1.4v1.5c.3-.5.7-1 1.1-1.2a3 3 0 0 1 1.7-.5c.8 0 1.5.3 2 .8.6.5.8 1.2.8 2v5.4h-1.3v-5c0-.6-.2-1-.5-1.4-.3-.4-.8-.6-1.3-.6-.8 0-1.4.3-1.8 1-.5.6-.7 1.4-.7 2.5v3.5h-1.4Zm16.5-4.4v.6h-6.4c0 .8.3 1.5.8 2s1.1.7 1.8.7c.6 0 1.2-.1 1.6-.4.4-.3.6-.7.7-1.2l1.3.3a3 3 0 0 1-1.2 1.9 4 4 0 0 1-2.4.6c-1.2 0-2.1-.4-2.8-1.2a4 4 0 0 1-1.1-3c0-1.1.3-2.1 1-2.9.8-.8 1.7-1.2 2.9-1.2a3.7 3.7 0 0 1 3.8 3.8Zm-6.3-.5h5c-.2-.7-.4-1.2-.8-1.6-.5-.4-1-.6-1.7-.6-.6 0-1.2.2-1.6.6-.4.4-.7 1-.9 1.6Zm12.8-1.8c-.3-.2-.6-.2-1-.2-.7 0-1.3.3-1.7 1-.4.6-.6 1.6-.6 2.8v3.1h-1.4v-8h1.4v1.6c.2-.5.5-1 1-1.3a3 3 0 0 1 1.5-.5c.3 0 .6 0 .9.2v1.3Zm4 6.8c-1 0-1.7-.2-2.3-.7-.6-.4-1-1-1.1-1.6l1.1-.5c.4 1.1 1.1 1.7 2.2 1.7.5 0 .9-.1 1.2-.4.3-.2.4-.5.4-.9a1 1 0 0 0-.4-.8l-1.2-.5a37 37 0 0 1-1.4-.4c-.4-.1-.8-.3-1.1-.7a2 2 0 0 1-.5-1.3c0-.7.3-1.2.8-1.6.5-.4 1.2-.6 2-.6.7 0 1.4.2 2 .6.5.3.9.8 1 1.4l-1.1.5c-.1-.4-.4-.7-.7-1a2 2 0 0 0-1.2-.4 2 2 0 0 0-1 .3c-.4.2-.5.4-.5.7 0 .3.1.5.4.7l.8.4a9.4 9.4 0 0 1 2.3.6l.8.8c.3.4.4.8.4 1.3 0 .7-.3 1.3-.8 1.8-.6.4-1.3.6-2.2.6Zm8.5-.1v-11.2h1.5v9.9h5.5v1.3h-7Zm8.3-11.3h1.5v1.7h-1.5v-1.7Zm0 11.3v-8h1.4v8h-1.3Zm6.3.1c-.9 0-1.6-.2-2.2-.7-.5-.4-1-1-1.1-1.6l1.1-.5c.4 1.1 1.1 1.7 2.2 1.7.5 0 .9-.1 1.2-.4.3-.2.5-.5.5-.9a1 1 0 0 0-.5-.8l-1.2-.5-1.3-.4c-.5-.1-.9-.3-1.2-.7a2 2 0 0 1-.5-1.3c0-.7.3-1.2.8-1.6.5-.4 1.2-.6 2-.6s1.4.2 2 .6c.5.3.9.8 1 1.4l-1 .5c-.2-.4-.4-.7-.8-1a2 2 0 0 0-1.2-.4 2 2 0 0 0-1 .3c-.3.2-.5.4-.5.7 0 .3.1.5.4.7l.8.4a9.3 9.3 0 0 1 2.3.6l.8.8c.3.4.4.8.4 1.3 0 .7-.3 1.3-.8 1.8-.6.4-1.3.6-2.2.6Zm8.9-.2c-.4.2-.8.2-1.3.2-.7 0-1.3-.2-1.7-.6-.4-.4-.7-1-.7-2v-4.4h-1.5V155h1.5v-2.4h1.4v2.4h2.2v1.2h-2.2v4.5c0 .4.1.8.3 1 .2.2.5.3.9.3s.7 0 1-.2v1.2Z"/>
  <path stroke="#6B717A" stroke-dasharray="1 1" d="M458 249v-77"/>
  <circle cx="458" cy="250" r="3" fill="#6B717A" transform="rotate(-180 458 250)"/>
  <path fill="#377D78" d="M656 144.1c-1.7 0-3-.5-4-1.5-1.2-1-1.7-2.4-1.7-4.2 0-1.8.5-3.2 1.6-4.2s2.4-1.5 4-1.5c1.4 0 2.6.3 3.5 1a4 4 0 0 1 1.6 2.8l-2.5.5a2.6 2.6 0 0 0-2.6-2.2c-.9 0-1.6.3-2.2 1-.6.6-.9 1.5-.9 2.6s.3 2 1 2.6c.5.6 1.2 1 2.1 1 .7 0 1.2-.2 1.7-.6.4-.3.7-.8.8-1.4l2.6.6c-.3 1-.9 2-1.8 2.6-.8.6-2 1-3.3 1Zm6.5-.1v-11.3h2.4v4.3c.5-.8 1.3-1.2 2.4-1.2 1 0 1.6.3 2.2.8.5.5.8 1.3.8 2.2v5.2H668v-4.6c0-.5-.2-.8-.4-1.1-.3-.3-.6-.4-1-.4-1.2 0-1.8.9-1.8 2.6v3.5h-2.3Zm12.8-8.2a4 4 0 0 1 2.7.9c.6.6 1 1.4 1 2.5v4.8h-2.3v-1l-1 .8a3 3 0 0 1-1.3.3c-.8 0-1.4-.2-2-.7-.4-.4-.7-1-.7-1.7 0-1.5 1.2-2.4 3.5-2.7l1.5-.1c0-.5-.1-.8-.4-1-.2-.2-.6-.3-1-.3s-.7 0-1 .3c-.2.2-.4.5-.4.9l-2-.4c0-.8.4-1.4 1-1.9a4 4 0 0 1 2.4-.7Zm-.3 6.6c.5 0 .9-.1 1.2-.5.3-.3.5-.8.5-1.2v-.1l-1.5.1c-.4 0-.7.2-1 .3l-.2.6c0 .3 0 .5.2.6.2.2.5.2.8.2Zm5.8 1.6v-8h2.3v1a3 3 0 0 1 2.5-1.2 3 3 0 0 1 2.1.8c.6.5.9 1.3.9 2.1v5.3h-2.4v-4.6c0-.5-.1-.8-.4-1.1-.2-.3-.5-.4-1-.4-1.1 0-1.7.8-1.7 2.6v3.5h-2.3Zm9.6 0v-8h2.3v1a3 3 0 0 1 2.5-1.2 3 3 0 0 1 2.1.8c.6.5.8 1.3.8 2.1v5.3h-2.3v-4.6c0-.5-.1-.8-.4-1.1-.2-.3-.6-.4-1-.4-1.1 0-1.7.8-1.7 2.6v3.5h-2.3Zm17.3-4.2v.8h-5.8c.2 1 .9 1.6 1.9 1.6.8 0 1.4-.4 1.5-1l2.3.5c-.3.8-.7 1.4-1.4 1.8-.7.4-1.5.6-2.5.6-1.3 0-2.3-.4-3-1.2a4.1 4.1 0 0 1-1.1-3c0-.6.1-1.3.4-1.9.2-.6.7-1.1 1.3-1.6a4 4 0 0 1 2.3-.6c.7 0 1.3.1 1.8.4.6.2 1 .5 1.3 1a4.3 4.3 0 0 1 1 2.6Zm-5.8-.8h3.3c0-.5-.2-.8-.5-1-.2-.3-.6-.4-1.1-.4-1 0-1.5.4-1.7 1.4Zm7.2 5v-11.3h2.4V144H709Zm12.4-7.6c1.2 0 2.1.4 2.9 1.1.7.7 1 1.7 1 2.8 0 1-.4 2-1.2 2.7a4 4 0 0 1-3 1.1 4 4 0 0 1-3.2-1.4 6 6 0 0 1-1.2-3.9c0-1 .1-1.9.4-2.7.3-.8.7-1.4 1.2-2a5.2 5.2 0 0 1 3.7-1.4 5 5 0 0 1 3.4 1.2l-1.1 1.8c-.7-.6-1.4-.9-2.2-.9a3 3 0 0 0-3 2.8c.5-.8 1.3-1.2 2.3-1.2Zm-.3 5.6c.5 0 1-.2 1.3-.6.3-.3.5-.7.5-1.3 0-.5-.2-1-.5-1.3-.3-.3-.8-.5-1.3-.5s-1 .2-1.3.5c-.4.4-.5.8-.5 1.3 0 .6.1 1 .5 1.3.3.4.8.6 1.3.6Z"/>
  <path fill="#414042" d="m623.7 163-4.2-11.2h1.5l3.5 9.5 3.4-9.5h1.5l-4.2 11.2h-1.5Zm7 0v-11.2h1.5V163h-1.5Zm8.7.1c-1.5 0-2.8-.5-3.8-1.5-1.1-1-1.6-2.4-1.6-4.2 0-1.8.5-3.2 1.6-4.2 1-1 2.3-1.5 3.8-1.5a5 5 0 0 1 3.1 1c.9.6 1.4 1.4 1.6 2.5l-1.4.3a4 4 0 0 0-1.1-1.9c-.6-.4-1.3-.6-2.2-.6-1.2 0-2.1.4-2.8 1.1-.8.8-1.1 1.9-1.1 3.3s.3 2.5 1 3.3c.8.7 1.7 1.1 2.9 1.1.9 0 1.6-.2 2.1-.6.6-.5 1-1 1.2-1.8l1.4.3c-.3 1-.8 1.9-1.6 2.5a5 5 0 0 1-3 1Zm9.3 0 5-11.3h1.5l-5 11.2h-1.5Zm15.2 0c-1 0-2-.3-2.8-1a4 4 0 0 1-1.5-2.4l1.4-.5a2.9 2.9 0 0 0 3 2.6 3 3 0 0 0 1.8-.5c.4-.3.6-.8.6-1.3s-.1-.9-.4-1.2a215.4 215.4 0 0 1-4.2-1.7c-.5-.2-1-.5-1.3-1-.3-.4-.4-.9-.4-1.5 0-.9.3-1.6 1-2.1.7-.6 1.6-.8 2.8-.8 1 0 1.9.2 2.6.7a3 3 0 0 1 1.3 2l-1.4.6c0-.7-.4-1.1-.8-1.5-.5-.4-1-.5-1.7-.5-.8 0-1.3.1-1.7.4-.4.3-.7.7-.7 1.2 0 .3.2.6.4.9.2.2.5.4 1 .5l1.2.4c.4 0 .9.2 1.3.4l1.3.6c.4.2.7.6.9 1 .2.4.3 1 .3 1.6 0 1-.3 1.7-1 2.3-.8.5-1.8.8-3 .8Zm13.4-.1-1-2.8h-5l-1.1 2.8h-1.5l4.4-11.2h1.3L679 163h-1.6Zm-5.5-4.1h4l-2-5.2-2 5.2ZM684 163v-11.2h7v1.3h-5.5v3.3h4.5v1.3h-4.5v4h5.8v1.3H684Zm15.4 0h-1.6l-2-3-2 3h-1.6l2.8-4.2-2.6-3.9h1.5l2 2.8 1.8-2.8h1.5l-2.6 4 2.8 4.1Zm1.4 3v-11h1.4v1.1c.2-.4.5-.7 1-1 .5-.2 1-.3 1.6-.3 1.2 0 2.2.4 2.8 1.2.7.7 1 1.7 1 3 0 1.2-.3 2.2-1 3-.7.7-1.6 1.1-2.8 1.1-.5 0-1 0-1.5-.3a3 3 0 0 1-1.1-1v4.1h-1.4Zm3.9-4c.8 0 1.4-.4 1.9-.9s.7-1.2.7-2.1a3 3 0 0 0-.7-2.2c-.5-.5-1.1-.8-2-.8-.7 0-1.4.3-1.8.8-.5.6-.8 1.3-.8 2.2 0 .9.3 1.6.8 2.1.4.5 1 .8 1.9.8Zm8.6-7.2c1 0 1.8.3 2.4.8a3 3 0 0 1 1 2.2v5.2h-1.4v-1.4c-.2.5-.6.9-1 1.1-.6.3-1 .4-1.7.4a3 3 0 0 1-2-.6c-.5-.5-.7-1-.7-1.8 0-1.5 1.3-2.4 3.8-2.6l1.6-.2v-.1c0-.6-.2-1-.5-1.4a2 2 0 0 0-1.5-.5 2 2 0 0 0-1.3.5c-.4.3-.6.7-.7 1.3l-1.2-.3a3 3 0 0 1 1-1.9c.7-.5 1.4-.7 2.2-.7Zm-.5 7.2c.8 0 1.4-.2 1.9-.7a3 3 0 0 0 .6-2v-.3l-1.6.1c-1.6.2-2.4.8-2.4 1.6 0 .4.1.7.4 1 .3.2.7.3 1.1.3Zm6 1v-8h1.4v1.5c.3-.5.7-1 1.2-1.2a3 3 0 0 1 1.6-.5c.8 0 1.5.3 2 .8.6.5.9 1.2.9 2v5.4h-1.4v-5c0-.6-.2-1-.5-1.4-.3-.4-.8-.6-1.3-.6-.8 0-1.4.3-1.8 1-.5.6-.7 1.4-.7 2.5v3.5H719Zm12 .1c-1 0-1.6-.2-2.2-.7-.6-.4-1-1-1.2-1.6l1.2-.5c.4 1.1 1 1.7 2.2 1.7.5 0 .9-.1 1.2-.4.3-.2.4-.5.4-.9a1 1 0 0 0-.5-.8l-1.1-.5a37 37 0 0 1-1.4-.4c-.4-.1-.8-.3-1.1-.7a2 2 0 0 1-.5-1.3c0-.7.2-1.2.7-1.6.6-.4 1.2-.6 2.1-.6.7 0 1.4.2 2 .6.5.3.8.8 1 1.4l-1.1.5c-.1-.4-.4-.7-.7-1a2 2 0 0 0-1.2-.4 2 2 0 0 0-1.1.3c-.3.2-.4.4-.4.7 0 .3.1.5.3.7l.9.4a9.4 9.4 0 0 1 2.2.6c.4.2.7.5.9.8.2.4.3.8.3 1.3 0 .7-.2 1.3-.8 1.8-.5.4-1.2.6-2.1.6Zm4.6-11.4h1.5v1.7h-1.5v-1.7Zm0 11.3v-8h1.4v8h-1.3Zm10.2-1a4 4 0 0 1-3 1.1 4 4 0 0 1-4-4.1 4 4 0 0 1 1.1-3 4 4 0 0 1 3-1.2 4 4 0 0 1 4.1 4.2 4 4 0 0 1-1.2 3Zm-4.9-.9c.5.5 1.2.8 2 .8s1.4-.3 2-.8a3 3 0 0 0 .7-2.1 3 3 0 0 0-.8-2.1c-.5-.6-1.1-.9-2-.9-.7 0-1.4.3-1.9.9a3 3 0 0 0-.7 2c0 1 .2 1.6.7 2.2Zm7.8 1.9v-8h1.4v1.5c.3-.5.6-1 1.1-1.2a3 3 0 0 1 1.6-.5c.9 0 1.6.3 2.1.8.6.5.8 1.2.8 2v5.4h-1.3v-5c0-.6-.2-1-.5-1.4-.4-.4-.8-.6-1.4-.6-.7 0-1.3.3-1.8 1-.4.6-.6 1.4-.6 2.5v3.5h-1.4Z"/>
  <path stroke="#6B717A" stroke-dasharray="1 1" d="M688 249v-77"/>
  <circle cx="688" cy="250" r="3" fill="#6B717A" transform="rotate(-180 688 250)"/>
  <path fill="#377D78" d="M311.2 347.1c-1.6 0-3-.5-4-1.5a5.4 5.4 0 0 1-1.7-4.2c0-1.8.6-3.2 1.6-4.2 1.1-1 2.5-1.5 4-1.5s2.6.3 3.5 1a4 4 0 0 1 1.6 2.8l-2.5.5c-.1-.6-.4-1.2-.9-1.6-.4-.4-1-.6-1.7-.6-.8 0-1.6.3-2.2 1-.5.6-.8 1.5-.8 2.6s.3 2 .8 2.6a3 3 0 0 0 2.2 1c.7 0 1.2-.2 1.7-.6.4-.3.7-.8.9-1.4l2.5.6c-.3 1-.8 2-1.7 2.6-1 .6-2 1-3.3 1Zm6.5-.1v-11.3h2.4v4.3c.5-.8 1.3-1.2 2.4-1.2 1 0 1.7.3 2.2.8.6.5.8 1.3.8 2.2v5.2h-2.3v-4.6a1.4 1.4 0 0 0-1.4-1.5c-1.2 0-1.7.9-1.7 2.6v3.5h-2.4Zm12.8-8.2a4 4 0 0 1 2.7.9c.7.6 1 1.4 1 2.5v4.8h-2.3v-1a2 2 0 0 1-1 .8 3 3 0 0 1-1.3.3c-.7 0-1.4-.2-1.9-.7-.5-.4-.7-1-.7-1.7 0-1.5 1.1-2.4 3.5-2.7l1.4-.1c0-.5-.1-.8-.4-1-.2-.2-.6-.3-1-.3s-.7 0-1 .3c-.2.2-.4.5-.4.9l-2-.4c0-.8.5-1.4 1.1-1.9.7-.5 1.4-.7 2.3-.7Zm-.3 6.6c.5 0 1-.1 1.2-.5.3-.3.5-.8.5-1.2v-.1l-1.5.1c-.4 0-.7.2-.9.3l-.3.6c0 .3 0 .5.3.6.1.2.4.2.7.2Zm5.8 1.6v-8h2.4v1c.5-.8 1.3-1.2 2.4-1.2a3 3 0 0 1 2.2.8c.5.5.8 1.3.8 2.1v5.3h-2.4v-4.6c0-.5 0-.8-.3-1.1-.3-.3-.6-.4-1-.4-1.2 0-1.7.8-1.7 2.6v3.5H336Zm9.6 0v-8h2.4v1c.5-.8 1.3-1.2 2.4-1.2a3 3 0 0 1 2.2.8c.5.5.8 1.3.8 2.1v5.3H351v-4.6c0-.5 0-.8-.3-1.1-.3-.3-.6-.4-1-.4-1.2 0-1.7.8-1.7 2.6v3.5h-2.4Zm17.3-4.2v.8h-5.8c.2 1 .9 1.6 1.9 1.6.9 0 1.4-.4 1.6-1l2.2.5c-.3.8-.7 1.4-1.4 1.8-.7.4-1.5.6-2.5.6-1.3 0-2.3-.4-3-1.2a4.6 4.6 0 0 1-.7-4.9c.3-.6.7-1.1 1.3-1.6a4 4 0 0 1 2.3-.6c.7 0 1.3.1 1.8.4.6.2 1 .5 1.4 1a4.3 4.3 0 0 1 1 2.6Zm-5.8-.8h3.3c0-.5-.2-.8-.5-1-.2-.3-.6-.4-1.1-.4-.9 0-1.4.4-1.7 1.4Zm7.3 5v-11.3h2.3V347h-2.3Zm11.7.1c-1.1 0-2.1-.3-3-.9a3.4 3.4 0 0 1-1.2-2.4l2.2-.4c.1.5.3.9.7 1.1.4.3.8.5 1.3.5.6 0 1-.2 1.3-.5.4-.3.5-.7.5-1.2s-.1-.9-.4-1.2c-.4-.3-.8-.4-1.3-.4s-1 .1-1.3.4l-1-1.7 2.9-2.4h-4.6v-2.2h7.5v2l-2.7 2.3c1 0 1.9.3 2.5.9a3 3 0 0 1 1 2.4c0 1.1-.4 2-1.2 2.7-.8.7-1.9 1-3.2 1Z"/>
  <path fill="#414042" d="M300.1 360.4c0 1.7-.5 3.1-1.6 4.2l1.1 1.3-.9.8-1.2-1.4c-.9.6-1.8.8-2.9.8-1.6 0-3-.5-4-1.6-1-1-1.5-2.4-1.5-4.1 0-1.7.5-3 1.5-4.1 1-1 2.4-1.6 4-1.6s2.9.5 4 1.6c1 1 1.5 2.4 1.5 4.1Zm-5.5 4.4a4 4 0 0 0 2-.5l-2.2-2.4.9-.8 2.2 2.5a5.2 5.2 0 0 0 0-6.4 3.7 3.7 0 0 0-3-1.2c-1 0-2 .4-2.8 1.2-.8.9-1.1 2-1.1 3.2 0 1.3.3 2.3 1.1 3.2.8.8 1.7 1.2 2.9 1.2Zm7.3 1.2v-11.2h1.5v9.9h5.6v1.3h-7Zm8.5 0v-11.2h3.3c1.6 0 3 .5 4 1.5s1.6 2.4 1.6 4.1a5.3 5.3 0 0 1-5.6 5.6h-3.3Zm1.4-1.3h1.8a5 5 0 0 0 3-1c.8-.8 1.2-1.9 1.2-3.3a4.3 4.3 0 0 0-2.1-3.9c-.6-.3-1.3-.4-2-.4h-1.9v8.6ZM325 366v-11.2h7v1.3h-5.6v3.3h4.6v1.3h-4.6v4h5.8v1.3H325Zm15.3 0h-1.5l-2-3-2 3h-1.6l2.8-4.2-2.6-3.9h1.5l1.9 2.8 1.8-2.8h1.6l-2.7 4 2.8 4.1Zm1.4 3v-11h1.4v1.1c.2-.4.6-.7 1-1 .6-.2 1-.3 1.7-.3 1.2 0 2.1.4 2.8 1.2.7.7 1 1.7 1 3 0 1.2-.3 2.2-1 3a4 4 0 0 1-2.9 1.1c-.5 0-1 0-1.5-.3a3 3 0 0 1-1-1v4.1h-1.5Zm3.9-4c.8 0 1.4-.4 2-.9.4-.5.6-1.2.6-2.1a3 3 0 0 0-.7-2.2c-.5-.5-1.1-.8-1.9-.8-.8 0-1.4.3-1.9.8-.5.6-.7 1.3-.7 2.2 0 .9.2 1.6.7 2.1.5.5 1.1.8 1.9.8Zm8.7-7.2c1 0 1.8.3 2.4.8.6.6.9 1.3.9 2.2v5.2h-1.3v-1.4c-.3.5-.6.9-1.1 1.1a3 3 0 0 1-1.6.4 3 3 0 0 1-2-.6c-.5-.5-.8-1-.8-1.8 0-1.5 1.3-2.4 3.9-2.6l1.6-.2v-.1c0-.6-.2-1-.6-1.4a2 2 0 0 0-1.4-.5 2 2 0 0 0-1.4.5c-.4.3-.6.7-.6 1.3l-1.3-.3a3 3 0 0 1 1-1.9c.7-.5 1.4-.7 2.3-.7Zm-.5 7.2c.8 0 1.4-.2 1.8-.7a3 3 0 0 0 .7-2v-.3l-1.6.1c-1.7.2-2.5.8-2.5 1.6 0 .4.1.7.4 1 .3.2.7.3 1.2.3Zm6 1v-8h1.4v1.5c.3-.5.6-1 1.1-1.2a3 3 0 0 1 1.6-.5c.9 0 1.6.3 2.1.8s.8 1.2.8 2v5.4h-1.3v-5c0-.6-.2-1-.5-1.4-.4-.4-.8-.6-1.4-.6-.7 0-1.3.3-1.8 1-.4.6-.6 1.4-.6 2.5v3.5h-1.4Zm12 .1c-1 0-1.7-.2-2.3-.7-.5-.4-1-1-1.1-1.6l1.1-.5c.4 1.1 1.1 1.7 2.2 1.7.5 0 .9-.1 1.2-.4.3-.2.5-.5.5-.9a1 1 0 0 0-.5-.8l-1.2-.5-1.3-.4c-.5-.1-.9-.3-1.2-.7a2 2 0 0 1-.5-1.3c0-.7.3-1.2.8-1.6.5-.4 1.2-.6 2-.6s1.4.2 2 .6c.5.3.9.8 1 1.4l-1 .5c-.2-.4-.4-.7-.8-1a2 2 0 0 0-1.2-.4 2 2 0 0 0-1 .3c-.3.2-.5.4-.5.7 0 .3.1.5.4.7l.8.4a9.3 9.3 0 0 1 2.3.6l.8.8c.3.4.4.8.4 1.3 0 .7-.3 1.3-.8 1.8-.6.4-1.3.6-2.2.6Zm4.5-11.4h1.6v1.7h-1.6v-1.7Zm.1 11.3v-8h1.4v8h-1.4Zm10.2-1a4 4 0 0 1-3 1.1 4 4 0 0 1-4-4.1 4 4 0 0 1 1-3 4 4 0 0 1 3-1.2 4 4 0 0 1 4.1 4.2 4 4 0 0 1-1.1 3Zm-5-.9c.6.5 1.2.8 2 .8s1.5-.3 2-.8a3 3 0 0 0 .7-2.1 3 3 0 0 0-.7-2.1c-.5-.6-1.2-.9-2-.9s-1.4.3-2 .9a3 3 0 0 0-.7 2c0 1 .3 1.6.8 2.2Zm7.9 1.9v-8h1.3v1.5c.3-.5.7-1 1.2-1.2a3 3 0 0 1 1.6-.5c.8 0 1.5.3 2 .8.6.5.9 1.2.9 2v5.4H395v-5c0-.6-.2-1-.5-1.4-.3-.4-.8-.6-1.3-.6-.8 0-1.4.3-1.8 1-.5.6-.7 1.4-.7 2.5v3.5h-1.3Z"/>
  <path stroke="#6B717A" stroke-dasharray="1 1" d="M343 251v77"/>
  <circle cx="343" cy="250" r="3" fill="#6B717A"/>
  <path fill="#377D78" d="M541.3 347.1c-1.6 0-3-.5-4-1.5a5.4 5.4 0 0 1-1.7-4.2c0-1.8.6-3.2 1.6-4.2 1.1-1 2.5-1.5 4-1.5s2.6.3 3.5 1a4 4 0 0 1 1.6 2.8l-2.5.5a2.6 2.6 0 0 0-2.6-2.2c-.8 0-1.6.3-2.2 1-.5.6-.8 1.5-.8 2.6s.3 2 .8 2.6a3 3 0 0 0 2.2 1c.7 0 1.2-.2 1.7-.6.4-.3.7-.8.9-1.4l2.5.6c-.3 1-.8 2-1.7 2.6-1 .6-2 1-3.3 1Zm6.5-.1v-11.3h2.4v4.3c.5-.8 1.3-1.2 2.4-1.2 1 0 1.7.3 2.2.8.6.5.8 1.3.8 2.2v5.2h-2.3v-4.6a1.4 1.4 0 0 0-1.4-1.5c-1.2 0-1.7.9-1.7 2.6v3.5h-2.4Zm12.8-8.2a4 4 0 0 1 2.7.9c.6.6 1 1.4 1 2.5v4.8H562v-1c-.2.3-.6.6-1 .8a3 3 0 0 1-1.3.3c-.7 0-1.4-.2-1.9-.7-.5-.4-.7-1-.7-1.7 0-1.5 1.1-2.4 3.4-2.7l1.5-.1c0-.5-.1-.8-.4-1-.2-.2-.6-.3-1-.3s-.7 0-1 .3c-.2.2-.4.5-.4.9l-2-.4c0-.8.5-1.4 1.1-1.9.7-.5 1.4-.7 2.3-.7Zm-.3 6.6c.5 0 1-.1 1.2-.5.3-.3.5-.8.5-1.2v-.1l-1.5.1c-.4 0-.7.2-.9.3a.8.8 0 0 0 0 1.2c.1.2.4.2.7.2Zm5.8 1.6v-8h2.4v1c.5-.8 1.3-1.2 2.4-1.2a3 3 0 0 1 2.2.8c.5.5.8 1.3.8 2.1v5.3h-2.4v-4.6c0-.5 0-.8-.3-1.1-.3-.3-.6-.4-1-.4-1.2 0-1.7.8-1.7 2.6v3.5H566Zm9.6 0v-8h2.3v1a3 3 0 0 1 2.5-1.2 3 3 0 0 1 2.2.8c.5.5.8 1.3.8 2.1v5.3H581v-4.6c0-.5-.1-.8-.4-1.1-.2-.3-.5-.4-1-.4-1 0-1.7.8-1.7 2.6v3.5h-2.3Zm17.3-4.2v.8h-5.8c.2 1 .9 1.6 1.9 1.6.9 0 1.4-.4 1.6-1l2.2.5c-.3.8-.7 1.4-1.4 1.8-.7.4-1.5.6-2.5.6-1.3 0-2.3-.4-3-1.2a4.1 4.1 0 0 1-1.1-3c0-.6.1-1.3.4-1.9.3-.6.7-1.1 1.3-1.6a4 4 0 0 1 2.3-.6c.7 0 1.3.1 1.8.4.6.2 1 .5 1.4 1a4.3 4.3 0 0 1 1 2.6Zm-5.8-.8h3.3c0-.5-.2-.8-.5-1-.2-.3-.6-.4-1.1-.4-.9 0-1.4.4-1.7 1.4Zm7.3 5v-11.3h2.3V347h-2.3Zm11.7.1c-1 0-2-.3-2.8-.8a3.4 3.4 0 0 1-1.4-2.3l2.3-.4a1.8 1.8 0 0 0 1.8 1.4c.6 0 1-.2 1.3-.5.3-.3.5-.8.5-1.3s-.2-1-.5-1.2c-.4-.3-.8-.5-1.4-.5-.8 0-1.4.3-1.9 1l-1.8-.4 1-6.3h6.2v2.2h-4.4l-.4 2.3c.5-.5 1.2-.7 2-.7 1 0 2 .3 2.7 1 .6.7 1 1.5 1 2.6 0 1.2-.4 2.1-1.2 2.9-.7.7-1.7 1-3 1Z"/>
  <path fill="#414042" d="M506.4 366v-11.2h7.2v1.3h-5.7v3.4h4.6v1.3H508v5.2h-1.5Zm11.8 0v-4.7l-4-6.5h1.7l3 5.1 3-5.1h1.7l-4 6.5v4.7h-1.4Zm9.8 0-4.2-11.2h1.5l3.5 9.5 3.5-9.5h1.4l-4.2 11.2H528Zm7 0v-11.2h7v1.3h-5.5v3.3h4.5v1.3h-4.5v4h5.8v1.3H535Zm12 0 5-11.2h1.4l-5 11.2h-1.5Zm11.5 0v-11.2h4a4 4 0 0 1 2.6.8c.6.5 1 1.2 1 2 0 .6-.2 1-.5 1.4l-1 .9c1.2.4 1.9 1.4 1.9 2.8a3 3 0 0 1-1 2.4 4 4 0 0 1-2.7.9h-4.3Zm1.5-6.6h2.5c1.4 0 2-.6 2-1.7 0-1-.6-1.7-2-1.7H560v3.4Zm0 5.3h2.6c1.6 0 2.4-.7 2.4-2s-.8-2-2.4-2H560v4Zm15.6-3.1v.6h-6.4c0 .8.3 1.5.7 2 .5.5 1.1.7 1.8.7s1.2-.1 1.6-.4c.4-.3.6-.7.8-1.2l1.2.3a3 3 0 0 1-1.2 1.9 4 4 0 0 1-2.4.6c-1.1 0-2.1-.4-2.8-1.2a4.4 4.4 0 0 1-1.1-3c0-1.1.4-2.1 1-2.9a4 4 0 0 1 3-1.2 3.7 3.7 0 0 1 3.8 3.8Zm-6.4-.5h5c-.1-.7-.4-1.2-.8-1.6-.4-.4-1-.6-1.7-.6-.6 0-1.2.2-1.6.6-.4.4-.7 1-.9 1.6Zm8.1 4.9v-8h1.4v1.5c.3-.5.6-1 1.1-1.2a3 3 0 0 1 1.6-.5c.9 0 1.6.3 2.1.8.6.5.8 1.2.8 2v5.4H583v-5c0-.6-.2-1-.5-1.4-.4-.4-.8-.6-1.4-.6-.7 0-1.3.3-1.8 1-.4.6-.6 1.4-.6 2.5v3.5h-1.4Zm12.8.1c-1.2 0-2.2-.4-3-1.1a4.2 4.2 0 0 1-1-3c0-1.3.3-2.3 1-3a4 4 0 0 1 3-1.2c1 0 1.7.2 2.3.7a3 3 0 0 1 1.2 2l-1.3.2a2 2 0 0 0-.8-1.2c-.4-.3-.8-.5-1.4-.5-.8 0-1.4.3-1.9.8-.5.6-.7 1.3-.7 2.2 0 .9.2 1.6.7 2.1.5.5 1.1.8 1.9.8.6 0 1-.1 1.4-.4.4-.3.7-.8.8-1.3l1.3.3c-.1.8-.6 1.5-1.2 2-.6.4-1.4.6-2.3.6Zm5.2-.1v-11.3h1.4v4.8a2.9 2.9 0 0 1 2.7-1.7c1 0 1.7.3 2.2.8.6.5.9 1.2.9 2v5.4H601v-5c0-.7-.2-1.1-.5-1.4a2 2 0 0 0-1.5-.6c-.7 0-1.3.4-1.8 1-.4.6-.6 1.5-.6 2.5v3.5h-1.4Zm9.4 0v-8h1.3v1.5a2.4 2.4 0 0 1 2.5-1.7 3 3 0 0 1 1.6.5c.5.3.8.7 1 1.2a2.8 2.8 0 0 1 2.6-1.7c.8 0 1.5.3 2 .8s.8 1.1.8 2v5.4h-1.4v-5.1c0-.6-.1-1-.4-1.4-.3-.3-.8-.5-1.3-.5a2 2 0 0 0-1.6.8c-.4.6-.5 1.3-.5 2.2v4h-1.4v-5.1c0-.6-.2-1-.5-1.4-.3-.3-.7-.5-1.3-.5-.6 0-1.1.3-1.5.8-.4.6-.6 1.3-.6 2.2v4h-1.3Zm17-8.2c1 0 1.8.3 2.4.8a3 3 0 0 1 1 2.2v5.2h-1.4v-1.4c-.3.5-.6.9-1.1 1.1a3 3 0 0 1-1.6.4 3 3 0 0 1-2-.6c-.5-.5-.7-1-.7-1.8 0-1.5 1.3-2.4 3.8-2.6l1.6-.2v-.1c0-.6-.2-1-.6-1.4a2 2 0 0 0-1.4-.5 2 2 0 0 0-1.4.5c-.3.3-.5.7-.6 1.3l-1.3-.3a3 3 0 0 1 1.1-1.9c.6-.5 1.4-.7 2.2-.7Zm-.5 7.2c.8 0 1.4-.2 1.8-.7.5-.5.7-1.1.7-2v-.3l-1.6.1c-1.6.2-2.5.8-2.5 1.6 0 .4.2.7.5 1 .3.2.6.3 1.1.3Zm10.8-5.7c-.3-.2-.7-.2-1-.2-.8 0-1.3.3-1.8 1-.4.6-.6 1.6-.6 2.8v3.1h-1.4v-8h1.4v1.6c.2-.5.6-1 1-1.3a3 3 0 0 1 1.5-.5c.4 0 .7 0 1 .2l-.1 1.3Zm6.9 6.7-3-4-1.2 1v3h-1.3v-11.3h1.3v6.5l3.8-3.3h1.8l-3.5 3.2 3.7 4.9H639Z"/>
  <path stroke="#6B717A" stroke-dasharray="1 1" d="M573 251v77"/>
  <circle cx="573" cy="250" r="3" fill="#6B717A"/>
  <path fill="#fff" d="M74.6 221.1a4.9 4.9 0 0 1-5-5c0-1.4.5-2.6 1.4-3.6 1-1 2.2-1.4 3.6-1.4 1.5 0 2.7.5 3.6 1.4 1 1 1.4 2.2 1.4 3.6a4.9 4.9 0 0 1-5 5Zm-2-2.8c.5.6 1.2 1 2 1s1.5-.4 2-1c.6-.6.8-1.3.8-2.2 0-.9-.2-1.6-.8-2.2a2.6 2.6 0 0 0-4 0c-.5.5-.8 1.3-.8 2.2 0 .9.3 1.6.8 2.2ZM81 221v-9.8h2.2l3.8 6.3v-6.3h2v9.8h-2.2l-3.8-6.3v6.3h-2Zm14.2.1c-1.3 0-2.5-.4-3.4-1.3-1-.9-1.4-2.1-1.4-3.7a4.7 4.7 0 0 1 5-5c1.2 0 2.2.3 3 .9.8.6 1.3 1.4 1.5 2.4l-2.2.5c-.1-.6-.4-1-.8-1.4-.4-.3-1-.5-1.6-.5-.8 0-1.5.3-2 .8-.5.6-.7 1.3-.7 2.3 0 1 .2 1.7.7 2.3.5.5 1.2.8 2 .8.7 0 1.2-.2 1.6-.5.5-.3.7-.7.8-1.3H95v-1.7h4.7v5.3h-2v-1a2 2 0 0 1-1 .8c-.4.2-1 .3-1.5.3Zm10.8 0a4.9 4.9 0 0 1-5-5c0-1.4.4-2.6 1.4-3.6 1-1 2.2-1.4 3.6-1.4 1.5 0 2.7.5 3.6 1.4 1 1 1.4 2.2 1.4 3.6a4.9 4.9 0 0 1-5 5Zm-2-2.8c.5.6 1.2 1 2 1s1.5-.4 2-1 .8-1.3.8-2.2c0-.9-.3-1.6-.8-2.2a2.6 2.6 0 0 0-4 0c-.6.5-.8 1.3-.8 2.2 0 .9.2 1.6.8 2.2Zm8.4 2.7v-9.8h2.2v9.8h-2.2Zm4 0v-9.8h2.1l3.8 6.3v-6.3h2.1v9.8h-2.2l-3.8-6.3v6.3h-2Zm14.2.1a5 5 0 0 1-3.5-1.3 5 5 0 0 1-1.4-3.7 4.7 4.7 0 0 1 5-5c1.3 0 2.3.3 3 .9.9.6 1.4 1.4 1.6 2.4l-2.2.5c-.1-.6-.4-1-.8-1.4a3 3 0 0 0-1.6-.5c-.8 0-1.5.3-2 .8-.5.6-.7 1.3-.7 2.3 0 1 .2 1.7.7 2.3.5.5 1.2.8 2 .8.6 0 1.2-.2 1.6-.5.4-.3.7-.7.7-1.3h-2.6v-1.7h4.7v5.3h-2v-1c-.2.3-.6.6-1 .8l-1.5.3Zm594.9-3.1v-1.8l3.4-2.8c1-.8 1.4-1.5 1.4-2.1 0-.4-.1-.7-.4-1-.2-.2-.5-.3-1-.3-.4 0-.8.2-1 .5-.3.4-.4.9-.3 1.5l-2.1-.2c-.1-1 .1-1.9.8-2.6.7-.7 1.6-1.1 2.7-1.1 1 0 1.9.3 2.5.9a3 3 0 0 1 1 2.3 4 4 0 0 1-.5 1.8c-.4.5-1 1.1-1.9 1.8l-1.5 1.2h4v1.9h-7.1Zm15.2-1.2c-.7.9-1.7 1.3-3 1.3-1.2 0-2.2-.4-3-1.3-.7-1-1-2.2-1-3.7s.3-2.7 1-3.6c.8-1 1.8-1.4 3-1.4 1.3 0 2.3.4 3 1.4.8.9 1.1 2 1.1 3.6 0 1.5-.3 2.7-1 3.7Zm-4.3-1.4c.3.5.7.8 1.3.8.7 0 1.1-.3 1.4-.8.4-.5.5-1.3.5-2.3 0-1-.1-1.8-.5-2.3-.3-.6-.7-.8-1.4-.8-.6 0-1 .2-1.3.8-.4.5-.5 1.3-.5 2.3 0 1 .1 1.8.5 2.3Zm6.3 2.6v-1.8l3.4-2.8c1-.8 1.5-1.5 1.5-2.1 0-.4-.2-.7-.4-1-.3-.2-.6-.3-1-.3-.5 0-.9.2-1.1.5-.3.4-.4.9-.3 1.5l-2.1-.2c-.1-1 .2-1.9.9-2.6.7-.7 1.5-1.1 2.6-1.1 1 0 2 .3 2.6.9a3 3 0 0 1 1 2.3c0 .6-.2 1.2-.6 1.8l-1.8 1.8-1.6 1.2h4v1.9h-7.1Zm11.6-3.2c-1 0-1.8-.3-2.5-1a3.3 3.3 0 0 1 .1-4.8 4 4 0 0 1 2.7-1c1.2 0 2 .5 2.8 1.4.7.8 1 2 1 3.3 0 .9 0 1.7-.3 2.4s-.6 1.3-1 1.7a4.6 4.6 0 0 1-3.3 1.3c-1.2 0-2.2-.3-3-1l1-1.6c.6.5 1.2.7 2 .7.7 0 1.3-.2 1.8-.6.4-.5.7-1 .8-1.8-.5.7-1.2 1-2.1 1Zm.3-4.8c-.5 0-.8.1-1.1.4-.3.3-.5.7-.5 1.2 0 .4.1.8.4 1.1.3.3.7.5 1.2.5s.8-.2 1.1-.5c.3-.3.5-.7.5-1.1a1.6 1.6 0 0 0-1.6-1.6ZM329 218v-9.8h2.2l3.8 6.3v-6.3h2.1v9.8h-2.2l-3.8-6.3v6.3h-2Zm14.5.1a4.9 4.9 0 0 1-5-5 4.8 4.8 0 0 1 5-5c1.4 0 2.6.5 3.6 1.4 1 1 1.4 2.2 1.4 3.6a4.9 4.9 0 0 1-5 5Zm-2-2.8c.5.6 1.1 1 2 1 .8 0 1.5-.4 2-1s.8-1.3.8-2.2c0-.9-.3-1.6-.8-2.2a2.6 2.6 0 0 0-4 0c-.6.5-.8 1.3-.8 2.2 0 .9.2 1.6.7 2.2Zm10 2.7-2.7-9.8h2.3l1.6 7.1 1.7-7.1h2.6l1.7 7.1 1.7-7.1h2.3l-2.8 9.8h-2.3l-1.9-6.8-1.8 6.8h-2.3Zm164.5 0v-9.8h4c1 0 1.8.3 2.4.8a3 3 0 0 1 0 4.5c-.6.6-1.4.8-2.4.8h-2v3.7h-2Zm2.1-5.6h1.7c.4 0 .7 0 1-.3.2-.2.3-.5.3-.8a1 1 0 0 0-.4-.9c-.2-.2-.5-.3-1-.3h-1.6v2.3Zm6.4 5.6v-9.8h2.2v9.8h-2.3Zm4 0v-9.8h4c1 0 1.8.3 2.4.8a3 3 0 0 1 0 4.5c-.6.6-1.4.8-2.4.8h-1.8v3.7h-2.3Zm2.2-5.6h1.6c.4 0 .7 0 1-.3.2-.2.3-.5.3-.8a1 1 0 0 0-.3-.9c-.3-.2-.6-.3-1-.3h-1.6v2.3Zm6.3 5.6v-9.8h6.7v1.9h-4.5v1.8h3.6v1.9h-3.6v2.3h4.6v1.9H537Zm8.2 0v-9.8h2.2v7.9h4.4v1.9h-6.6Zm7.6 0v-9.8h2.2v9.8h-2.2Zm4 0v-9.8h2.2l3.8 6.3v-6.3h2v9.8h-2.1l-3.8-6.3v6.3h-2.1Zm9.8 0v-9.8h6.8v1.9h-4.6v1.8h3.6v1.9h-3.6v2.3h4.7v1.9h-6.9Z"/>
  <rect width="340" height="52" x="230" fill="#6B717A" rx="26"/>
  <path fill="#fff" d="m280.8 14.4-2.6 2.7a8.6 8.6 0 0 0-5.7-2.3c-4.8 0-7.7 3.7-7.7 8.3 0 3.7 2.1 7.5 7.7 7.5 1.8 0 3.3-.4 5-1.8v-4h-5.7V21h9.6v9.5c-2.2 2.5-5 4-8.9 4-8.4 0-11.8-5.5-11.8-11.4 0-6.3 4-12.1 11.8-12.1 3 0 6 1.1 8.3 3.4Zm3.8 3.8h3.6l.3 1.8c1.2-1.9 2.8-2.2 4.4-2.2a6 6 0 0 1 4.1 1.5l-1.8 3.4c-.8-.7-1.5-1-2.8-1-2 0-3.9 1-3.9 4V34h-4V18.2Zm21.3-.3a8 8 0 0 1 8.2 8.2c0 4.6-3 8.3-8.2 8.3-5.1 0-8.2-3.7-8.2-8.3a8 8 0 0 1 8.2-8.2Zm0 3.6c-2.8 0-4.3 2.3-4.3 4.6 0 2.4 1.5 4.7 4.3 4.7 2.9 0 4.3-2.3 4.3-4.7 0-2.3-1.7-4.6-4.3-4.6Zm21.3-3.3h3.5L334 30l3.6-12h4.3l-5.5 16H332l-1.6-4.7L329 24l-1.5 5.3L326 34h-4.5l-5.6-16h4.4l3.6 12 3.4-12Zm19.7-4 4-.4v4.5h4.3v3.3h-4.4v6.8c0 1.5.8 2.3 2 2.3.7 0 1.4-.2 2-.5l1 3.3c-1 .5-2 .7-3.2.7-3.4.1-5.7-1.8-5.7-5.8v-6.8H344v-3.3h3v-4.1Zm11.2-2.6h4v8.8A5.8 5.8 0 0 1 367 18c4.4 0 6.4 3 6.4 7.7V34h-3.9v-8.3c0-2.9-1.5-4-3.6-4-2.3 0-3.9 1.9-3.9 4.2V34h-3.9V11.6Zm42.6 3.7-3.4 1.7c-.8-1.3-2.9-2.5-5.3-2.5-3.1 0-4.7 1.3-4.7 3 0 2 2.3 2.5 5 2.8 4.7.6 9 1.8 9 7.1 0 5-4.4 7.2-9.3 7.2-4.6 0-8.1-1.4-9.8-5.5l3.5-1.9c1 2.5 3.6 3.6 6.3 3.6 2.7 0 5.2-1 5.2-3.4 0-2-2.2-3-5.2-3.3-4.6-.5-8.8-1.7-8.8-6.7 0-4.6 4.5-6.5 8.7-6.6 3.4 0 7 1 8.8 4.5Zm5.6-1.1 3.9-.4v4.5h4.3v3.3h-4.3v6.8c0 1.5.8 2.3 2 2.3.6 0 1.3-.2 1.9-.5l1 3.3c-1 .5-2 .7-3.2.7-3.4.1-5.6-1.8-5.6-5.8v-6.8h-3v-3.3h3v-4.1Zm11.2 4h3.6l.3 1.8c1.2-1.9 2.8-2.2 4.4-2.2a6 6 0 0 1 4 1.5l-1.7 3.4c-.8-.7-1.5-1-2.8-1-2 0-4 1-4 4V34h-3.8V18.2Zm26.2 2.2.2-2.2h3.7V34h-3.7l-.2-2.3c-.9 1.9-3.3 2.7-5 2.8-4.8 0-8.2-2.9-8.2-8.4 0-5.4 3.6-8.3 8.2-8.3 2.1 0 4.1 1 5 2.6Zm-4.6 1c-2.6 0-4.7 1.7-4.7 4.7s2 4.8 4.7 4.8c6.1 0 6.1-9.6 0-9.6Zm12.7-7.2 4-.4v4.5h4.3v3.3h-4.4v6.8c0 1.5.8 2.3 2 2.3a5 5 0 0 0 2-.5l1 3.3c-1.1.5-2 .7-3.2.7-3.4.1-5.7-1.8-5.7-5.8v-6.8h-3v-3.3h3v-4.1Zm26.8 13.3h-12.3c.3 2 2 3.4 4.7 3.4 1.5 0 3.4-.6 4.3-1.5l2.5 2.5a9.7 9.7 0 0 1-6.8 2.5c-5.5 0-8.7-3.3-8.7-8.4 0-4.8 3.3-8.3 8.4-8.3 5.3 0 8.6 3.3 8 9.8Zm-12.2-3.2h8.5c-.3-2-1.9-3.1-4-3.1-2.2 0-4 1-4.5 3Zm26-5.7 1.6-2 3 2.2-1.8 2.2c1.2 1.4 1.6 3 1.6 4.7 0 2-.7 4.7-3.3 5.9a5.3 5.3 0 0 1 3.3 5.2c0 4.4-3.4 7-8 7-4.5 0-8-2.7-8-7h4c0 2 1.8 3.4 4 3.4 2.3 0 4-1.2 4-3.4s-2-3.2-4-3.2c-4.9 0-8-3-8-7.9 0-5 3.6-8 8-8a6 6 0 0 1 3.7 1Zm-3.5 2.7c-2.3 0-4.2 1.7-4.2 4.4 0 2.8 1.9 4.4 4.2 4.4 2.2 0 4-1.7 4-4.4s-1.8-4.4-4-4.4Zm14.3-3.1V34h-3.9V18.2h4Zm-4.2-4.4c0 3 4.6 3 4.6 0s-4.6-3-4.6 0Zm23.4 13.7h-12.3c.2 2 2 3.4 4.7 3.4 1.4 0 3.3-.6 4.2-1.5l2.5 2.5a9.7 9.7 0 0 1-6.8 2.5c-5.4 0-8.7-3.3-8.7-8.4 0-4.8 3.3-8.3 8.4-8.3 5.3 0 8.6 3.3 8 9.8Zm-12.3-3.2h8.6c-.3-2-1.9-3.1-4.1-3.1-2.2 0-3.9 1-4.5 3Zm27.8-4.4-2.2 2.5a5.3 5.3 0 0 0-3.9-1.4c-1.9 0-2.9.6-2.9 1.6s1 1.6 3 1.7c3 .2 6.7.9 6.7 5 0 2.8-2.3 5.2-6.8 5.2-2.5 0-5-.4-7.3-2.8l2-2.8a8.7 8.7 0 0 0 5.4 2.3c1.5 0 2.8-.8 2.8-2 0-1-.8-1.5-3-1.6-3-.2-6.6-1.3-6.6-4.9 0-3.6 3.8-5 6.6-5 2.5 0 4.4.6 6.2 2.2Z"/>
  <defs>
    <linearGradient id="a" x1="0" x2="186" y1="251.5" y2="251.5" gradientUnits="userSpaceOnUse">
      <stop stop-color="#377D78" stop-opacity="0"/>
      <stop offset="1" stop-color="#377D78" stop-opacity=".5"/>
    </linearGradient>
    <linearGradient id="b" x1="139" x2="641" y1="251.5" y2="251.5" gradientUnits="userSpaceOnUse">
      <stop stop-color="#377D78" stop-opacity="0"/>
      <stop offset="1" stop-color="#377D78" stop-opacity=".5"/>
    </linearGradient>
    <linearGradient id="c" x1="578" x2="800" y1="251.5" y2="251.5" gradientUnits="userSpaceOnUse">
      <stop stop-color="#377D78" stop-opacity="0"/>
      <stop offset="1" stop-color="#377D78" stop-opacity=".5"/>
    </linearGradient>
    <linearGradient id="d" x1="101" x2="458" y1="251.5" y2="251.5" gradientUnits="userSpaceOnUse">
      <stop stop-color="#377D78" stop-opacity="0"/>
      <stop offset="1" stop-color="#377D78" stop-opacity=".5"/>
    </linearGradient>
    <linearGradient id="e" x1="23" x2="88" y1="255" y2="255" gradientUnits="userSpaceOnUse">
      <stop stop-color="#F7F7F7"/>
      <stop offset="1" stop-color="#BEBFC2"/>
    </linearGradient>
    <linearGradient id="f" x1="138" x2="203" y1="255" y2="255" gradientUnits="userSpaceOnUse">
      <stop stop-color="#F7F7F7"/>
      <stop offset="1" stop-color="#BEBFC2"/>
    </linearGradient>
    <linearGradient id="g" x1="253" x2="318" y1="255" y2="255" gradientUnits="userSpaceOnUse">
      <stop stop-color="#F7F7F7"/>
      <stop offset="1" stop-color="#BEBFC2"/>
    </linearGradient>
    <linearGradient id="h" x1="368" x2="433" y1="255" y2="255" gradientUnits="userSpaceOnUse">
      <stop stop-color="#F7F7F7"/>
      <stop offset="1" stop-color="#BEBFC2"/>
    </linearGradient>
    <linearGradient id="i" x1="483" x2="548" y1="255" y2="255" gradientUnits="userSpaceOnUse">
      <stop stop-color="#F7F7F7"/>
      <stop offset="1" stop-color="#BEBFC2"/>
    </linearGradient>
    <linearGradient id="j" x1="598" x2="663" y1="255" y2="255" gradientUnits="userSpaceOnUse">
      <stop stop-color="#F7F7F7"/>
      <stop offset="1" stop-color="#BEBFC2"/>
    </linearGradient>
    <linearGradient id="k" x1="713" x2="778" y1="255" y2="255" gradientUnits="userSpaceOnUse">
      <stop stop-color="#F7F7F7"/>
      <stop offset="1" stop-color="#BEBFC2"/>
    </linearGradient>
  </defs>
</svg>
