<svg xmlns="http://www.w3.org/2000/svg" width="800" height="500" fill="none" viewBox="0 0 800 500">
  <path fill="#fff" d="M0 0h800v500H0z"/>
  <path fill="#BEBFC2" d="M242.6 373.1c-.4 0-.4.3 0 .2.3 0 .5-.2 0-.2Zm-10.5.3c-.1-.1-.2.2-.1.3.1.2.3-.2.1-.3ZM159.6 355c.1-.2-.2-.4-.2-.7 0-.4-.2 1 .2.7Zm9-113c.6.3.4-.1.8-.3-.1 0-1.9.5-.8.4Zm.9-1s.5-.2.2-.4c-.3-.1-.6.4-.2.4Zm.4 1 .3-.3c.7-.7-1.2.6-.3.3Zm.4.1c.2 0 .3-.4 0-.2-.2.1-.2.4 0 .2Zm-.6.7c-.2 0-.4 0-.3.2.1.4 1.2-.6.3-.2Zm2.3-1.9c0-.3-.2 0-.3.1-.1.2.2 0 .3 0Zm.6.2v-.7c-.4.4-.8.7 0 .7Zm.7-.9c.7.1-.8-.5-1-.6-.8-.2 1 .6 1 .6Zm83.5-49.1c0 .3.2 0 .3 0-.1.4.5-.3.8 0-1.3.7-.5.8.5.4.8-.1-.7-.7-.8-1 .2-.8 0-.7-.6-.2-.1 0 .3.2.1.4-.1 0-.6-.3-.3.1-.2.1-.3.4 0 .3Zm-.4-1c.4-.6-1.2.3-1 .4.6.3 1-.3 1-.3Zm5.1-2.4c.4.7.6-1.2 0-.5-.9-.5-.3.2 0 .5Zm2.3-4c.3.5.4.5.4 0 .6 0 .8-.2.3-.6.6-.5.4-.6-.1-1-.9 1 .1.8-.3 1.1-.6-.7-.8 1-.3.6Zm57.6-27.6c1.3 1 5.8.6 1.8-.8-1 .3.4-1-1.1-1.6.1-2.7-1.4-2-2.7-.4 1 .2.8 3-.8 1.8-.3.1.2 1.4-.4.9-1 1.3 2.5.3 3.2.1Zm23.9-6c.3.4.7 1 .8 1.5.8.9.9-1.6.2-1.5-.2-.4.5 0 .2-.5-.5-.6 0-1.3-.2-1.3-.5.2-.1.6-.4.7-.4.2-.6 0-.8-.1.5 1 .6.9.2 1.3Zm1.3 4.8c-.3.2-1.4-.5-1 .3.8 1.4 2-.8 1-.3ZM261 190s-.7-.4-.6.2c0 .4.6 0 .6-.2Zm19.4-13.1c-.3-.2-1.2-.4-1 0h1Zm17 11.4c-.3-1-.6.5 0 .9 1.2.7.3-.7 0-.9ZM313 187l.3.4c.2-.2-.5-1.6-.9-1.8-.4-.1.4 1.3.6 1.4Zm31.1-27.8c-.6.3-.7.2 0 .6.6.4.4-.7 0-.6Zm12.3-5.6c-.3-.6-.6 0-1.1 0-.3.6 1 .2 1 0Zm-1 1.6c-.4-.5.4-.3.8-.5-.2-1-2.3.8-.9.5Zm16.4 4.5c.1 0 1-.2-.1-.6-.6-.2-.1.4 0 .6Zm.5-.7c.1.2.7-.2.4-.3-.3-.1-1 0-.4.3Zm-72.5 28.4c1.3 1.5.6 0 0-.8-.5-.5-.4.8 0 .8Zm-45.3 3.3c.2-.3-.4-.4-.6 0 0 .2.5.2.6 0Zm.8.8c.1.1.3 0 .2-.2-.2-.1-.5 0-.2.2Zm7.6-.6c0-.3-.4 0-.4.2-.1.3.3.1.4-.2Zm-3-3.7c.1 0 0-.3-.2-.4-.2-.1 0 .4.1.4Zm2.3-4.3c.1.1.3 0 .2-.2-.2-.2-.2 0-.2.2Zm0-1.2c0-.2-.3-.2 0 0 0 .2.1.3 0 0Zm6.3 1c.5-.2-.6-1.1-.2-.2l.2.1Zm4.8-1.4c0-.4-.4 0-.3.1-.3.5.2 0 .3-.1Zm.3-.2c0 .2.7 0 .4-.2-.3-.3-.7-.3-.4.2Zm25.6 4.2c.3-.1 0-.3-.2-.3 0 0-.1.3.2.3Zm42-30.6c-.3.3.5.3.3-.2-.3-.5-.2-.2-.3.2Zm2.3-.4c-.2 0-.3.1-.2.2.1.1.3 0 .2-.2Zm110.4-9.5c0-.2-.2 0-.2 0-.3.2.3.3.2 0Zm-.6 2.1c.1.2.3 0 .2-.2-.1-.1-.2.2-.2.2Zm11.7 9.8v-.1s-.1 0 0 .1Zm.3 0c-.1 0-.1 0 0 0Zm1.4 1c0-.1-.1.1 0 0ZM537.4 258c.7 0 .3-1.2.3-1.3 0-1.6-.7 1.3-.3 1.3Zm6.9 1.1c1-.3.2-1.3-.4-1.2 0 0-.2 1.5.4 1.2Zm32 48.5c.5.7-.2-1.5.6-3-1.9-.4-1 1.8-.6 3Zm.2 3.8c.6-.2.9-2.5 1.3-3l-1.2-.3s-1 3.6-.1 3.3Zm-76.7 107c-.3.7 1.3.6 1.7.3 1.1 0-1.6-.3-1.7-.2Zm-13-4.3c-.2 0-.5 1.2 0 1 .6.4 3.3-.6 1.2-.8-.4.2-.9 0-1.3-.2Zm49-155c-.4-.4-.4.6-.3.8 0 .3.7-.5.4-.7Zm13.7 8.2c.2.2 0-.8-.2-.3-.3.3-.3.3.2.3Zm4.5 6.4c-.1-.3-.5-.5-.6-.8 0 .2.5 1.8.6.8Zm-.6-.9v.1Zm18.3 15.4c.5.3-.3-.6-.3-.6-.4-.3 0 .4.3.6Zm-33.7-31c.3 0 1-.4.8-.5-.2-.1-1.2.4-.8.5Zm5.7 1c.3-.6-.4 0-.5.2-.4.6.4-.2.5-.3Zm5 7.8c0-.2-.3 0-.3 0-.1.3.3.3.3 0Zm-39.5 194.5c-.5.7.2.3.1.5 0 .2-1 0-.6.4.1.1.8 0 1 .2.1.3-.7 0-.4.6.1.1.6-.3.8 0 .2-.3-.6-2-.9-1.7Zm-1.2 2.4c.1 1.5-.8-1-.6 1.3-1-.5-1.5-1-.5.3.7.6.5-.6 1-.7 1.3 3 2.3-3 0-.9Zm11.3-10c-1.3 0 2.5 1.3 0 0Zm-1.2 3.3c-1-2-2.6 2.2-.4.8.2-.2-.8-.2-.4-.5 0-.1 1.7.2.8-.3ZM383.7 155.7c.5.2 1-.6.9-.6-.3 0-1.5.3-.9.6Zm3.3-.7c.3 0 4.2-2.6 1.2-1.1-.4.5-.6 1-1.1.3-.6.6-2 1.6 0 .8Zm5.6-6c-.9-.3-.3.9-.8 1.5-1 .3-1.5 1.7-2.2 2.3 0 1.4 3-2.9 3-3.8Zm-5.4 9.2c-.1.2-1 1-1 .2-.5.8-.7-.1-.7.6s3-.7 1.7-.8Zm-1.5 15Zm33.5 31.2c-.1-1.4 1 1.4 2.2-.9.9.5 1 0 1-.8.1-.2.5.4.6 0 0-.2-.7-.1-.4-.3.8-.3.8-.5 1.3.3.3-.5 1.8-.2 1.4-1-.2-.3-.2.3-.4.2-1.4-1.3-2.6 0-4.3-.1-.9 0-2.8 3.3-1.4 2.6Zm3.6 2.7c-.3-.6-1.2 1-1 1.2.2.4 0-.2.5-.3.6.5 1.8-.1.5-1Zm30.3-61.2c.8.5-.4-1-.6-1.2-1.3.2-.9 2.7.6 1.2Zm43.8 73.6c-.2.1-1.1-.6-1.5-.3 1 .7 2 3.6 3 1.6-.5-.6-1.3-1-.6-1.8-.1-.1-.4.3-.7 0-.4-.7 0 .4-.2.5Zm7.2 8c-.4-.1-1 0-.8.6.2.4 1.2-.5.8-.6Zm22.7 10.2c.5.4 0-.4.4-.7.8-.4-1-.4-.9.6 0 .3.4 0 .5 0Zm.2.7c.6.3-.3.3-.2.7.4 0 .5-.4.4.2.2.3.3-.4.6 0l.2-.3c1 .7-.1-.5-.4-.5 0-.9-.4-1-.6 0Zm1.2 2.9c.6 0 .5-.6.4-1 0 .7-1 .8-.4 1Zm0 0Zm-153.8-83.6c.2-.3-.7-.2-.8 0-.1.3.6.2.8 0Zm15-.2c0-.1-.1-.4.1-.8s-.6.9-.2.8Zm1.5-1.4c.3-.2-.8.1-1.1.3-.2.1.7 0 1.1-.3Zm2.3 3.6v-.4c-.2-.6-.5 1 0 .4Zm25.7 45.6c-.3-.3-.7 0-.7.3 0 .1.8-.2.7-.3Zm34-61c-.2-.3-.5 0-.5.2.1.3.7-.2.6-.3Zm.8 0c.4 0 .1-.4 0-.3 0 .2-.4.3 0 .3Zm68 92.3c.3 0 .1-.4 0-.6-.3-.5-.3.8 0 .6ZM384 156c0-.3-.5.2-.4.3l.4-.3Zm4.7 1.2c-.1.1-.5.6 0 .4.6-.2 0-.4 0-.4Zm-3 3.2c.5-.1 0-.2-.1-.3-.2 0-.4.4.2.3Zm68.1-14.3c0-.2-.2 0-.2 0 0 .2.2.2.2 0Zm102 219.4-.2.3.3-.3Zm-75.7 49ZM363.4 157.4Zm214.9 160c.1-1-.1-1.3-.6-1.6l.2-.1c-1.3.3-1-2.7-1.6-1.9-.2 0 0-1 .2-.4 0-.2.3-1.6 0-1.3-.2.3-.4.3-.2-.2 0-.2-1-1-1-1.1-.1-2.1-1.5-1.5-1.7-3-3.2-.8 1.3-1.4-1.1-1.5-1.1-.9 1.7-1.2 1.6-1.3-.7-1.4-1.4-4.7-.9-6.7-1.6-.3.4-3.4.8-4.3-1.6.2-.7-.7-1.5-1.1.3.4-.1 1.2-.5 1.4.4-1.3-.2-1.8-1.1-2.3.6-.3-.5-.3-.4-.5.7 0 0-.8.1-1.1.3-.5 2-2-.2-.9.7-.8.6-.6.4-1.8-.4 0-.8-.2-1-.4-.4 1-2-.7-2.8-.7 2-.2-.4 0-.8-3-.2-1.2-3.8-1.8-4.8-3.4-.5-.6-1.4-3.3-1.8-3.6-.2.5-.5.4-1 0-.4-.4 0-2-.8-.7-.6-.1 0-.5 0-.5-.3 0-1.2-.7-1.3-.2.4.2.8.5.8 1-.3-.1-1.3-1.1-1.4 0-.7 0 .3-1.5-1.3-.9-.6-1.2-2-1.6-3.1-2.2l-.7-1.2c.6.8 1.7 1.5 2.2.8-.3-1.3-1.2-.8-.7-2.5-1 1 0 .1-1.1 0-.4-.1-.6.1-.8-.4-.7.1-.5 0-.1.5-.3.2-.1.7.2 1.2-.4-.6-1-1-1.7-.6-.6.4-.4-.3-1.2-.5 1.7.1.1-.6-.1-1.3-.3-1 .5-.6.4-1-1.5-1.6-.4-1.4-.8-3-.5-.2-.4-.4.2-.3 1.2-3.2-.2-1.6 0-3.7 0-.5-.2-.2-.2.3-.3.9-.5.5-.5-.2 0 0-.6.3-.6-.5.2-.5.7 1 .8-.1.7-.3-.8-.6-.7-1.3-.3 0 0 .6-.1.6-1 0 .5-.8-1-.9-1.4.4 1.6 4-.5 2.2-3.2-1.9-3-.8-5.3-4-2.6 1.2-.6 3 0 5-2.4-1.7-1.3-3.5-4.2-1.5-.3 0 .3-.4.3-.4.3-1-.4-1.5-1.2-1.7.8-.4-3-5.3-1.2-5.3-1.1-1.7.6-1.2 0-2-1.4 1.3-.2-1-2.2-.3-.1-.7 1.3-.8 0-1 .7-.2 0-1-.1-1.3 0-.5-.3.3-.6 0-.5-1.2.8-1.8-.7-2.6-1 0-.1-.4-1.4-.2v-.2c.2-.1-.1-.4 0-.4.2 0 .6.2.5 0-.4 0-1.8-.5-2.1-.7-1 1.1-.3 0-.4-.6-.4-.3-1.8-.5-1.3-1.4-1.9-1 .6-.7-.4-2 .3-.2.3.6.9.4.5-1.2.5 1 1.7.6 0-.4-.9-.4-.1-.6-.6-.4-1.2-.5-.8-1.3 0 0-1-.5-.5-.6 0-1.2-1.4.5-1.6-.5.3-.2.4-.6 0-.3 0-.5-.3-.4-.3.1-1.1.2-.3-2.3-1.3-1.2-1-.4-1.2-.2-.5.5 0 .2-.6 0-.5.3 1.3 0-.5.7-.3 0l-1.5-.8c.2-.4.5-.5 0-.8.2-.6-.2-.1-.5-.6-.1.1-1.4 0-1.5-.6-.6-.2-.7.8-1.8.1-.8-1.6-2.5-3.1-1.5-.5-1 .3-1.9-.8-2.5-1.3 1.4.6-1.8-4.6-1.7-3.7 2 1.4-2.5.7-3 .9-.9-.3-.7-2.1-1.3-2.3 0 2.1-2.3.8-2.9 0-.3 0-1.2.1-2.2-.4-5.7-3-1.7-4.1-2.4-5.9-1.8-.7-1.3.5-1.8-1.5-2-.5-2.6-2.3-1-3.9.5-1-.5-2.5.7-3.3-1.6-1.4-.2-2-1.3-2.7-.6-1.2-1-2.2-1.7-3 .1-.6 1.4-1.9.4-1.7-.6.8-1-.3-1.5.6 0 0 .4.7 0 .6 0-2-2.5-3-3.5-5-1.7-.1.1-2.1.1-2.3-1.2-1.1 1-1.4-1.3-3.3.1-1 0-2.5-.8-3.5-.7-.7.6-.4-.5-1.1 1-1.2 0-1 1.3-1.6 0-.9-1.5.7-1.3-1.2 0-.6 1.3-1.8 1.2-2-.6.3-1.8-.3-1.4-1-2.5.7-2.7-2-4.4-2.2-1.2-.8-3-.5-2-2.6-1.6 1.2 0-1.9-1.8-1.8 0 .8-1.1 1.4-2 1.5-2.2-1.6-.8 2.6-4.8 1.6-2-.7-1.5-3.1-2-4.4-3-2 0-4.6-1.8-7 .3-1.5-.7-3.5.3-4.5-.6.4-1.7-.1-2.1.4-.4-.5 1-1.9.4-2.1 1.1-.8-1-.8-1.3-1.5.1-2.9-2.8-.1-2.2-3.5.4-.3 2.4-2.3 1.4-1.9-2.2-1.2-1.9.7-3.7-1a16 16 0 0 0-.5-3.7c0-1 .8-.1.1-1.6-.9-.3-.1-4.4-1.9-3-.1-.3.4-.7-.3-.6-.1-1.4-.9-.4-1.4.1-.6-.8 2.2-1.9.5-2.2-.2-.7-.7.3-1.2-.1-.9 2.1-1.3 1.7-3.2 2.3.3 3.5-1.6 6.8-2.3 10 0 0 1.1.4 1 .8-.5.3-.8-.8-1.2.3-.2.4-.1-.6-.3-.8.2-1.8-1.6 1.3-1.7 1.9 0 .4.2-.2.5.2.4.4-1-.1-.8 0-.2.8-2.2 3.9-.7 3.1.4 0 .6 0 0-.1v-.9c.6.3 1.7 0 .4.6 2.2 1.4 1 .4 3.1.8-3.3.9-.7.8.2 1.4-2 .6.2 1.1-.6 1.8-.6-.4-.3-2.9-1.3-2 0-1-.5 1-.9 1.3-2.5 1-1.3 2.4-.5 4-6 9.5 1 5.2-1.9 11.5-.4 1.7 1.8 5 1.5 6.4-3.9 5.6-1.8 13.7-7.8 18.6.6 4.9-7.8 8.5-11.2 6-2.9-1.3-9-1.9-8.6-5.8-3.7-3.2-9.4-1.3-12.8-4.8v.1c-3.2-3.8-7.3-4.3-11.4-6.6-.7.2-.2 1.1-1 .4-.6-.4-2.5 1-1.7-.3-.8-1.4-2.8-2.3-4.5-2.7-1.3-.8.4-1.4-2.2-2.4-2.5-1.4-4.6-2.7-7-3.8-.6-.5-1.7-3-.6-2.3 1.6-1 2.7-5 5.4-5.2-.2-1-.3-2.2.8-2.9.4-.4.3-1.8.9-2.2.2-1-.9 1.4-1.8.6-.7-.4.5-.4.1-.7-.8.7-.9-2.7-.1-2.1.5.3 1 0 .8-.2-.7 0-1.3-1-.3-1.6.5.8.2-.2.5-.4.6-.1.5 1 .7 1 .2-.1 0-.7 0-.8.5 0 .5-.9 1-1.1.5.6-.6 1.8 1 .8.2-.2-.3-.8.2-.8 1.5 1.5 0-1.2 1.2-.7 0 0 .4 1.6-.1 1.9-.4 1.6.4-.2 1-.3.3.6.4.1.4-.3 2.3-1.5-.8-1.8.5-2 .5-.4.3-.1.6.2.7-.7.4.4.9 0 .4-.5-1.1-.8-1.3-.8.4-.7-1-.6-.8-1.4.2-.3.4.5.7.4.6 0-.2-.8.2-.7.4 0 .2 1 .7.9.3-.1-.2-1-.1-1 1.4-.3.4-1.1 1.8-1.6-.3-.7-.9-.8.3-1.1.4.2-.6.7-.2.9 0-.6 3.3-2.4 1.7-1.9.4-1-1.8-2.2-2.7-1.6-.4.4 1.2 0 .8.6-1 1-2.1-.8-1.8-1.6-.6-1.2-2.5-.7-.2-1.4.3-.2.1-.7 0-.6 0 .1 0 .4-.2.5-1.6 0-2.8 1.2-4 2.1-.8 0 .4.6.4.6.5.1 1-.4 1.4.1-.3 2.8-2.1 1.8-3.6 2.4-.6-.4 0-.8-.3-.8-1 .2.7-1.3.6-1.4-.3-.7-.4.7-1.3-.1-.4-.4 1.3-1.3 1.2-1.6-.4-.1-.8.6-1 .7-.5.1-.5.4-.6.4-.5-1-1.6.8-2 1.1.2-.4-.3-.4-.5-.7-.6-1 1.6-2.1 2.4-2.4.5-.5-1.7.4-1.8.1.4-.4 2.8-1.6 2-2.2-.2 0-.4-.2-.5 0 .8 1.8-3 1.3-3.3 2.5-.2.7.5 0 .7 0 1 0-.6.7-.7.7-.6-.6-.7.3-1.4.2-.8 0 .5-.3-.7-.3-.6 0-.7.6-.7.6-1.8.4.2.6.3 1-.2.3-2.8-1-1.2.4-1.3-1-1.2.4-2.6-1-2.4-.6-2-2.9-3.4-2.2-1.5 2.6-4.6-1-5.6 1.2.2-.7-.1-1.5-.6-2 0 .1-.3.6-.6.4.2-.3-.1-.6-.4-.8-.1 0-1.2 1.5-2.3.2-.3-.6 1-.7 1.2-1l-.3-.3c-1 .3-1.2-.5-1.8.5-.3.1-.5-.1-.8 0-.8 1.5-.9-.6-1.5.7-.5.7.2-1 0-1-.9.4-1.6.7-1.4-.2-.4-.1-.4.8-1 .3-.6-.3 1-.6.2-.7-2.6 1.5-2.4-1.6-3.7-2.4-.6-.4-.8-1.1-1.6-1 0 .1.6.4.4.8-.2.3-.5-.4-.7-.2-1.4 2.4-2.3 0-3.6-.6-1.4-3.5-.7 1.8-2-2-.1.8-.6-.1-.7.5.6 2.2-.6-.7-1.4-.5-.3.1.6.8.5.9.1.2-.3 1 .2.9.7.6.2.4-.2.4.5 1-.6.5-.5-.5-.7 1.2-.4-.6-.3-.8-.6.2-.6-.6-1.4-1-.6-.1.4 1-.5 1.3-1.5-1.6 0 0-1.4-.5-.2 0 .4.5.3.7-.2.3-.6-.4-.6-.1-.7 1 1 .2 1.5.5-.2.6.2.2.5.3.3.3-.6.2-.2.6l1 .2c-.2 2.6 4.5-2.1 6 2 .3 0 1.3 0 1 .3-.4.4-.5.8-1 1.1 1.5.9-.5 3 1.2 3.4-4.6-.8-1.8 1-3.5 2.4-.2-.1.4-.6.4-.6 0-.8-.9-1.4-1.4-.7-.5-2.1-1.4 1.1-3.2.5-2.2-1.6-7.5 2.3-7.7-2.4-.3 0-.7 1.7-.6 1.7 0 .8-.8-.8-1.3-.4-.2-.3-.3-.4-.5 0-2-1.4.4 2.5-.7 1.7-1.4.2-.9-.7-2.1.5-.3 1 1 .2 1.3 1 .3.6 0 0-.5 0-1-.1.5.8.7 1 .2.4-.3 0-.5 0-.5 0 0 .3-.2.3-.4 0-.4-.8-.7-1-.4 0-.5 0-.4.4-.5.1.1-1-.4-1 .7-.7-2-1-2-.7-.1.1.3.1.4.3 0 .2-.6 0-.2.5.2.2-.4.7-.3 1 .8 0 .4.5-.2.3.3.5 1 .5 1.5.8h-1.2c0-.2 0-.2-.3-.1 0 0-.3-1-.6-.9-.4.1.3.5 0 .5-1-.6-.8.5-1.6.2.2 3.8-1 1.7-2.5 2.9 0 0-.2 2 0 2 .3 0 3.4 2.4 1.6 1.4-1.2.7-3.5 3.5-4.2 1.2-1.9 1.9-.3 3.1-1.9 4-.3.6 1.4.9-.7 1.7-.3.2-.6 0-.6-.3-.5.2.5.7-.2 1-.1-.3-.2-.3-.5-.1-.2 0 0-.4-.2-.3-.1.2-.3-.2-.5-.1.7 1.1-1.5 2.3-1.3 3.6 1.5.8 2.9 2 4.7 1-.2.7-1.8.7-2.1.8-.6.4.8 1 .8 1.1-.1.8 1 .7 1.4.5-1.1 1.3 1.2-.3 1.7 0 .5-1 .6-.5.2.2-.5-.4-1.2.6-1.8.7-2-.6-2.4.5-1.6 2.3.4.4 1.6 1 .2 1-.2-1.1-.4-.6-1-.3 0-2-.6-.9-.9-2-.5-.6-1.3-.5-1.4-.5-.5-.8-.7-.3-1.3-.3-.8-1.8 0 2 0 2.1 0 .2-.3.2-.3.7-.2 1-.3.4-.2-.1-.2 0-.4.6-.5.6-.3-.4.8-1 0-1.6 1.6-2-10.6-3.7-8-2-1 0 1.2 3.2-.8 1.3-.4 0 0 .6-.2.6-.3-.4-.2-2.4-.8-.8-1.5.8-.5 1-.7 2.3.2.7.9.4.9 1.4-.1 1.7-.8-2-2-1.6-.2.5.3 3.2-1.1 3 1.3-.9-.2-1.8.7-2V189c-.5-.3 1-2.6.5-2.8 1.2-.5.7 0 .7-1 .2-.3.5.2.5-.2-.1-.3-.2-.3-.6-.2-.3-.1-.8-.9-1.3-.6-.3-.8-.4-.9-1.2-.7 0 0-.4-1.3-1-.9-.4-.1.5-.4 0-.6-.3-.2 0 .4-.4.2-.2-1.5-2.7-3.6-4.2-3.7-.5-1.2.6-.4-.9-1.2-.1 0-.1-.3-.3-.3-.6 0 .4.9-.2.5-1-.4-.5-1-1.4 0-.2 0 .2-.8-.3-.7.2.8-.9 1.3-.8.1-.6-.2-.4.2-.2-.5-.6 0 0-.1-.4-.3-.3.4-.5-1.4-1.5-.6.8.6-.5-.2-.6.1-.2.3.4.4.3.4-1.9-.4-1.5-.4-.8 1.3.7 0 .7.3.1.1-.4.2.5.2.2.4l-.9-.1c-.2.4-.2.2-.5 0-.3.5.2.7.5.4-.3 1.5-.4.9-1.2.6.4.6-.3 1-.4 1-.3 1.2-.4-.1-.4-.4-.2-.2-.4.3-.6 0-.2-.2.2-.9-.1-.6-1.8.4 1.3-1.5.2-1.5-.2.3-.6 1.2-1 .5-.6.8-2.3 1.2-1 2-.2 0-.5.2-.6.5-1.8-.8-.7-1-1-1.5 0-.2-.2.2-.3.1-.2-.5 0-.2.5-.5.1-.2-1-.3-.5-.3.1 0 .6-.3.5-.4-.2-.2-1 .7-1.2.5-.2-.3.9-.4.2-.6.7-.4 0-.1-.4-.2.3-.6-.2-.5-.3 0-.1.1-.6-.3-.6 0 0 0 1.4.5 1 1-1.4-1.4 0 .8-1.3-.5-.2 1.8 3.8 0 .9 2.7.5 1.2-.6.7-1 1.2 0 0 1.5 1.6.3 1.2 0 .8-.2 0-.8.1-.5.1.2 1.2-.2 1.2-.7 0-1-1.2-1-1.5 0 0 .6-.2.3-.4-.5.1-.4.4-.5-.1-.3 0 0 .3-.5.3-.6 0 .2-.7-.3-.7-.2.2-.7 3-1 2.1 1-.8-.6-3 .8-2.7 0 0 .3-.6.2-.7-.4.9-1.4-1-1.3-.2-1 0 .7 2-.2 3-1.5.3.3-.5-1-.6-.4.2 0 .6-.1.6-.5-.6-.3.1-.4.4-.4-.1 0 .4-.2.5-.4-.6-.3-1.6-1-.4-.4 0 .5-1 0-1-.1 0-.1.6-.3.8-.3-.3-1.1.3-1 .5.3 0 1.3 0 .4.2-.2.7-.1 0-.7.2.3 1.1-.5-.4-.3.6-.8-.3-.3.5.1.4.2.2-.2.6.2.8.2 0 2 0 1 .4-.3.4-1-.2-1.2.5-.1.3.4 0 .6 0 0 .5.3 0 .6.1-.9.6 1.3.3 1.5.4.2.3-1.4.5-.4.7-1.2.7 1.4.2.2.8-.5-.4-1.7.4-1.4-.6-.4-.4-1.4-.1-1.4-.8-.5.4.4 1 0 1.5-.6-.2-.1-2-1-1-.4-.1.3-.6 0-.8 0-.2-.2.1-.3.1-1-.6.7 1.2-.5 1-.3.5-.6.3-1 0-.3.2-1.6 1-.4.7-.2 1 0 1 .7.3.5-.2 1.9-.8 1 .1 0 .5-.9-.3-1.1.2-.2.3-1 1.4.5.9.8-.4 1.3-.2 2 0-2.3.8 1 2 0 1.8-.4-.2-1-1-1 0-.5 0-.3-.4-.4-.4-.1 0-.5.3-.6 0 0-.2.5 0 .3-.4-1.1-.5-.8-.6-1.9-.7.1-.3 0-.4-.3-.6-.3-.2-.3.5-.6.5.4-1-.2-.5-.9-.9-.3.3.3.4.4.6 0 .2-.4 0-.4.3-.1.1 1.2-.2.6.2-.8 0-.3 1-.4 1.1-.7 0-.2-.6-.5-.6-.2 0-.1 1-.2 1-2.7-1-.8-.4-2.4.1-.5-.4.4 1.1.3 1.3-.1.2-.2-.2-.3-.2-.3.2.3.5-.3.2.4.5 0 2.8.8 1.6.2.4.1 1 .6 1.1 0 .1-.4.5-.1.6.6 0 .7-2.7 2.6-2 0 .2-.6.5-.4.8-.5-.5-1 .2-1 .7.6.6-.7.2 0 1.6-.4-.3-.8.3-.9.6-1.1-2.7-1.6.3-1.1 1.6 1.5-.9 7.7 1.6 3.6.4-1.3 0-2.8.5-4-.4-.5.2-.3 1-1.8.5-.4-1.2-1.5-1.4-2.7-1.5-1.3-.6-.5 0 .1.4-1 .1 0 .5.1 1 0 .2-.8-.5-1-.5-.3 0 .3.7-.4 1l-.3-.7c1.4-.3-1.2-.7-1.2-1 0-.2 1 0 1-.2.2-.2-.6-.1-.6-.3.8 0 .2-.6-.5-.7-2.5.2-1.2.6-2 1.3l.8.5c.1 0-.3-.5.1-.3.2.4.8.3 1 .5.1.8-.9-.1-.9.2 0 .2 1.3.7.7.6-1 0-1.1-.4-2-.1.4.3 2.7.7.9.8 1.4 1-2.6-1.2-1 0-1.3-.1-.6.2 0 .7.4 0 1-.8 1.3 0-1.3.4 0 .6-1 .6-.7.3 1.4.3 1.8 1 .8 1.3 1.4 2.4 2.7.8.9 0-1 1-1.1 1.4 0 .1.6.5.4.6-1.8-1-.2 1.7.5 1.9-.8.6-2-2.1-2.6-1.5-.2 0 0-.7-.3-.7-2-.1 0 1.8-.1 2 0 .3-1 1.6-1 2.4 1.6 4.5-3.2-4.7-4.5-5.2 0-.6.5-.9-.5-1.2-.3-.8.6-.4.4-1-.3.3-.3.6-.7 0-.7.3-.4-.2-.6-.6-.8.6-.4-1-.3-1.4.6 0 1.3 0 .1-.5.6-1.7-1.7 1-1.7 1.3-1.3 0-1.6 1.5-.4 2-.9-.2-1.7.7-2.5.1-.8.5-.6 1.2.1 2-.8.2-1.3-1.6-1.4 0-.5.3 0-.4-.3-.2L232 208c.7.3-.5 1-.8 1.2-1.3 2.6 1.3 5 0 7.2.2.2 1.2-.5 1.9 0 .9 2.2-3.6 2.8-4.5 4.5-1.4.7-1.2-.7-2.3 1.4 1.4.5-.6 1.5-1.3 1.2-.4 9.8-15.9 11-22.3 13.2-1-.1-4.5-2-4.9-.6-1-1.4-2.8 1.7-3.6 2.4-3.3 1.6-8.4-.3-10.9 3.5-2.8.3-6.2 2.6-7.5-.2-.7 0-6 2.8-3.5-.6-1.3.5-5 4.1-7.2 3 .1 1.4-1.3 1.6-2.4 2-2.4 1.8-4.4 4-7.3 5.1-3 1.5-7.1 1-8.4 4.5-.2.4-.3-.6-.6-.4.6 1.6-1.4 2.8-1.4 4.7-.4.5-1.4-1-1.9.2-.2.5-1 .2-1-.2 0-.6.9-1.5.6-1.7-.3-.3-.3.4-.6.3-.2-1.4-.6-3.8.8-5-2.4-1.1-6 7.6-5.7 8.8 2.8 1 .8 3.4 1.2 5.5.2.5-.1.6 0 .9 0 1.7-.9 1.4-1.9 2.3-1.3 1.3-1.7 4.7-2.4 5.9-.7 3.8 3.2 3.2 2.5 6.4l4.7 7.2c.6.5 1.2.9 1.3 1.6.8.3 1.6.3.9 1.4 0 .3.4.3.3.5-2 0 .5.3-1 1.8.1.6 1.3 2.2-.3 2-1.4 2.7-3.1-3.3-2.9-4.1-.3-.3-1.3 5.2-2.3.8 1.7-3.4-2-2.7-2-5.3-.4.5-1.2 1.4-1.1 2.1.1.6 1 .4.5.9 1 1.2 1.3 2.9 2.5 4 .7.3 2 .2 2.2 1.2-.4.6.2 1 0 1.6-.7.2-.6 1.4-1.2.8-1.2 0-.6.8-1 .7-.6 0-.5-1.6-.6-1.9-.4 0-.4 1.5-.6 1.4-.2-.1-.3-2.3-.3-2.6-.8-1.5-.2.2-.5.5-.3-.4-.6-3-1.2-2.3-.1-.4 0-1-.3-1.3.4 1-.4 2.5.2 3.5-1-.5-.5-2.5-1-3.5-.4.4 0 1.6-.2 2 0 .2-.2-.2-.3-.3-.3-.3-.5-.2-.8-.3 2 3.6 10 9 10.8 15-2 4.6 5.2 6.2 5 10.2 3.1 4.6 4.8 4.9 4 12-.4.8.6 1.4.3 2.3.9.3.4 1.4.8 2.3 0 1 1 2.5 1.4 3.5 2.3 3.2 8.8 10.8 5.4 14 .3.5 1.2.4.4 1 .6.5.4 1 0 1.6 1.5 1 .2 1.1-.5.8 1.4 2.5 0 1.7-.3 0 0-.3 1.3-1 .6-1-2 1.8.2 4.7 0 7 .2-.8.6-.1 0 .7-.5.1-.7-.3-.8.3-2.1 5.5-6.5 1.3-6.8 2.3.3.8-.5.5-.5 1.2.3.6.4 1 0 1.6 0 1.2.6 6 2.4 4.3 3-.3 7.7 2.5 9 5.1h1.4c.7 0 3.9 1.7 3 .3 1.4.8 2 .8-.2.7 1.8 1.4 3.8.6 5.8 1.2.7-.5 1.9-.4 2.7 0 1-1.8 4.9 1.5 5.4.4.6-1.5 3.5 1 4.2 0 .2-.3-.6 0-.8-.1 0-.3-.5-.7-.4 0-2.1-.6 2.7-1.1 3.3-.6.4-.4-.5-.6-.4-.7.7-.7 2.6 0 2.7-.5-.6-2.7 3.9-1.3 3.8-3.4.4-.7 2.4 0 1-1 1.2 0 3.6 0 4.3.9.8 0 .3-1.8 1.5-.4.6-.2-.2-1 .4-1.2.2-.2 1 .5 1.7 0-3.3-1.3 3.7-4.3 5.2-4.4 6.6 1.2 13.1-2.4 19.4-.2 1 .3 2-1.5 2.6-.5 1.8.7-.2 2.5 2.1 1.4.4-.1.1.5.5.2.4-.2-.4-.5 1.1-1 .9-.2 2.5 1.1 2.6-.1 2 0 3.6-.3 5.5-.3.9.4.2 2 1.3 1.2 1.3-.6 2.4-1.5 3.5-.5.6-1.1 2.8-.7 2.6-2.2 4-1.9 2.5-7.9 8.4-7.6 3.7 0 7.4-3.5 11-3.8 5.7-5 14-1 20.5-2.8 5.9-1.5 12-2.7 17.6-5.4 7.3-2 16.2.2 23.2-1.8 1.5-1.3 11.2 3.3 12.2 4.7.8 1 2.5-.3 3.4.3.3-.1-.6-.4-.2-.6 4.2-1.7 6.8 3.5 10.9 2.2.2 0 .6.3.5 0-.2-.4-1.1-.3-.8-.6 1.2-.4.5.3 1.5.4.6 0-.3-1.2 1.3-.7.3.1 0 .3-.1.4 0 .2.3 0 .4.2-.5.6.4.3.7.5.1 1.3.2-.5 1.4 1 .5.4 1 1.4 0 .7-.4.2-.4 1.2-.4 1.4.2.2 2.8-1.1 3.2-.8.9.7 1.6 1 1.7 2 0 .2-1 2-1.1 1.1.7-.7-.2-.5-.8-.5-1.4-.4 0 .4 0 1.1-1.5 1.4-.2.7.9 1.1.5.7-.6.6-.6.7 0 .4.8 0 1 .3.5 2.5 1.9.3 4 1.5.2.3.6.5.7.1-1.8-.7-1-1 .4-.5.6 1 .1.4-.3.7 1.4.6 2.6 2.4 1.8 3.9 1.4 1 6.3 3.1 4.4 5 2 .2.9 4.8 2.2 3.8 0 1 .5.3.8.8-1 .4-1.9-.2-2.3-.7.6-.7-.6-.2-1-.6.1-1.5-.5.3-1 .7-.6 1 1-.5 1.6.2 1.3 1.7 3 1.2 4 3.5.8.6.5-1 1.8-.9.9.2 2.3 2.8 2.3.7-1-.5 1-1.3 0-1.9-.3 0 .1.5-.3.6-.2-.7-1.5 1-2 .2.3-1 1.8.2.7-1.2.4-1.3.8 0 1-.5-.8-1 1.4-2.1 1.7-1 .7-.4-.4-1.4.6-1.9 1.6-.2 1.5-1.8 2.2-2.5.9-.5 2-.8 2.6-1.6.4-.3 5.4-1.9 3.7-1.5-.6.3-.7-.2-.1-.3.7-1.4.8 1.1 3.3-.7 2-2.5 2.3-5.1 4.8-6.9.8.2 1.8 1.2 1.1-.3 1.2-.1.4-2 0-2.2 0-.2 0-2.1.3-1.4 0 .1.4 0 .4.2-.4 1 1.8 1.7 1 2 0 2.6 1.5 2.2 1.6 3.4-4.2 1-2 1.3-1 4.2-.8.9-3 2-4 3.1 1 .6-.6.9-.8 1.3 0 .2.6 0 0 1.3-1.7 0 .8 1.2-1.3 3.2 2-1.1 1 6.6-1.3 4.2-2.3.4-2.6-.7-4 1.2 1.2.7-.7 1.5-1 2.1.5 1.1 2.5-.6 3.8 0 .4-.7 1.1-.8 1.9-.7 1-1.6 3.8 1 4.4-.5 0-.8 1.8-4.6 1.7-4.9-1-1.7 1.5-2.3 1.5-3.1-1-.2 1-3.1 1.2-.3 2.2 1 .5 1.6 3.2 3.6 0 .6 1.4 1 1.2 1.6-1.2-1.2-.5 1.7-.4 2.2-.7.7-.6 2-.8 3-.6.7-3.7 2.1-3.8 2.7-.1.7 2 .3 2 .3 2 .4 3.4-.2 5-1.1.4 0 3.6.6 2.8 0-.3 0-2.1-.3-2-.6.3-.2 2.3.6 2.6.4.5-.4-1.5 0-.8-1 .3-.4 1.2-.1 1.9-.3 1-1 1.5-.2 2.2 0 .4-.4.2.3.1.5 1.2 1.1-1.1.4-1.4.8.2.5 1.6 0 1.4 1.3.2.7-.8.6-1.3.4-.2-.3.3-.2.3-.4s-.4-.1-.4-.3c1-.8-1.6-1.7-1.7-.4.2 1.2 6.6 3.3 6.7 6.3-1.9-2.4-5.1-5.6-8.3-6.3 3.9 1.6 14.8 10.2 8.3 13.4.3.8 2.1 1.8.7 2.2 2.1 3.3 5.2 3.4 7 7 2.4 2.5 10.8.6 11 4.7.3.6.7-.2 1.1 0 1.1.2.5.6 1 .6.3-.6.7-.3 1-.4-1.3-2.8 4.8-.5 5.6 0 3-.7 4.6.1 7.2 1.7 10 4.2 9.2 1.5 18-2.8 1.6-.2 2.2.5 3.2-1 .4-1.2-4 .7-4-.6.3-.3 1.7-.1 1.8-.1-.1-.8 1-.6 1.5-.9 1.5-.7 1.9-1.3 3.2-1.4.6.3.4 1 .8 1.3 3 1.2-1.3 4.5-3.7 3.2 4.5 2.9 1.9 1.2 6 .8l-.4-1c1-.4 0-1.2 1.6-.7 1.7-.6 1.4.5 2.4 1.2 0 .8-1.3.4-1.5.5.3.6 0 1.1-.6 1 3.5 1 .5 1.7 4.2 1.3 1.6.8 1.8 3.9 3.3 1.6 1.6 0 2.1 1.5 3.2 2.3-.6.5.5 1.4 1 .3 1.3-.2.1-.3 0-1 0-.4.8-.8.5-1.7-.6-.6-2.3 2.5-2.3.1-2.5-1.2 1.5-1.4 1.5-.8 1.4-.2 3.4-1 4.9-.7 12.4-13.2 28.9-4.6 31.7-11.2.4.2 1.4-.3.7.4.1 0 2.3 0 2.1-.5-.2-1.2-.8-3 .9-2.2-.7-.7-.1-.9-1.1-1.6-.5.3-1.5 0-.3-.5.6 0-.6-.7.1-1-1.3-1 2.1-3.6 1.4-5.2.1-.8.9-.7.8-1.1-.3-.6.4-2.6-.6-2.2.2-.1 0-.2.2-.3 1.1.7.4-1.4.7-1.6 1.3-.8 1-.3.3-1.5 1.3.2 1.6-1 2.5-1.8-.6-.7.7-1.4.8-1.8-.3-.3.6-1.5 1-1.5 4.2-.5.8-.3 1.2-1.6.7-.4 1.3-.5 1 .4.4.6.8-.2.9-.6-.1-.3-.8.4-.9-.7 0-.3-.4-.1-.4-.2s.5 0 .4-.3c-1.8-.5 1-.6 1-2.7 0-.2.3-.1.5-.2-.4-.3-1.1-.1-1.2-.5.3-.4.7-.7.6 0 .3 0 .3-.4.7-.5-1.3-1.6 3.7-3.8 2.4-4 .1-.6 1-.1 1-.5.1-.3-1.4.1-1.5-.2 0-.2.5-.1.6-.1.6 0 .1-.5.4-.5.5 0 .5.7.8.5 0-.1.5-1.3.4-1.5-.1 0-.3.6-.5.2-.3-.4.6-.5.6-.5-.2-1 .1-1 .4-2 0-.2-.3.6-.6.6-.2-.1.4-.7.4-.8-.1-.3-1 .4-1 .1.5-.2-.6-.5.1-.8.9 1.6 3.3-1.4 3-1.6-.3.1-1.4.3-.4-.3-.9 0 1.2-.9.8-.3 2-2.5 2.2-4.7 7-5.2.6-.7-1.1-.2-1.3-.6.6-.2 1-.3 1.7 0 0-1.1 1.7-1.8 2.9-2.3 1.6-.5 0-.6.6-1.1.3-.3 0-.5 0-.9l.5-.5c-1.9-1 1-3 2.2-3.6-.6-.6.8-1.3 1-1.9-.4-.5.5-1.2.8-1.5 0-1.4.4-3 1.4-4.2 0 0-.4-.3-.3-.5 1.5-2.5-.8.8-.4-3.4.9-2.6 2-5 3-7.2 1-2.4 0-5.5 1.9-7.4 0-.3-.5-.4 0-1.1 3.3-2 1.2-3.4 1.8-6.5ZM492.7 418c-.2 0-.6-.4-.9-.4l.6-.1.3.5Zm-333-53.1Zm-27.4-70a5 5 0 0 0-.7-1c-.1.7-.5 0 0-.3 0-.7-2.4-3.2-1.5-3.9.1-.2-.3 0-.4 0-2.8.2 3.5 8.4 2.6 5.2Zm-1.7-7.6c.3.4.7-1.9.6-2.2-.2.5-.7 2-.6 2.2Zm.6-2.2c.1-.2 0 0 0 0Zm.5-1-.2-.5c0-.2.6-1.5.1-1-.2.5-.7 2.9 0 1.6Zm7.8 8.4c-.7 0-.1.8.2 1 .4.2.3-1-.2-1Zm333.3 134.2c-2-1-.2.7-2 1 .3.7-.2 1.5-.2 2.2.8.3.5.9.5 1.7.3.5 1.8-.4 2.4-.7 1-.5 0-1.4 0-1.4.1-.9.5-2.4-.7-2.8Zm42.5 3c.6 1.4-.8 1 .6 1.3.1 0 0 .5.2.5 1.2-.2.4 1.4 1.6 1.6 1 .3 1-.5 1.3-.6.2 0 1.4.7 1.3.2 0-.2-.7-.5-.5-.5.8.7.2-.3 0-.7 0 .2-.6.5-.7.3.5-.3.8-.7.7-1.5-.3-.6-1.3 0-3-1.9-.3-.6-.8-.9-1.2-.2-.9-.2-.5 0-.5.7-2 .8-1.1.5.2.9Zm6.2 4.8c-1.3-1.4-1.3-.7-2.7-.7.2.6-.7 0-1.3 0-.2.1-1.5.7-1 1 1 .4 3.8-.2 3.8.4 0 .3.3.2.7.1.4-.8 1.3-.3.5-.8Zm-2.2.8c-.8.2-2.7.2-.9 1 .3.5.7-.7.7-.7 0-.1.2-.1.2-.3Zm-37.1 1.6c-.5.3-.1.2 0 .4 0 .8.9-.2 1.6.1.6.3-.8-1.2-1.6-.5Zm0-2.7s-1 1.3.1.9c1-.3 1-.6 0-.9Zm-1.3.4c-.5.9-1 .7-.2 1.7.1-.2.7-1.9.2-1.7Zm39.1 17c1.5-.9-1-.6.1-2.4-1.1-1 0-2 0-3-.1-1.1-.7-1-.2-2.2.2-.4 0-.3.4-.7.4-.7-.7.5-1 .3.4-.8 1.2-.1.2-1.6.9-1.6-.4-1 .7-1.7-.6-1.5-2.2-1.7-3.5-2.5-1-.2-.6 1-1.6 1.3-1.1.4-1.9-.7-2.9-.3-.3 0-1.6 2.5-2.3 1.3-1-.6-1.4-.1-2.4.3-.7-.2-4.5-.2-4 1 1.1.2 2 .7-.1.4.2-1.7-2.6-.6-2.4.3-.3.2-.4-.6-.6-.6-3.5.8-3.1.2-6.2-.6-1.8-.2-3.3-1.3-5-1.8.1-.2-4-.3-2.4-1.1-1.5-1.4.4.9-1.9.3-.1 0 .4.2-.1.3-1.1-.6-2.8-1-4-1-.3-.5-.6-1.3-1-.1.5 1 .7 1.7-.6 2.1.5.9-.6.4.6 1.5-.3 1.4 1.6 2.4.9 3.3.2.4 1.2 1.3 1.6 1.8.3.6 0 1.2.7 1 .7 1.6 4 2.4 3.3 4.3-.2.2-.4 1 .2.7.5-2.1 1.1.8 2.1 1.2.3-.2.6-.5.5.1.6-.3.5-.1.2.3-.1.6-.2.4-.5.3 0 0 0 1.6-.3.7 0-1.9-2.1-1.5-3-2.8 0 .6.6 2 .7 3 .8.8.5.3 0 1 1.4-.3 1.7 2.2 2.7 3.3 1-.1 1.3.6 2 1-.4.6.2.5.6.4.6.5.9 2.6 2.2 1.9.2-.5-.8 0-.7-.3 0-.2.6 0 .6-.3-.1-1 .7.8 1.2.9.5.1 0-.5.4-.4.3 0 0 .6.6.5.6-1 1.3-.3 1.3.5-.4.1-.7-.8-.8.2-.5-.6-1.3-.6-2-.7-.1.1.5.5.1.5-1.5-.7.3.4.5.9.1.1-.2.7-.1.7.4-.3.9.1 1-.4.9-.1 1 .6 1-.1 1.1 0 2.3.6 3.9.3 0 0-.4-.7 0-.6 0 2 5.7 1.8 3.7.9-.2-.7 1.3.2.4-.8 1.6-.1.8-.1 0-.5.3 0 1.4-.5 1.4-.7 0-.3-1.6 0-.9-.3.4-.3 1.3.2 1.4-.3 0-.3-2.8-1.3-1.2-1.8.4 0 .6 1.7 1.2.5.5.3-.2.6-.1.7.7-.1.8.9 1.6.4.7-1-.8-1.3.7-1.9 0-.1-.7-.2-.5-.5.3-.5.4.3.7.2 0-.4.1-1 .5-1.2 0-.4-1.6-1.4-1-1.4.9.4 1.3 1.6 2.2 1.2-.4.5.2.5 0 1-.4.5-.4-.4-.8-.2-.1.1.1.3.2.5 2.8.6-.7-3.8 2.7-1.4h1.8c0 .4-.1.5.3.6-.6.2 0 .6.5.6-2 1-1.5-.5-2.3-.8-.8.1.7.4-.7.6-.7.8 1.1.8 1.2 1.2-1.4.1 1.2 2.1 1.4.2.2-.3.3.2.3.4 0 .1 1.8 1 .9.1.5-.3.4-.4-.2-.5.5-.3 0-.3 0-.6-.2-1.1.7-.6.4-1.6.2-.1-.1-.1-.2-.2 0 0 .2-.4-.2-.2-.6.2 0-.3-.6-.3-.7.2.1.4 0 .5-1.4 0 0-.4-.3-1.1 1.3-.5 1-1.6.1-2.3 2.3.2.8-1 1.6-2-.1-.7-1.1.6-.5-.3 1.6-1.2.2-2.2 2.5-2-1.1-.2-.9-.2-.7-1 .9.3.2-.3.4-.5 1.1.6.4.8-.3 1 .3.2 2.6.7 1.2 1 .5.4.5.5-.1.8.2.4.9.5 1.1 0 .5-.5-.6-.5-.5-.7Zm-115-62.3c0 .3-.7.6-1 .5-.5 0 0-.7-.4-.7-.7.1-3.2.5-1.4-.7-.6-.2-1.2-.2-.1-.6-.8-.4-2.5.4-3.5-.1-2.2 1.5-7.5.1-8.3 2.6 0 .2-1 .3 0 .7 1.4.4 1.6 1.9 3.1 1 1.3.2 3.5.5 4-.5 2-.2 2.4 1.8 4.5.3-.4-1.1.6-1 1.5-1.4 1.3-.5 3.2 1.2 4.3-.1.2-.4-2.7-2-2.7-1Zm-46.7-34.2c-2.4.2-1 1.7-.5.3 0-.2.8-.1.5-.3Zm40.9 21.9c-.1-.3-.5.3-.4.4.2.3.5-.1.4-.4Zm173.3-90c0 2.1-2.5 3.5-.1 5.4.5-1.5 2.6-6.2 3.5-7.6 0-.5-1-.5-1-1.6.1-1.9-.1-1.7-1.2-.6-.8.5 1.5.6.5 2.5-.1.7-3.5 1.7-1.7 2ZM328.2 157.8c1.4-.5 4.2-1.8 4.8-3.4.2 0 .7.5 1 .3.3-.2-.1-.3-.1-.3-.3-1.6 1.4-.4.8-1.8-.2-.5-.8.3-.7-.2-.2-1.5-1-1.4-2-1 .3-1.7-1.4-.8-.7 1.2-.8-2-1.5-1.5-2.3.1 0-1-1.2-1.3-2-.5-.4.2-1.7 0-1.5.7-.5-.2-.3-.6-.4-1-.2 0-.7 1-1 .6-.5-.4.8-.5 0-1-.3-.3-.5.2-.6.1-3.3-4-.8 2.5-.2 3.5 1 .9 3.9 1.8 4.9 2.7ZM190.2 381c-.4-.1-.3.2 0 .3.3.1.6 0 0-.3Z" opacity=".3"/>
  <path fill="#BEBFC2" d="M232.6 364.1c-.4 0-.4.3 0 .2.3 0 .5-.2 0-.2Zm-10.5.3c-.1-.1-.2.2-.1.3.1.2.3-.2.1-.3ZM149.6 346c.1-.2-.2-.4-.2-.7 0-.4-.2 1 .2.7Zm9-113c.6.3.4-.1.8-.3-.1 0-1.9.5-.8.4Zm.9-1s.5-.2.2-.4c-.3-.1-.6.4-.2.4Zm.4 1 .3-.3c.7-.7-1.2.6-.3.3Zm.4.1c.2 0 .3-.4 0-.2-.2.1-.2.4 0 .2Zm-.6.7c-.2 0-.4 0-.3.2.1.4 1.2-.6.3-.2Zm2.3-1.9c0-.3-.2 0-.3.1-.1.2.2 0 .3 0Zm.6.2v-.7c-.4.4-.8.7 0 .7Zm.7-.9c.7.1-.8-.5-1-.6-.8-.2 1 .6 1 .6Zm83.5-49.1c0 .3.2 0 .3 0-.1.4.5-.3.8 0-1.3.7-.5.8.5.4.8-.1-.7-.7-.8-1 .2-.8 0-.7-.6-.2-.1 0 .3.2.1.4-.1 0-.6-.3-.3.1-.2.1-.3.4 0 .3Zm-.4-1c.4-.6-1.2.3-1 .4.6.3 1-.3 1-.3Zm5.1-2.4c.4.7.6-1.2 0-.5-.9-.5-.3.2 0 .5Zm2.3-4c.3.5.4.5.4 0 .6 0 .8-.2.3-.6.6-.5.4-.6-.2-1-.8 1 .2.8-.2 1.1-.6-.7-.8 1-.3.6Zm57.6-27.6c1.3 1 5.8.6 1.8-.8-1 .3.4-1-1.1-1.6.1-2.7-1.4-2-2.7-.4 1 .2.8 3-.8 1.8-.3.1.2 1.4-.4.9-1 1.3 2.5.3 3.2.1Zm23.9-6c.3.4.7 1 .8 1.5.8.9.9-1.6.2-1.5-.2-.4.5 0 .2-.5-.5-.6 0-1.3-.2-1.3-.5.2-.1.6-.4.7-.4.2-.6 0-.8-.1.5 1 .6.9.2 1.3Zm1.3 4.8c-.3.2-1.4-.5-1 .3.8 1.4 2-.8 1-.3ZM251 181s-.7-.4-.6.2c0 .4.6 0 .6-.2Zm19.4-13.1c-.3-.2-1.2-.4-1 0h1Zm17 11.4c-.3-1-.6.5 0 .9 1.2.7.3-.7 0-.9ZM303 178l.3.4c.2-.2-.5-1.6-.9-1.8-.4-.1.4 1.3.6 1.4Zm31.1-27.8c-.6.3-.7.2 0 .6.6.4.4-.7 0-.6Zm12.3-5.6c-.3-.6-.6 0-1.1 0-.3.6 1 .2 1 0Zm-1 1.6c-.4-.5.4-.3.8-.5-.2-1-2.3.8-.9.5Zm16.4 4.5c.1 0 1-.2-.1-.6-.6-.2-.1.4 0 .6Zm.5-.7c.1.2.7-.2.4-.3-.3-.1-1 0-.4.3Zm-72.5 28.4c1.3 1.5.6 0 0-.8-.5-.5-.4.8 0 .8Zm-45.3 3.3c.2-.3-.4-.4-.6 0 0 .2.5.2.6 0Zm.8.8c.1.1.3 0 .2-.2-.2-.1-.5 0-.2.2Zm7.6-.6c0-.3-.4 0-.4.2-.1.3.3.1.4-.2Zm-3-3.7c.1 0 0-.3-.2-.4-.2-.1 0 .4.1.4Zm2.3-4.3c.1.1.3 0 .2-.2-.2-.2-.2 0-.2.2Zm0-1.2c0-.2-.3-.2 0 0 0 .2.1.3 0 0Zm6.3 1c.5-.2-.6-1.1-.2-.2l.2.1Zm4.8-1.4c0-.4-.4 0-.3.1-.3.5.2 0 .3-.1Zm.3-.2c0 .2.7 0 .4-.2-.3-.3-.7-.3-.4.2Zm25.6 4.2c.3-.1 0-.3-.2-.3 0 0-.1.3.2.3Zm42-30.6c-.3.3.5.3.3-.2-.3-.5-.2-.2-.3.2Zm2.3-.4c-.2 0-.3.1-.2.2.1.1.3 0 .2-.2Zm110.4-9.5c0-.2-.2 0-.2 0-.3.2.3.3.2 0Zm-.6 2.1c.1.2.3 0 .2-.2-.1-.1-.2.2-.2.2Zm11.7 9.8v-.1s-.1 0 0 .1Zm.3 0c-.1 0-.1 0 0 0Zm1.4 1c0-.1-.1.1 0 0ZM527.4 249c.7 0 .3-1.2.3-1.3 0-1.6-.7 1.3-.3 1.3Zm6.9 1.1c1-.3.2-1.3-.4-1.2 0 0-.2 1.5.4 1.2Zm32 48.5c.5.7-.2-1.5.6-3-1.9-.4-1 1.8-.6 3Zm.2 3.8c.6-.2.9-2.5 1.3-3l-1.2-.3s-1 3.6-.1 3.3Zm-76.7 107c-.3.7 1.3.6 1.7.3 1.1 0-1.6-.3-1.7-.2Zm-13-4.3c-.2 0-.5 1.2 0 1 .6.4 3.3-.6 1.2-.8-.4.2-.9 0-1.3-.2Zm49-155c-.4-.4-.4.6-.3.8 0 .3.7-.5.4-.7Zm13.7 8.2c.2.2 0-.8-.2-.3-.3.3-.3.3.2.3Zm4.5 6.4c-.1-.3-.5-.5-.6-.8 0 .2.5 1.8.6.8Zm-.6-.9v.1Zm18.3 15.4c.5.3-.3-.6-.3-.6-.4-.3 0 .4.3.6Zm-33.7-31c.3 0 1-.4.8-.5-.2-.1-1.2.4-.8.5Zm5.7 1c.3-.6-.4 0-.5.2-.4.6.4-.2.5-.3Zm5 7.8c0-.2-.3 0-.3 0-.1.3.3.3.3 0Zm-39.5 194.5c-.5.7.2.3.1.5 0 .2-1 0-.6.4.1.1.8 0 1 .2.1.3-.7 0-.4.6.1.1.6-.3.8 0 .2-.3-.6-2-.9-1.7Zm-1.2 2.4c.1 1.5-.8-1-.6 1.3-1-.5-1.5-1-.5.3.7.6.5-.6 1-.7 1.3 3 2.3-3 0-.9Zm11.3-10c-1.3 0 2.5 1.3 0 0Zm-1.2 3.3c-1-2-2.6 2.2-.4.8.2-.2-.8-.2-.4-.5 0-.1 1.7.2.8-.3ZM373.7 146.7c.5.2 1-.6.9-.6-.3 0-1.5.3-.9.6Zm3.3-.7c.3 0 4.2-2.6 1.2-1.1-.4.5-.6 1-1.1.3-.6.6-2 1.6 0 .8Zm5.6-6c-.9-.3-.3.9-.8 1.5-1 .3-1.5 1.7-2.2 2.3 0 1.4 3-2.9 3-3.8Zm-5.4 9.2c-.1.2-1 1-1 .2-.5.8-.7-.1-.7.6s3-.7 1.7-.8Zm-1.5 15Zm33.5 31.2c-.1-1.4 1 1.4 2.2-.9.9.5 1 0 1-.8.1-.2.5.4.6 0 0-.2-.7-.1-.4-.3.8-.3.8-.5 1.3.3.3-.5 1.8-.2 1.4-1-.2-.3-.2.3-.4.2-1.4-1.3-2.6 0-4.3-.1-.9 0-2.8 3.3-1.4 2.6Zm3.6 2.7c-.3-.6-1.2 1-1 1.2.2.4 0-.2.5-.3.6.5 1.8-.1.5-1Zm30.3-61.2c.8.5-.4-1-.6-1.2-1.3.2-.9 2.7.6 1.2Zm43.8 73.6c-.2.1-1.1-.6-1.5-.3 1 .7 2 3.6 3 1.6-.5-.6-1.3-1-.6-1.8-.1-.1-.4.3-.7 0-.4-.7 0 .4-.2.5Zm7.2 8c-.4-.1-1 0-.8.6.2.4 1.2-.5.8-.6Zm22.7 10.2c.5.4 0-.4.4-.7.8-.4-1-.4-.9.6 0 .3.4 0 .5 0Zm.2.7c.6.3-.3.3-.2.7.4 0 .5-.4.4.2.2.3.3-.4.6 0l.2-.3c1 .7-.1-.5-.4-.5 0-.9-.4-1-.6 0Zm1.2 2.9c.6 0 .5-.6.4-1 0 .7-1 .8-.4 1Zm0 0Zm-153.8-83.6c.2-.3-.7-.2-.8 0-.1.3.6.2.8 0Zm15-.2c0-.1-.1-.4.1-.8s-.6.9-.2.8Zm1.5-1.4c.3-.2-.8.1-1.1.3-.2.1.7 0 1.1-.3Zm2.3 3.6v-.4c-.2-.6-.5 1 0 .4Zm25.7 45.6c-.3-.3-.7 0-.7.3 0 .1.8-.2.7-.3Zm34-61c-.2-.3-.5 0-.5.2.1.3.7-.2.6-.3Zm.8 0c.4 0 .1-.4 0-.3 0 .2-.4.3 0 .3Zm68 92.3c.3 0 .1-.4 0-.6-.3-.5-.3.8 0 .6ZM374 147c0-.3-.5.2-.4.3l.4-.3Zm4.7 1.2c-.1.1-.5.6 0 .4.6-.2 0-.4 0-.4Zm-3 3.2c.5-.1 0-.2-.1-.3-.2 0-.4.4.2.3Zm68.1-14.3c0-.2-.2 0-.2 0 0 .2.2.2.2 0Zm102 219.4-.2.3.3-.3Zm-75.7 49ZM353.4 148.4Zm214.9 160c.1-1-.1-1.3-.6-1.6l.2-.1c-1.3.3-1-2.7-1.6-1.9-.2 0 0-1 .2-.4 0-.2.3-1.6 0-1.3-.2.3-.4.3-.2-.2 0-.2-1-1-1-1.1-.1-2.1-1.5-1.5-1.7-3-3.2-.8 1.3-1.4-1.1-1.5-1.1-.9 1.7-1.2 1.6-1.3-.7-1.4-1.4-4.7-.9-6.7-1.6-.3.4-3.4.8-4.3-1.6.2-.7-.7-1.5-1.1.3.4-.1 1.2-.5 1.4.4-1.3-.2-1.8-1.1-2.3.6-.3-.5-.3-.4-.5.7 0 0-.8.1-1.1.3-.5 2-2-.2-.9.7-.8.6-.6.4-1.8-.4 0-.8-.2-1-.4-.4 1-2-.7-2.8-.7 2-.2-.4 0-.8-3-.2-1.2-3.8-1.8-4.8-3.4-.5-.6-1.4-3.3-1.8-3.6-.2.5-.5.4-1 0-.4-.4 0-2-.8-.7-.6-.1 0-.5 0-.5-.3 0-1.2-.7-1.3-.2.4.2.8.5.8 1-.3-.1-1.3-1.1-1.4 0-.7 0 .3-1.5-1.3-.9-.6-1.2-2-1.6-3.1-2.2l-.7-1.2c.6.8 1.7 1.5 2.2.8-.3-1.3-1.2-.8-.7-2.5-1 1 0 .1-1.1 0-.4-.1-.6.1-.8-.4-.7.1-.5 0-.1.5-.3.2-.1.7.2 1.2-.4-.6-1-1-1.7-.6-.6.4-.4-.3-1.2-.5 1.7.1.1-.6-.1-1.3-.3-1 .5-.6.4-1-1.5-1.6-.4-1.4-.8-3-.5-.2-.4-.4.2-.3 1.2-3.2-.2-1.6 0-3.7 0-.5-.2-.2-.2.3-.3.9-.5.5-.5-.2 0 0-.6.3-.6-.5.2-.5.7 1 .8-.1.7-.3-.8-.6-.7-1.3-.3 0 0 .6-.1.6-1 0 .5-.8-1-.9-1.4.4 1.6 4-.5 2.2-3.2-1.9-3-.8-5.3-4-2.6 1.2-.6 3 0 5-2.4-1.7-1.3-3.5-4.2-1.5-.3 0 .3-.4.3-.4.3-1-.4-1.5-1.2-1.7.8-.4-3-5.3-1.2-5.3-1.1-1.7.6-1.2 0-2-1.4 1.3-.2-1-2.2-.3-.1-.7 1.3-.8 0-1 .7-.2 0-1-.1-1.3 0-.5-.3.3-.6 0-.5-1.2.8-1.8-.7-2.6-1 0-.1-.4-1.4-.2v-.2c.2-.1-.1-.4 0-.4.2 0 .6.2.5 0-.4 0-1.8-.5-2.1-.7-1 1.1-.3 0-.4-.6-.4-.3-1.8-.5-1.3-1.4-1.9-1 .6-.7-.4-2 .3-.2.3.6.9.4.5-1.2.5 1 1.7.6 0-.4-.9-.4-.1-.6-.6-.4-1.2-.5-.8-1.3 0 0-1-.5-.5-.6 0-1.2-1.4.5-1.6-.5.3-.2.4-.6 0-.3 0-.5-.3-.4-.3.1-1.1.2-.3-2.3-1.3-1.2-1-.4-1.2-.2-.5.5 0 .2-.6 0-.5.3 1.3 0-.5.7-.3 0l-1.5-.8c.2-.4.5-.5 0-.8.2-.6-.2-.1-.5-.6-.1.1-1.4 0-1.5-.6-.6-.2-.7.8-1.8.1-.8-1.6-2.5-3.1-1.5-.5-1 .3-1.9-.8-2.5-1.3 1.4.6-1.8-4.6-1.7-3.7 2 1.4-2.5.7-3 .9-.9-.3-.7-2.1-1.3-2.3 0 2.1-2.3.8-2.9 0-.3 0-1.2.1-2.2-.4-5.7-3-1.7-4.1-2.4-5.9-1.8-.7-1.3.5-1.8-1.5-2-.5-2.6-2.3-1-3.9.5-1-.5-2.5.7-3.3-1.6-1.4-.2-2-1.3-2.7-.6-1.2-1-2.2-1.7-3 .1-.6 1.4-1.9.4-1.7-.6.8-1-.3-1.5.6 0 0 .4.7 0 .6 0-2-2.5-3-3.5-5-1.7-.1.1-2.1.1-2.3-1.2-1.1 1-1.4-1.3-3.3.1-1 0-2.5-.8-3.5-.7-.7.6-.4-.5-1.1 1-1.2 0-1 1.3-1.6 0-.9-1.5.7-1.3-1.2 0-.6 1.3-1.8 1.2-2-.6.3-1.8-.3-1.4-1-2.5.7-2.7-2-4.4-2.2-1.2-.8-3-.5-2-2.6-1.6 1.2 0-1.9-1.8-1.8 0 .8-1.1 1.4-2 1.5-2.2-1.6-.8 2.6-4.8 1.6-2-.7-1.5-3.1-2-4.4-3-2 0-4.6-1.8-7 .3-1.5-.7-3.5.3-4.5-.6.4-1.7-.1-2.1.4-.4-.5 1-1.9.4-2.1 1.1-.8-1-.8-1.3-1.5.1-2.9-2.8-.1-2.2-3.5.4-.3 2.4-2.3 1.4-1.9-2.2-1.2-1.9.7-3.7-1a16 16 0 0 0-.5-3.7c0-1 .8-.1.1-1.6-.9-.3-.1-4.4-1.9-3-.1-.3.4-.7-.3-.6-.1-1.4-.9-.4-1.4.1-.6-.8 2.2-1.9.5-2.2-.2-.7-.7.3-1.2-.1-.9 2.1-1.3 1.7-3.2 2.3.3 3.5-1.6 6.8-2.3 10 0 0 1.1.4 1 .8-.5.3-.8-.8-1.2.3-.2.4-.1-.6-.3-.8.2-1.8-1.6 1.3-1.7 1.9 0 .4.2-.2.5.2.4.4-1-.1-.8 0-.2.8-2.2 3.9-.7 3.1.4 0 .6 0 0-.1v-.9c.6.3 1.7 0 .4.6 2.2 1.4 1 .4 3.1.8-3.3.9-.7.8.2 1.4-2 .6.2 1.1-.6 1.8-.6-.4-.3-2.9-1.3-2 0-1-.5 1-.9 1.3-2.5 1-1.3 2.4-.5 4-6 9.5 1 5.2-1.9 11.5-.4 1.7 1.8 5 1.5 6.4-3.9 5.6-1.8 13.7-7.8 18.6.6 4.9-7.8 8.5-11.2 6-2.9-1.3-9-1.9-8.6-5.8-3.7-3.2-9.4-1.3-12.8-4.8v.1c-3.2-3.8-7.3-4.3-11.4-6.6-.7.2-.2 1.1-1 .4-.6-.4-2.5 1-1.7-.3-.8-1.4-2.8-2.3-4.5-2.7-1.3-.8.4-1.4-2.2-2.4-2.5-1.4-4.6-2.7-7-3.8-.6-.5-1.7-3-.6-2.3 1.6-1 2.7-5 5.4-5.2-.2-1-.3-2.2.8-2.9.4-.4.3-1.8.9-2.2.2-1-.9 1.4-1.8.6-.7-.4.5-.4.1-.7-.8.7-.9-2.7-.1-2.1.5.3 1 0 .8-.2-.7 0-1.3-1-.3-1.6.5.8.2-.2.5-.4.6-.1.5 1 .7 1 .2-.1 0-.7 0-.8.5 0 .5-.9 1-1.1.5.6-.6 1.8 1 .8.2-.2-.3-.8.2-.8 1.5 1.5 0-1.2 1.2-.7 0 0 .4 1.6-.1 1.9-.4 1.6.4-.2 1-.3.3.6.4.1.4-.3 2.3-1.5-.8-1.8.5-2 .5-.4.3-.1.6.2.7-.7.4.4.9 0 .4-.5-1.1-.8-1.3-.8.4-.7-1-.6-.8-1.4.2-.3.4.5.7.4.6 0-.2-.8.2-.7.4 0 .2 1 .7.9.3-.1-.2-1-.1-1 1.4-.3.4-1.1 1.8-1.6-.3-.7-.9-.8.3-1.1.4.2-.6.7-.2.9 0-.6 3.3-2.4 1.7-1.9.4-1-1.8-2.2-2.7-1.6-.4.4 1.2 0 .8.6-1 1-2.1-.8-1.8-1.6-.6-1.2-2.5-.7-.2-1.4.3-.2.1-.7 0-.6 0 .1 0 .4-.2.5-1.6 0-2.8 1.2-4 2.1-.8 0 .4.6.4.6.5.1 1-.4 1.4.1-.3 2.8-2.1 1.8-3.6 2.4-.6-.4 0-.8-.3-.8-1 .2.7-1.3.6-1.4-.3-.7-.4.7-1.3-.1-.4-.4 1.3-1.3 1.2-1.6-.4-.1-.8.6-1 .7-.5.1-.5.4-.6.4-.5-1-1.6.8-2 1.1.2-.4-.3-.4-.5-.7-.6-1 1.6-2.1 2.4-2.4.5-.5-1.7.4-1.8.1.4-.4 2.8-1.6 2-2.2-.2 0-.4-.2-.5 0 .8 1.8-3 1.3-3.3 2.5-.2.7.5 0 .7 0 1 0-.6.7-.7.7-.6-.6-.7.3-1.4.2-.8 0 .5-.3-.7-.3-.6 0-.7.6-.7.6-1.8.4.2.6.3 1-.2.3-2.8-1-1.2.4-1.3-1-1.2.4-2.6-1-2.4-.6-2-2.9-3.4-2.2-1.5 2.6-4.6-1-5.6 1.2.2-.7-.1-1.5-.6-2 0 .1-.3.6-.6.4.2-.3-.1-.6-.4-.8-.1 0-1.2 1.5-2.3.2-.3-.6 1-.7 1.2-1l-.3-.3c-1 .3-1.2-.5-1.8.5-.3.1-.5-.1-.8 0-.8 1.5-.9-.6-1.5.7-.5.7.2-1 0-1-.9.4-1.6.7-1.4-.2-.4-.1-.4.8-1 .3-.6-.3 1-.6.2-.7-2.6 1.5-2.4-1.6-3.7-2.4-.6-.4-.8-1.1-1.6-1 0 .1.6.4.4.8-.2.3-.5-.4-.7-.2-1.4 2.4-2.3 0-3.6-.6-1.4-3.5-.7 1.8-2-2-.1.8-.6-.1-.7.5.6 2.2-.6-.7-1.4-.5-.3.1.6.8.5.9.1.2-.3 1 .2.9.7.6.2.4-.2.4.5 1-.6.5-.5-.5-.7 1.2-.4-.6-.3-.8-.6.2-.6-.6-1.4-1-.6-.1.4 1-.5 1.3-1.5-1.6 0 0-1.4-.5-.2 0 .4.5.3.7-.2.3-.6-.4-.6-.1-.7 1 1 .2 1.5.5-.2.6.2.2.5.3.3.3-.6.2-.2.6l1 .2c-.2 2.6 4.5-2.1 6 2 .3 0 1.3 0 1 .3-.4.4-.5.8-1 1.1 1.5.9-.5 3 1.2 3.4-4.6-.8-1.8 1-3.5 2.4-.2-.1.4-.6.4-.6 0-.8-.9-1.4-1.4-.7-.5-2.1-1.4 1.1-3.2.5-2.2-1.6-7.5 2.3-7.7-2.4-.3 0-.7 1.7-.6 1.7 0 .8-.8-.8-1.3-.4-.2-.3-.3-.4-.5 0-2-1.4.4 2.5-.7 1.7-1.4.2-.9-.7-2.1.5-.3 1 1 .2 1.3 1 .3.6 0 0-.5 0-1-.1.5.8.7 1 .2.4-.3 0-.5 0-.5 0 0 .3-.2.3-.4 0-.4-.8-.7-1-.4 0-.5 0-.4.4-.5.1.1-1-.4-1 .7-.7-2-1-2-.7-.1.1.3.1.4.3 0 .2-.6 0-.2.5.2.2-.4.7-.3 1 .8 0 .4.5-.2.3.3.5 1 .5 1.5.8h-1.2c0-.2 0-.2-.3-.1 0 0-.3-1-.6-.9-.4.1.3.5 0 .5-1-.6-.8.5-1.6.2.2 3.8-1 1.7-2.5 2.9 0 0-.2 2 0 2 .3 0 3.4 2.4 1.6 1.4-1.2.7-3.5 3.5-4.2 1.2-1.9 1.9-.3 3.1-1.9 4-.3.6 1.4.9-.7 1.7-.3.2-.6 0-.6-.3-.5.2.5.7-.2 1-.1-.3-.2-.3-.5-.1-.2 0 0-.4-.2-.3-.1.2-.3-.2-.5-.1.7 1.1-1.5 2.3-1.3 3.6 1.5.8 2.9 2 4.7 1-.2.7-1.8.7-2.1.8-.6.4.8 1 .8 1.1-.1.8 1 .7 1.4.5-1.1 1.3 1.2-.3 1.7 0 .5-1 .6-.5.2.2-.5-.4-1.2.6-1.8.7-2-.6-2.4.5-1.6 2.3.4.4 1.6 1 .2 1-.2-1.1-.4-.6-1-.3 0-2-.6-.9-.9-2-.5-.6-1.3-.5-1.4-.5-.5-.8-.7-.3-1.3-.3-.8-1.8 0 2 0 2.1 0 .2-.3.2-.3.7-.2 1-.3.4-.2-.1-.2 0-.4.6-.5.6-.3-.4.8-1 0-1.6 1.6-2-10.6-3.7-8-2-1 0 1.2 3.2-.8 1.3-.4 0 0 .6-.2.6-.3-.4-.2-2.4-.8-.8-1.5.8-.5 1-.7 2.3.2.7.9.4.9 1.4-.1 1.7-.8-2-2-1.6-.2.5.3 3.2-1.1 3 1.3-.9-.2-1.8.7-2V180c-.5-.3 1-2.6.5-2.8 1.2-.5.7 0 .7-1 .2-.3.5.2.5-.2-.1-.3-.2-.3-.6-.2-.3-.1-.8-.9-1.3-.6-.3-.8-.4-.9-1.2-.7 0 0-.4-1.3-1-.9-.4-.1.5-.4 0-.6-.3-.2 0 .4-.4.2-.2-1.5-2.7-3.6-4.2-3.7-.5-1.2.6-.4-.9-1.2-.1 0-.1-.3-.3-.3-.6 0 .4.9-.2.5-1-.4-.5-1-1.4 0-.2 0 .2-.8-.3-.7.2.8-.9 1.3-.8.1-.6-.2-.4.2-.2-.5-.6 0 0-.1-.4-.3-.3.4-.5-1.4-1.5-.6.8.6-.5-.2-.6.1-.2.3.4.4.3.4-1.9-.4-1.5-.4-.8 1.3.7 0 .7.3.1.1-.4.2.5.2.2.4l-.9-.1c-.2.4-.2.2-.5 0-.3.5.2.7.5.4-.3 1.5-.4.9-1.2.6.4.6-.3 1-.4 1-.3 1.2-.4-.1-.4-.4-.2-.2-.4.3-.6 0-.2-.2.2-.9-.1-.6-1.8.4 1.3-1.5.2-1.5-.2.3-.6 1.2-1 .5-.6.8-2.3 1.2-1 2-.2 0-.5.2-.6.5-1.8-.8-.7-1-1-1.5 0-.2-.2.2-.3.1-.2-.5 0-.2.5-.5.1-.2-1-.3-.5-.3.1 0 .6-.3.5-.4-.2-.2-1 .7-1.2.5-.2-.3.9-.4.2-.6.7-.4 0-.1-.4-.2.3-.6-.2-.5-.3 0-.1.1-.6-.3-.6 0 0 0 1.4.5 1 1-1.4-1.4 0 .8-1.3-.5-.2 1.8 3.8 0 .9 2.7.5 1.2-.6.7-1 1.2 0 0 1.5 1.6.3 1.2 0 .8-.2 0-.8.1-.5.1.2 1.2-.2 1.2-.7 0-1-1.2-1-1.5 0 0 .6-.2.3-.4-.5.1-.4.4-.5-.1-.3 0 0 .3-.5.3-.6 0 .2-.7-.3-.7-.2.2-.7 3-1 2.1 1-.8-.6-3 .8-2.7 0 0 .3-.6.2-.7-.4.9-1.4-1-1.3-.2-1 0 .7 2-.2 3-1.5.3.3-.5-1-.6-.4.2 0 .6-.1.6-.5-.6-.3.1-.4.4-.4-.1 0 .4-.2.5-.4-.6-.3-1.6-1-.4-.4 0 .5-1 0-1-.1 0-.1.6-.3.8-.3-.3-1.1.3-1 .5.3 0 1.3 0 .4.2-.2.7-.1 0-.7.2.3 1.1-.5-.4-.3.6-.8-.3-.3.5.1.4.2.2-.2.6.2.8.2 0 2 0 1 .4-.3.4-1-.2-1.2.5-.1.3.4 0 .6 0 0 .5.3 0 .6.1-.9.6 1.3.3 1.5.4.2.3-1.4.5-.4.7-1.2.7 1.4.2.2.8-.5-.4-1.7.4-1.4-.6-.4-.4-1.4-.1-1.4-.8-.5.4.4 1 0 1.5-.6-.2-.1-2-1-1-.4-.1.3-.6 0-.8 0-.2-.2.1-.3.1-1-.6.7 1.2-.5 1-.3.5-.6.3-1 0-.3.2-1.6 1-.4.7-.2 1 0 1 .7.3.5-.2 1.9-.8 1 .1 0 .5-.9-.3-1.1.2-.2.3-1 1.4.5.9.8-.4 1.3-.2 2 0-2.3.8 1 2 0 1.8-.4-.2-1-1-1 0-.5 0-.3-.4-.4-.4-.1 0-.5.3-.6 0 0-.2.5 0 .3-.4-1.1-.5-.8-.6-1.9-.7.1-.3 0-.4-.3-.6-.3-.2-.3.5-.6.5.4-1-.2-.5-.9-.9-.3.3.3.4.4.6 0 .2-.4 0-.4.3-.1.1 1.2-.2.6.2-.8 0-.3 1-.4 1.1-.7 0-.2-.6-.5-.6-.2 0-.1 1-.2 1-2.7-1-.8-.4-2.4.1-.5-.4.4 1.1.3 1.3-.1.2-.2-.2-.3-.2-.3.2.3.5-.3.2.4.5 0 2.8.8 1.6.2.4.1 1 .6 1.1 0 .1-.4.5-.1.6.6 0 .7-2.7 2.6-2 0 .2-.6.5-.4.8-.5-.5-1 .2-1 .7.6.6-.7.2 0 1.6-.4-.3-.8.3-.9.6-1.1-2.7-1.6.3-1.1 1.6 1.5-.9 7.7 1.6 3.6.4-1.3 0-2.8.5-4-.4-.5.2-.3 1-1.8.5-.4-1.2-1.5-1.4-2.7-1.5-1.3-.6-.5 0 .1.4-1 .1 0 .5.1 1 0 .2-.8-.5-1-.5-.3 0 .3.7-.4 1l-.3-.7c1.4-.3-1.2-.7-1.2-1 0-.2 1 0 1-.2.2-.2-.6-.1-.6-.3.8 0 .2-.6-.5-.7-2.5.2-1.2.6-2 1.3l.8.5c.1 0-.3-.5.1-.3.2.4.8.3 1 .5.1.8-.9-.1-.9.2 0 .2 1.3.7.7.6-1 0-1.1-.4-2-.1.4.3 2.7.7.9.8 1.4 1-2.6-1.2-1 0-1.3-.1-.6.2 0 .7.4 0 1-.8 1.3 0-1.3.4 0 .6-1 .6-.7.3 1.4.3 1.8 1 .8 1.3 1.4 2.4 2.7.8.9 0-1 1-1.1 1.4 0 .1.6.5.4.6-1.8-1-.2 1.7.5 1.9-.8.6-2-2.1-2.6-1.5-.2 0 0-.7-.3-.7-2-.1 0 1.8-.1 2 0 .3-1 1.6-1 2.4 1.6 4.5-3.2-4.7-4.5-5.2 0-.6.5-.9-.5-1.2-.3-.8.6-.4.4-1-.3.3-.3.6-.7 0-.7.3-.4-.2-.6-.6-.8.6-.4-1-.3-1.4.6 0 1.3 0 .1-.5.6-1.7-1.7 1-1.7 1.3-1.3 0-1.6 1.5-.4 2-.9-.2-1.7.7-2.5.1-.8.5-.6 1.2.1 2-.8.2-1.3-1.6-1.4 0-.5.3 0-.4-.3-.2L222 199c.7.3-.5 1-.8 1.2-1.3 2.6 1.3 5 0 7.2.2.2 1.2-.5 1.9 0 .9 2.2-3.6 2.8-4.5 4.5-1.4.7-1.2-.7-2.3 1.4 1.4.5-.6 1.5-1.3 1.2-.4 9.8-15.9 11-22.3 13.2-1-.1-4.5-2-4.9-.6-1-1.4-2.8 1.7-3.6 2.4-3.3 1.6-8.4-.3-10.9 3.5-2.8.3-6.2 2.6-7.5-.2-.7 0-6 2.8-3.5-.6-1.3.5-5 4.1-7.2 3 .1 1.4-1.3 1.6-2.4 2-2.4 1.8-4.4 4-7.3 5.1-3 1.5-7.1 1-8.4 4.5-.2.4-.3-.6-.6-.4.6 1.6-1.4 2.8-1.4 4.7-.4.5-1.4-1-1.9.2-.2.5-1 .2-1-.2 0-.6.9-1.5.6-1.7-.3-.3-.3.4-.6.3-.2-1.4-.6-3.8.8-5-2.4-1.1-6 7.6-5.7 8.8 2.8 1 .8 3.4 1.2 5.5.2.5-.1.6 0 .9 0 1.7-.9 1.4-1.9 2.3-1.3 1.3-1.7 4.7-2.4 5.9-.7 3.8 3.2 3.2 2.5 6.4l4.7 7.2c.6.5 1.2.9 1.3 1.6.8.3 1.6.3.9 1.4 0 .3.4.3.3.5-2 0 .5.3-1 1.8.1.6 1.3 2.2-.3 2-1.4 2.7-3.1-3.3-2.9-4.1-.3-.3-1.3 5.2-2.3.8 1.7-3.4-2-2.7-2-5.3-.4.5-1.2 1.4-1.1 2.1.1.6 1 .4.5.9 1 1.2 1.3 2.9 2.5 4 .7.3 2 .2 2.2 1.2-.4.6.2 1 0 1.6-.7.2-.6 1.4-1.2.8-1.2 0-.6.8-1 .7-.6 0-.5-1.6-.6-1.9-.4 0-.4 1.5-.6 1.4-.2-.1-.3-2.3-.3-2.6-.8-1.5-.2.2-.5.5-.3-.4-.6-3-1.2-2.3-.1-.4 0-1-.3-1.3.4 1-.4 2.5.2 3.5-1-.5-.5-2.5-1-3.5-.4.4 0 1.6-.2 2 0 .2-.2-.2-.3-.3-.3-.3-.5-.2-.8-.3 2 3.6 10 9 10.8 15-2 4.6 5.2 6.2 5 10.2 3.1 4.6 4.8 4.9 4 12-.4.8.6 1.4.3 2.3.9.3.4 1.4.8 2.3 0 1 1 2.5 1.4 3.5 2.3 3.2 8.8 10.8 5.4 14 .3.5 1.2.4.4 1 .6.5.4 1 0 1.6 1.5 1 .2 1.1-.5.8 1.4 2.5 0 1.7-.3 0 0-.3 1.3-1 .6-1-2 1.8.2 4.7 0 7 .2-.8.6-.1 0 .7-.5.1-.7-.3-.8.3-2.1 5.5-6.5 1.3-6.8 2.3.3.8-.5.5-.5 1.2.3.6.4 1 0 1.6 0 1.2.6 6 2.4 4.3 3-.3 7.7 2.5 9 5.1h1.4c.7 0 3.9 1.7 3 .3 1.4.8 2 .8-.2.7 1.8 1.4 3.8.6 5.8 1.2.7-.5 1.9-.4 2.7 0 1-1.8 4.9 1.5 5.4.4.6-1.5 3.5 1 4.2 0 .2-.3-.6 0-.8-.1 0-.3-.5-.7-.4 0-2.1-.6 2.7-1.1 3.3-.6.4-.4-.5-.6-.4-.7.7-.7 2.6 0 2.7-.5-.6-2.7 3.9-1.3 3.8-3.4.4-.7 2.4 0 1-1 1.2 0 3.6 0 4.3.9.8 0 .3-1.8 1.5-.4.6-.2-.2-1 .4-1.2.2-.2 1 .5 1.7 0-3.3-1.3 3.7-4.3 5.2-4.4 6.6 1.2 13.1-2.4 19.4-.2 1 .3 2-1.5 2.6-.5 1.8.7-.2 2.5 2.1 1.4.4-.1.1.5.5.2.4-.2-.4-.5 1.1-1 .9-.2 2.5 1.1 2.6-.1 2 0 3.6-.3 5.5-.3.9.4.2 2 1.3 1.2 1.3-.6 2.4-1.5 3.5-.5.6-1.1 2.8-.7 2.6-2.2 4-1.9 2.5-7.9 8.4-7.6 3.7 0 7.4-3.5 11-3.8 5.7-5 14-1 20.5-2.8 5.9-1.5 12-2.7 17.6-5.4 7.3-2 16.2.2 23.2-1.8 1.5-1.3 11.2 3.3 12.2 4.7.8 1 2.5-.3 3.4.3.3-.1-.6-.4-.2-.6 4.2-1.7 6.8 3.5 10.9 2.2.2 0 .6.3.5 0-.2-.4-1.1-.3-.8-.6 1.2-.4.5.3 1.5.4.6 0-.3-1.2 1.3-.7.3.1 0 .3-.1.4 0 .2.3 0 .4.2-.5.6.4.3.7.5.1 1.3.2-.5 1.4 1 .5.4 1 1.4 0 .7-.4.2-.4 1.2-.4 1.4.2.2 2.8-1.1 3.2-.8.9.7 1.6 1 1.7 2 0 .2-1 2-1.1 1.1.7-.7-.2-.5-.8-.5-1.4-.4 0 .4 0 1.1-1.5 1.4-.2.7.9 1.1.5.7-.6.6-.6.7 0 .4.8 0 1 .3.5 2.5 1.9.3 4 1.5.2.3.6.5.7.1-1.8-.7-1-1 .4-.5.6 1 .1.4-.3.7 1.4.6 2.6 2.4 1.8 3.9 1.4 1 6.3 3.1 4.4 5 2 .2.9 4.8 2.2 3.8 0 1 .5.3.8.8-1 .4-1.9-.2-2.3-.7.6-.7-.6-.2-1-.6.1-1.5-.5.3-1 .7-.6 1 1-.5 1.6.2 1.3 1.7 3 1.2 4 3.5.8.6.5-1 1.8-.9.9.2 2.3 2.8 2.3.7-1-.5 1-1.3 0-1.9-.3 0 .1.5-.3.6-.2-.7-1.5 1-2 .2.3-1 1.8.2.7-1.2.4-1.3.8 0 1-.5-.8-1 1.4-2.1 1.7-1 .7-.4-.4-1.4.6-1.9 1.6-.2 1.5-1.8 2.2-2.5.9-.5 2-.8 2.6-1.6.4-.3 5.4-1.9 3.7-1.5-.6.3-.7-.2-.1-.3.7-1.4.8 1.1 3.3-.7 2-2.5 2.3-5.1 4.8-6.9.8.2 1.8 1.2 1.1-.3 1.2-.1.4-2 0-2.2 0-.2 0-2.1.3-1.4 0 .1.4 0 .4.2-.4 1 1.8 1.7 1 2 0 2.6 1.5 2.2 1.6 3.4-4.2 1-2 1.3-1 4.2-.8.9-3 2-4 3.1 1 .6-.6.9-.8 1.3 0 .2.6 0 0 1.3-1.7 0 .8 1.2-1.3 3.2 2-1.1 1 6.6-1.3 4.2-2.3.4-2.6-.7-4 1.2 1.2.7-.7 1.5-1 2.1.5 1.1 2.5-.6 3.8 0 .4-.7 1.1-.8 1.9-.7 1-1.6 3.8 1 4.4-.5 0-.8 1.8-4.6 1.7-4.9-1-1.7 1.5-2.3 1.5-3.1-1-.2 1-3.1 1.2-.3 2.2 1 .5 1.6 3.2 3.6 0 .6 1.4 1 1.2 1.6-1.2-1.2-.5 1.7-.4 2.2-.7.7-.6 2-.8 3-.6.7-3.7 2.1-3.8 2.7-.1.7 2 .3 2 .3 2 .4 3.4-.2 5-1.1.4 0 3.6.6 2.8 0-.3 0-2.1-.3-2-.6.3-.2 2.3.6 2.6.4.5-.4-1.5 0-.8-1 .3-.4 1.2-.1 1.9-.3 1-1 1.5-.2 2.2 0 .4-.4.2.3.1.5 1.2 1.1-1.1.4-1.4.8.2.5 1.6 0 1.4 1.3.2.7-.8.6-1.3.4-.2-.3.3-.2.3-.4s-.4-.1-.4-.3c1-.8-1.6-1.7-1.7-.4.2 1.2 6.6 3.3 6.7 6.3-1.9-2.4-5.1-5.6-8.3-6.3 3.9 1.6 14.8 10.2 8.3 13.4.3.8 2.1 1.8.7 2.2 2.1 3.3 5.2 3.4 7 7 2.4 2.5 10.8.6 11 4.7.3.6.7-.2 1.1 0 1.1.2.5.6 1 .6.3-.6.7-.3 1-.4-1.3-2.8 4.8-.5 5.6 0 3-.7 4.6.1 7.2 1.7 10 4.2 9.2 1.5 18-2.8 1.6-.2 2.2.5 3.2-1 .4-1.2-4 .7-4-.6.3-.3 1.7-.1 1.8-.1-.1-.8 1-.6 1.5-.9 1.5-.7 1.9-1.3 3.2-1.4.6.3.4 1 .8 1.3 3 1.2-1.3 4.5-3.7 3.2 4.5 2.9 1.9 1.2 6 .8l-.4-1c1-.4 0-1.2 1.6-.7 1.7-.6 1.4.5 2.4 1.2 0 .8-1.3.4-1.5.5.3.6 0 1.1-.6 1 3.5 1 .5 1.7 4.2 1.3 1.6.8 1.8 3.9 3.3 1.6 1.6 0 2.1 1.5 3.2 2.3-.6.5.5 1.4 1 .3 1.3-.2.1-.3 0-1 0-.4.8-.8.5-1.7-.6-.6-2.3 2.5-2.3.1-2.5-1.2 1.5-1.4 1.5-.8 1.4-.2 3.4-1 4.9-.7 12.4-13.2 28.9-4.6 31.7-11.2.4.2 1.4-.3.7.4.1 0 2.3 0 2.1-.5-.2-1.2-.8-3 .9-2.2-.7-.7-.1-.9-1.1-1.6-.5.3-1.5 0-.3-.5.6 0-.6-.7.1-1-1.3-1 2.1-3.6 1.4-5.2.1-.8.9-.7.8-1.1-.3-.6.4-2.6-.6-2.2.2-.1 0-.2.2-.3 1.1.7.4-1.4.7-1.6 1.3-.8 1-.3.3-1.5 1.3.2 1.6-1 2.5-1.8-.6-.7.7-1.4.8-1.8-.3-.3.6-1.5 1-1.5 4.2-.5.8-.3 1.2-1.6.7-.4 1.3-.5 1 .4.4.6.8-.2.9-.6-.1-.3-.8.4-.9-.7 0-.3-.4-.1-.4-.2s.5 0 .4-.3c-1.8-.5 1-.6 1-2.7 0-.2.3-.1.5-.2-.4-.3-1.1-.1-1.2-.5.3-.4.7-.7.6 0 .3 0 .3-.4.7-.5-1.3-1.6 3.7-3.8 2.4-4 .1-.6 1-.1 1-.5.1-.3-1.4.1-1.5-.2 0-.2.5-.1.6-.1.6 0 .1-.5.4-.5.5 0 .5.7.8.5 0-.1.5-1.3.4-1.5-.1 0-.3.6-.5.2-.3-.4.6-.5.6-.5-.2-1 .1-1 .4-2 0-.2-.3.6-.6.6-.2-.1.4-.7.4-.8-.1-.3-1 .4-1 .1.5-.2-.6-.5.1-.8.9 1.6 3.3-1.4 3-1.6-.3.1-1.4.3-.4-.3-.9 0 1.2-.9.8-.3 2-2.5 2.2-4.7 7-5.2.6-.7-1.1-.2-1.3-.6.6-.2 1-.3 1.7 0 0-1.1 1.7-1.8 2.9-2.3 1.6-.5 0-.6.6-1.1.3-.3 0-.5 0-.9l.5-.5c-1.9-1 1-3 2.2-3.6-.6-.6.8-1.3 1-1.9-.4-.5.5-1.2.8-1.5 0-1.4.4-3 1.4-4.2 0 0-.4-.3-.3-.5 1.5-2.5-.8.8-.4-3.4.9-2.6 2-5 3-7.2 1-2.4 0-5.5 1.9-7.4 0-.3-.5-.4 0-1.1 3.3-2 1.2-3.4 1.8-6.5ZM482.7 409c-.2 0-.6-.4-.9-.4l.6-.1.3.5Zm-333-53.1Zm-27.4-70a5 5 0 0 0-.7-1c-.1.7-.5 0 0-.3 0-.7-2.4-3.2-1.5-3.9.1-.2-.3 0-.4 0-2.8.2 3.5 8.4 2.6 5.2Zm-1.7-7.6c.3.4.7-1.9.6-2.2-.2.5-.7 2-.6 2.2Zm.6-2.2c.1-.2 0 0 0 0Zm.5-1-.2-.5c0-.2.6-1.5.1-1-.2.5-.7 2.9 0 1.6Zm7.8 8.4c-.7 0-.1.8.2 1 .4.2.3-1-.2-1Zm333.3 134.2c-2-1-.2.7-2 1 .3.7-.2 1.5-.2 2.2.8.3.5.9.5 1.7.3.5 1.8-.4 2.4-.7 1-.5 0-1.4 0-1.4.1-.9.5-2.4-.7-2.8Zm42.5 3c.6 1.4-.8 1 .6 1.3.1 0 0 .5.2.5 1.2-.2.4 1.4 1.6 1.6 1 .3 1-.5 1.3-.6.2 0 1.4.7 1.3.2 0-.2-.7-.5-.5-.5.8.7.2-.3 0-.7 0 .2-.6.5-.7.3.5-.3.8-.7.7-1.5-.3-.6-1.3 0-3-1.9-.3-.6-.8-.9-1.2-.2-.9-.2-.5 0-.5.7-2 .8-1.1.5.2.9Zm6.2 4.8c-1.3-1.4-1.3-.7-2.7-.7.2.6-.7 0-1.3 0-.2.1-1.5.7-1 1 1 .4 3.8-.2 3.8.4 0 .3.3.2.7.1.4-.8 1.3-.3.5-.8Zm-2.2.8c-.8.2-2.7.2-.9 1 .3.5.7-.7.7-.7 0-.1.2-.1.2-.3Zm-37.1 1.6c-.5.3-.1.2 0 .4 0 .8.9-.2 1.6.1.6.3-.8-1.2-1.6-.5Zm0-2.7s-1 1.3.1.9c1-.3 1-.6 0-.9Zm-1.3.4c-.5.9-1 .7-.2 1.7.1-.2.7-1.9.2-1.7Zm39.1 17c1.5-.9-1-.6.1-2.4-1.1-1 0-2 0-3-.1-1.1-.7-1-.2-2.2.2-.4 0-.3.4-.7.4-.7-.7.5-1 .3.4-.8 1.2-.1.2-1.6.9-1.6-.4-1 .7-1.7-.6-1.5-2.2-1.7-3.5-2.5-1-.2-.6 1-1.6 1.3-1.1.4-2-.7-2.9-.3-.3 0-1.6 2.5-2.3 1.3-1-.6-1.4-.1-2.4.3-.7-.2-4.5-.2-4 1 1.1.2 2 .7-.1.4.2-1.7-2.6-.6-2.4.3-.3.2-.4-.6-.6-.6-3.5.8-3.1.2-6.2-.6-1.8-.2-3.3-1.3-5-1.8.1-.2-4-.3-2.4-1.1-1.5-1.4.4.9-1.9.3-.1 0 .4.2-.1.3-1.1-.6-2.8-1-4-1-.3-.5-.6-1.3-1-.1.5 1 .7 1.7-.6 2.1.5.9-.6.4.6 1.5-.3 1.4 1.6 2.4.9 3.3.2.4 1.2 1.3 1.6 1.8.3.6 0 1.2.7 1 .7 1.6 4 2.4 3.3 4.3-.2.2-.4 1 .2.7.5-2.1 1.1.8 2.1 1.2.3-.2.6-.5.5.1.6-.3.5-.1.2.3-.1.6-.2.4-.5.3 0 0 0 1.6-.3.7 0-1.9-2.1-1.5-3-2.8 0 .6.6 2 .7 3 .8.8.5.3 0 1 1.4-.3 1.7 2.2 2.7 3.3 1-.1 1.3.6 2 1-.4.6.2.5.6.4.6.5.9 2.6 2.2 1.9.2-.5-.8 0-.7-.3 0-.2.6 0 .6-.3-.1-1 .7.8 1.2.9.5.1 0-.5.4-.4.3 0 0 .6.6.5.6-1 1.3-.3 1.3.5-.4.1-.7-.8-.8.2-.5-.6-1.3-.6-2-.7-.1.1.5.5.1.5-1.5-.7.3.4.5.9.1.1-.2.7-.1.7.4-.3.9.1 1-.4.9-.1 1 .6 1-.1 1.1 0 2.3.6 3.9.3 0 0-.4-.7 0-.6 0 2 5.7 1.8 3.7.9-.2-.7 1.3.2.4-.8 1.6-.1.8-.1 0-.5.3 0 1.4-.5 1.4-.7 0-.3-1.6 0-.9-.3.4-.3 1.3.2 1.4-.3 0-.3-2.8-1.3-1.2-1.8.4 0 .6 1.7 1.2.5.5.3-.2.6-.1.7.7-.1.8.9 1.6.4.7-1-.8-1.3.7-1.9 0-.1-.7-.2-.5-.5.3-.5.4.3.7.2 0-.4.1-1 .5-1.2 0-.4-1.6-1.4-1-1.4.9.4 1.3 1.6 2.2 1.2-.4.5.2.5 0 1-.4.5-.4-.4-.8-.2-.1.1.1.3.2.5 2.9.6-.7-3.8 2.7-1.4h1.8c0 .4-.1.5.3.6-.6.2 0 .6.5.6-2 1-1.5-.5-2.3-.8-.8.1.7.4-.7.6-.7.8 1.1.8 1.2 1.2-1.4.1 1.2 2.1 1.4.2.2-.3.3.2.3.4 0 .1 1.8 1 .9.1.5-.3.4-.4-.2-.5.5-.3 0-.3 0-.6-.2-1.1.7-.6.4-1.6.2-.1-.1-.1-.2-.2 0 0 .2-.4-.2-.2-.6.2 0-.3-.6-.3-.7.2.1.4 0 .5-1.4 0 0-.4-.3-1.1 1.3-.5 1-1.6.1-2.3 2.3.2.8-1 1.6-2-.1-.7-1.1.6-.5-.3 1.6-1.2.2-2.2 2.5-2-1.1-.2-.9-.2-.7-1 .9.3.2-.3.4-.5 1.1.6.4.8-.3 1 .3.2 2.6.7 1.2 1 .5.4.5.5-.1.8.2.4.9.5 1.1 0 .5-.5-.6-.5-.5-.7Zm-115-62.3c0 .3-.7.6-1 .5-.5 0 0-.7-.4-.7-.7.1-3.2.5-1.4-.7-.6-.2-1.2-.2-.1-.6-.8-.4-2.5.4-3.5-.1-2.2 1.5-7.5.1-8.3 2.6 0 .2-1 .3 0 .7 1.4.4 1.6 1.9 3.1 1 1.3.2 3.5.5 4-.5 2-.2 2.4 1.8 4.5.3-.4-1.1.6-1 1.5-1.4 1.3-.5 3.2 1.2 4.3-.1.2-.4-2.7-2-2.7-1Zm-46.7-34.2c-2.4.2-1 1.7-.5.3 0-.2.8-.1.5-.3Zm40.9 21.9c-.1-.3-.5.3-.4.4.2.3.5-.1.4-.4Zm173.3-90c0 2.1-2.5 3.5-.1 5.4.5-1.5 2.6-6.2 3.5-7.6 0-.5-1-.5-1-1.6.1-1.9-.1-1.7-1.2-.6-.8.5 1.5.6.5 2.5-.1.7-3.5 1.7-1.7 2ZM318.2 148.8c1.4-.5 4.2-1.8 4.8-3.4.2 0 .7.5 1 .3.3-.2-.1-.3-.1-.3-.3-1.6 1.4-.4.8-1.8-.2-.5-.8.3-.7-.2-.2-1.5-1-1.4-2-1 .3-1.7-1.4-.8-.7 1.2-.8-2-1.5-1.5-2.3.1 0-1-1.2-1.3-2-.5-.4.2-1.7 0-1.5.7-.5-.2-.3-.6-.4-1-.2 0-.7 1-1 .6-.5-.4.8-.5 0-1-.3-.3-.5.2-.6.1-3.3-4-.8 2.5-.2 3.5 1 .9 3.9 1.8 4.9 2.7ZM180.2 372c-.4-.1-.3.2 0 .3.3.1.6 0 0-.3Z" opacity=".6"/>
  <path fill="#BEBFC2" d="M222.6 355.1c-.4 0-.4.3 0 .2.3 0 .5-.2 0-.2Zm-10.5.3c-.1-.1-.2.2-.1.3.1.2.3-.2.1-.3ZM139.6 337c.1-.2-.2-.4-.2-.7 0-.4-.2 1 .2.7Zm9-113c.6.3.4-.1.8-.3-.1 0-1.9.5-.8.4Zm.9-1s.5-.2.2-.4c-.3-.1-.6.4-.2.4Zm.4 1 .3-.3c.7-.7-1.2.6-.3.3Zm.4.1c.2 0 .3-.4 0-.2-.2.1-.2.4 0 .2Zm-.6.7c-.2 0-.4 0-.3.2.1.4 1.2-.6.3-.2Zm2.3-1.9c0-.3-.2 0-.3.1-.1.2.2 0 .3 0Zm.6.2v-.7c-.4.4-.8.7 0 .7Zm.7-.9c.7.1-.8-.5-1-.6-.8-.2 1 .6 1 .6Zm83.5-49.1c0 .3.2 0 .3 0-.1.4.5-.3.8 0-1.3.7-.5.8.5.4.8-.1-.7-.7-.8-1 .2-.8 0-.7-.6-.2-.1 0 .3.2.1.4-.1 0-.6-.3-.3.1-.2.1-.3.4 0 .3Zm-.4-1c.4-.6-1.2.3-1 .4.6.3 1-.3 1-.3Zm5.1-2.4c.4.7.6-1.2 0-.5-.9-.5-.3.2 0 .5Zm2.3-4c.3.5.4.5.4 0 .6 0 .8-.2.3-.6.6-.5.4-.6-.2-1-.8 1 .2.8-.2 1.1-.6-.7-.8 1-.3.6Zm57.6-27.6c1.3 1 5.8.6 1.8-.8-1 .3.4-1-1.1-1.6.1-2.7-1.4-2-2.7-.4 1 .2.8 3-.8 1.8-.3.1.2 1.4-.4.9-1 1.3 2.5.3 3.2.1Zm23.9-6c.3.4.7 1 .8 1.5.8.9.9-1.6.2-1.5-.2-.4.5 0 .2-.5-.5-.6 0-1.3-.2-1.3-.5.2-.1.6-.4.7-.4.2-.6 0-.8-.1.5 1 .6.9.2 1.3Zm1.3 4.8c-.3.2-1.4-.5-1 .3.8 1.4 2-.8 1-.3ZM241 172s-.7-.4-.6.2c0 .4.6 0 .6-.2Zm19.4-13.1c-.3-.2-1.2-.4-1 0h1Zm17 11.4c-.3-1-.6.5 0 .9 1.2.7.3-.7 0-.9ZM293 169l.3.4c.2-.2-.5-1.6-.9-1.8-.4-.1.4 1.3.6 1.4Zm31.1-27.8c-.6.3-.7.2 0 .6.6.4.4-.7 0-.6Zm12.3-5.6c-.3-.6-.6 0-1.1 0-.3.6 1 .2 1 0Zm-1 1.6c-.4-.5.4-.3.8-.5-.2-1-2.3.8-.9.5Zm16.4 4.5c.1 0 1-.2-.1-.6-.6-.2-.1.4 0 .6Zm.5-.7c.1.2.7-.2.4-.3-.3-.1-1 0-.4.3Zm-72.5 28.4c1.3 1.5.6 0 0-.8-.5-.5-.4.8 0 .8Zm-45.3 3.3c.2-.3-.4-.4-.6 0 0 .2.5.2.6 0Zm.8.8c.1.1.3 0 .2-.2-.2-.1-.5 0-.2.2Zm7.6-.6c0-.3-.4 0-.4.2-.1.3.3.1.4-.2Zm-3-3.7c.1 0 0-.3-.2-.4-.2-.1 0 .4.1.4Zm2.3-4.3c.1.1.3 0 .2-.2-.2-.2-.2 0-.2.2Zm0-1.2c0-.2-.3-.2 0 0 0 .2.1.3 0 0Zm6.3 1c.5-.2-.6-1.1-.2-.2l.2.1Zm4.8-1.4c0-.4-.4 0-.3.1-.3.5.2 0 .3-.1Zm.3-.2c0 .2.7 0 .4-.2-.3-.3-.7-.3-.4.2Zm25.6 4.2c.3-.1 0-.3-.2-.3 0 0-.1.3.2.3Zm42-30.6c-.3.3.5.3.3-.2-.3-.5-.2-.2-.3.2Zm2.3-.4c-.2 0-.3.1-.2.2.1.1.3 0 .2-.2Zm110.4-9.5c0-.2-.2 0-.2 0-.3.2.3.3.2 0Zm-.6 2.1c.1.2.3 0 .2-.2-.1-.1-.2.2-.2.2Zm11.7 9.8v-.1s-.1 0 0 .1Zm.3 0c-.1 0-.1 0 0 0Zm1.4 1c0-.1-.1.1 0 0ZM517.4 240c.7 0 .3-1.2.3-1.3 0-1.6-.7 1.3-.3 1.3Zm6.9 1.1c1-.3.2-1.3-.4-1.2 0 0-.2 1.5.4 1.2Zm32 48.5c.5.7-.2-1.5.6-3-1.9-.4-1 1.8-.6 3Zm.2 3.8c.6-.2.9-2.5 1.3-3l-1.2-.3s-1 3.6-.1 3.3Zm-76.7 107c-.3.7 1.3.6 1.7.3 1.1 0-1.6-.3-1.7-.2Zm-13-4.3c-.2 0-.5 1.2 0 1 .6.4 3.3-.6 1.2-.8-.4.2-.9 0-1.3-.2Zm49-155c-.4-.4-.4.6-.3.8 0 .3.7-.5.4-.7Zm13.7 8.2c.2.2 0-.8-.2-.3-.3.3-.3.3.2.3Zm4.5 6.4c-.1-.3-.5-.5-.6-.8 0 .2.5 1.8.6.8Zm-.6-.9v.1Zm18.3 15.4c.5.3-.3-.6-.3-.6-.4-.3 0 .4.3.6Zm-33.7-31c.3 0 1-.4.8-.5-.2-.1-1.2.4-.8.5Zm5.7 1c.3-.6-.4 0-.5.2-.4.6.4-.2.5-.3Zm5 7.8c0-.2-.3 0-.3 0-.1.3.3.3.3 0Zm-39.5 194.5c-.5.7.2.3.1.5 0 .2-1 0-.6.4.1.1.8 0 1 .2.1.3-.7 0-.4.6.1.1.6-.3.8 0 .2-.3-.6-2-.9-1.7Zm-1.2 2.4c.1 1.5-.8-1-.6 1.3-1-.5-1.5-1-.5.3.7.6.5-.6 1-.7 1.3 3 2.3-3 0-.9Zm11.3-10c-1.3 0 2.5 1.3 0 0Zm-1.2 3.3c-1-2-2.6 2.2-.4.8.2-.2-.8-.2-.4-.5 0-.1 1.7.2.8-.3ZM363.7 137.7c.5.2 1-.6.9-.6-.3 0-1.5.3-.9.6Zm3.3-.7c.3 0 4.2-2.6 1.2-1.1-.4.5-.6 1-1.1.3-.6.6-2 1.6 0 .8Zm5.6-6c-.9-.3-.3.9-.8 1.5-1 .3-1.5 1.7-2.2 2.3 0 1.4 3-2.9 3-3.8Zm-5.4 9.2c-.1.2-1 1-1 .2-.5.8-.7-.1-.7.6s3-.7 1.7-.8Zm-1.5 15Zm33.5 31.2c-.1-1.4 1 1.4 2.2-.9.9.5 1 0 1-.8.1-.2.5.4.6 0 0-.2-.7-.1-.4-.3.8-.3.8-.5 1.3.3.3-.5 1.8-.2 1.4-1-.2-.3-.2.3-.4.2-1.4-1.3-2.6 0-4.3-.1-.9 0-2.8 3.3-1.4 2.6Zm3.6 2.7c-.3-.6-1.2 1-1 1.2.2.4 0-.2.5-.3.6.5 1.8-.1.5-1Zm30.3-61.2c.8.5-.4-1-.6-1.2-1.3.2-.9 2.7.6 1.2Zm43.8 73.6c-.2.1-1.1-.6-1.5-.3 1 .7 2 3.6 3 1.6-.5-.6-1.3-1-.6-1.8-.1-.1-.4.3-.7 0-.4-.7 0 .4-.2.5Zm7.2 8c-.4-.1-1 0-.8.6.2.4 1.2-.5.8-.6Zm22.7 10.2c.5.4 0-.4.4-.7.8-.4-1-.4-.9.6 0 .3.4 0 .5 0Zm.2.7c.6.3-.3.3-.2.7.4 0 .5-.4.4.2.2.3.3-.4.6 0l.2-.3c1 .7-.1-.5-.4-.5 0-.9-.4-1-.6 0Zm1.2 2.9c.6 0 .5-.6.4-1 0 .7-1 .8-.4 1Zm0 0Zm-153.8-83.6c.2-.3-.7-.2-.8 0-.1.3.6.2.8 0Zm15-.2c0-.1-.1-.4.1-.8s-.6.9-.2.8Zm1.5-1.4c.3-.2-.8.1-1.1.3-.2.1.7 0 1.1-.3Zm2.3 3.6v-.4c-.2-.6-.5 1 0 .4Zm25.7 45.6c-.3-.3-.7 0-.7.3 0 .1.8-.2.7-.3Zm34-61c-.2-.3-.5 0-.5.2.1.3.7-.2.6-.3Zm.8 0c.4 0 .1-.4 0-.3 0 .2-.4.3 0 .3Zm68 92.3c.3 0 .1-.4 0-.6-.3-.5-.3.8 0 .6ZM364 138c0-.3-.5.2-.4.3l.4-.3Zm4.7 1.2c-.1.1-.5.6 0 .4.6-.2 0-.4 0-.4Zm-3 3.2c.5-.1 0-.2-.1-.3-.2 0-.4.4.2.3Zm68.1-14.3c0-.2-.2 0-.2 0 0 .2.2.2.2 0Zm102 219.4-.2.3.3-.3Zm-75.7 49ZM343.4 139.4Zm214.9 160c.1-1-.1-1.3-.6-1.6l.2-.1c-1.3.3-1-2.7-1.6-1.9-.2 0 0-1 .2-.4 0-.2.3-1.6 0-1.3-.2.3-.4.3-.2-.2 0-.2-1-1-1-1.1-.1-2.1-1.5-1.5-1.7-3-3.2-.8 1.3-1.4-1.1-1.5-1.1-.9 1.7-1.2 1.6-1.3-.7-1.4-1.4-4.7-.9-6.7-1.6-.3.4-3.4.8-4.3-1.6.2-.7-.7-1.5-1.1.3.4-.1 1.2-.5 1.4.4-1.3-.2-1.8-1.1-2.3.6-.3-.5-.3-.4-.5.7 0 0-.8.1-1.1.3-.5 2-2-.2-.9.7-.8.6-.6.4-1.8-.4 0-.8-.2-1-.4-.4 1-2-.7-2.8-.7 2-.2-.4 0-.8-3-.2-1.2-3.8-1.8-4.8-3.4-.5-.6-1.4-3.3-1.8-3.6-.2.5-.5.4-1 0-.4-.4 0-2-.8-.7-.6-.1 0-.5 0-.5-.3 0-1.2-.7-1.3-.2.4.2.8.5.8 1-.3-.1-1.3-1.1-1.4 0-.7 0 .3-1.5-1.3-.9-.6-1.2-2-1.6-3.1-2.2l-.7-1.2c.6.8 1.7 1.5 2.2.8-.3-1.3-1.2-.8-.7-2.5-1 1 0 .1-1.1 0-.4-.1-.6.1-.8-.4-.7.1-.5 0-.1.5-.3.2-.1.7.2 1.2-.4-.6-1-1-1.7-.6-.6.4-.4-.3-1.2-.5 1.7.1.1-.6-.1-1.3-.3-1 .5-.6.4-1-1.5-1.6-.4-1.4-.8-3-.5-.2-.4-.4.2-.3 1.2-3.2-.2-1.6 0-3.7 0-.5-.2-.2-.2.3-.3.9-.5.5-.5-.2 0 0-.6.3-.6-.5.2-.5.7 1 .8-.1.7-.3-.8-.6-.7-1.3-.3 0 0 .6-.1.6-1 0 .5-.8-1-.9-1.4.4 1.6 4-.5 2.2-3.2-1.9-3-.8-5.3-4-2.6 1.2-.6 3 0 5-2.4-1.7-1.3-3.5-4.2-1.5-.3 0 .3-.4.3-.4.3-1-.4-1.5-1.2-1.7.8-.4-3-5.3-1.2-5.3-1.1-1.7.6-1.2 0-2-1.4 1.3-.2-1-2.2-.3-.1-.7 1.3-.8 0-1 .7-.2 0-1 0-1.3-.2-.5-.4.3-.7 0-.5-1.2.8-1.8-.7-2.6-1 0-.1-.4-1.4-.2v-.2c.2-.1-.1-.4 0-.4.2 0 .6.2.5 0-.4 0-1.8-.5-2.1-.7-1 1.1-.3 0-.4-.6-.4-.3-1.8-.5-1.3-1.4-1.9-1 .6-.7-.4-2 .3-.2.3.6.9.4.5-1.2.5 1 1.7.6 0-.4-.9-.4-.1-.6-.6-.4-1.2-.5-.8-1.3 0 0-1-.5-.5-.6 0-1.2-1.4.5-1.6-.5.3-.2.4-.6 0-.3 0-.5-.3-.4-.3.1-1.1.2-.3-2.3-1.3-1.2-1-.4-1.2-.2-.5.5 0 .2-.6 0-.5.3 1.3 0-.5.7-.3 0l-1.5-.8c.2-.4.5-.5 0-.8.2-.6-.2-.1-.5-.6-.1.1-1.4 0-1.5-.6-.6-.2-.7.8-1.8.1-.8-1.6-2.5-3.1-1.5-.5-1 .3-1.9-.8-2.5-1.3 1.4.6-1.8-4.6-1.7-3.7 2 1.4-2.5.7-3 .9-.9-.3-.7-2.1-1.3-2.3 0 2.1-2.3.8-2.9 0-.3 0-1.2.1-2.2-.4-5.7-3-1.7-4.1-2.4-5.9-1.8-.7-1.3.5-1.8-1.5-2-.5-2.6-2.3-1-3.9.5-1-.5-2.5.7-3.3-1.6-1.4-.2-2-1.3-2.7-.6-1.2-1-2.2-1.7-3 .1-.6 1.4-1.9.4-1.7-.6.8-1-.3-1.5.6 0 0 .4.7 0 .6 0-2-2.5-3-3.5-5-1.7-.1.1-2.1.1-2.3-1.2-1.1 1-1.4-1.3-3.3.1-1 0-2.5-.8-3.5-.7-.7.6-.4-.5-1.1 1-1.2 0-1 1.3-1.6 0-.9-1.5.7-1.3-1.2 0-.6 1.3-1.8 1.2-2-.6.3-1.8-.3-1.4-1-2.5.7-2.7-2-4.4-2.2-1.2-.8-3-.5-2-2.6-1.6 1.2 0-1.9-1.8-1.8 0 .8-1.1 1.4-2 1.5-2.2-1.6-.8 2.6-4.8 1.6-2-.7-1.5-3.1-2-4.4-3-2 0-4.6-1.8-7 .3-1.5-.7-3.5.3-4.5-.6.4-1.7-.1-2.1.4-.4-.5 1-1.9.4-2.1 1.1-.8-1-.8-1.3-1.5.1-2.9-2.8-.1-2.2-3.5.4-.3 2.4-2.3 1.4-1.9-2.2-1.2-1.9.7-3.7-1a16 16 0 0 0-.5-3.7c0-1 .8-.1.1-1.6-.9-.3-.1-4.4-1.9-3-.1-.3.4-.7-.3-.6-.1-1.4-.9-.4-1.4.1-.6-.8 2.2-1.9.5-2.2-.2-.7-.7.3-1.2-.1-.9 2.1-1.3 1.7-3.2 2.3.3 3.5-1.6 6.8-2.3 10 0 0 1.1.4 1 .8-.5.3-.8-.8-1.2.3-.2.4-.1-.6-.3-.8.2-1.8-1.6 1.3-1.7 1.9 0 .4.2-.2.5.2.4.4-1-.1-.8 0-.2.8-2.2 3.9-.7 3.1.4 0 .6 0 0-.1v-.9c.6.3 1.7 0 .4.6 2.2 1.4 1 .4 3.1.8-3.3.9-.7.8.2 1.4-2 .6.2 1.1-.6 1.8-.6-.4-.3-2.9-1.3-2 0-1-.5 1-.9 1.3-2.5 1-1.3 2.4-.5 4-6 9.5 1 5.2-1.9 11.5-.4 1.7 1.8 5 1.5 6.4-3.9 5.6-1.8 13.7-7.8 18.6.6 4.9-7.8 8.5-11.2 6-2.9-1.3-9-1.9-8.6-5.8-3.7-3.2-9.4-1.3-12.8-4.8v.1c-3.2-3.8-7.3-4.3-11.4-6.6-.7.2-.2 1.1-1 .4-.6-.4-2.5 1-1.7-.3-.8-1.4-2.8-2.3-4.5-2.7-1.3-.8.4-1.4-2.2-2.4-2.5-1.4-4.6-2.7-7-3.8-.6-.5-1.7-3-.6-2.3 1.6-1 2.7-5 5.4-5.2-.2-1-.3-2.2.8-2.9.4-.4.3-1.8.9-2.2.2-1-.9 1.4-1.8.6-.7-.4.5-.4.1-.7-.8.7-.9-2.7-.1-2.1.5.3 1 0 .8-.2-.7 0-1.3-1-.3-1.6.5.8.2-.2.5-.4.6-.1.5 1 .7 1 .2-.1 0-.7 0-.8.5 0 .5-.9 1-1.1.5.6-.6 1.8 1 .8.2-.2-.3-.8.2-.8 1.5 1.5 0-1.2 1.2-.7 0 0 .4 1.6-.1 1.9-.4 1.6.4-.2 1-.3.3.6.4.1.4-.3 2.3-1.5-.8-1.8.5-2 .5-.4.3-.1.6.2.7-.7.4.4.9 0 .4-.5-1.1-.8-1.3-.8.4-.7-1-.6-.8-1.4.2-.3.4.5.7.4.6 0-.2-.8.2-.7.4 0 .2 1 .7.9.3-.1-.2-1-.1-1 1.4-.3.4-1.1 1.8-1.6-.3-.7-.9-.8.3-1.1.4.2-.6.7-.2.9 0-.6 3.3-2.4 1.7-1.9.4-1-1.8-2.2-2.7-1.6-.4.4 1.2 0 .8.6-1 1-2.1-.8-1.8-1.6-.6-1.2-2.5-.7-.2-1.4.3-.2.1-.7 0-.6 0 .1 0 .4-.2.5-1.6 0-2.8 1.2-4 2.1-.8 0 .4.6.4.6.5.1 1-.4 1.4.1-.3 2.8-2.1 1.8-3.6 2.4-.6-.4 0-.8-.3-.8-1 .2.7-1.3.6-1.4-.3-.7-.4.7-1.3-.1-.4-.4 1.3-1.3 1.2-1.6-.4-.1-.8.6-1 .7-.5.1-.5.4-.6.4-.5-1-1.6.8-2 1.1.2-.4-.3-.4-.5-.7-.6-1 1.6-2.1 2.4-2.4.5-.5-1.7.4-1.8.1.4-.4 2.8-1.6 2-2.2-.2 0-.4-.2-.5 0 .8 1.8-3 1.3-3.3 2.5-.2.7.5 0 .7 0 1 0-.6.7-.7.7-.6-.6-.7.3-1.4.2-.8 0 .5-.3-.7-.3-.6 0-.7.6-.7.6-1.8.4.2.6.3 1-.2.3-2.8-1-1.2.4-1.3-1-1.2.4-2.6-1-2.4-.6-2-2.9-3.4-2.2-1.5 2.6-4.6-1-5.6 1.2.2-.7-.1-1.5-.6-2 0 .1-.3.6-.6.4.2-.3-.1-.6-.4-.8-.1 0-1.2 1.5-2.3.2-.3-.6 1-.7 1.2-1l-.3-.3c-1 .3-1.2-.5-1.8.5-.3.1-.5-.1-.8 0-.8 1.5-.9-.6-1.5.7-.5.7.2-1 0-1-.9.4-1.6.7-1.4-.2-.4-.1-.4.8-1 .3-.6-.3 1-.6.2-.7-2.6 1.5-2.4-1.6-3.7-2.4-.6-.4-.8-1.1-1.6-1 0 .1.6.4.4.8-.2.3-.5-.4-.7-.2-1.4 2.4-2.3 0-3.6-.6-1.4-3.5-.7 1.8-2-2-.1.8-.6-.1-.7.5.6 2.2-.6-.7-1.4-.5-.3.1.6.8.5.9.1.2-.3 1 .2.9.7.6.2.4-.2.4.5 1-.6.5-.5-.5-.7 1.2-.4-.6-.3-.8-.6.2-.6-.6-1.4-1-.6-.1.4 1-.5 1.3-1.5-1.6 0 0-1.4-.5-.2 0 .4.5.3.7-.2.3-.6-.4-.6-.1-.7 1 1 .2 1.5.5-.2.6.2.2.5.3.3.3-.6.2-.2.6l1 .2c-.2 2.6 4.5-2.1 6 2 .3 0 1.3 0 1 .3-.4.4-.5.8-1 1.1 1.5.9-.5 3 1.2 3.4-4.6-.8-1.8 1-3.5 2.4-.2-.1.4-.6.4-.6 0-.8-.9-1.4-1.4-.7-.5-2.1-1.4 1.1-3.2.5-2.2-1.6-7.5 2.3-7.7-2.4-.3 0-.7 1.7-.6 1.7 0 .8-.8-.8-1.3-.4-.2-.3-.3-.4-.5 0-2-1.4.4 2.5-.7 1.7-1.4.2-.9-.7-2.1.5-.3 1 1 .2 1.3 1 .3.6 0 0-.5 0-1-.1.5.8.7 1 .2.4-.3 0-.5 0-.5 0 0 .3-.2.3-.4 0-.4-.8-.7-1-.4 0-.5 0-.4.4-.5.1.1-1-.4-1 .7-.7-2-1-2-.7-.1.1.3.1.4.3 0 .2-.6 0-.2.5.2.2-.4.7-.3 1 .8 0 .4.5-.2.3.3.5 1 .5 1.5.8h-1.2c0-.2 0-.2-.3-.1 0 0-.3-1-.6-.9-.4.1.3.5 0 .5-1-.6-.8.5-1.6.2.2 3.8-1 1.7-2.5 2.9 0 0-.2 2 0 2 .3 0 3.4 2.4 1.6 1.4-1.2.7-3.5 3.5-4.2 1.2-1.9 1.9-.3 3.1-1.9 4-.3.6 1.4.9-.7 1.7-.3.2-.6 0-.6-.3-.5.2.5.7-.2 1-.1-.3-.2-.3-.5-.1-.2 0 0-.4-.2-.3-.1.2-.3-.2-.5-.1.7 1.1-1.5 2.3-1.3 3.6 1.5.8 2.9 2 4.7 1-.2.7-1.8.7-2.1.8-.6.4.8 1 .8 1.1-.1.8 1 .7 1.4.5-1.1 1.3 1.2-.3 1.7 0 .5-1 .6-.5.2.2-.5-.4-1.2.6-1.8.7-2-.6-2.4.5-1.6 2.3.4.4 1.6 1 .2 1-.2-1.1-.4-.6-1-.3 0-2-.6-.9-.9-2-.5-.6-1.3-.5-1.4-.5-.5-.8-.7-.3-1.3-.3-.8-1.8 0 2 0 2.1 0 .2-.3.2-.3.7-.2 1-.3.4-.2-.1-.2 0-.4.6-.5.6-.3-.4.8-1 0-1.6 1.6-2-10.6-3.7-8-2-1 0 1.2 3.2-.8 1.3-.4 0 0 .6-.2.6-.3-.4-.2-2.4-.8-.8-1.5.8-.5 1-.7 2.3.2.7.9.4.9 1.4-.1 1.7-.8-2-2-1.6-.2.5.3 3.2-1.1 3 1.3-.9-.2-1.8.7-2V171c-.5-.3 1-2.6.5-2.8 1.2-.5.7 0 .7-1 .2-.3.5.2.5-.2-.1-.3-.2-.3-.6-.2-.3-.1-.8-.9-1.3-.6-.3-.8-.4-.9-1.2-.7 0 0-.4-1.3-1-.9-.4-.1.5-.4 0-.6-.3-.2 0 .4-.4.2-.2-1.5-2.7-3.6-4.2-3.7-.5-1.2.6-.4-.9-1.2-.1 0-.1-.3-.3-.3-.6 0 .4.9-.2.5-1-.4-.5-1-1.4 0-.2 0 .2-.8-.3-.7.2.8-.9 1.3-.8.1-.6-.2-.4.2-.2-.5-.6 0 0-.1-.4-.3-.3.4-.5-1.4-1.5-.6.8.6-.5-.2-.6.1-.2.3.4.4.3.4-1.9-.4-1.5-.4-.8 1.3.7 0 .7.3.1.1-.4.2.5.2.2.4l-.9-.1c-.2.4-.2.2-.5 0-.3.5.2.7.5.4-.3 1.5-.4.9-1.2.6.4.6-.3 1-.4 1-.3 1.2-.4-.1-.4-.4-.2-.2-.4.3-.6 0-.2-.2.2-.9-.1-.6-1.8.4 1.3-1.5.2-1.5-.2.3-.6 1.2-1 .5-.6.8-2.3 1.2-1 2-.2 0-.5.2-.6.5-1.8-.8-.7-1-1-1.5 0-.2-.2.2-.3.1-.2-.5 0-.2.5-.5.1-.2-1-.3-.5-.3.1 0 .6-.3.5-.4-.2-.2-1 .7-1.2.5-.2-.3.9-.4.2-.6.7-.4 0-.1-.4-.2.3-.6-.2-.5-.3 0-.1.1-.6-.3-.6 0 0 0 1.4.5 1 1-1.4-1.4 0 .8-1.3-.5-.2 1.8 3.8 0 .9 2.7.5 1.2-.6.7-1 1.2 0 0 1.5 1.6.3 1.2 0 .8-.2 0-.8.1-.5.1.2 1.2-.2 1.2-.7 0-1-1.2-1-1.5 0 0 .6-.2.3-.4-.5.1-.4.4-.5-.1-.3 0 0 .3-.5.3-.6 0 .2-.7-.3-.7-.2.2-.7 3-1 2.1 1-.8-.6-3 .8-2.7 0 0 .3-.6.2-.7-.4.9-1.4-1-1.3-.2-1 0 .7 2-.2 3-1.5.3.3-.5-1-.6-.4.2 0 .6-.1.6-.5-.6-.3.1-.4.4-.4-.1 0 .4-.2.5-.4-.6-.3-1.6-1-.4-.4 0 .5-1 0-1-.1 0-.1.6-.3.8-.3-.3-1.1.3-1 .5.3 0 1.3 0 .4.2-.2.7-.1 0-.7.2.3 1.1-.5-.4-.3.6-.8-.3-.3.5.1.4.2.2-.2.6.2.8.2 0 2 0 1 .4-.3.4-1-.2-1.2.5-.1.3.4 0 .6 0 0 .5.3 0 .6.1-.9.6 1.3.3 1.5.4.2.3-1.4.5-.4.7-1.2.7 1.4.2.2.8-.5-.4-1.7.4-1.4-.6-.4-.4-1.4-.1-1.4-.8-.5.4.4 1 0 1.5-.6-.2-.1-2-1-1-.4-.1.3-.6 0-.8 0-.2-.2.1-.3.1-1-.6.7 1.2-.5 1-.3.5-.6.3-1 0-.3.2-1.6 1-.4.7-.2 1 0 1 .7.3.5-.2 1.9-.8 1 .1 0 .5-.9-.3-1.1.2-.2.3-1 1.4.5.9.8-.4 1.3-.2 2 0-2.3.8 1 2 0 1.8-.4-.2-1-1-1 0-.5 0-.3-.4-.4-.4-.1 0-.5.3-.6 0 0-.2.5 0 .3-.4-1.1-.5-.8-.6-1.9-.7.1-.3 0-.4-.3-.6-.3-.2-.3.5-.6.5.4-1-.2-.5-.9-.9-.3.3.3.4.4.6 0 .2-.4 0-.4.3-.1.1 1.2-.2.6.2-.8 0-.3 1-.4 1.1-.7 0-.2-.6-.5-.6-.2 0-.1 1-.2 1-2.7-1-.8-.4-2.4.1-.5-.4.4 1.1.3 1.3-.1.2-.2-.2-.3-.2-.3.2.3.5-.3.2.4.5 0 2.8.8 1.6.2.4.1 1 .6 1.1 0 .1-.4.5-.1.6.6 0 .7-2.7 2.6-2 0 .2-.6.5-.4.8-.5-.5-1 .2-1 .7.6.6-.7.2 0 1.6-.4-.3-.8.3-.9.6-1.1-2.7-1.6.3-1.1 1.6 1.5-.9 7.7 1.6 3.6.4-1.3 0-2.8.5-4-.4-.5.2-.3 1-1.8.5-.4-1.2-1.5-1.4-2.7-1.5-1.3-.6-.5 0 .1.4-1 .1 0 .5.1 1 0 .2-.8-.5-1-.5-.3 0 .3.7-.4 1l-.3-.7c1.4-.3-1.2-.7-1.2-1 0-.2 1 0 1-.2.2-.2-.6-.1-.6-.3.8 0 .2-.6-.5-.7-2.5.2-1.2.6-2 1.3l.8.5c.1 0-.3-.5.1-.3.2.4.8.3 1 .5.1.8-.9-.1-.9.2 0 .2 1.3.7.7.6-1 0-1.1-.4-2-.1.4.3 2.7.7.9.8 1.4 1-2.6-1.2-1 0-1.3-.1-.6.2 0 .7.4 0 1-.8 1.3 0-1.3.4 0 .6-1 .6-.7.3 1.4.3 1.8 1 .8 1.3 1.4 2.4 2.7.8.9 0-1 1-1.1 1.4 0 .1.6.5.4.6-1.8-1-.2 1.7.5 1.9-.8.6-2-2.1-2.6-1.5-.2 0 0-.7-.3-.7-2-.1 0 1.8-.1 2 0 .3-1 1.6-1 2.4 1.6 4.5-3.2-4.7-4.5-5.2 0-.6.5-.9-.5-1.2-.3-.8.6-.4.4-1-.3.3-.3.6-.7 0-.7.3-.4-.2-.6-.6-.8.6-.4-1-.3-1.4.6 0 1.3 0 .1-.5.6-1.7-1.7 1-1.7 1.3-1.3 0-1.6 1.5-.4 2-.9-.2-1.7.7-2.5.1-.8.5-.6 1.2.1 2-.8.2-1.3-1.6-1.4 0-.5.3 0-.4-.3-.2L212 190c.7.3-.5 1-.8 1.2-1.3 2.6 1.3 5 0 7.2.2.2 1.2-.5 1.9 0 .9 2.2-3.6 2.8-4.5 4.5-1.4.7-1.2-.7-2.3 1.4 1.4.5-.6 1.5-1.3 1.2-.4 9.8-15.9 11-22.3 13.2-1-.1-4.5-2-4.9-.6-1-1.4-2.8 1.7-3.6 2.4-3.3 1.6-8.4-.3-10.9 3.5-2.8.3-6.2 2.6-7.5-.2-.7 0-6 2.8-3.5-.6-1.3.5-5 4.1-7.2 3 .1 1.4-1.3 1.6-2.4 2-2.4 1.8-4.4 4-7.3 5.1-3 1.5-7.1 1-8.4 4.5-.2.4-.3-.6-.6-.4.6 1.6-1.4 2.8-1.4 4.7-.4.5-1.4-1-1.9.2-.2.5-1 .2-1-.2 0-.6.9-1.5.6-1.7-.3-.3-.3.4-.6.3-.2-1.4-.6-3.8.8-5-2.4-1.1-6 7.6-5.7 8.8 2.8 1 .8 3.4 1.2 5.5.2.5-.1.6 0 .9 0 1.7-.9 1.4-1.9 2.3-1.3 1.3-1.7 4.7-2.4 5.9-.7 3.8 3.2 3.2 2.5 6.4l4.7 7.2c.6.5 1.2.9 1.3 1.6.8.3 1.6.3.8 1.4 0 .3.5.3.4.5-2 0 .5.3-1 1.8.1.6 1.3 2.2-.3 2-1.4 2.7-3.1-3.3-2.9-4.1-.3-.3-1.3 5.2-2.3.8 1.7-3.4-2-2.7-2-5.3-.4.5-1.2 1.4-1.1 2.1.1.6 1 .4.5.9 1 1.2 1.3 2.9 2.5 4 .7.3 2 .2 2.2 1.2-.4.6.2 1 0 1.6-.7.2-.6 1.4-1.2.8-1.2 0-.6.8-1 .7-.6 0-.5-1.6-.6-1.9-.4 0-.4 1.5-.6 1.4-.2-.1-.3-2.3-.3-2.6-.8-1.5-.2.2-.5.5-.3-.4-.6-3-1.2-2.3-.1-.4 0-1-.3-1.3.4 1-.4 2.5.2 3.5-1-.5-.5-2.5-1-3.5-.4.4 0 1.6-.2 2 0 .2-.2-.2-.3-.3-.3-.3-.5-.2-.8-.3 2 3.6 10 9 10.8 15-2 4.6 5.2 6.2 5 10.2 3.1 4.6 4.8 4.9 4 12-.4.8.6 1.4.3 2.3.9.3.4 1.4.8 2.3 0 1 1 2.5 1.4 3.5 2.3 3.2 8.8 10.8 5.4 14 .3.5 1.2.4.4 1 .6.5.4 1 0 1.6 1.5 1 .2 1.1-.5.8 1.4 2.5 0 1.7-.3 0 0-.3 1.3-1 .6-1-2 1.8.2 4.7 0 7 .2-.8.6-.1 0 .7-.5.1-.7-.3-.8.3-2.1 5.5-6.5 1.3-6.8 2.3.3.8-.5.5-.5 1.2.3.6.4 1 0 1.6 0 1.2.6 6 2.4 4.3 3-.3 7.7 2.5 9 5.1h1.4c.7 0 3.9 1.7 3 .3 1.4.8 2 .8-.2.7 1.8 1.4 3.8.6 5.8 1.2.7-.5 1.9-.4 2.7 0 1-1.8 4.9 1.5 5.4.4.6-1.5 3.5 1 4.2 0 .2-.3-.6 0-.8-.1 0-.3-.5-.7-.4 0-2.1-.6 2.7-1.1 3.3-.6.4-.4-.5-.6-.4-.7.7-.7 2.6 0 2.7-.5-.6-2.7 3.9-1.3 3.8-3.4.4-.7 2.4 0 1-1 1.2 0 3.6 0 4.3.9.8 0 .3-1.8 1.5-.4.6-.2-.2-1 .4-1.2.2-.2 1 .5 1.7 0-3.3-1.3 3.7-4.3 5.2-4.4 6.6 1.2 13.1-2.4 19.4-.2 1 .3 2-1.5 2.6-.5 1.8.7-.2 2.5 2.1 1.4.4-.1.1.5.5.2.4-.2-.4-.5 1.1-1 .9-.2 2.5 1.1 2.6-.1 2 0 3.6-.3 5.5-.3.9.4.2 2 1.3 1.2 1.3-.6 2.4-1.5 3.5-.5.6-1.1 2.8-.7 2.6-2.2 4-1.9 2.5-7.9 8.4-7.6 3.7 0 7.4-3.5 11-3.8 5.7-5 14-1 20.5-2.8 5.9-1.5 12-2.7 17.6-5.4 7.3-2 16.2.2 23.2-1.8 1.5-1.3 11.2 3.3 12.2 4.7.8 1 2.5-.3 3.4.3.3-.1-.6-.4-.2-.6 4.2-1.7 6.8 3.5 10.9 2.2.2 0 .6.3.5 0-.2-.4-1.1-.3-.8-.6 1.2-.4.5.3 1.5.4.6 0-.3-1.2 1.3-.7.3.1 0 .3-.1.4 0 .2.3 0 .4.2-.5.6.4.3.7.5.1 1.3.2-.5 1.4 1 .5.4 1 1.4 0 .7-.4.2-.4 1.2-.4 1.4.2.2 2.8-1.1 3.2-.8.9.7 1.6 1 1.7 2 0 .2-1 2-1.1 1.1.7-.7-.2-.5-.8-.5-1.4-.4 0 .4 0 1.1-1.5 1.4-.2.7.9 1.1.5.7-.6.6-.6.7 0 .4.8 0 1 .3.5 2.5 1.9.3 4 1.5.2.3.6.5.7.1-1.8-.7-1-1 .4-.5.6 1 .1.4-.3.7 1.4.6 2.6 2.4 1.8 3.9 1.4 1 6.3 3.1 4.4 5 2 .2.9 4.8 2.2 3.8 0 1 .5.3.8.8-1 .4-1.9-.2-2.3-.7.6-.7-.6-.2-1-.6.1-1.5-.5.3-1 .7-.6 1 1-.5 1.6.2 1.3 1.7 3 1.2 4 3.5.8.6.5-1 1.8-.9.9.2 2.3 2.8 2.3.7-1-.5 1-1.3 0-1.9-.3 0 .1.5-.3.6-.2-.7-1.5 1-2 .2.3-1 1.8.2.7-1.2.4-1.3.8 0 1-.5-.8-1 1.4-2.1 1.7-1 .7-.4-.4-1.4.6-1.9 1.6-.2 1.5-1.8 2.2-2.5.9-.5 2-.8 2.6-1.6.4-.3 5.4-1.9 3.7-1.5-.6.3-.7-.2-.1-.3.7-1.4.8 1.1 3.3-.7 2-2.5 2.3-5.1 4.8-6.9.8.2 1.8 1.2 1.1-.3 1.2-.1.4-2 0-2.2 0-.2 0-2.1.3-1.4 0 .1.4 0 .4.2-.4 1 1.8 1.7 1 2 0 2.6 1.5 2.2 1.6 3.4-4.2 1-2 1.3-1 4.2-.8.9-3 2-4 3.1 1 .6-.6.9-.8 1.3 0 .2.6 0 0 1.3-1.7 0 .8 1.2-1.3 3.2 2-1.1 1 6.6-1.3 4.2-2.3.4-2.6-.7-4 1.2 1.2.7-.7 1.5-1 2.1.5 1.1 2.5-.6 3.8 0 .4-.7 1.1-.8 1.9-.7 1-1.6 3.8 1 4.4-.5 0-.8 1.8-4.6 1.7-4.9-1-1.7 1.5-2.3 1.5-3.1-1-.2 1-3.1 1.2-.3 2.2 1 .5 1.6 3.2 3.6 0 .6 1.4 1 1.2 1.6-1.2-1.2-.5 1.7-.4 2.2-.7.7-.6 2-.8 3-.6.7-3.7 2.1-3.8 2.7-.1.7 2 .3 2 .3 2 .4 3.4-.2 5-1.1.4 0 3.6.6 2.8 0-.3 0-2.1-.3-2-.6.3-.2 2.3.6 2.6.4.5-.4-1.5 0-.8-1 .3-.4 1.2-.1 1.9-.3 1-1 1.5-.2 2.2 0 .4-.4.2.3.1.5 1.2 1.1-1.1.4-1.4.8.2.5 1.6 0 1.4 1.3.2.7-.8.6-1.3.4-.2-.3.3-.2.3-.4s-.4-.1-.4-.3c1-.8-1.6-1.7-1.7-.4.2 1.2 6.6 3.3 6.7 6.3-1.9-2.4-5.1-5.6-8.3-6.3 3.9 1.6 14.8 10.2 8.3 13.4.3.8 2.1 1.8.7 2.2 2.1 3.3 5.2 3.4 7 7 2.4 2.5 10.8.6 11 4.7.3.6.7-.2 1.1 0 1.1.2.5.6 1 .6.3-.6.7-.3 1-.4-1.3-2.8 4.8-.5 5.6 0 3-.7 4.6.1 7.2 1.7 10 4.2 9.2 1.5 18-2.8 1.6-.2 2.2.5 3.2-1 .4-1.2-4 .7-4-.6.3-.3 1.7-.1 1.8-.1-.1-.8 1-.6 1.5-.9 1.5-.7 1.9-1.3 3.2-1.4.6.3.4 1 .8 1.3 3 1.2-1.3 4.5-3.7 3.2 4.5 2.9 1.9 1.2 6 .8l-.4-1c1-.4 0-1.2 1.6-.7 1.7-.6 1.4.5 2.4 1.2 0 .8-1.3.4-1.5.5.3.6 0 1.1-.6 1 3.5 1 .5 1.7 4.2 1.3 1.6.8 1.8 3.9 3.3 1.6 1.6 0 2.1 1.5 3.2 2.3-.6.5.5 1.4 1 .3 1.3-.2.1-.3 0-1 0-.4.8-.8.5-1.7-.6-.6-2.3 2.5-2.3.1-2.5-1.2 1.5-1.4 1.5-.8 1.4-.2 3.4-1 4.9-.7 12.4-13.2 28.9-4.6 31.7-11.2.4.2 1.4-.3.7.4.1 0 2.3 0 2.1-.5-.2-1.2-.8-3 .9-2.2-.7-.7-.1-.9-1.1-1.6-.5.3-1.5 0-.3-.5.6 0-.6-.7.1-1-1.3-1 2.1-3.6 1.4-5.2.1-.8.9-.7.8-1.1-.3-.6.4-2.6-.6-2.2.2-.1 0-.2.2-.3 1.1.7.4-1.4.7-1.6 1.3-.8 1-.3.3-1.5 1.3.2 1.6-1 2.5-1.8-.6-.7.7-1.4.8-1.8-.3-.3.6-1.5 1-1.5 4.2-.5.8-.3 1.2-1.6.7-.4 1.3-.5 1 .4.4.6.8-.2.9-.6-.1-.3-.8.4-.9-.7 0-.3-.4-.1-.4-.2s.5 0 .4-.3c-1.8-.5 1-.6 1-2.7 0-.2.3-.1.5-.2-.4-.3-1.1-.1-1.2-.5.3-.4.7-.7.6 0 .3 0 .3-.4.7-.5-1.3-1.6 3.7-3.8 2.4-4 .1-.6 1-.1 1-.5.1-.3-1.4.1-1.5-.2 0-.2.5-.1.6-.1.6 0 .1-.5.4-.5.5 0 .5.7.8.5 0-.1.5-1.3.4-1.5-.1 0-.3.6-.5.2-.3-.4.6-.5.6-.5-.2-1 .1-1 .4-2 0-.2-.3.6-.6.6-.2-.1.4-.7.4-.8-.1-.3-1 .4-1 .1.5-.2-.6-.5.1-.8.9 1.6 3.3-1.4 3-1.6-.3.1-1.4.3-.4-.3-.9 0 1.2-.9.8-.3 2-2.5 2.2-4.7 7-5.2.6-.7-1.1-.2-1.3-.6.6-.2 1-.3 1.7 0 0-1.1 1.7-1.8 2.9-2.3 1.6-.5 0-.6.6-1.1.3-.3 0-.5 0-.9l.5-.5c-1.9-1 1-3 2.2-3.6-.6-.6.8-1.3 1-1.9-.4-.5.5-1.2.8-1.5 0-1.4.4-3 1.4-4.2 0 0-.4-.3-.3-.5 1.5-2.5-.8.8-.4-3.4.9-2.6 2-5 3-7.2 1-2.4 0-5.5 1.9-7.4 0-.3-.5-.4 0-1.1 3.3-2 1.2-3.4 1.8-6.5ZM472.7 400c-.2 0-.6-.4-.9-.4l.6-.1.3.5Zm-333-53.1Zm-27.4-70a5 5 0 0 0-.7-1c-.1.7-.5 0 0-.3 0-.7-2.4-3.2-1.5-3.9.1-.2-.3 0-.4 0-2.8.2 3.5 8.4 2.6 5.2Zm-1.7-7.6c.3.4.7-1.9.6-2.2-.2.5-.7 2-.6 2.2Zm.6-2.2c.1-.2 0 0 0 0Zm.5-1-.2-.5c0-.2.6-1.5.1-1-.2.5-.7 2.9 0 1.6Zm7.8 8.4c-.7 0-.1.8.2 1 .4.2.3-1-.2-1Zm333.3 134.2c-2-1-.2.7-2 1 .3.7-.2 1.5-.2 2.2.8.3.5.9.5 1.7.3.5 1.8-.4 2.4-.7 1-.5 0-1.4 0-1.4.1-.9.5-2.4-.7-2.8Zm42.5 3c.6 1.4-.8 1 .6 1.3.1 0 0 .5.2.5 1.2-.2.4 1.4 1.6 1.6 1 .3 1-.5 1.3-.6.2 0 1.4.7 1.3.2 0-.2-.7-.5-.5-.5.8.7.2-.3 0-.7 0 .2-.6.5-.7.3.5-.3.8-.7.7-1.5-.3-.6-1.3 0-3-1.9-.3-.6-.8-.9-1.2-.2-.9-.2-.5 0-.5.7-2 .8-1.1.5.2.9Zm6.2 4.8c-1.3-1.4-1.3-.7-2.7-.7.2.6-.7 0-1.3 0-.2.1-1.5.7-1 1 1 .4 3.8-.2 3.8.4 0 .3.3.2.7.1.4-.8 1.3-.3.5-.8Zm-2.2.8c-.8.2-2.7.2-.9 1 .3.5.7-.7.7-.7 0-.1.2-.1.2-.3Zm-37.1 1.6c-.5.3-.1.2 0 .4 0 .8.9-.2 1.6.1.6.3-.8-1.2-1.6-.5Zm0-2.7s-1 1.3.1.9c1-.3 1-.6 0-.9Zm-1.3.4c-.5.9-1 .7-.2 1.7.1-.2.7-1.9.2-1.7Zm39.1 17c1.5-.9-1-.6.1-2.4-1.1-1 0-2 0-3-.1-1.1-.7-1-.2-2.2.2-.4 0-.3.4-.7.4-.7-.7.5-1 .3.4-.8 1.2-.1.2-1.6.9-1.6-.4-1 .7-1.7-.6-1.5-2.2-1.7-3.5-2.5-1-.2-.6 1-1.6 1.3-1.1.4-2-.7-2.9-.3-.3 0-1.6 2.5-2.3 1.3-1-.6-1.4-.1-2.4.3-.7-.2-4.5-.2-4 1 1.1.2 2 .7-.1.4.2-1.7-2.6-.6-2.4.3-.3.2-.4-.6-.6-.6-3.5.8-3.1.2-6.2-.6-1.8-.2-3.3-1.3-5-1.8.1-.2-4-.3-2.4-1.1-1.5-1.4.4.9-1.9.3-.1 0 .4.2-.1.3-1.1-.6-2.8-1-4-1-.3-.5-.6-1.3-1-.1.5 1 .7 1.7-.6 2.1.5.9-.6.4.6 1.5-.3 1.4 1.6 2.4.9 3.3.2.4 1.2 1.3 1.6 1.8.3.6 0 1.2.7 1 .7 1.6 4 2.4 3.3 4.3-.2.2-.4 1 .2.7.5-2.1 1.1.8 2.1 1.2.3-.2.6-.5.5.1.6-.3.5-.1.2.3-.1.6-.2.4-.5.3 0 0 0 1.6-.3.7 0-1.9-2.1-1.5-3-2.8 0 .6.6 2 .7 3 .8.8.5.3 0 1 1.4-.3 1.7 2.2 2.7 3.3 1-.1 1.3.6 2 1-.4.6.2.5.6.4.6.5.9 2.6 2.2 1.9.2-.5-.8 0-.7-.3 0-.2.6 0 .6-.3-.1-1 .7.8 1.2.9.5.1 0-.5.4-.4.3 0 0 .6.6.5.6-1 1.3-.3 1.3.5-.4.1-.7-.8-.8.2-.5-.6-1.3-.6-2-.7-.1.1.5.5.1.5-1.5-.7.3.4.5.9.1.1-.2.7-.1.7.4-.3.9.1 1-.4.9-.1 1 .6 1-.1 1.1 0 2.3.6 3.9.3 0 0-.4-.7 0-.6 0 2 5.7 1.8 3.7.9-.2-.7 1.3.2.4-.8 1.6-.1.8-.1 0-.5.3 0 1.4-.5 1.4-.7 0-.3-1.6 0-.9-.3.4-.3 1.3.2 1.4-.3 0-.3-2.8-1.3-1.2-1.8.4 0 .6 1.7 1.2.5.5.3-.2.6-.1.7.7-.1.8.9 1.6.4.7-1-.8-1.3.7-1.9 0-.1-.7-.2-.5-.5.3-.5.4.3.7.2 0-.4.1-1 .5-1.2 0-.4-1.6-1.4-1-1.4.9.4 1.3 1.6 2.2 1.2-.4.5.2.5 0 1-.4.5-.4-.4-.8-.2-.1.1.1.3.2.5 2.9.6-.7-3.8 2.7-1.4h1.8c0 .4-.1.5.3.6-.6.2 0 .6.5.6-2 1-1.5-.5-2.3-.8-.8.1.7.4-.7.6-.7.8 1.1.8 1.2 1.2-1.4.1 1.2 2.1 1.4.2.2-.3.3.2.3.4 0 .1 1.8 1 .9.1.5-.3.4-.4-.2-.5.5-.3 0-.3 0-.6-.2-1.1.7-.6.4-1.6.2-.1-.1-.1-.2-.2 0 0 .2-.4-.2-.2-.6.2 0-.3-.6-.3-.7.2.1.4 0 .5-1.4 0 0-.4-.3-1.1 1.3-.5 1-1.6.1-2.3 2.3.2.8-1 1.6-2-.1-.7-1.1.6-.5-.3 1.6-1.2.2-2.2 2.5-2-1.1-.2-.9-.2-.7-1 .9.3.2-.3.4-.5 1.1.6.4.8-.3 1 .3.2 2.6.7 1.2 1 .5.4.5.5-.1.8.2.4.9.5 1.1 0 .5-.5-.6-.5-.5-.7Zm-115-62.3c0 .3-.7.6-1 .5-.5 0 0-.7-.4-.7-.7.1-3.2.5-1.4-.7-.6-.2-1.2-.2-.1-.6-.8-.4-2.5.4-3.5-.1-2.2 1.5-7.5.1-8.3 2.6 0 .2-1 .3 0 .7 1.4.4 1.6 1.9 3.1 1 1.3.2 3.5.5 4-.5 2-.2 2.4 1.8 4.5.3-.4-1.1.6-1 1.5-1.4 1.3-.5 3.2 1.2 4.3-.1.2-.4-2.7-2-2.7-1Zm-46.7-34.2c-2.4.2-1 1.7-.5.3 0-.2.8-.1.5-.3Zm40.9 21.9c-.1-.3-.5.3-.4.4.2.3.5-.1.4-.4Zm173.3-90c0 2.1-2.5 3.5-.1 5.4.5-1.5 2.6-6.2 3.5-7.6 0-.5-1-.5-1-1.6.1-1.9-.1-1.7-1.2-.6-.8.5 1.5.6.5 2.5-.1.7-3.5 1.7-1.7 2ZM308.2 139.8c1.4-.5 4.2-1.8 4.8-3.4.2 0 .7.5 1 .3.3-.2-.1-.3-.1-.3-.3-1.6 1.4-.4.8-1.8-.2-.5-.8.3-.7-.2-.2-1.5-1-1.4-2-1 .3-1.7-1.4-.8-.7 1.2-.8-2-1.5-1.5-2.3.1 0-1-1.2-1.3-2-.5-.4.2-1.7 0-1.5.7-.5-.2-.3-.6-.4-1-.2 0-.7 1-1 .6-.5-.4.8-.5 0-1-.3-.3-.5.2-.6.1-3.3-4-.8 2.5-.2 3.5 1 .9 3.9 1.8 4.9 2.7ZM170.2 363c-.4-.1-.3.2 0 .3.3.1.6 0 0-.3Z"/>
  <path fill="#F7F7F7" d="M399 245.8a64.9 64.9 0 0 0-18.7-37.9 64.9 64.9 0 0 0-37.9-18.7 3.6 3.6 0 0 0-.9 7.2 57.7 57.7 0 0 1 33.7 16.6c9.2 9.2 15 20.8 16.6 33.7a3.6 3.6 0 0 0 7.2-1Zm-129.8 0a64.9 64.9 0 0 1 18.7-37.9 64.9 64.9 0 0 1 37.9-18.7 3.6 3.6 0 0 1 .9 7.2A57.7 57.7 0 0 0 293 213a57.7 57.7 0 0 0-16.6 33.7 3.6 3.6 0 0 1-7.2-1ZM399 262.4a64.9 64.9 0 0 1-18.7 38 64.9 64.9 0 0 1-37.9 18.6 3.6 3.6 0 1 1-.9-7.1 57.8 57.8 0 0 0 50.3-50.4 3.6 3.6 0 0 1 7.2 1Zm-129.8 0a64.9 64.9 0 0 0 18.7 38 64.9 64.9 0 0 0 37.9 18.6 3.6 3.6 0 1 0 .9-7.1 57.8 57.8 0 0 1-33.7-16.7 57.7 57.7 0 0 1-16.6-33.7 3.6 3.6 0 1 0-7.2 1Z"/>
  <path fill="#fff" d="M294.7 265v-19.2a14.2 14.2 0 0 1-5.7 2.6v-5c2.3-.6 4.5-1.8 6.7-3.6h4.3V265h-5.3Zm18 .3c-2.4 0-4.6-.6-6.3-2a7.8 7.8 0 0 1-3-5l5-1a4 4 0 0 0 4.1 3c1.2 0 2.1-.3 2.8-1a4 4 0 0 0 1-2.8c0-1.2-.3-2.1-1-2.8-.8-.7-1.8-1-3-1a5 5 0 0 0-4.3 2.2l-4.1-.8 2.1-14.3h14.2v4.9h-10l-.9 5.2a6.5 6.5 0 0 1 4.5-1.6 8 8 0 0 1 6 2.3 8 8 0 0 1 2.3 5.9c0 2.6-.9 4.8-2.6 6.4a9.4 9.4 0 0 1-6.7 2.4Zm29.9-3.5a9.4 9.4 0 0 1-7.7 3.5 9.4 9.4 0 0 1-7.6-3.5 14.7 14.7 0 0 1-2.9-9.4c0-4 1-7 2.9-9.4a9.3 9.3 0 0 1 7.6-3.5c3.2 0 5.8 1.2 7.7 3.5a14 14 0 0 1 2.9 9.4c0 4-1 7-3 9.4Zm-11.2-3.5a4 4 0 0 0 3.5 2 4 4 0 0 0 3.6-2c.9-1.4 1.3-3.3 1.3-5.9 0-2.6-.4-4.5-1.3-6a4 4 0 0 0-3.6-2 4 4 0 0 0-3.5 2c-.9 1.5-1.3 3.4-1.3 6s.4 4.5 1.3 6Zm17.5 6.7v-25.2h6.3l7.3 17.1 7.3-17.1h6.3V265h-5.3v-14.7l-6.2 14.7h-4.2l-6.2-14.7V265h-5.3Z"/>
  <circle cx="335.5" cy="281.5" r="2.5" fill="#414042"/>
  <path fill="#377D78" d="M595.3 348.8a9.4 9.4 0 0 1-7.6 3.5 9.4 9.4 0 0 1-7.7-3.5 14.7 14.7 0 0 1-2.8-9.4c0-4 1-7 2.8-9.4a9.3 9.3 0 0 1 7.7-3.5c3.2 0 5.7 1.2 7.6 3.5 2 2.4 3 5.5 3 9.4 0 4-1 7-3 9.4Zm-11.2-3.5a4 4 0 0 0 3.6 2 4 4 0 0 0 3.6-2c.8-1.4 1.2-3.3 1.2-5.9 0-2.6-.4-4.5-1.2-6a4 4 0 0 0-3.6-2 4 4 0 0 0-3.6 2c-.8 1.5-1.2 3.4-1.2 6s.4 4.5 1.2 6Zm17.3 1.4h5.5v5.3h-5.5v-5.3Zm26.9 2.1a9.4 9.4 0 0 1-7.7 3.5 9.4 9.4 0 0 1-7.7-3.5 14.7 14.7 0 0 1-2.8-9.4c0-4 1-7 2.8-9.4a9.3 9.3 0 0 1 7.7-3.5c3.2 0 5.8 1.2 7.7 3.5 1.9 2.4 2.9 5.5 2.9 9.4 0 4-1 7-3 9.4Zm-11.3-3.5a4 4 0 0 0 3.6 2 4 4 0 0 0 3.6-2c.8-1.4 1.3-3.3 1.3-5.9 0-2.6-.5-4.5-1.3-6a4 4 0 0 0-3.6-2c-1.6 0-2.7.7-3.6 2-.8 1.5-1.2 3.4-1.2 6s.4 4.5 1.2 6Zm26.1-1.5c-2.5 0-4.7-.8-6.3-2.4a8.4 8.4 0 0 1-2.5-6.2 8 8 0 0 1 2.7-6.2 10 10 0 0 1 7-2.5c3 0 5.3 1.1 7.1 3.4 1.9 2.2 2.8 5 2.8 8.5a19 19 0 0 1-1 6.1c-.7 1.8-1.6 3.3-2.7 4.4a11.7 11.7 0 0 1-8.3 3.4c-3 0-5.5-1-7.6-2.7l2.5-4c1.4 1.2 3 1.8 4.9 1.8a7 7 0 0 0 4.7-1.7 7 7 0 0 0 2.2-4.5 6.3 6.3 0 0 1-5.5 2.6Zm.8-12.4c-1.2 0-2.1.4-2.9 1.2-.7.7-1.1 1.7-1.2 3 0 1 .4 2 1.2 2.8a4 4 0 0 0 3 1.1 4 4 0 0 0 2.9-1 4 4 0 0 0 1.1-3 4 4 0 0 0-4-4.1Zm17.8 7.8c-1.8 0-3.2-.6-4.3-1.7a6.6 6.6 0 0 1-1.6-4.7 7 7 0 0 1 1.6-4.6c1-1.1 2.5-1.7 4.3-1.7 1.8 0 3.2.6 4.3 1.7a7 7 0 0 1 1.6 4.6c0 2-.5 3.5-1.6 4.7a5.5 5.5 0 0 1-4.3 1.7Zm-3.3 12.8 16.9-25.2h4.1L662.6 352h-4.2Zm3.3-16.3c1.3 0 2-1 2-2.9 0-1.8-.7-2.8-2-2.8s-2 1-2 2.8c0 2 .7 2.9 2 2.9Zm14.5 16.6c-1.8 0-3.2-.6-4.3-1.7a6.6 6.6 0 0 1-1.6-4.6 7 7 0 0 1 1.6-4.7c1-1.1 2.5-1.7 4.3-1.7 1.8 0 3.2.6 4.3 1.7a7 7 0 0 1 1.6 4.7c0 1.9-.5 3.4-1.6 4.6a5.5 5.5 0 0 1-4.3 1.7Zm0-3.5c.7 0 1.1-.2 1.5-.7a4 4 0 0 0 .5-2.1c0-1-.2-1.7-.5-2.1-.4-.5-.8-.8-1.5-.8-1.3 0-2 1-2 2.9 0 1.8.7 2.8 2 2.8Z"/>
  <path stroke="#000" d="M690 362H443l-106.5-80.5"/>
  <rect width="392" height="52" x="204" fill="#377D78" rx="26"/>
  <path fill="#fff" d="m252.4 28.3 3 2.9a11.8 11.8 0 0 1-8.6 3.3c-8.3 0-11.8-5.7-11.9-11.5 0-5.9 3.8-11.8 11.9-11.8 3 0 6 1.1 8.2 3.4l-2.8 2.7a7.7 7.7 0 0 0-5.4-2.1c-5.4 0-7.7 4-7.7 7.8 0 3.7 2.2 7.5 7.7 7.5 2 0 4.2-.8 5.6-2.2Zm4.1-10h3.9v8.2c0 2.4 1.3 4.2 3.8 4.2 2.4 0 4-2 4-4.4v-8h4V34h-3.6l-.2-2.1a7 7 0 0 1-5.4 2.4c-3.7 0-6.5-2.9-6.5-7.8v-8.3Zm19 0h3.7l.3 1.7c1.2-1.9 2.8-2.2 4.4-2.2a6 6 0 0 1 4 1.5l-1.7 3.4c-.8-.7-1.5-1-2.8-1-2 0-4 1-4 4V34h-3.8V18.2Zm14 0h3.6l.2 1.7c1.3-1.9 2.9-2.2 4.5-2.2a6 6 0 0 1 4 1.5l-1.7 3.4c-.8-.7-1.5-1-2.8-1-2 0-4 1-4 4V34h-3.9V18.2Zm29.5 9.2h-12.4c.3 2 2 3.4 4.7 3.4 1.5 0 3.4-.6 4.3-1.5l2.5 2.5a9.7 9.7 0 0 1-6.8 2.5c-5.5 0-8.7-3.3-8.7-8.4 0-4.8 3.3-8.3 8.4-8.3 5.3 0 8.6 3.3 8 9.8Zm-12.3-3.2h8.5c-.2-2-1.8-3.1-4-3.1s-4 1-4.5 3Zm30.8 9.7h-4v-8.3c0-2.4-1.2-4.2-3.7-4.2-2.4 0-4 2-4 4.4V34h-4V18.2h3.6l.2 2.1a7.1 7.1 0 0 1 5.2-2.3c3.7 0 6.7 2.8 6.7 7.7V34Zm4.3-19.8 3.9-.4v4.5h4.3v3.3h-4.4v6.8c0 1.5.9 2.3 2 2.3.7 0 1.4-.2 2-.5l1 3.3c-1 .5-2 .7-3.2.7-3.4.1-5.6-1.8-5.6-5.8v-6.8h-3v-3.3h3v-4.1ZM379.2 34V17.8l-7.3 9.7h-.8l-7.2-9.8V34h-4.2V11.6h4.9l7 9.7 7-9.7h4.8V34h-4.2Zm20.6-13.6.1-2.2h3.8V34H400l-.2-2.3c-.9 1.9-3.3 2.7-5.1 2.8-4.7 0-8.1-2.9-8.1-8.4 0-5.4 3.6-8.3 8.2-8.3 2.1 0 4.1 1 5 2.6Zm-4.7 1c-2.5 0-4.6 1.7-4.6 4.7s2 4.8 4.6 4.8c6.2 0 6.2-9.6 0-9.6Zm11.9-3.2h3.6l.3 1.8c1.2-1.9 2.9-2.2 4.5-2.2a6 6 0 0 1 4 1.5l-1.7 3.4a4 4 0 0 0-2.9-1c-2 0-3.9 1-3.9 4V34H407V18.2Zm13.8-6.6h3.9v13l5.3-6.4h4.7v.2l-6.5 7.2 7.4 8.1v.3h-4.7l-6.2-7.1V34h-4V11.6ZM453 27.5h-12.3c.2 2 2 3.4 4.7 3.4 1.4 0 3.3-.6 4.2-1.5l2.5 2.5a9.7 9.7 0 0 1-6.8 2.5c-5.4 0-8.7-3.3-8.7-8.4 0-4.8 3.3-8.3 8.4-8.3 5.3 0 8.6 3.3 8 9.8Zm-12.3-3.2h8.5c-.2-2-1.8-3.1-4-3.1s-3.9 1-4.5 3ZM457 14.2l4-.4v4.5h4.3v3.3h-4.4v6.8c0 1.5.8 2.3 2 2.3.6 0 1.3-.2 2-.5l1 3.3c-1.1.5-2 .7-3.2.7-3.4.1-5.7-1.8-5.7-5.8v-6.8h-3v-3.3h3v-4.1Zm35.1 1-3.3 1.8c-.8-1.3-3-2.5-5.3-2.5-3.2 0-4.7 1.3-4.7 3 0 2 2.3 2.5 5 2.8 4.7.6 9 1.8 9 7.1 0 5-4.4 7.2-9.4 7.2-4.5 0-8-1.4-9.7-5.5l3.5-1.9c1 2.5 3.6 3.6 6.3 3.6 2.6 0 5.1-1 5.1-3.4 0-2-2.2-3-5.1-3.3-4.6-.5-8.8-1.7-8.8-6.7 0-4.6 4.5-6.5 8.6-6.6 3.5 0 7.1 1 8.8 4.5Zm4-3.6h4v8.8A5.8 5.8 0 0 1 505 18c4.4 0 6.4 3 6.4 7.7V34h-3.9v-8.3c0-2.9-1.5-4-3.6-4-2.3 0-3.9 1.9-3.9 4.2V34h-4V11.6Zm31 8.8.1-2.2h3.8V34h-3.7l-.2-2.3c-.9 1.9-3.4 2.7-5.1 2.8-4.7 0-8.1-2.9-8.1-8.4 0-5.4 3.6-8.3 8.2-8.3 2.1 0 4.1 1 5 2.6Zm-4.7 1c-2.6 0-4.6 1.7-4.6 4.7s2 4.8 4.6 4.8c6.2 0 6.2-9.6 0-9.6Zm11.9-3.2h3.6l.3 1.8c1.2-1.9 2.8-2.2 4.4-2.2a6 6 0 0 1 4.1 1.5l-1.8 3.4c-.8-.7-1.5-1-2.8-1-2 0-4 1-4 4V34h-3.8V18.2Zm29.5 9.3h-12.3c.2 2 2 3.4 4.7 3.4 1.4 0 3.3-.6 4.2-1.5l2.5 2.5a9.7 9.7 0 0 1-6.8 2.5c-5.4 0-8.6-3.3-8.6-8.4 0-4.8 3.2-8.3 8.3-8.3 5.3 0 8.6 3.3 8 9.8Zm-12.2-3.2h8.5c-.3-2-1.9-3.1-4.1-3.1-2.1 0-3.9 1-4.4 3Z"/>
</svg>
