<svg xmlns="http://www.w3.org/2000/svg" width="800" height="500" fill="none" viewBox="0 0 800 500">
  <path fill="#fff" d="M0 0h800v500H0z"/>
  <path fill="#377D78" d="M28.2 231.5c-1.4 0-2.6-.5-3.5-1.4-1-.9-1.4-2-1.4-3.4s.5-2.6 1.5-3.5c1-1 2.4-1.4 4-1.4 1.5 0 2.8.7 3.9 1.9 1 1.2 1.5 2.8 1.5 4.7 0 1.3-.2 2.4-.6 3.5a5 5 0 0 1-1.5 2.4 6.5 6.5 0 0 1-4.6 1.9c-1.6 0-3-.5-4.2-1.5l1.4-2.3a4 4 0 0 0 2.7 1c1 0 2-.3 2.6-.9.7-.6 1.1-1.5 1.2-2.5-.7 1-1.7 1.5-3 1.5Zm.5-7c-.7 0-1.2.3-1.7.7-.4.4-.6 1-.6 1.6 0 .7.2 1.2.6 1.7.4.4 1 .6 1.7.6.6 0 1.2-.2 1.6-.6.4-.5.6-1 .6-1.7a2.2 2.2 0 0 0-2.2-2.3Zm16.9 9.7c-1 1.3-2.5 2-4.3 2-1.8 0-3.2-.7-4.2-2s-1.6-3-1.6-5.2.5-4 1.6-5.2a5 5 0 0 1 4.2-2c1.8 0 3.2.7 4.3 2a8 8 0 0 1 1.6 5.2 8 8 0 0 1-1.6 5.2Zm-6.2-1.9c.4.8 1 1.1 2 1.1.8 0 1.5-.3 2-1.1.4-.8.6-1.9.6-3.3s-.2-2.5-.7-3.3a2.2 2.2 0 0 0-2-1.2c-.8 0-1.5.4-2 1.2-.4.8-.6 1.9-.6 3.3s.2 2.5.7 3.3Zm15.8 3.7v-2.7h-6.9v-2.7L55 222h3.4v8.6H60v2.7h-1.7v2.7h-3.2Zm-3.6-5.4h3.6v-4.8l-3.6 4.8Zm9.1 8 1.4-5.5h3.4l-2.9 5.6h-1.9Zm16.8-4.4a5.4 5.4 0 0 1-4.3 2c-1.8 0-3.2-.7-4.3-2-1-1.3-1.5-3-1.5-5.2s.5-4 1.5-5.2c1-1.3 2.5-2 4.3-2 1.8 0 3.2.7 4.3 2A8 8 0 0 1 79 229a8 8 0 0 1-1.6 5.2Zm-6.3-1.9c.5.8 1.1 1.1 2 1.1.9 0 1.5-.3 2-1.1s.7-1.9.7-3.3-.2-2.5-.7-3.3a2.2 2.2 0 0 0-2-1.2c-.9 0-1.5.4-2 1.2-.4.8-.7 1.9-.7 3.3s.3 2.5.7 3.3Zm19.2 2a5.2 5.2 0 0 1-4.2 1.9c-1.8 0-3.2-.7-4.3-2-1-1.3-1.5-3-1.5-5.2s.5-4 1.5-5.2c1-1.3 2.5-2 4.3-2a5 5 0 0 1 4.2 2A8 8 0 0 1 92 229a8 8 0 0 1-1.6 5.2Zm-6.2-2c.5.8 1.1 1.1 2 1.1.8 0 1.5-.3 2-1.1.4-.8.7-1.9.7-3.3s-.3-2.5-.7-3.3a2.2 2.2 0 0 0-2-1.2c-.9 0-1.5.4-2 1.2-.5.8-.7 1.9-.7 3.3s.2 2.5.7 3.3Zm19.2 2a5.2 5.2 0 0 1-4.2 1.9c-1.8 0-3.2-.7-4.3-2-1-1.3-1.6-3-1.6-5.2s.6-4 1.6-5.2c1-1.3 2.5-2 4.3-2a5 5 0 0 1 4.2 2 8 8 0 0 1 1.6 5.2 8 8 0 0 1-1.6 5.2Zm-6.2-2c.4.8 1.1 1.1 2 1.1.8 0 1.5-.3 2-1.1.4-.8.7-1.9.7-3.3s-.3-2.5-.7-3.3a2.2 2.2 0 0 0-2-1.2c-.9 0-1.6.4-2 1.2-.5.8-.7 1.9-.7 3.3s.2 2.5.7 3.3Z"/>
  <path fill="#70737C" d="M111.8 236v-10h1.7v1.8c.4-.6.9-1.1 1.5-1.5.6-.4 1.3-.5 2-.5 1 0 2 .3 2.6 1 .7.6 1 1.5 1 2.5v6.7h-1.7v-6.4a2.2 2.2 0 0 0-2.3-2.3c-1 0-1.7.4-2.2 1.2-.6.7-.9 1.8-.9 3v4.5h-1.7Zm20.7-5.5v.8h-8c0 1 .4 1.8 1 2.4a3 3 0 0 0 2.2 1c.8 0 1.4-.2 2-.6.4-.3.8-.8.9-1.4l1.6.4c-.2 1-.8 1.7-1.6 2.2a5 5 0 0 1-2.9.9c-1.5 0-2.7-.5-3.6-1.5-.9-1-1.3-2.3-1.3-3.7a5 5 0 0 1 1.3-3.7c.9-1 2-1.5 3.6-1.5a4.6 4.6 0 0 1 4.8 4.7Zm-8-.6h6.2a3 3 0 0 0-1-2 3 3 0 0 0-2-.7 3 3 0 0 0-2 .7c-.6.5-1 1.1-1.1 2Zm12.2 6.1-3.1-10h1.7l2.2 7.6 2.4-7.7h1.6l2.4 7.7 2.1-7.7h1.8l-3.1 10.1H143l-2.3-7.7-2.4 7.7h-1.6Zm17.8 0v-14.2h1.7v6.1a3.6 3.6 0 0 1 3.5-2.1c1.1 0 2 .3 2.7 1 .7.6 1 1.5 1 2.6v6.6h-1.7v-6.3c0-.8-.2-1.3-.6-1.8-.4-.4-1-.6-1.8-.6-1 0-1.7.4-2.3 1.2-.5.8-.8 1.8-.8 3.2v4.3h-1.7Zm20-1.3a5 5 0 0 1-3.8 1.5 5 5 0 0 1-5-5.2 5 5 0 0 1 1.4-3.8 5 5 0 0 1 3.6-1.4 5 5 0 0 1 5.1 5.2c0 1.5-.4 2.7-1.4 3.7Zm-6.2-1c.6.6 1.4 1 2.4 1s1.9-.4 2.5-1c.6-.8 1-1.7 1-2.7a4 4 0 0 0-1-2.7c-.6-.7-1.5-1-2.5-1s-1.8.3-2.4 1a4 4 0 0 0-1 2.7c0 1 .4 2 1 2.6Zm9.8 2.3v-10h1.7v1.8a3 3 0 0 1 3-2c.8 0 1.5.1 2.1.5.6.4 1 1 1.2 1.6a3.5 3.5 0 0 1 3.2-2.1c1.1 0 2 .3 2.6.9.6.6 1 1.5 1 2.5v6.8h-1.7v-6.4c0-.7-.2-1.3-.6-1.7a2 2 0 0 0-1.6-.6c-.9 0-1.5.3-2 1s-.7 1.5-.7 2.6v5.1h-1.7v-6.4c0-.7-.2-1.3-.6-1.7-.4-.4-.9-.6-1.6-.6-.8 0-1.5.3-2 1a5 5 0 0 0-.6 2.6v5.1H178Zm26.6-5.5v.8h-8c0 1 .4 1.8 1 2.4a3 3 0 0 0 2.3 1 3 3 0 0 0 1.9-.6c.5-.3.8-.8 1-1.4l1.5.4c-.2 1-.7 1.7-1.5 2.2a5 5 0 0 1-3 .9c-1.4 0-2.6-.5-3.5-1.5a5 5 0 0 1-1.4-3.7c0-1.5.5-2.8 1.3-3.7 1-1 2.1-1.5 3.6-1.5a4.6 4.6 0 0 1 4.8 4.7Zm-7.9-.6h6.1a3 3 0 0 0-.9-2 3 3 0 0 0-2-.7 3 3 0 0 0-2 .7c-.6.5-1 1.1-1.2 2Zm13.4 6.3c-1.1 0-2-.3-2.8-.9a4.3 4.3 0 0 1-1.4-2l1.5-.7c.4 1.4 1.3 2.1 2.7 2.1.6 0 1-.1 1.5-.4.3-.3.5-.7.5-1.1 0-.5-.2-.9-.6-1.1a3 3 0 0 0-1.4-.6l-1.7-.5c-.6-.1-1-.4-1.5-.9-.4-.4-.6-1-.6-1.7 0-.8.4-1.4 1-1.9s1.5-.7 2.6-.7a4 4 0 0 1 2.4.7c.7.4 1.1 1 1.3 1.7l-1.4.7a2 2 0 0 0-.9-1.3c-.4-.3-1-.4-1.5-.4s-1 0-1.3.3a1 1 0 0 0-.5 1c0 .3.1.5.4.7.3.3.7.4 1 .5a11.7 11.7 0 0 1 2.9.9c.4.1.8.5 1 1 .4.4.5 1 .5 1.6 0 .8-.3 1.6-1 2.1a4 4 0 0 1-2.7.9Zm10.7-.2v-10h1.7v1.8a4 4 0 0 1 1.4-1.5c.6-.4 1.3-.5 2-.5 1.1 0 2 .3 2.6 1 .7.6 1 1.5 1 2.5v6.7H228v-6.4a2.2 2.2 0 0 0-2.3-2.3c-.9 0-1.6.4-2.2 1.2-.5.7-.8 1.8-.8 3v4.5H221Zm20.6-5.5v.8h-8c0 1 .4 1.8 1 2.4a3 3 0 0 0 2.2 1c.8 0 1.5-.2 2-.6.5-.3.8-.8 1-1.4l1.5.4c-.2 1-.7 1.7-1.5 2.2a5 5 0 0 1-3 .9c-1.4 0-2.6-.5-3.5-1.5a5 5 0 0 1-1.4-3.7c0-1.5.5-2.8 1.3-3.7 1-1 2.1-1.5 3.6-1.5a4.6 4.6 0 0 1 4.8 4.7Zm-7.9-.6h6.1a3 3 0 0 0-.9-2 3 3 0 0 0-2-.7 3 3 0 0 0-2 .7c-.6.5-1 1.1-1.2 2Zm19.2.6v.8h-8c0 1 .4 1.8 1 2.4a3 3 0 0 0 2.3 1 3 3 0 0 0 1.9-.6c.5-.3.8-.8 1-1.4l1.6.4c-.3 1-.8 1.7-1.6 2.2a5 5 0 0 1-3 .9c-1.4 0-2.6-.5-3.5-1.5a5 5 0 0 1-1.4-3.7c0-1.5.5-2.8 1.4-3.7.8-1 2-1.5 3.5-1.5a4.6 4.6 0 0 1 4.8 4.7Zm-7.9-.6h6.1a3 3 0 0 0-.9-2 3 3 0 0 0-2-.7 3 3 0 0 0-2 .7c-.6.5-1 1.1-1.2 2Zm14.4 6.3c-1.5 0-2.7-.5-3.6-1.5-.8-1-1.3-2.2-1.3-3.7 0-1.6.5-2.8 1.3-3.8.9-1 2-1.4 3.6-1.4a4 4 0 0 1 1.9.4c.6.3 1 .7 1.4 1.2v-5.6h1.7V236h-1.7v-1.5c-.2.5-.7.9-1.3 1.2-.6.3-1.3.5-2 .5Zm-2.2-2.6a3 3 0 0 0 2.4 1 3 3 0 0 0 2.3-1c.6-.6 1-1.5 1-2.6s-.4-2-1-2.7a3 3 0 0 0-2.3-1 3 3 0 0 0-2.4 1 4 4 0 0 0-1 2.7c0 1 .4 2 1 2.6Zm19-3.1v.8h-8c.1 1 .4 1.8 1 2.4a3 3 0 0 0 2.3 1c.8 0 1.4-.2 1.9-.6.5-.3.8-.8 1-1.4l1.6.4c-.3 1-.8 1.7-1.6 2.2a5 5 0 0 1-3 .9c-1.4 0-2.6-.5-3.5-1.5-.9-1-1.3-2.3-1.3-3.7a5 5 0 0 1 1.3-3.7c.9-1 2-1.5 3.5-1.5a4.6 4.6 0 0 1 4.9 4.7Zm-7.8-.6h6a3 3 0 0 0-.9-2 3 3 0 0 0-2-.7 3 3 0 0 0-2 .7c-.6.5-1 1.1-1.1 2Zm14.3 6.3c-1.5 0-2.7-.5-3.6-1.5-.8-1-1.2-2.2-1.2-3.7 0-1.6.4-2.8 1.2-3.8.9-1 2-1.4 3.6-1.4a4 4 0 0 1 1.9.4c.6.3 1 .7 1.4 1.2v-5.6h1.7V236H286v-1.5c-.2.5-.6.9-1.3 1.2-.6.3-1.2.5-2 .5Zm-2.2-2.6a3 3 0 0 0 2.4 1 3 3 0 0 0 2.4-1c.6-.6.9-1.5.9-2.6s-.3-2-1-2.7a3 3 0 0 0-2.3-1 3 3 0 0 0-2.4 1 4 4 0 0 0-.9 2.7c0 1 .3 2 .9 2.6Zm19.8 2.6c-.8 0-1.4-.2-2-.5-.7-.3-1-.7-1.3-1.2v1.5h-1.7v-14.2h1.7v5.6c.3-.5.8-1 1.4-1.2a4 4 0 0 1 1.9-.4c1.5 0 2.7.4 3.5 1.4.9 1 1.3 2.2 1.3 3.8 0 1.5-.4 2.7-1.3 3.7-.8 1-2 1.5-3.5 1.5Zm-2.6-2.6a3 3 0 0 0 2.4 1 3 3 0 0 0 2.4-1c.6-.6.9-1.5.9-2.6s-.3-2-1-2.7a3 3 0 0 0-2.3-1 3 3 0 0 0-2.4 1 4 4 0 0 0-.9 2.7c0 1 .3 2 1 2.6Zm15.9-7.7h1.7l-5.2 13.7h-1.8l1.5-3.7-4-10h1.9l3 7.7 2.9-7.7ZM274.3 260v-1.6l5.2-4.5c1.6-1.4 2.3-2.6 2.3-3.9 0-.7-.2-1.4-.7-1.8-.5-.5-1.1-.7-2-.7-1 0-1.7.3-2.2 1-.5.5-.7 1.4-.6 2.4l-1.8-.1c0-1.5.3-2.7 1.2-3.6.8-.9 2-1.4 3.5-1.4 1.3 0 2.4.4 3.3 1.2a4 4 0 0 1 1.2 3c0 .9-.2 1.7-.7 2.5a11 11 0 0 1-2.4 2.6l-3.8 3.3h7v1.6h-9.5Zm16.7.2c-1.7 0-3-.7-4-2-.9-1.3-1.3-3-1.3-5.2s.4-4 1.4-5.2c.9-1.3 2.2-2 4-2 1.6 0 3 .7 3.9 2 1 1.3 1.4 3 1.4 5.2s-.5 4-1.4 5.2c-1 1.3-2.3 2-4 2Zm0-1.7c1.1 0 2-.5 2.6-1.5.6-1 1-2.3 1-4 0-1.7-.4-3-1-4s-1.5-1.5-2.6-1.5-2 .5-2.6 1.4a8 8 0 0 0-.9 4.1c0 1.7.3 3 1 4 .5 1 1.4 1.5 2.5 1.5Zm14 1.5v-3.4h-7.4v-1.7l7.1-8.9h2.1v9h2v1.6h-2v3.4H305Zm-5.4-5h5.4v-7l-5.4 7Zm12.7 5v-11.7a6 6 0 0 1-3.3 1.5v-1.6c1.4-.3 2.6-1 3.6-2.2h1.4v14h-1.7Z"/>
  <path fill="#377D78" d="M113.8 314v-2.7h-6.9v-2.7l6.7-8.6h3.4v8.6h1.6v2.7H117v2.7h-3.2Zm-3.7-5.4h3.7v-4.8l-3.7 4.8Zm14.9 5.6c-1.4 0-2.6-.4-3.5-1.1-1-.7-1.5-1.7-1.7-2.8l2.8-.6a2.2 2.2 0 0 0 2.3 1.7c.6 0 1.1-.2 1.5-.5.4-.4.6-1 .6-1.6a2 2 0 0 0-.6-1.6c-.4-.4-1-.6-1.7-.6-1 0-1.7.5-2.3 1.3l-2.3-.5 1.2-7.9h7.8v2.7h-5.5l-.5 3c.7-.7 1.5-1 2.5-1a4.4 4.4 0 0 1 4.6 4.6c0 1.4-.5 2.6-1.4 3.5a5 5 0 0 1-3.8 1.4Zm6.3 2.5 1.4-5.6h3.3l-2.8 5.6h-2Zm6.5-2.7v-2.5l4.9-4c1.4-1.2 2-2.2 2-3.1 0-.6-.1-1-.5-1.3a2 2 0 0 0-1.4-.6c-.6 0-1.2.3-1.5.8-.4.5-.5 1.2-.5 2.1l-3-.2a5 5 0 0 1 5-5.4c1.6 0 2.8.5 3.7 1.3a4 4 0 0 1 1.4 3.3 4 4 0 0 1-.8 2.5c-.5.9-1.4 1.7-2.6 2.6l-2.2 1.8h5.6v2.7h-10Zm21.8-1.8a5 5 0 0 1-4.2 2c-1.8 0-3.2-.7-4.3-2-1-1.3-1.5-3-1.5-5.2s.5-4 1.5-5.2c1-1.3 2.5-2 4.3-2a5 5 0 0 1 4.2 2 8 8 0 0 1 1.6 5.2 8 8 0 0 1-1.6 5.2Zm-6.2-1.9c.5.8 1.1 1.1 2 1.1.8 0 1.5-.3 2-1.1.4-.8.7-1.9.7-3.3s-.3-2.5-.7-3.3a2.2 2.2 0 0 0-2-1.2c-.9 0-1.5.4-2 1.2-.5.8-.7 1.9-.7 3.3s.2 2.5.7 3.3Zm19.2 2a5.2 5.2 0 0 1-4.2 1.9c-1.8 0-3.2-.7-4.3-2-1-1.3-1.6-3-1.6-5.2s.6-4 1.6-5.2c1-1.3 2.5-2 4.3-2a5 5 0 0 1 4.2 2 8 8 0 0 1 1.6 5.2 8 8 0 0 1-1.6 5.2Zm-6.2-2c.4.8 1.1 1.1 2 1.1.8 0 1.5-.3 2-1.1.4-.8.7-1.9.7-3.3s-.3-2.5-.7-3.3a2.2 2.2 0 0 0-2-1.2c-.9 0-1.6.4-2 1.2-.5.8-.7 1.9-.7 3.3s.2 2.5.7 3.3Z"/>
  <path fill="#70737C" d="M181 314v-14.2h1.7v6.1a3.6 3.6 0 0 1 3.5-2.1c1.1 0 2 .3 2.7 1 .7.6 1 1.5 1 2.6v6.6h-1.6v-6.3c0-.8-.3-1.3-.7-1.8-.4-.4-1-.6-1.8-.6-1 0-1.7.4-2.2 1.2a5 5 0 0 0-.9 3.2v4.3H181Zm20-1.3a5 5 0 0 1-3.7 1.5 5 5 0 0 1-5.2-5.2 5 5 0 0 1 1.5-3.8 5 5 0 0 1 3.7-1.4 5 5 0 0 1 5.1 5.2 5 5 0 0 1-1.5 3.7Zm-6.2-1c.6.6 1.5 1 2.5 1s1.8-.4 2.4-1c.6-.8 1-1.7 1-2.7a4 4 0 0 0-1-2.7c-.6-.7-1.4-1-2.4-1s-1.9.3-2.5 1a4 4 0 0 0-1 2.7c0 1 .4 2 1 2.6Zm9.8 2.3v-10h1.7v1.8a3 3 0 0 1 3-2c.8 0 1.5.1 2.1.5.6.4 1 1 1.2 1.6a3.5 3.5 0 0 1 3.3-2.1c1 0 1.9.3 2.5.9.7.6 1 1.5 1 2.5v6.8h-1.7v-6.4c0-.7-.2-1.3-.6-1.7a2 2 0 0 0-1.6-.6c-.9 0-1.5.3-2 1s-.7 1.5-.7 2.6v5.1h-1.7v-6.4c0-.7-.2-1.3-.6-1.7-.3-.4-.9-.6-1.6-.6-.8 0-1.5.3-2 1a5 5 0 0 0-.6 2.6v5.1h-1.7Zm26.7-5.5v.8h-8a3 3 0 0 0 1 2.4 3 3 0 0 0 2.2 1 3 3 0 0 0 1.9-.6c.5-.3.8-.8 1-1.4l1.6.4c-.3 1-.8 1.7-1.6 2.2a5 5 0 0 1-3 .9c-1.4 0-2.6-.5-3.5-1.5-.9-1-1.3-2.3-1.3-3.7a5 5 0 0 1 1.3-3.7c.9-1 2-1.5 3.5-1.5a4.6 4.6 0 0 1 4.9 4.7Zm-8-.6h6.2a3 3 0 0 0-1-2 3 3 0 0 0-2-.7 3 3 0 0 0-2 .7c-.6.5-1 1.1-1.1 2Zm13.4 6.3a4.3 4.3 0 0 1-4.2-3l1.5-.6c.4 1.4 1.4 2.1 2.7 2.1.6 0 1.1-.1 1.5-.4.4-.3.6-.7.6-1.1 0-.5-.2-.9-.6-1.1a4 4 0 0 0-1.5-.6 45 45 0 0 1-1.7-.5c-.6-.1-1-.4-1.4-.9-.4-.4-.6-1-.6-1.7 0-.8.3-1.4 1-1.9.6-.5 1.4-.7 2.5-.7a4 4 0 0 1 2.4.7c.7.4 1.1 1 1.3 1.7l-1.4.7a2 2 0 0 0-.9-1.3c-.4-.3-.9-.4-1.4-.4-.6 0-1 0-1.4.3a1 1 0 0 0-.5 1c0 .3.1.5.4.7.3.3.7.4 1.1.5a11.7 11.7 0 0 1 2.8.9c.5.1.8.5 1 1 .4.4.5 1 .5 1.6 0 .8-.3 1.6-1 2.1a4 4 0 0 1-2.7.9Zm10.7-.2v-10h1.7v1.8a5 5 0 0 1 1.4-1.5c.6-.4 1.3-.5 2-.5 1.1 0 2 .3 2.6 1 .7.6 1 1.5 1 2.5v6.7h-1.6v-6.4c0-.7-.2-1.2-.7-1.6a2 2 0 0 0-1.6-.7c-1 0-1.7.4-2.3 1.2-.5.7-.8 1.8-.8 3v4.5h-1.7Zm20.7-5.5v.8h-8a3 3 0 0 0 1 2.4 3 3 0 0 0 2.2 1 3 3 0 0 0 1.9-.6c.5-.3.8-.8 1-1.4l1.6.4c-.3 1-.8 1.7-1.6 2.2a5 5 0 0 1-3 .9c-1.4 0-2.6-.5-3.5-1.5-.9-1-1.3-2.3-1.3-3.7a5 5 0 0 1 1.3-3.7c.9-1 2-1.5 3.5-1.5a4.6 4.6 0 0 1 4.9 4.7Zm-8-.6h6.2a3 3 0 0 0-1-2 3 3 0 0 0-2-.7 3 3 0 0 0-2 .7c-.6.5-1 1.1-1.1 2Zm19.3.6v.8h-8a3 3 0 0 0 1 2.4 3 3 0 0 0 2.2 1c.8 0 1.4-.2 1.9-.6.5-.3.8-.8 1-1.4l1.6.4c-.3 1-.8 1.7-1.6 2.2a5 5 0 0 1-3 .9c-1.4 0-2.6-.5-3.5-1.5-.9-1-1.3-2.3-1.3-3.7a5 5 0 0 1 1.3-3.7c.9-1 2-1.5 3.5-1.5a4.6 4.6 0 0 1 4.9 4.7Zm-8-.6h6.2a3 3 0 0 0-1-2 3 3 0 0 0-2-.7 3 3 0 0 0-2 .7c-.6.5-1 1.1-1.1 2Zm14.4 6.3c-1.5 0-2.7-.5-3.6-1.5-.8-1-1.2-2.2-1.2-3.7 0-1.6.4-2.8 1.2-3.8.9-1 2-1.4 3.6-1.4.7 0 1.3.1 2 .4.5.3 1 .7 1.3 1.2v-5.6h1.7V314h-1.7v-1.5c-.2.5-.6.9-1.3 1.2-.6.3-1.2.5-2 .5Zm-2.2-2.6a3 3 0 0 0 2.4 1 3 3 0 0 0 2.4-1c.6-.6.9-1.5.9-2.6s-.3-2-1-2.7a3 3 0 0 0-2.3-1 3 3 0 0 0-2.4 1 4 4 0 0 0-.9 2.7c0 1 .3 2 1 2.6Zm19-3.1v.8h-8c.1 1 .5 1.8 1 2.4a3 3 0 0 0 2.3 1c.8 0 1.4-.2 2-.6.4-.3.8-.8.9-1.4l1.6.4c-.3 1-.8 1.7-1.6 2.2a5 5 0 0 1-2.9.9c-1.5 0-2.7-.5-3.6-1.5-.9-1-1.3-2.3-1.3-3.7a5 5 0 0 1 1.3-3.7c.9-1 2-1.5 3.6-1.5a4.6 4.6 0 0 1 4.8 4.7Zm-7.8-.6h6a3 3 0 0 0-.8-2 3 3 0 0 0-2.1-.7 3 3 0 0 0-2 .7c-.6.5-1 1.1-1.1 2Zm14.3 6.3c-1.5 0-2.7-.5-3.5-1.5-.9-1-1.3-2.2-1.3-3.7 0-1.6.4-2.8 1.3-3.8.8-1 2-1.4 3.5-1.4.7 0 1.3.1 2 .4.5.3 1 .7 1.3 1.2v-5.6h1.7V314h-1.7v-1.5c-.2.5-.6.9-1.2 1.2-.6.3-1.3.5-2 .5Zm-2.2-2.6a3 3 0 0 0 2.4 1 3 3 0 0 0 2.4-1c.6-.6.9-1.5.9-2.6s-.3-2-1-2.7a3 3 0 0 0-2.3-1 3 3 0 0 0-2.4 1 4 4 0 0 0-.9 2.7c0 1 .3 2 1 2.6Zm-61 16.2c1.3 0 2.3.3 3 1 .8.7 1.2 1.6 1.2 2.7v6.5h-1.7v-1.7c-.3.6-.8 1-1.4 1.4a4 4 0 0 1-2 .5c-1 0-1.8-.3-2.4-.9-.7-.5-1-1.2-1-2.1 0-2 1.6-3 4.8-3.3l2-.3v-.2a2 2 0 0 0-.7-1.6c-.4-.4-1-.6-1.8-.6-.7 0-1.3.2-1.7.6-.5.3-.7.9-.8 1.6l-1.6-.3c.2-1 .6-1.8 1.4-2.4a4 4 0 0 1 2.7-1Zm-.6 9a3 3 0 0 0 2.3-1c.5-.5.8-1.3.8-2.4v-.4l-2 .2c-2 .2-3 .9-3 2 0 .4 0 .8.5 1.1.3.3.8.5 1.4.5Zm7.5 1.2v-10h1.7v1.8c.4-.6.9-1.1 1.5-1.5.6-.4 1.2-.5 2-.5 1 0 1.9.3 2.6 1 .6.6 1 1.5 1 2.5v6.7h-1.7v-6.4a2.2 2.2 0 0 0-2.3-2.3c-1 0-1.7.4-2.3 1.2-.5.7-.8 1.8-.8 3v4.5h-1.7Zm11.5 0v-10h1.7v1.8c.4-.6.9-1.1 1.5-1.5.6-.4 1.3-.5 2-.5 1 0 2 .3 2.6 1 .7.6 1 1.5 1 2.5v6.7h-1.7v-6.4a2.2 2.2 0 0 0-2.3-2.3c-1 0-1.7.4-2.2 1.2-.6.7-.9 1.8-.9 3v4.5h-1.7Zm20.2-10v10h-1.7v-1.9a4 4 0 0 1-3.4 2.1c-1 0-2-.4-2.6-1-.7-.7-1-1.5-1-2.6v-6.7h1.7v6.4c0 .7.2 1.2.6 1.7.4.4 1 .6 1.6.6 1 0 1.7-.4 2.3-1.1.5-.8.8-1.8.8-3.2V328h1.7Zm6.6-.2c1.2 0 2.2.3 3 1 .7.7 1 1.6 1 2.7v6.5h-1.6v-1.7c-.3.6-.7 1-1.4 1.4a4 4 0 0 1-2 .5c-1 0-1.8-.3-2.4-.9-.6-.5-1-1.2-1-2.1 0-2 1.7-3 4.9-3.3l2-.3v-.2a2 2 0 0 0-.8-1.6c-.4-.4-1-.6-1.8-.6-.6 0-1.2.2-1.7.6-.4.3-.7.9-.8 1.6l-1.5-.3c.1-1 .6-1.8 1.3-2.4.8-.6 1.7-1 2.8-1Zm-.7 9a3 3 0 0 0 2.3-1c.5-.5.8-1.3.8-2.4v-.4l-2 .2c-2 .2-3 .9-3 2 0 .4.1.8.5 1.1.4.3.8.5 1.4.5Zm7.6 1.2v-14.2h1.7V338H298Zm4.4 0v-14.2h1.7V338h-1.7Zm11.1-10h1.7l-5.2 13.6h-1.8l1.5-3.7-4-10h1.9l3 7.7 2.9-7.7Z"/>
  <path fill="#377D78" d="M175.7 392v-10.6c-1 .7-2 1.2-3.1 1.4V380a9 9 0 0 0 3.7-2h2.4v14h-3Zm5.4-3h3v3h-3v-3Zm10.7 3v-2.7H185v-2.7l6.7-8.6h3.4v8.6h1.6v2.7H195v2.7h-3.2Zm-3.7-5.4h3.7v-4.8l-3.7 4.8Zm12.4-1.7a3 3 0 0 1-2.4-1 4 4 0 0 1-.8-2.5c0-1.1.3-2 .8-2.6.6-.6 1.4-1 2.4-1s1.8.4 2.4 1c.6.6 1 1.5 1 2.6 0 1-.4 1.9-1 2.5a3 3 0 0 1-2.4 1Zm-1.8 7.1 9.4-14h2.3l-9.4 14h-2.3Zm1.8-9c.8 0 1.1-.6 1.1-1.6s-.3-1.6-1-1.6c-.8 0-1.2.5-1.2 1.6 0 1 .4 1.5 1.1 1.5Zm8.1 9.2c-1 0-1.8-.4-2.4-1-.6-.6-.9-1.5-.9-2.6 0-1 .3-1.9 1-2.5.5-.7 1.3-1 2.3-1 1 0 1.8.3 2.4 1 .6.6.9 1.5.9 2.5 0 1.1-.3 2-1 2.6a3 3 0 0 1-2.3 1Zm0-2c.4 0 .6-.1.8-.4.2-.3.3-.7.3-1.2a2 2 0 0 0-.3-1.1 1 1 0 0 0-.8-.4c-.7 0-1.1.5-1.1 1.5s.4 1.6 1.1 1.6Z"/>
  <path fill="#70737C" d="M229.4 392h-2l-4-6.2h-3v6.2h-1.9v-14h5c1.4 0 2.5.4 3.3 1 .8.8 1.2 1.7 1.2 2.9a3.7 3.7 0 0 1-2.6 3.6l4 6.5Zm-9-12.4v4.5h3c.8 0 1.5-.2 2-.6.5-.4.7-1 .7-1.6a2 2 0 0 0-.7-1.7 3 3 0 0 0-2-.6h-3Zm19.3 6.9v.8h-8c0 1 .4 1.8 1 2.4a3 3 0 0 0 2.2 1c.8 0 1.4-.2 2-.6.5-.3.8-.8 1-1.4l1.5.4c-.2 1-.7 1.7-1.5 2.2a5 5 0 0 1-3 .9c-1.4 0-2.6-.5-3.5-1.5a5 5 0 0 1-1.4-3.7c0-1.5.5-2.8 1.3-3.7 1-1 2.1-1.5 3.6-1.5a4.6 4.6 0 0 1 4.8 4.7Zm-7.9-.6h6.1a3 3 0 0 0-1-2 3 3 0 0 0-2-.7 3 3 0 0 0-2 .7c-.6.5-1 1.1-1 2Zm13.4 6.3a4.3 4.3 0 0 1-4.2-3l1.4-.6c.5 1.4 1.4 2.1 2.8 2.1.6 0 1-.1 1.4-.4.4-.3.6-.7.6-1.1 0-.5-.2-.9-.6-1.1-.4-.3-.9-.5-1.4-.6a45 45 0 0 1-1.7-.5c-.6-.1-1-.4-1.5-.9-.4-.4-.6-1-.6-1.7 0-.8.3-1.4 1-1.9.6-.5 1.5-.7 2.6-.7.9 0 1.6.2 2.3.7a3 3 0 0 1 1.4 1.7l-1.4.7a2 2 0 0 0-.9-1.3c-.4-.3-1-.4-1.5-.4-.6 0-1 0-1.3.3a1 1 0 0 0-.5 1c0 .3.1.5.4.7.3.3.6.4 1 .5a11.7 11.7 0 0 1 2.9.9c.4.1.8.5 1 1a2.8 2.8 0 0 1-.5 3.7 4 4 0 0 1-2.7.9Zm5.7-14.4h2v2.2h-2v-2.2Zm.1 14.2v-10h1.7v10H251Zm8.8.2c-1.5 0-2.7-.5-3.6-1.5-.9-1-1.3-2.2-1.3-3.7 0-1.6.4-2.8 1.3-3.8.8-1 2-1.4 3.6-1.4.6 0 1.3.1 1.9.4.6.3 1 .7 1.4 1.2v-5.6h1.7V392H263v-1.5a3 3 0 0 1-1.3 1.2c-.6.3-1.3.5-2 .5Zm-2.2-2.6a3 3 0 0 0 2.3 1 3 3 0 0 0 2.4-1c.6-.6 1-1.5 1-2.6s-.4-2-1-2.7a3 3 0 0 0-2.4-1 3 3 0 0 0-2.3 1 4 4 0 0 0-1 2.7c0 1 .4 2 1 2.6Zm19-3.1v.8h-8c0 1 .4 1.8 1 2.4a3 3 0 0 0 2.2 1c.8 0 1.5-.2 2-.6.5-.3.8-.8 1-1.4l1.5.4c-.2 1-.7 1.7-1.5 2.2a5 5 0 0 1-3 .9c-1.4 0-2.6-.5-3.5-1.5a5 5 0 0 1-1.4-3.7c0-1.5.5-2.8 1.3-3.7 1-1 2.1-1.5 3.6-1.5a4.6 4.6 0 0 1 4.8 4.7Zm-7.9-.6h6.1a3 3 0 0 0-.9-2 3 3 0 0 0-2-.7 3 3 0 0 0-2 .7c-.6.5-1 1.1-1.2 2Zm10.1 6.1v-10h1.7v1.8c.4-.6.9-1.1 1.5-1.5.6-.4 1.2-.5 2-.5 1 0 1.9.3 2.6 1 .6.6 1 1.5 1 2.5v6.7h-1.7v-6.4a2.2 2.2 0 0 0-2.3-2.3c-1 0-1.7.4-2.3 1.2-.5.7-.8 1.8-.8 3v4.5h-1.7Zm16.5 0-1.6.2a3 3 0 0 1-2.1-.8c-.6-.6-.8-1.4-.8-2.4v-5.6h-2V382h2v-3h1.7v3h2.7v1.5h-2.7v5.6c0 .6.1 1 .4 1.2.2.3.6.4 1 .4.5 0 1 0 1.3-.2l.1 1.5Zm1.9-14.2h2v2.2h-2v-2.2Zm.1 14.2v-10h1.7v10h-1.7Zm8.2-10.2c1.3 0 2.3.3 3 1 .8.7 1.2 1.6 1.2 2.7v6.5H308v-1.7c-.3.6-.8 1-1.4 1.4a4 4 0 0 1-2 .5c-1 0-1.8-.3-2.4-.9-.7-.5-1-1.2-1-2.1 0-2 1.6-3 4.8-3.3l2-.3v-.2a2 2 0 0 0-.7-1.6c-.4-.4-1-.6-1.8-.6-.7 0-1.2.2-1.7.6-.5.3-.7.9-.8 1.6l-1.6-.3c.2-1 .6-1.8 1.4-2.4.7-.6 1.7-1 2.7-1Zm-.6 9a3 3 0 0 0 2.3-1c.5-.5.8-1.3.8-2.4v-.4l-2 .2c-2 .2-3 .9-3 2 0 .4.1.8.5 1.1.3.3.8.5 1.4.5Zm7.5 1.2v-14.2h1.7V392h-1.7Zm-107.8 24-3.7-10h1.7l2.8 8 2.8-8h1.8l-3.7 10h-1.7Zm10.5-10.2c1.2 0 2.2.3 3 1 .8.7 1.1 1.6 1.1 2.7v6.5h-1.6v-1.7c-.3.6-.8 1-1.4 1.4a4 4 0 0 1-2 .5c-1 0-1.8-.3-2.5-.9-.6-.5-1-1.2-1-2.1 0-2 1.7-3 4.9-3.3l2-.3v-.2a2 2 0 0 0-.7-1.6c-.5-.4-1-.6-1.8-.6-.7 0-1.3.2-1.7.6-.5.3-.7.9-.8 1.6l-1.6-.3c.2-1 .6-1.8 1.4-2.4a4 4 0 0 1 2.7-1Zm-.6 9a3 3 0 0 0 2.2-1c.6-.5.9-1.3.9-2.4v-.4l-2 .2c-2 .2-3.1.9-3.1 2 0 .4.2.8.5 1.1.4.3.9.5 1.5.5Zm12 1.4c-1.6 0-2.8-.5-3.7-1.5-1-1-1.4-2.2-1.4-3.7 0-1.6.5-2.9 1.4-3.8 1-1 2.1-1.4 3.6-1.4 1.2 0 2.2.3 3 .9a3 3 0 0 1 1.4 2.3l-1.6.4c-.1-.6-.4-1.1-1-1.5-.4-.4-1-.6-1.7-.6a3 3 0 0 0-2.4 1 4 4 0 0 0-.9 2.7c0 1 .3 2 .9 2.6a3 3 0 0 0 2.4 1c.7 0 1.3-.1 1.8-.5s.8-1 .9-1.6l1.7.4c-.3 1-.8 1.8-1.6 2.4-.7.6-1.7.9-2.9.9Zm10.1-10.4c1.3 0 2.3.3 3 1 .8.7 1.2 1.6 1.2 2.7v6.5H239v-1.7c-.3.6-.8 1-1.4 1.4a4 4 0 0 1-2 .5c-1 0-1.8-.3-2.4-.9-.7-.5-1-1.2-1-2.1 0-2 1.6-3 4.8-3.3l2-.3v-.2a2 2 0 0 0-.7-1.6c-.4-.4-1-.6-1.8-.6-.7 0-1.2.2-1.7.6-.4.3-.7.9-.8 1.6l-1.5-.3c.1-1 .5-1.8 1.3-2.4.8-.6 1.7-1 2.7-1Zm-.6 9a3 3 0 0 0 2.3-1c.5-.5.8-1.3.8-2.4v-.4l-2 .2c-2 .2-3 .9-3 2 0 .4.1.8.5 1.1.3.3.8.5 1.4.5Zm7.5 1.2v-10h1.7v1.8c.4-.6.9-1.1 1.5-1.5.6-.4 1.3-.5 2-.5 1 0 2 .3 2.6 1 .7.6 1 1.5 1 2.5v6.7h-1.7v-6.4a2.2 2.2 0 0 0-2.3-2.3c-1 0-1.7.4-2.2 1.2-.6.7-.9 1.8-.9 3v4.5h-1.7Zm16 .2c-1.5 0-2.7-.5-3.6-1.5-1-1-1.4-2.2-1.4-3.7 0-1.6.4-2.9 1.4-3.8.9-1 2-1.4 3.6-1.4a5 5 0 0 1 3 .9c.7.5 1.2 1.3 1.4 2.3l-1.7.4c0-.6-.4-1.1-.9-1.5-.5-.4-1-.6-1.8-.6a3 3 0 0 0-2.4 1c-.5.7-.8 1.6-.8 2.7 0 1 .3 2 .8 2.6a3 3 0 0 0 2.4 1c.7 0 1.3-.1 1.8-.5s.8-1 1-1.6l1.6.4c-.2 1-.7 1.8-1.5 2.4-.8.6-1.8.9-3 .9Zm12.9-10.3h1.7l-5.3 13.7h-1.7l1.4-3.7-3.9-10h1.8l3 7.7 3-7.7Zm14 1.7c-.3-.2-.7-.3-1.2-.3-.9 0-1.6.5-2.1 1.3-.6.8-.8 2-.8 3.6v3.8h-1.7v-10h1.7v2c.3-.7.7-1.2 1.3-1.6.6-.4 1.2-.6 1.8-.6l1.2.1-.1 1.7Zm5.2-1.8c1.3 0 2.3.3 3 1 .8.7 1.2 1.6 1.2 2.7v6.5H294v-1.7c-.3.6-.8 1-1.4 1.4a4 4 0 0 1-2 .5c-1 0-1.8-.3-2.4-.9-.7-.5-1-1.2-1-2.1 0-2 1.6-3 4.8-3.3l2-.3v-.2a2 2 0 0 0-.7-1.6c-.4-.4-1-.6-1.8-.6-.7 0-1.2.2-1.7.6-.4.3-.7.9-.8 1.6l-1.5-.3c.1-1 .5-1.8 1.3-2.4.8-.6 1.7-1 2.7-1Zm-.6 9a3 3 0 0 0 2.3-1c.5-.5.8-1.3.8-2.4v-.4l-2 .2c-2 .2-3 .9-3 2 0 .4.1.8.5 1.1.3.3.8.5 1.4.5Zm12.8 1.1c-.4.2-1 .3-1.5.3a3 3 0 0 1-2.2-.8c-.6-.6-.8-1.4-.8-2.4v-5.6h-1.9V406h1.9v-3h1.7v3h2.7v1.5H301v5.6c0 .6.1 1 .4 1.2.2.3.6.4 1 .4.6 0 1 0 1.3-.2l.1 1.5Zm10.9-5.4v.8h-8c0 1 .4 1.8 1 2.4a3 3 0 0 0 2.2 1c.8 0 1.4-.2 2-.6a3 3 0 0 0 1-1.4l1.5.4c-.2 1-.8 1.7-1.6 2.2a5 5 0 0 1-2.9.9c-1.5 0-2.7-.5-3.6-1.5-.9-1-1.3-2.3-1.3-3.7a5 5 0 0 1 1.3-3.7c.9-1 2-1.5 3.6-1.5a4.6 4.6 0 0 1 4.8 4.7Zm-8-.6h6.2a3 3 0 0 0-1-2 3 3 0 0 0-2-.7 3 3 0 0 0-2 .7c-.6.5-1 1.1-1.1 2Z"/>
  <path fill="#377D78" d="M110.1 470.2c-1.4 0-2.5-.4-3.5-1.1-1-.7-1.5-1.7-1.7-2.8l2.8-.6a2.2 2.2 0 0 0 2.3 1.7c.7 0 1.2-.2 1.6-.5.4-.4.6-1 .6-1.6a2 2 0 0 0-.7-1.6c-.4-.4-1-.6-1.6-.6a3 3 0 0 0-2.4 1.3l-2.3-.5 1.2-7.9h7.8v2.7h-5.5l-.5 3c.7-.7 1.5-1 2.5-1 1.4 0 2.5.4 3.3 1.3.9.8 1.3 2 1.3 3.3 0 1.4-.5 2.6-1.4 3.5a5 5 0 0 1-3.8 1.4Zm7-3.1h3v2.9h-3v-3ZM128 470v-2.7h-7v-2.7l6.8-8.6h3.3v8.6h1.7v2.7H131v2.7h-3Zm-3.7-5.4h3.7v-4.8l-3.7 4.8Zm12.4-1.7a3 3 0 0 1-2.4-1c-.6-.6-.9-1.5-.9-2.5 0-1.1.3-2 .9-2.6.6-.6 1.4-1 2.4-1s1.8.4 2.4 1c.6.6.9 1.5.9 2.6 0 1-.3 1.9-1 2.5a3 3 0 0 1-2.3 1Zm-1.8 7.1 9.3-14h2.3l-9.3 14h-2.3Zm1.8-9c.7 0 1-.6 1-1.6s-.3-1.6-1-1.6-1.1.5-1.1 1.6c0 1 .4 1.5 1.1 1.5Zm8 9.2a3 3 0 0 1-2.3-1c-.6-.6-1-1.5-1-2.6 0-1 .4-1.9 1-2.5.6-.7 1.4-1 2.4-1s1.7.3 2.3 1c.6.6 1 1.5 1 2.5 0 1.1-.4 2-1 2.6a3 3 0 0 1-2.3 1Zm0-2c.4 0 .7-.1.9-.4.2-.3.3-.7.3-1.2a2 2 0 0 0-.3-1.1.9.9 0 0 0-.8-.4c-.8 0-1.2.5-1.2 1.5s.4 1.6 1.2 1.6Z"/>
  <path fill="#70737C" d="M158.3 459.8c1.2 0 2.2.3 3 1 .7.7 1.1 1.6 1.1 2.7v6.5h-1.7v-1.7c-.3.6-.7 1-1.3 1.4a4 4 0 0 1-2 .5c-1 0-1.8-.3-2.5-.9-.6-.5-1-1.2-1-2.1 0-2 1.7-3 4.9-3.3l2-.3v-.2a2 2 0 0 0-.7-1.6c-.5-.4-1-.6-1.8-.6-.7 0-1.3.2-1.7.6-.5.3-.8.9-.8 1.6l-1.6-.3c.1-1 .6-1.8 1.3-2.4.8-.6 1.7-1 2.8-1Zm-.7 9a3 3 0 0 0 2.3-1c.6-.5.8-1.3.8-2.4v-.4l-2 .2c-2 .2-3 .9-3 2 0 .4.2.8.5 1.1.4.3.9.5 1.4.5Zm7.6 1.2v-10h1.7v1.8a4 4 0 0 1 1.4-1.5c.6-.4 1.3-.5 2-.5 1 0 2 .3 2.6 1 .7.6 1 1.5 1 2.5v6.7h-1.7v-6.4a2.2 2.2 0 0 0-2.3-2.3c-.9 0-1.6.4-2.2 1.2-.5.7-.8 1.8-.8 3v4.5h-1.7Zm11.5 0v-10h1.7v1.8a5 5 0 0 1 1.4-1.5c.6-.4 1.3-.5 2-.5 1.1 0 2 .3 2.6 1 .7.6 1 1.5 1 2.5v6.7h-1.6v-6.4c0-.7-.2-1.2-.7-1.6a2 2 0 0 0-1.6-.7c-1 0-1.7.4-2.3 1.2-.5.7-.8 1.8-.8 3v4.5h-1.7Zm20.2-10v10h-1.7v-1.9a5 5 0 0 1-1.4 1.5c-.7.4-1.3.6-2 .6a4 4 0 0 1-2.7-1c-.6-.7-1-1.5-1-2.6v-6.7h1.7v6.4c0 .7.2 1.2.6 1.7.5.4 1 .6 1.7.6 1 0 1.7-.4 2.3-1.1.5-.8.8-1.8.8-3.2V460h1.7Zm6.5-.2c1.3 0 2.3.3 3 1 .8.7 1.2 1.6 1.2 2.7v6.5h-1.7v-1.7c-.3.6-.8 1-1.4 1.4a4 4 0 0 1-2 .5c-1 0-1.8-.3-2.4-.9-.7-.5-1-1.2-1-2.1 0-2 1.6-3 4.8-3.3l2-.3v-.2a2 2 0 0 0-.7-1.6c-.4-.4-1-.6-1.8-.6-.7 0-1.3.2-1.7.6-.5.3-.7.9-.8 1.6l-1.6-.3c.2-1 .6-1.8 1.4-2.4a4 4 0 0 1 2.7-1Zm-.6 9a3 3 0 0 0 2.3-1c.5-.5.8-1.3.8-2.4v-.4l-2 .2c-2 .2-3 .9-3 2 0 .4 0 .8.5 1.1.3.3.8.5 1.4.5Zm7.5 1.2v-14.2h1.7V470h-1.7Zm9.2-14.2h2v2.2h-2v-2.2Zm0 14.2v-10h1.8v10h-1.7Zm4.5 0v-10h1.7v1.8c.4-.6.9-1.1 1.5-1.5.6-.4 1.3-.5 2-.5 1 0 2 .3 2.6 1 .7.6 1 1.5 1 2.5v6.7h-1.7v-6.4a2.2 2.2 0 0 0-2.3-2.3c-1 0-1.7.4-2.2 1.2-.6.7-.9 1.8-.9 3v4.5H224Zm16 .2c-1.5 0-2.7-.5-3.6-1.5-1-1-1.4-2.2-1.4-3.7 0-1.6.5-2.9 1.4-3.8.9-1 2.1-1.4 3.6-1.4a5 5 0 0 1 3 .9c.7.5 1.2 1.3 1.4 2.3l-1.7.4c0-.6-.4-1.1-.9-1.5-.5-.4-1-.6-1.8-.6a3 3 0 0 0-2.3 1 4 4 0 0 0-1 2.7c0 1 .4 2 1 2.6a3 3 0 0 0 2.3 1c.8 0 1.4-.1 1.8-.5.5-.4.8-1 1-1.6l1.6.4c-.2 1-.7 1.8-1.5 2.4-.8.6-1.7.9-3 .9Zm12.4-8.6c-.3-.2-.8-.3-1.3-.3-.8 0-1.5.5-2 1.3-.6.8-.9 2-.9 3.6v3.8h-1.7v-10h1.7v2c.3-.7.8-1.2 1.4-1.6.6-.4 1.2-.6 1.8-.6l1.1.1v1.7Zm10.5 2.9v.8h-8a3 3 0 0 0 1 2.4 3 3 0 0 0 2.2 1 3 3 0 0 0 1.9-.6c.5-.3.8-.8 1-1.4l1.6.4c-.3 1-.8 1.7-1.6 2.2a5 5 0 0 1-3 .9c-1.4 0-2.6-.5-3.5-1.5-.9-1-1.3-2.3-1.3-3.7a5 5 0 0 1 1.3-3.7c.9-1 2-1.5 3.5-1.5a4.6 4.6 0 0 1 4.9 4.7Zm-8-.6h6.2a3 3 0 0 0-1-2 3 3 0 0 0-2-.7 3 3 0 0 0-2 .7c-.6.5-1 1.1-1.1 2Zm13.8-4.1c1.2 0 2.2.3 3 1 .8.7 1.1 1.6 1.1 2.7v6.5h-1.6v-1.7c-.3.6-.8 1-1.4 1.4a4 4 0 0 1-2 .5c-1 0-1.8-.3-2.5-.9-.6-.5-.9-1.2-.9-2.1 0-2 1.6-3 4.8-3.3l2-.3v-.2a2 2 0 0 0-.7-1.6c-.5-.4-1-.6-1.8-.6-.7 0-1.3.2-1.7.6-.5.3-.7.9-.8 1.6l-1.6-.3c.2-1 .6-1.8 1.4-2.4a4 4 0 0 1 2.7-1Zm-.6 9a3 3 0 0 0 2.2-1c.6-.5.9-1.3.9-2.4v-.4l-2 .2c-2 .2-3 .9-3 2 0 .4 0 .8.4 1.1.4.3.9.5 1.5.5Zm10.9 1.4c-1.1 0-2-.3-2.8-.9a4.3 4.3 0 0 1-1.4-2l1.4-.7c.5 1.4 1.4 2.1 2.8 2.1.6 0 1-.1 1.4-.4.4-.3.6-.7.6-1.1 0-.5-.2-.9-.6-1.1-.4-.3-.9-.5-1.4-.6l-1.7-.5c-.6-.1-1-.4-1.5-.9-.4-.4-.6-1-.6-1.7 0-.8.4-1.4 1-1.9s1.5-.7 2.6-.7c.9 0 1.7.2 2.3.7a3 3 0 0 1 1.4 1.7l-1.4.7a2 2 0 0 0-.9-1.3c-.4-.3-1-.4-1.5-.4s-1 0-1.3.3a1 1 0 0 0-.5 1c0 .3.1.5.4.7.3.3.6.4 1 .5a11.7 11.7 0 0 1 2.9.9c.4.1.8.5 1 1 .3.4.5 1 .5 1.6 0 .8-.3 1.6-1 2.1a4 4 0 0 1-2.7.9Zm14.9-5.7v.8h-8c0 1 .4 1.8 1 2.4a3 3 0 0 0 2.2 1c.8 0 1.4-.2 2-.6a3 3 0 0 0 1-1.4l1.5.4c-.2 1-.8 1.7-1.6 2.2a5 5 0 0 1-2.9.9c-1.5 0-2.7-.5-3.6-1.5-.9-1-1.3-2.3-1.3-3.7a5 5 0 0 1 1.3-3.7c.9-1 2-1.5 3.6-1.5a4.6 4.6 0 0 1 4.8 4.7Zm-8-.6h6.2a3 3 0 0 0-1-2 3 3 0 0 0-2-.7 3 3 0 0 0-2 .7c-.6.5-1 1.1-1.1 2Zm14.9-8h2v2.1h-2v-2.2Zm.1 14.1v-10h1.7v10h-1.7Zm4.5 0v-10h1.7v1.8a4 4 0 0 1 1.4-1.5c.6-.4 1.3-.5 2-.5 1 0 2 .3 2.6 1 .7.6 1 1.5 1 2.5v6.7h-1.7v-6.4a2.2 2.2 0 0 0-2.3-2.3c-1 0-1.7.4-2.2 1.2-.6.7-.8 1.8-.8 3v4.5h-1.7ZM88.7 494v-10h1.7v1.8a3 3 0 0 1 3-2c.9 0 1.6.1 2.2.5.6.4 1 1 1.1 1.6a3.5 3.5 0 0 1 3.3-2.1c1 0 2 .3 2.5.9.7.6 1 1.5 1 2.5v6.8h-1.7v-6.4c0-.7-.2-1.3-.6-1.7a2 2 0 0 0-1.6-.6c-.8 0-1.5.3-2 1a5 5 0 0 0-.7 2.6v5.1h-1.7v-6.4c0-.7-.2-1.3-.5-1.7-.4-.4-1-.6-1.6-.6-.9 0-1.5.3-2 1s-.7 1.5-.7 2.6v5.1h-1.7Zm26.7-5.5v.8h-8a3 3 0 0 0 1 2.4 3 3 0 0 0 2.2 1c.8 0 1.4-.2 2-.6.4-.3.7-.8.9-1.4l1.6.4c-.3 1-.8 1.7-1.6 2.2a5 5 0 0 1-3 .9c-1.4 0-2.6-.5-3.5-1.5-.9-1-1.3-2.3-1.3-3.7a5 5 0 0 1 1.3-3.7c.9-1 2-1.5 3.6-1.5a4.6 4.6 0 0 1 4.8 4.7Zm-8-.6h6.2a3 3 0 0 0-1-2 3 3 0 0 0-2-.7 3 3 0 0 0-2 .7c-.6.5-1 1.1-1.1 2Zm14.4 6.3c-1.5 0-2.7-.5-3.5-1.5-.9-1-1.3-2.2-1.3-3.7 0-1.6.4-2.8 1.3-3.8.8-1 2-1.4 3.5-1.4.7 0 1.3.1 2 .4.5.3 1 .7 1.3 1.2v-5.6h1.7V494h-1.7v-1.5c-.2.5-.6.9-1.2 1.2a5 5 0 0 1-2 .5Zm-2.2-2.6a3 3 0 0 0 2.4 1 3 3 0 0 0 2.4-1c.6-.6.9-1.5.9-2.6s-.3-2-1-2.7a3 3 0 0 0-2.3-1 3 3 0 0 0-2.4 1 4 4 0 0 0-.9 2.7c0 1 .3 2 1 2.6Zm9.9-11.8h2v2.2h-2v-2.2Zm0 14.2v-10h1.8v10h-1.7Zm8.3-10.2c1.2 0 2.2.3 3 1 .7.7 1.1 1.6 1.1 2.7v6.5h-1.7v-1.7c-.2.6-.7 1-1.3 1.4a4 4 0 0 1-2 .5c-1 0-1.8-.3-2.5-.9-.6-.5-1-1.2-1-2.1 0-2 1.7-3 4.9-3.3l2-.3v-.2a2 2 0 0 0-.7-1.6c-.5-.4-1-.6-1.8-.6-.7 0-1.3.2-1.7.6-.5.3-.7.9-.8 1.6l-1.6-.3a4 4 0 0 1 1.3-2.4c.8-.6 1.7-1 2.8-1Zm-.7 9a3 3 0 0 0 2.3-1c.6-.5.8-1.3.8-2.4v-.4l-2 .2c-2 .2-3 .9-3 2 0 .4.2.8.5 1.1.4.3.9.5 1.4.5Zm7.6 1.2v-10h1.7v1.8a5 5 0 0 1 1.4-1.5c.6-.4 1.3-.5 2-.5 1.1 0 2 .3 2.6 1 .7.6 1 1.5 1 2.5v6.7h-1.6v-6.4c0-.7-.3-1.2-.7-1.6a2 2 0 0 0-1.6-.7c-1 0-1.7.4-2.3 1.2-.5.7-.8 1.8-.8 3v4.5h-1.7Zm20.1-10.2c1.2 0 2.2.3 3 1 .8.7 1.1 1.6 1.1 2.7v6.5h-1.6v-1.7c-.3.6-.8 1-1.4 1.4a4 4 0 0 1-2 .5c-1 0-1.8-.3-2.5-.9-.6-.5-.9-1.2-.9-2.1 0-2 1.6-3 4.8-3.3l2-.3v-.2a2 2 0 0 0-.7-1.6c-.5-.4-1-.6-1.8-.6-.7 0-1.3.2-1.7.6-.5.3-.7.9-.8 1.6l-1.6-.3c.2-1 .6-1.8 1.4-2.4a4 4 0 0 1 2.7-1Zm-.6 9a3 3 0 0 0 2.2-1c.6-.5.9-1.3.9-2.4v-.4l-2 .2c-2 .2-3.1.9-3.1 2 0 .4.2.8.5 1.1.4.3.9.5 1.5.5Zm7.5 4.8V484h1.7v1.5a3 3 0 0 1 1.3-1.2c.6-.3 1.3-.4 2-.4 1.5 0 2.7.4 3.6 1.4.8 1 1.2 2.2 1.2 3.8 0 1.5-.4 2.7-1.3 3.7-.8 1-2 1.5-3.5 1.5-.7 0-1.3-.2-1.9-.5-.6-.3-1-.6-1.4-1.1v5h-1.7Zm4.8-5a3 3 0 0 0 2.4-1c.6-.6 1-1.5 1-2.6s-.4-2-1-2.7a3 3 0 0 0-2.4-1 3 3 0 0 0-2.4 1c-.5.7-.8 1.6-.8 2.7 0 1 .3 2 .8 2.6a3 3 0 0 0 2.4 1Zm10.9-8.8c1.2 0 2.2.3 3 1 .7.7 1.1 1.6 1.1 2.7v6.5h-1.7v-1.7c-.3.6-.7 1-1.3 1.4a4 4 0 0 1-2 .5c-1 0-1.8-.3-2.5-.9-.6-.5-1-1.2-1-2.1 0-2 1.7-3 4.9-3.3l2-.3v-.2a2 2 0 0 0-.7-1.6c-.5-.4-1-.6-1.8-.6-.7 0-1.3.2-1.7.6-.5.3-.8.9-.8 1.6l-1.6-.3c.1-1 .6-1.8 1.3-2.4.8-.6 1.7-1 2.8-1Zm-.7 9a3 3 0 0 0 2.3-1c.6-.5.8-1.3.8-2.4v-.4l-2 .2c-2 .2-3 .9-3 2 0 .4.2.8.5 1.1.4.3.9.5 1.4.5Zm12.7-7.3-.7-.1c-.8 0-1.5.4-2 1.2a7 7 0 0 0-.7 3.6v3.8h-1.7v-10h1.7v2c.2-.7.7-1.2 1.2-1.6.5-.4 1.1-.6 1.7-.6h.6l-.1 1.7Zm7.8 8.4c-.5.2-1 .3-1.6.3a3 3 0 0 1-2.2-.8c-.5-.6-.8-1.4-.8-2.4v-5.6h-1.9V484h1.9v-3h1.7v3h2.7v1.5h-2.7v5.6c0 .6.1 1 .4 1.2.3.3.6.4 1 .4.6 0 1 0 1.3-.2l.2 1.5Zm2 .1v-10h1.6v1.8a3 3 0 0 1 3-2c1 0 1.6.1 2.2.5.6.4 1 1 1.2 1.6a3.5 3.5 0 0 1 3.2-2.1c1.1 0 2 .3 2.6.9.6.6 1 1.5 1 2.5v6.8h-1.8v-6.4c0-.7-.1-1.3-.5-1.7a2 2 0 0 0-1.7-.6c-.8 0-1.4.3-2 1a5 5 0 0 0-.6 2.6v5.1h-1.7v-6.4c0-.7-.2-1.3-.6-1.7-.4-.4-.9-.6-1.6-.6-.8 0-1.5.3-2 1a5 5 0 0 0-.7 2.6v5.1h-1.7Zm26.6-5.5v.8h-8c0 1 .4 1.8 1 2.4a3 3 0 0 0 2.2 1c.8 0 1.5-.2 2-.6.5-.3.8-.8 1-1.4l1.5.4c-.2 1-.7 1.7-1.5 2.2a5 5 0 0 1-3 .9c-1.4 0-2.6-.5-3.5-1.5a5 5 0 0 1-1.4-3.7c0-1.5.5-2.8 1.3-3.7 1-1 2.1-1.5 3.6-1.5a4.6 4.6 0 0 1 4.8 4.7Zm-7.9-.6h6.1a3 3 0 0 0-.9-2 3 3 0 0 0-2.1-.7 3 3 0 0 0-2 .7c-.5.5-.9 1.1-1 2ZM238 494v-10h1.7v1.8c.4-.6.9-1.1 1.5-1.5.6-.4 1.2-.5 2-.5 1 0 1.9.3 2.6 1 .6.6 1 1.5 1 2.5v6.7H245v-6.4a2.2 2.2 0 0 0-2.3-2.3c-1 0-1.7.4-2.3 1.2-.5.7-.8 1.8-.8 3v4.5H238Zm16.5 0-1.6.2a3 3 0 0 1-2.1-.8c-.6-.6-.8-1.4-.8-2.4v-5.6h-2V484h2v-3h1.7v3h2.7v1.5h-2.7v5.6c0 .6.1 1 .4 1.2.2.3.6.4 1 .4.5 0 1 0 1.3-.2l.1 1.5Zm6.8 3.6V484h1.7v1.5c.3-.5.8-.9 1.4-1.2.6-.3 1.2-.4 2-.4 1.5 0 2.6.4 3.5 1.4.8 1 1.3 2.2 1.3 3.8 0 1.5-.5 2.7-1.3 3.7a4.5 4.5 0 0 1-5.4 1c-.6-.3-1.1-.6-1.5-1.1v5h-1.7Zm4.9-5a3 3 0 0 0 2.4-1c.6-.6.9-1.5.9-2.6s-.3-2-1-2.7a3 3 0 0 0-2.3-1 3 3 0 0 0-2.4 1 4 4 0 0 0-1 2.7c0 1 .4 2 1 2.6a3 3 0 0 0 2.4 1Zm13-7c-.3-.2-.8-.3-1.3-.3-.8 0-1.5.5-2 1.3-.6.8-.9 2-.9 3.6v3.8h-1.7v-10h1.7v2c.3-.7.8-1.2 1.4-1.6.6-.4 1.2-.6 1.8-.6l1.1.1v1.7Zm1.7-5.8h2v2.2h-2v-2.2Zm.1 14.2v-10h1.7v10H281Zm8.9.2c-1.5 0-2.7-.5-3.6-1.5-1-1-1.4-2.2-1.4-3.7 0-1.6.4-2.9 1.4-3.8.9-1 2-1.4 3.6-1.4 1.1 0 2.1.3 3 .9.7.5 1.2 1.3 1.4 2.3l-1.7.4c0-.6-.4-1.1-.9-1.5-.5-.4-1-.6-1.8-.6a3 3 0 0 0-2.4 1c-.6.7-.8 1.6-.8 2.7 0 1 .2 2 .8 2.6a3 3 0 0 0 2.4 1c.7 0 1.3-.1 1.8-.5s.8-1 1-1.6l1.6.4c-.2 1-.7 1.8-1.5 2.4-.8.6-1.8.9-3 .9Zm15.7-5.7v.8h-8a3 3 0 0 0 1 2.4 3 3 0 0 0 2.2 1 3 3 0 0 0 1.9-.6c.5-.3.8-.8 1-1.4l1.6.4c-.3 1-.8 1.7-1.6 2.2a5 5 0 0 1-3 .9c-1.4 0-2.6-.5-3.5-1.5-.9-1-1.3-2.3-1.3-3.7a5 5 0 0 1 1.3-3.7c.9-1 2-1.5 3.5-1.5a4.6 4.6 0 0 1 4.9 4.7Zm-8-.6h6.2a3 3 0 0 0-1-2 3 3 0 0 0-2-.7 3 3 0 0 0-2 .7c-.6.5-1 1.1-1.1 2Zm13.4 6.3a4.3 4.3 0 0 1-4.2-3l1.5-.6c.4 1.4 1.3 2.1 2.7 2.1.6 0 1.1-.1 1.5-.4.4-.3.6-.7.6-1.1 0-.5-.2-.9-.6-1.1a4 4 0 0 0-1.5-.6 45 45 0 0 1-1.7-.5c-.6-.1-1-.4-1.4-.9-.4-.4-.6-1-.6-1.7 0-.8.3-1.4 1-1.9.6-.5 1.4-.7 2.5-.7a4 4 0 0 1 2.4.7c.7.4 1.1 1 1.3 1.7l-1.4.7a2 2 0 0 0-.9-1.3c-.4-.3-.9-.4-1.4-.4-.6 0-1 0-1.4.3a1 1 0 0 0-.5 1c0 .3.1.5.4.7.3.3.7.4 1.1.5a11.7 11.7 0 0 1 2.8.9c.4.1.8.5 1 1 .4.4.5 1 .5 1.6 0 .8-.3 1.6-1 2.1a4 4 0 0 1-2.7.9Z"/>
  <path stroke="#BEBFC2" stroke-miterlimit="10" stroke-width="2" d="M326.5 233.2h129.7"/>
  <circle cx="391.4" cy="233" r="15" fill="#fff"/>
  <circle cx="391.4" cy="233" r="11.5" fill="#fff" stroke="#BEBFC2" stroke-width="5"/>
  <path stroke="#BEBFC2" stroke-miterlimit="10" stroke-width="2" d="M326.5 310.6h129.7"/>
  <circle cx="391.4" cy="310" r="15" fill="#fff"/>
  <circle cx="391.4" cy="310" r="11.5" fill="#fff" stroke="#BEBFC2" stroke-width="5"/>
  <path stroke="#BEBFC2" stroke-miterlimit="10" stroke-width="2" d="M326.5 387.6h129.7"/>
  <circle cx="391.4" cy="387" r="15" fill="#fff"/>
  <circle cx="391.4" cy="387" r="11.5" fill="#fff" stroke="#BEBFC2" stroke-width="5"/>
  <path stroke="#BEBFC2" stroke-miterlimit="10" stroke-width="2" d="M326.5 464.6h129.7"/>
  <circle cx="391.4" cy="464" r="15" fill="#fff"/>
  <circle cx="391.4" cy="464" r="11.5" fill="#fff" stroke="#BEBFC2" stroke-width="5"/>
  <path fill="#377D78" d="M473 236.2a6 6 0 0 1-3.6-1.2c-1-.8-1.5-1.8-1.5-3.1a3.5 3.5 0 0 1 2.4-3.4 3 3 0 0 1-1.3-1.2 3 3 0 0 1-.5-1.7c0-1 .4-2 1.3-2.7a5 5 0 0 1 3.3-1c1.3 0 2.4.3 3.3 1a3.3 3.3 0 0 1 .8 4.4 3 3 0 0 1-1.4 1.2c.8.2 1.4.6 1.8 1.3.5.6.7 1.3.7 2 0 1.4-.5 2.4-1.5 3.2-1 .8-2.2 1.2-3.7 1.2Zm0-8.9c.6 0 1-.1 1.4-.4.3-.3.4-.7.4-1.2 0-.4-.1-.8-.4-1-.4-.4-.8-.5-1.3-.5-.6 0-1 .1-1.3.4-.3.3-.5.7-.5 1.1 0 .5.2.9.5 1.2.3.3.8.4 1.3.4Zm-1.5 5.8c.4.4 1 .5 1.6.5.6 0 1.1-.1 1.5-.5.4-.3.6-.8.6-1.3 0-.6-.2-1-.6-1.3-.4-.4-.9-.5-1.5-.5-.7 0-1.2.1-1.6.5-.4.3-.6.7-.6 1.3 0 .5.2 1 .6 1.3Zm18.2 1.1c-1 1.3-2.5 2-4.3 2-1.8 0-3.2-.7-4.3-2-1-1.3-1.5-3-1.5-5.2s.5-4 1.5-5.2c1.1-1.3 2.5-2 4.3-2 1.8 0 3.2.7 4.3 2a8 8 0 0 1 1.6 5.2 8 8 0 0 1-1.6 5.2Zm-6.3-1.9c.5.8 1.1 1.1 2 1.1.9 0 1.5-.3 2-1.1s.7-1.9.7-3.3-.2-2.5-.7-3.3a2.2 2.2 0 0 0-2-1.2c-.9 0-1.5.4-2 1.2-.4.8-.7 1.9-.7 3.3s.3 2.5.7 3.3Zm19.3 2a5.6 5.6 0 0 1-4.3 1.9c-1.8 0-3.2-.7-4.3-2-1-1.3-1.5-3-1.5-5.2s.5-4 1.5-5.2c1-1.3 2.5-2 4.3-2 1.8 0 3.2.7 4.3 2a8 8 0 0 1 1.6 5.2 8 8 0 0 1-1.6 5.2Zm-6.3-2c.5.8 1.1 1.1 2 1.1.9 0 1.5-.3 2-1.1s.7-1.9.7-3.3-.2-2.5-.7-3.3a2.2 2.2 0 0 0-2-1.2c-.9 0-1.5.4-2 1.2-.4.8-.7 1.9-.7 3.3s.3 2.5.7 3.3Zm9 6.4 1.3-5.6h3.4l-2.9 5.6h-1.9Zm16.7-4.5c-1 1.3-2.5 2-4.3 2-1.8 0-3.2-.7-4.2-2s-1.6-3-1.6-5.2.5-4 1.6-5.2a5 5 0 0 1 4.2-2c1.8 0 3.2.7 4.3 2a8 8 0 0 1 1.6 5.2 8 8 0 0 1-1.6 5.2Zm-6.2-1.9c.4.8 1 1.1 2 1.1.8 0 1.5-.3 2-1.1.4-.8.6-1.9.6-3.3s-.2-2.5-.7-3.3a2.2 2.2 0 0 0-2-1.2c-.8 0-1.5.4-2 1.2-.4.8-.6 1.9-.6 3.3s.2 2.5.7 3.3Zm19.2 2a5.4 5.4 0 0 1-4.3 1.9c-1.8 0-3.2-.7-4.2-2s-1.6-3-1.6-5.2.5-4 1.6-5.2a5 5 0 0 1 4.2-2c1.8 0 3.2.7 4.3 2a8 8 0 0 1 1.6 5.2 8 8 0 0 1-1.6 5.2Zm-6.3-2c.5.8 1.2 1.1 2 1.1.9 0 1.6-.3 2-1.1.5-.8.7-1.9.7-3.3s-.2-2.5-.7-3.3a2.2 2.2 0 0 0-2-1.2c-.8 0-1.5.4-2 1.2-.4.8-.6 1.9-.6 3.3s.2 2.5.6 3.3Zm19.3 2a5.4 5.4 0 0 1-4.3 1.9c-1.8 0-3.2-.7-4.3-2-1-1.3-1.5-3-1.5-5.2s.5-4 1.5-5.2c1.1-1.3 2.5-2 4.3-2 1.8 0 3.2.7 4.3 2a8 8 0 0 1 1.6 5.2 8 8 0 0 1-1.6 5.2Zm-6.3-2c.5.8 1.1 1.1 2 1.1.9 0 1.5-.3 2-1.1s.7-1.9.7-3.3-.2-2.5-.7-3.3a2.2 2.2 0 0 0-2-1.2c-.9 0-1.5.4-2 1.2-.4.8-.7 1.9-.7 3.3s.3 2.5.7 3.3Z"/>
  <path fill="#70737C" d="M556.5 236v-10h1.7v1.8a5 5 0 0 1 1.4-1.5c.6-.4 1.3-.5 2-.5 1.1 0 2 .3 2.6 1 .7.6 1 1.5 1 2.5v6.7h-1.6v-6.4c0-.7-.2-1.2-.7-1.6a2 2 0 0 0-1.6-.7c-1 0-1.7.4-2.3 1.2-.5.7-.8 1.8-.8 3v4.5h-1.7Zm20.6-5.5v.8h-8c.1 1 .4 1.8 1 2.4a3 3 0 0 0 2.3 1 3 3 0 0 0 1.9-.6c.5-.3.8-.8 1-1.4l1.6.4c-.3 1-.8 1.7-1.6 2.2a5 5 0 0 1-3 .9c-1.4 0-2.6-.5-3.5-1.5a5 5 0 0 1-1.4-3.7c0-1.5.5-2.8 1.4-3.7.9-1 2-1.5 3.5-1.5a4.6 4.6 0 0 1 4.8 4.7Zm-7.9-.6h6.1a3 3 0 0 0-.9-2 3 3 0 0 0-2-.7 3 3 0 0 0-2 .7c-.6.5-1 1.1-1.2 2Zm12.1 6.1-3-10h1.7l2.2 7.6 2.3-7.7h1.7l2.3 7.7 2.2-7.7h1.8l-3.1 10.1h-1.7l-2.4-7.7-2.3 7.7h-1.7Zm17.9 0v-14.2h1.7v6.1a3.6 3.6 0 0 1 3.4-2.1c1.2 0 2 .3 2.8 1 .6.6 1 1.5 1 2.6v6.6h-1.7v-6.3c0-.8-.2-1.3-.7-1.8-.4-.4-1-.6-1.8-.6-.9 0-1.6.4-2.2 1.2-.6.8-.8 1.8-.8 3.2v4.3h-1.7Zm19.9-1.3a5 5 0 0 1-3.7 1.5 5 5 0 0 1-5.1-5.2 5 5 0 0 1 1.4-3.8 5 5 0 0 1 3.7-1.4 5 5 0 0 1 5.1 5.2c0 1.5-.5 2.7-1.4 3.7Zm-6.1-1c.6.6 1.4 1 2.4 1s1.8-.4 2.4-1a4 4 0 0 0 1-2.7c0-1.1-.3-2-1-2.7-.6-.7-1.4-1-2.4-1s-1.8.3-2.4 1c-.7.7-1 1.6-1 2.7 0 1 .3 2 1 2.6Zm9.7 2.3v-10h1.7v1.8a3 3 0 0 1 3-2c.9 0 1.6.1 2.2.5.6.4 1 1 1.1 1.6a3.5 3.5 0 0 1 3.3-2.1c1 0 2 .3 2.6.9.6.6 1 1.5 1 2.5v6.8h-1.8v-6.4c0-.7-.2-1.3-.6-1.7a2 2 0 0 0-1.6-.6c-.8 0-1.5.3-2 1a5 5 0 0 0-.6 2.6v5.1h-1.7v-6.4c0-.7-.2-1.3-.6-1.7-.4-.4-1-.6-1.6-.6-.9 0-1.5.3-2 1s-.7 1.5-.7 2.6v5.1h-1.7Zm26.7-5.5v.8h-8c0 1 .4 1.8 1 2.4a3 3 0 0 0 2.2 1c.8 0 1.4-.2 2-.6a3 3 0 0 0 1-1.4l1.5.4c-.2 1-.8 1.7-1.6 2.2a5 5 0 0 1-2.9.9c-1.5 0-2.7-.5-3.6-1.5-.9-1-1.3-2.3-1.3-3.7a5 5 0 0 1 1.3-3.7c.9-1 2-1.5 3.6-1.5a4.6 4.6 0 0 1 4.8 4.7Zm-8-.6h6.2a3 3 0 0 0-1-2 3 3 0 0 0-2-.7 3 3 0 0 0-2 .7c-.6.5-1 1.1-1.1 2Zm13.5 6.3a4.3 4.3 0 0 1-4.2-3l1.4-.6c.5 1.4 1.4 2.1 2.8 2.1.6 0 1-.1 1.4-.4.4-.3.6-.7.6-1.1 0-.5-.2-.9-.6-1.1-.4-.3-.9-.5-1.5-.6a45 45 0 0 1-1.7-.5c-.5-.1-1-.4-1.4-.9-.4-.4-.6-1-.6-1.7 0-.8.3-1.4 1-1.9.6-.5 1.5-.7 2.5-.7s1.7.2 2.4.7a3 3 0 0 1 1.4 1.7l-1.4.7a2 2 0 0 0-1-1.3c-.4-.3-.9-.4-1.4-.4-.6 0-1 0-1.4.3a1 1 0 0 0-.5 1c0 .3.2.5.5.7.3.3.6.4 1 .5a11.7 11.7 0 0 1 2.9.9c.4.1.7.5 1 1a2.8 2.8 0 0 1-.5 3.7 4 4 0 0 1-2.7.9ZM468.6 260v-10h1.7v1.8a4 4 0 0 1 1.4-1.5c.6-.4 1.3-.5 2-.5 1.1 0 2 .3 2.6 1 .7.6 1 1.5 1 2.5v6.7h-1.7v-6.4a2.2 2.2 0 0 0-2.3-2.3c-.9 0-1.6.4-2.2 1.2-.5.7-.8 1.8-.8 3v4.5h-1.7Zm20.6-5.5v.8h-8c0 1 .4 1.8 1 2.4a3 3 0 0 0 2.3 1 3 3 0 0 0 1.9-.6c.5-.3.8-.8 1-1.4l1.6.4c-.3 1-.8 1.7-1.6 2.2a5 5 0 0 1-3 .9c-1.4 0-2.6-.5-3.5-1.5a5 5 0 0 1-1.4-3.7c0-1.5.5-2.8 1.4-3.7.8-1 2-1.5 3.5-1.5a4.6 4.6 0 0 1 4.8 4.7Zm-7.9-.6h6.1a3 3 0 0 0-.9-2 3 3 0 0 0-2-.7 3 3 0 0 0-2 .7c-.6.5-1 1.1-1.2 2Zm19.2.6v.8h-8c.1 1 .4 1.8 1 2.4a3 3 0 0 0 2.3 1 3 3 0 0 0 1.9-.6c.5-.3.8-.8 1-1.4l1.6.4c-.3 1-.8 1.7-1.6 2.2a5 5 0 0 1-3 .9c-1.4 0-2.6-.5-3.5-1.5a5 5 0 0 1-1.4-3.7c0-1.5.5-2.8 1.4-3.7.9-1 2-1.5 3.5-1.5a4.6 4.6 0 0 1 4.8 4.7Zm-7.9-.6h6.1a3 3 0 0 0-.9-2 3 3 0 0 0-2-.7 3 3 0 0 0-2 .7c-.6.5-1 1.1-1.2 2Zm14.4 6.3c-1.5 0-2.7-.5-3.6-1.5-.8-1-1.2-2.2-1.2-3.7 0-1.6.4-2.8 1.2-3.8.9-1 2-1.4 3.6-1.4a4 4 0 0 1 1.9.4c.6.3 1 .7 1.4 1.2v-5.6h1.7V260h-1.7v-1.5c-.2.5-.7.9-1.3 1.2-.6.3-1.3.5-2 .5Zm-2.2-2.6a3 3 0 0 0 2.4 1 3 3 0 0 0 2.4-1c.6-.6.9-1.5.9-2.6s-.3-2-1-2.7a3 3 0 0 0-2.3-1 3 3 0 0 0-2.4 1 4 4 0 0 0-1 2.7c0 1 .4 2 1 2.6Zm19-3.1v.8h-8c.1 1 .4 1.8 1 2.4a3 3 0 0 0 2.3 1c.8 0 1.4-.2 1.9-.6.5-.3.8-.8 1-1.4l1.6.4c-.3 1-.8 1.7-1.6 2.2a5 5 0 0 1-3 .9c-1.4 0-2.6-.5-3.5-1.5-.9-1-1.3-2.3-1.3-3.7a5 5 0 0 1 1.3-3.7c.9-1 2-1.5 3.5-1.5a4.6 4.6 0 0 1 4.9 4.7Zm-7.8-.6h6a3 3 0 0 0-.9-2 3 3 0 0 0-2-.7 3 3 0 0 0-2 .7c-.6.5-1 1.1-1.1 2Zm14.3 6.3c-1.5 0-2.7-.5-3.5-1.5-.9-1-1.3-2.2-1.3-3.7 0-1.6.4-2.8 1.3-3.8.8-1 2-1.4 3.5-1.4.7 0 1.3.1 2 .4.5.3 1 .7 1.3 1.2v-5.6h1.7V260h-1.7v-1.5c-.2.5-.6.9-1.2 1.2a5 5 0 0 1-2 .5Zm-2.2-2.6a3 3 0 0 0 2.4 1 3 3 0 0 0 2.4-1c.6-.6.9-1.5.9-2.6s-.3-2-1-2.7a3 3 0 0 0-2.3-1 3 3 0 0 0-2.4 1 4 4 0 0 0-.9 2.7c0 1 .3 2 1 2.6Zm19.8 2.6c-.8 0-1.4-.2-2-.5-.7-.3-1-.7-1.3-1.2v1.5h-1.7v-14.2h1.7v5.6c.3-.5.8-1 1.4-1.2a4 4 0 0 1 1.9-.4c1.5 0 2.7.4 3.5 1.4.9 1 1.3 2.2 1.3 3.8 0 1.5-.4 2.7-1.3 3.7-.8 1-2 1.5-3.5 1.5Zm-2.6-2.6a3 3 0 0 0 2.4 1 3 3 0 0 0 2.4-1c.6-.6.9-1.5.9-2.6s-.3-2-1-2.7a3 3 0 0 0-2.3-1 3 3 0 0 0-2.4 1 4 4 0 0 0-.9 2.7c0 1 .3 2 1 2.6Zm16-7.7h1.6l-5.2 13.7h-1.8l1.5-3.7-4-10h1.9l3 7.7 3-7.7Zm7.3 10.1v-1.6l5.3-4.5c1.5-1.4 2.3-2.6 2.3-3.9 0-.7-.2-1.4-.7-1.8-.5-.5-1.2-.7-2-.7-1 0-1.7.3-2.2 1-.5.5-.7 1.4-.6 2.4l-1.8-.1c-.1-1.5.3-2.7 1.1-3.6.9-.9 2-1.4 3.5-1.4 1.4 0 2.5.4 3.3 1.2.9.8 1.3 1.8 1.3 3 0 .9-.3 1.7-.8 2.5a11 11 0 0 1-2.3 2.6l-3.8 3.3h6.9v1.6h-9.5Zm16.8.2c-1.7 0-3-.7-4-2-.9-1.3-1.4-3-1.4-5.2s.5-4 1.4-5.2c1-1.3 2.3-2 4-2 1.7 0 3 .7 4 2 .9 1.3 1.4 3 1.4 5.2s-.5 4-1.4 5.2c-1 1.3-2.3 2-4 2Zm0-1.7c1.1 0 2-.5 2.6-1.5.6-1 .9-2.3.9-4 0-1.7-.3-3-1-4-.5-1-1.4-1.5-2.5-1.5s-2 .5-2.6 1.4a8 8 0 0 0-.9 4.1c0 1.7.3 3 .9 4 .6 1 1.5 1.5 2.6 1.5Zm14 1.5v-3.4H592v-1.7l7-8.9h2.2v9h2v1.6h-2v3.4h-1.8Zm-5.5-5h5.5v-7l-5.5 7Zm12.8 5v-11.7c-.9.8-2 1.3-3.3 1.5v-1.6c1.4-.3 2.6-1 3.6-2.2h1.4v14h-1.7Z"/>
  <path fill="#377D78" d="M474.6 314v-2.7h-7v-2.7l6.8-8.6h3.4v8.6h1.6v2.7h-1.6v2.7h-3.2Zm-3.7-5.4h3.7v-4.8l-3.7 4.8Zm19.9 3.6c-1 1.3-2.5 2-4.3 2-1.8 0-3.2-.7-4.3-2-1-1.3-1.5-3-1.5-5.2s.5-4 1.5-5.2c1.1-1.3 2.5-2 4.3-2 1.8 0 3.2.7 4.3 2a8 8 0 0 1 1.6 5.2 8 8 0 0 1-1.6 5.2Zm-6.3-1.9c.5.8 1.1 1.1 2 1.1.9 0 1.5-.3 2-1.1s.7-1.9.7-3.3-.2-2.5-.7-3.3a2.2 2.2 0 0 0-2-1.2c-.9 0-1.5.4-2 1.2-.4.8-.7 1.9-.7 3.3s.3 2.5.7 3.3Zm9 6.4 1.3-5.6h3.4l-2.8 5.6h-2Zm16.7-4.5c-1 1.3-2.5 2-4.3 2-1.8 0-3.2-.7-4.2-2s-1.6-3-1.6-5.2.5-4 1.6-5.2a5 5 0 0 1 4.2-2c1.8 0 3.2.7 4.3 2a8 8 0 0 1 1.6 5.2 8 8 0 0 1-1.6 5.2Zm-6.2-1.9c.4.8 1 1.1 2 1.1.8 0 1.5-.3 2-1.1.4-.8.6-1.9.6-3.3s-.2-2.5-.7-3.3a2.2 2.2 0 0 0-2-1.2c-.8 0-1.5.4-2 1.2-.4.8-.6 1.9-.6 3.3s.2 2.5.7 3.3Zm19.2 2a5.4 5.4 0 0 1-4.3 1.9c-1.8 0-3.2-.7-4.2-2s-1.6-3-1.6-5.2.5-4 1.6-5.2a5 5 0 0 1 4.2-2c1.8 0 3.2.7 4.3 2a8 8 0 0 1 1.6 5.2 8 8 0 0 1-1.6 5.2Zm-6.3-2c.5.8 1.2 1.1 2 1.1.9 0 1.6-.3 2-1.1.5-.8.7-1.9.7-3.3s-.2-2.5-.7-3.3a2.2 2.2 0 0 0-2-1.2c-.8 0-1.5.4-2 1.2-.4.8-.6 1.9-.6 3.3s.2 2.5.6 3.3Zm19.3 2a5.4 5.4 0 0 1-4.3 1.9c-1.8 0-3.2-.7-4.2-2s-1.6-3-1.6-5.2.5-4 1.6-5.2a5 5 0 0 1 4.2-2c1.8 0 3.2.7 4.3 2a8 8 0 0 1 1.6 5.2 8 8 0 0 1-1.6 5.2Zm-6.3-2c.5.8 1.1 1.1 2 1.1.9 0 1.5-.3 2-1.1s.7-1.9.7-3.3-.2-2.5-.7-3.3a2.2 2.2 0 0 0-2-1.2c-.9 0-1.5.4-2 1.2-.4.8-.6 1.9-.6 3.3s.2 2.5.6 3.3Z"/>
  <path fill="#70737C" d="M544.6 314v-14.2h1.7v6.1a3.6 3.6 0 0 1 3.4-2.1c1.2 0 2.1.3 2.8 1 .7.6 1 1.5 1 2.6v6.6h-1.7v-6.3c0-.8-.2-1.3-.6-1.8-.5-.4-1-.6-1.8-.6-1 0-1.7.4-2.3 1.2-.5.8-.8 1.8-.8 3.2v4.3h-1.7Zm19.9-1.3a5 5 0 0 1-3.7 1.5 5 5 0 0 1-5-5.2 5 5 0 0 1 1.3-3.8 5 5 0 0 1 3.7-1.4 5 5 0 0 1 5.1 5.2c0 1.5-.4 2.7-1.4 3.7Zm-6.1-1c.6.6 1.4 1 2.4 1s1.8-.4 2.5-1c.6-.8 1-1.7 1-2.7a4 4 0 0 0-1-2.7c-.7-.7-1.5-1-2.5-1s-1.8.3-2.4 1a4 4 0 0 0-1 2.7c0 1 .4 2 1 2.6Zm9.7 2.3v-10h1.7v1.8a3 3 0 0 1 3-2c1 0 1.6.1 2.2.5.6.4 1 1 1.2 1.6a3.5 3.5 0 0 1 3.2-2.1c1.1 0 2 .3 2.6.9.6.6 1 1.5 1 2.5v6.8h-1.8v-6.4c0-.7-.2-1.3-.5-1.7a2 2 0 0 0-1.7-.6c-.8 0-1.5.3-2 1a5 5 0 0 0-.6 2.6v5.1h-1.7v-6.4c0-.7-.2-1.3-.6-1.7-.4-.4-1-.6-1.6-.6-.8 0-1.5.3-2 1a5 5 0 0 0-.7 2.6v5.1h-1.7Zm26.7-5.5v.8h-8c0 1 .4 1.8 1 2.4a3 3 0 0 0 2.2 1c.8 0 1.5-.2 2-.6.5-.3.8-.8 1-1.4l1.5.4c-.2 1-.7 1.7-1.5 2.2a5 5 0 0 1-3 .9c-1.4 0-2.6-.5-3.5-1.5a5 5 0 0 1-1.4-3.7c0-1.5.5-2.8 1.3-3.7 1-1 2.1-1.5 3.6-1.5a4.6 4.6 0 0 1 4.8 4.7Zm-7.9-.6h6.1a3 3 0 0 0-.9-2 3 3 0 0 0-2.1-.7 3 3 0 0 0-2 .7c-.5.5-1 1.1-1 2Zm13.4 6.3c-1.1 0-2-.3-2.8-.9a4.3 4.3 0 0 1-1.4-2l1.4-.7c.5 1.4 1.4 2.1 2.8 2.1.6 0 1-.1 1.5-.4.3-.3.5-.7.5-1.1 0-.5-.2-.9-.6-1.1-.4-.3-.9-.5-1.4-.6l-1.7-.5c-.6-.1-1-.4-1.5-.9-.4-.4-.6-1-.6-1.7 0-.8.4-1.4 1-1.9s1.5-.7 2.6-.7a4 4 0 0 1 2.4.7c.6.4 1.1 1 1.3 1.7l-1.4.7a2 2 0 0 0-.9-1.3c-.4-.3-1-.4-1.5-.4s-1 0-1.3.3a1 1 0 0 0-.5 1c0 .3.1.5.4.7.3.3.6.4 1 .5a11.7 11.7 0 0 1 2.9.9c.4.1.8.5 1 1a2.8 2.8 0 0 1-.5 3.7 4 4 0 0 1-2.7.9Zm10.7-.2v-10h1.7v1.8a4 4 0 0 1 1.4-1.5c.6-.4 1.3-.5 2-.5 1 0 2 .3 2.6 1 .7.6 1 1.5 1 2.5v6.7H618v-6.4a2.2 2.2 0 0 0-2.3-2.3c-.9 0-1.6.4-2.2 1.2-.6.7-.8 1.8-.8 3v4.5H611Zm20.6-5.5v.8h-8c0 1 .4 1.8 1 2.4a3 3 0 0 0 2.2 1c.8 0 1.5-.2 2-.6.5-.3.8-.8 1-1.4l1.5.4c-.2 1-.7 1.7-1.5 2.2a5 5 0 0 1-3 .9c-1.4 0-2.6-.5-3.5-1.5a5 5 0 0 1-1.4-3.7c0-1.5.5-2.8 1.3-3.7 1-1 2.1-1.5 3.6-1.5a4.6 4.6 0 0 1 4.8 4.7Zm-7.9-.6h6.1a3 3 0 0 0-.9-2 3 3 0 0 0-2.1-.7 3 3 0 0 0-2 .7c-.5.5-1 1.1-1 2Zm19.2.6v.8h-8c0 1 .4 1.8 1 2.4a3 3 0 0 0 2.2 1c.8 0 1.5-.2 2-.6.5-.3.8-.8 1-1.4l1.5.4c-.2 1-.7 1.7-1.5 2.2a5 5 0 0 1-3 .9c-1.4 0-2.6-.5-3.5-1.5a5 5 0 0 1-1.4-3.7c0-1.5.5-2.8 1.3-3.7 1-1 2.1-1.5 3.6-1.5a4.6 4.6 0 0 1 4.8 4.7Zm-7.9-.6h6.1a3 3 0 0 0-.9-2 3 3 0 0 0-2.1-.7 3 3 0 0 0-2 .7c-.5.5-.9 1.1-1 2Zm14.4 6.3c-1.5 0-2.7-.5-3.6-1.5-.8-1-1.3-2.2-1.3-3.7 0-1.6.5-2.8 1.3-3.8.9-1 2-1.4 3.6-1.4.6 0 1.3.1 1.9.4.6.3 1 .7 1.4 1.2v-5.6h1.7V314h-1.7v-1.5a3 3 0 0 1-1.3 1.2c-.6.3-1.3.5-2 .5Zm-2.2-2.6a3 3 0 0 0 2.4 1 3 3 0 0 0 2.3-1c.6-.6 1-1.5 1-2.6s-.4-2-1-2.7a3 3 0 0 0-2.3-1 3 3 0 0 0-2.4 1 4 4 0 0 0-1 2.7c0 1 .4 2 1 2.6Zm19-3.1v.8h-8c.1 1 .4 1.8 1 2.4a3 3 0 0 0 2.3 1 3 3 0 0 0 1.9-.6c.5-.3.8-.8 1-1.4l1.6.4c-.3 1-.8 1.7-1.6 2.2a5 5 0 0 1-3 .9c-1.4 0-2.6-.5-3.5-1.5a5 5 0 0 1-1.4-3.7c0-1.5.5-2.8 1.4-3.7.9-1 2-1.5 3.5-1.5a4.6 4.6 0 0 1 4.8 4.7Zm-7.9-.6h6.1a3 3 0 0 0-.9-2 3 3 0 0 0-2-.7 3 3 0 0 0-2 .7c-.6.5-1 1.1-1.2 2Zm14.4 6.3c-1.5 0-2.7-.5-3.6-1.5-.8-1-1.2-2.2-1.2-3.7 0-1.6.4-2.8 1.2-3.8.9-1 2-1.4 3.6-1.4a4 4 0 0 1 1.9.4c.6.3 1 .7 1.4 1.2v-5.6h1.7V314H676v-1.5c-.2.5-.7.9-1.3 1.2-.6.3-1.3.5-2 .5Zm-2.2-2.6a3 3 0 0 0 2.4 1 3 3 0 0 0 2.4-1c.6-.6.9-1.5.9-2.6s-.3-2-1-2.7a3 3 0 0 0-2.3-1 3 3 0 0 0-2.4 1 4 4 0 0 0-1 2.7c0 1 .4 2 1 2.6Zm-198.1 16.2c1.2 0 2.2.3 3 1 .7.7 1 1.6 1 2.7v6.5h-1.6v-1.7c-.3.6-.7 1-1.4 1.4a4 4 0 0 1-2 .5c-1 0-1.8-.3-2.4-.9-.6-.5-1-1.2-1-2.1 0-2 1.6-3 4.9-3.3l2-.3v-.2a2 2 0 0 0-.8-1.6c-.4-.4-1-.6-1.8-.6-.6 0-1.2.2-1.7.6-.4.3-.7.9-.8 1.6l-1.5-.3c.1-1 .6-1.8 1.3-2.4.8-.6 1.7-1 2.8-1Zm-.7 9a3 3 0 0 0 2.3-1c.5-.5.8-1.3.8-2.4v-.4l-2 .2c-2 .2-3 .9-3 2 0 .4.1.8.5 1.1.4.3.8.5 1.4.5Zm7.6 1.2v-10h1.7v1.8a4 4 0 0 1 1.4-1.5c.6-.4 1.3-.5 2-.5 1 0 2 .3 2.6 1 .7.6 1 1.5 1 2.5v6.7h-1.7v-6.4a2.2 2.2 0 0 0-2.3-2.3c-1 0-1.7.4-2.2 1.2-.6.7-.8 1.8-.8 3v4.5h-1.7Zm11.5 0v-10h1.7v1.8a4 4 0 0 1 1.4-1.5c.6-.4 1.3-.5 2-.5 1 0 2 .3 2.6 1 .7.6 1 1.5 1 2.5v6.7h-1.7v-6.4a2.2 2.2 0 0 0-2.3-2.3c-.9 0-1.6.4-2.2 1.2-.5.7-.8 1.8-.8 3v4.5h-1.7Zm20.2-10v10h-1.7v-1.9c-.4.6-.9 1.1-1.5 1.5a3.8 3.8 0 0 1-4.6-.4c-.7-.7-1-1.5-1-2.6v-6.7h1.7v6.4c0 .7.2 1.2.6 1.7.4.4 1 .6 1.7.6 1 0 1.7-.4 2.2-1.1a5 5 0 0 0 .9-3.2V328h1.7Zm6.5-.2c1.2 0 2.2.3 3 1 .7.7 1.1 1.6 1.1 2.7v6.5H520v-1.7c-.2.6-.7 1-1.3 1.4a4 4 0 0 1-2 .5c-1 0-1.8-.3-2.5-.9-.6-.5-1-1.2-1-2.1 0-2 1.7-3 4.9-3.3l2-.3v-.2a2 2 0 0 0-.7-1.6c-.5-.4-1-.6-1.8-.6-.7 0-1.3.2-1.7.6-.5.3-.7.9-.8 1.6l-1.6-.3a4 4 0 0 1 1.3-2.4c.8-.6 1.7-1 2.8-1Zm-.7 9a3 3 0 0 0 2.3-1c.6-.5.8-1.3.8-2.4v-.4l-2 .2c-2 .2-3 .9-3 2 0 .4.2.8.5 1.1.4.3.9.5 1.4.5Zm7.6 1.2v-14.2h1.7V338h-1.7Zm4.4 0v-14.2h1.7V338h-1.7Zm11.1-10h1.8l-5.3 13.6h-1.7l1.4-3.7-4-10h2l2.9 7.7 3-7.7Z"/>
  <path fill="#377D78" d="M471 392v-10.6c-1 .7-2.1 1.2-3.2 1.4V380a9 9 0 0 0 3.7-2h2.4v14h-3Zm7.8-7.1a3 3 0 0 1-2.4-1c-.6-.6-.9-1.5-.9-2.5 0-1.1.3-2 .9-2.6.6-.6 1.4-1 2.4-1s1.8.4 2.4 1c.6.6.9 1.5.9 2.6 0 1-.3 1.9-1 2.5a3 3 0 0 1-2.3 1ZM477 392l9.3-14h2.3l-9.3 14H477Zm1.8-9c.7 0 1-.6 1-1.6s-.3-1.6-1-1.6-1.1.5-1.1 1.6c0 1 .4 1.5 1.1 1.5Zm8 9.2a3 3 0 0 1-2.3-1c-.6-.6-1-1.5-1-2.6 0-1 .4-1.9 1-2.5.6-.7 1.4-1 2.4-1s1.7.3 2.3 1c.6.6 1 1.5 1 2.5 0 1.1-.4 2-1 2.6a3 3 0 0 1-2.3 1Zm0-2c.4 0 .7-.1.9-.4.2-.3.3-.7.3-1.2a2 2 0 0 0-.3-1.1 1 1 0 0 0-.8-.4c-.8 0-1.2.5-1.2 1.5s.4 1.6 1.2 1.6Z"/>
  <path fill="#70737C" d="M507.7 392h-2.1l-3.9-6.2h-3v6.2h-1.9v-14h5a5 5 0 0 1 3.2 1c.8.8 1.2 1.7 1.2 2.9a3.7 3.7 0 0 1-2.6 3.6l4 6.5Zm-9-12.4v4.5h3c.8 0 1.5-.2 2-.6.4-.4.7-1 .7-1.6a2 2 0 0 0-.7-1.7 3 3 0 0 0-2-.6h-3Zm19.3 6.9v.8h-8a3 3 0 0 0 1 2.4 3 3 0 0 0 2.2 1c.8 0 1.4-.2 1.9-.6.5-.3.8-.8 1-1.4l1.6.4c-.3 1-.8 1.7-1.6 2.2a5 5 0 0 1-3 .9c-1.4 0-2.6-.5-3.5-1.5-.9-1-1.3-2.3-1.3-3.7a5 5 0 0 1 1.3-3.7c.9-1 2-1.5 3.5-1.5a4.6 4.6 0 0 1 4.9 4.7Zm-8-.6h6.2a3 3 0 0 0-1-2 3 3 0 0 0-2-.7 3 3 0 0 0-2 .7c-.6.5-1 1.1-1.1 2Zm13.4 6.3a4.3 4.3 0 0 1-4.2-3l1.5-.6c.4 1.4 1.4 2.1 2.7 2.1.6 0 1.1-.1 1.5-.4.4-.3.6-.7.6-1.1 0-.5-.2-.9-.6-1.1a4 4 0 0 0-1.5-.6 45 45 0 0 1-1.7-.5c-.5-.1-1-.4-1.4-.9-.4-.4-.6-1-.6-1.7 0-.8.3-1.4 1-1.9.6-.5 1.4-.7 2.5-.7 1 0 1.7.2 2.4.7.7.4 1.1 1 1.4 1.7l-1.5.7a2 2 0 0 0-.8-1.3c-.5-.3-1-.4-1.5-.4-.6 0-1 0-1.4.3a1 1 0 0 0-.5 1c0 .3.2.5.4.7.3.3.7.4 1.1.5a11.7 11.7 0 0 1 2.8.9c.5.1.8.5 1.1 1 .3.4.4 1 .4 1.6 0 .8-.3 1.6-1 2.1a4 4 0 0 1-2.7.9Zm5.8-14.4h2v2.2h-2v-2.2Zm0 14.2v-10h1.8v10h-1.7Zm8.8.2c-1.5 0-2.7-.5-3.6-1.5-.8-1-1.2-2.2-1.2-3.7 0-1.6.4-2.8 1.2-3.8.9-1 2-1.4 3.6-1.4.7 0 1.3.1 2 .4.5.3 1 .7 1.3 1.2v-5.6h1.7V392h-1.7v-1.5c-.2.5-.6.9-1.3 1.2-.6.3-1.2.5-2 .5Zm-2.2-2.6a3 3 0 0 0 2.4 1 3 3 0 0 0 2.4-1c.6-.6.9-1.5.9-2.6s-.3-2-1-2.7a3 3 0 0 0-2.3-1 3 3 0 0 0-2.4 1 4 4 0 0 0-.9 2.7c0 1 .3 2 1 2.6Zm19-3.1v.8h-8c.1 1 .5 1.8 1 2.4a3 3 0 0 0 2.3 1c.8 0 1.4-.2 2-.6.4-.3.8-.8.9-1.4l1.6.4c-.3 1-.8 1.7-1.6 2.2a5 5 0 0 1-2.9.9c-1.5 0-2.7-.5-3.6-1.5-.9-1-1.3-2.3-1.3-3.7a5 5 0 0 1 1.3-3.7c.9-1 2-1.5 3.6-1.5a4.6 4.6 0 0 1 4.8 4.7Zm-7.8-.6h6a3 3 0 0 0-.8-2 3 3 0 0 0-2.1-.7 3 3 0 0 0-2 .7c-.6.5-1 1.1-1.1 2Zm10 6.1v-10h1.8v1.8a4 4 0 0 1 1.4-1.5c.6-.4 1.3-.5 2-.5 1 0 2 .3 2.6 1 .7.6 1 1.5 1 2.5v6.7h-1.7v-6.4a2.2 2.2 0 0 0-2.3-2.3c-.9 0-1.7.4-2.2 1.2-.6.7-.8 1.8-.8 3v4.5H557Zm16.6 0-1.6.2a3 3 0 0 1-2.2-.8c-.5-.6-.8-1.4-.8-2.4v-5.6h-1.9V382h2v-3h1.6v3h2.7v1.5h-2.7v5.6c0 .6.2 1 .4 1.2.3.3.6.4 1.1.4.5 0 1 0 1.3-.2v1.5Zm1.8-14.2h2v2.2h-2v-2.2Zm.2 14.2v-10h1.7v10h-1.7Zm8.2-10.2c1.2 0 2.2.3 3 1 .7.7 1.1 1.6 1.1 2.7v6.5h-1.7v-1.7c-.3.6-.7 1-1.3 1.4a4 4 0 0 1-2 .5c-1 0-1.8-.3-2.5-.9-.6-.5-1-1.2-1-2.1 0-2 1.7-3 4.9-3.3l2-.3v-.2a2 2 0 0 0-.7-1.6c-.5-.4-1-.6-1.8-.6-.7 0-1.3.2-1.7.6-.5.3-.8.9-.8 1.6l-1.6-.3c.1-1 .6-1.8 1.3-2.4.8-.6 1.7-1 2.8-1Zm-.7 9a3 3 0 0 0 2.3-1c.6-.5.8-1.3.8-2.4v-.4l-2 .2c-2 .2-3 .9-3 2 0 .4.2.8.5 1.1.4.3.9.5 1.4.5Zm7.6 1.2v-14.2h1.7V392h-1.7ZM471 416l-3.6-10h1.7l2.8 8 2.8-8h1.8l-3.7 10H471Zm10.6-10.2c1.2 0 2.2.3 3 1 .7.7 1.1 1.6 1.1 2.7v6.5H484v-1.7c-.2.6-.7 1-1.3 1.4a4 4 0 0 1-2 .5c-1 0-1.8-.3-2.5-.9-.6-.5-1-1.2-1-2.1 0-2 1.7-3 4.9-3.3l2-.3v-.2a2 2 0 0 0-.7-1.6c-.5-.4-1-.6-1.8-.6-.7 0-1.3.2-1.7.6-.5.3-.7.9-.8 1.6l-1.6-.3a4 4 0 0 1 1.3-2.4c.8-.6 1.7-1 2.8-1Zm-.7 9a3 3 0 0 0 2.3-1c.6-.5.8-1.3.8-2.4v-.4l-2 .2c-2 .2-3 .9-3 2 0 .4.2.8.5 1.1.4.3.9.5 1.4.5Zm12 1.4c-1.5 0-2.7-.5-3.6-1.5-1-1-1.4-2.2-1.4-3.7 0-1.6.5-2.9 1.4-3.8 1-1 2.1-1.4 3.6-1.4 1.2 0 2.2.3 3 .9.8.5 1.2 1.3 1.4 2.3l-1.6.4a3 3 0 0 0-1-1.5c-.4-.4-1-.6-1.8-.6a3 3 0 0 0-2.3 1 4 4 0 0 0-1 2.7c0 1 .4 2 1 2.6a3 3 0 0 0 2.4 1c.7 0 1.3-.1 1.8-.5.4-.4.8-1 .9-1.6l1.6.4c-.2 1-.7 1.8-1.5 2.4-.8.6-1.7.9-2.9.9Zm10.2-10.4c1.3 0 2.3.3 3 1 .8.7 1.2 1.6 1.2 2.7v6.5h-1.7v-1.7c-.3.6-.8 1-1.4 1.4a4 4 0 0 1-2 .5c-1 0-1.8-.3-2.4-.9-.7-.5-1-1.2-1-2.1 0-2 1.6-3 4.8-3.3l2-.3v-.2a2 2 0 0 0-.7-1.6c-.4-.4-1-.6-1.8-.6-.7 0-1.2.2-1.7.6-.4.3-.7.9-.8 1.6l-1.6-.3c.2-1 .6-1.8 1.4-2.4.7-.6 1.7-1 2.7-1Zm-.6 9a3 3 0 0 0 2.3-1c.5-.5.8-1.3.8-2.4v-.4l-2 .2c-2 .2-3 .9-3 2 0 .4.1.8.5 1.1.3.3.8.5 1.4.5Zm7.5 1.2v-10h1.7v1.8c.4-.6.9-1.1 1.5-1.5.6-.4 1.2-.5 2-.5 1 0 2 .3 2.6 1 .7.6 1 1.5 1 2.5v6.7h-1.7v-6.4a2.2 2.2 0 0 0-2.3-2.3c-1 0-1.7.4-2.2 1.2-.6.7-.9 1.8-.9 3v4.5H510Zm16 .2c-1.5 0-2.7-.5-3.6-1.5-1-1-1.4-2.2-1.4-3.7 0-1.6.4-2.9 1.4-3.8.9-1 2-1.4 3.6-1.4 1.1 0 2.1.3 3 .9.7.5 1.2 1.3 1.4 2.3l-1.7.4c0-.6-.4-1.1-.9-1.5-.5-.4-1-.6-1.8-.6a3 3 0 0 0-2.4 1c-.6.7-.8 1.6-.8 2.7 0 1 .3 2 .8 2.6a3 3 0 0 0 2.4 1c.7 0 1.3-.1 1.8-.5s.8-1 1-1.6l1.6.4c-.2 1-.7 1.8-1.5 2.4-.8.6-1.8.9-3 .9Zm12.9-10.3h1.7l-5.3 13.7h-1.7l1.4-3.7-3.9-10h1.8l3 7.7 3-7.7Zm14 1.7c-.3-.2-.7-.3-1.2-.3-.9 0-1.6.5-2.1 1.3-.6.8-.8 2-.8 3.6v3.8h-1.7v-10h1.7v2c.3-.7.7-1.2 1.3-1.6.6-.4 1.2-.6 1.8-.6l1.2.1-.1 1.7Zm5.2-1.8c1.3 0 2.3.3 3 1 .8.7 1.2 1.6 1.2 2.7v6.5h-1.7v-1.7c-.3.6-.8 1-1.4 1.4a4 4 0 0 1-2 .5c-1 0-1.8-.3-2.4-.9-.7-.5-1-1.2-1-2.1 0-2 1.6-3 4.8-3.3l2-.3v-.2a2 2 0 0 0-.7-1.6c-.4-.4-1-.6-1.8-.6-.7 0-1.2.2-1.7.6-.4.3-.7.9-.8 1.6l-1.6-.3c.2-1 .6-1.8 1.4-2.4.7-.6 1.7-1 2.7-1Zm-.6 9a3 3 0 0 0 2.3-1c.5-.5.8-1.3.8-2.4v-.4l-2 .2c-2 .2-3 .9-3 2 0 .4.1.8.5 1.1.3.3.8.5 1.4.5Zm12.8 1.1c-.4.2-1 .3-1.5.3a3 3 0 0 1-2.2-.8c-.6-.6-.8-1.4-.8-2.4v-5.6h-2V406h2v-3h1.7v3h2.7v1.5h-2.7v5.6c0 .6.1 1 .4 1.2.2.3.6.4 1 .4.5 0 1 0 1.3-.2l.1 1.5Zm10.9-5.4v.8h-8c0 1 .4 1.8 1 2.4a3 3 0 0 0 2.2 1c.8 0 1.4-.2 2-.6.4-.3.8-.8.9-1.4l1.6.4c-.2 1-.8 1.7-1.6 2.2a5 5 0 0 1-2.9.9c-1.5 0-2.7-.5-3.6-1.5-.9-1-1.3-2.3-1.3-3.7a5 5 0 0 1 1.3-3.7c.9-1 2-1.5 3.6-1.5a4.6 4.6 0 0 1 4.8 4.7Zm-8-.6h6.2a3 3 0 0 0-1-2 3 3 0 0 0-2-.7 3 3 0 0 0-2 .7c-.6.5-1 1.1-1.1 2Z"/>
  <path fill="#377D78" d="M467.8 470v-2.5l4.8-4c1.4-1.2 2.1-2.2 2.1-3.1 0-.6-.2-1-.5-1.3a2 2 0 0 0-1.4-.6 2 2 0 0 0-1.6.8c-.4.5-.5 1.2-.4 2.1l-3-.2c-.2-1.5.2-2.7 1.2-3.8a5 5 0 0 1 3.8-1.6c1.5 0 2.7.5 3.6 1.3 1 .8 1.5 2 1.5 3.3 0 .9-.3 1.7-.8 2.5-.6.9-1.5 1.7-2.7 2.6l-2.2 1.8h5.7v2.7h-10.1Zm21.8-1.8c-1 1.3-2.5 2-4.3 2-1.8 0-3.2-.7-4.2-2s-1.6-3-1.6-5.2.5-4 1.6-5.2a5 5 0 0 1 4.2-2c1.8 0 3.2.7 4.3 2a8 8 0 0 1 1.6 5.2 8 8 0 0 1-1.6 5.2Zm-6.3-1.9c.5.8 1.1 1.1 2 1.1.9 0 1.5-.3 2-1.1s.7-1.9.7-3.3-.2-2.5-.7-3.3a2.2 2.2 0 0 0-2-1.2c-.9 0-1.5.4-2 1.2-.4.8-.6 1.9-.6 3.3s.2 2.5.6 3.3Zm9.7.8h3v2.9h-3v-3Zm10.7 2.9v-2.7h-6.9v-2.7l6.7-8.6h3.4v8.6h1.7v2.7h-1.7v2.7h-3.2Zm-3.6-5.4h3.6v-4.8l-3.6 4.8Zm12.4-1.7a3 3 0 0 1-2.4-1c-.6-.6-1-1.5-1-2.5 0-1.1.4-2 1-2.6.6-.6 1.4-1 2.4-1s1.7.4 2.3 1c.6.6 1 1.5 1 2.6 0 1-.4 1.9-1 2.5a3 3 0 0 1-2.3 1Zm-1.9 7.1 9.4-14h2.3l-9.4 14h-2.3Zm1.9-9c.7 0 1-.6 1-1.6s-.3-1.6-1-1.6c-.8 0-1.2.5-1.2 1.6 0 1 .4 1.5 1.2 1.5Zm8 9.2c-1 0-1.8-.4-2.4-1-.6-.6-.9-1.5-.9-2.6 0-1 .3-1.9 1-2.5.5-.7 1.3-1 2.3-1 1 0 1.8.3 2.4 1 .6.6.9 1.5.9 2.5 0 1.1-.3 2-1 2.6a3 3 0 0 1-2.3 1Zm0-2c.4 0 .6-.1.8-.4.2-.3.3-.7.3-1.2a2 2 0 0 0-.3-1.1.9.9 0 0 0-.8-.4c-.7 0-1.1.5-1.1 1.5s.4 1.6 1.1 1.6Z"/>
  <path fill="#70737C" d="M534.1 459.8c1.3 0 2.3.3 3 1 .8.7 1.2 1.6 1.2 2.7v6.5h-1.7v-1.7c-.3.6-.8 1-1.4 1.4a4 4 0 0 1-2 .5c-1 0-1.8-.3-2.4-.9-.7-.5-1-1.2-1-2.1 0-2 1.6-3 4.8-3.3l2-.3v-.2a2 2 0 0 0-.7-1.6c-.4-.4-1-.6-1.8-.6-.7 0-1.2.2-1.7.6-.4.3-.7.9-.8 1.6l-1.6-.3c.2-1 .6-1.8 1.4-2.4.7-.6 1.7-1 2.7-1Zm-.6 9a3 3 0 0 0 2.3-1c.5-.5.8-1.3.8-2.4v-.4l-2 .2c-2 .2-3 .9-3 2 0 .4.1.8.5 1.1.3.3.8.5 1.4.5Zm7.5 1.2v-10h1.7v1.8c.4-.6.9-1.1 1.5-1.5.6-.4 1.2-.5 2-.5 1 0 1.9.3 2.6 1 .7.6 1 1.5 1 2.5v6.7H548v-6.4a2.2 2.2 0 0 0-2.3-2.3c-1 0-1.7.4-2.2 1.2-.6.7-.9 1.8-.9 3v4.5H541Zm11.6 0v-10h1.7v1.8a4 4 0 0 1 1.4-1.5c.6-.4 1.3-.5 2-.5 1 0 2 .3 2.6 1 .7.6 1 1.5 1 2.5v6.7h-1.7v-6.4a2.2 2.2 0 0 0-2.3-2.3c-1 0-1.7.4-2.2 1.2-.6.7-.8 1.8-.8 3v4.5h-1.7Zm20.1-10v10H571v-1.9a4 4 0 0 1-3.4 2.1c-1 0-2-.4-2.6-1-.7-.7-1-1.5-1-2.6v-6.7h1.7v6.4c0 .7.2 1.2.6 1.7.4.4 1 .6 1.7.6 1 0 1.7-.4 2.2-1.1.6-.8.8-1.8.8-3.2V460h1.7Zm6.6-.2c1.2 0 2.2.3 3 1 .7.7 1.1 1.6 1.1 2.7v6.5h-1.7v-1.7c-.3.6-.7 1-1.3 1.4a4 4 0 0 1-2 .5c-1 0-1.9-.3-2.5-.9-.6-.5-1-1.2-1-2.1 0-2 1.7-3 4.9-3.3l2-.3v-.2a2 2 0 0 0-.8-1.6c-.4-.4-1-.6-1.7-.6s-1.3.2-1.8.6a2 2 0 0 0-.7 1.6l-1.6-.3c.1-1 .6-1.8 1.3-2.4.8-.6 1.7-1 2.8-1Zm-.7 9a3 3 0 0 0 2.3-1c.6-.5.8-1.3.8-2.4v-.4l-2 .2c-2 .2-3 .9-3 2 0 .4.1.8.5 1.1.4.3.9.5 1.4.5Zm7.6 1.2v-14.2h1.7V470h-1.7Zm9.1-14.2h2v2.2h-2v-2.2Zm.1 14.2v-10h1.7v10h-1.7Zm4.5 0v-10h1.7v1.8a5 5 0 0 1 1.4-1.5c.6-.4 1.3-.5 2-.5 1.1 0 2 .3 2.6 1 .7.6 1 1.5 1 2.5v6.7H607v-6.4c0-.7-.2-1.2-.7-1.6a2 2 0 0 0-1.6-.7c-1 0-1.7.4-2.3 1.2-.5.7-.8 1.8-.8 3v4.5h-1.7Zm16 .2c-1.6 0-2.8-.5-3.7-1.5-.9-1-1.4-2.2-1.4-3.7 0-1.6.5-2.9 1.4-3.8 1-1 2.1-1.4 3.6-1.4 1.2 0 2.2.3 3 .9.8.5 1.3 1.3 1.5 2.3l-1.7.4c-.1-.6-.4-1.1-1-1.5-.4-.4-1-.6-1.7-.6a3 3 0 0 0-2.4 1 4 4 0 0 0-.9 2.7c0 1 .3 2 .9 2.6a3 3 0 0 0 2.4 1c.7 0 1.3-.1 1.8-.5s.8-1 1-1.6l1.6.4c-.2 1-.7 1.8-1.5 2.4-.8.6-1.8.9-3 .9Zm12.4-8.6c-.4-.2-.8-.3-1.3-.3-.9 0-1.6.5-2.1 1.3s-.8 2-.8 3.6v3.8h-1.7v-10h1.7v2c.3-.7.7-1.2 1.3-1.6.6-.4 1.2-.6 1.8-.6l1.2.1-.1 1.7Zm10.4 2.9v.8h-8c0 1 .4 1.8 1 2.4a3 3 0 0 0 2.2 1c.8 0 1.4-.2 2-.6.5-.3.8-.8 1-1.4l1.5.4c-.2 1-.8 1.7-1.6 2.2a5 5 0 0 1-2.9.9c-1.5 0-2.6-.5-3.6-1.5a6 6 0 0 1-1.3-3.7 5 5 0 0 1 1.3-3.7c1-1 2.1-1.5 3.6-1.5a4.6 4.6 0 0 1 4.8 4.7Zm-7.9-.6h6.1a3 3 0 0 0-1-2 3 3 0 0 0-2-.7 3 3 0 0 0-2 .7c-.6.5-1 1.1-1 2Zm13.8-4.1c1.2 0 2.2.3 3 1 .7.7 1.1 1.6 1.1 2.7v6.5H647v-1.7c-.3.6-.7 1-1.3 1.4a4 4 0 0 1-2 .5c-1 0-1.9-.3-2.5-.9-.6-.5-1-1.2-1-2.1 0-2 1.7-3 4.9-3.3l2-.3v-.2a2 2 0 0 0-.8-1.6c-.4-.4-1-.6-1.7-.6s-1.3.2-1.8.6a2 2 0 0 0-.7 1.6l-1.6-.3c.1-1 .6-1.8 1.3-2.4.8-.6 1.7-1 2.8-1Zm-.7 9a3 3 0 0 0 2.3-1c.5-.5.8-1.3.8-2.4v-.4l-2 .2c-2 .2-3 .9-3 2 0 .4.1.8.5 1.1.4.3.8.5 1.4.5Zm11 1.4a4.3 4.3 0 0 1-4.2-3l1.4-.6c.5 1.4 1.4 2.1 2.7 2.1.6 0 1.1-.1 1.5-.4.4-.3.6-.7.6-1.1 0-.5-.2-.9-.6-1.1a4 4 0 0 0-1.5-.6 45 45 0 0 1-1.7-.5c-.5-.1-1-.4-1.4-.9-.4-.4-.6-1-.6-1.7 0-.8.3-1.4 1-1.9.6-.5 1.4-.7 2.5-.7 1 0 1.7.2 2.4.7.7.4 1.1 1 1.4 1.7l-1.5.7a2 2 0 0 0-.8-1.3c-.5-.3-1-.4-1.5-.4-.6 0-1 0-1.4.3a1 1 0 0 0-.5 1c0 .3.2.5.4.7.3.3.7.4 1.1.5a11.7 11.7 0 0 1 2.8.9c.5.1.8.5 1.1 1 .3.4.4 1 .4 1.6 0 .8-.3 1.6-1 2.1a4 4 0 0 1-2.7.9Zm14.8-5.7v.8h-8c0 1 .4 1.8 1 2.4a3 3 0 0 0 2.3 1 3 3 0 0 0 1.9-.6c.5-.3.8-.8 1-1.4l1.6.4c-.3 1-.8 1.7-1.6 2.2a5 5 0 0 1-3 .9c-1.4 0-2.6-.5-3.5-1.5a5 5 0 0 1-1.4-3.7c0-1.5.5-2.8 1.4-3.7.9-1 2-1.5 3.5-1.5a4.6 4.6 0 0 1 4.8 4.7Zm-7.9-.6h6.1a3 3 0 0 0-.9-2 3 3 0 0 0-2-.7 3 3 0 0 0-2 .7c-.6.5-1 1.1-1.2 2Zm14.8-8h2v2.1h-2v-2.2Zm.2 14.1v-10h1.7v10h-1.7Zm4.4 0v-10h1.7v1.8a5 5 0 0 1 1.4-1.5c.6-.4 1.3-.5 2-.5 1.1 0 2 .3 2.6 1 .7.6 1 1.5 1 2.5v6.7h-1.6v-6.4c0-.7-.2-1.2-.7-1.6a2 2 0 0 0-1.6-.7c-1 0-1.7.4-2.3 1.2-.5.7-.8 1.8-.8 3v4.5h-1.7Zm-212.6 24v-10h1.7v1.8a3 3 0 0 1 3-2c.9 0 1.6.1 2.1.5.7.4 1 1 1.2 1.6a3.5 3.5 0 0 1 3.3-2.1c1 0 1.9.3 2.5.9.7.6 1 1.5 1 2.5v6.8h-1.7v-6.4c0-.7-.2-1.3-.6-1.7a2 2 0 0 0-1.6-.6c-.9 0-1.5.3-2 1a5 5 0 0 0-.7 2.6v5.1h-1.7v-6.4c0-.7-.2-1.3-.6-1.7-.3-.4-.9-.6-1.6-.6-.8 0-1.4.3-2 1a5 5 0 0 0-.6 2.6v5.1h-1.7Zm26.7-5.5v.8h-8a3 3 0 0 0 1 2.4 3 3 0 0 0 2.2 1c.8 0 1.4-.2 2-.6.4-.3.7-.8.9-1.4l1.6.4c-.3 1-.8 1.7-1.6 2.2a5 5 0 0 1-3 .9c-1.4 0-2.6-.5-3.5-1.5-.9-1-1.3-2.3-1.3-3.7a5 5 0 0 1 1.3-3.7c.9-1 2-1.5 3.5-1.5a4.6 4.6 0 0 1 4.9 4.7Zm-8-.6h6.2a3 3 0 0 0-1-2 3 3 0 0 0-2-.7 3 3 0 0 0-2 .7c-.6.5-1 1.1-1.1 2Zm14.4 6.3c-1.5 0-2.7-.5-3.5-1.5-.9-1-1.3-2.2-1.3-3.7 0-1.6.4-2.8 1.3-3.8.8-1 2-1.4 3.5-1.4.7 0 1.3.1 2 .4.5.3 1 .7 1.3 1.2v-5.6h1.7V494H505v-1.5c-.2.5-.6.9-1.2 1.2a5 5 0 0 1-2 .5Zm-2.2-2.6a3 3 0 0 0 2.4 1 3 3 0 0 0 2.4-1c.6-.6.9-1.5.9-2.6s-.3-2-1-2.7a3 3 0 0 0-2.3-1 3 3 0 0 0-2.4 1 4 4 0 0 0-.9 2.7c0 1 .3 2 1 2.6Zm9.8-11.8h2v2.2h-2v-2.2Zm.2 14.2v-10h1.7v10h-1.7Zm8.2-10.2c1.2 0 2.2.3 3 1 .7.7 1.1 1.6 1.1 2.7v6.5h-1.7v-1.7c-.3.6-.7 1-1.3 1.4a4 4 0 0 1-2 .5c-1 0-1.8-.3-2.5-.9-.6-.5-1-1.2-1-2.1 0-2 1.7-3 4.9-3.3l2-.3v-.2a2 2 0 0 0-.7-1.6c-.5-.4-1-.6-1.8-.6-.7 0-1.3.2-1.7.6-.5.3-.8.9-.8 1.6l-1.6-.3c.1-1 .6-1.8 1.3-2.4.8-.6 1.7-1 2.8-1Zm-.7 9a3 3 0 0 0 2.3-1c.6-.5.8-1.3.8-2.4v-.4l-2 .2c-2 .2-3 .9-3 2 0 .4.2.8.5 1.1.4.3.9.5 1.4.5Zm7.6 1.2v-10h1.7v1.8a4 4 0 0 1 1.4-1.5c.6-.4 1.3-.5 2-.5 1.1 0 2 .3 2.6 1 .7.6 1 1.5 1 2.5v6.7h-1.7v-6.4a2.2 2.2 0 0 0-2.3-2.3c-.9 0-1.6.4-2.2 1.2-.5.7-.8 1.8-.8 3v4.5h-1.7Zm20-10.2c1.3 0 2.3.3 3 1 .9.7 1.2 1.6 1.2 2.7v6.5h-1.6v-1.7c-.3.6-.8 1-1.4 1.4a4 4 0 0 1-2 .5c-1 0-1.8-.3-2.5-.9-.6-.5-1-1.2-1-2.1 0-2 1.7-3 4.9-3.3l2-.3v-.2a2 2 0 0 0-.7-1.6c-.5-.4-1-.6-1.8-.6-.7 0-1.3.2-1.7.6-.5.3-.7.9-.8 1.6l-1.6-.3c.2-1 .6-1.8 1.4-2.4a4 4 0 0 1 2.7-1Zm-.5 9a3 3 0 0 0 2.2-1c.6-.5.9-1.3.9-2.4v-.4l-2 .2c-2 .2-3.1.9-3.1 2 0 .4.2.8.5 1.1.4.3.9.5 1.5.5Zm7.5 4.8V484h1.7v1.5a3 3 0 0 1 1.3-1.2c.6-.3 1.3-.4 2-.4 1.5 0 2.7.4 3.6 1.4.8 1 1.2 2.2 1.2 3.8 0 1.5-.4 2.7-1.3 3.7-.8 1-2 1.5-3.5 1.5-.7 0-1.3-.2-1.9-.5-.6-.3-1-.6-1.4-1.1v5h-1.7Zm4.8-5a3 3 0 0 0 2.4-1c.6-.6 1-1.5 1-2.6s-.4-2-1-2.7a3 3 0 0 0-2.4-1 3 3 0 0 0-2.4 1c-.5.7-.8 1.6-.8 2.7 0 1 .3 2 .8 2.6a3 3 0 0 0 2.4 1Zm10.9-8.8c1.2 0 2.2.3 3 1 .7.7 1.1 1.6 1.1 2.7v6.5h-1.7v-1.7c-.3.6-.7 1-1.3 1.4a4 4 0 0 1-2 .5c-1 0-1.8-.3-2.5-.9-.6-.5-1-1.2-1-2.1 0-2 1.7-3 4.9-3.3l2-.3v-.2a2 2 0 0 0-.7-1.6c-.5-.4-1-.6-1.8-.6-.7 0-1.3.2-1.7.6-.5.3-.8.9-.8 1.6l-1.6-.3c.1-1 .6-1.8 1.3-2.4.8-.6 1.7-1 2.8-1Zm-.7 9a3 3 0 0 0 2.3-1c.6-.5.8-1.3.8-2.4v-.4l-2 .2c-2 .2-3 .9-3 2 0 .4.2.8.5 1.1.4.3.9.5 1.4.5Zm12.7-7.3-.7-.1c-.8 0-1.5.4-2 1.2a7 7 0 0 0-.7 3.6v3.8h-1.7v-10h1.7v2c.2-.7.6-1.2 1.2-1.6.5-.4 1.1-.6 1.7-.6h.6l-.1 1.7Zm7.8 8.4c-.5.2-1 .3-1.6.3a3 3 0 0 1-2.2-.8c-.5-.6-.8-1.4-.8-2.4v-5.6h-1.9V484h1.9v-3h1.7v3h2.7v1.5h-2.7v5.6c0 .6.1 1 .4 1.2.3.3.6.4 1 .4.6 0 1 0 1.3-.2l.2 1.5Zm2 .1v-10h1.6v1.8a3 3 0 0 1 3-2c1 0 1.6.1 2.2.5.6.4 1 1 1.2 1.6a3.5 3.5 0 0 1 3.2-2.1c1.1 0 2 .3 2.6.9.6.6 1 1.5 1 2.5v6.8H602v-6.4c0-.7-.2-1.3-.5-1.7a2 2 0 0 0-1.7-.6c-.8 0-1.5.3-2 1a5 5 0 0 0-.6 2.6v5.1h-1.7v-6.4c0-.7-.2-1.3-.6-1.7-.4-.4-1-.6-1.6-.6-.8 0-1.5.3-2 1a5 5 0 0 0-.7 2.6v5.1H589Zm26.6-5.5v.8h-8c0 1 .4 1.8 1 2.4a3 3 0 0 0 2.2 1c.8 0 1.5-.2 2-.6.5-.3.8-.8 1-1.4l1.5.4c-.2 1-.7 1.7-1.5 2.2a5 5 0 0 1-3 .9c-1.4 0-2.6-.5-3.5-1.5a5 5 0 0 1-1.4-3.7c0-1.5.5-2.8 1.3-3.7 1-1 2.1-1.5 3.6-1.5a4.6 4.6 0 0 1 4.8 4.7Zm-7.9-.6h6.1a3 3 0 0 0-.9-2 3 3 0 0 0-2.1-.7 3 3 0 0 0-2 .7c-.5.5-1 1.1-1 2ZM618 494v-10h1.7v1.8a5 5 0 0 1 1.4-1.5c.6-.4 1.3-.5 2-.5 1.1 0 2 .3 2.6 1 .7.6 1 1.5 1 2.5v6.7H625v-6.4c0-.7-.2-1.2-.7-1.6a2 2 0 0 0-1.6-.7c-1 0-1.7.4-2.3 1.2-.5.7-.8 1.8-.8 3v4.5H618Zm16.5 0-1.6.2a3 3 0 0 1-2.1-.8c-.6-.6-.8-1.4-.8-2.4v-5.6h-2V484h2v-3h1.7v3h2.7v1.5h-2.7v5.6c0 .6 0 1 .4 1.2.2.3.6.4 1 .4.5 0 1 0 1.3-.2l.1 1.5Zm6.8 3.6V484h1.7v1.5a3 3 0 0 1 1.3-1.2c.7-.3 1.3-.4 2-.4 1.6 0 2.7.4 3.6 1.4.8 1 1.3 2.2 1.3 3.8 0 1.5-.5 2.7-1.3 3.7-.9 1-2 1.5-3.6 1.5-.6 0-1.3-.2-1.9-.5-.6-.3-1-.6-1.4-1.1v5h-1.7Zm4.8-5a3 3 0 0 0 2.4-1c.6-.6 1-1.5 1-2.6s-.4-2-1-2.7a3 3 0 0 0-2.4-1 3 3 0 0 0-2.3 1 4 4 0 0 0-1 2.7c0 1 .4 2 1 2.6a3 3 0 0 0 2.3 1Zm13.1-7c-.3-.2-.8-.3-1.3-.3-.8 0-1.5.5-2 1.3-.6.8-.9 2-.9 3.6v3.8h-1.7v-10h1.7v2c.3-.7.8-1.2 1.4-1.6a3 3 0 0 1 1.8-.6l1.1.1v1.7Zm1.7-5.8h2v2.2h-2v-2.2Zm.1 14.2v-10h1.7v10H661Zm8.9.2a5 5 0 0 1-3.7-1.5c-.9-1-1.3-2.2-1.3-3.7 0-1.6.4-2.9 1.3-3.8 1-1 2.2-1.4 3.7-1.4 1.1 0 2.1.3 3 .9.7.5 1.2 1.3 1.4 2.3l-1.7.4c-.1-.6-.4-1.1-.9-1.5-.5-.4-1-.6-1.8-.6a3 3 0 0 0-2.4 1 4 4 0 0 0-.9 2.7c0 1 .3 2 1 2.6a3 3 0 0 0 2.3 1c.7 0 1.3-.1 1.8-.5s.8-1 1-1.6l1.6.4c-.2 1-.7 1.8-1.5 2.4-.8.6-1.8.9-3 .9Zm15.6-5.7v.8h-8c.1 1 .4 1.8 1 2.4a3 3 0 0 0 2.3 1 3 3 0 0 0 1.9-.6c.5-.3.8-.8 1-1.4l1.6.4c-.3 1-.8 1.7-1.6 2.2a5 5 0 0 1-3 .9c-1.4 0-2.6-.5-3.5-1.5a5 5 0 0 1-1.4-3.7c0-1.5.5-2.8 1.4-3.7.9-1 2-1.5 3.5-1.5a4.6 4.6 0 0 1 4.8 4.7Zm-7.9-.6h6.1a3 3 0 0 0-.9-2 3 3 0 0 0-2-.7 3 3 0 0 0-2 .7c-.6.5-1 1.1-1.2 2Zm13.4 6.3a4.3 4.3 0 0 1-4.2-3l1.5-.6c.4 1.4 1.3 2.1 2.7 2.1.6 0 1.1-.1 1.5-.4.4-.3.6-.7.6-1.1 0-.5-.2-.9-.6-1.1a4 4 0 0 0-1.5-.6l-1.7-.5c-.6-.1-1-.4-1.4-.9-.4-.4-.6-1-.6-1.7 0-.8.3-1.4 1-1.9.6-.5 1.4-.7 2.5-.7a4 4 0 0 1 2.4.7c.7.4 1.1 1 1.3 1.7l-1.4.7a2 2 0 0 0-.9-1.3c-.4-.3-.9-.4-1.4-.4-.6 0-1 0-1.4.3a1 1 0 0 0-.5 1c0 .3.1.5.4.7.3.3.7.4 1 .5a11.7 11.7 0 0 1 3 .9c.3.1.7.5 1 1 .3.4.4 1 .4 1.6 0 .8-.3 1.6-1 2.1a4 4 0 0 1-2.7.9Z"/>
  <path fill="#3C3C3B" d="M248.4 145.5v-25.2h5l10.7 17.5v-17.5h4.6v25.2h-5L253 128v17.5h-4.6Zm33.4.3a10 10 0 0 1-6.5-2.2 8.7 8.7 0 0 1-3.2-5.7l4.3-1.4c.2 1.5.8 2.7 1.9 3.7a5 5 0 0 0 3.7 1.4 5 5 0 0 0 3.1-.9c.8-.5 1.2-1.3 1.2-2.3 0-.8-.3-1.5-1-2a6 6 0 0 0-2.4-1.3 110.6 110.6 0 0 1-6.5-2.3c-1-.5-1.8-1.2-2.5-2.2a7 7 0 0 1-1-3.7 6 6 0 0 1 2.6-5c1.6-1.2 3.7-1.9 6.2-1.9 2.4 0 4.5.6 6.2 1.8a7.2 7.2 0 0 1 3.2 4.6l-4.4 1.8a4.9 4.9 0 0 0-5-4c-1.2 0-2.1.2-2.8.7-.7.5-1 1.2-1 2 0 .6.2 1.1.7 1.5.5.4 1.1.8 1.9 1l2.6.7a19 19 0 0 1 5.5 2.3c.8.5 1.5 1.3 2 2.3a8 8 0 0 1 .7 3.6c0 2.3-.9 4-2.6 5.4-1.8 1.4-4 2-7 2Zm18.3-.3-7.4-25.2h5l5 19.4 4.9-19.4h5.5l5 19.4 4.8-19.4h5l-7.2 25.2h-5.2l-5.1-18.5-5.2 18.5H300Z"/>
  <path fill="#377D78" d="M377.7 96v29H365l.3 47H445v-68.8h-29v36.2h-9.2V96h-29Zm3.7 3.6h21.8v39.8h-9L394 125h-12.8V99.6Zm5.4 3.6v3.7h3.7v-3.7h-3.7Zm7.4 0v3.7h3.5v-3.7h-3.5Zm25.3 3.7h21.9v61.5h-9.2V161h-3.6v7.3h-9v-61.5Zm-32.7 3.6v3.6h3.7v-3.6h-3.7Zm7.3 0v3.6h3.6v-3.6h-3.6Zm30.9 0v3.6h3.6v-3.6H425Zm7.3 0v3.6h3.6v-3.6h-3.6Zm-7.3 7.2v3.6h3.6v-3.6H425Zm7.3 0v3.6h3.6v-3.6h-3.6ZM425 125v3.6h3.6V125H425Zm7.3 0v3.6h3.6V125h-3.6Zm-63.6 3.6h21.8v39.8h-9.2V161h-3.5v7.3h-9l-.1-39.8Zm5.4 3.6v3.6h3.7v-3.6h-3.7Zm7.3 0v3.6h3.6v-3.6h-3.6Zm43.6 0v3.6h3.6v-3.6H425Zm7.3 0v3.6h3.6v-3.6h-3.6Zm-58.2 7.2v3.6h3.7v-3.6h-3.7Zm7.3 0v3.6h3.6v-3.6h-3.6Zm43.6 0v3.7h3.6v-3.7H425Zm7.3 0v3.7h3.6v-3.7h-3.6Zm-38.2 3.6H416v25.4h-9V161h-3.7v7.3h-9V143Zm-20 3.7v3.6h3.7v-3.6h-3.7Zm7.3 0v3.6h3.6v-3.6h-3.6Zm18.2 0v3.6h3.6v-3.6h-3.6Zm7.2 0v3.6h3.7v-3.6h-3.7Zm18.2 0v3.6h3.6v-3.6H425Zm7.3 0v3.6h3.6v-3.6h-3.6Zm-32.7 7.2v3.6h3.6V154h-3.6Zm7.2 0v3.6h3.7V154h-3.7Zm18.2 0v3.6h3.6V154H425Zm7.3 0v3.6h3.6V154h-3.6Z"/>
  <path fill="#3C3C3B" d="M507.8 132.9c0 3.6-1.1 6.6-3.4 9l3 3.1-3.1 2.7-3.1-3.4c-1.8 1-3.9 1.5-6.2 1.5-3.7 0-6.7-1.2-9.1-3.6a12.7 12.7 0 0 1-3.6-9.3A12.4 12.4 0 0 1 495 120a12 12 0 0 1 9 3.7c2.5 2.4 3.7 5.5 3.7 9.2Zm-12.8 8.6c1.1 0 2.1-.2 3-.5l-4.3-4.8 3.1-2.7 4.4 4.9a9.4 9.4 0 0 0 1.7-5.5 9 9 0 0 0-2.2-6.2 7.2 7.2 0 0 0-5.7-2.5c-2.2 0-4.1.9-5.6 2.5a9 9 0 0 0-2.2 6.2 9 9 0 0 0 2.2 6.2 7.3 7.3 0 0 0 5.6 2.4Zm16.5 4v-25.2h4.9v21h11.7v4.2h-16.6Zm19.4 0v-25.2h8.3c3.6 0 6.7 1 9.2 3.3a12 12 0 0 1 3.7 9.3c0 4-1.3 7.1-3.7 9.3a13.3 13.3 0 0 1-9.2 3.3h-8.3Zm4.8-4.2h3a9 9 0 0 0 6-2c1.6-1.4 2.4-3.5 2.4-6.4 0-2.9-.8-5-2.4-6.3a8.8 8.8 0 0 0-6-2h-3v16.7Z"/>
  <rect width="286" height="52" x="257" fill="#B8A9A4" rx="26"/>
  <path fill="#fff" d="M308 34V17.8l-7.2 9.7h-.8l-7.2-9.8V34h-4.2V11.6h4.9l7 9.7 7-9.7h4.8V34h-4.2Zm20.7-13.6.1-2.2h3.8V34h-3.7l-.2-2.3c-.9 1.9-3.4 2.7-5.1 2.8-4.7 0-8.2-2.9-8.2-8.4 0-5.4 3.7-8.3 8.3-8.3 2 0 4.1 1 5 2.6Zm-4.7 1c-2.6 0-4.6 1.7-4.6 4.7s2 4.8 4.6 4.8c6.2 0 6.2-9.6 0-9.6Zm11.9-3.2h3.6l.3 1.8c1.2-1.9 2.8-2.2 4.4-2.2a6 6 0 0 1 4 1.5l-1.7 3.4c-.8-.7-1.5-1-2.8-1-2 0-4 1-4 4V34H336V18.2Zm13.8-6.6h3.9v13l5.3-6.4h4.6v.2l-6.4 7.2 7.3 8.1v.3h-4.7l-6.1-7.1V34h-4V11.6Zm32.2 15.9h-12.4c.3 2 2 3.4 4.8 3.4 1.4 0 3.3-.6 4.2-1.5l2.5 2.5a9.7 9.7 0 0 1-6.8 2.5c-5.5 0-8.7-3.3-8.7-8.4 0-4.8 3.3-8.3 8.4-8.3 5.3 0 8.6 3.3 8 9.8Zm-12.3-3.2h8.5c-.2-2-1.8-3.1-4-3.1s-4 1-4.5 3Zm16.2-10.1 3.9-.4v4.5h4.3v3.3h-4.3v6.8c0 1.5.8 2.3 2 2.3.6 0 1.3-.2 1.9-.5l1 3.3c-1 .5-2 .7-3.2.7-3.4.1-5.6-1.8-5.6-5.8v-6.8h-3v-3.3h3v-4.1Zm26.4-2.6c7.7 0 11.1 5.5 11.2 11 .1 5.7-3.3 11.4-11.2 11.4h-8.8V11.6h8.8Zm-4.6 4v14.3h4.6c5.1 0 7.1-3.7 7-7.3 0-3.5-2.1-7-7-7h-4.6Zm18.3 2.6h3.7l.2 1.8c1.3-1.9 2.9-2.2 4.5-2.2a6 6 0 0 1 4 1.5l-1.7 3.4c-.8-.7-1.5-1-2.8-1-2 0-4 1-4 4V34H426V18.2Zm17.8 0V34h-3.9V18.2h4Zm-4.2-4.4c0 3 4.6 3 4.6 0s-4.6-3-4.6 0Zm19.8 4.4h4.3L456.9 34h-4.2l-6.8-16h4.3l2.1 5.3 2.5 6.7 2.4-6.6 2.1-5.3Zm21.8 9.3h-12.3c.3 2 2 3.4 4.7 3.4 1.5 0 3.4-.6 4.3-1.5l2.5 2.5a9.7 9.7 0 0 1-6.8 2.5c-5.5 0-8.7-3.3-8.7-8.4 0-4.8 3.3-8.3 8.4-8.3 5.3 0 8.6 3.3 8 9.8ZM469 24.3h8.5c-.3-2-1.9-3.1-4-3.1-2.2 0-4 1-4.5 3Zm15.3-6h3.6l.3 1.7c1.2-1.9 2.8-2.2 4.4-2.2a6 6 0 0 1 4 1.5l-1.7 3.4c-.8-.7-1.5-1-2.8-1-2 0-4 1-4 4V34h-3.8V18.2Zm26.3 1.6-2.2 2.5a5.3 5.3 0 0 0-3.9-1.4c-1.8 0-2.8.6-2.8 1.6s.9 1.6 2.9 1.7c3 .2 6.7.9 6.7 5 0 2.8-2.2 5.2-6.7 5.2-2.5 0-5-.4-7.3-2.8L499 29a8.7 8.7 0 0 0 5.4 2.3c1.5 0 2.9-.8 2.9-2 0-1-1-1.5-3.2-1.6-3-.2-6.5-1.3-6.5-4.9 0-3.6 3.8-5 6.7-5 2.4 0 4.3.6 6.1 2.2Z"/>
</svg>
