<svg xmlns="http://www.w3.org/2000/svg" width="801" height="500" fill="none" viewBox="0 0 801 500">
  <path fill="#fff" d="M0 0h800v500H0z"/>
  <path fill="url(#a)" d="M0 138h164v204H0z"/>
  <path fill="url(#b)" d="M104 138h565v204H104z"/>
  <path fill="url(#c)" d="M164 138h303v204H164z"/>
  <path fill="url(#d)" d="M609 138h191v204H609z"/>
  <path fill="url(#e)" d="M0 265h800v77H0z"/>
  <rect width="373" height="52" x="230" fill="#377D78" rx="26"/>
  <path fill="#fff" d="m279.4 34-2-4.2h-11.6l-2 4.2h-4.5l10-22.4h4.6L284 34h-4.5Zm-3.6-8.2-4.2-9.5-4.1 9.5h8.3Zm20.4 3.6 2.6 2.6a8.1 8.1 0 0 1-6.1 2.5c-4.6 0-8.4-2.8-8.4-8.4 0-5.6 3.8-8.3 8.4-8.3 2.2 0 4 .6 5.7 2.3l-2.5 2.6c-.9-.8-2-1.2-3.1-1.2a4.4 4.4 0 0 0-4.6 4.6c0 3 2 4.6 4.5 4.6 1.3 0 2.5-.3 3.5-1.3Zm12.5 1.2c2.7 0 4.5-2 4.5-4.5 0-2.4-1.6-4.5-4.5-4.5-2.8 0-4.4 2-4.4 4.5s1.8 4.5 4.4 4.5Zm8.8 10h-4V32c-1 1.8-3.5 2.3-5.2 2.3-5 0-8-3.7-8-8.3a8 8 0 0 1 8.2-8.2c1.7 0 3.9.7 5 2.5l.3-2.2h3.7v22.4Zm3.2-22.4h3.9v8.3c0 2.4 1.3 4.2 3.8 4.2 2.4 0 4-2 4-4.4v-8h4V34h-3.6l-.2-2.1a7 7 0 0 1-5.4 2.4c-3.8 0-6.5-2.9-6.5-7.8v-8.3Zm23 0V34h-4V18.2h4Zm-4.3-4.4c0 3 4.6 3 4.6 0s-4.6-3-4.6 0Zm20.3 6-2.2 2.6a5.3 5.3 0 0 0-4-1.4c-1.8 0-2.8.6-2.8 1.6s1 1.6 3 1.7c3 .2 6.7.9 6.7 5 0 2.8-2.3 5.2-6.8 5.2-2.5 0-5-.4-7.3-2.8l2-2.8a8.7 8.7 0 0 0 5.4 2.3c1.5 0 2.8-.8 2.8-2 0-1-.9-1.5-3.1-1.6-3-.2-6.5-1.3-6.5-4.9 0-3.6 3.7-5 6.6-5 2.5 0 4.3.6 6.2 2.2Zm7.1-1.6V34H363V18.2h4Zm-4.2-4.4c0 3 4.6 3 4.6 0s-4.6-3-4.6 0Zm9.3.4 4-.4v4.5h4.3v3.3h-4.4v6.8c0 1.5.8 2.3 2 2.3.7 0 1.4-.2 2-.5l1 3.3c-1 .5-2 .7-3.2.7-3.4.1-5.7-1.8-5.7-5.8v-6.8H369v-3.3h3v-4.1Zm15.1 4V34h-3.9V18.2h4Zm-4.2-4.4c0 3 4.6 3 4.6 0s-4.6-3-4.6 0Zm15.5 4.1a8 8 0 0 1 8.3 8.2c0 4.6-3.1 8.3-8.2 8.3-5.2 0-8.2-3.7-8.2-8.3 0-4.5 3.1-8.2 8.1-8.2Zm0 3.6c-2.8 0-4.2 2.3-4.2 4.6 0 2.4 1.4 4.7 4.3 4.7 2.8 0 4.2-2.3 4.2-4.7 0-2.3-1.6-4.6-4.2-4.6ZM424.9 34H421v-8.3c0-2.4-1.3-4.2-3.8-4.2-2.4 0-4 2-4 4.4V34h-4V18.2h3.6l.2 2.1a7.1 7.1 0 0 1 5.2-2.3c3.7 0 6.7 2.8 6.7 7.7V34Zm27-5.7 2.9 2.9a11.8 11.8 0 0 1-8.6 3.3c-8.3 0-11.8-5.7-11.8-11.5 0-5.9 3.7-11.8 11.8-11.8 3 0 6 1.1 8.3 3.4l-2.8 2.7a7.7 7.7 0 0 0-5.5-2.1c-5.4 0-7.7 4-7.7 7.8 0 3.7 2.2 7.5 7.7 7.5 2 0 4.2-.8 5.7-2.2Zm4.6-16.7h4v8.8a5.8 5.8 0 0 1 4.9-2.4c4.4 0 6.4 3 6.4 7.7V34h-3.9v-8.3c0-2.9-1.5-4-3.6-4-2.3 0-3.9 1.9-3.9 4.2V34h-3.9V11.6Zm31 8.8.1-2.2h3.8V34h-3.7l-.2-2.3c-.9 1.9-3.3 2.7-5.1 2.8-4.7 0-8.1-2.9-8.1-8.4 0-5.4 3.6-8.3 8.2-8.3 2.1 0 4.1 1 5 2.6Zm-4.7 1c-2.6 0-4.6 1.7-4.6 4.7s2 4.8 4.6 4.8c6.2 0 6.2-9.6 0-9.6ZM510.1 34h-3.9v-8.3c0-2.4-1.3-4.2-3.8-4.2-2.4 0-4 2-4 4.4V34h-3.9V18.2h3.5l.2 2.1a7.1 7.1 0 0 1 5.2-2.3c3.7 0 6.7 2.8 6.7 7.7V34Zm18.9 0h-4v-8.3c0-2.4-1.2-4.2-3.7-4.2-2.4 0-4 2-4 4.4V34h-4V18.2h3.6l.2 2.1a7.1 7.1 0 0 1 5.2-2.3c3.7 0 6.7 2.8 6.7 7.7V34Zm19-6.5h-12.3c.2 2 2 3.4 4.7 3.4 1.4 0 3.3-.6 4.2-1.5l2.5 2.5a9.7 9.7 0 0 1-6.8 2.5c-5.4 0-8.7-3.3-8.7-8.4 0-4.8 3.3-8.3 8.4-8.3 5.3 0 8.6 3.3 8 9.8Zm-12.3-3.2h8.5c-.2-2-1.8-3.1-4-3.1s-3.9 1-4.5 3ZM551 11.6h3.9V34H551V11.6Zm19.8 8.3-2.2 2.5a5.3 5.3 0 0 0-4-1.4c-1.8 0-2.8.6-2.8 1.6s1 1.6 3 1.7c3 .2 6.7.9 6.7 5 0 2.8-2.3 5.2-6.8 5.2-2.5 0-5-.4-7.3-2.8l2-2.8a8.7 8.7 0 0 0 5.4 2.3c1.4 0 2.8-.8 2.8-2 0-1-.9-1.5-3.1-1.6-3-.2-6.5-1.3-6.5-4.9 0-3.6 3.7-5 6.6-5 2.5 0 4.3.6 6.2 2.2ZM59.6 183.1c-1.6 0-3-.5-4-1.6-1.2-1-1.7-2.4-1.7-4.1 0-1.7.5-3 1.6-4.1a6 6 0 0 1 4.1-1.6 5.6 5.6 0 0 1 5.7 5.7 5.6 5.6 0 0 1-5.7 5.7Zm-2.3-3.2a3 3 0 0 0 2.3 1 3 3 0 0 0 2.3-1c.6-.6 1-1.5 1-2.5s-.4-1.9-1-2.5a3 3 0 0 0-2.3-1 3 3 0 0 0-2.3 1c-.6.6-.9 1.5-.9 2.5s.3 1.9.9 2.5Zm9.6 3.1v-11.2h2.5l4.4 7.2v-7.2H76V183h-2.5l-4.4-7.2v7.2H67Zm16.3.1c-1.6 0-2.9-.5-4-1.5-1-1-1.6-2.4-1.6-4.2a5.4 5.4 0 0 1 5.8-5.7c1.4 0 2.5.3 3.4 1a4 4 0 0 1 1.7 2.8l-2.5.5c-.1-.7-.4-1.2-1-1.6-.4-.4-1-.6-1.7-.6a3 3 0 0 0-2.3 1c-.5.6-.8 1.5-.8 2.6s.3 2 .8 2.6a3 3 0 0 0 2.3 1 3 3 0 0 0 1.8-.6c.5-.4.8-.9.9-1.5h-3v-2h5.3v6.1H86v-1.2c-.2.4-.6.7-1.1 1a4 4 0 0 1-1.7.3Zm12.3 0c-1.6 0-3-.5-4.1-1.6a5.3 5.3 0 0 1-1.6-4.1c0-1.7.5-3 1.6-4.1 1-1 2.5-1.6 4.1-1.6a5.6 5.6 0 0 1 5.7 5.7 5.6 5.6 0 0 1-5.7 5.7Zm-2.3-3.2a3 3 0 0 0 2.3 1 3 3 0 0 0 2.3-1c.6-.6 1-1.5 1-2.5s-.4-1.9-1-2.5a3 3 0 0 0-2.3-1 3 3 0 0 0-2.3 1c-.6.6-1 1.5-1 2.5s.4 1.9 1 2.5Zm9.6 3.1v-11.2h2.5V183h-2.5Zm4.5 0v-11.2h2.5l4.4 7.2v-7.2h2.3V183H114l-4.3-7.2v7.2h-2.4Zm16.3.1c-1.5 0-2.9-.5-4-1.5-1-1-1.5-2.4-1.5-4.2a5.4 5.4 0 0 1 5.7-5.7c1.4 0 2.5.3 3.4 1a4 4 0 0 1 1.7 2.8l-2.5.5c0-.7-.4-1.2-.9-1.6-.5-.4-1-.6-1.8-.6a3 3 0 0 0-2.2 1c-.6.6-1 1.5-1 2.6s.4 2 1 2.6a3 3 0 0 0 2.2 1 3 3 0 0 0 1.9-.6c.4-.4.7-.9.8-1.5h-3v-2h5.3v6.1h-2.3v-1.2c-.2.4-.6.7-1.1 1a4 4 0 0 1-1.7.3Zm173.6-.1v-11.2h2.5l4.3 7.2v-7.2h2.4V183h-2.5l-4.4-7.2v7.2h-2.3Zm16.5.1c-1.7 0-3-.5-4.1-1.6a5.3 5.3 0 0 1-1.7-4.1c0-1.7.6-3 1.7-4.1 1-1 2.4-1.6 4-1.6 1.7 0 3.1.5 4.2 1.6 1 1 1.6 2.5 1.6 4.1a5.6 5.6 0 0 1-5.7 5.7Zm-2.3-3.2a3 3 0 0 0 2.3 1 3 3 0 0 0 2.3-1c.6-.6.9-1.5.9-2.5s-.3-1.9-1-2.5a3 3 0 0 0-2.2-1 3 3 0 0 0-2.3 1c-.6.6-1 1.5-1 2.5s.4 1.9 1 2.5Zm11.5 3.1-3.1-11.2h2.5l2 8.2 1.9-8.2h3l1.9 8.1 1.9-8.1h2.6l-3.1 11.2h-2.7l-2.1-7.8-2.1 7.8h-2.7Zm212.5 0v-11.2h4.6c1.2 0 2 .3 2.8 1 .7.6 1 1.4 1 2.5 0 1-.3 2-1 2.6a4 4 0 0 1-2.8 1h-2.1v4.1h-2.5Zm2.5-6.4h1.8c.5 0 .9 0 1.2-.3.2-.2.4-.6.4-1s-.2-.7-.4-1c-.3-.2-.7-.3-1.2-.3H538v2.6Zm7.2 6.4v-11.2h2.5V183h-2.5Zm4.5 0v-11.2h4.7c1.2 0 2 .3 2.8 1 .6.6 1 1.4 1 2.5 0 1-.4 2-1 2.6a4 4 0 0 1-2.8 1h-2.1v4.1h-2.6Zm2.6-6.4h1.8c.5 0 .9 0 1.2-.3.2-.2.4-.6.4-1s-.2-.7-.4-1c-.3-.2-.7-.3-1.2-.3h-1.8v2.6Zm7.2 6.4v-11.2h7.7v2.2h-5.2v2h4.1v2.2h-4v2.6h5.3v2.2h-8Zm9.4 0v-11.2h2.5v9h5v2.2h-7.5Zm8.7 0v-11.2h2.5V183h-2.5Zm4.6 0v-11.2h2.5l4.3 7.2v-7.2h2.4V183h-2.5l-4.4-7.2v7.2h-2.3Zm11.2 0v-11.2h7.7v2.2h-5.2v2h4.1v2.2h-4v2.6h5.3v2.2h-8Zm122.3 0v-2l3.9-3.2c1.1-1 1.7-1.8 1.7-2.5 0-.4-.2-.8-.5-1-.3-.3-.6-.5-1.1-.5-.5 0-1 .2-1.3.7-.2.4-.4 1-.3 1.6l-2.4-.1c-.1-1.2.2-2.2 1-3a4 4 0 0 1 3-1.3c1.2 0 2.2.3 3 1 .7.7 1 1.5 1 2.6a3 3 0 0 1-.6 2c-.4.7-1.1 1.4-2 2.1l-1.9 1.4h4.6v2.2h-8.1Zm17.4-1.4c-.8 1-2 1.5-3.4 1.5s-2.5-.5-3.4-1.5c-.8-1-1.2-2.5-1.2-4.2a7 7 0 0 1 1.2-4.2c.9-1 2-1.5 3.4-1.5a4 4 0 0 1 3.4 1.5c.9 1 1.3 2.5 1.3 4.2 0 1.7-.4 3.1-1.3 4.2Zm-5-1.6c.4.6 1 1 1.6 1 .7 0 1.3-.4 1.6-1 .4-.6.6-1.5.6-2.6s-.2-2-.6-2.6c-.3-.7-.9-1-1.6-1-.7 0-1.2.3-1.5 1-.4.6-.6 1.5-.6 2.6s.2 2 .6 2.6Zm7.3 3v-2l3.9-3.2c1-1 1.6-1.8 1.6-2.5 0-.4-.1-.8-.4-1-.3-.3-.6-.5-1.1-.5-.6 0-1 .2-1.3.7-.3.4-.4 1-.3 1.6l-2.4-.1c-.1-1.2.2-2.2 1-3a4 4 0 0 1 3-1.3c1.2 0 2.2.3 3 1 .7.7 1 1.5 1 2.6a3 3 0 0 1-.6 2c-.4.7-1.1 1.4-2 2.1l-1.9 1.4h4.6v2.2h-8.1Zm13.2-3.6c-1.1 0-2-.4-2.8-1.1a3.7 3.7 0 0 1-1-2.8c0-1 .3-2 1.1-2.7.9-.8 1.9-1.1 3.2-1.1 1.2 0 2.3.5 3 1.5 1 1 1.3 2.2 1.3 3.8 0 1-.1 1.9-.4 2.7-.3.8-.7 1.4-1.2 2a5.2 5.2 0 0 1-3.7 1.4 5 5 0 0 1-3.4-1.2l1.1-1.8c.7.6 1.4.9 2.2.9a3 3 0 0 0 2-.8 3 3 0 0 0 1-2c-.5.8-1.3 1.2-2.4 1.2Zm.4-5.6c-.5 0-1 .2-1.3.6-.3.3-.5.7-.5 1.3 0 .5.1 1 .5 1.3.3.3.8.5 1.3.5s1-.2 1.3-.5c.3-.4.5-.8.5-1.3a1.8 1.8 0 0 0-1.8-1.9Z"/>
  <path fill="#fff" fill-opacity=".2" d="M0 214h800v51H0z"/>
  <path stroke="#000" d="M72.5 240v103"/>
  <circle cx="73" cy="239" r="12" fill="#fff" stroke="#377D78" stroke-width="4"/>
  <circle cx="73" cy="239" r="4" fill="#0B0000"/>
  <circle cx="72.5" cy="342.5" r="2.5" fill="#000"/>
  <path fill="#414042" d="M18.5 374.1c-1.5 0-2.8-.5-3.9-1.5-1-1-1.5-2.4-1.5-4.2 0-1.8.5-3.2 1.5-4.2 1.1-1 2.4-1.5 3.9-1.5a5 5 0 0 1 3 1c1 .6 1.5 1.4 1.7 2.5l-1.4.3c-.2-.8-.6-1.4-1.2-1.9-.5-.4-1.2-.6-2.1-.6-1.2 0-2.1.4-2.9 1.1-.7.8-1 1.9-1 3.3s.3 2.5 1 3.3c.8.7 1.7 1.1 2.9 1.1.9 0 1.6-.2 2.1-.6.6-.5 1-1 1.2-1.8l1.4.3c-.3 1-.8 1.9-1.7 2.5a5 5 0 0 1-3 1Zm13.4-8.2v8.1h-1.4v-1.5c-.2.5-.6.9-1.1 1.2a3 3 0 0 1-1.6.4c-.9 0-1.6-.2-2.1-.8-.5-.5-.8-1.2-.8-2v-5.4h1.4v5.1c0 .6.1 1 .5 1.4.3.3.7.5 1.3.5a2 2 0 0 0 1.8-1c.4-.5.6-1.4.6-2.4v-3.6H32Zm7 1.4c-.4-.2-.7-.2-1.1-.2-.7 0-1.2.3-1.7 1-.4.6-.6 1.6-.6 2.8v3.1H34v-8h1.4v1.6c.2-.5.6-1 1-1.3a3 3 0 0 1 1.5-.5c.3 0 .7 0 1 .2l-.2 1.3Zm6 0c-.2-.2-.6-.2-1-.2-.7 0-1.2.3-1.7 1-.4.6-.6 1.6-.6 2.8v3.1h-1.4v-8h1.4v1.6c.2-.5.6-1 1-1.3a3 3 0 0 1 1.5-.5c.4 0 .7 0 1 .2l-.1 1.3Zm8.4 2.3v.6h-6.4c0 .8.3 1.5.8 2 .4.5 1 .7 1.8.7.6 0 1.1-.1 1.5-.4.4-.3.7-.7.8-1.2l1.3.3a3 3 0 0 1-1.3 1.9 4 4 0 0 1-2.3.6c-1.2 0-2.2-.4-2.9-1.2-.7-.8-1-1.8-1-3 0-1.1.3-2.1 1-2.9.7-.8 1.7-1.2 2.8-1.2a3.7 3.7 0 0 1 3.9 3.8Zm-6.3-.5h4.9c-.1-.7-.4-1.2-.8-1.6-.4-.4-1-.6-1.7-.6-.6 0-1.1.2-1.6.6a3 3 0 0 0-.8 1.6Zm8 4.9v-8h1.4v1.5c.3-.5.7-1 1.2-1.2a3 3 0 0 1 1.6-.5c.8 0 1.5.3 2 .8.6.5.8 1.2.8 2v5.4h-1.3v-5c0-.6-.2-1-.5-1.4-.3-.4-.8-.6-1.3-.6-.8 0-1.4.3-1.8 1-.5.6-.7 1.4-.7 2.5v3.5H55Zm13.3 0-1.3.1c-.7 0-1.3-.2-1.8-.6-.4-.4-.6-1-.6-2v-4.4h-1.5V366h1.5v-2.4H66v2.4h2v1.2h-2v4.5c0 .4 0 .8.3 1 .2.2.5.3.8.3.4 0 .8 0 1-.2l.2 1.2Zm5.5 0v-11.2H78c1.1 0 2 .3 2.6.9a3 3 0 0 1 1 2.3 3 3 0 0 1-1 2.4c-.6.6-1.5.9-2.6.9h-2.8v4.7h-1.4Zm1.4-6H78c.6 0 1.1-.2 1.5-.5.4-.4.6-.8.6-1.5 0-.6-.2-1-.6-1.4-.4-.3-.9-.5-1.5-.5h-2.8v3.9Zm10.5-2.2c1 0 1.8.3 2.4.8a3 3 0 0 1 1 2.2v5.2h-1.4v-1.4a2 2 0 0 1-1.1 1.1 3 3 0 0 1-1.6.4 3 3 0 0 1-2-.6c-.5-.5-.7-1-.7-1.8 0-1.5 1.3-2.4 3.8-2.6l1.6-.2v-.1c0-.6-.2-1-.6-1.4a2 2 0 0 0-1.4-.5 2 2 0 0 0-1.4.5c-.3.3-.5.7-.6 1.3l-1.2-.3a3 3 0 0 1 1-1.9c.6-.5 1.4-.7 2.2-.7Zm-.5 7.2c.8 0 1.4-.2 1.8-.7.5-.5.7-1.1.7-2v-.3l-1.6.1c-1.6.2-2.5.8-2.5 1.6 0 .4.2.7.5 1 .3.2.7.3 1.1.3Zm10.1-5.8a2 2 0 0 0-.5-.1c-.7 0-1.2.3-1.6 1-.4.6-.6 1.6-.6 2.8v3.1h-1.4v-8h1.4v1.6c.2-.5.5-1 1-1.3.4-.3.9-.5 1.4-.5h.4v1.4Zm6.2 6.7c-.3.2-.7.2-1.2.2-.7 0-1.3-.2-1.8-.6-.4-.4-.6-1-.6-2v-4.4h-1.5V366h1.5v-2.4h1.4v2.4h2.1v1.2h-2.1v4.5c0 .4 0 .8.3 1 .2.2.5.3.8.3.4 0 .8 0 1-.2l.1 1.2Zm1.6.1v-8h1.4v1.5c.3-.5.7-1 1.1-1.2a3 3 0 0 1 1.7-.5c.8 0 1.5.3 2 .8.6.5.8 1.2.8 2v5.4h-1.3v-5c0-.6-.2-1-.5-1.4-.3-.4-.8-.6-1.3-.6-.8 0-1.4.3-1.8 1-.5.6-.7 1.4-.7 2.5v3.5H103Zm16.6-4.4v.6h-6.5c0 .8.3 1.5.8 2s1.1.7 1.8.7c.6 0 1.2-.1 1.6-.4.4-.3.6-.7.7-1.2l1.3.3a3 3 0 0 1-1.2 1.9 4 4 0 0 1-2.4.6c-1.2 0-2.1-.4-2.8-1.2a4 4 0 0 1-1.1-3c0-1.1.3-2.1 1-2.9.8-.8 1.7-1.2 2.9-1.2a3.7 3.7 0 0 1 3.9 3.8Zm-6.4-.5h5c-.2-.7-.4-1.2-.8-1.6-.5-.4-1-.6-1.7-.6-.6 0-1.2.2-1.6.6-.4.4-.7 1-.9 1.6Zm12.8-1.8c-.3-.2-.6-.2-1-.2-.7 0-1.3.3-1.7 1-.4.6-.6 1.6-.6 2.8v3.1h-1.4v-8h1.4v1.6c.2-.5.5-1 1-1.3a3 3 0 0 1 1.5-.5c.3 0 .6 0 .9.2v1.3Zm4 6.8c-1 0-1.7-.2-2.3-.7-.6-.4-1-1-1.1-1.6l1.1-.5c.4 1.1 1.1 1.7 2.2 1.7.5 0 .9-.1 1.2-.4.3-.2.4-.5.4-.9a1 1 0 0 0-.4-.8l-1.2-.5-1.4-.4c-.4-.1-.8-.3-1.1-.7a2 2 0 0 1-.5-1.3c0-.7.3-1.2.8-1.6.5-.4 1.2-.6 2-.6s1.4.2 2 .6c.5.3.9.8 1 1.4l-1.1.5c-.1-.4-.3-.7-.7-1a2 2 0 0 0-1.2-.4 2 2 0 0 0-1 .3c-.4.2-.5.4-.5.7 0 .3.1.5.4.7l.8.4a9.3 9.3 0 0 1 2.3.6l.8.8c.3.4.4.8.4 1.3 0 .7-.3 1.3-.8 1.8-.6.4-1.3.6-2.2.6Z"/>
  <path stroke="#000" d="M203.5 240v103"/>
  <circle cx="204" cy="239" r="12" fill="#fff" stroke="#377D78" stroke-width="4"/>
  <circle cx="204" cy="239" r="4" fill="#0B0000"/>
  <circle cx="203.5" cy="342.5" r="2.5" fill="#000"/>
  <path fill="#414042" d="M168 374v-9.9h-3.6v-1.3h8.6v1.3h-3.5v9.9H168Zm12.2-4.4v.6h-6.4c0 .8.3 1.5.8 2s1 .7 1.8.7c.6 0 1.1-.1 1.5-.4.4-.3.7-.7.8-1.2l1.3.3a3 3 0 0 1-1.3 1.9 4 4 0 0 1-2.3.6c-1.2 0-2.1-.4-2.9-1.2-.7-.8-1-1.8-1-3 0-1.1.3-2.1 1-2.9.7-.8 1.7-1.2 2.9-1.2a3.7 3.7 0 0 1 3.8 3.8Zm-6.3-.5h4.9a2 2 0 0 0-.8-1.6c-.4-.4-1-.6-1.6-.6-.7 0-1.2.2-1.6.6-.5.4-.8 1-.9 1.6Zm8 4.9v-8h1.4v1.5c.3-.5.7-1 1.2-1.2a3 3 0 0 1 1.6-.5c.8 0 1.5.3 2 .8.6.5.9 1.2.9 2v5.4h-1.4v-5c0-.6-.1-1-.5-1.4-.3-.4-.8-.6-1.3-.6-.8 0-1.4.3-1.8 1-.4.6-.7 1.4-.7 2.5v3.5H182Zm12.7.1c-1.2 0-2.2-.4-2.8-1.1-.7-.8-1-1.8-1-3 0-1.3.3-2.3 1-3 .6-.8 1.6-1.2 2.8-1.2.5 0 1 .1 1.5.4.5.2.9.5 1.1.9v-4.4h1.4V374h-1.4v-1.2c-.1.4-.5.7-1 1-.5.2-1 .3-1.6.3Zm-1.8-2c.5.5 1.2.8 2 .8.7 0 1.4-.3 1.8-.8.5-.5.8-1.2.8-2.1a3 3 0 0 0-.8-2.2c-.4-.5-1-.8-1.9-.8-.7 0-1.4.3-1.9.8a3 3 0 0 0-.7 2.2c0 .9.3 1.6.7 2.1Zm15.3-2.5v.6h-6.4c0 .8.3 1.5.8 2 .4.5 1 .7 1.8.7.6 0 1.1-.1 1.5-.4.4-.3.7-.7.8-1.2l1.3.3a3 3 0 0 1-1.3 1.9 4 4 0 0 1-2.3.6c-1.2 0-2.2-.4-2.9-1.2-.7-.8-1-1.8-1-3 0-1.1.3-2.1 1-2.9.7-.8 1.7-1.2 2.8-1.2a3.7 3.7 0 0 1 3.9 3.8Zm-6.3-.5h4.9c-.1-.7-.4-1.2-.8-1.6-.4-.4-1-.6-1.7-.6-.6 0-1.1.2-1.6.6a3 3 0 0 0-.8 1.6Zm12.8-1.8c-.3-.2-.7-.2-1-.2-.8 0-1.3.3-1.8 1-.4.6-.6 1.6-.6 2.8v3.1h-1.4v-8h1.4v1.6c.2-.5.6-1 1-1.3a3 3 0 0 1 1.5-.5c.4 0 .7 0 1 .2l-.1 1.3Zm5.3 6.7v-11.2h1.5v9.9h5.5v1.3h-7Zm8.2-11.3h1.6v1.7h-1.6v-1.7Zm.1 11.3v-8h1.4v8h-1.4Zm6.3.1c-.9 0-1.6-.2-2.2-.7-.6-.4-1-1-1.2-1.6l1.2-.5c.4 1.1 1.1 1.7 2.2 1.7.5 0 .9-.1 1.2-.4.3-.2.4-.5.4-.9a1 1 0 0 0-.4-.8l-1.2-.5-1.4-.4c-.4-.1-.8-.3-1.1-.7a2 2 0 0 1-.5-1.3c0-.7.3-1.2.8-1.6.5-.4 1.2-.6 2-.6.7 0 1.4.2 2 .6.5.3.8.8 1 1.4l-1.1.5c-.1-.4-.4-.7-.7-1a2 2 0 0 0-1.2-.4 2 2 0 0 0-1 .3c-.4.2-.5.4-.5.7 0 .3.1.5.3.7l1 .4a9.3 9.3 0 0 1 2.2.6l.8.8c.2.4.4.8.4 1.3 0 .7-.3 1.3-.9 1.8-.5.4-1.2.6-2.1.6Zm8.9-.2c-.4.2-.8.2-1.3.2-.7 0-1.3-.2-1.7-.6-.5-.4-.7-1-.7-2v-4.4h-1.5V366h1.5v-2.4h1.4v2.4h2.1v1.2h-2.1v4.5c0 .4 0 .8.3 1 .2.2.5.3.9.3s.7 0 1-.2v1.2Z"/>
  <path stroke="#000" d="M341.5 240v103"/>
  <circle cx="342" cy="239" r="12" fill="#fff" stroke="#377D78" stroke-width="4"/>
  <circle cx="342" cy="239" r="4" fill="#0B0000"/>
  <circle cx="341.5" cy="342.5" r="2.5" fill="#000"/>
  <path fill="#414042" d="M331 368.4c0 1.7-.6 3.1-1.7 4.2l1.1 1.3-.9.8-1.2-1.4c-.8.6-1.8.8-2.9.8-1.6 0-3-.5-4-1.6-1-1-1.5-2.4-1.5-4.1 0-1.7.5-3 1.5-4.1 1-1 2.4-1.6 4-1.6s3 .5 4 1.6c1 1 1.5 2.4 1.5 4.1Zm-5.6 4.4a4 4 0 0 0 2-.5l-2.2-2.4.9-.8 2.2 2.5c.8-.9 1.1-2 1.1-3.2a5 5 0 0 0-1.1-3.2 3.7 3.7 0 0 0-3-1.2c-1 0-2 .4-2.8 1.2a5.2 5.2 0 0 0 0 6.4c.8.8 1.7 1.2 2.9 1.2Zm7.4 1.2v-11.2h1.4v9.9h5.6v1.3h-7Zm8.4 0v-11.2h3.3c1.6 0 3 .5 4 1.5s1.6 2.4 1.6 4.1a5.3 5.3 0 0 1-5.6 5.6h-3.3Zm1.4-1.3h1.8a5 5 0 0 0 3-1c.8-.8 1.2-1.9 1.2-3.3 0-1-.2-1.8-.6-2.4-.4-.7-.9-1.2-1.5-1.5-.6-.3-1.3-.4-2-.4h-1.9v8.6ZM299.3 393v-11.2h7v1.3h-5.6v3.3h4.6v1.3h-4.6v4h5.8v1.3h-7.2Zm15.3 0h-1.5l-2-3-2 3h-1.6l2.8-4.2-2.6-3.9h1.5l1.9 2.8 1.8-2.8h1.6l-2.7 4 2.8 4.1Zm1.4 3v-11h1.4v1.1c.2-.4.6-.7 1-1 .6-.2 1-.3 1.7-.3 1.2 0 2.1.4 2.8 1.2.7.7 1 1.7 1 3 0 1.2-.3 2.2-1 3a4 4 0 0 1-2.9 1.1c-.5 0-1 0-1.5-.3a3 3 0 0 1-1-1v4.1H316Zm3.9-4c.8 0 1.4-.4 2-.9.4-.5.6-1.2.6-2.1a3 3 0 0 0-.7-2.2c-.5-.5-1.1-.8-1.9-.8-.8 0-1.4.3-1.9.8-.5.6-.7 1.3-.7 2.2 0 .9.2 1.6.7 2.1.5.5 1.1.8 1.9.8Zm8.7-7.2c1 0 1.8.3 2.4.8.6.6.9 1.3.9 2.2v5.2h-1.3v-1.4c-.3.5-.6.9-1.1 1.1a3 3 0 0 1-1.6.4 3 3 0 0 1-2-.6c-.5-.5-.8-1-.8-1.8 0-1.5 1.3-2.4 3.9-2.6l1.6-.2v-.1c0-.6-.2-1-.6-1.4a2 2 0 0 0-1.4-.5 2 2 0 0 0-1.4.5c-.3.3-.6.7-.6 1.3l-1.3-.3a3 3 0 0 1 1.1-1.9c.6-.5 1.3-.7 2.2-.7Zm-.5 7.2c.8 0 1.4-.2 1.8-.7a3 3 0 0 0 .7-2v-.3l-1.6.1c-1.7.2-2.5.8-2.5 1.6 0 .4.2.7.4 1 .3.2.7.3 1.2.3Zm6 1v-8h1.4v1.5c.3-.5.6-1 1.1-1.2a3 3 0 0 1 1.6-.5c.9 0 1.6.3 2.1.8s.8 1.2.8 2v5.4h-1.3v-5c0-.6-.2-1-.5-1.4-.4-.4-.8-.6-1.4-.6-.7 0-1.3.3-1.8 1-.4.6-.6 1.4-.6 2.5v3.5H334Zm12 .1c-1 0-1.7-.2-2.3-.7-.5-.4-1-1-1.1-1.6l1.1-.5c.4 1.1 1.1 1.7 2.2 1.7.5 0 .9-.1 1.2-.4.3-.2.5-.5.5-.9a1 1 0 0 0-.5-.8l-1.2-.5a37 37 0 0 1-1.3-.4c-.5-.1-.9-.3-1.2-.7a2 2 0 0 1-.5-1.3c0-.7.3-1.2.8-1.6.5-.4 1.2-.6 2-.6s1.4.2 2 .6c.5.3.9.8 1 1.4l-1 .5c-.2-.4-.4-.7-.8-1a2 2 0 0 0-1.2-.4 2 2 0 0 0-1 .3c-.3.2-.5.4-.5.7 0 .3.2.5.4.7l.8.4a9.4 9.4 0 0 1 2.3.6l.8.8c.3.4.4.8.4 1.3 0 .7-.3 1.3-.8 1.8-.6.4-1.3.6-2.2.6Zm4.5-11.4h1.6v1.7h-1.6v-1.7Zm.1 11.3v-8h1.4v8h-1.4Zm10.2-1a4 4 0 0 1-3 1.1 4 4 0 0 1-4-4.1 4 4 0 0 1 1-3 4 4 0 0 1 3-1.2 4 4 0 0 1 4.1 4.2 4 4 0 0 1-1.1 3Zm-5-.9c.6.5 1.2.8 2 .8s1.5-.3 2-.8a3 3 0 0 0 .7-2.1 3 3 0 0 0-.7-2.1c-.5-.6-1.2-.9-2-.9s-1.4.3-2 .9a3 3 0 0 0-.7 2c0 1 .3 1.6.8 2.2Zm7.9 1.9v-8h1.3v1.5c.3-.5.7-1 1.2-1.2a3 3 0 0 1 1.6-.5c.8 0 1.5.3 2 .8.6.5.9 1.2.9 2v5.4h-1.4v-5c0-.6-.1-1-.5-1.4-.3-.4-.8-.6-1.3-.6-.8 0-1.4.3-1.8 1-.5.6-.7 1.4-.7 2.5v3.5h-1.3Z"/>
  <path stroke="#000" d="M466.5 240v103"/>
  <circle cx="467" cy="239" r="12" fill="#fff" stroke="#377D78" stroke-width="4"/>
  <circle cx="467" cy="239" r="4" fill="#0B0000"/>
  <circle cx="466.5" cy="342.5" r="2.5" fill="#000"/>
  <path fill="#414042" d="M414.4 374v-9.9h-3.6v-1.3h8.6v1.3h-3.6v9.9h-1.4Zm7.7-8.2c1 0 1.8.3 2.4.8.7.6 1 1.3 1 2.2v5.2H424v-1.4c-.2.5-.6.9-1 1.1-.6.3-1 .4-1.7.4a3 3 0 0 1-2-.6c-.4-.5-.7-1-.7-1.8 0-1.5 1.3-2.4 3.8-2.6l1.6-.2v-.1c0-.6-.2-1-.5-1.4a2 2 0 0 0-1.5-.5 2 2 0 0 0-1.3.5c-.4.3-.6.7-.7 1.3l-1.2-.3a3 3 0 0 1 1-1.9c.7-.5 1.4-.7 2.2-.7Zm-.5 7.2c.8 0 1.4-.2 1.9-.7a3 3 0 0 0 .6-2v-.3l-1.6.1c-1.6.2-2.4.8-2.4 1.6 0 .4.1.7.4 1 .3.2.7.3 1.1.3Zm10.8-5.7c-.3-.2-.7-.2-1-.2-.7 0-1.3.3-1.7 1-.5.6-.7 1.6-.7 2.8v3.1h-1.3v-8h1.3v1.6c.3-.5.6-1 1-1.3.6-.3 1-.5 1.5-.5.4 0 .7 0 1 .2l-.1 1.3Zm7-1.4h1.3v7.7c0 1-.3 1.9-1 2.5a4.3 4.3 0 0 1-5.1.3c-.7-.5-1.1-1-1.2-1.8l1.3-.2c0 .4.3.8.7 1a2.8 2.8 0 0 0 3.3-.1c.4-.4.7-1 .7-1.5v-1.2a2 2 0 0 1-1 .9c-.5.2-1 .3-1.6.3-1.2 0-2.2-.4-2.8-1.1-.7-.8-1-1.7-1-2.9s.3-2.1 1-2.9c.6-.7 1.6-1 2.8-1a3.4 3.4 0 0 1 2.6 1.1v-1Zm-4.4 6a3 3 0 0 0 2 .7c.7 0 1.3-.3 1.8-.8a3.2 3.2 0 0 0 0-4c-.5-.5-1.1-.8-1.9-.8-.8 0-1.4.3-1.9.8a3.2 3.2 0 0 0 0 4Zm15.2-2.3v.6h-6.4c0 .8.3 1.5.8 2s1 .7 1.8.7c.6 0 1.1-.1 1.5-.4.4-.3.7-.7.8-1.2l1.3.3a3 3 0 0 1-1.3 1.9 4 4 0 0 1-2.3.6c-1.2 0-2.1-.4-2.9-1.2-.7-.8-1-1.8-1-3 0-1.1.3-2.1 1-2.9.7-.8 1.7-1.2 2.9-1.2a3.7 3.7 0 0 1 3.8 3.8Zm-6.3-.5h4.9a2 2 0 0 0-.8-1.6c-.4-.4-1-.6-1.6-.6-.7 0-1.2.2-1.6.6-.5.4-.8 1-1 1.6Zm12.2 4.8c-.3.2-.7.2-1.2.2-.7 0-1.3-.2-1.8-.6-.4-.4-.6-1-.6-2v-4.4H451V366h1.5v-2.4h1.4v2.4h2.1v1.2h-2v4.5c0 .4 0 .8.3 1 .2.2.5.3.8.3.4 0 .8 0 1-.2l.1 1.2Zm5.6.1v-11.2h4.2c1.1 0 2 .3 2.6.9a3 3 0 0 1 1 2.3 3 3 0 0 1-1 2.4c-.6.6-1.5.9-2.6.9h-2.8v4.7h-1.4Zm1.4-6h2.8c.6 0 1.1-.2 1.5-.5.4-.4.6-.8.6-1.5 0-.6-.2-1-.6-1.4-.4-.3-.9-.5-1.5-.5H463v3.9Zm10.5-2.2c1 0 1.8.3 2.4.8a3 3 0 0 1 1 2.2v5.2h-1.4v-1.4c-.3.5-.6.9-1.1 1.1a3 3 0 0 1-1.6.4 3 3 0 0 1-2-.6c-.5-.5-.7-1-.7-1.8 0-1.5 1.3-2.4 3.8-2.6l1.6-.2v-.1c0-.6-.2-1-.6-1.4a2 2 0 0 0-1.4-.5 2 2 0 0 0-1.4.5c-.3.3-.5.7-.6 1.3l-1.3-.3a3 3 0 0 1 1.1-1.9c.6-.5 1.4-.7 2.2-.7Zm-.5 7.2c.8 0 1.4-.2 1.8-.7.5-.5.7-1.1.7-2v-.3l-1.6.1c-1.6.2-2.5.8-2.5 1.6 0 .4.2.7.5 1 .3.2.6.3 1.1.3Zm10.1-5.8a2 2 0 0 0-.5-.1c-.7 0-1.2.3-1.6 1-.4.6-.6 1.6-.6 2.8v3.1h-1.4v-8h1.4v1.6c.2-.5.5-1 1-1.3.4-.3.9-.5 1.4-.5h.4v1.4Zm6.2 6.7c-.3.2-.7.2-1.2.2-.8 0-1.3-.2-1.8-.6-.4-.4-.6-1-.6-2v-4.4h-1.5V366h1.5v-2.4h1.4v2.4h2.1v1.2h-2.1v4.5c0 .4 0 .8.3 1 .2.2.5.3.8.3.4 0 .8 0 1-.2l.1 1.2Zm1.6.1v-8h1.4v1.5c.3-.5.7-1 1.1-1.2a3 3 0 0 1 1.7-.5c.8 0 1.5.3 2 .8.6.5.8 1.2.8 2v5.4h-1.3v-5c0-.6-.2-1-.5-1.4-.4-.4-.8-.6-1.3-.6-.8 0-1.4.3-1.9 1-.4.6-.6 1.4-.6 2.5v3.5H491Zm16.5-4.4v.6h-6.4c0 .8.3 1.5.8 2s1 .7 1.8.7a3 3 0 0 0 1.6-.4c.4-.3.6-.7.7-1.2l1.3.3a3 3 0 0 1-1.2 1.9 4 4 0 0 1-2.4.6c-1.2 0-2.1-.4-2.8-1.2a4 4 0 0 1-1.1-3c0-1.1.3-2.1 1-2.9.8-.8 1.7-1.2 2.9-1.2a3.7 3.7 0 0 1 3.8 3.8Zm-6.3-.5h4.9c0-.7-.3-1.2-.7-1.6-.5-.4-1-.6-1.7-.6-.6 0-1.2.2-1.6.6-.5.4-.7 1-.9 1.6Zm12.8-1.8c-.3-.2-.6-.2-1-.2-.7 0-1.3.3-1.7 1-.4.6-.6 1.6-.6 2.8v3.1h-1.4v-8h1.4v1.6c.2-.5.5-1 1-1.3a3 3 0 0 1 1.5-.5c.3 0 .6 0 .9.2v1.3Zm3.9 6.8c-.9 0-1.6-.2-2.2-.7-.6-.4-1-1-1.2-1.6l1.2-.5c.4 1.1 1.1 1.7 2.2 1.7.5 0 .9-.1 1.2-.4.3-.2.4-.5.4-.9a1 1 0 0 0-.4-.8l-1.2-.5a37 37 0 0 1-1.4-.4c-.4-.1-.8-.3-1.1-.7a2 2 0 0 1-.5-1.3c0-.7.3-1.2.8-1.6.5-.4 1.2-.6 2-.6.7 0 1.4.2 2 .6.5.3.8.8 1 1.4l-1.1.5c-.1-.4-.4-.7-.7-1a2 2 0 0 0-1.2-.4 2 2 0 0 0-1 .3c-.4.2-.5.4-.5.7 0 .3.1.5.3.7l1 .4a9.4 9.4 0 0 1 2.2.6l.8.8c.2.4.4.8.4 1.3 0 .7-.3 1.3-.9 1.8-.5.4-1.2.6-2.1.6ZM454.6 393v-11.2h1.5v9.9h5.5v1.3h-7Zm8.3-11.3h1.5v1.7H463v-1.7Zm0 11.3v-8h1.4v8H463Zm6.3.1c-.9 0-1.6-.2-2.2-.7-.6-.4-1-1-1.1-1.6l1.1-.5c.4 1.1 1.1 1.7 2.2 1.7.5 0 .9-.1 1.2-.4.3-.2.4-.5.4-.9a1 1 0 0 0-.4-.8l-1.2-.5-1.4-.4c-.4-.1-.8-.3-1.1-.7a2 2 0 0 1-.5-1.3c0-.7.3-1.2.8-1.6.5-.4 1.2-.6 2-.6s1.4.2 2 .6c.5.3.9.8 1 1.4l-1.1.5c-.1-.4-.3-.7-.7-1a2 2 0 0 0-1.2-.4 2 2 0 0 0-1 .3c-.3.2-.5.4-.5.7 0 .3.1.5.4.7l.8.4a9.3 9.3 0 0 1 2.3.6l.8.8c.3.4.4.8.4 1.3 0 .7-.3 1.3-.8 1.8-.6.4-1.3.6-2.2.6Zm8.9-.2c-.4.2-.8.2-1.3.2-.7 0-1.3-.2-1.7-.6-.5-.4-.7-1-.7-2v-4.4H473V385h1.5v-2.4h1.4v2.4h2.2v1.2h-2.2v4.5c0 .4.1.8.3 1 .2.2.5.3.9.3s.7 0 1-.2v1.2Z"/>
  <path stroke="#000" d="M596.5 240v103"/>
  <circle cx="597" cy="239" r="12" fill="#fff" stroke="#377D78" stroke-width="4"/>
  <circle cx="597" cy="239" r="4" fill="#0B0000"/>
  <circle cx="596.5" cy="342.5" r="2.5" fill="#000"/>
  <path stroke="#000" d="M728.5 240v103"/>
  <circle cx="729" cy="239" r="12" fill="#fff" stroke="#377D78" stroke-width="4"/>
  <circle cx="729" cy="239" r="4" fill="#0B0000"/>
  <circle cx="728.5" cy="342.5" r="2.5" fill="#000"/>
  <path fill="#414042" d="M579.3 374v-11.2h7.2v1.3h-5.7v3.4h4.6v1.3h-4.6v5.2h-1.5Zm11.8 0v-4.7l-4-6.5h1.7l3 5.1 3-5.1h1.7l-4 6.5v4.7h-1.4Zm9.9 0-4.3-11.2h1.5l3.5 9.5 3.5-9.5h1.4l-4.2 11.2H601Zm7 0v-11.2h7v1.3h-5.6v3.3h4.5v1.3h-4.5v4h5.8v1.3h-7.3Zm-51.5 19v-11.2h4c1 0 2 .3 2.5.8.6.5 1 1.2 1 2 0 .6-.2 1-.5 1.4-.3.4-.6.7-1 .9 1.3.4 2 1.4 2 2.8a3 3 0 0 1-1 2.4 4 4 0 0 1-2.7.9h-4.3Zm1.4-6.6h2.6c1.3 0 2-.6 2-1.7 0-1-.7-1.7-2-1.7h-2.6v3.4Zm0 5.3h2.6c1.7 0 2.5-.7 2.5-2s-.8-2-2.5-2H558v4Zm15.6-3.1v.6H567c0 .8.3 1.5.8 2s1 .7 1.8.7c.6 0 1.1-.1 1.5-.4.4-.3.7-.7.8-1.2l1.3.3a3 3 0 0 1-1.3 1.9 4 4 0 0 1-2.3.6c-1.2 0-2.2-.4-2.9-1.2-.7-.8-1-1.8-1-3 0-1.1.3-2.1 1-2.9.7-.8 1.7-1.2 2.8-1.2a3.7 3.7 0 0 1 3.9 3.8Zm-6.3-.5h4.9c-.1-.7-.3-1.2-.8-1.6-.4-.4-1-.6-1.7-.6-.6 0-1.1.2-1.6.6a3 3 0 0 0-.8 1.6Zm8 4.9v-8h1.4v1.5c.3-.5.7-1 1.2-1.2a3 3 0 0 1 1.6-.5c.8 0 1.5.3 2 .8.6.5.9 1.2.9 2v5.4h-1.4v-5c0-.6-.2-1-.5-1.4-.3-.4-.8-.6-1.3-.6-.8 0-1.4.3-1.8 1-.5.6-.7 1.4-.7 2.5v3.5h-1.3Zm12.8.1a4 4 0 0 1-2.9-1.1 4.2 4.2 0 0 1-1-3c0-1.3.3-2.3 1-3 .7-.8 1.7-1.2 3-1.2.8 0 1.6.2 2.3.7a3 3 0 0 1 1.1 2l-1.3.2c0-.5-.3-.9-.7-1.2-.4-.3-.9-.5-1.5-.5-.8 0-1.4.3-1.9.8-.4.6-.7 1.3-.7 2.2 0 .9.3 1.6.7 2.1.5.5 1.1.8 2 .8.5 0 1-.1 1.4-.4.4-.3.6-.8.7-1.3l1.4.3a3 3 0 0 1-1.3 2c-.6.4-1.4.6-2.3.6Zm5.3-.1v-11.3h1.3v4.8a2.9 2.9 0 0 1 2.8-1.7c.9 0 1.6.3 2.2.8.5.5.8 1.2.8 2v5.4H599v-5c0-.7-.1-1.1-.5-1.4a2 2 0 0 0-1.4-.6c-.8 0-1.4.4-1.8 1-.5.6-.7 1.5-.7 2.5v3.5h-1.3Zm9.3 0v-8h1.4v1.5a2.5 2.5 0 0 1 2.4-1.7 3 3 0 0 1 1.7.5c.5.3.8.7 1 1.2a2.8 2.8 0 0 1 2.5-1.7c.9 0 1.6.3 2 .8.6.5.8 1.1.8 2v5.4h-1.3v-5.1c0-.6-.2-1-.5-1.4-.3-.3-.7-.5-1.3-.5a2 2 0 0 0-1.6.8c-.3.6-.5 1.3-.5 2.2v4h-1.4v-5.1c0-.6-.1-1-.4-1.4-.3-.3-.8-.5-1.3-.5a2 2 0 0 0-1.6.8c-.4.6-.5 1.3-.5 2.2v4h-1.4Zm17-8.2c1 0 1.8.3 2.5.8.6.6.9 1.3.9 2.2v5.2h-1.4v-1.4c-.2.5-.6.9-1 1.1a3 3 0 0 1-1.7.4 3 3 0 0 1-2-.6c-.4-.5-.7-1-.7-1.8 0-1.5 1.3-2.4 3.9-2.6l1.5-.2v-.1c0-.6-.2-1-.5-1.4a2 2 0 0 0-1.4-.5 2 2 0 0 0-1.4.5c-.4.3-.6.7-.6 1.3l-1.3-.3a3 3 0 0 1 1-1.9c.7-.5 1.4-.7 2.3-.7Zm-.5 7.2c.8 0 1.4-.2 1.9-.7a3 3 0 0 0 .6-2v-.3l-1.5.1c-1.7.2-2.5.8-2.5 1.6 0 .4.1.7.4 1 .3.2.7.3 1.1.3Zm10.8-5.7c-.3-.2-.7-.2-1-.2-.7 0-1.3.3-1.7 1-.5.6-.7 1.6-.7 2.8v3.1h-1.3v-8h1.3v1.6c.3-.5.6-1 1-1.3.6-.3 1-.5 1.5-.5.4 0 .7 0 1 .2l-.1 1.3Zm6.9 6.7-3-4-1.1 1v3h-1.4v-11.3h1.4v6.5l3.7-3.3h1.8l-3.4 3.2 3.7 4.9h-1.7Zm65.7-19-4.2-11.2h1.5l3.5 9.5 3.4-9.5h1.5L704 374h-1.5Zm7 0v-11.2h1.5V374h-1.5Zm8.7.1c-1.5 0-2.8-.5-3.8-1.5s-1.6-2.4-1.6-4.2c0-1.8.5-3.2 1.6-4.2 1-1 2.3-1.5 3.8-1.5a5 5 0 0 1 3.1 1c.9.6 1.4 1.4 1.6 2.5l-1.4.3a4 4 0 0 0-1.1-1.9c-.6-.4-1.3-.6-2.2-.6-1.2 0-2.1.4-2.8 1.1-.8.8-1.1 1.9-1.1 3.3s.4 2.5 1 3.3c.8.7 1.7 1.1 3 1.1.8 0 1.5-.2 2-.6.6-.5 1-1 1.2-1.8l1.4.3c-.2 1-.8 1.9-1.6 2.5a5 5 0 0 1-3 1Zm9.4 0 5-11.3h1.4l-5 11.2h-1.4Zm15.1 0c-1 0-2-.3-2.8-1a4 4 0 0 1-1.5-2.4l1.4-.5a2.9 2.9 0 0 0 3 2.6 3 3 0 0 0 1.8-.5c.4-.3.7-.8.7-1.3s-.2-.9-.5-1.2a186.9 186.9 0 0 1-4.2-1.7c-.5-.2-1-.5-1.2-1-.4-.4-.5-.9-.5-1.5 0-.9.3-1.6 1-2.1.7-.6 1.7-.8 2.8-.8 1 0 1.9.2 2.6.7a3 3 0 0 1 1.3 2l-1.3.6c-.2-.7-.4-1.1-1-1.5-.4-.4-1-.5-1.6-.5-.8 0-1.3.1-1.7.4-.4.3-.6.7-.6 1.2 0 .3 0 .6.3.9l1 .5 1.2.4c.4 0 .9.2 1.3.4l1.3.6c.4.2.7.6 1 1 .1.4.3 1 .3 1.6 0 1-.4 1.7-1.2 2.3a5 5 0 0 1-2.9.8Zm13.5-.1-1.2-2.8h-5l-1 2.8h-1.5l4.4-11.2h1.3l4.5 11.2h-1.5Zm-5.6-4.1h4l-2-5.2-2 5.2ZM692.3 393v-11.2h7v1.3h-5.6v3.3h4.6v1.3h-4.6v4h5.8v1.3h-7.2Zm15.3 0h-1.5l-2-3-2 3h-1.6l2.8-4.2-2.6-3.9h1.5l1.9 2.8 1.8-2.8h1.6l-2.7 4 2.8 4.1Zm1.4 3v-11h1.4v1.1c.2-.4.6-.7 1-1 .6-.2 1-.3 1.7-.3 1.2 0 2.1.4 2.8 1.2.7.7 1 1.7 1 3 0 1.2-.3 2.2-1 3a4 4 0 0 1-2.9 1.1c-.5 0-1 0-1.5-.3a3 3 0 0 1-1-1v4.1H709Zm3.9-4c.8 0 1.4-.4 2-.9.4-.5.6-1.2.6-2.1a3 3 0 0 0-.7-2.2c-.5-.5-1-.8-1.9-.8-.8 0-1.4.3-1.9.8-.5.6-.7 1.3-.7 2.2 0 .9.2 1.6.7 2.1.5.5 1.1.8 1.9.8Zm8.7-7.2c1 0 1.8.3 2.4.8.6.6.9 1.3.9 2.2v5.2h-1.3v-1.4c-.3.5-.6.9-1.1 1.1a3 3 0 0 1-1.6.4 3 3 0 0 1-2-.6c-.5-.5-.8-1-.8-1.8 0-1.5 1.3-2.4 3.9-2.6l1.6-.2v-.1c0-.6-.2-1-.6-1.4a2 2 0 0 0-1.4-.5 2 2 0 0 0-1.4.5c-.4.3-.6.7-.6 1.3l-1.3-.3a3 3 0 0 1 1.1-1.9c.6-.5 1.3-.7 2.2-.7Zm-.5 7.2c.8 0 1.4-.2 1.8-.7a3 3 0 0 0 .7-2v-.3l-1.6.1c-1.7.2-2.5.8-2.5 1.6 0 .4.2.7.4 1 .3.2.7.3 1.2.3Zm6 1v-8h1.4v1.5c.3-.5.6-1 1.1-1.2a3 3 0 0 1 1.6-.5c.9 0 1.6.3 2.1.8s.8 1.2.8 2v5.4h-1.3v-5c0-.6-.2-1-.5-1.4-.4-.4-.8-.6-1.4-.6-.7 0-1.3.3-1.8 1-.4.6-.6 1.4-.6 2.5v3.5H727Zm12 .1c-1 0-1.7-.2-2.3-.7-.5-.4-1-1-1.1-1.6l1.1-.5c.4 1.1 1.1 1.7 2.2 1.7.5 0 .9-.1 1.2-.4.3-.2.5-.5.5-.9a1 1 0 0 0-.5-.8l-1.2-.5a37 37 0 0 1-1.3-.4c-.5-.1-.9-.3-1.2-.7a2 2 0 0 1-.5-1.3c0-.7.3-1.2.8-1.6.5-.4 1.2-.6 2-.6s1.4.2 2 .6c.5.3.9.8 1 1.4l-1 .5c-.2-.4-.4-.7-.8-1a2 2 0 0 0-1.2-.4 2 2 0 0 0-1 .3c-.3.2-.5.4-.5.7 0 .3.2.5.4.7l.8.4a9.4 9.4 0 0 1 2.3.6l.8.8c.3.4.4.8.4 1.3 0 .7-.3 1.3-.8 1.8-.6.4-1.3.6-2.2.6Zm4.5-11.4h1.6v1.7h-1.6v-1.7Zm.1 11.3v-8h1.4v8h-1.4Zm10.2-1a4 4 0 0 1-3 1.1 4 4 0 0 1-4-4.1 4 4 0 0 1 1-3 4 4 0 0 1 3-1.2 4 4 0 0 1 4.1 4.2 4 4 0 0 1-1.1 3Zm-5-.9c.6.5 1.2.8 2 .8s1.5-.3 2-.8a3 3 0 0 0 .7-2.1 3 3 0 0 0-.7-2.1c-.5-.6-1.2-.9-2-.9s-1.4.3-2 .9a3 3 0 0 0-.7 2c0 1 .3 1.6.8 2.2Zm7.9 1.9v-8h1.3v1.5c.3-.5.7-1 1.2-1.2a3 3 0 0 1 1.6-.5c.8 0 1.5.3 2 .8.6.5.9 1.2.9 2v5.4h-1.4v-5c0-.6-.1-1-.5-1.4-.3-.4-.8-.6-1.3-.6-.8 0-1.4.3-1.8 1-.5.6-.7 1.4-.7 2.5v3.5h-1.3Z"/>
  <path fill="#F7F7F7" d="M229 230h75l10 10h-75l-10-10Z"/>
  <path fill="url(#f)" d="M229 250h75l10-10h-75l-10 10Z"/>
  <path fill="#F7F7F7" d="M96 230h75l10 10h-75l-10-10Z"/>
  <path fill="url(#g)" d="M96 250h75l10-10h-75l-10 10Z"/>
  <path fill="#F7F7F7" d="M362 230h75l10 10h-75l-10-10Z"/>
  <path fill="url(#h)" d="M362 250h75l10-10h-75l-10 10Z"/>
  <path fill="#F7F7F7" d="M495 230h75l10 10h-75l-10-10Z"/>
  <path fill="url(#i)" d="M495 250h75l10-10h-75l-10 10Z"/>
  <path fill="#F7F7F7" d="M628 230h75l10 10h-75l-10-10Z"/>
  <path fill="url(#j)" d="M628 250h75l10-10h-75l-10 10Z"/>
  <defs>
    <linearGradient id="a" x1="0" x2="164" y1="240" y2="240" gradientUnits="userSpaceOnUse">
      <stop stop-color="#377D78" stop-opacity="0"/>
      <stop offset="1" stop-color="#377D78" stop-opacity=".6"/>
    </linearGradient>
    <linearGradient id="b" x1="104" x2="669" y1="240" y2="240" gradientUnits="userSpaceOnUse">
      <stop stop-color="#4F6CD2" stop-opacity="0"/>
      <stop offset="1" stop-color="#4F6CD2" stop-opacity=".6"/>
    </linearGradient>
    <linearGradient id="c" x1="164" x2="467" y1="240" y2="240" gradientUnits="userSpaceOnUse">
      <stop stop-color="#41BEB5" stop-opacity="0"/>
      <stop offset="1" stop-color="#41BEB5" stop-opacity=".6"/>
    </linearGradient>
    <linearGradient id="d" x1="609" x2="800" y1="240" y2="240" gradientUnits="userSpaceOnUse">
      <stop stop-color="#64AFF4" stop-opacity="0"/>
      <stop offset="1" stop-color="#64AFF4" stop-opacity=".6"/>
    </linearGradient>
    <linearGradient id="e" x1="400" x2="400" y1="342" y2="265" gradientUnits="userSpaceOnUse">
      <stop stop-color="#fff"/>
      <stop offset="1" stop-color="#fff" stop-opacity="0"/>
    </linearGradient>
    <linearGradient id="f" x1="229" x2="314" y1="245" y2="245" gradientUnits="userSpaceOnUse">
      <stop stop-color="#F7F7F7"/>
      <stop offset="1" stop-color="#BEBFC2"/>
    </linearGradient>
    <linearGradient id="g" x1="96" x2="181" y1="245" y2="245" gradientUnits="userSpaceOnUse">
      <stop stop-color="#F7F7F7"/>
      <stop offset="1" stop-color="#BEBFC2"/>
    </linearGradient>
    <linearGradient id="h" x1="362" x2="447" y1="245" y2="245" gradientUnits="userSpaceOnUse">
      <stop stop-color="#F7F7F7"/>
      <stop offset="1" stop-color="#BEBFC2"/>
    </linearGradient>
    <linearGradient id="i" x1="495" x2="580" y1="245" y2="245" gradientUnits="userSpaceOnUse">
      <stop stop-color="#F7F7F7"/>
      <stop offset="1" stop-color="#BEBFC2"/>
    </linearGradient>
    <linearGradient id="j" x1="628" x2="713" y1="245" y2="245" gradientUnits="userSpaceOnUse">
      <stop stop-color="#F7F7F7"/>
      <stop offset="1" stop-color="#BEBFC2"/>
    </linearGradient>
  </defs>
</svg>
