<svg xmlns="http://www.w3.org/2000/svg" width="800" height="500" fill="none" viewBox="0 0 800 500">
  <path fill="#fff" d="M0 0h800v500H0z"/>
  <g clip-path="url(#a)">
    <path fill="#009CC3" d="M189.4 400.6a299 299 0 0 0 133.8 77.3l77.3-288.3-211 211Z"/>
    <path fill="#008D9A" d="M112.1 266.9a297.9 297.9 0 0 0 77.3 133.7l211-211-288.3 77.3Z"/>
    <path fill="#377D78" d="M112.2 112.3a297.8 297.8 0 0 0 0 154.6l288.3-77.3L112 112.3Z"/>
    <path fill="#15ABFF" d="M323.3 477.9a298 298 0 0 0 154.5 0l-77.3-288.3-77.2 288.3Z"/>
    <path fill="#009CC3" d="M477.7 477.9a298 298 0 0 0 133.8-77.3l-211-211 77.2 288.3Z"/>
    <path fill="#008D9A" d="M611.6 400.6a299 299 0 0 0 77.3-133.7l-288.4-77.3 211 211Z"/>
    <path fill="#377D78" d="M688.8 266.9a297.8 297.8 0 0 0 0-154.6l-288.3 77.3 288.3 77.3Z"/>
    <mask id="b" width="598" height="377" x="101" y="112" maskUnits="userSpaceOnUse" style="mask-type:alpha">
      <path fill="#377D78" fill-rule="evenodd" d="M112.2 266.9a297.8 297.8 0 0 1 0-154.6l288.3 77.3-77.3 288.3a299 299 0 0 1-211-211Zm576.6 0a297.8 297.8 0 0 0 0-154.6l-288.3 77.3v.2l-77.2 288a298 298 0 0 0 288.2-77.3l-211-210.8 211 210.9A299 299 0 0 0 689 266.9h-.1Zm-288.3-77.3Z" clip-rule="evenodd"/>
    </mask>
    <g mask="url(#b)">
      <path fill="#000" fill-opacity=".3" d="M400.5 316a126.5 126.5 0 1 0 0-253 126.5 126.5 0 0 0 0 253Z"/>
      <path stroke="#fff" stroke-opacity=".2" stroke-width="7" d="M695.5 189.5a295 295 0 1 1-590 0 295 295 0 0 1 590 0Z"/>
    </g>
    <path fill="#fff" d="M400.5 301a111.5 111.5 0 1 0 0-223 111.5 111.5 0 0 0 0 223Z"/>
    <path fill="#B8A9A4" d="M400.5 284a94.5 94.5 0 1 0 0-189 94.5 94.5 0 0 0 0 189Z"/>
    <path fill="#fff" fill-opacity=".1" d="M400.4 95a94.5 94.5 0 0 0-87.6 130L454 111.7A93.6 93.6 0 0 0 400.4 95Z"/>
    <path fill="#fff" d="M372 197.2h6.2c1.6 0 4-.6 4-2.6s-2.4-2.9-4-2.9H372v5.5Zm0-9h6.2c2.5 0 3.3-1 3.3-2.3 0-1-.7-2.6-3.3-2.6H372v4.9Zm13.5-2.4c0 1.7-.8 3.2-2.7 4.1 2.5.8 3.4 3.4 3.4 4.8 0 4.7-3.6 6.3-8 6.3H368v-21.4h10c4.3 0 7.4 2 7.4 6.2m7.6-6.2h-4V201h4v-21.3Zm17.8 0h4v21.3h-2.5l-11.2-14.3v14.3h-4v-21.3h3.2l10.5 13.2v-13.2Zm17.2 4.5-4 9h8l-4-9Zm5.6 12.8h-11.1l-1.9 4h-4.3l9.5-21.3h4.4l9.6 21.3h-4.4l-1.8-4Zm22.2 4.1v-8.6h-10.5v8.6h-4v-21.3h4v9h10.5v-9h4V201h-4Zm-107.5-21.4h-6.7v14h6.7v-14Zm7.3 0H349v14h6.7v-14Zm7.4 0h-6.7v6.8h6.7v-6.8Zm0 7.4h-6.7v14h6.7v-14Zm-7.4 7.3h-14v6.7h14v-6.7Z"/>
    <path fill="#fff" fill-opacity=".3" d="M187.6 173.8a9.4 9.4 0 0 1-7.7 3.5 9.4 9.4 0 0 1-7.6-3.5 14.7 14.7 0 0 1-2.8-9.4c0-4 .9-7 2.8-9.4a9.3 9.3 0 0 1 7.6-3.5c3.3 0 5.8 1.2 7.7 3.5a14 14 0 0 1 2.9 9.4c0 4-1 7-2.9 9.4Zm-11.2-3.5a4 4 0 0 0 3.5 2 4 4 0 0 0 3.6-2c.9-1.4 1.3-3.3 1.3-5.9 0-2.6-.4-4.5-1.3-6a4 4 0 0 0-3.6-2 4 4 0 0 0-3.5 2c-.8 1.5-1.2 3.4-1.2 6s.4 4.5 1.2 6Zm21.8 6.7v-19.2a14.2 14.2 0 0 1-5.7 2.6v-5c2.3-.6 4.5-1.8 6.7-3.6h4.3V177h-5.3Z"/>
    <path fill="#fff" d="M148.8 201h-2.2l-2.8-4.8h-2.1v4.8h-1.9v-11.2h4.2c1 0 2 .3 2.6.9a3 3 0 0 1 1 2.3 3.1 3.1 0 0 1-2 3l3.2 5Zm-7.1-9.6v3.2h2c.7 0 1.1-.1 1.5-.4.3-.3.5-.7.5-1.2s-.2-.9-.5-1.2c-.4-.2-.8-.4-1.5-.4h-2Zm8.4 9.6v-11.2h7.3v1.6h-5.5v2.8h4.4v1.7H152v3.5h5.7v1.6H150Zm12.8.1c-1.1 0-2-.3-2.9-1a4 4 0 0 1-1.4-2.5l1.7-.5c.1.7.4 1.3.9 1.7.5.5 1 .7 1.7.7s1.2-.1 1.6-.4c.4-.3.6-.7.6-1.2 0-.4-.1-.7-.4-1a159.6 159.6 0 0 1-4-1.6c-.6-.3-1-.6-1.2-1a3 3 0 0 1-.5-1.6c0-1 .4-1.6 1.1-2.2.7-.5 1.6-.8 2.8-.8 1 0 2 .2 2.7.7a3 3 0 0 1 1.3 2l-1.7.8c0-.6-.4-1-.8-1.4-.4-.3-1-.5-1.5-.5-.7 0-1.1.1-1.5.4-.3.2-.5.6-.5 1 0 .3.1.6.4.8.4.3.7.4 1.2.5a14.9 14.9 0 0 1 3 1c.4.2.8.6 1 1 .4.6.5 1.2.5 1.9 0 1-.3 1.8-1 2.3-.8.6-1.9 1-3.1 1Zm5.8-.1v-11.2h1.9V201h-2Zm4 0v-11.2h3.6a5.5 5.5 0 0 1 5.7 5.6c0 1.8-.6 3.1-1.6 4.1a6 6 0 0 1-4.1 1.5h-3.5Zm2-1.6h1.5c1 0 2-.4 2.7-1 .8-.7 1.2-1.7 1.2-3s-.4-2.3-1.2-3a4 4 0 0 0-2.7-1h-1.6v8Zm9 1.6v-11.2h7.3v1.6h-5.5v2.8h4.4v1.7h-4.4v3.5h5.7v1.6h-7.5Zm9.2 0v-11.2h2l5 8.2v-8.2h1.9V201h-2l-5.1-8.2v8.2h-1.8Zm13.7 0v-9.6h-3.4v-1.6h8.7v1.6h-3.4v9.6h-1.9Zm6.6 0v-11.2h1.8V201h-1.8Zm11.6 0-1-2.6h-4.6l-1 2.6h-2l4.4-11.2h1.8l4.3 11.2h-2Zm-5-4.3h3.4l-1.7-4.4-1.7 4.4Zm8 4.3v-11.2h2v9.6h5.3v1.6h-7.2Z"/>
    <path fill="#fff" fill-opacity=".8" d="M144.3 217v-6.6h1.4v1.2a2 2 0 0 1 2-1.3c.5 0 1 .2 1.3.4.4.2.6.5.7 1 .2-.4.5-.7.9-1 .4-.2.8-.4 1.3-.4.7 0 1.3.3 1.7.7.4.4.6 1 .6 1.6v4.4h-1.4v-4c0-.5-.1-.8-.4-1-.2-.3-.5-.4-.9-.4-.5 0-.9.2-1.1.6-.3.3-.4.8-.4 1.5v3.3h-1.4v-4c0-.5-.2-.8-.4-1-.2-.3-.5-.4-1-.4-.4 0-.8.2-1 .6-.3.3-.5.9-.5 1.5v3.3h-1.4Zm14-6.7a3 3 0 0 1 2.1.7c.5.5.8 1.1.8 2v4h-1.4v-1a2.5 2.5 0 0 1-2 1.1c-.7 0-1.2-.2-1.6-.5-.5-.4-.7-.9-.7-1.4 0-1.3 1-2 3-2.2l1.3-.1v-.1c0-.4-.1-.8-.4-1-.3-.2-.6-.3-1-.3s-.8 0-1 .3c-.3.2-.4.5-.5 1l-1.2-.3c0-.7.4-1.2.9-1.6.5-.4 1-.6 1.8-.6Zm-.3 5.7c.6 0 1-.2 1.3-.5.3-.3.5-.8.5-1.3v-.3l-1.3.1c-1 .2-1.6.5-1.6 1.1 0 .3.1.5.3.7l.8.2Zm5.8-6.6a.9.9 0 0 1-1-1l.3-.6c.2-.2.4-.3.7-.3.3 0 .5.1.7.3l.2.6c0 .3 0 .5-.2.7a1 1 0 0 1-.7.3Zm-1.5 10h-.4v-1.2h.2c.7 0 1-.4 1-1.2v-6.6h1.4v6.8c0 .7-.2 1.2-.6 1.6a2 2 0 0 1-1.6.7Zm6.9-2.3a3.3 3.3 0 0 1-3.4-3.4 3.3 3.3 0 0 1 3.4-3.4c1 0 1.8.4 2.4 1 .6.6 1 1.4 1 2.4s-.4 1.8-1 2.5c-.6.6-1.4.9-2.4.9Zm-1.4-1.8c.3.4.8.6 1.4.6.6 0 1-.2 1.4-.6.3-.4.5-1 .5-1.6 0-.6-.2-1.1-.5-1.5-.4-.4-.8-.6-1.4-.6-.6 0-1 .2-1.4.6a2 2 0 0 0-.6 1.5c0 .7.2 1.2.6 1.6Zm10.1-3.5a2 2 0 0 0-.8-.1c-.5 0-1 .2-1.3.7-.3.5-.5 1.2-.5 2.2v2.4h-1.4v-6.6h1.4v1.3c.2-.4.4-.7.8-1a2 2 0 0 1 2-.2l-.2 1.3Zm4.2 7.6v-9h1.5v.9c.2-.3.4-.5.8-.7l1.2-.3c1 0 1.7.4 2.3 1 .5.6.8 1.4.8 2.4s-.3 1.8-.9 2.5a3 3 0 0 1-2.3.9c-.4 0-.8 0-1.1-.2a2 2 0 0 1-.8-.7v3.2H182Zm1.9-4.1c.3.4.8.6 1.4.6.5 0 1-.2 1.3-.6.4-.4.6-1 .6-1.6a2 2 0 0 0-.6-1.5c-.3-.4-.8-.6-1.3-.6-.6 0-1 .2-1.4.6-.4.4-.5.9-.5 1.5 0 .7.1 1.2.5 1.6Zm10-3.5a2 2 0 0 0-.8-.1c-.5 0-1 .2-1.3.7-.3.5-.5 1.2-.5 2.2v2.4H190v-6.6h1.4v1.3l.8-1a2 2 0 0 1 2-.2l-.1 1.3Zm4 5.3c-1 0-1.9-.3-2.5-1-.6-.6-1-1.4-1-2.4a3.3 3.3 0 0 1 3.4-3.4c1 0 1.8.4 2.4 1 .7.6 1 1.4 1 2.4s-.3 1.8-1 2.5c-.6.6-1.4.9-2.4.9Zm-1.5-1.8c.4.4.8.6 1.4.6.6 0 1-.2 1.4-.6.4-.4.6-1 .6-1.6a2 2 0 0 0-.6-1.5c-.3-.4-.8-.6-1.4-.6-.6 0-1 .2-1.4.6-.4.4-.5.9-.5 1.5 0 .7.1 1.2.5 1.6Zm6.9-6a.9.9 0 0 1-1-.9l.3-.6c.2-.2.4-.3.7-.3.2 0 .5.1.6.3l.3.6c0 .3 0 .5-.3.7-.1.2-.4.3-.6.3Zm-1.5 10.2h-.4v-1.3h.2c.7 0 1-.4 1-1.2v-6.6h1.4v6.8c0 .7-.2 1.2-.6 1.6a2 2 0 0 1-1.6.7Zm9.9-6v.6h-5c0 .5.2 1 .6 1.3.3.3.8.5 1.3.5.4 0 .8-.1 1-.3.3-.2.5-.5.6-.8l1.3.3c-.1.6-.5 1.1-1 1.5a4 4 0 0 1-2 .5 3 3 0 0 1-2.3-1 3.6 3.6 0 0 1 0-4.8 3 3 0 0 1 2.3-1c1 0 1.8.4 2.3 1 .6.6.9 1.3.9 2.2Zm-5-.5h3.5c0-.5-.2-.8-.5-1.1-.3-.3-.7-.4-1.2-.4s-.8.1-1.2.4a2 2 0 0 0-.6 1Zm9.3 4.1a3 3 0 0 1-2.4-1c-.6-.6-1-1.4-1-2.4s.4-1.8 1-2.4c.6-.6 1.4-1 2.4-1 .8 0 1.4.2 2 .6.5.4.8 1 1 1.7l-1.4.2-.6-.9c-.2-.2-.6-.3-1-.3-.6 0-1 .2-1.4.6-.3.4-.5.9-.5 1.5 0 .7.2 1.2.5 1.6.4.4.8.6 1.4.6.4 0 .8-.1 1-.4.3-.2.5-.5.6-.9l1.4.3a3 3 0 0 1-1 1.6c-.6.4-1.2.6-2 .6Zm7.9-.2c-.4.2-.7.2-1 .2-.7 0-1.3-.2-1.7-.5-.3-.4-.5-1-.5-1.7v-3.2h-1.2v-1.3h1.2v-1.9h1.4v2h1.7v1.2h-1.7v3.2c0 .3 0 .5.2.7.2.2.4.2.7.2l.8-.1v1.2Zm3.6.2a3 3 0 0 1-1.8-.6c-.5-.3-.8-.8-1-1.3l1.2-.5c.2.8.8 1.3 1.6 1.3.3 0 .6-.1.8-.3.2-.1.3-.3.3-.6l-.3-.6c-.3-.1-.6-.3-1-.3l-1-.3a2 2 0 0 1-1-.6c-.2-.3-.3-.7-.3-1.2s.2-1 .6-1.2c.4-.4 1-.6 1.7-.6a3 3 0 0 1 1.6.5c.5.3.8.7 1 1.2l-1.2.4-.5-.7-.9-.3-.7.2c-.2.1-.3.3-.3.5s.1.4.4.5c.2.2.5.3.9.3l1 .3 1 .7c.2.3.4.7.4 1.2 0 .6-.3 1-.7 1.4-.5.4-1 .6-1.8.6Zm-72.2 6.3v6.6H154v-1a2.5 2.5 0 0 1-2.1 1.1c-.8 0-1.3-.2-1.8-.6-.4-.5-.6-1-.6-1.7v-4.4h1.4v4c0 .5.1.8.4 1 .2.3.5.4 1 .4s1-.2 1.2-.6c.3-.5.5-1 .5-1.9v-2.9h1.4Zm1.7 9v-9h1.4v.9l.8-.7 1.2-.3c1 0 1.8.4 2.3 1 .6.6.8 1.4.8 2.4s-.3 1.8-.8 2.5a3 3 0 0 1-2.3.9c-.4 0-.8 0-1.2-.2a2 2 0 0 1-.8-.7v3.2h-1.4Zm1.8-4.1c.4.4.8.6 1.4.6.6 0 1-.2 1.4-.6.3-.4.5-1 .5-1.6 0-.6-.2-1.1-.5-1.5-.4-.4-.8-.6-1.4-.6-.6 0-1 .2-1.4.6-.3.4-.5.9-.5 1.5 0 .7.2 1.2.5 1.6Zm12.9 1.6c-.3.2-.7.2-1 .2-.7 0-1.2-.2-1.6-.5-.4-.4-.6-1-.6-1.7v-3.2h-1.2v-1.3h1.2v-1.9h1.4v2h1.7v1.2H170v3.2c0 .3 0 .5.2.7.2.2.4.2.7.2l.8-.1v1.2Zm4 .2c-1 0-1.7-.3-2.4-1-.6-.6-1-1.4-1-2.4a3.3 3.3 0 0 1 3.5-3.4c1 0 1.7.4 2.4 1 .6.6 1 1.4 1 2.4s-.4 1.8-1 2.5c-.7.6-1.5.9-2.4.9Zm-1.4-1.8a2 2 0 0 0 2.9 0c.3-.4.5-1 .5-1.6 0-.6-.2-1.1-.5-1.5a2 2 0 0 0-1.4-.6c-.6 0-1 .2-1.5.6-.3.4-.5.9-.5 1.5 0 .7.2 1.2.5 1.6Zm15.7-.8c0 .7-.3 1.3-.8 1.7-.5.5-1.1.8-2 .9v1.3h-1.2v-1.3c-.8-.2-1.4-.5-2-1a4 4 0 0 1-1-1.8l1.5-.5c0 .6.3 1 .7 1.4.4.4.9.6 1.4.6.6 0 1-.1 1.3-.4.3-.2.5-.5.5-1a1 1 0 0 0-.4-.7 139.4 139.4 0 0 1-3.3-1.3c-.3-.2-.7-.5-.9-.9-.2-.3-.4-.7-.4-1.3 0-.6.3-1.1.7-1.6.5-.4 1.1-.7 1.9-.8v-1.2h1.3v1.2c.6.2 1.2.4 1.7.8s.7.9.9 1.5l-1.4.5c-.1-.4-.3-.8-.7-1a2 2 0 0 0-1.2-.5 2 2 0 0 0-1.2.3 1 1 0 0 0-.4.8c0 .3 0 .6.3.7.3.2.6.4 1 .4a12 12 0 0 1 2.4.9c.3.1.6.4.9.8.2.4.4.9.4 1.5Zm.8 2.5v-1.3l3.3-2.8c1-.8 1.4-1.6 1.4-2.3 0-.4-.1-.8-.4-1-.3-.3-.6-.5-1.1-.5-.6 0-1 .2-1.3.6a2 2 0 0 0-.4 1.5H191c-.1-1 .2-1.8.7-2.5a3 3 0 0 1 2.4-.9c1 0 1.7.3 2.2.8.6.5.9 1.2.9 2a3 3 0 0 1-.5 1.7l-1.6 1.6-2 1.8h4v1.3H191Zm11 .1c-1 0-2-.4-2.6-1.3-.6-.8-1-2-1-3.4s.4-2.5 1-3.3c.7-.9 1.5-1.3 2.7-1.3a3 3 0 0 1 2.6 1.3c.7.8 1 2 1 3.3 0 1.5-.3 2.6-1 3.4a3 3 0 0 1-2.6 1.3Zm0-1.3c.7 0 1.2-.3 1.6-1 .4-.5.5-1.3.5-2.4 0-1-.1-1.8-.5-2.4-.4-.6-.9-.9-1.5-.9-.7 0-1.2.3-1.6 1-.3.5-.5 1.3-.5 2.3 0 1 .2 2 .5 2.5.4.6 1 .9 1.6.9Zm8.3 1.3c-1.2 0-2-.4-2.7-1.3-.6-.8-1-2-1-3.4s.4-2.5 1-3.3c.7-.9 1.5-1.3 2.7-1.3a3 3 0 0 1 2.6 1.3c.6.8 1 2 1 3.3 0 1.5-.4 2.6-1 3.4a3 3 0 0 1-2.6 1.3Zm0-1.3c.6 0 1.1-.3 1.5-1 .4-.5.5-1.3.5-2.4 0-1-.1-1.8-.5-2.4-.4-.6-.9-.9-1.5-.9-.7 0-1.2.3-1.6 1-.3.5-.5 1.3-.5 2.3 0 1 .2 2 .5 2.5.4.6.9.9 1.6.9Zm5 1.2v-9.1h1.7l3 7 2.8-7h1.8v9.1H223v-6.3l-2.6 6.3h-1.2l-2.6-6.3v6.3h-1.4Z"/>
    <path fill="#fff" fill-opacity=".3" d="M202.2 287.8a9.4 9.4 0 0 1-7.7 3.5 9.4 9.4 0 0 1-7.7-3.5 14.7 14.7 0 0 1-2.8-9.4c0-4 1-7 2.8-9.4a9.3 9.3 0 0 1 7.7-3.5c3.2 0 5.8 1.2 7.7 3.5 1.9 2.4 2.9 5.5 2.9 9.4 0 4-1 7-3 9.4Zm-11.2-3.5a4 4 0 0 0 3.5 2 4 4 0 0 0 3.6-2c.9-1.4 1.3-3.3 1.3-5.9 0-2.6-.4-4.5-1.3-6a4 4 0 0 0-3.6-2 4 4 0 0 0-3.5 2c-.9 1.5-1.3 3.4-1.3 6s.4 4.5 1.3 6Zm16.2 6.7v-4.5l8.8-7.3c2.5-2 3.7-3.9 3.7-5.5a3 3 0 0 0-1-2.4c-.6-.6-1.4-1-2.5-1-1.2 0-2.1.5-2.8 1.5a5 5 0 0 0-.8 3.7l-5.4-.3a8 8 0 0 1 2.3-6.8 9 9 0 0 1 6.7-2.9c2.8 0 5 .8 6.7 2.3a7.5 7.5 0 0 1 2.5 5.9c0 1.6-.5 3.1-1.5 4.6-1 1.5-2.5 3-4.7 4.7l-4 3.1h10.2v4.9h-18.2Z"/>
    <path fill="#fff" d="M165.6 315v-11.2h2.2l3.5 8.5 3.6-8.5h2.2V315h-1.8v-7.7L172 315h-1.5l-3.2-7.7v7.7h-1.8Zm13.7 0v-11.2h1.8V315h-1.8Zm12.6 0h-2l-2.7-4.4-2.8 4.4h-2l3.8-6-3.3-5.2h2l2.3 3.6 2.2-3.6h2L188 309l3.8 6Zm1.3 0v-11.2h7.3v1.6H195v2.8h4.4v1.7H195v3.5h5.6v1.6h-7.4Zm9.2 0v-11.2h3.5a5.5 5.5 0 0 1 5.7 5.6c0 1.8-.6 3.1-1.6 4.1a6 6 0 0 1-4.1 1.5h-3.5Zm1.8-1.6h1.6c1 0 2-.4 2.7-1 .8-.7 1.2-1.7 1.2-3s-.4-2.3-1.2-3a4 4 0 0 0-2.7-1h-1.6v8Zm17.3 1.7c-1.4 0-2.4-.3-3.2-1a4 4 0 0 1-1.2-3v-7.3h1.8v7.2c0 .8.2 1.4.7 1.8.5.5 1 .7 1.9.7.7 0 1.4-.2 1.8-.7.5-.4.7-1 .7-1.8v-7.2h1.8v7.2a4 4 0 0 1-1.2 3c-.8.8-1.8 1.1-3.1 1.1Zm10 0c-1 0-2-.3-2.8-1a4 4 0 0 1-1.4-2.5l1.7-.5c.1.7.4 1.3.9 1.7.5.5 1 .7 1.8.7.6 0 1.1-.1 1.5-.4.4-.3.6-.7.6-1.2 0-.4-.1-.7-.4-1a169.9 169.9 0 0 1-4-1.6c-.5-.3-1-.6-1.2-1a3 3 0 0 1-.5-1.6c0-.9.4-1.6 1.1-2.2.7-.5 1.6-.8 2.8-.8 1 0 2 .2 2.7.7a3 3 0 0 1 1.3 2l-1.7.8c0-.6-.3-1-.8-1.4-.4-.3-1-.5-1.5-.5-.7 0-1.1.1-1.5.4-.3.2-.5.6-.5 1 0 .3.2.6.5.8.3.3.6.4 1 .5a14.9 14.9 0 0 1 3 1c.5.2.9.6 1.2 1 .3.6.4 1.2.4 1.9 0 1-.3 1.8-1 2.3-.8.6-1.9 1-3.1 1Zm5.9-.1v-11.2h7.3v1.6h-5.4v2.8h4.3v1.7h-4.3v3.5h5.6v1.6h-7.5Z"/>
    <path fill="#fff" fill-opacity=".3" d="M280.3 376.8a9.4 9.4 0 0 1-7.7 3.5 9.4 9.4 0 0 1-7.7-3.5 14.7 14.7 0 0 1-2.8-9.4c0-4 1-7 2.8-9.4a9.3 9.3 0 0 1 7.7-3.5c3.2 0 5.8 1.2 7.7 3.5 1.9 2.4 2.8 5.5 2.8 9.4 0 4-1 7-2.8 9.4Zm-11.3-3.5a4 4 0 0 0 3.6 2 4 4 0 0 0 3.6-2c.8-1.4 1.2-3.3 1.2-5.9 0-2.6-.4-4.5-1.2-6a4 4 0 0 0-3.6-2 4 4 0 0 0-3.6 2c-.8 1.5-1.2 3.4-1.2 6s.4 4.5 1.2 6Zm25.1 7a11 11 0 0 1-6.6-2 7.6 7.6 0 0 1-3-5.5l5.1-.9a4 4 0 0 0 1.6 2.6c.8.6 1.8.9 3 .9 1.1 0 2.1-.3 2.9-1 .7-.7 1.1-1.6 1.1-2.7 0-1-.4-2-1.1-2.6a4 4 0 0 0-2.9-1c-1 0-2 .2-2.9.8l-2.1-3.7 6.4-5.5h-10.4v-4.9h17v4.5l-6 5.2c2.3 0 4.1.6 5.5 2a7.1 7.1 0 0 1 2.2 5.4c0 2.5-.9 4.5-2.7 6a10.5 10.5 0 0 1-7 2.4Z"/>
    <path fill="#fff" d="m241.8 404-1-2.6h-4.6l-1 2.6h-2l4.4-11.2h1.7l4.4 11.2h-2Zm-5-4.3h3.4l-1.7-4.4-1.7 4.4Zm8 4.3v-11.2h7.5v1.6h-5.6v3h4.5v1.6h-4.5v5H245Zm9.1 0v-11.2h7.4v1.6h-5.5v3h4.5v1.6h-4.5v5h-1.9Zm17.7-1.5c-1 1-2.4 1.6-4 1.6s-3-.5-4-1.6c-1-1-1.6-2.4-1.6-4.1 0-1.7.5-3 1.6-4.1 1-1 2.4-1.6 4-1.6s3 .5 4 1.6c1 1 1.6 2.4 1.6 4.1 0 1.7-.5 3-1.6 4.1Zm-6.7-1.2c.7.8 1.6 1.2 2.7 1.2 1 0 2-.4 2.7-1.2.7-.7 1-1.7 1-2.9s-.3-2.2-1-3a3.4 3.4 0 0 0-2.7-1.1c-1 0-2 .4-2.7 1.2-.7.7-1 1.7-1 2.9s.3 2.2 1 3Zm19 2.7h-2.2l-2.8-4.8h-2v4.8h-2v-11.2h4.2c1.1 0 2 .3 2.6.9a3 3 0 0 1 1 2.3 3.1 3.1 0 0 1-1.9 3l3 5Zm-7-9.6v3.2h2c.6 0 1-.1 1.4-.4.3-.3.5-.7.5-1.2s-.2-.9-.5-1.2c-.4-.2-.8-.4-1.4-.4h-2Zm8.3 9.6v-11.2h3.5c1.6 0 3 .5 4 1.5 1.2 1 1.7 2.3 1.7 4.1 0 1.8-.5 3.1-1.6 4.1a6 6 0 0 1-4.1 1.5h-3.5Zm1.8-1.6h1.6c1 0 2-.4 2.8-1 .7-.7 1-1.7 1-3s-.3-2.3-1-3a4 4 0 0 0-2.8-1H287v8Zm16.2 1.6-1-2.6h-4.6l-1 2.6h-2l4.4-11.2h1.8L305 404h-1.9Zm-5-4.3h3.4l-1.7-4.4-1.7 4.4Zm8 4.3v-11.2h4.3a4 4 0 0 1 2.6.8c.6.5 1 1.2 1 2 0 .6-.2 1-.5 1.4-.3.4-.6.7-1 .9.6.2 1 .5 1.4 1 .4.5.6 1 .6 1.8a3 3 0 0 1-1 2.4c-.8.6-1.7.9-2.9.9h-4.4Zm2-6.7h2.2c1.2 0 1.8-.5 1.8-1.5s-.6-1.5-1.8-1.5h-2.2v3Zm0 5h2.3c1.5 0 2.2-.5 2.2-1.7 0-1.1-.7-1.7-2.2-1.7h-2.3v3.5Zm8 1.7v-11.2h2v9.6h5.3v1.6h-7.2Zm8.6 0v-11.2h7.3v1.6h-5.4v2.8h4.3v1.7h-4.3v3.5h5.6v1.6h-7.5Zm-69.1 7.8h1.9V423h-1.9v-5h-5.3v5h-1.9v-11.2h2v4.5h5.2v-4.5Zm13.2 9.7c-1 1-2.4 1.6-4 1.6s-3-.5-4-1.6c-1-1-1.6-2.4-1.6-4.1 0-1.7.5-3 1.6-4.1 1-1 2.4-1.6 4-1.6s3 .5 4 1.6c1 1 1.6 2.4 1.6 4.1 0 1.7-.5 3-1.6 4.1Zm-6.7-1.2c.7.8 1.6 1.2 2.7 1.2 1 0 2-.4 2.7-1.2.7-.7 1-1.7 1-2.9s-.3-2.2-1-3a3.4 3.4 0 0 0-2.7-1.1c-1 0-2 .4-2.7 1.2-.7.7-1 1.7-1 2.9s.3 2.2 1 3Zm14.4 2.8c-1.3 0-2.4-.3-3.2-1a4 4 0 0 1-1.2-3v-7.3h1.8v7.2c0 .8.2 1.4.7 1.8.5.5 1.1.7 1.9.7.8 0 1.4-.2 1.8-.7.5-.4.7-1 .7-1.8v-7.2h1.8v7.2a4 4 0 0 1-1.2 3c-.8.8-1.8 1.1-3.1 1.1Zm10.1 0c-1 0-2-.3-2.9-1a4 4 0 0 1-1.4-2.5l1.7-.5c.1.7.4 1.3.9 1.7.5.5 1 .7 1.8.7.6 0 1.1-.1 1.5-.4.4-.3.7-.7.7-1.2 0-.4-.2-.7-.5-1-.3-.3-.7-.5-1.1-.6a159.6 159.6 0 0 1-3-1l-1.1-1a3 3 0 0 1-.5-1.6c0-.9.4-1.6 1.1-2.2.7-.5 1.7-.8 2.8-.8 1 0 2 .2 2.7.7a3 3 0 0 1 1.3 2l-1.7.8c0-.6-.3-1-.8-1.4-.4-.3-1-.5-1.5-.5-.6 0-1.1.1-1.5.4-.3.2-.5.6-.5 1 0 .3.2.6.5.8.3.3.6.4 1.1.5a15 15 0 0 1 3 1c.4.2.8.6 1 1 .4.6.6 1.2.6 1.9 0 1-.4 1.8-1.2 2.3-.7.6-1.7 1-3 1Zm5.8-.1v-11.2h1.9V423h-1.9Zm4 0v-11.2h2l5.2 8.2v-8.2h1.8V423h-2l-5.1-8.2v8.2h-1.8Zm16.1.1a5 5 0 0 1-4.7-2.6 7 7 0 0 1-.7-3.1c0-1.8.5-3.2 1.6-4.2 1-1 2.4-1.5 4-1.5a5 5 0 0 1 3.2 1c.9.6 1.4 1.5 1.7 2.6l-1.9.4c-.1-.7-.5-1.3-1-1.7a3 3 0 0 0-2-.7c-1.2 0-2 .4-2.7 1-.7.8-1 1.8-1 3.1s.3 2.3 1 3c.7.7 1.5 1 2.6 1 1 0 1.7-.2 2.2-.7a3 3 0 0 0 1-2h-3.6V417h5.3v5.9H316v-1.5c-.2.5-.7.9-1.3 1.2-.6.3-1.2.4-2 .4Z"/>
    <path fill="#fff" fill-opacity=".3" d="M393.1 421.8a9.4 9.4 0 0 1-7.7 3.5 9.4 9.4 0 0 1-7.6-3.5 14.7 14.7 0 0 1-2.8-9.4c0-4 .9-7 2.8-9.4a9.3 9.3 0 0 1 7.6-3.5c3.3 0 5.8 1.2 7.7 3.5a14 14 0 0 1 2.9 9.4c0 4-1 7-2.9 9.4Zm-11.2-3.5a4 4 0 0 0 3.5 2 4 4 0 0 0 3.6-2c.9-1.4 1.3-3.3 1.3-5.9 0-2.6-.4-4.5-1.3-6a4 4 0 0 0-3.6-2 4 4 0 0 0-3.5 2c-.8 1.5-1.2 3.4-1.2 6s.4 4.5 1.2 6Zm28.5 6.7v-4.8H398v-4.9l12-15.5h6.1v15.5h3v4.9h-3v4.8h-5.7Zm-6.5-9.7h6.5v-8.6l-6.5 8.6Z"/>
    <path fill="#fff" d="M375.7 437.8h1.9V449h-2v-5h-5.2v5h-1.9v-11.2h2v4.5h5.2v-4.5Zm13.2 9.7c-1 1-2.4 1.6-4 1.6s-3-.5-4-1.6c-1-1-1.6-2.4-1.6-4.1 0-1.7.5-3 1.6-4.1 1-1 2.4-1.6 4-1.6s3 .5 4 1.6c1 1 1.6 2.4 1.6 4.1 0 1.7-.5 3-1.6 4.1Zm-6.7-1.2c.7.8 1.6 1.2 2.7 1.2 1 0 2-.4 2.6-1.2.7-.7 1.1-1.7 1.1-2.9s-.4-2.2-1-3a3.4 3.4 0 0 0-2.7-1.1c-1 0-2 .4-2.7 1.2-.7.7-1 1.7-1 2.9s.3 2.2 1 3Zm12 2.7v-9.6h-3.5v-1.6h8.8v1.6H396v9.6h-1.9Zm6.5 0v-11.2h7.3v1.6h-5.5v2.8h4.4v1.7h-4.4v3.5h5.7v1.6h-7.5Zm9.2 0v-11.2h1.8v9.6h5.4v1.6h-7.2Zm12 .1c-1.1 0-2-.3-2.9-1a4 4 0 0 1-1.4-2.5l1.7-.5c0 .7.4 1.3.9 1.7.5.5 1 .7 1.7.7s1.2-.1 1.6-.4c.4-.3.6-.7.6-1.2 0-.4-.1-.7-.4-1a169.9 169.9 0 0 1-4-1.6c-.6-.3-1-.6-1.3-1a3 3 0 0 1-.4-1.6 3 3 0 0 1 1-2.2c.8-.5 1.7-.8 2.8-.8 1 0 2 .2 2.7.7a3 3 0 0 1 1.4 2l-1.7.8c-.1-.6-.4-1-.8-1.4-.4-.3-1-.5-1.6-.5-.6 0-1 .1-1.4.4-.3.2-.5.6-.5 1 0 .3.1.6.4.8.3.3.7.4 1.2.5a14.9 14.9 0 0 1 3 1c.4.2.8.6 1 1 .4.6.5 1.2.5 1.9 0 1-.4 1.8-1.1 2.3a5 5 0 0 1-3 1Z"/>
    <path fill="#fff" fill-opacity=".3" d="M512.1 376.8a9.4 9.4 0 0 1-7.7 3.5 9.4 9.4 0 0 1-7.6-3.5 14.7 14.7 0 0 1-2.8-9.4c0-4 .9-7 2.8-9.4a9.3 9.3 0 0 1 7.6-3.5c3.3 0 5.8 1.2 7.7 3.5a14 14 0 0 1 2.9 9.4c0 4-1 7-2.9 9.4Zm-11.2-3.5a4 4 0 0 0 3.5 2 4 4 0 0 0 3.6-2c.9-1.4 1.3-3.3 1.3-5.9 0-2.6-.4-4.5-1.3-6a4 4 0 0 0-3.6-2 4 4 0 0 0-3.5 2c-.8 1.5-1.2 3.4-1.2 6s.4 4.5 1.2 6Zm25.8 7c-2.5 0-4.6-.6-6.3-2a7.8 7.8 0 0 1-3.1-5l5-1a4 4 0 0 0 4.2 3c1.2 0 2.1-.3 2.8-1a4 4 0 0 0 1-2.8c0-1.2-.3-2.1-1-2.8-.8-.7-1.8-1-3-1a5 5 0 0 0-4.3 2.2l-4.2-.8 2.2-14.3h14v4.9h-10l-.8 5.2a6.5 6.5 0 0 1 4.5-1.6 8 8 0 0 1 6 2.3 8 8 0 0 1 2.2 5.9c0 2.6-.8 4.8-2.5 6.4a9.4 9.4 0 0 1-6.8 2.4Z"/>
    <path fill="#fff" d="M471.7 404v-11.2h1.9V404h-1.9Zm4 0v-11.2h2l5.2 8.2v-8.2h1.8V404h-2l-5.1-8.2v8.2h-1.8Zm11.2 0v-11.2h3.5c1.7 0 3 .5 4.1 1.5 1 1 1.6 2.3 1.6 4.1 0 1.8-.5 3.1-1.6 4.1-1 1-2.4 1.5-4 1.5h-3.6Zm1.8-1.6h1.6c1.1 0 2-.4 2.8-1 .7-.7 1.1-1.7 1.1-3s-.4-2.3-1.1-3a4 4 0 0 0-2.8-1h-1.6v8Zm13.5 1.7c-1.4 0-2.4-.3-3.2-1a4 4 0 0 1-1.2-3v-7.3h1.8v7.2c0 .8.2 1.4.7 1.8.5.5 1 .7 1.9.7.7 0 1.4-.2 1.8-.7.5-.4.7-1 .7-1.8v-7.2h1.8v7.2a4 4 0 0 1-1.2 3c-.8.8-1.8 1.1-3.1 1.1Zm10 0c-1 0-2-.3-2.8-1a4 4 0 0 1-1.4-2.5l1.7-.5c.1.7.4 1.3.9 1.7.5.5 1 .7 1.7.7s1.2-.1 1.6-.4c.4-.3.6-.7.6-1.2 0-.4-.1-.7-.4-1a159.6 159.6 0 0 1-4-1.6c-.6-.3-1-.6-1.2-1a3 3 0 0 1-.5-1.6c0-.9.4-1.6 1.1-2.2.7-.5 1.6-.8 2.8-.8 1 0 2 .2 2.7.7a3 3 0 0 1 1.3 2l-1.7.8c0-.6-.4-1-.8-1.4-.4-.3-1-.5-1.5-.5-.7 0-1.1.1-1.5.4-.3.2-.5.6-.5 1 0 .3.1.6.4.8.4.3.7.4 1.2.5a15 15 0 0 1 3 1c.4.2.8.6 1 1 .4.6.5 1.2.5 1.9 0 1-.3 1.8-1 2.3-.9.6-1.9 1-3.1 1Zm8.2-.1v-9.6H517v-1.6h8.8v1.6h-3.5v9.6h-1.9Zm15.5 0h-2.1l-2.9-4.8h-2v4.8H527v-11.2h4.2c1 0 2 .3 2.6.9a3 3 0 0 1 1 2.3 3.1 3.1 0 0 1-2 3l3.1 5Zm-7-9.6v3.2h2c.6 0 1.1-.1 1.4-.4.4-.3.6-.7.6-1.2s-.2-.9-.6-1.2c-.3-.2-.8-.4-1.4-.4h-2Zm8.3 9.6v-11.2h2V404h-2Zm11.7 0-1-2.6h-4.6l-1 2.6h-2l4.4-11.2h1.7l4.4 11.2h-2Zm-5-4.3h3.4l-1.7-4.4-1.7 4.4Zm8 4.3v-11.2h2v9.6h5.3v1.6H552Z"/>
    <path fill="#fff" fill-opacity=".3" d="M587.4 287.8a9.4 9.4 0 0 1-7.7 3.5 9.4 9.4 0 0 1-7.6-3.5 14.7 14.7 0 0 1-2.9-9.4c0-4 1-7 2.9-9.4a9.3 9.3 0 0 1 7.6-3.5c3.2 0 5.8 1.2 7.7 3.5a14 14 0 0 1 2.9 9.4c0 4-1 7-3 9.4Zm-11.2-3.5a4 4 0 0 0 3.5 2 4 4 0 0 0 3.6-2c.9-1.4 1.3-3.3 1.3-5.9 0-2.6-.4-4.5-1.3-6a4 4 0 0 0-3.6-2 4 4 0 0 0-3.5 2c-.9 1.5-1.3 3.4-1.3 6s.4 4.5 1.3 6Zm27.2-10.3c2.6 0 4.7.8 6.3 2.4a8.3 8.3 0 0 1 2.5 6.2 8 8 0 0 1-2.8 6.2 10 10 0 0 1-7 2.5 8.8 8.8 0 0 1-7-3.3 12.9 12.9 0 0 1-2.8-8.6c0-2.3.4-4.3 1-6.1.7-1.8 1.6-3.3 2.7-4.4a11.7 11.7 0 0 1 8.4-3.4c3 0 5.5 1 7.5 2.7l-2.5 4a7.4 7.4 0 0 0-4.9-1.8 6.7 6.7 0 0 0-6.8 6.2c1.2-1.8 3-2.6 5.4-2.6Zm-.8 12.4c1.2 0 2.1-.4 2.9-1.2.7-.7 1.1-1.7 1.2-3 0-1-.4-2-1.1-2.8a4 4 0 0 0-3-1.1 4 4 0 0 0-3 1.1c-.7.8-1.1 1.7-1.1 2.9a4 4 0 0 0 1.1 3 4 4 0 0 0 3 1Z"/>
    <path fill="#fff" d="M544.7 315.1a6 6 0 0 1-2.7-.6 5 5 0 0 1-2-2 6 6 0 0 1-.8-3.1c0-1.8.5-3.2 1.6-4.2 1-1 2.4-1.5 4-1.5a5 5 0 0 1 3.2 1c.8.6 1.4 1.5 1.6 2.6l-1.9.4a3 3 0 0 0-1-1.7 3 3 0 0 0-2-.7c-1 0-2 .4-2.6 1-.6.8-1 1.8-1 3.1s.3 2.3 1 3c.7.7 1.5 1 2.6 1a3 3 0 0 0 2-.5c.5-.4.8-1 1-1.7l1.9.4c-.3 1.1-.9 2-1.7 2.6-.9.6-2 1-3.2 1Zm15.7-1.6c-1 1-2.4 1.6-4 1.6s-3-.5-4-1.6a5.3 5.3 0 0 1-1.6-4.1c0-1.7.5-3 1.6-4.1 1-1 2.4-1.6 4-1.6s3 .5 4 1.6c1 1 1.6 2.4 1.6 4.1 0 1.7-.6 3-1.6 4.1Zm-6.7-1.2c.7.8 1.6 1.2 2.7 1.2 1 0 2-.4 2.6-1.2.7-.7 1-1.7 1-2.9s-.3-2.2-1-3a3.4 3.4 0 0 0-2.6-1.1c-1.1 0-2 .4-2.7 1.2-.7.7-1 1.7-1 2.9s.3 2.2 1 3Zm10 2.7v-11.2h2.1l3.6 8.5 3.6-8.5h2.1V315h-1.7v-7.7l-3.2 7.7h-1.5l-3.2-7.7v7.7h-1.8Zm13.6 0v-11.2h2.2l3.6 8.5 3.5-8.5h2.2V315H587v-7.7l-3.2 7.7h-1.4l-3.3-7.7v7.7h-1.8Zm13.7 0v-11.2h7.3v1.6H593v2.8h4.4v1.7H593v3.5h5.6v1.6H591Zm18.2 0H607l-2.8-4.8H602v4.8h-1.9v-11.2h4.2c1 0 2 .3 2.6.9a3 3 0 0 1 1 2.3 3.1 3.1 0 0 1-2 3l3.2 5Zm-7.1-9.6v3.2h2c.7 0 1.1-.1 1.5-.4.3-.3.5-.7.5-1.2s-.2-.9-.5-1.2c-.4-.2-.8-.4-1.5-.4h-2Zm12.8 9.7a6 6 0 0 1-2.7-.6 5 5 0 0 1-2-2 6 6 0 0 1-.8-3.1c0-1.8.6-3.2 1.6-4.2 1.1-1 2.4-1.5 4-1.5a5 5 0 0 1 3.2 1 4 4 0 0 1 1.6 2.6l-1.9.4a3 3 0 0 0-1-1.7 3 3 0 0 0-2-.7 4 4 0 0 0-2.6 1c-.6.8-1 1.8-1 3.1s.4 2.3 1 3c.7.7 1.6 1 2.6 1a3 3 0 0 0 2-.5c.5-.4.8-1 1-1.7l1.9.4c-.3 1.1-.9 2-1.7 2.6-.9.6-2 1-3.2 1Zm6.4-.1v-11.2h1.8V315h-1.8Zm11.6 0-1-2.6h-4.6l-1 2.6h-2l4.4-11.2h1.8l4.3 11.2h-2Zm-5-4.3h3.4l-1.7-4.4-1.7 4.4Zm8 4.3v-11.2h2v9.6h5.3v1.6H636Zm-62.3 17.5c-1 1-2.3 1.6-4 1.6-1.6 0-3-.5-4-1.6-1-1-1.6-2.4-1.6-4.1 0-1.7.6-3 1.6-4.1 1-1 2.4-1.6 4-1.6a5 5 0 0 1 4 1.6c1.1 1 1.6 2.4 1.6 4.1 0 1.7-.5 3-1.6 4.1Zm-6.6-1.2c.7.8 1.6 1.2 2.6 1.2 1.1 0 2-.4 2.7-1.2.7-.7 1-1.7 1-2.9s-.3-2.2-1-3a3.4 3.4 0 0 0-2.7-1.1c-1 0-2 .4-2.6 1.2-.7.7-1 1.7-1 2.9s.3 2.2 1 3Zm10 2.7v-11.2h7.4v1.6h-5.6v3h4.5v1.6h-4.5v5H577Zm9 0v-11.2h7.4v1.6H588v3h4.5v1.6H588v5h-2Zm9 0v-11.2h2V334h-2Zm9.2.1a6 6 0 0 1-2.8-.6 5 5 0 0 1-2-2 6 6 0 0 1-.7-3.1c0-1.8.5-3.2 1.6-4.2 1-1 2.3-1.5 3.9-1.5 1.3 0 2.3.3 3.2 1a4 4 0 0 1 1.6 2.6l-1.8.4a3 3 0 0 0-1-1.7 3 3 0 0 0-2-.7c-1.1 0-2 .4-2.6 1-.7.8-1 1.8-1 3.1s.3 2.3 1 3c.6.7 1.5 1 2.6 1a3 3 0 0 0 1.9-.5c.5-.4.9-1 1-1.7l2 .4c-.4 1.1-1 2-1.8 2.6-.8.6-1.9 1-3.1 1Zm6.3-.1v-11.2h7.3v1.6h-5.4v2.8h4.3v1.7h-4.3v3.5h5.6v1.6h-7.5Z"/>
    <path fill="#fff" fill-opacity=".3" d="M607.4 173.8a9.4 9.4 0 0 1-7.7 3.5 9.4 9.4 0 0 1-7.7-3.5 14.7 14.7 0 0 1-2.8-9.4c0-4 1-7 2.8-9.4a9.3 9.3 0 0 1 7.7-3.5c3.2 0 5.8 1.2 7.7 3.5 1.9 2.4 2.8 5.5 2.8 9.4 0 4-1 7-2.8 9.4Zm-11.3-3.5a4 4 0 0 0 3.6 2 4 4 0 0 0 3.6-2c.8-1.4 1.3-3.3 1.3-5.9 0-2.6-.5-4.5-1.3-6a4 4 0 0 0-3.6-2 4 4 0 0 0-3.6 2c-.8 1.5-1.2 3.4-1.2 6s.4 4.5 1.2 6Zm17.2 6.7c.8-5.9 4.1-12.7 10-20.3h-12.6v-4.9h18.4v4.9a47 47 0 0 0-10 20.3h-5.8Z"/>
    <path fill="#fff" d="M530.7 201v-11.2h1.8v9.6h5.4v1.6h-7.2Zm12.4.1c-1.3 0-2.4-.3-3.2-1a4 4 0 0 1-1.2-3v-7.3h1.8v7.2c0 .8.2 1.4.7 1.8.5.5 1 .7 1.9.7.8 0 1.4-.2 1.8-.7.5-.4.7-1 .7-1.8v-7.2h1.8v7.2a4 4 0 0 1-1.2 3c-.8.8-1.8 1.1-3.1 1.1Zm14.9-.1h-2l-2.8-4.4-2.7 4.4h-2l3.7-6-3.2-5.2h2l2.2 3.6 2.3-3.6h2l-3.3 5.2 3.8 6Zm5.4.1c-1.3 0-2.4-.3-3.2-1a4 4 0 0 1-1.2-3v-7.3h1.8v7.2c0 .8.3 1.4.7 1.8.5.5 1.1.7 1.9.7.8 0 1.4-.2 1.9-.7.4-.4.7-1 .7-1.8v-7.2h1.7v7.2a4 4 0 0 1-1.1 3c-.8.8-1.9 1.1-3.2 1.1Zm15.5-.1h-2.2l-2.8-4.8h-2v4.8h-2v-11.2h4.2c1.1 0 2 .3 2.6.9a3 3 0 0 1 1 2.3 3.1 3.1 0 0 1-1.9 3l3.1 5Zm-7-9.6v3.2h2c.6 0 1-.1 1.4-.4.3-.3.5-.7.5-1.2s-.2-.9-.5-1.2c-.3-.2-.8-.4-1.4-.4h-2Zm10.3 9.6v-4.7l-4-6.5h2.1l2.8 4.8 2.8-4.8h2l-3.9 6.5v4.7h-1.8Zm19.7 0h-2.2l-2.8-4.8h-2v4.8h-2v-11.2h4.2c1.1 0 2 .3 2.6.9a3 3 0 0 1 1 2.3 3.1 3.1 0 0 1-1.9 3l3 5Zm-7-9.6v3.2h2c.6 0 1-.1 1.4-.4.3-.3.5-.7.5-1.2s-.2-.9-.5-1.2c-.3-.2-.8-.4-1.4-.4h-2Zm8.3 9.6v-11.2h7.3v1.6h-5.4v2.8h4.3v1.7h-4.3v3.5h5.6v1.6h-7.5Zm12.8.1c-1 0-2-.3-2.8-1a4 4 0 0 1-1.5-2.5l1.7-.5c.1.7.4 1.3 1 1.7.4.5 1 .7 1.7.7.6 0 1.2-.1 1.6-.4.4-.3.6-.7.6-1.2 0-.4-.2-.7-.5-1-.3-.3-.7-.5-1.1-.6a159.6 159.6 0 0 1-3-1l-1.1-1a3 3 0 0 1-.5-1.6c0-1 .4-1.6 1.1-2.2.8-.5 1.7-.8 2.8-.8 1 0 2 .2 2.7.7a3 3 0 0 1 1.3 2l-1.6.8c-.2-.6-.4-1-.9-1.4-.4-.3-.9-.5-1.5-.5s-1.1.1-1.5.4c-.3.2-.5.6-.5 1 0 .3.2.6.5.8.3.3.7.4 1.1.5a14.9 14.9 0 0 1 3 1c.4.2.8.6 1.1 1 .3.6.5 1.2.5 1.9 0 1-.4 1.8-1.2 2.3-.7.6-1.7 1-3 1Zm5.8-.1v-11.2h1.9V201h-1.9Zm4 0v-11.2h3.6c1.7 0 3 .5 4 1.5 1.2 1 1.7 2.3 1.7 4.1 0 1.8-.5 3.1-1.6 4.1-1 1-2.4 1.5-4 1.5h-3.6Zm2-1.6h1.5c1 0 2-.4 2.8-1 .7-.7 1-1.7 1-3s-.3-2.3-1-3a4 4 0 0 0-2.8-1h-1.6v8Zm9 1.6v-11.2h7.3v1.6h-5.4v2.8h4.4v1.7h-4.4v3.5h5.6v1.6h-7.5Zm9.2 0v-11.2h2l5.1 8.2v-8.2h1.8V201h-2l-5.1-8.2v8.2H646Zm13.7 0v-9.6h-3.4v-1.6h8.8v1.6h-3.5v9.6h-1.9Zm6.6 0v-11.2h1.9V201h-2Zm11.6 0-1-2.6h-4.6l-1 2.6h-2l4.4-11.2h1.8l4.4 11.2h-2Zm-5-4.3h3.4l-1.7-4.4-1.7 4.4Zm8.1 4.3v-11.2h1.9v9.6h5.3v1.6H681Z"/>
    <path fill="#fff" fill-opacity=".8" d="M586.4 214.5c0 .7-.3 1.3-.8 1.7-.5.5-1.1.8-2 .9v1.3h-1.2v-1.3c-.8-.2-1.4-.5-2-1a4 4 0 0 1-1-1.8l1.5-.5c0 .6.3 1 .7 1.4.4.4.9.6 1.4.6.6 0 1-.1 1.3-.4.3-.2.5-.5.5-1a1 1 0 0 0-.4-.7 129 129 0 0 1-3.3-1.3l-1-.9c-.1-.3-.3-.7-.3-1.3 0-.6.3-1.1.7-1.6.5-.4 1.1-.7 1.9-.8v-1.2h1.3v1.2c.6.2 1.2.4 1.7.8.4.4.7.9.9 1.5l-1.4.5c-.1-.4-.3-.8-.7-1a2 2 0 0 0-1.3-.5 2 2 0 0 0-1.1.3 1 1 0 0 0-.4.8c0 .3 0 .6.3.7.3.2.6.4 1 .4a12.2 12.2 0 0 1 2.4.9c.3.1.6.4.9.8.2.4.4.9.4 1.5Zm2.8 2.5v-7.3c-.5.4-1.2.8-2 1v-1.4c.8-.2 1.6-.7 2.3-1.4h1.2v9.1h-1.5Zm6.1.1c-.9 0-1.6-.2-2.2-.7-.6-.4-1-1-1.1-1.8l1.4-.3c0 .5.3.8.6 1 .3.3.8.5 1.2.5a1.7 1.7 0 0 0 1.8-1.8c0-.6-.2-1-.5-1.3-.3-.4-.8-.5-1.4-.5a2 2 0 0 0-1.8 1l-1-.3.6-5h5v1.3H594l-.4 2.4c.5-.4 1-.7 1.8-.7a3 3 0 0 1 2.2.9c.6.5.9 1.3.9 2.2a3 3 0 0 1-1 2.2c-.5.6-1.3.9-2.3.9Zm4.1-3.2v-1.3h4v1.3h-4Zm11.6.6c0 .7-.2 1.3-.7 1.7-.5.5-1.1.8-2 .9v1.3H607v-1.3a5 5 0 0 1-1.9-1 4 4 0 0 1-1-1.8l1.5-.5c0 .6.3 1 .7 1.4.4.4.9.6 1.4.6.5 0 1-.1 1.3-.4.3-.2.5-.5.5-1a1 1 0 0 0-.4-.7 139.4 139.4 0 0 1-3.3-1.3c-.4-.2-.7-.5-1-.9-.2-.3-.3-.7-.3-1.3 0-.6.2-1.1.7-1.6.5-.4 1-.7 1.8-.8v-1.2h1.3v1.2a5 5 0 0 1 1.8.8c.4.4.7.9.8 1.5l-1.3.5c-.1-.4-.4-.8-.7-1a2 2 0 0 0-1.3-.5 2 2 0 0 0-1.1.3 1 1 0 0 0-.5.8c0 .3.2.6.4.7.3.2.6.4 1 .4a12 12 0 0 1 2.3.9c.4.1.7.4 1 .8.2.4.3.9.3 1.5Zm5.4 2.5v-2h-4.6v-1.4l4.5-5.7h1.7v5.7h1.2v1.4H618v2h-1.6Zm-3-3.4h3v-4l-3 4Zm10.3 3.5c-1.2 0-2-.4-2.7-1.3-.6-.8-1-2-1-3.4s.4-2.5 1-3.3c.7-.9 1.5-1.3 2.7-1.3a3 3 0 0 1 2.6 1.3c.7.8 1 2 1 3.3 0 1.5-.3 2.6-1 3.4a3 3 0 0 1-2.6 1.3Zm0-1.3c.6 0 1.1-.3 1.5-1 .4-.5.5-1.3.5-2.4 0-1-.1-1.8-.5-2.4-.4-.6-.9-.9-1.5-.9-.7 0-1.2.3-1.6 1-.3.5-.5 1.3-.5 2.3 0 1 .2 2 .5 2.5.4.6.9.9 1.6.9Zm5 1.2v-9.1h1.7l3 7 2.8-7h1.8v9.1h-1.5v-6.3L634 217h-1.2l-2.6-6.3v6.3h-1.4Z"/>
  </g>
  <rect width="384" height="52" x="208" fill="#6B717A" rx="26"/>
  <path fill="#fff" d="m256.8 15.3-3.4 1.7c-.8-1.3-2.9-2.5-5.3-2.5-3.2 0-4.7 1.3-4.7 3 0 2 2.3 2.5 5 2.8 4.7.6 9 1.8 9 7.1 0 5-4.4 7.2-9.4 7.2-4.5 0-8-1.4-9.7-5.5l3.5-1.9c1 2.5 3.6 3.6 6.3 3.6 2.7 0 5.2-1 5.2-3.4 0-2-2.2-3-5.2-3.3-4.6-.5-8.8-1.7-8.8-6.7 0-4.6 4.5-6.5 8.7-6.6 3.4 0 7 1 8.8 4.5ZM277 27.5h-12.3c.3 2 2 3.4 4.7 3.4 1.4 0 3.3-.6 4.2-1.5l2.5 2.5a9.7 9.7 0 0 1-6.8 2.5c-5.4 0-8.6-3.3-8.6-8.4 0-4.8 3.2-8.3 8.3-8.3 5.3 0 8.6 3.3 8 9.8Zm-12-3.2h8.5c-.3-2-1.9-3.1-4.1-3.1-2.1 0-3.9 1-4.4 3Zm26.1 5.1 2.7 2.6a8.1 8.1 0 0 1-6.1 2.5c-4.6 0-8.4-2.8-8.4-8.4 0-5.6 3.8-8.3 8.4-8.3 2.2 0 4 .6 5.7 2.3l-2.5 2.6c-1-.8-2-1.2-3.2-1.2-2.6 0-4.5 1.9-4.5 4.6 0 3 2 4.6 4.5 4.6 1.2 0 2.5-.3 3.4-1.3Zm6-15.2 3.9-.4v4.5h4.3v3.3h-4.4v6.8c0 1.5.9 2.3 2 2.3.7 0 1.4-.2 2-.5l1 3.3c-1 .5-2 .7-3.2.7-3.4.1-5.6-1.8-5.6-5.8v-6.8h-3v-3.3h3v-4.1Zm18.6 3.7a8 8 0 0 1 8.2 8.2c0 4.6-3 8.3-8.2 8.3-5.1 0-8.2-3.7-8.2-8.3a8 8 0 0 1 8.2-8.2Zm0 3.6c-2.8 0-4.3 2.3-4.3 4.6 0 2.4 1.5 4.7 4.3 4.7 2.9 0 4.3-2.3 4.3-4.7 0-2.3-1.7-4.6-4.3-4.6Zm11-3.3h3.5l.3 1.8c1.3-1.9 2.9-2.2 4.5-2.2a6 6 0 0 1 4 1.5l-1.7 3.4c-.8-.7-1.6-1-2.8-1-2 0-4 1-4 4V34h-3.9V18.2Zm29-6.6c7.8 0 11.2 5.5 11.3 11 0 5.7-3.4 11.4-11.2 11.4H347V11.6h8.8Zm-4.5 4v14.3h4.6c5 0 7-3.7 7-7.3-.1-3.5-2.2-7-7-7H351Zm22.2 2.6V34h-4V18.2h4Zm-4.3-4.4c0 3 4.6 3 4.6 0s-4.6-3-4.6 0Zm20 4.4h4.2L386.4 34h-4.2l-6.7-16h4.2l2.2 5.3 2.4 6.7 2.4-6.6 2.2-5.3Zm21.7 9.3h-12.3c.2 2 2 3.4 4.7 3.4 1.4 0 3.3-.6 4.2-1.5l2.5 2.5a9.7 9.7 0 0 1-6.8 2.5c-5.4 0-8.6-3.3-8.6-8.4 0-4.8 3.2-8.3 8.3-8.3 5.3 0 8.6 3.3 8 9.8Zm-12.2-3.2h8.5c-.3-2-1.9-3.1-4.1-3.1-2.1 0-3.9 1-4.4 3Zm15.2-6h3.6l.3 1.7c1.2-1.9 2.9-2.2 4.5-2.2a6 6 0 0 1 4 1.5l-1.7 3.4c-.8-.7-1.6-1-2.8-1-2 0-4 1-4 4V34h-3.9V18.2Zm26.4 1.6-2.2 2.5a5.3 5.3 0 0 0-4-1.4c-1.8 0-2.8.6-2.8 1.6s1 1.6 3 1.7c3 .2 6.7.9 6.7 5 0 2.8-2.3 5.2-6.8 5.2-2.5 0-5-.4-7.3-2.8l2-2.8a8.7 8.7 0 0 0 5.4 2.3c1.5 0 2.8-.8 2.8-2 0-1-.9-1.5-3.1-1.6-3-.2-6.5-1.3-6.5-4.9 0-3.6 3.7-5 6.6-5 2.5 0 4.3.6 6.2 2.2Zm7.1-1.7V34h-3.9V18.2h4Zm-4.2-4.4c0 3 4.6 3 4.6 0s-4.6-3-4.6 0ZM456 34h-4V21.9h-3v-3.5h3v-1c0-4.2 2.9-6.2 6-6.2 1.4 0 2.9.5 4.1 1.3l-1.4 3c-.8-.6-1.6-1-2.4-1-1.3 0-2.4 1-2.4 2.9v1h4.7V22h-4.7v12Zm11.2-15.8V34h-3.9V18.2h4Zm-4.2-4.4c0 3 4.6 3 4.6 0s-4.6-3-4.6 0Zm18.7 15.6 2.6 2.6a8.1 8.1 0 0 1-6 2.5c-4.6 0-8.4-2.8-8.4-8.4 0-5.6 3.8-8.3 8.3-8.3 2.3 0 4 .6 5.7 2.3l-2.4 2.6c-1-.8-2.1-1.2-3.2-1.2-2.6 0-4.5 1.9-4.5 4.6 0 3 2 4.6 4.4 4.6 1.3 0 2.5-.3 3.5-1.3Zm16.7-9 .1-2.2h3.8V34h-3.7l-.2-2.3c-.9 1.9-3.3 2.7-5.1 2.8-4.7 0-8.1-2.9-8.1-8.4 0-5.4 3.6-8.3 8.2-8.3 2.1 0 4.1 1 5 2.6Zm-4.7 1c-2.6 0-4.6 1.7-4.6 4.7s2 4.8 4.6 4.8c6.2 0 6.2-9.6 0-9.6Zm12.8-7.2 4-.4v4.5h4.3v3.3h-4.4v6.8c0 1.5.8 2.3 2 2.3.6 0 1.3-.2 2-.5l1 3.3c-1.1.5-2 .7-3.2.7-3.5.1-5.7-1.8-5.7-5.8v-6.8h-3v-3.3h3v-4.1Zm15 4V34h-3.8V18.2h3.9Zm-4.2-4.4c0 3 4.6 3 4.6 0s-4.6-3-4.6 0Zm15.6 4.1a8 8 0 0 1 8.2 8.2c0 4.6-3 8.3-8.2 8.3-5.1 0-8.2-3.7-8.2-8.3a8 8 0 0 1 8.2-8.2Zm0 3.6c-2.8 0-4.3 2.3-4.3 4.6 0 2.4 1.5 4.7 4.3 4.7 2.9 0 4.3-2.3 4.3-4.7 0-2.3-1.7-4.6-4.3-4.6ZM559.4 34h-4v-8.3c0-2.4-1.3-4.2-3.7-4.2-2.4 0-4 2-4 4.4V34h-4V18.2h3.5l.3 2.1a7.1 7.1 0 0 1 5.2-2.3c3.7 0 6.7 2.8 6.7 7.7V34Z"/>
  <defs>
    <clipPath id="a">
      <path fill="#fff" d="M102 57h597v431H102z"/>
    </clipPath>
  </defs>
</svg>
