<svg xmlns="http://www.w3.org/2000/svg" width="782" height="419" fill="none" viewBox="0 0 782 419">
  <g class="vision-mission-values-infographics-01" clip-path="url(#a)">
    <g class="Frame 34">
      <g class="Frame 31">
        <path fill="#000" d="m139.841 69.5-3.682-9.8h1.302l3.024 8.33 3.038-8.33h1.302l-3.682 9.8h-1.302Zm5.975-9.912h1.372V61.1h-1.372v-1.512Zm.084 9.912v-7.056h1.19V69.5h-1.19Zm5.483.112c-.784 0-1.428-.2-1.932-.602a2.993 2.993 0 0 1-1.008-1.456l1.022-.448c.317.999.956 1.498 1.918 1.498.42 0 .76-.103 1.022-.308.27-.215.406-.471.406-.77a.878.878 0 0 0-.42-.77 3.09 3.09 0 0 0-1.022-.42 31.78 31.78 0 0 1-1.19-.308 2.284 2.284 0 0 1-1.008-.63c-.28-.299-.42-.695-.42-1.19 0-.56.224-1.013.672-1.358.448-.345 1.05-.518 1.806-.518.625 0 1.18.163 1.666.49.485.317.802.733.952 1.246l-.994.434a1.456 1.456 0 0 0-.616-.854 1.72 1.72 0 0 0-1.036-.336c-.402 0-.719.08-.952.238a.718.718 0 0 0-.35.644c0 .233.098.425.294.574.205.15.457.257.756.322.308.056.639.14.994.252.354.103.681.22.98.35.298.13.546.355.742.672.205.308.308.69.308 1.148a1.87 1.87 0 0 1-.714 1.512c-.476.392-1.102.588-1.876.588Zm4.017-10.024h1.372V61.1H155.4v-1.512Zm.084 9.912v-7.056h1.19V69.5h-1.19Zm8.871-.91c-.672.681-1.531 1.022-2.576 1.022-1.046 0-1.904-.34-2.576-1.022-.672-.69-1.008-1.563-1.008-2.618s.336-1.923 1.008-2.604c.672-.69 1.53-1.036 2.576-1.036 1.045 0 1.904.345 2.576 1.036.681.681 1.022 1.55 1.022 2.604 0 1.055-.341 1.927-1.022 2.618Zm-4.284-.756c.438.476 1.008.714 1.708.714s1.269-.238 1.708-.714c.438-.485.658-1.106.658-1.862s-.22-1.372-.658-1.848c-.439-.485-1.008-.728-1.708-.728s-1.27.243-1.708.728c-.439.476-.658 1.092-.658 1.848s.219 1.377.658 1.862ZM166.9 69.5v-7.056h1.19v1.33a2.94 2.94 0 0 1 1.008-1.05c.42-.261.891-.392 1.414-.392.737 0 1.339.229 1.806.686.476.457.714 1.06.714 1.806V69.5h-1.19v-4.452c0-.485-.145-.877-.434-1.176-.29-.308-.677-.462-1.162-.462-.663 0-1.19.27-1.582.812-.383.532-.574 1.26-.574 2.184V69.5h-1.19Z" class="Vision"/>
        <path fill="#377D78" d="M46.955 97.628c-1.12 0-2.096-.336-2.928-1.008-.832-.683-1.302-1.536-1.408-2.56l2.208-.656c.074.619.32 1.12.736 1.504.426.384.922.576 1.488.576.501 0 .901-.107 1.2-.32.31-.224.464-.512.464-.864a.929.929 0 0 0-.32-.72 2.388 2.388 0 0 0-.832-.464 10.41 10.41 0 0 0-1.104-.352 15.21 15.21 0 0 1-1.232-.416 6.953 6.953 0 0 1-1.12-.592 2.65 2.65 0 0 1-.816-.976c-.214-.416-.32-.901-.32-1.456 0-.907.378-1.659 1.136-2.256.768-.597 1.706-.896 2.816-.896 1.077 0 2.01.267 2.8.8.8.523 1.296 1.21 1.488 2.064l-2.256.944c-.118-.512-.358-.917-.72-1.216-.352-.299-.79-.448-1.312-.448-.438 0-.784.09-1.04.272a.817.817 0 0 0-.384.72c0 .235.106.432.32.592.213.15.485.272.816.368.341.096.714.192 1.12.288a6.57 6.57 0 0 1 1.232.384c.416.17.79.379 1.12.624.341.245.618.597.832 1.056.213.459.32.997.32 1.616 0 1.013-.395 1.835-1.184 2.464-.79.619-1.83.928-3.12.928Zm13.42-4.368c0 .352-.01.645-.032.88H54.55c.234 1.024.864 1.536 1.888 1.536.864 0 1.386-.347 1.568-1.04l2.208.592a3.127 3.127 0 0 1-1.376 1.776c-.683.416-1.504.624-2.464.624-1.302 0-2.32-.416-3.056-1.248a4.33 4.33 0 0 1-1.088-2.912c0-.704.133-1.36.4-1.968.266-.608.71-1.125 1.328-1.552.63-.427 1.386-.64 2.272-.64.693 0 1.312.123 1.856.368.554.235.992.55 1.312.944.32.395.56.816.72 1.264.17.448.256.907.256 1.376Zm-5.792-.784h3.28c-.043-.427-.203-.768-.48-1.024-.267-.267-.65-.4-1.152-.4-.875 0-1.424.475-1.648 1.424Zm10.948 5.152c-1.216 0-2.208-.384-2.976-1.152-.768-.779-1.152-1.781-1.152-3.008s.384-2.224 1.152-2.992c.768-.779 1.76-1.168 2.976-1.168 1.077 0 1.968.256 2.672.768.704.512 1.12 1.21 1.248 2.096l-2.272.448c-.064-.405-.235-.725-.512-.96-.278-.235-.624-.352-1.04-.352-.555 0-.998.197-1.328.592-.32.384-.48.907-.48 1.568 0 .65.165 1.173.496 1.568.33.395.768.592 1.312.592.832 0 1.338-.405 1.52-1.216l2.288.464c-.15.853-.571 1.525-1.264 2.016-.694.49-1.574.736-2.64.736Zm13.126-8.192V97.5H76.32v-1.072c-.566.8-1.387 1.2-2.464 1.2-.896 0-1.616-.267-2.16-.8s-.816-1.243-.816-2.128v-5.264h2.352v4.64c0 .437.122.795.368 1.072.256.267.592.4 1.008.4.554 0 .976-.219 1.264-.656.298-.448.448-1.088.448-1.92v-3.536h2.336Zm7.273 2.256c-.277-.128-.619-.192-1.024-.192-.587 0-1.077.25-1.472.752-.394.49-.592 1.27-.592 2.336V97.5H80.49v-8.064h2.352v1.392c.181-.427.502-.784.96-1.072.459-.299.928-.448 1.408-.448.342 0 .63.043.864.128l-.144 2.256Zm1.184-5.52h2.48v2.256h-2.48v-2.256Zm.048 11.328v-8.064h2.352V97.5h-2.352Zm4.172 0v-8.064h2.352v1.072c.544-.8 1.365-1.2 2.464-1.2.885 0 1.6.267 2.144.8s.816 1.243.816 2.128V97.5h-2.336v-4.64c0-.437-.128-.79-.384-1.056-.246-.277-.582-.416-1.008-.416-1.13 0-1.696.859-1.696 2.576V97.5h-2.352Zm14.954-8.064h2.32v7.488c0 1.077-.379 1.947-1.136 2.608-.758.672-1.755 1.008-2.992 1.008-.95 0-1.776-.235-2.48-.704-.694-.47-1.11-1.083-1.248-1.84l2.144-.336c.053.32.229.57.528.752.298.192.65.288 1.056.288.544 0 .981-.144 1.312-.432.341-.277.512-.64.512-1.088v-.768c-.438.555-1.131.832-2.08.832-1.142 0-2.043-.357-2.704-1.072-.662-.715-.992-1.68-.992-2.896s.325-2.181.976-2.896c.661-.715 1.552-1.072 2.672-1.072.938 0 1.642.272 2.112.816v-.688Zm-1.68 5.808c.554 0 .992-.176 1.312-.528.33-.363.496-.843.496-1.44s-.166-1.072-.496-1.424c-.32-.363-.758-.544-1.312-.544-.544 0-.982.181-1.312.544-.32.352-.48.827-.48 1.424s.16 1.077.48 1.44c.33.352.768.528 1.312.528Zm9.759 2.256V86.3h2.528v9.024h5.024V97.5h-7.552Zm8.591-11.328h2.48v2.256h-2.48v-2.256Zm.048 11.328v-8.064h2.352V97.5h-2.352Zm4.828 0v-6.112h-1.264v-1.952h1.264v-.56c0-.939.282-1.675.848-2.208.576-.533 1.317-.8 2.224-.8.48 0 .906.07 1.28.208l-.16 1.888a2.228 2.228 0 0 0-.8-.176c-.32 0-.576.101-.768.304-.182.203-.272.48-.272.832v.512h1.84v1.952h-1.84V97.5h-2.352Zm12.853-4.24c0 .352-.01.645-.032.88h-5.792c.235 1.024.864 1.536 1.888 1.536.864 0 1.387-.347 1.568-1.04l2.208.592a3.123 3.123 0 0 1-1.376 1.776c-.682.416-1.504.624-2.464.624-1.301 0-2.32-.416-3.056-1.248-.725-.843-1.088-1.813-1.088-2.912 0-.704.134-1.36.4-1.968.267-.608.71-1.125 1.328-1.552.63-.427 1.387-.64 2.272-.64.694 0 1.312.123 1.856.368.555.235.992.55 1.312.944.32.395.56.816.72 1.264.171.448.256.907.256 1.376Zm-5.792-.784h3.28c-.042-.427-.202-.768-.48-1.024-.266-.267-.65-.4-1.152-.4-.874 0-1.424.475-1.648 1.424Zm7.22 5.024V86.172h2.352V97.5h-2.352Zm8.028.128c-1.248 0-2.272-.39-3.072-1.168-.789-.79-1.184-1.787-1.184-2.992s.395-2.197 1.184-2.976c.8-.79 1.824-1.184 3.072-1.184 1.227 0 2.24.395 3.04 1.184.811.779 1.216 1.77 1.216 2.976 0 1.205-.405 2.203-1.216 2.992-.8.779-1.813 1.168-3.04 1.168Zm0-2c.565 0 1.024-.197 1.376-.592.352-.405.528-.928.528-1.568s-.176-1.157-.528-1.552c-.352-.405-.811-.608-1.376-.608-.576 0-1.04.203-1.392.608-.352.395-.528.912-.528 1.552s.176 1.163.528 1.568c.352.395.816.592 1.392.592Zm5.66 1.872v-8.064h2.352v1.072c.544-.8 1.365-1.2 2.464-1.2.885 0 1.6.267 2.144.8s.816 1.243.816 2.128V97.5h-2.336v-4.64c0-.437-.128-.79-.384-1.056-.246-.277-.582-.416-1.008-.416-1.131 0-1.696.859-1.696 2.576V97.5h-2.352Zm14.953-8.064h2.32v7.488c0 1.077-.378 1.947-1.136 2.608-.757.672-1.754 1.008-2.992 1.008-.949 0-1.776-.235-2.48-.704-.693-.47-1.109-1.083-1.248-1.84l2.144-.336c.054.32.23.57.528.752.299.192.651.288 1.056.288.544 0 .982-.144 1.312-.432.342-.277.512-.64.512-1.088v-.768c-.437.555-1.13.832-2.08.832-1.141 0-2.042-.357-2.704-1.072-.661-.715-.992-1.68-.992-2.896s.326-2.181.976-2.896c.662-.715 1.552-1.072 2.672-1.072.939 0 1.643.272 2.112.816v-.688Zm-1.68 5.808c.555 0 .992-.176 1.312-.528.331-.363.496-.843.496-1.44s-.165-1.072-.496-1.424c-.32-.363-.757-.544-1.312-.544-.544 0-.981.181-1.312.544-.32.352-.48.827-.48 1.424s.16 1.077.48 1.44c.331.352.768.528 1.312.528ZM80.462 116.5v-11.2h4.64c1.162 0 2.085.32 2.767.96.694.629 1.04 1.477 1.04 2.544s-.346 1.92-1.04 2.56c-.682.629-1.605.944-2.767.944H82.99v4.192h-2.528Zm2.528-6.352h1.856c.48 0 .853-.117 1.12-.352.277-.245.416-.576.416-.992 0-.416-.14-.741-.416-.976-.267-.245-.64-.368-1.12-.368H82.99v2.688Zm9.918-1.84c1.13 0 2.026.293 2.688.88.661.576.992 1.419.992 2.528v4.784h-2.272v-1.024a2.53 2.53 0 0 1-.976.848 2.92 2.92 0 0 1-1.296.304c-.779 0-1.419-.229-1.92-.688a2.225 2.225 0 0 1-.752-1.712c0-1.557 1.162-2.459 3.488-2.704l1.456-.144v-.048c0-.395-.128-.704-.384-.928-.246-.235-.587-.352-1.024-.352-.384 0-.704.112-.96.336-.256.224-.406.528-.448.912l-2.048-.384c.128-.779.517-1.408 1.168-1.888.65-.48 1.413-.72 2.288-.72Zm-.288 6.64c.512 0 .917-.176 1.216-.528.31-.352.47-.773.48-1.264v-.128l-1.504.176c-.384.043-.683.149-.896.32a.788.788 0 0 0-.304.624.73.73 0 0 0 .256.576c.181.149.432.224.752.224Zm10.688-4.32a2.099 2.099 0 0 0-.544-.064c-.587 0-1.067.24-1.44.72-.373.469-.56 1.237-.56 2.304v2.912h-2.352v-8.064h2.352v1.392c.16-.437.448-.8.864-1.088a2.34 2.34 0 0 1 1.36-.432l.48.048-.16 2.272Zm6.878 5.792a4.11 4.11 0 0 1-1.312.208c-.917 0-1.659-.245-2.224-.736-.565-.491-.848-1.205-.848-2.144v-3.36h-1.28v-1.952h1.28V106.1h2.352v2.336h1.952v1.952h-1.952v3.056c0 .352.085.629.256.832a.9.9 0 0 0 .704.304c.363 0 .667-.064.912-.192l.16 2.032Zm1.289.08v-8.064h2.352v1.072c.544-.8 1.365-1.2 2.464-1.2.885 0 1.6.267 2.144.8s.816 1.243.816 2.128v5.264h-2.336v-4.64c0-.437-.128-.789-.384-1.056-.246-.277-.582-.416-1.008-.416-1.131 0-1.696.859-1.696 2.576v3.536h-2.352Zm17.337-4.24c0 .352-.01.645-.032.88h-5.792c.235 1.024.864 1.536 1.888 1.536.864 0 1.387-.347 1.568-1.04l2.208.592a3.125 3.125 0 0 1-1.376 1.776c-.682.416-1.504.624-2.464.624-1.301 0-2.32-.416-3.056-1.248-.725-.843-1.088-1.813-1.088-2.912 0-.704.134-1.36.4-1.968.267-.608.71-1.125 1.328-1.552.63-.427 1.387-.64 2.272-.64.694 0 1.312.123 1.856.368.555.235.992.549 1.312.944.32.395.56.816.72 1.264.171.448.256.907.256 1.376Zm-5.792-.784h3.28c-.042-.427-.202-.768-.48-1.024-.266-.267-.65-.4-1.152-.4-.874 0-1.424.475-1.648 1.424Zm12.66-.784c-.277-.128-.619-.192-1.024-.192-.587 0-1.077.251-1.472.752-.395.491-.592 1.269-.592 2.336v2.912h-2.352v-8.064h2.352v1.392c.181-.427.501-.784.96-1.072.459-.299.928-.448 1.408-.448.341 0 .629.043.864.128l-.144 2.256Zm3.925 5.936c-.918 0-1.691-.235-2.32-.704-.619-.469-1.046-1.04-1.28-1.712l1.888-.736c.096.395.298.725.608.992.309.256.677.384 1.104.384.309 0 .56-.069.752-.208a.642.642 0 0 0 .288-.544c0-.224-.15-.405-.448-.544a5.043 5.043 0 0 0-1.072-.352 14.164 14.164 0 0 1-1.248-.384 2.561 2.561 0 0 1-1.072-.784c-.288-.373-.432-.843-.432-1.408 0-.651.261-1.2.784-1.648.533-.448 1.232-.672 2.096-.672.821 0 1.541.181 2.16.544.629.363 1.034.837 1.216 1.424l-1.888.784a1.332 1.332 0 0 0-.56-.784 1.43 1.43 0 0 0-.848-.288c-.267 0-.486.053-.656.16-.16.107-.24.245-.24.416 0 .192.106.352.32.48.213.117.48.208.8.272.32.053.666.139 1.04.256.384.117.736.256 1.056.416.32.149.586.405.8.768.213.352.32.784.32 1.296 0 .715-.299 1.323-.896 1.824-.587.501-1.344.752-2.272.752Zm4.495-.128v-11.328h2.352v4.352c.533-.811 1.349-1.216 2.448-1.216.917 0 1.648.267 2.192.8.544.533.816 1.248.816 2.144v5.248h-2.336v-4.64c0-.448-.128-.805-.384-1.072s-.603-.4-1.04-.4c-1.131 0-1.696.864-1.696 2.592v3.52H144.1Zm9.577-11.328h2.48v2.256h-2.48v-2.256Zm.048 11.328v-8.064h2.352v8.064h-2.352Zm4.171 2.912v-10.976h2.352v.8c.491-.619 1.243-.928 2.256-.928 1.12 0 2.016.379 2.688 1.136.672.757 1.008 1.765 1.008 3.024 0 1.259-.357 2.267-1.072 3.024-.714.757-1.653 1.136-2.816 1.136-.928 0-1.616-.251-2.064-.752v3.536h-2.352Zm2.736-5.376c.352.395.811.592 1.376.592.566 0 1.019-.197 1.36-.592.352-.395.528-.917.528-1.568s-.176-1.173-.528-1.568c-.341-.395-.794-.592-1.36-.592-.565 0-1.024.197-1.376.592-.352.395-.528.917-.528 1.568s.176 1.173.528 1.568Zm9.785 2.592c-.917 0-1.691-.235-2.32-.704-.619-.469-1.045-1.04-1.28-1.712l1.888-.736c.096.395.299.725.608.992.309.256.677.384 1.104.384.309 0 .56-.069.752-.208a.642.642 0 0 0 .288-.544c0-.224-.149-.405-.448-.544a5.024 5.024 0 0 0-1.072-.352 14.164 14.164 0 0 1-1.248-.384 2.567 2.567 0 0 1-1.072-.784c-.288-.373-.432-.843-.432-1.408 0-.651.261-1.2.784-1.648.533-.448 1.232-.672 2.096-.672.821 0 1.541.181 2.16.544.629.363 1.035.837 1.216 1.424l-1.888.784a1.332 1.332 0 0 0-.56-.784 1.427 1.427 0 0 0-.848-.288c-.267 0-.485.053-.656.16-.16.107-.24.245-.24.416 0 .192.107.352.32.48.213.117.48.208.8.272.32.053.667.139 1.04.256.384.117.736.256 1.056.416.32.149.587.405.8.768.213.352.32.784.32 1.296 0 .715-.299 1.323-.896 1.824-.587.501-1.344.752-2.272.752Z" class="Securing Lifelong Partnerships"/>
      </g>
      <g class="vision-icon-01">
        <g class="Group 4">
          <circle cx="264" cy="89" r="65" fill="#F7F7F7" stroke="#B8A9A4" stroke-width="10" class="uterCircle"/>
          <circle cx="264" cy="89" r="58.5" fill="#F7F7F7" stroke="#fff" stroke-width="3" class="innerCircle"/>
          <path fill="#000" d="M299.735 88.977C293.912 76.85 279.882 69 264 69c-15.882 0-29.912 7.851-35.735 19.977L228 89.5l.265.436C234.088 102.15 248.118 110 264 110c15.882 0 29.912-7.851 35.735-19.977l.265-.436-.265-.61Zm-69.264.523c4.235-8.462 12.882-14.655 23.205-17.098-5.823 3.49-9.794 9.858-9.794 17.098 0 7.24 3.971 13.609 9.883 17.098-10.412-2.443-19.059-8.636-23.294-17.098Zm15.617 0c0-9.77 8.03-17.709 17.912-17.709s17.912 7.939 17.912 17.709-8.03 17.709-17.912 17.709-17.912-7.939-17.912-17.709Zm28.147 17.098c5.912-3.489 9.883-9.858 9.883-17.098 0-7.24-3.971-13.609-9.883-17.098 10.412 2.443 19.059 8.636 23.294 17.098-4.235 8.462-12.882 14.655-23.294 17.098Zm-9.617-20.936c.176.61.794.96 1.323.785l3.088-.873-4.588 4.537-3.706-3.664-8.029 7.938a1.097 1.097 0 0 0 0 1.57c.176.175.529.35.794.35s.529-.088.794-.35l6.441-6.368 3.706 3.664 6.177-6.106-.883 3.053c-.176.61.177 1.221.794 1.308h.265c.53 0 .971-.349 1.059-.785l2.382-8.81-8.911 2.355c-.53.262-.883.872-.706 1.396Z" class="Vector"/>
        </g>
      </g>
    </g>
    <g class="Frame 33">
      <g class="vision-icon-02">
        <g class="Group 4">
          <circle cx="504" cy="89" r="65" fill="#F7F7F7" stroke="#377D78" stroke-width="10" class="uterCircle"/>
          <circle cx="504" cy="89" r="58.5" fill="#F7F7F7" stroke="#fff" stroke-width="3" class="innerCircle"/>
          <g class="Group">
            <path fill="#000" d="M504.04 85.651a3.3 3.3 0 0 0-3.315 3.315 3.3 3.3 0 0 0 3.315 3.314 3.3 3.3 0 0 0 3.314-3.314c0-1.768-1.547-3.315-3.314-3.315Zm25.778-22.464L529.745 57l-7.439 7.513.073 6.187 6.187.073 7.439-7.512-6.187-.074Z" class="Vector"/>
            <g class="Group">
              <path stroke="#000" stroke-miterlimit="10" stroke-width="2" d="M531.365 72.467c3.02 5.009 4.64 10.754 4.64 16.572 0 17.53-14.436 32.04-32.039 32.04-17.604 0-31.966-14.51-31.966-32.04S486.436 57 504.039 57c8.397 0 16.499 3.314 22.465 9.207" class="Vector"/>
              <path stroke="#000" stroke-miterlimit="10" stroke-width="2" d="M522.821 77.697a21.96 21.96 0 0 1 3.167 11.342c0 12.079-9.943 21.949-21.948 21.949-12.006 0-22.023-9.943-22.023-21.949 0-12.005 9.943-21.948 21.949-21.948 5.819 0 11.416 2.283 15.541 6.407" class="Vector"/>
              <path stroke="#000" stroke-miterlimit="10" stroke-width="2" d="M514.203 82.852a11.945 11.945 0 0 1 1.694 6.114c0 6.555-5.376 11.932-11.931 11.932-6.556 0-11.932-5.377-11.932-11.932 0-6.555 5.376-11.932 11.932-11.932 3.167 0 6.186 1.252 8.47 3.535m17.382-17.382-25.705 25.705" class="Vector"/>
            </g>
          </g>
        </g>
      </g>
      <g class="Frame 28">
        <path fill="#000" d="M595.022 69.5v-9.8h1.54l3.304 7.952 3.304-7.952h1.54v9.8h-1.26v-7.392l-3.052 7.392h-1.064l-3.066-7.392V69.5h-1.246Zm11.577-9.912h1.372V61.1h-1.372v-1.512Zm.084 9.912v-7.056h1.19V69.5h-1.19Zm5.483.112c-.784 0-1.428-.2-1.932-.602a2.993 2.993 0 0 1-1.008-1.456l1.022-.448c.317.999.957 1.498 1.918 1.498.42 0 .761-.103 1.022-.308.271-.215.406-.471.406-.77a.878.878 0 0 0-.42-.77 3.09 3.09 0 0 0-1.022-.42 31.78 31.78 0 0 1-1.19-.308 2.284 2.284 0 0 1-1.008-.63c-.28-.299-.42-.695-.42-1.19 0-.56.224-1.013.672-1.358.448-.345 1.05-.518 1.806-.518.625 0 1.181.163 1.666.49.485.317.803.733.952 1.246l-.994.434a1.451 1.451 0 0 0-.616-.854 1.718 1.718 0 0 0-1.036-.336c-.401 0-.719.08-.952.238a.72.72 0 0 0-.35.644c0 .233.098.425.294.574.205.15.457.257.756.322.308.056.639.14.994.252.355.103.681.22.98.35.299.13.546.355.742.672.205.308.308.69.308 1.148a1.87 1.87 0 0 1-.714 1.512c-.476.392-1.101.588-1.876.588Zm6.467 0c-.784 0-1.428-.2-1.932-.602a2.993 2.993 0 0 1-1.008-1.456l1.022-.448c.317.999.956 1.498 1.918 1.498.42 0 .76-.103 1.022-.308.27-.215.406-.471.406-.77a.878.878 0 0 0-.42-.77 3.09 3.09 0 0 0-1.022-.42 31.78 31.78 0 0 1-1.19-.308 2.284 2.284 0 0 1-1.008-.63c-.28-.299-.42-.695-.42-1.19 0-.56.224-1.013.672-1.358.448-.345 1.05-.518 1.806-.518.625 0 1.18.163 1.666.49.485.317.802.733.952 1.246l-.994.434a1.456 1.456 0 0 0-.616-.854 1.72 1.72 0 0 0-1.036-.336c-.402 0-.719.08-.952.238a.718.718 0 0 0-.35.644c0 .233.098.425.294.574.205.15.457.257.756.322.308.056.639.14.994.252.354.103.681.22.98.35.298.13.546.355.742.672.205.308.308.69.308 1.148a1.87 1.87 0 0 1-.714 1.512c-.476.392-1.102.588-1.876.588Zm4.017-10.024h1.372V61.1h-1.372v-1.512Zm.084 9.912v-7.056h1.19V69.5h-1.19Zm8.871-.91c-.672.681-1.531 1.022-2.576 1.022-1.046 0-1.904-.34-2.576-1.022-.672-.69-1.008-1.563-1.008-2.618s.336-1.923 1.008-2.604c.672-.69 1.53-1.036 2.576-1.036 1.045 0 1.904.345 2.576 1.036.681.681 1.022 1.55 1.022 2.604 0 1.055-.341 1.927-1.022 2.618Zm-4.284-.756c.438.476 1.008.714 1.708.714s1.269-.238 1.708-.714c.438-.485.658-1.106.658-1.862s-.22-1.372-.658-1.848c-.439-.485-1.008-.728-1.708-.728s-1.27.243-1.708.728c-.439.476-.658 1.092-.658 1.848s.219 1.377.658 1.862Zm6.829 1.666v-7.056h1.19v1.33a2.94 2.94 0 0 1 1.008-1.05c.42-.261.891-.392 1.414-.392.737 0 1.339.229 1.806.686.476.457.714 1.06.714 1.806V69.5h-1.19v-4.452c0-.485-.145-.877-.434-1.176-.29-.308-.677-.462-1.162-.462-.663 0-1.19.27-1.582.812-.383.532-.574 1.26-.574 2.184V69.5h-1.19Z" class="Mission"/>
        <path fill="#377D78" d="M595.008 97.5V86.3h2.528v11.2h-2.528Zm4.451 0v-8.064h2.352v1.072c.544-.8 1.365-1.2 2.464-1.2.885 0 1.6.267 2.144.8s.816 1.243.816 2.128V97.5h-2.336v-4.64c0-.437-.128-.79-.384-1.056-.245-.277-.581-.416-1.008-.416-1.131 0-1.696.859-1.696 2.576V97.5h-2.352Zm12.986.128c-1.174 0-2.102-.373-2.784-1.12-.672-.757-1.008-1.77-1.008-3.04s.336-2.277 1.008-3.024c.672-.757 1.589-1.136 2.752-1.136.96 0 1.685.299 2.176.896v-4.032h2.352V97.5h-2.352v-.8c-.448.619-1.163.928-2.144.928Zm.384-2c.576 0 1.034-.197 1.376-.592.352-.395.528-.917.528-1.568 0-.65-.176-1.173-.528-1.568-.342-.395-.8-.592-1.376-.592-.566 0-1.024.197-1.376.592-.342.395-.512.917-.512 1.568 0 .65.17 1.173.512 1.568.352.395.81.592 1.376.592Zm13.718-6.192V97.5h-2.336v-1.072c-.565.8-1.386 1.2-2.464 1.2-.896 0-1.616-.267-2.16-.8s-.816-1.243-.816-2.128v-5.264h2.352v4.64c0 .437.123.795.368 1.072.256.267.592.4 1.008.4.555 0 .976-.219 1.264-.656.299-.448.448-1.088.448-1.92v-3.536h2.336Zm4.714 8.192c-.918 0-1.691-.235-2.32-.704-.619-.47-1.046-1.04-1.28-1.712l1.888-.736c.096.395.298.725.608.992.309.256.677.384 1.104.384.309 0 .56-.07.752-.208a.642.642 0 0 0 .288-.544c0-.224-.15-.405-.448-.544a5.06 5.06 0 0 0-1.072-.352 13.965 13.965 0 0 1-1.248-.384 2.564 2.564 0 0 1-1.072-.784c-.288-.373-.432-.843-.432-1.408 0-.65.261-1.2.784-1.648.533-.448 1.232-.672 2.096-.672.821 0 1.541.181 2.16.544.629.363 1.034.837 1.216 1.424l-1.888.784a1.332 1.332 0 0 0-.56-.784 1.43 1.43 0 0 0-.848-.288c-.267 0-.486.053-.656.16-.16.107-.24.245-.24.416 0 .192.106.352.32.48.213.117.48.208.8.272.32.053.666.139 1.04.256.384.117.736.256 1.056.416.32.15.586.405.8.768.213.352.32.784.32 1.296 0 .715-.299 1.323-.896 1.824-.587.501-1.344.752-2.272.752Zm9.409-.208a4.119 4.119 0 0 1-1.312.208c-.917 0-1.658-.245-2.224-.736-.565-.49-.848-1.205-.848-2.144v-3.36h-1.28v-1.952h1.28V87.1h2.352v2.336h1.952v1.952h-1.952v3.056c0 .352.086.63.256.832a.902.902 0 0 0 .704.304c.363 0 .667-.064.912-.192l.16 2.032Zm6.729-5.728c-.277-.128-.619-.192-1.024-.192-.587 0-1.077.25-1.472.752-.395.49-.592 1.27-.592 2.336V97.5h-2.352v-8.064h2.352v1.392c.181-.427.501-.784.96-1.072.459-.299.928-.448 1.408-.448.341 0 .629.043.864.128l-.144 2.256Zm6.496-2.256h2.4l-4.256 10.976h-2.4l1.28-3.312-3.104-7.664h2.544l1.728 4.672 1.808-4.672Zm7.332 8.064V86.3h2.528v9.024h5.024V97.5h-7.552Zm16.382-4.24c0 .352-.011.645-.032.88h-5.792c.235 1.024.864 1.536 1.888 1.536.864 0 1.387-.347 1.568-1.04l2.208.592a3.127 3.127 0 0 1-1.376 1.776c-.683.416-1.504.624-2.464.624-1.301 0-2.32-.416-3.056-1.248-.725-.843-1.088-1.813-1.088-2.912 0-.704.133-1.36.4-1.968.267-.608.709-1.125 1.328-1.552.629-.427 1.387-.64 2.272-.64.693 0 1.312.123 1.856.368.555.235.992.55 1.312.944.32.395.56.816.72 1.264.171.448.256.907.256 1.376Zm-5.792-.784h3.28c-.043-.427-.203-.768-.48-1.024-.267-.267-.651-.4-1.152-.4-.875 0-1.424.475-1.648 1.424Zm10.356-3.168c1.131 0 2.027.293 2.688.88.662.576.992 1.419.992 2.528V97.5h-2.272v-1.024c-.234.352-.56.635-.976.848a2.924 2.924 0 0 1-1.296.304c-.778 0-1.418-.23-1.92-.688a2.227 2.227 0 0 1-.752-1.712c0-1.557 1.163-2.459 3.488-2.704l1.456-.144v-.048c0-.395-.128-.704-.384-.928-.245-.235-.586-.352-1.024-.352-.384 0-.704.112-.96.336-.256.224-.405.528-.448.912l-2.048-.384c.128-.779.518-1.408 1.168-1.888.651-.48 1.414-.72 2.288-.72Zm-.288 6.64c.512 0 .918-.176 1.216-.528.31-.352.47-.773.48-1.264v-.128l-1.504.176c-.384.043-.682.15-.896.32a.79.79 0 0 0-.304.624c0 .235.086.427.256.576.182.15.432.224.752.224Zm9.185 1.68c-1.174 0-2.102-.373-2.784-1.12-.672-.757-1.008-1.77-1.008-3.04s.336-2.277 1.008-3.024c.672-.757 1.589-1.136 2.752-1.136.96 0 1.685.299 2.176.896v-4.032h2.352V97.5h-2.352v-.8c-.448.619-1.163.928-2.144.928Zm.384-2c.576 0 1.034-.197 1.376-.592.352-.395.528-.917.528-1.568 0-.65-.176-1.173-.528-1.568-.342-.395-.8-.592-1.376-.592-.566 0-1.024.197-1.376.592-.342.395-.512.917-.512 1.568 0 .65.17 1.173.512 1.568.352.395.81.592 1.376.592Zm13.686-2.368c0 .352-.01.645-.032.88h-5.792c.235 1.024.864 1.536 1.888 1.536.864 0 1.387-.347 1.568-1.04l2.208.592a3.123 3.123 0 0 1-1.376 1.776c-.682.416-1.504.624-2.464.624-1.301 0-2.32-.416-3.056-1.248-.725-.843-1.088-1.813-1.088-2.912 0-.704.134-1.36.4-1.968.267-.608.71-1.125 1.328-1.552.63-.427 1.387-.64 2.272-.64.694 0 1.312.123 1.856.368.555.235.992.55 1.312.944.32.395.56.816.72 1.264.171.448.256.907.256 1.376Zm-5.792-.784h3.28c-.042-.427-.202-.768-.48-1.024-.266-.267-.65-.4-1.152-.4-.874 0-1.424.475-1.648 1.424Zm12.66-.784c-.277-.128-.618-.192-1.024-.192-.586 0-1.077.25-1.472.752-.394.49-.592 1.27-.592 2.336V97.5h-2.352v-8.064h2.352v1.392c.182-.427.502-.784.96-1.072.459-.299.928-.448 1.408-.448.342 0 .63.043.864.128l-.144 2.256Zm3.925 5.936c-.918 0-1.691-.235-2.32-.704-.619-.47-1.046-1.04-1.28-1.712l1.888-.736c.096.395.298.725.608.992.309.256.677.384 1.104.384.309 0 .56-.07.752-.208a.642.642 0 0 0 .288-.544c0-.224-.15-.405-.448-.544a5.06 5.06 0 0 0-1.072-.352 13.965 13.965 0 0 1-1.248-.384 2.564 2.564 0 0 1-1.072-.784c-.288-.373-.432-.843-.432-1.408 0-.65.261-1.2.784-1.648.533-.448 1.232-.672 2.096-.672.821 0 1.541.181 2.16.544.629.363 1.034.837 1.216 1.424l-1.888.784a1.332 1.332 0 0 0-.56-.784 1.43 1.43 0 0 0-.848-.288c-.267 0-.486.053-.656.16-.16.107-.24.245-.24.416 0 .192.106.352.32.48.213.117.48.208.8.272.32.053.666.139 1.04.256.384.117.736.256 1.056.416.32.15.586.405.8.768.213.352.32.784.32 1.296 0 .715-.299 1.323-.896 1.824-.587.501-1.344.752-2.272.752Zm8.419-.128V86.3h2.528v11.2h-2.528Zm4.451 0v-8.064h2.352v1.072c.544-.8 1.365-1.2 2.464-1.2.885 0 1.6.267 2.144.8s.816 1.243.816 2.128V97.5h-2.336v-4.64c0-.437-.128-.79-.384-1.056-.246-.277-.582-.416-1.008-.416-1.131 0-1.696.859-1.696 2.576V97.5h-2.352Zm-122.787 13.4c0 1.504-.469 2.795-1.408 3.872l1.312 1.424-1.552 1.392-1.44-1.552a5.948 5.948 0 0 1-2.64.592c-1.664 0-3.04-.539-4.128-1.616-1.088-1.088-1.632-2.459-1.632-4.112s.544-3.019 1.632-4.096c1.088-1.088 2.464-1.632 4.128-1.632 1.653 0 3.019.544 4.096 1.632 1.088 1.088 1.632 2.453 1.632 4.096Zm-5.744 3.552a3.51 3.51 0 0 0 1.024-.16l-1.776-1.92 1.584-1.424 1.84 2c.363-.576.544-1.259.544-2.048 0-1.024-.304-1.872-.912-2.544-.608-.683-1.376-1.024-2.304-1.024-.939 0-1.712.336-2.32 1.008-.597.672-.896 1.525-.896 2.56 0 1.024.299 1.872.896 2.544.608.672 1.381 1.008 2.32 1.008Zm14.979-6.016v8.064h-2.336v-1.072c-.566.8-1.387 1.2-2.464 1.2-.896 0-1.616-.267-2.16-.8s-.816-1.243-.816-2.128v-5.264h2.352v4.64c0 .437.122.795.368 1.072.256.267.592.4 1.008.4.554 0 .976-.219 1.264-.656.298-.448.448-1.088.448-1.92v-3.536h2.336Zm4.985-.128c1.131 0 2.027.293 2.688.88.661.576.992 1.419.992 2.528v4.784h-2.272v-1.024c-.235.352-.56.635-.976.848a2.92 2.92 0 0 1-1.296.304c-.779 0-1.419-.229-1.92-.688a2.227 2.227 0 0 1-.752-1.712c0-1.557 1.163-2.459 3.488-2.704l1.456-.144v-.048c0-.395-.128-.704-.384-.928-.245-.235-.587-.352-1.024-.352-.384 0-.704.112-.96.336-.256.224-.405.528-.448.912l-2.048-.384c.128-.779.517-1.408 1.168-1.888.651-.48 1.413-.72 2.288-.72Zm-.288 6.64c.512 0 .917-.176 1.216-.528a1.92 1.92 0 0 0 .48-1.264v-.128l-1.504.176c-.384.043-.683.149-.896.32a.787.787 0 0 0-.304.624c0 .235.085.427.256.576.181.149.432.224.752.224Zm5.792 1.552v-11.328h2.352V116.5h-2.352Zm4.124-11.328h2.48v2.256h-2.48v-2.256Zm.048 11.328v-8.064h2.352v8.064h-2.352Zm9.196-.08a4.11 4.11 0 0 1-1.312.208c-.917 0-1.659-.245-2.224-.736-.565-.491-.848-1.205-.848-2.144v-3.36h-1.28v-1.952h1.28V106.1h2.352v2.336h1.952v1.952h-1.952v3.056c0 .352.085.629.256.832a.9.9 0 0 0 .704.304c.363 0 .667-.064.912-.192l.16 2.032Zm6.552-7.984h2.4l-4.256 10.976h-2.4l1.28-3.312-3.104-7.664h2.544l1.728 4.672 1.808-4.672Zm7.332 8.064v-11.2h3.824c.79 0 1.526.117 2.208.352.683.224 1.296.56 1.84 1.008.544.437.971 1.024 1.28 1.76.32.725.48 1.552.48 2.48 0 .928-.16 1.76-.48 2.496-.309.725-.736 1.312-1.28 1.76a6.06 6.06 0 0 1-1.84 1.008 7.035 7.035 0 0 1-2.208.336h-3.824Zm2.48-2.176h1.072c.48 0 .918-.059 1.312-.176a3.436 3.436 0 0 0 1.12-.56c.352-.256.624-.613.816-1.072.192-.459.288-.997.288-1.616 0-1.205-.336-2.08-1.008-2.624-.672-.544-1.514-.816-2.528-.816h-1.072v6.864Zm16.325-2.064c0 .352-.011.645-.032.88h-5.792c.234 1.024.864 1.536 1.888 1.536.864 0 1.386-.347 1.568-1.04l2.208.592a3.133 3.133 0 0 1-1.376 1.776c-.683.416-1.504.624-2.464.624-1.302 0-2.32-.416-3.056-1.248a4.33 4.33 0 0 1-1.088-2.912c0-.704.133-1.36.4-1.968.266-.608.709-1.125 1.328-1.552.629-.427 1.386-.64 2.272-.64.693 0 1.312.123 1.856.368.554.235.992.549 1.312.944.32.395.56.816.72 1.264.17.448.256.907.256 1.376Zm-5.792-.784h3.28c-.043-.427-.203-.768-.48-1.024-.267-.267-.651-.4-1.152-.4-.875 0-1.424.475-1.648 1.424Zm7.22 5.024v-11.328h2.352V116.5h-2.352Zm4.123-11.328h2.48v2.256h-2.48v-2.256Zm.048 11.328v-8.064h2.352v8.064h-2.352Zm6.284 0-2.928-8.064h2.352l1.632 5.344 1.632-5.344h2.368l-2.928 8.064h-2.128Zm13.429-4.24c0 .352-.011.645-.032.88h-5.792c.235 1.024.864 1.536 1.888 1.536.864 0 1.387-.347 1.568-1.04l2.208.592a3.129 3.129 0 0 1-1.376 1.776c-.683.416-1.504.624-2.464.624-1.301 0-2.32-.416-3.056-1.248-.725-.843-1.088-1.813-1.088-2.912 0-.704.133-1.36.4-1.968.267-.608.709-1.125 1.328-1.552.629-.427 1.387-.64 2.272-.64.693 0 1.312.123 1.856.368.555.235.992.549 1.312.944.32.395.56.816.72 1.264.171.448.256.907.256 1.376Zm-5.792-.784h3.28c-.043-.427-.203-.768-.48-1.024-.267-.267-.651-.4-1.152-.4-.875 0-1.424.475-1.648 1.424Zm12.66-.784c-.277-.128-.619-.192-1.024-.192-.587 0-1.077.251-1.472.752-.395.491-.592 1.269-.592 2.336v2.912h-2.352v-8.064h2.352v1.392c.181-.427.501-.784.96-1.072.459-.299.928-.448 1.408-.448.341 0 .629.043.864.128l-.144 2.256Zm6.496-2.256h2.4l-4.256 10.976h-2.4l1.28-3.312-3.104-7.664h2.544l1.728 4.672 1.808-4.672Z" class="Industry Leaders In Quality Delivery"/>
      </g>
    </g>
    <g class="Frame 32">
      <g class="vision-icon-04">
        <g class="Group 4">
          <circle cx="505" cy="330" r="65" fill="#F7F7F7" stroke="#6B717A" stroke-width="10" class="uterCircle"/>
          <circle cx="505" cy="330" r="58.5" fill="#F7F7F7" stroke="#fff" stroke-width="3" class="innerCircle"/>
          <path fill="#000" fill-rule="evenodd" d="M519.763 304.249c7.387.185 13.482 2.863 16.344 7.849 2.955 4.986 2.216 11.542-1.385 18.006 3.509 6.556 4.248 13.112 1.385 18.098-2.862 5.078-8.957 7.664-16.344 7.849-3.878 6.278-9.049 10.249-14.866 10.249s-11.08-3.878-14.958-10.249c-7.387-.185-13.482-2.863-16.344-7.849-2.955-5.079-2.216-11.542 1.385-18.098-3.601-6.464-4.34-13.02-1.477-18.006 2.862-5.078 8.956-7.664 16.343-7.849 3.878-6.371 9.142-10.249 14.959-10.249s11.08 3.878 14.958 10.249Zm13.666 23.639c2.678-5.356 3.047-10.619.739-14.682-2.401-4.063-7.11-6.279-13.112-6.74 1.755 3.508 3.14 7.479 4.063 11.911 3.416 3.047 6.187 6.279 8.31 9.511Zm-25.115 24.377a41.905 41.905 0 0 0 10.157 1.569c1.569-2.77 2.862-6.001 3.693-9.51a59.43 59.43 0 0 1-6.648 4.432c-2.401 1.385-4.802 2.493-7.202 3.509Zm-3.509-1.108a52.738 52.738 0 0 0 9.603-4.432c3.139-1.847 6.094-3.879 8.587-6.095.554-3.324.924-6.833.924-10.526 0-3.694-.277-7.202-.924-10.527-2.493-2.216-5.448-4.247-8.587-6.094-3.232-1.847-6.464-3.324-9.603-4.432a52.64 52.64 0 0 0-9.603 4.432c-3.14 1.847-6.002 3.878-8.588 6.094-.554 3.325-.923 6.833-.923 10.527 0 3.693.277 7.202.923 10.526 2.493 2.216 5.448 4.248 8.588 6.095 3.232 1.846 6.463 3.324 9.603 4.432Zm-10.711-2.493a59.403 59.403 0 0 1-6.649-4.433c.924 3.602 2.217 6.833 3.694 9.511 3.139-.092 6.648-.554 10.157-1.57-2.401-.923-4.802-2.123-7.202-3.508Zm-16.621-18.56c1.662 2.77 3.786 5.448 6.464 8.033-.37-2.585-.554-5.263-.647-8.033 0-2.77.185-5.448.554-8.034a44.995 44.995 0 0 0-6.371 8.034Zm23.823-22.069a41.912 41.912 0 0 0-10.157-1.569c-1.477 2.77-2.77 6.001-3.694 9.51a59.536 59.536 0 0 1 6.649-4.432c2.4-1.385 4.801-2.493 7.202-3.509Zm14.312 3.601a59.403 59.403 0 0 1 6.649 4.433c-.924-3.602-2.217-6.833-3.694-9.511-3.139.092-6.648.554-10.157 1.57 2.401.923 4.801 2.123 7.202 3.508Zm16.529 18.56c-1.57-2.77-3.786-5.448-6.372-8.033.37 2.585.554 5.263.554 8.033 0 2.77-.184 5.448-.554 8.034a44.957 44.957 0 0 0 6.372-8.034Zm-14.959-25.947c-3.416-4.893-7.664-7.941-12.373-7.941-4.617 0-8.957 3.048-12.373 7.941 3.878.185 8.125 1.016 12.373 2.401 4.34-1.385 8.495-2.216 12.373-2.401Zm-28.532 2.309c-6.002.369-10.804 2.585-13.112 6.648-2.309 4.063-1.939 9.326.739 14.774 2.123-3.324 4.986-6.556 8.31-9.511.923-4.432 2.308-8.495 4.063-11.911Zm-12.373 25.854c-2.678 5.356-3.048 10.619-.739 14.682 2.308 4.063 7.11 6.279 13.112 6.74-1.755-3.508-3.14-7.479-4.063-11.911-3.417-3.047-6.187-6.279-8.31-9.511Zm16.159 23.639c3.416 4.893 7.664 7.941 12.373 7.941s9.049-3.048 12.373-7.941c-3.878-.185-8.126-1.016-12.373-2.401-4.34 1.385-8.495 2.216-12.373 2.401Zm28.624-2.309c6.002-.369 10.804-2.585 13.112-6.648s1.847-9.326-.739-14.774c-2.123 3.324-4.986 6.556-8.31 9.511-.923 4.432-2.308 8.495-4.063 11.911Zm-28.072-26.254c0-3.696 3.081-6.71 6.859-6.71 2.077 0 3.889.953 5.145 2.385 1.256-1.432 3.068-2.385 5.144-2.385 3.778 0 6.86 3.014 6.86 6.71 0 1.55-.804 3.077-1.903 4.561-1.098 1.484-2.518 2.936-3.938 4.22-2.837 2.569-5.681 4.482-5.681 4.482l-.482.341-.482-.341s-2.841-1.917-5.681-4.482c-1.42-1.284-2.84-2.733-3.938-4.22-1.099-1.488-1.903-3.005-1.903-4.561Zm11.281-2.569a5.186 5.186 0 0 0-4.422-2.464c-2.85 0-5.144 2.245-5.144 5.033 0 .95.589 2.248 1.581 3.591.991 1.343 2.358 2.723 3.724 3.958 2.412 2.178 4.425 3.571 4.938 3.926l.046.032.059-.041a47.726 47.726 0 0 0 4.925-3.917c1.366-1.238 2.733-2.641 3.724-3.984.991-1.344 1.581-2.628 1.581-3.565 0-2.788-2.294-5.033-5.145-5.033-1.878 0-3.52.996-4.421 2.464l-.723 1.18-.723-1.18Z" class="Union" clip-rule="evenodd"/>
        </g>
      </g>
      <g class="Frame 29">
        <path fill="#000" d="M600.334 301.112c-1.325 0-2.45-.434-3.374-1.302-.924-.877-1.386-2.114-1.386-3.71s.462-2.828 1.386-3.696c.933-.877 2.058-1.316 3.374-1.316 1.064 0 1.965.28 2.702.84.747.551 1.223 1.302 1.428 2.254l-1.26.28c-.159-.709-.49-1.26-.994-1.652-.495-.392-1.125-.588-1.89-.588-1.027 0-1.857.341-2.492 1.022-.625.681-.938 1.633-.938 2.856 0 1.223.313 2.175.938 2.856.635.672 1.465 1.008 2.492 1.008.756 0 1.377-.187 1.862-.56.495-.373.831-.901 1.008-1.582l1.274.266c-.252.933-.742 1.671-1.47 2.212-.728.541-1.615.812-2.66.812Zm11.38-1.022c-.672.681-1.531 1.022-2.576 1.022-1.045 0-1.904-.341-2.576-1.022-.672-.691-1.008-1.563-1.008-2.618s.336-1.923 1.008-2.604c.672-.691 1.531-1.036 2.576-1.036 1.045 0 1.904.345 2.576 1.036.681.681 1.022 1.549 1.022 2.604 0 1.055-.341 1.927-1.022 2.618Zm-4.284-.756c.439.476 1.008.714 1.708.714s1.269-.238 1.708-.714c.439-.485.658-1.106.658-1.862s-.219-1.372-.658-1.848c-.439-.485-1.008-.728-1.708-.728s-1.269.243-1.708.728c-.439.476-.658 1.092-.658 1.848s.219 1.377.658 1.862Zm10.959-4.228a2.294 2.294 0 0 0-.91-.168c-.597 0-1.087.289-1.47.868-.373.569-.56 1.405-.56 2.506V301h-1.19v-7.056h1.19v1.428c.205-.448.513-.817.924-1.106.411-.289.835-.434 1.274-.434.308 0 .579.042.812.126l-.07 1.148Zm7.285 2.044c0 .196-.009.378-.028.546h-5.572c.038.709.262 1.283.672 1.722.42.429.948.644 1.582.644.542 0 .99-.121 1.344-.364.355-.243.584-.583.686-1.022l1.12.266a2.684 2.684 0 0 1-1.106 1.596c-.55.383-1.232.574-2.044.574-1.036 0-1.871-.35-2.506-1.05-.625-.7-.938-1.563-.938-2.59 0-1.036.308-1.899.924-2.59.626-.7 1.456-1.05 2.492-1.05 1.018 0 1.834.322 2.45.966.616.635.924 1.419.924 2.352Zm-5.53-.448h4.27c-.056-.56-.27-1.013-.644-1.358-.373-.345-.863-.518-1.47-.518-.55 0-1.017.168-1.4.504-.382.327-.634.784-.756 1.372ZM633.425 301l-3.682-9.8h1.302l3.024 8.33 3.038-8.33h1.302l-3.682 9.8h-1.302Zm7.843-7.168c.868 0 1.568.238 2.1.714s.798 1.12.798 1.932V301h-1.176v-1.204a2.317 2.317 0 0 1-.952.966c-.42.233-.887.35-1.4.35-.7 0-1.274-.191-1.722-.574-.439-.392-.658-.896-.658-1.512 0-1.325 1.12-2.1 3.36-2.324l1.372-.154v-.14c0-.485-.159-.868-.476-1.148-.308-.289-.723-.434-1.246-.434-.485 0-.887.135-1.204.406-.317.271-.499.644-.546 1.12l-1.106-.21c.103-.7.415-1.26.938-1.68.532-.42 1.171-.63 1.918-.63Zm-.448 6.3c.681 0 1.213-.21 1.596-.63.383-.42.574-.985.574-1.694v-.336l-1.372.154c-1.447.159-2.17.621-2.17 1.386 0 .327.126.597.378.812.261.205.593.308.994.308Zm5.281.868v-9.912h1.19V301h-1.19Zm9.249-7.056V301h-1.19v-1.33a2.934 2.934 0 0 1-1.008 1.05c-.42.261-.891.392-1.414.392-.737 0-1.344-.229-1.82-.686-.467-.457-.7-1.059-.7-1.806v-4.676h1.19v4.452c0 .485.145.882.434 1.19.289.299.677.448 1.162.448.663 0 1.185-.266 1.568-.798.392-.541.588-1.274.588-2.198v-3.094h1.19Zm8.318 3.206c0 .196-.009.378-.028.546h-5.572c.038.709.262 1.283.672 1.722.42.429.948.644 1.582.644.542 0 .99-.121 1.344-.364.355-.243.584-.583.686-1.022l1.12.266a2.684 2.684 0 0 1-1.106 1.596c-.55.383-1.232.574-2.044.574-1.036 0-1.871-.35-2.506-1.05-.625-.7-.938-1.563-.938-2.59 0-1.036.308-1.899.924-2.59.626-.7 1.456-1.05 2.492-1.05 1.018 0 1.834.322 2.45.966.616.635.924 1.419.924 2.352Zm-5.53-.448h4.27c-.056-.56-.27-1.013-.644-1.358-.373-.345-.863-.518-1.47-.518-.55 0-1.017.168-1.4.504-.382.327-.634.784-.756 1.372Zm9.36 4.41c-.784 0-1.428-.201-1.932-.602a2.993 2.993 0 0 1-1.008-1.456l1.022-.448c.317.999.957 1.498 1.918 1.498.42 0 .761-.103 1.022-.308.271-.215.406-.471.406-.77a.878.878 0 0 0-.42-.77 3.078 3.078 0 0 0-1.022-.42 31.209 31.209 0 0 1-1.19-.308 2.279 2.279 0 0 1-1.008-.63c-.28-.299-.42-.695-.42-1.19 0-.56.224-1.013.672-1.358.448-.345 1.05-.518 1.806-.518.625 0 1.181.163 1.666.49.485.317.803.733.952 1.246l-.994.434a1.451 1.451 0 0 0-.616-.854 1.718 1.718 0 0 0-1.036-.336c-.401 0-.719.079-.952.238a.72.72 0 0 0-.35.644c0 .233.098.425.294.574.205.149.457.257.756.322.308.056.639.14.994.252.355.103.681.219.98.35.299.131.546.355.742.672.205.308.308.691.308 1.148a1.87 1.87 0 0 1-.714 1.512c-.476.392-1.101.588-1.876.588Z" class="Core Values"/>
        <path fill="#377D78" d="M596.008 329v-11.2h4.496c1.056 0 1.915.256 2.576.768.672.501 1.008 1.205 1.008 2.112 0 .491-.128.933-.384 1.328s-.565.688-.928.88a2.917 2.917 0 0 1 1.344 1.024c.352.469.528 1.051.528 1.744 0 1.045-.368 1.867-1.104 2.464-.736.587-1.707.88-2.912.88h-4.624Zm2.48-6.96h1.824c.96 0 1.44-.373 1.44-1.12 0-.757-.496-1.136-1.488-1.136h-1.776v2.256Zm0 4.784h1.92c1.248 0 1.872-.437 1.872-1.312 0-.907-.624-1.36-1.872-1.36h-1.92v2.672Zm15.324-2.064c0 .352-.01.645-.032.88h-5.792c.235 1.024.864 1.536 1.888 1.536.864 0 1.387-.347 1.568-1.04l2.208.592a3.125 3.125 0 0 1-1.376 1.776c-.682.416-1.504.624-2.464.624-1.301 0-2.32-.416-3.056-1.248-.725-.843-1.088-1.813-1.088-2.912 0-.704.134-1.36.4-1.968.267-.608.71-1.125 1.328-1.552.63-.427 1.387-.64 2.272-.64.694 0 1.312.123 1.856.368.555.235.992.549 1.312.944.32.395.56.816.72 1.264.171.448.256.907.256 1.376Zm-5.792-.784h3.28c-.042-.427-.202-.768-.48-1.024-.266-.267-.65-.4-1.152-.4-.874 0-1.424.475-1.648 1.424Zm7.22 5.024v-11.328h2.352V329h-2.352Zm4.124-11.328h2.48v2.256h-2.48v-2.256Zm.048 11.328v-8.064h2.352V329h-2.352Zm11.916-4.24c0 .352-.011.645-.032.88h-5.792c.235 1.024.864 1.536 1.888 1.536.864 0 1.387-.347 1.568-1.04l2.208.592a3.129 3.129 0 0 1-1.376 1.776c-.683.416-1.504.624-2.464.624-1.301 0-2.32-.416-3.056-1.248-.725-.843-1.088-1.813-1.088-2.912 0-.704.133-1.36.4-1.968.267-.608.709-1.125 1.328-1.552.629-.427 1.387-.64 2.272-.64.693 0 1.312.123 1.856.368.555.235.992.549 1.312.944.32.395.56.816.72 1.264.171.448.256.907.256 1.376Zm-5.792-.784h3.28c-.043-.427-.203-.768-.48-1.024-.267-.267-.651-.4-1.152-.4-.875 0-1.424.475-1.648 1.424ZM633.24 329v-6.112h-1.264v-1.952h1.264v-.56c0-.939.283-1.675.848-2.208.576-.533 1.317-.8 2.224-.8.48 0 .907.069 1.28.208l-.16 1.888a2.23 2.23 0 0 0-.8-.176c-.32 0-.576.101-.768.304-.181.203-.272.48-.272.832v.512h1.84v1.952h-1.84V329h-2.352Zm3.737 2.144 1.104-4.48h2.704l-2.288 4.48h-1.52Zm14.68-2.016c-1.536 0-2.842-.501-3.92-1.504-1.066-1.003-1.6-2.411-1.6-4.224 0-1.813.555-3.221 1.664-4.224 1.11-1.003 2.459-1.504 4.048-1.504 1.398 0 2.55.341 3.456 1.024.918.672 1.483 1.605 1.696 2.8l-2.496.512c-.128-.661-.437-1.189-.928-1.584-.48-.395-1.066-.592-1.76-.592-.949 0-1.712.32-2.288.96-.576.629-.864 1.499-.864 2.608s.288 1.979.864 2.608c.576.629 1.328.944 2.256.944.736 0 1.35-.187 1.84-.56a2.1 2.1 0 0 0 .848-1.472h-3.04v-2.016h5.376V329h-2.304v-1.168c-.234.395-.613.709-1.136.944a4.054 4.054 0 0 1-1.712.352Zm12.414-5.936c-.278-.128-.619-.192-1.024-.192-.587 0-1.078.251-1.472.752-.395.491-.592 1.269-.592 2.336V329h-2.352v-8.064h2.352v1.392c.181-.427.501-.784.96-1.072.458-.299.928-.448 1.408-.448.341 0 .629.043.864.128l-.144 2.256Zm4.196-2.384c1.131 0 2.027.293 2.688.88.661.576.992 1.419.992 2.528V329h-2.272v-1.024c-.235.352-.56.635-.976.848a2.92 2.92 0 0 1-1.296.304c-.779 0-1.419-.229-1.92-.688a2.227 2.227 0 0 1-.752-1.712c0-1.557 1.163-2.459 3.488-2.704l1.456-.144v-.048c0-.395-.128-.704-.384-.928-.245-.235-.587-.352-1.024-.352-.384 0-.704.112-.96.336-.256.224-.405.528-.448.912l-2.048-.384c.128-.779.517-1.408 1.168-1.888.651-.48 1.413-.72 2.288-.72Zm-.288 6.64c.512 0 .917-.176 1.216-.528a1.92 1.92 0 0 0 .48-1.264v-.128l-1.504.176c-.384.043-.683.149-.896.32a.787.787 0 0 0-.304.624c0 .235.085.427.256.576.181.149.432.224.752.224Zm10.629 1.472a4.11 4.11 0 0 1-1.312.208c-.917 0-1.659-.245-2.224-.736-.565-.491-.848-1.205-.848-2.144v-3.36h-1.28v-1.952h1.28V318.6h2.352v2.336h1.952v1.952h-1.952v3.056c0 .352.085.629.256.832a.9.9 0 0 0 .704.304c.363 0 .667-.064.912-.192l.16 2.032Zm1.24-11.248h2.48v2.256h-2.48v-2.256Zm.048 11.328v-8.064h2.352V329h-2.352Zm9.196-.08a4.11 4.11 0 0 1-1.312.208c-.917 0-1.658-.245-2.224-.736-.565-.491-.848-1.205-.848-2.144v-3.36h-1.28v-1.952h1.28V318.6h2.352v2.336h1.952v1.952h-1.952v3.056c0 .352.086.629.256.832a.9.9 0 0 0 .704.304c.363 0 .667-.064.912-.192l.16 2.032Zm8.987-7.984V329h-2.336v-1.072c-.566.8-1.387 1.2-2.464 1.2-.896 0-1.616-.267-2.16-.8s-.816-1.243-.816-2.128v-5.264h2.352v4.64c0 .437.122.795.368 1.072.256.267.592.4 1.008.4.554 0 .976-.219 1.264-.656.298-.448.448-1.088.448-1.92v-3.536h2.336Zm5.225 8.192c-1.173 0-2.101-.373-2.784-1.12-.672-.757-1.008-1.771-1.008-3.04 0-1.269.336-2.277 1.008-3.024.672-.757 1.589-1.136 2.752-1.136.96 0 1.685.299 2.176.896v-4.032h2.352V329h-2.352v-.8c-.448.619-1.163.928-2.144.928Zm.384-2c.576 0 1.035-.197 1.376-.592.352-.395.528-.917.528-1.568s-.176-1.173-.528-1.568c-.341-.395-.8-.592-1.376-.592-.565 0-1.024.197-1.376.592-.341.395-.512.917-.512 1.568s.171 1.173.512 1.568c.352.395.811.592 1.376.592Zm13.687-2.368c0 .352-.011.645-.032.88h-5.792c.234 1.024.864 1.536 1.888 1.536.864 0 1.386-.347 1.568-1.04l2.208.592a3.133 3.133 0 0 1-1.376 1.776c-.683.416-1.504.624-2.464.624-1.302 0-2.32-.416-3.056-1.248a4.33 4.33 0 0 1-1.088-2.912c0-.704.133-1.36.4-1.968.266-.608.709-1.125 1.328-1.552.629-.427 1.386-.64 2.272-.64.693 0 1.312.123 1.856.368.554.235.992.549 1.312.944.32.395.56.816.72 1.264.17.448.256.907.256 1.376Zm-5.792-.784h3.28c-.043-.427-.203-.768-.48-1.024-.267-.267-.651-.4-1.152-.4-.875 0-1.424.475-1.648 1.424Zm6.175 7.168 1.104-4.48h2.704l-2.288 4.48h-1.52ZM601.16 348.128c-1.6 0-2.939-.501-4.016-1.504-1.077-1.003-1.616-2.411-1.616-4.224 0-1.803.539-3.205 1.616-4.208 1.088-1.013 2.427-1.52 4.016-1.52 1.397 0 2.549.347 3.456 1.04.917.693 1.456 1.621 1.616 2.784l-2.512.528c-.128-.672-.427-1.205-.896-1.6-.469-.395-1.029-.592-1.68-.592-.885 0-1.621.315-2.208.944-.576.619-.864 1.493-.864 2.624s.288 2.005.864 2.624c.576.619 1.312.928 2.208.928.651 0 1.2-.171 1.648-.512.448-.352.736-.832.864-1.44l2.544.576c-.267 1.109-.843 1.979-1.728 2.608s-1.989.944-3.312.944Zm10.421 0c-1.248 0-2.272-.389-3.072-1.168-.79-.789-1.184-1.787-1.184-2.992s.394-2.197 1.184-2.976c.8-.789 1.824-1.184 3.072-1.184 1.226 0 2.24.395 3.04 1.184.81.779 1.216 1.771 1.216 2.976s-.406 2.203-1.216 2.992c-.8.779-1.814 1.168-3.04 1.168Zm0-2c.565 0 1.024-.197 1.376-.592.352-.405.528-.928.528-1.568s-.176-1.157-.528-1.552c-.352-.405-.811-.608-1.376-.608-.576 0-1.04.203-1.392.608-.352.395-.528.912-.528 1.552s.176 1.163.528 1.568c.352.395.816.592 1.392.592ZM617.24 348v-8.064h2.352v1.072c.544-.8 1.365-1.2 2.464-1.2.885 0 1.6.267 2.144.8s.816 1.243.816 2.128V348h-2.336v-4.64c0-.437-.128-.789-.384-1.056-.245-.277-.581-.416-1.008-.416-1.131 0-1.696.859-1.696 2.576V348h-2.352Zm14.368-.08a4.11 4.11 0 0 1-1.312.208c-.917 0-1.659-.245-2.224-.736-.565-.491-.848-1.205-.848-2.144v-3.36h-1.28v-1.952h1.28V337.6h2.352v2.336h1.952v1.952h-1.952v3.056c0 .352.085.629.256.832a.9.9 0 0 0 .704.304c.363 0 .667-.064.912-.192l.16 2.032Zm6.728-5.728c-.277-.128-.618-.192-1.024-.192-.586 0-1.077.251-1.472.752-.394.491-.592 1.269-.592 2.336V348h-2.352v-8.064h2.352v1.392c.182-.427.502-.784.96-1.072.459-.299.928-.448 1.408-.448.342 0 .63.043.864.128l-.144 2.256Zm1.184-5.52H642v2.256h-2.48v-2.256Zm.048 11.328v-8.064h2.352V348h-2.352Zm8.668.128c-.981 0-1.696-.309-2.144-.928v.8h-2.352v-11.328h2.352v4.032c.491-.597 1.216-.896 2.176-.896 1.163 0 2.08.379 2.752 1.136.683.747 1.024 1.755 1.024 3.024 0 1.269-.341 2.283-1.024 3.04-.683.747-1.611 1.12-2.784 1.12Zm-.384-2c.565 0 1.019-.197 1.36-.592.352-.395.528-.917.528-1.568s-.176-1.173-.528-1.568c-.341-.395-.795-.592-1.36-.592-.576 0-1.04.197-1.392.592-.341.395-.512.917-.512 1.568s.171 1.173.512 1.568c.352.395.816.592 1.392.592Zm13.383-6.192V348h-2.336v-1.072c-.565.8-1.387 1.2-2.464 1.2-.896 0-1.616-.267-2.16-.8s-.816-1.243-.816-2.128v-5.264h2.352v4.64c0 .437.123.795.368 1.072.256.267.592.4 1.008.4.555 0 .976-.219 1.264-.656.299-.448.448-1.088.448-1.92v-3.536h2.336Zm6.857 7.984a4.11 4.11 0 0 1-1.312.208c-.917 0-1.658-.245-2.224-.736-.565-.491-.848-1.205-.848-2.144v-3.36h-1.28v-1.952h1.28V337.6h2.352v2.336h1.952v1.952h-1.952v3.056c0 .352.086.629.256.832a.9.9 0 0 0 .704.304c.363 0 .667-.064.912-.192l.16 2.032Zm1.241-11.248h2.48v2.256h-2.48v-2.256Zm.048 11.328v-8.064h2.352V348h-2.352Zm8.028.128c-1.248 0-2.272-.389-3.072-1.168-.79-.789-1.184-1.787-1.184-2.992s.394-2.197 1.184-2.976c.8-.789 1.824-1.184 3.072-1.184 1.226 0 2.24.395 3.04 1.184.81.779 1.216 1.771 1.216 2.976s-.406 2.203-1.216 2.992c-.8.779-1.814 1.168-3.04 1.168Zm0-2c.565 0 1.024-.197 1.376-.592.352-.405.528-.928.528-1.568s-.176-1.157-.528-1.552c-.352-.405-.811-.608-1.376-.608-.576 0-1.04.203-1.392.608-.352.395-.528.912-.528 1.552s.176 1.163.528 1.568c.352.395.816.592 1.392.592Zm5.659 1.872v-8.064h2.352v1.072c.544-.8 1.366-1.2 2.464-1.2.886 0 1.6.267 2.144.8s.816 1.243.816 2.128V348h-2.336v-4.64c0-.437-.128-.789-.384-1.056-.245-.277-.581-.416-1.008-.416-1.13 0-1.696.859-1.696 2.576V348h-2.352Zm9.034 2.144 1.104-4.48h2.704l-2.288 4.48h-1.52Zm12.04-2.144-3.184-11.2h2.592l1.904 8.16 1.952-8.16h2.928l1.968 8.144 1.904-8.144h2.608l-3.152 11.2h-2.688l-2.08-7.792-2.112 7.792h-2.64Zm20.702-4.24c0 .352-.011.645-.032.88h-5.792c.234 1.024.864 1.536 1.888 1.536.864 0 1.386-.347 1.568-1.04l2.208.592a3.133 3.133 0 0 1-1.376 1.776c-.683.416-1.504.624-2.464.624-1.302 0-2.32-.416-3.056-1.248a4.33 4.33 0 0 1-1.088-2.912c0-.704.133-1.36.4-1.968.266-.608.709-1.125 1.328-1.552.629-.427 1.386-.64 2.272-.64.693 0 1.312.123 1.856.368.554.235.992.549 1.312.944.32.395.56.816.72 1.264.17.448.256.907.256 1.376Zm-5.792-.784h3.28c-.043-.427-.203-.768-.48-1.024-.267-.267-.651-.4-1.152-.4-.875 0-1.424.475-1.648 1.424Zm7.219 5.024v-11.328h2.352V348h-2.352Zm4.172 0v-11.328h2.352V348h-2.352Zm8.668.128c-.981 0-1.696-.309-2.144-.928v.8h-2.352v-11.328h2.352v4.032c.491-.597 1.216-.896 2.176-.896 1.163 0 2.08.379 2.752 1.136.683.747 1.024 1.755 1.024 3.024 0 1.269-.341 2.283-1.024 3.04-.683.747-1.611 1.12-2.784 1.12Zm-.384-2c.565 0 1.019-.197 1.36-.592.352-.395.528-.917.528-1.568s-.176-1.173-.528-1.568c-.341-.395-.795-.592-1.36-.592-.576 0-1.04.197-1.392.592-.341.395-.512.917-.512 1.568s.171 1.173.512 1.568c.352.395.816.592 1.392.592Zm13.351-2.368c0 .352-.011.645-.032.88h-5.792c.235 1.024.864 1.536 1.888 1.536.864 0 1.387-.347 1.568-1.04l2.208.592a3.129 3.129 0 0 1-1.376 1.776c-.683.416-1.504.624-2.464.624-1.301 0-2.32-.416-3.056-1.248-.725-.843-1.088-1.813-1.088-2.912 0-.704.133-1.36.4-1.968.267-.608.709-1.125 1.328-1.552.629-.427 1.387-.64 2.272-.64.693 0 1.312.123 1.856.368.555.235.992.549 1.312.944.32.395.56.816.72 1.264.171.448.256.907.256 1.376Zm-5.792-.784h3.28c-.043-.427-.203-.768-.48-1.024-.267-.267-.651-.4-1.152-.4-.875 0-1.424.475-1.648 1.424Zm7.172-6.304h2.48v2.256h-2.48v-2.256Zm.048 11.328v-8.064h2.352V348h-2.352Zm4.172 0v-8.064h2.352v1.072c.544-.8 1.365-1.2 2.464-1.2.885 0 1.6.267 2.144.8s.816 1.243.816 2.128V348h-2.336v-4.64c0-.437-.128-.789-.384-1.056-.246-.277-.582-.416-1.008-.416-1.131 0-1.696.859-1.696 2.576V348h-2.352Zm14.953-8.064h2.32v7.488c0 1.077-.378 1.947-1.136 2.608-.757.672-1.754 1.008-2.992 1.008-.949 0-1.776-.235-2.48-.704-.693-.469-1.109-1.083-1.248-1.84l2.144-.336c.054.32.23.571.528.752.299.192.651.288 1.056.288.544 0 .982-.144 1.312-.432.342-.277.512-.64.512-1.088v-.768c-.437.555-1.13.832-2.08.832-1.141 0-2.042-.357-2.704-1.072-.661-.715-.992-1.68-.992-2.896s.326-2.181.976-2.896c.662-.715 1.552-1.072 2.672-1.072.939 0 1.643.272 2.112.816v-.688Zm-1.68 5.808c.555 0 .992-.176 1.312-.528.331-.363.496-.843.496-1.44s-.165-1.072-.496-1.424c-.32-.363-.757-.544-1.312-.544-.544 0-.981.181-1.312.544-.32.352-.48.827-.48 1.424s.16 1.077.48 1.44c.331.352.768.528 1.312.528Zm5.276 4.4 1.104-4.48h2.704l-2.288 4.48h-1.52ZM596.008 367v-11.2h2.528V367h-2.528Zm4.451 0v-8.064h2.352v1.088c.523-.811 1.28-1.216 2.272-1.216 1.205 0 2.016.48 2.432 1.44.235-.416.592-.757 1.072-1.024.48-.277 1.029-.416 1.648-.416.864 0 1.563.256 2.096.768.533.512.8 1.157.8 1.936V367h-2.336v-4.8c0-.448-.117-.795-.352-1.04-.224-.256-.544-.384-.96-.384-.48 0-.859.187-1.136.56-.267.373-.4.885-.4 1.536V367h-2.32v-4.8c0-.437-.117-.784-.352-1.04-.224-.256-.539-.384-.944-.384-.48 0-.853.192-1.12.576-.267.373-.4.88-.4 1.52V367h-2.352Zm14.5 0v-8.064h2.352v1.088c.523-.811 1.28-1.216 2.272-1.216 1.205 0 2.016.48 2.432 1.44.235-.416.592-.757 1.072-1.024.48-.277 1.029-.416 1.648-.416.864 0 1.563.256 2.096.768.533.512.8 1.157.8 1.936V367h-2.336v-4.8c0-.448-.117-.795-.352-1.04-.224-.256-.544-.384-.96-.384-.48 0-.859.187-1.136.56-.267.373-.4.885-.4 1.536V367h-2.32v-4.8c0-.437-.117-.784-.352-1.04-.224-.256-.539-.384-.944-.384-.48 0-.853.192-1.12.576-.267.373-.4.88-.4 1.52V367h-2.352Zm22.244-4.24c0 .352-.011.645-.032.88h-5.792c.235 1.024.864 1.536 1.888 1.536.864 0 1.387-.347 1.568-1.04l2.208.592a3.129 3.129 0 0 1-1.376 1.776c-.683.416-1.504.624-2.464.624-1.301 0-2.32-.416-3.056-1.248-.725-.843-1.088-1.813-1.088-2.912 0-.704.133-1.36.4-1.968.267-.608.709-1.125 1.328-1.552.629-.427 1.387-.64 2.272-.64.693 0 1.312.123 1.856.368.555.235.992.549 1.312.944.32.395.56.816.72 1.264.171.448.256.907.256 1.376Zm-5.792-.784h3.28c-.043-.427-.203-.768-.48-1.024-.267-.267-.651-.4-1.152-.4-.875 0-1.424.475-1.648 1.424Zm12.66-.784c-.278-.128-.619-.192-1.024-.192-.587 0-1.078.251-1.472.752-.395.491-.592 1.269-.592 2.336V367h-2.352v-8.064h2.352v1.392c.181-.427.501-.784.96-1.072.458-.299.928-.448 1.408-.448.341 0 .629.043.864.128l-.144 2.256Zm3.924 5.936c-.917 0-1.691-.235-2.32-.704-.619-.469-1.045-1.04-1.28-1.712l1.888-.736c.096.395.299.725.608.992.309.256.677.384 1.104.384.309 0 .56-.069.752-.208a.642.642 0 0 0 .288-.544c0-.224-.149-.405-.448-.544a5.024 5.024 0 0 0-1.072-.352 14.164 14.164 0 0 1-1.248-.384 2.567 2.567 0 0 1-1.072-.784c-.288-.373-.432-.843-.432-1.408 0-.651.261-1.2.784-1.648.533-.448 1.232-.672 2.096-.672.821 0 1.541.181 2.16.544.629.363 1.035.837 1.216 1.424l-1.888.784a1.332 1.332 0 0 0-.56-.784 1.427 1.427 0 0 0-.848-.288c-.267 0-.485.053-.656.16-.16.107-.24.245-.24.416 0 .192.107.352.32.48.213.117.48.208.8.272.32.053.667.139 1.04.256.384.117.736.256 1.056.416.32.149.587.405.8.768.213.352.32.784.32 1.296 0 .715-.299 1.323-.896 1.824-.587.501-1.344.752-2.272.752Zm4.447-11.456h2.48v2.256h-2.48v-2.256ZM652.49 367v-8.064h2.352V367h-2.352Zm8.028.128c-1.248 0-2.272-.389-3.072-1.168-.789-.789-1.184-1.787-1.184-2.992s.395-2.197 1.184-2.976c.8-.789 1.824-1.184 3.072-1.184 1.227 0 2.24.395 3.04 1.184.811.779 1.216 1.771 1.216 2.976s-.405 2.203-1.216 2.992c-.8.779-1.813 1.168-3.04 1.168Zm0-2c.565 0 1.024-.197 1.376-.592.352-.405.528-.928.528-1.568s-.176-1.157-.528-1.552c-.352-.405-.811-.608-1.376-.608-.576 0-1.04.203-1.392.608-.352.395-.528.912-.528 1.552s.176 1.163.528 1.568c.352.395.816.592 1.392.592Zm5.66 1.872v-8.064h2.352v1.072c.544-.8 1.365-1.2 2.464-1.2.885 0 1.6.267 2.144.8s.816 1.243.816 2.128V367h-2.336v-4.64c0-.437-.128-.789-.384-1.056-.246-.277-.582-.416-1.008-.416-1.131 0-1.696.859-1.696 2.576V367h-2.352Z" class="Belief, Gratitude, Contribution, Wellbeing, Immersion"/>
      </g>
    </g>
    <g class="Frame 35">
      <g class="Frame 30">
        <path fill="#000" d="M93.004 301v-9.8h3.542c.934 0 1.666.224 2.198.672.532.439.798 1.055.798 1.848 0 .429-.126.821-.378 1.176a2.159 2.159 0 0 1-.91.742c1.148.401 1.722 1.237 1.722 2.506 0 .887-.284 1.587-.854 2.1-.569.504-1.358.756-2.366.756h-3.752Zm1.26-5.768h2.226c1.195 0 1.792-.49 1.792-1.47s-.597-1.47-1.792-1.47h-2.226v2.94Zm0 4.62h2.282c1.438 0 2.156-.579 2.156-1.736 0-1.176-.718-1.764-2.156-1.764h-2.282v3.5Zm11.387-4.746a2.298 2.298 0 0 0-.91-.168c-.598 0-1.088.289-1.47.868-.374.569-.56 1.405-.56 2.506V301h-1.19v-7.056h1.19v1.428c.205-.448.513-.817.924-1.106.41-.289.835-.434 1.274-.434.308 0 .578.042.812.126l-.07 1.148Zm3.615-1.274c.868 0 1.568.238 2.1.714s.798 1.12.798 1.932V301h-1.176v-1.204a2.317 2.317 0 0 1-.952.966c-.42.233-.887.35-1.4.35-.7 0-1.274-.191-1.722-.574-.439-.392-.658-.896-.658-1.512 0-1.325 1.12-2.1 3.36-2.324l1.372-.154v-.14c0-.485-.159-.868-.476-1.148-.308-.289-.723-.434-1.246-.434-.485 0-.887.135-1.204.406-.317.271-.499.644-.546 1.12l-1.106-.21c.103-.7.415-1.26.938-1.68.532-.42 1.171-.63 1.918-.63Zm-.448 6.3c.681 0 1.213-.21 1.596-.63.383-.42.574-.985.574-1.694v-.336l-1.372.154c-1.447.159-2.17.621-2.17 1.386 0 .327.126.597.378.812.261.205.593.308.994.308Zm5.281.868v-7.056h1.19v1.33a2.934 2.934 0 0 1 1.008-1.05c.42-.261.891-.392 1.414-.392.737 0 1.339.229 1.806.686.476.457.714 1.059.714 1.806V301h-1.19v-4.452c0-.485-.145-.877-.434-1.176-.29-.308-.677-.462-1.162-.462-.663 0-1.19.271-1.582.812-.383.532-.574 1.26-.574 2.184V301h-1.19Zm11.062.112c-1.064 0-1.899-.336-2.506-1.008-.597-.681-.896-1.559-.896-2.632 0-1.073.299-1.946.896-2.618.598-.681 1.428-1.022 2.492-1.022.467 0 .91.103 1.33.308.43.205.756.476.98.812v-3.864h1.19V301h-1.19v-1.022c-.158.327-.452.597-.882.812a3.11 3.11 0 0 1-1.414.322Zm-1.554-1.764c.42.467.976.7 1.666.7.691 0 1.246-.233 1.666-.7.42-.476.63-1.101.63-1.876 0-.775-.21-1.395-.63-1.862-.42-.476-.975-.714-1.666-.714-.69 0-1.246.238-1.666.714-.42.467-.63 1.087-.63 1.862 0 .775.21 1.4.63 1.876ZM136.792 301l-3.682-9.8h1.302l3.024 8.33 3.038-8.33h1.302l-3.682 9.8h-1.302Zm7.843-7.168c.868 0 1.568.238 2.1.714s.798 1.12.798 1.932V301h-1.176v-1.204a2.317 2.317 0 0 1-.952.966c-.42.233-.887.35-1.4.35-.7 0-1.274-.191-1.722-.574-.439-.392-.658-.896-.658-1.512 0-1.325 1.12-2.1 3.36-2.324l1.372-.154v-.14c0-.485-.159-.868-.476-1.148-.308-.289-.723-.434-1.246-.434-.485 0-.887.135-1.204.406-.317.271-.499.644-.546 1.12l-1.106-.21c.103-.7.415-1.26.938-1.68.532-.42 1.171-.63 1.918-.63Zm-.448 6.3c.681 0 1.213-.21 1.596-.63.383-.42.574-.985.574-1.694v-.336l-1.372.154c-1.447.159-2.17.621-2.17 1.386 0 .327.126.597.378.812.261.205.593.308.994.308Zm5.281.868v-9.912h1.19V301h-1.19Zm9.249-7.056V301h-1.19v-1.33a2.934 2.934 0 0 1-1.008 1.05c-.42.261-.891.392-1.414.392-.737 0-1.344-.229-1.82-.686-.467-.457-.7-1.059-.7-1.806v-4.676h1.19v4.452c0 .485.145.882.434 1.19.289.299.677.448 1.162.448.663 0 1.185-.266 1.568-.798.392-.541.588-1.274.588-2.198v-3.094h1.19Zm8.319 3.206c0 .196-.01.378-.028.546h-5.572c.037.709.261 1.283.672 1.722.42.429.947.644 1.582.644.541 0 .989-.121 1.344-.364a1.65 1.65 0 0 0 .686-1.022l1.12.266c-.178.681-.546 1.213-1.106 1.596-.551.383-1.232.574-2.044.574-1.036 0-1.872-.35-2.506-1.05-.626-.7-.938-1.563-.938-2.59 0-1.036.308-1.899.924-2.59.625-.7 1.456-1.05 2.492-1.05 1.017 0 1.834.322 2.45.966.616.635.924 1.419.924 2.352Zm-5.53-.448h4.27c-.056-.56-.271-1.013-.644-1.358-.374-.345-.864-.518-1.47-.518-.551 0-1.018.168-1.4.504-.383.327-.635.784-.756 1.372Zm9.359 4.41c-.784 0-1.428-.201-1.932-.602a3.007 3.007 0 0 1-1.008-1.456l1.022-.448c.318.999.957 1.498 1.918 1.498.42 0 .761-.103 1.022-.308.271-.215.406-.471.406-.77a.878.878 0 0 0-.42-.77 3.07 3.07 0 0 0-1.022-.42 31.7 31.7 0 0 1-1.19-.308 2.279 2.279 0 0 1-1.008-.63c-.28-.299-.42-.695-.42-1.19 0-.56.224-1.013.672-1.358.448-.345 1.05-.518 1.806-.518.626 0 1.181.163 1.666.49.486.317.803.733.952 1.246l-.994.434a1.447 1.447 0 0 0-.616-.854 1.718 1.718 0 0 0-1.036-.336c-.401 0-.718.079-.952.238a.72.72 0 0 0-.35.644c0 .233.098.425.294.574.206.149.458.257.756.322.308.056.64.14.994.252.355.103.682.219.98.35.299.131.546.355.742.672.206.308.308.691.308 1.148a1.87 1.87 0 0 1-.714 1.512c-.476.392-1.101.588-1.876.588Z" class="Brand Values"/>
        <path fill="#377D78" d="M6.082 329.128c-1.6 0-2.939-.501-4.016-1.504C.989 326.621.45 325.213.45 323.4c0-1.803.539-3.205 1.616-4.208 1.088-1.013 2.427-1.52 4.016-1.52 1.397 0 2.55.347 3.456 1.04.917.693 1.456 1.621 1.616 2.784l-2.512.528c-.128-.672-.427-1.205-.896-1.6-.47-.395-1.03-.592-1.68-.592-.885 0-1.621.315-2.208.944-.576.619-.864 1.493-.864 2.624s.288 2.005.864 2.624c.576.619 1.312.928 2.208.928.65 0 1.2-.171 1.648-.512.448-.352.736-.832.864-1.44l2.544.576c-.267 1.109-.843 1.979-1.728 2.608s-1.99.944-3.312.944Zm12.004-5.936c-.277-.128-.618-.192-1.024-.192-.586 0-1.077.251-1.472.752-.394.491-.592 1.269-.592 2.336V329h-2.352v-8.064h2.352v1.392c.182-.427.502-.784.96-1.072.459-.299.928-.448 1.408-.448.342 0 .63.043.864.128l-.144 2.256Zm8.726 1.568c0 .352-.01.645-.032.88h-5.792c.235 1.024.864 1.536 1.888 1.536.864 0 1.387-.347 1.568-1.04l2.208.592a3.13 3.13 0 0 1-1.376 1.776c-.682.416-1.504.624-2.464.624-1.301 0-2.32-.416-3.056-1.248-.725-.843-1.088-1.813-1.088-2.912 0-.704.134-1.36.4-1.968.267-.608.71-1.125 1.328-1.552.63-.427 1.387-.64 2.272-.64.694 0 1.312.123 1.856.368.555.235.992.549 1.312.944.32.395.56.816.72 1.264.17.448.256.907.256 1.376Zm-5.792-.784h3.28c-.042-.427-.202-.768-.48-1.024-.266-.267-.65-.4-1.152-.4-.874 0-1.424.475-1.648 1.424Zm10.357-3.168c1.13 0 2.026.293 2.688.88.66.576.992 1.419.992 2.528V329h-2.273v-1.024a2.53 2.53 0 0 1-.976.848 2.92 2.92 0 0 1-1.296.304c-.778 0-1.418-.229-1.92-.688a2.226 2.226 0 0 1-.752-1.712c0-1.557 1.163-2.459 3.488-2.704l1.457-.144v-.048c0-.395-.128-.704-.384-.928-.246-.235-.587-.352-1.025-.352-.384 0-.704.112-.96.336-.256.224-.405.528-.448.912l-2.047-.384c.128-.779.517-1.408 1.168-1.888.65-.48 1.413-.72 2.288-.72Zm-.288 6.64c.512 0 .917-.176 1.215-.528.31-.352.47-.773.48-1.264v-.128l-1.503.176c-.384.043-.683.149-.896.32a.788.788 0 0 0-.305.624.73.73 0 0 0 .257.576c.18.149.431.224.752.224Zm10.628 1.472a4.112 4.112 0 0 1-1.312.208c-.917 0-1.658-.245-2.224-.736-.565-.491-.848-1.205-.848-2.144v-3.36h-1.28v-1.952h1.28V318.6h2.352v2.336h1.952v1.952h-1.952v3.056c0 .352.086.629.256.832a.9.9 0 0 0 .704.304c.363 0 .667-.064.912-.192l.16 2.032Zm1.24-11.248h2.48v2.256h-2.48v-2.256Zm.05 11.328v-8.064h2.352V329h-2.352Zm4.172 0v-8.064h2.352v1.072c.544-.8 1.365-1.2 2.464-1.2.885 0 1.6.267 2.144.8s.816 1.243.816 2.128V329h-2.336v-4.64c0-.437-.128-.789-.384-1.056-.246-.277-.582-.416-1.008-.416-1.131 0-1.696.859-1.696 2.576V329h-2.352Zm14.953-8.064h2.32v7.488c0 1.077-.378 1.947-1.136 2.608-.757.672-1.754 1.008-2.992 1.008-.949 0-1.776-.235-2.48-.704-.693-.469-1.109-1.083-1.248-1.84l2.144-.336c.054.32.23.571.528.752.299.192.651.288 1.056.288.544 0 .982-.144 1.312-.432.342-.277.512-.64.512-1.088v-.768c-.437.555-1.13.832-2.08.832-1.141 0-2.042-.357-2.704-1.072-.661-.715-.992-1.68-.992-2.896s.326-2.181.976-2.896c.662-.715 1.552-1.072 2.672-1.072.939 0 1.643.272 2.112.816v-.688Zm-1.68 5.808c.555 0 .992-.176 1.312-.528.331-.363.496-.843.496-1.44s-.165-1.072-.496-1.424c-.32-.363-.757-.544-1.312-.544-.544 0-.981.181-1.312.544-.32.352-.48.827-.48 1.424s.16 1.077.48 1.44c.331.352.768.528 1.312.528Zm15.04 2.384c-1.664 0-3.04-.539-4.128-1.616-1.088-1.088-1.632-2.459-1.632-4.112s.544-3.019 1.632-4.096c1.088-1.088 2.464-1.632 4.128-1.632 1.653 0 3.019.544 4.096 1.632 1.088 1.088 1.632 2.453 1.632 4.096 0 1.643-.544 3.008-1.632 4.096-1.077 1.088-2.443 1.632-4.096 1.632Zm-2.336-3.184c.608.672 1.382 1.008 2.32 1.008.939 0 1.707-.336 2.304-1.008.608-.672.912-1.52.912-2.544s-.304-1.872-.912-2.544c-.608-.683-1.376-1.024-2.304-1.024-.938 0-1.712.336-2.32 1.008-.597.672-.896 1.525-.896 2.56 0 1.024.299 1.872.896 2.544Zm9.491 5.968v-10.976h2.352v.8c.491-.619 1.243-.928 2.256-.928 1.12 0 2.016.379 2.688 1.136.672.757 1.008 1.765 1.008 3.024 0 1.259-.357 2.267-1.072 3.024-.714.757-1.653 1.136-2.816 1.136-.928 0-1.616-.251-2.064-.752v3.536h-2.352Zm2.736-5.376c.352.395.811.592 1.376.592.566 0 1.019-.197 1.36-.592.352-.395.528-.917.528-1.568s-.176-1.173-.528-1.568c-.341-.395-.794-.592-1.36-.592-.565 0-1.024.197-1.376.592-.352.395-.528.917-.528 1.568s.176 1.173.528 1.568Zm6.983 5.376v-10.976h2.352v.8c.49-.619 1.243-.928 2.256-.928 1.12 0 2.016.379 2.688 1.136.672.757 1.008 1.765 1.008 3.024 0 1.259-.357 2.267-1.072 3.024-.715.757-1.653 1.136-2.816 1.136-.928 0-1.616-.251-2.064-.752v3.536h-2.352Zm2.736-5.376c.352.395.81.592 1.376.592.566 0 1.019-.197 1.36-.592.352-.395.528-.917.528-1.568s-.176-1.173-.528-1.568c-.341-.395-.794-.592-1.36-.592-.565 0-1.024.197-1.376.592-.352.395-.528.917-.528 1.568s.176 1.173.528 1.568Zm10.839 2.592c-1.248 0-2.272-.389-3.072-1.168-.789-.789-1.184-1.787-1.184-2.992s.395-2.197 1.184-2.976c.8-.789 1.824-1.184 3.072-1.184 1.227 0 2.24.395 3.04 1.184.811.779 1.216 1.771 1.216 2.976s-.405 2.203-1.216 2.992c-.8.779-1.813 1.168-3.04 1.168Zm0-2c.565 0 1.024-.197 1.376-.592.352-.405.528-.928.528-1.568s-.176-1.157-.528-1.552c-.352-.405-.811-.608-1.376-.608-.576 0-1.04.203-1.392.608-.352.395-.528.912-.528 1.552s.176 1.163.528 1.568c.352.395.816.592 1.392.592Zm10.556-4a2.104 2.104 0 0 0-.544-.064c-.587 0-1.067.24-1.44.72-.374.469-.56 1.237-.56 2.304V329H111.6v-8.064h2.352v1.392c.16-.437.448-.8.864-1.088a2.34 2.34 0 0 1 1.36-.432l.48.048-.16 2.272Zm6.878 5.792a4.115 4.115 0 0 1-1.312.208c-.918 0-1.659-.245-2.224-.736-.566-.491-.848-1.205-.848-2.144v-3.36h-1.28v-1.952h1.28V318.6h2.352v2.336h1.952v1.952h-1.952v3.056c0 .352.085.629.256.832a.9.9 0 0 0 .704.304c.362 0 .666-.064.912-.192l.16 2.032Zm8.986-7.984V329h-2.336v-1.072c-.565.8-1.387 1.2-2.464 1.2-.896 0-1.616-.267-2.16-.8s-.816-1.243-.816-2.128v-5.264h2.352v4.64c0 .437.123.795.368 1.072.256.267.592.4 1.008.4.555 0 .976-.219 1.264-.656.299-.448.448-1.088.448-1.92v-3.536h2.336Zm1.833 8.064v-8.064h2.352v1.072c.544-.8 1.366-1.2 2.464-1.2.886 0 1.6.267 2.144.8s.816 1.243.816 2.128V329h-2.336v-4.64c0-.437-.128-.789-.384-1.056-.245-.277-.581-.416-1.008-.416-1.13 0-1.696.859-1.696 2.576V329h-2.352Zm9.546-11.328h2.48v2.256h-2.48v-2.256Zm.048 11.328v-8.064h2.352V329h-2.352Zm9.196-.08a4.11 4.11 0 0 1-1.312.208c-.917 0-1.659-.245-2.224-.736-.565-.491-.848-1.205-.848-2.144v-3.36h-1.28v-1.952h1.28V318.6h2.352v2.336h1.952v1.952h-1.952v3.056c0 .352.085.629.256.832a.9.9 0 0 0 .704.304c.363 0 .667-.064.912-.192l.16 2.032Zm1.24-11.248h2.48v2.256h-2.48v-2.256Zm.048 11.328v-8.064h2.352V329h-2.352Zm11.916-4.24c0 .352-.01.645-.032.88h-5.792c.235 1.024.864 1.536 1.888 1.536.864 0 1.387-.347 1.568-1.04l2.208.592a3.125 3.125 0 0 1-1.376 1.776c-.682.416-1.504.624-2.464.624-1.301 0-2.32-.416-3.056-1.248-.725-.843-1.088-1.813-1.088-2.912 0-.704.134-1.36.4-1.968.267-.608.71-1.125 1.328-1.552.63-.427 1.387-.64 2.272-.64.694 0 1.312.123 1.856.368.555.235.992.549 1.312.944.32.395.56.816.72 1.264.171.448.256.907.256 1.376Zm-5.792-.784h3.28c-.042-.427-.202-.768-.48-1.024-.266-.267-.65-.4-1.152-.4-.874 0-1.424.475-1.648 1.424Zm10.022 5.152c-.917 0-1.691-.235-2.32-.704-.619-.469-1.045-1.04-1.28-1.712l1.888-.736c.096.395.299.725.608.992.309.256.677.384 1.104.384.309 0 .56-.069.752-.208a.642.642 0 0 0 .288-.544c0-.224-.149-.405-.448-.544a5.024 5.024 0 0 0-1.072-.352 14.164 14.164 0 0 1-1.248-.384 2.567 2.567 0 0 1-1.072-.784c-.288-.373-.432-.843-.432-1.408 0-.651.261-1.2.784-1.648.533-.448 1.232-.672 2.096-.672.821 0 1.541.181 2.16.544.629.363 1.035.837 1.216 1.424l-1.888.784a1.332 1.332 0 0 0-.56-.784 1.427 1.427 0 0 0-.848-.288c-.267 0-.485.053-.656.16-.16.107-.24.245-.24.416 0 .192.107.352.32.48.213.117.48.208.8.272.32.053.667.139 1.04.256.384.117.736.256 1.056.416.32.149.587.405.8.768.213.352.32.784.32 1.296 0 .715-.299 1.323-.896 1.824-.587.501-1.344.752-2.272.752ZM9.492 348v-11.2h4.496c1.056 0 1.915.256 2.576.768.672.501 1.008 1.205 1.008 2.112 0 .491-.128.933-.384 1.328a2.509 2.509 0 0 1-.928.88 2.921 2.921 0 0 1 1.344 1.024c.352.469.528 1.051.528 1.744 0 1.045-.368 1.867-1.104 2.464-.736.587-1.706.88-2.912.88H9.492Zm2.48-6.96h1.824c.96 0 1.44-.373 1.44-1.12 0-.757-.496-1.136-1.488-1.136h-1.776v2.256Zm0 4.784h1.92c1.248 0 1.872-.437 1.872-1.312 0-.907-.624-1.36-1.872-1.36h-1.92v2.672Zm15.357-5.888V348h-2.336v-1.072c-.566.8-1.387 1.2-2.464 1.2-.896 0-1.616-.267-2.16-.8s-.816-1.243-.816-2.128v-5.264h2.352v4.64c0 .437.122.795.368 1.072.256.267.592.4 1.008.4.554 0 .976-.219 1.264-.656.298-.448.448-1.088.448-1.92v-3.536h2.336Zm1.785-3.264h2.48v2.256h-2.48v-2.256ZM29.162 348v-8.064h2.352V348h-2.352Zm4.172 0v-11.328h2.352V348h-2.352Zm7.564.128c-1.174 0-2.102-.373-2.784-1.12-.672-.757-1.008-1.771-1.008-3.04 0-1.269.336-2.277 1.008-3.024.672-.757 1.59-1.136 2.752-1.136.96 0 1.685.299 2.176.896v-4.032h2.352V348h-2.352v-.8c-.448.619-1.163.928-2.144.928Zm.384-2c.576 0 1.034-.197 1.376-.592.352-.395.528-.917.528-1.568s-.176-1.173-.528-1.568c-.342-.395-.8-.592-1.376-.592-.566 0-1.024.197-1.376.592-.342.395-.512.917-.512 1.568s.17 1.173.512 1.568c.352.395.81.592 1.376.592Zm5.895-9.456h2.48v2.256h-2.48v-2.256ZM47.223 348v-8.064h2.353V348h-2.352Zm4.172 0v-8.064h2.352v1.072c.544-.8 1.366-1.2 2.464-1.2.886 0 1.6.267 2.144.8s.816 1.243.816 2.128V348h-2.336v-4.64c0-.437-.128-.789-.384-1.056-.245-.277-.581-.416-1.008-.416-1.13 0-1.696.859-1.696 2.576V348h-2.352Zm14.954-8.064h2.32v7.488c0 1.077-.379 1.947-1.136 2.608-.757.672-1.755 1.008-2.992 1.008-.95 0-1.776-.235-2.48-.704-.693-.469-1.11-1.083-1.248-1.84l2.144-.336c.053.32.23.571.528.752.299.192.65.288 1.056.288.544 0 .981-.144 1.312-.432.341-.277.512-.64.512-1.088v-.768c-.437.555-1.13.832-2.08.832-1.141 0-2.043-.357-2.704-1.072-.661-.715-.992-1.68-.992-2.896s.325-2.181.976-2.896c.661-.715 1.552-1.072 2.672-1.072.939 0 1.643.272 2.112.816v-.688Zm-1.68 5.808c.555 0 .992-.176 1.312-.528.33-.363.496-.843.496-1.44s-.165-1.072-.496-1.424c-.32-.363-.757-.544-1.312-.544-.544 0-.981.181-1.312.544-.32.352-.48.827-.48 1.424s.16 1.077.48 1.44c.33.352.768.528 1.312.528Zm14.912 2.384c-1.6 0-2.939-.501-4.016-1.504-1.078-1.003-1.616-2.411-1.616-4.224 0-1.803.538-3.205 1.616-4.208 1.088-1.013 2.427-1.52 4.016-1.52 1.397 0 2.55.347 3.456 1.04.917.693 1.456 1.621 1.616 2.784l-2.512.528c-.128-.672-.427-1.205-.896-1.6-.47-.395-1.03-.592-1.68-.592-.886 0-1.621.315-2.208.944-.576.619-.864 1.493-.864 2.624s.288 2.005.864 2.624c.576.619 1.312.928 2.208.928.65 0 1.2-.171 1.648-.512.448-.352.736-.832.864-1.44l2.544.576c-.267 1.109-.843 1.979-1.728 2.608-.886.629-1.99.944-3.312.944Zm10.42 0c-1.248 0-2.272-.389-3.072-1.168-.789-.789-1.184-1.787-1.184-2.992s.395-2.197 1.184-2.976c.8-.789 1.824-1.184 3.072-1.184 1.227 0 2.24.395 3.04 1.184.811.779 1.216 1.771 1.216 2.976s-.405 2.203-1.216 2.992c-.8.779-1.813 1.168-3.04 1.168Zm0-2c.566 0 1.024-.197 1.376-.592.352-.405.528-.928.528-1.568s-.176-1.157-.528-1.552c-.352-.405-.81-.608-1.376-.608-.576 0-1.04.203-1.392.608-.352.395-.528.912-.528 1.552s.176 1.163.528 1.568c.352.395.816.592 1.392.592Zm5.66 1.872v-8.064h2.352v1.088c.523-.811 1.28-1.216 2.272-1.216 1.205 0 2.016.48 2.432 1.44.235-.416.592-.757 1.072-1.024.48-.277 1.029-.416 1.648-.416.864 0 1.563.256 2.096.768.533.512.8 1.157.8 1.936V348h-2.336v-4.8c0-.448-.117-.795-.352-1.04-.224-.256-.544-.384-.96-.384-.48 0-.859.187-1.136.56-.267.373-.4.885-.4 1.536V348h-2.32v-4.8c0-.437-.117-.784-.352-1.04-.224-.256-.539-.384-.944-.384-.48 0-.853.192-1.12.576-.267.373-.4.88-.4 1.52V348h-2.352Zm14.5 0v-8.064h2.352v1.088c.523-.811 1.28-1.216 2.272-1.216 1.205 0 2.016.48 2.432 1.44.235-.416.592-.757 1.072-1.024.48-.277 1.029-.416 1.648-.416.864 0 1.563.256 2.096.768.533.512.8 1.157.8 1.936V348h-2.336v-4.8c0-.448-.117-.795-.352-1.04-.224-.256-.544-.384-.96-.384-.48 0-.859.187-1.136.56-.267.373-.4.885-.4 1.536V348h-2.32v-4.8c0-.437-.117-.784-.352-1.04-.224-.256-.539-.384-.944-.384-.48 0-.853.192-1.12.576-.267.373-.4.88-.4 1.52V348h-2.352Zm22.198-8.064V348h-2.336v-1.072c-.565.8-1.387 1.2-2.464 1.2-.896 0-1.616-.267-2.16-.8s-.816-1.243-.816-2.128v-5.264h2.352v4.64c0 .437.123.795.368 1.072.256.267.592.4 1.008.4.555 0 .976-.219 1.264-.656.299-.448.448-1.088.448-1.92v-3.536h2.336Zm1.833 8.064v-8.064h2.352v1.072c.544-.8 1.366-1.2 2.464-1.2.886 0 1.6.267 2.144.8s.816 1.243.816 2.128V348h-2.336v-4.64c0-.437-.128-.789-.384-1.056-.245-.277-.581-.416-1.008-.416-1.13 0-1.696.859-1.696 2.576V348h-2.352Zm9.546-11.328h2.48v2.256h-2.48v-2.256Zm.048 11.328v-8.064h2.352V348h-2.352Zm9.196-.08a4.11 4.11 0 0 1-1.312.208c-.917 0-1.659-.245-2.224-.736-.565-.491-.848-1.205-.848-2.144v-3.36h-1.28v-1.952h1.28V337.6h2.352v2.336h1.952v1.952h-1.952v3.056c0 .352.085.629.256.832a.9.9 0 0 0 .704.304c.363 0 .667-.064.912-.192l.16 2.032Zm1.24-11.248h2.48v2.256h-2.48v-2.256ZM154.27 348v-8.064h2.352V348h-2.352Zm11.916-4.24c0 .352-.01.645-.032.88h-5.792c.235 1.024.864 1.536 1.888 1.536.864 0 1.387-.347 1.568-1.04l2.208.592a3.125 3.125 0 0 1-1.376 1.776c-.682.416-1.504.624-2.464.624-1.301 0-2.32-.416-3.056-1.248-.725-.843-1.088-1.813-1.088-2.912 0-.704.134-1.36.4-1.968.267-.608.71-1.125 1.328-1.552.63-.427 1.387-.64 2.272-.64.694 0 1.312.123 1.856.368.555.235.992.549 1.312.944.32.395.56.816.72 1.264.171.448.256.907.256 1.376Zm-5.792-.784h3.28c-.042-.427-.202-.768-.48-1.024-.266-.267-.65-.4-1.152-.4-.874 0-1.424.475-1.648 1.424Zm10.022 5.152c-.917 0-1.691-.235-2.32-.704-.619-.469-1.045-1.04-1.28-1.712l1.888-.736c.096.395.299.725.608.992.309.256.677.384 1.104.384.309 0 .56-.069.752-.208a.642.642 0 0 0 .288-.544c0-.224-.149-.405-.448-.544a5.024 5.024 0 0 0-1.072-.352 14.164 14.164 0 0 1-1.248-.384 2.567 2.567 0 0 1-1.072-.784c-.288-.373-.432-.843-.432-1.408 0-.651.261-1.2.784-1.648.533-.448 1.232-.672 2.096-.672.821 0 1.541.181 2.16.544.629.363 1.035.837 1.216 1.424l-1.888.784a1.332 1.332 0 0 0-.56-.784 1.427 1.427 0 0 0-.848-.288c-.267 0-.485.053-.656.16-.16.107-.24.245-.24.416 0 .192.107.352.32.48.213.117.48.208.8.272.32.053.667.139 1.04.256.384.117.736.256 1.056.416.32.149.587.405.8.768.213.352.32.784.32 1.296 0 .715-.299 1.323-.896 1.824-.587.501-1.344.752-2.272.752ZM39.68 367v-11.2h7.696v2.16h-5.168v2.048h4.096v2.176h-4.096v2.64h5.344V367H39.68Zm9.294 0v-8.064h2.353v1.088c.522-.811 1.28-1.216 2.272-1.216 1.205 0 2.016.48 2.432 1.44.234-.416.592-.757 1.072-1.024.48-.277 1.029-.416 1.648-.416.864 0 1.562.256 2.096.768.533.512.8 1.157.8 1.936V367H59.31v-4.8c0-.448-.117-.795-.352-1.04-.224-.256-.544-.384-.96-.384-.48 0-.858.187-1.136.56-.266.373-.4.885-.4 1.536V367h-2.32v-4.8c0-.437-.117-.784-.352-1.04-.224-.256-.538-.384-.944-.384-.48 0-.853.192-1.12.576-.266.373-.4.88-.4 1.52V367h-2.352Zm14.5 2.912v-10.976h2.352v.8c.491-.619 1.243-.928 2.257-.928 1.12 0 2.016.379 2.688 1.136.671.757 1.007 1.765 1.007 3.024 0 1.259-.357 2.267-1.072 3.024-.714.757-1.653 1.136-2.816 1.136-.927 0-1.615-.251-2.064-.752v3.536h-2.351Zm2.736-5.376c.353.395.811.592 1.377.592.565 0 1.018-.197 1.36-.592.352-.395.528-.917.528-1.568s-.176-1.173-.528-1.568c-.342-.395-.795-.592-1.36-.592-.566 0-1.025.197-1.377.592-.351.395-.527.917-.527 1.568s.175 1.173.527 1.568Zm10.84 2.592c-1.249 0-2.273-.389-3.073-1.168-.79-.789-1.184-1.787-1.184-2.992s.395-2.197 1.184-2.976c.8-.789 1.824-1.184 3.072-1.184 1.227 0 2.24.395 3.04 1.184.81.779 1.216 1.771 1.216 2.976s-.405 2.203-1.216 2.992c-.8.779-1.813 1.168-3.04 1.168Zm0-2c.565 0 1.023-.197 1.375-.592.352-.405.528-.928.528-1.568s-.176-1.157-.528-1.552c-.352-.405-.81-.608-1.376-.608-.576 0-1.04.203-1.392.608-.352.395-.528.912-.528 1.552s.176 1.163.528 1.568c.352.395.816.592 1.392.592ZM84.27 367l-2.513-8.064h2.352l1.2 4.784 1.472-4.784h2.128l1.472 4.784 1.2-4.784h2.352L91.421 367h-2.047l-1.52-4.832L86.316 367H84.27Zm18.261-4.24c0 .352-.011.645-.032.88h-5.792c.235 1.024.864 1.536 1.888 1.536.864 0 1.387-.347 1.568-1.04l2.208.592a3.129 3.129 0 0 1-1.376 1.776c-.683.416-1.504.624-2.464.624-1.301 0-2.32-.416-3.056-1.248-.725-.843-1.088-1.813-1.088-2.912 0-.704.133-1.36.4-1.968.267-.608.71-1.125 1.328-1.552.63-.427 1.387-.64 2.272-.64.693 0 1.312.123 1.856.368.555.235.992.549 1.312.944.32.395.56.816.72 1.264.171.448.256.907.256 1.376Zm-5.792-.784h3.28c-.043-.427-.203-.768-.48-1.024-.267-.267-.65-.4-1.152-.4-.875 0-1.424.475-1.648 1.424Zm12.66-.784c-.277-.128-.619-.192-1.024-.192-.587 0-1.077.251-1.472.752-.395.491-.592 1.269-.592 2.336V367h-2.352v-8.064h2.352v1.392c.181-.427.501-.784.96-1.072.459-.299.928-.448 1.408-.448.341 0 .629.043.864.128l-.144 2.256Zm1.184-5.52h2.48v2.256h-2.48v-2.256Zm.048 11.328v-8.064h2.352V367h-2.352Zm4.172 0v-8.064h2.352v1.072c.544-.8 1.365-1.2 2.464-1.2.885 0 1.6.267 2.144.8s.816 1.243.816 2.128V367h-2.336v-4.64c0-.437-.128-.789-.384-1.056-.246-.277-.582-.416-1.008-.416-1.131 0-1.696.859-1.696 2.576V367h-2.352Zm14.953-8.064h2.32v7.488c0 1.077-.378 1.947-1.136 2.608-.757.672-1.754 1.008-2.992 1.008-.949 0-1.776-.235-2.48-.704-.693-.469-1.109-1.083-1.248-1.84l2.144-.336c.054.32.23.571.528.752.299.192.651.288 1.056.288.544 0 .982-.144 1.312-.432.342-.277.512-.64.512-1.088v-.768c-.437.555-1.13.832-2.08.832-1.141 0-2.042-.357-2.704-1.072-.661-.715-.992-1.68-.992-2.896s.326-2.181.976-2.896c.662-.715 1.552-1.072 2.672-1.072.939 0 1.643.272 2.112.816v-.688Zm-1.68 5.808c.555 0 .992-.176 1.312-.528.331-.363.496-.843.496-1.44s-.165-1.072-.496-1.424c-.32-.363-.757-.544-1.312-.544-.544 0-.981.181-1.312.544-.32.352-.48.827-.48 1.424s.16 1.077.48 1.44c.331.352.768.528 1.312.528Zm9.76 2.256v-11.2h2.528v9.024h5.024V367h-7.552Zm8.591-11.328h2.48v2.256h-2.48v-2.256Zm.048 11.328v-8.064h2.352V367h-2.352Zm6.283 0-2.928-8.064h2.352l1.632 5.344 1.632-5.344h2.368L154.886 367h-2.128Zm13.429-4.24c0 .352-.01.645-.032.88h-5.792c.235 1.024.864 1.536 1.888 1.536.864 0 1.387-.347 1.568-1.04l2.208.592a3.125 3.125 0 0 1-1.376 1.776c-.682.416-1.504.624-2.464.624-1.301 0-2.32-.416-3.056-1.248-.725-.843-1.088-1.813-1.088-2.912 0-.704.134-1.36.4-1.968.267-.608.71-1.125 1.328-1.552.63-.427 1.387-.64 2.272-.64.694 0 1.312.123 1.856.368.555.235.992.549 1.312.944.32.395.56.816.72 1.264.171.448.256.907.256 1.376Zm-5.792-.784h3.28c-.042-.427-.202-.768-.48-1.024-.266-.267-.65-.4-1.152-.4-.874 0-1.424.475-1.648 1.424Zm10.022 5.152c-.917 0-1.691-.235-2.32-.704-.619-.469-1.045-1.04-1.28-1.712l1.888-.736c.096.395.299.725.608.992.309.256.677.384 1.104.384.309 0 .56-.069.752-.208a.642.642 0 0 0 .288-.544c0-.224-.149-.405-.448-.544a5.024 5.024 0 0 0-1.072-.352 14.164 14.164 0 0 1-1.248-.384 2.567 2.567 0 0 1-1.072-.784c-.288-.373-.432-.843-.432-1.408 0-.651.261-1.2.784-1.648.533-.448 1.232-.672 2.096-.672.821 0 1.541.181 2.16.544.629.363 1.035.837 1.216 1.424l-1.888.784a1.332 1.332 0 0 0-.56-.784 1.427 1.427 0 0 0-.848-.288c-.267 0-.485.053-.656.16-.16.107-.24.245-.24.416 0 .192.107.352.32.48.213.117.48.208.8.272.32.053.667.139 1.04.256.384.117.736.256 1.056.416.32.149.587.405.8.768.213.352.32.784.32 1.296 0 .715-.299 1.323-.896 1.824-.587.501-1.344.752-2.272.752Z" class="Creating Opportunities Building Communities Empowering Lives"/>
      </g>
      <g class="vision-icon-03">
        <g class="Group 4">
          <circle cx="264" cy="330" r="65" fill="#F7F7F7" stroke="#377D78" stroke-width="10" class="uterCircle"/>
          <circle cx="264" cy="330" r="58.5" fill="#F7F7F7" stroke="#fff" stroke-width="3" class="innerCircle"/>
          <path fill="#000" d="M265.014 300c-5.509 0-10.002 4.437-10.002 9.877 0 2.291 1.172 4.524 2.774 6.714 1.602 2.189 3.672 4.321 5.743 6.212a84.398 84.398 0 0 0 8.283 6.597l.703.502.703-.502s4.146-2.816 8.283-6.597c2.071-1.891 4.141-4.027 5.743-6.212 1.602-2.185 2.774-4.432 2.774-6.714 0-5.44-4.493-9.877-10.002-9.877-3.028 0-5.67 1.403-7.501 3.511-1.831-2.108-4.473-3.511-7.501-3.511Zm0 2.469a7.544 7.544 0 0 1 6.446 3.627l1.055 1.736 1.055-1.736a7.544 7.544 0 0 1 6.446-3.627c4.156 0 7.502 3.304 7.502 7.408 0 1.38-.86 3.27-2.305 5.248-1.446 1.977-3.439 4.041-5.431 5.864-3.634 3.323-6.647 5.392-7.267 5.826-.62-.434-3.633-2.512-7.267-5.826-1.992-1.818-3.985-3.848-5.431-5.826-1.445-1.977-2.305-3.887-2.305-5.286 0-4.104 3.346-7.408 7.502-7.408Zm25.004 28.436c-1.211.072-2.422.617-3.321 1.505l-12.229 12.038H263.06l-.508-.502 7.306-1.427c1.866-.367 3.468-1.766 3.829-3.704.532-2.88-1.748-5.479-4.61-5.479h-17.425c-2.984 0-5.86 1.157-7.97 3.241l-10.822 10.687-.86.888.86.887 11.252 11.112.898.849.899-.849 4.258-4.244c.235-.231.528-.347.86-.347h23.168a6.286 6.286 0 0 0 4.415-1.814l15.002-14.816c1.92-1.895 1.842-5.059-.195-6.867-.977-.869-2.188-1.23-3.399-1.158Zm.117 2.469a2.23 2.23 0 0 1 1.641.541c1.001.887 1.011 2.358.078 3.279l-15.002 14.816a3.779 3.779 0 0 1-2.657 1.08h-23.168c-.996 0-1.915.386-2.618 1.081l-3.399 3.318-9.455-9.337 9.924-9.8a8.787 8.787 0 0 1 6.173-2.547h17.425c1.358 0 2.412 1.153 2.149 2.585-.157.839-.938 1.515-1.876 1.698l-9.572 1.929-2.305.424 1.641 1.66 2.501 2.469.39.347h13.518l.391-.347 12.541-12.424a2.754 2.754 0 0 1 1.68-.772Z" class="Vector"/>
        </g>
      </g>
    </g>
    <g class="Group 49">
      <path stroke="#000" stroke-dasharray="1 3" d="M384.25 0v418.5" class="Vector 11"/>
      <path stroke="#000" stroke-dasharray="1 3" d="M175 209.25h418.5" class="Vector 12"/>
    </g>
  </g>
  <defs>
    <clipPath id="a" class="a">
      <path fill="#fff" d="M0 0h782v419H0z"/>
    </clipPath>
  </defs>
</svg>
