<svg width="130" height="130" viewBox="0 0 130 130" fill="none" xmlns="http://www.w3.org/2000/svg">
<path d="M65 130C100.899 130 130 100.899 130 65C130 29.1015 100.899 0 65 0C29.1015 0 0 29.1015 0 65C0 100.899 29.1015 130 65 130Z" fill="#70737C"/>
<path d="M65.7198 111.45C91.644 111.45 112.66 90.4342 112.66 64.5099C112.66 38.5857 91.644 17.5699 65.7198 17.5699C39.7955 17.5699 18.7798 38.5857 18.7798 64.5099C18.7798 90.4342 39.7955 111.45 65.7198 111.45Z" fill="url(#paint0_linear_7_2)"/>
<path d="M108.443 71.5785C112.335 47.9891 96.3678 25.7105 72.7784 21.818C49.189 17.9255 26.9105 33.893 23.018 57.4824C19.1255 81.0718 35.0929 103.35 58.6824 107.243C82.2718 111.135 104.55 95.1679 108.443 71.5785Z" fill="url(#paint1_linear_7_2)"/>
<path d="M50.907 61V52.2727H52.2479V61H50.907ZM51.5888 50.8182C51.3274 50.8182 51.102 50.7292 50.9126 50.5511C50.727 50.3731 50.6342 50.1591 50.6342 49.9091C50.6342 49.6591 50.727 49.4451 50.9126 49.267C51.102 49.089 51.3274 49 51.5888 49C51.8501 49 52.0736 49.089 52.2592 49.267C52.4486 49.4451 52.5433 49.6591 52.5433 49.9091C52.5433 50.1591 52.4486 50.3731 52.2592 50.5511C52.0736 50.7292 51.8501 50.8182 51.5888 50.8182ZM58.2493 61.1818C57.4311 61.1818 56.7266 60.9886 56.1357 60.6023C55.5447 60.2159 55.0902 59.6837 54.772 59.0057C54.4538 58.3277 54.2947 57.553 54.2947 56.6818C54.2947 55.7955 54.4576 55.0133 54.7834 54.3352C55.1129 53.6534 55.5713 53.1212 56.1584 52.7386C56.7493 52.3523 57.4387 52.1591 58.2266 52.1591C58.8402 52.1591 59.3932 52.2727 59.8857 52.5C60.3781 52.7273 60.7815 53.0455 61.0959 53.4545C61.4103 53.8636 61.6054 54.3409 61.6811 54.8864H60.3402C60.2379 54.4886 60.0107 54.1364 59.6584 53.8295C59.3099 53.5189 58.8402 53.3636 58.2493 53.3636C57.7266 53.3636 57.2682 53.5 56.8743 53.7727C56.4841 54.0417 56.1792 54.4223 55.9595 54.9148C55.7436 55.4034 55.6357 55.9773 55.6357 56.6364C55.6357 57.3106 55.7417 57.8977 55.9538 58.3977C56.1697 58.8977 56.4728 59.286 56.8629 59.5625C57.2569 59.839 57.719 59.9773 58.2493 59.9773C58.5978 59.9773 58.9141 59.9167 59.1982 59.7955C59.4822 59.6742 59.7228 59.5 59.9197 59.2727C60.1167 59.0455 60.2569 58.7727 60.3402 58.4545H61.6811C61.6054 58.9697 61.4179 59.4337 61.1186 59.8466C60.8232 60.2557 60.4311 60.5814 59.9425 60.8239C59.4576 61.0625 58.8932 61.1818 58.2493 61.1818ZM67.1868 61.1818C66.3989 61.1818 65.7076 60.9943 65.1129 60.6193C64.522 60.2443 64.0599 59.7197 63.7266 59.0455C63.397 58.3712 63.2322 57.5833 63.2322 56.6818C63.2322 55.7727 63.397 54.9792 63.7266 54.3011C64.0599 53.6231 64.522 53.0966 65.1129 52.7216C65.7076 52.3466 66.3989 52.1591 67.1868 52.1591C67.9747 52.1591 68.6641 52.3466 69.255 52.7216C69.8497 53.0966 70.3118 53.6231 70.6413 54.3011C70.9747 54.9792 71.1413 55.7727 71.1413 56.6818C71.1413 57.5833 70.9747 58.3712 70.6413 59.0455C70.3118 59.7197 69.8497 60.2443 69.255 60.6193C68.6641 60.9943 67.9747 61.1818 67.1868 61.1818ZM67.1868 59.9773C67.7853 59.9773 68.2777 59.8239 68.6641 59.517C69.0504 59.2102 69.3364 58.8068 69.522 58.3068C69.7076 57.8068 69.8004 57.2652 69.8004 56.6818C69.8004 56.0985 69.7076 55.5549 69.522 55.0511C69.3364 54.5473 69.0504 54.1402 68.6641 53.8295C68.2777 53.5189 67.7853 53.3636 67.1868 53.3636C66.5883 53.3636 66.0959 53.5189 65.7095 53.8295C65.3232 54.1402 65.0372 54.5473 64.8516 55.0511C64.666 55.5549 64.5732 56.0985 64.5732 56.6818C64.5732 57.2652 64.666 57.8068 64.8516 58.3068C65.0372 58.8068 65.3232 59.2102 65.7095 59.517C66.0959 59.8239 66.5883 59.9773 67.1868 59.9773ZM74.5291 55.75V61H73.1882V52.2727H74.4837V53.6364H74.5973C74.8018 53.1932 75.1125 52.8371 75.5291 52.5682C75.9458 52.2955 76.4837 52.1591 77.1428 52.1591C77.7337 52.1591 78.2507 52.2803 78.6939 52.5227C79.1371 52.7614 79.4818 53.125 79.728 53.6136C79.9742 54.0985 80.0973 54.7121 80.0973 55.4545V61H78.7564V55.5455C78.7564 54.8598 78.5784 54.3258 78.2223 53.9432C77.8662 53.5568 77.3776 53.3636 76.7564 53.3636C76.3284 53.3636 75.9458 53.4564 75.6087 53.642C75.2753 53.8277 75.0121 54.0985 74.8189 54.4545C74.6257 54.8106 74.5291 55.2424 74.5291 55.75ZM37.2571 71.2727V72.4091H32.7344V71.2727H37.2571ZM34.0526 69.1818H35.3935V77.5C35.3935 77.8788 35.4484 78.1629 35.5582 78.3523C35.6719 78.5379 35.8158 78.6629 35.9901 78.7273C36.1681 78.7879 36.3556 78.8182 36.5526 78.8182C36.7003 78.8182 36.8215 78.8106 36.9162 78.7955C37.0109 78.7765 37.0866 78.7614 37.1435 78.75L37.4162 79.9545C37.3253 79.9886 37.1984 80.0227 37.0355 80.0568C36.8726 80.0947 36.6662 80.1136 36.4162 80.1136C36.0374 80.1136 35.6662 80.0322 35.3026 79.8693C34.9427 79.7064 34.6435 79.4583 34.4048 79.125C34.17 78.7917 34.0526 78.3712 34.0526 77.8636V69.1818ZM42.8395 80.1818C41.9986 80.1818 41.2732 79.9962 40.6634 79.625C40.0573 79.25 39.5895 78.7273 39.2599 78.0568C38.9342 77.3826 38.7713 76.5985 38.7713 75.7045C38.7713 74.8106 38.9342 74.0227 39.2599 73.3409C39.5895 72.6553 40.0478 72.1212 40.6349 71.7386C41.2259 71.3523 41.9152 71.1591 42.7031 71.1591C43.1577 71.1591 43.6065 71.2348 44.0497 71.3864C44.4929 71.5379 44.8963 71.7841 45.2599 72.125C45.6236 72.4621 45.9134 72.9091 46.1293 73.4659C46.3452 74.0227 46.4531 74.7083 46.4531 75.5227V76.0909H39.7259V74.9318H45.0895C45.0895 74.4394 44.991 74 44.794 73.6136C44.6009 73.2273 44.3243 72.9223 43.9645 72.6989C43.6084 72.4754 43.188 72.3636 42.7031 72.3636C42.169 72.3636 41.7069 72.4962 41.3168 72.7614C40.9304 73.0227 40.633 73.3636 40.4247 73.7841C40.2164 74.2045 40.1122 74.6553 40.1122 75.1364V75.9091C40.1122 76.5682 40.2259 77.1269 40.4531 77.5852C40.6842 78.0398 41.0043 78.3864 41.4134 78.625C41.8224 78.8598 42.2978 78.9773 42.8395 78.9773C43.1918 78.9773 43.5099 78.928 43.794 78.8295C44.0819 78.7273 44.33 78.5758 44.5384 78.375C44.7467 78.1705 44.9077 77.9167 45.0213 77.6136L46.3168 77.9773C46.1804 78.4167 45.9512 78.803 45.6293 79.1364C45.3073 79.4659 44.9096 79.7235 44.4361 79.9091C43.9626 80.0909 43.4304 80.1818 42.8395 80.1818ZM48.4929 80V71.2727H49.7884V72.6364H49.902C50.0838 72.1705 50.3774 71.8087 50.7827 71.5511C51.188 71.2898 51.6747 71.1591 52.2429 71.1591C52.8187 71.1591 53.2978 71.2898 53.6804 71.5511C54.0668 71.8087 54.3679 72.1705 54.5838 72.6364H54.6747C54.8982 72.1856 55.2334 71.8277 55.6804 71.5625C56.1274 71.2936 56.6634 71.1591 57.2884 71.1591C58.0687 71.1591 58.7069 71.4034 59.2031 71.892C59.6993 72.3769 59.9474 73.1326 59.9474 74.1591V80H58.6065V74.1591C58.6065 73.5152 58.4304 73.0549 58.0781 72.7784C57.7259 72.5019 57.3111 72.3636 56.8338 72.3636C56.2202 72.3636 55.7448 72.5492 55.4077 72.9205C55.0705 73.2879 54.902 73.7538 54.902 74.3182V80H53.5384V74.0227C53.5384 73.5265 53.3774 73.1269 53.0554 72.8239C52.7334 72.517 52.3187 72.3636 51.8111 72.3636C51.4626 72.3636 51.1368 72.4564 50.8338 72.642C50.5346 72.8277 50.2921 73.0852 50.1065 73.4148C49.9247 73.7405 49.8338 74.1174 49.8338 74.5455V80H48.4929ZM62.3991 83.2727V71.2727H63.6946V72.6591H63.8537C63.9522 72.5076 64.0885 72.3144 64.2628 72.0795C64.4408 71.8409 64.6946 71.6288 65.0241 71.4432C65.3575 71.2538 65.8082 71.1591 66.3764 71.1591C67.1113 71.1591 67.759 71.3428 68.3196 71.7102C68.8802 72.0777 69.3177 72.5985 69.6321 73.2727C69.9465 73.947 70.1037 74.7424 70.1037 75.6591C70.1037 76.5833 69.9465 77.3845 69.6321 78.0625C69.3177 78.7367 68.8821 79.2595 68.3253 79.6307C67.7685 79.9981 67.1264 80.1818 66.3991 80.1818C65.8385 80.1818 65.3897 80.089 65.0526 79.9034C64.7154 79.714 64.456 79.5 64.2741 79.2614C64.0923 79.0189 63.9522 78.8182 63.8537 78.6591H63.7401V83.2727H62.3991ZM63.7173 75.6364C63.7173 76.2955 63.8139 76.8769 64.0071 77.3807C64.2003 77.8807 64.4825 78.2727 64.8537 78.5568C65.2249 78.8371 65.6795 78.9773 66.2173 78.9773C66.7779 78.9773 67.2457 78.8295 67.6207 78.5341C67.9995 78.2348 68.2836 77.8333 68.473 77.3295C68.6662 76.822 68.7628 76.2576 68.7628 75.6364C68.7628 75.0227 68.6681 74.4697 68.4787 73.9773C68.2931 73.4811 68.0109 73.089 67.6321 72.8011C67.2571 72.5095 66.7855 72.3636 66.2173 72.3636C65.6719 72.3636 65.2135 72.5019 64.8423 72.7784C64.4711 73.0511 64.1908 73.4337 64.0014 73.9261C63.812 74.4148 63.7173 74.9848 63.7173 75.6364ZM73.4901 68.3636V80H72.1491V68.3636H73.4901ZM78.5142 80.2045C77.9612 80.2045 77.4593 80.1004 77.0085 79.892C76.5578 79.6799 76.1998 79.375 75.9347 78.9773C75.6695 78.5758 75.5369 78.0909 75.5369 77.5227C75.5369 77.0227 75.6354 76.6174 75.8324 76.3068C76.0294 75.9924 76.2926 75.7462 76.6222 75.5682C76.9517 75.3902 77.3153 75.2576 77.7131 75.1705C78.1146 75.0795 78.518 75.0076 78.9233 74.9545C79.4536 74.8864 79.8835 74.8352 80.2131 74.8011C80.5464 74.7633 80.7888 74.7008 80.9403 74.6136C81.0956 74.5265 81.1733 74.375 81.1733 74.1591V74.1136C81.1733 73.553 81.0199 73.1174 80.7131 72.8068C80.41 72.4962 79.9498 72.3409 79.3324 72.3409C78.6922 72.3409 78.1903 72.4811 77.8267 72.7614C77.4631 73.0417 77.2074 73.3409 77.0597 73.6591L75.7869 73.2045C76.0142 72.6742 76.3172 72.2614 76.696 71.9659C77.0786 71.6667 77.4953 71.4583 77.946 71.3409C78.4006 71.2197 78.8475 71.1591 79.2869 71.1591C79.5672 71.1591 79.8892 71.1932 80.2528 71.2614C80.6203 71.3258 80.9744 71.4602 81.3153 71.6648C81.66 71.8693 81.946 72.178 82.1733 72.5909C82.4006 73.0038 82.5142 73.5568 82.5142 74.25V80H81.1733V78.8182H81.1051C81.0142 79.0076 80.8627 79.2102 80.6506 79.4261C80.4384 79.642 80.1563 79.8258 79.804 79.9773C79.4517 80.1288 79.0218 80.2045 78.5142 80.2045ZM78.7188 79C79.2491 79 79.696 78.8958 80.0597 78.6875C80.4271 78.4792 80.7036 78.2102 80.8892 77.8807C81.0786 77.5511 81.1733 77.2045 81.1733 76.8409V75.6136C81.1165 75.6818 80.9915 75.7443 80.7983 75.8011C80.6089 75.8542 80.3892 75.9015 80.1392 75.9432C79.893 75.9811 79.6525 76.0152 79.4176 76.0455C79.1866 76.072 78.9991 76.0947 78.8551 76.1136C78.5066 76.1591 78.1809 76.233 77.8778 76.3352C77.5786 76.4337 77.3362 76.5833 77.1506 76.7841C76.9688 76.9811 76.8778 77.25 76.8778 77.5909C76.8778 78.0568 77.0502 78.4091 77.3949 78.6477C77.7434 78.8826 78.1847 79 78.7188 79ZM88.7571 71.2727V72.4091H84.2344V71.2727H88.7571ZM85.5526 69.1818H86.8935V77.5C86.8935 77.8788 86.9484 78.1629 87.0582 78.3523C87.1719 78.5379 87.3158 78.6629 87.4901 78.7273C87.6681 78.7879 87.8556 78.8182 88.0526 78.8182C88.2003 78.8182 88.3215 78.8106 88.4162 78.7955C88.5109 78.7765 88.5866 78.7614 88.6435 78.75L88.9162 79.9545C88.8253 79.9886 88.6984 80.0227 88.5355 80.0568C88.3726 80.0947 88.1662 80.1136 87.9162 80.1136C87.5374 80.1136 87.1662 80.0322 86.8026 79.8693C86.4427 79.7064 86.1435 79.4583 85.9048 79.125C85.67 78.7917 85.5526 78.3712 85.5526 77.8636V69.1818ZM94.3395 80.1818C93.4986 80.1818 92.7732 79.9962 92.1634 79.625C91.5573 79.25 91.0895 78.7273 90.7599 78.0568C90.4342 77.3826 90.2713 76.5985 90.2713 75.7045C90.2713 74.8106 90.4342 74.0227 90.7599 73.3409C91.0895 72.6553 91.5478 72.1212 92.1349 71.7386C92.7259 71.3523 93.4152 71.1591 94.2031 71.1591C94.6577 71.1591 95.1065 71.2348 95.5497 71.3864C95.9929 71.5379 96.3963 71.7841 96.7599 72.125C97.1236 72.4621 97.4134 72.9091 97.6293 73.4659C97.8452 74.0227 97.9531 74.7083 97.9531 75.5227V76.0909H91.2259V74.9318H96.5895C96.5895 74.4394 96.491 74 96.294 73.6136C96.1009 73.2273 95.8243 72.9223 95.4645 72.6989C95.1084 72.4754 94.688 72.3636 94.2031 72.3636C93.669 72.3636 93.2069 72.4962 92.8168 72.7614C92.4304 73.0227 92.133 73.3636 91.9247 73.7841C91.7164 74.2045 91.6122 74.6553 91.6122 75.1364V75.9091C91.6122 76.5682 91.7259 77.1269 91.9531 77.5852C92.1842 78.0398 92.5043 78.3864 92.9134 78.625C93.3224 78.8598 93.7978 78.9773 94.3395 78.9773C94.6918 78.9773 95.0099 78.928 95.294 78.8295C95.5819 78.7273 95.83 78.5758 96.0384 78.375C96.2467 78.1705 96.4077 77.9167 96.5213 77.6136L97.8168 77.9773C97.6804 78.4167 97.4512 78.803 97.1293 79.1364C96.8073 79.4659 96.4096 79.7235 95.9361 79.9091C95.4626 80.0909 94.9304 80.1818 94.3395 80.1818Z" fill="black"/>
<defs>
<linearGradient id="paint0_linear_7_2" x1="21.3398" y1="13.4499" x2="84.5398" y2="86.1499" gradientUnits="userSpaceOnUse">
<stop stop-color="white"/>
<stop offset="1" stop-color="#F2F2F2"/>
</linearGradient>
<linearGradient id="paint1_linear_7_2" x1="93.7704" y1="94.3953" x2="38.4504" y2="35.4353" gradientUnits="userSpaceOnUse">
<stop stop-color="white"/>
<stop offset="1" stop-color="#F2F2F2"/>
</linearGradient>
</defs>
</svg>
