<svg xmlns="http://www.w3.org/2000/svg" width="130" height="131" fill="none" viewBox="0 0 130 131">
  <path fill="#70737C" d="M65 130.92c35.899 0 65-29.101 65-65 0-35.898-29.101-65-65-65-35.898 0-65 29.101-65 65s29.102 65 65 65Z"/>
  <path fill="url(#a)" d="M65.72 112.37c25.924 0 46.94-21.016 46.94-46.94S91.644 18.49 65.72 18.49c-25.925 0-46.94 21.016-46.94 46.94s21.015 46.94 46.94 46.94Z"/>
  <path fill="url(#b)" d="M108.443 72.499c3.892-23.59-12.075-45.868-35.665-49.76-23.589-3.893-45.868 12.074-49.76 35.663-3.893 23.59 12.075 45.868 35.664 49.761 23.59 3.892 45.868-12.075 49.761-35.664Z"/>
  <path fill="#357C77" d="M58.917 85.66c-.49 0-.96-.29-1.15-.78-.26-.64.05-1.36.69-1.62l12.4-5.02c-.02-2.65 1.1-5.28 4.18-10 1.26-1.94 1.93-4.18 1.93-6.48 0-6.55-5.32-11.87-11.87-11.87-6.55 0-11.87 5.33-11.87 11.87 0 2.31.67 4.55 1.93 6.48 3.44 5.29 4.44 7.95 4.12 10.95-.07.68-.69 1.18-1.37 1.1-.68-.07-1.18-.69-1.1-1.37.25-2.33-.66-4.6-3.73-9.33a14.29 14.29 0 0 1-2.34-7.84c0-7.92 6.44-14.36 14.36-14.36 7.92 0 14.36 6.44 14.36 14.36 0 2.78-.81 5.5-2.33 7.84-3.08 4.72-3.99 6.99-3.74 9.33.06.55-.26 1.08-.77 1.29l-13.22 5.36c-.15.06-.31.09-.47.09h-.01Zm-1.3-23.25c0-3.88 2.75-7.26 6.55-8.03.67-.14 1.11-.8.97-1.47a1.25 1.25 0 0 0-1.47-.97c-4.95 1.01-8.54 5.42-8.54 10.47a1.24 1.24 0 1 0 2.48 0h.01Zm3.93 26.73 9.62-3.92c.64-.26.94-.99.68-1.62-.26-.64-.98-.94-1.62-.68l-9.62 3.92c-.64.26-.94.99-.68 1.62.2.48.66.78 1.15.78.16 0 .31-.03.47-.09v-.01Zm2.1 3.43 6.98-2.84c.64-.26.94-.99.68-1.62-.26-.64-.98-.94-1.62-.68l-6.98 2.84c-.64.26-.94.99-.68 1.62.2.48.66.78 1.15.78.16 0 .31-.03.47-.09v-.01Zm2.15-47.97v-4.72c0-.49-.4-.88-.88-.88s-.88.4-.88.88v4.72c0 .49.39.88.88.88s.88-.4.88-.88Zm6.63 1.48 1.61-4.44a.875.875 0 0 0-.53-1.13.879.879 0 0 0-1.13.53l-1.62 4.44c-.16.46.07.97.53 1.13.1.04.2.05.3.05.36 0 .7-.22.83-.58h.01Zm5.73 3.66 3.03-3.62c.31-.37.27-.93-.11-1.24a.885.885 0 0 0-1.24.11l-3.03 3.62a.885.885 0 0 0 1.35 1.14v-.01Zm4.13 5.4 4.09-2.36a.88.88 0 0 0 .32-1.21.871.871 0 0 0-1.2-.32l-4.09 2.36c-.42.24-.57.78-.32 1.2.16.28.46.44.76.44.15 0 .3-.04.44-.12v.01Zm-23.76-8.53c.46-.17.69-.67.52-1.13l-1.61-4.44a.883.883 0 0 0-1.13-.53c-.46.17-.69.67-.52 1.13l1.61 4.44c.13.36.47.58.83.58.1 0 .2-.02.3-.05Zm-5.62 3.24c.37-.31.42-.87.11-1.24l-3.03-3.62a.885.885 0 0 0-1.24-.11c-.37.31-.42.87-.11 1.24l3.03 3.62a.887.887 0 0 0 1.25.1l-.01.01Zm-4.17 4.97c.24-.42.1-.96-.32-1.21l-4.09-2.36a.894.894 0 0 0-1.21.32c-.24.42-.1.96.32 1.21l4.09 2.36c.14.08.29.12.44.12.3 0 .6-.16.76-.44h.01Z"/>
  <defs>
    <linearGradient id="a" x1="21.34" x2="84.54" y1="14.37" y2="87.07" gradientUnits="userSpaceOnUse">
      <stop stop-color="#fff"/>
      <stop offset="1" stop-color="#F2F2F2"/>
    </linearGradient>
    <linearGradient id="b" x1="93.77" x2="38.45" y1="95.315" y2="36.355" gradientUnits="userSpaceOnUse">
      <stop stop-color="#fff"/>
      <stop offset="1" stop-color="#F2F2F2"/>
    </linearGradient>
  </defs>
</svg>
