<svg xmlns="http://www.w3.org/2000/svg" width="130" height="131" fill="none" viewBox="0 0 130 131">
  <path fill="#70737C" d="M65 130.92c35.899 0 65-29.101 65-65 0-35.898-29.101-65-65-65-35.898 0-65 29.101-65 65s29.102 65 65 65Z"/>
  <path fill="url(#a)" d="M65.72 112.37c25.924 0 46.94-21.016 46.94-46.94S91.644 18.49 65.72 18.49c-25.925 0-46.94 21.016-46.94 46.94s21.015 46.94 46.94 46.94Z"/>
  <path fill="url(#b)" d="M108.443 72.499c3.892-23.59-12.075-45.868-35.665-49.76-23.589-3.893-45.868 12.074-49.76 35.663-3.893 23.59 12.075 45.868 35.664 49.761 23.59 3.892 45.868-12.075 49.761-35.664Z"/>
  <path fill="#BEBFC2" d="M48.089 74.732c.05-.007.067-.032-.002-.027-.051.005-.058.036.002.027Zm-1.521.062c.024.02.048-.041.024-.054-.02-.01-.04.04-.024.054Zm-10.366-2.669c.015-.028-.025-.064-.025-.098 0-.048-.022.051 0 .093.005.01.018.017.024.005h.001Zm1.288-16.173.04.01c.013.003.046 0 .042-.016-.002-.007-.019-.008-.013-.018.004-.006.049-.01.05-.023 0-.022-.065.008-.069.014-.021.022-.13.023-.097.03.016.003.033-.003.047.005v-.002Zm.129-.159c.009.005.07-.021.026-.053h-.003c-.019-.015-.063.027-.05.043.005.007.018.005.026.01h.001Zm.054.151c.023-.015.112-.116.043-.06-.02.017-.05.025-.074.048-.023.021.013.024.031.013v-.002Zm.063.02c.022-.016.049-.062-.004-.033-.033.017-.031.058.004.033Zm-.083.091c-.01 0-.031-.01-.04-.001-.007.007-.007.024-.004.033.011.04.067-.016.093-.033.01-.008 0-.013-.01-.013-.014 0-.023.014-.039.013v.001Zm.322-.265c.016-.043-.031-.012-.041.01-.014.033.033.01.041-.01Zm.082.028c.021 0 .026-.12.004-.103-.059.051-.11.104-.004.103Zm.1-.128c.013.019.061.006.011-.023-.045-.027-.097-.033-.136-.07-.028-.027-.05 0-.021.022.03.021.13.05.147.073l-.001-.002Zm11.963-7.038c.012.004-.007.026.016.02.012-.003.019-.012.026-.019.003-.003.006-.011.009-.008.007.005-.015.025-.003.03.008.002.023-.019.03-.022.026-.007.064-.007.083.01.003.003-.01.002-.014.003a.034.034 0 0 0-.023.01c-.032.033-.078.03-.06.072.005.012.134-.032.164-.038a.15.15 0 0 0 .043-.018c-.006-.026-.139-.099-.156-.12-.016-.022.034-.09.017-.095-.04-.01-.07.036-.103.056-.017.011.04.041.02.059-.01.008-.031-.028-.056-.012-.024.016.015.022.009.036-.003.007-.047.026-.027.039.01.005.017-.005.026-.002v-.001Zm-.054-.132c.023-.009.003-.039-.018-.037 0 0-.162.071-.14.083.094.05.157-.046.158-.046Zm.734-.353c.05.097.078-.17-.005-.075-.016.019-.012-.027-.04-.024-.08.007.032.071.045.099Zm.33-.56c.022.004.006.036.026.04.036.009.016-.037.026-.048.019-.02.069-.003.085-.023.014-.019-.048-.069-.046-.07.006-.015.114-.083.021-.103-.025-.006-.007-.05-.042-.048-.036.002-.003.032-.01.039-.12.092.044.087-.023.132l-.016-.009s-.043-.024-.053-.019c-.009.005-.004.019-.004.025.004.033-.009.044-.012.073-.004.046.022.008.046.013l.001-.002Zm8.5-4.079c-.024-.003-.034.003-.048.017-.003.003-.013.01-.018.007-.005-.004.005-.021.006-.026.046-.123 0-.153-.099-.226-.004-.003-.011-.269-.074-.282-.086-.017-.239.148-.286.205-.005.004-.027.02-.023.026.016.021.079.005.086.03l-.003.008c-.046.076.02.155-.01.21-.063.117-.165 0-.189.008-.03.007-.001.107-.011.129-.01.02-.04-.009-.042-.01-.011-.006-.037.015-.039.023-.002.017.016.038.026.052.069.086.35-.05.46-.05.071 0 .373.158.463.065.099-.102-.099-.17-.197-.185l-.002-.001Zm3.306-.746c-.025-.061.068.012.035-.077-.008-.024-.041-.097-.041-.12 0-.003.057-.073.013-.059-.069.021-.02.082-.059.096a.374.374 0 0 1-.081.016c-.005-.002-.03-.052-.043-.03-.008.01.007.03.014.037.129.146.014.106.016.146 0 .014.051.06.063.074.034.043.033.099.06.139.067.1.091-.074.094-.123.005-.08-.066-.086-.071-.1v.001Zm.048.694a.055.055 0 0 1-.034.006c-.033-.006-.113-.062-.13-.003-.005.014-.005.029.007.04.014.014.034.02.044.037.076.135.256-.161.113-.08ZM50.71 48.487c.003-.01-.1-.059-.087.023.008.052.084-.008.087-.023Zm2.778-1.887c-.05-.022-.168-.056-.156.003.002.015.178.007.156-.003Zm2.436 1.763c.017.008.08.057.08.021 0-.109-.058-.084-.075-.14-.043-.14-.096.073-.005.119Zm2.248-.325.029.031.008.02c.036-.021-.064-.229-.126-.249-.054-.017.065.18.088.198h.001Zm4.455-3.978c-.092.037-.105.023-.006.087.087.058.057-.108.005-.087Zm1.753-.803c-.018-.008-.026-.047-.03-.048-.008-.003-.05.034-.06.04-.02.01-.055-.013-.068.002-.011.013.011.032.007.048-.007.023.172-.033.152-.042h-.002Zm-.147.231c.015-.018-.031-.036-.007-.05.019-.01.032.011.05.01.022-.002.029-.026.053-.03.008 0 .025.005.03 0 .019-.012 0-.032-.02-.032-.123 0-.15.01-.167.093-.006.03.051.022.061.009Zm2.353.636c.026.016.146-.03-.01-.083-.088-.03-.022.063.01.083Zm.074-.098c.017.032.106-.019.06-.039-.016-.007-.1-.014-.1.006 0 .014.033.023.04.033Zm-10.387 4.068.072.073c.097.103-.024-.15-.063-.186-.064-.062-.05.063-.041.093.001.004.025.014.032.021v-.001Zm-6.474.473c.028-.047-.07-.063-.093.005-.009.024.078.018.093-.005Zm.107.109s.016.017.023.017c.014 0 .008-.03.004-.036-.02-.024-.07-.002-.026.02l-.001-.001Zm1.086-.073c.016-.054-.047.006-.057.024-.017.036.044.016.057-.024Zm-.441-.533c.027.008.008-.054-.015-.065-.025-.013-.01.059.015.066Zm.349-.621c.01.022.035-.007.02-.03-.022-.028-.025.014-.02.03Zm.007-.175c-.003-.02-.051-.02-.024.01.018.02.03.035.024-.01Zm.865.12c-.007.017.009.017.026.02.002 0 .018 0 .02-.003.005-.027-.045-.093-.056-.069-.01.019.017.03.01.05v.002Zm.707-.174-.003-.02c-.003-.018-.032.012-.035.017l-.004.024c-.036.069.033-.005.042-.019v-.001Zm.107-.048c-.021-.011-.034-.027-.053-.037h-.01c-.043.016.01.037.009.057 0 .029.1.005.053-.02h.001Zm3.609.618c.046-.01-.014-.037-.025-.037-.014 0-.024.047.025.037Zm6.051-4.41s-.019-.051-.036-.028c-.008.013.022.025-.008.064-.03.04.077.033.043-.036Zm.286-.02c-.024-.017-.044.013-.027.028.02.017.046-.015.027-.028Zm15.786-1.355s-.016.005-.015.01c.003.023.05.007.044-.018-.006-.025-.022.003-.03.01v-.002Zm-.051.298c.012.016.035-.017.02-.033-.017-.02-.021.032-.02.033Zm1.663 1.398.008-.004.002-.006-.005-.006-.008.002-.005.004.002.007.006.003Zm.05.002s.002-.01 0-.015h-.005s-.009.006-.01.01l.004.006h.009l.001-.002Zm.198.15.006-.005v-.007l-.006-.004a.023.023 0 0 0-.012.01l.003.007h.009v-.001Zm10.165 14.165c-.003-.014.011-.081-.007-.074-.068.03-.06.25-.035.255.096.014.046-.164.042-.18Zm.944.346a.408.408 0 0 0 .08-.071c-.002-.009-.107-.15-.133-.106-.004.009-.03.223.052.178h.001Zm.863 1.593c.018.062-.073-.011-.026.086.035.072.198.236.265.302.037.036.152-.016.15-.04-.003-.116-.109-.11-.129-.225-.004-.021.046-.114.026-.129-.004-.002-.017.012-.02.013-.013.016-.027.049-.05.056-.043.011 0-.039-.003-.041-.017-.019-.061-.008-.081-.023-.028-.023-.058-.003-.086-.013-.019-.006.003-.035-.029-.049-.013-.006-.013.005-.021.007-.005.002-.075-.005-.053.015.018.015.041-.003.055.043l.002-.002Zm3.727 5.354c.01.043.045.032.04-.005-.007-.049-.03-.093-.035-.143-.007-.1.087-.196.081-.28 0-.022-.028-.03-.047-.012-.057.056-.1.023-.121.046-.046.05.062.322.081.394h.001Zm.042.066c-.027.013-.083.42-.069.458.012.033.02.013.047.012h.012c.043.004.107-.26.127-.322.006-.018.056-.093.05-.105-.002-.005-.07-.001-.081-.003-.034-.001-.053-.055-.086-.04ZM85.157 81.22c.166-.006-.224-.043-.242-.036-.06.023.082.073.105.075.049.003.09-.037.139-.039h-.002Zm-1.923-.628c-.035-.001-.068.013-.106.004-.024-.005-.061-.043-.081-.038-.022.005-.039.125-.026.153.004.008.019 0 .027.002a.08.08 0 0 1 .042.02c.061.048.104-.047.146-.062.027-.01.097.004.117-.006.054-.026-.097-.073-.122-.075l.003.002Zm6.851-22.222c-.066-.061-.067.082-.058.106.014.04.098-.069.058-.106Zm1.946 1.166c.039.028.017-.105-.02-.041-.014.024-.028.003-.028.037 0 .003-.005.015.005.015s.013-.03.043-.01Zm.646.919c-.015-.043-.072-.07-.076-.112.004.03.015.1.034.143.014.033.056.01.041-.03v-.001Zm-.077-.111v-.015.015Zm2.612 2.18c.079.047-.038-.081-.041-.084-.052-.046.014.067.041.084Zm-4.695-4.496c-.022-.013-.174.063-.114.078.047.011.154-.055.114-.078Z"/>
  <path fill="#BEBFC2" d="M91.214 58.239c.052-.073-.05.017-.07.045-.05.075.063-.035.07-.045Zm.719 1.131c.002-.038-.038-.017-.045.008-.008.024.043.027.044-.008Zm-5.647 27.851c-.086.096.023.039.013.075-.004.018-.15.001-.09.05.02.016.117.007.133.031.032.05-.093-.004-.049.08.016.03.042-.015.075-.017.011 0 .044.019.048.017.006-.002.005-.021.005-.024-.002-.036-.098-.253-.135-.21v-.002Zm-.181.341c-.008.024.032.06-.009.073-.034.011-.053-.073-.086-.027-.013.017.043.133.006.143-.037.01-.059-.045-.083-.059-.138-.076.016.084.02.094.008.023.05.03.071.013.032-.024.005-.104.058-.108.033.001-.005.105.123.127.015.003.111-.145.111-.176 0-.049-.053-.087-.077-.132-.031-.061-.123.017-.135.053v-.001Zm1.628-1.432c-.05-.023-.052.015-.029.038.026.026.08.021.115.04.057.032.035-.024-.086-.077v-.002Zm-.173.473c-.029-.016-.01-.064-.038-.072-.208-.057-.14.145-.186.2-.03.034.125.02.16-.01.03-.03-.11-.035-.06-.08.01-.01.248.028.125-.037h-.001ZM68.294 43.565c.075.03.155-.076.123-.08-.044-.007-.213.043-.123.08Zm.476-.09c.028-.019.01-.045.025-.05.024-.008.014.025.036.02.066-.019.256-.158.272-.21a1.056 1.056 0 0 0-.165.075c-.017.01-.044.066-.071.085-.078.05-.045-.045-.086-.033-.039.01-.046.058-.062.08-.03.038-.057-.027-.081.048l-.006.012c-.017.036.12-.014.139-.027Zm.803-.859c.002-.023-.071-.003-.08.019-.012.033.012.123-.037.193-.019.029-.049.009-.086.033-.076.05-.104.167-.164.233-.03.033-.06.019-.06.066 0 .19.417-.415.427-.544Zm-1.025 1.424c-.022.02.073.036.094.037.02 0 .014-.026.027-.031.036-.016.192-.042.172-.1-.007-.02-.027-.02-.05-.013-.02.005-.032.07-.108.077-.048.004.002-.049-.024-.052-.007 0-.044.05-.056.058-.021.013-.044-.039-.06-.025-.017.016.03.023.003.05l.002-.001Zm.037 2.04-.004-.012a.197.197 0 0 1 .004.014v-.004.001Zm4.795 4.47c.005-.014-.01-.094.004-.091.046.02.013.094.152.09.11-.003.111-.093.154-.127.036-.029.06.068.109.027.03-.027.023-.137.026-.14.025-.032.081.051.093-.013.004-.023-.105-.014-.06-.04.022-.015.044-.005.063-.009.014-.003.015-.044.047-.044.025 0 .06.098.077.094.007-.001.041-.036.076-.041.076-.01.16-.015.123-.102-.017-.04-.02.04-.047.029l-.009-.006c-.03-.021-.077-.023-.106-.049-.01-.008-.027-.048-.04-.05-.086-.008-.127.033-.196.063-.049.022-.217.015-.273.029-.122.03-.28.286-.262.386.01.052.067 0 .07-.007l-.001.002Zm.52.378-.027-.021-.008-.004c-.039.037-.145.163-.122.198.039.06 0-.031.076-.043.028-.004.186.122.149-.084-.005-.024-.046-.034-.068-.046Zm4.336-8.764.004.009.012.012c.01.008.024.003.026-.008.005-.034-.042-.065-.065-.093-.01-.013-.053-.085-.063-.086-.057-.007-.179.12-.09.22.043.048.137-.024.175-.055l.001.001Zm6.056 10.496c-.039.031.123.1.126.104.044.054.078.19.088.199.119.094.215-.066.212-.073-.01-.029-.126-.113-.133-.15-.007-.039.063-.096.053-.103-.024-.019-.065.047-.107-.012-.063-.086.002.07-.023.082-.04.018-.162-.092-.216-.047Zm1.238 1.19c-.055-.019-.147.011-.11.082.028.057.175-.06.11-.082Zm3.254 1.461c.07.057-.005-.059.062-.093.116-.06-.142-.067-.133.074.003.053.06.009.073.019h-.002Zm.035.105c-.006.015.034.004.028.024-.005.021-.08.041-.061.073.011.018.057-.026.064-.024.005 0 .003.01.002.01a.093.093 0 0 0-.005.045c.005.032.04-.021.055-.018.01.002.013.025.026.027.02.003.017-.049.032-.05.01 0 .038.048.053.024.012-.017-.103-.099-.108-.106-.012-.014.004-.038-.006-.056-.056-.105-.06-.008-.08.052v-.002Zm.166.412h.003c.048.004.078-.073.066-.09-.009-.01-.008-.028-.006-.04 0 0 .003-.018-.002-.018-.008 0-.007.066-.014.08-.01.019-.136.042-.046.068h-.001ZM66.958 43.86c.026-.042-.102-.026-.116.01-.012.03.099.018.116-.01Zm2.139-.027c.017-.025-.006-.065.031-.12.018-.026-.038.03-.051.104-.001.01.007.033.02.016Zm.228-.208c.041-.03-.114.019-.16.046-.027.016.1-.003.16-.046Zm.331.518c.006-.019-.002-.041-.004-.06-.003-.043-.04.007-.034.056.003.021.033.027.038.004Zm3.674 6.53c-.046-.044-.092-.004-.092.036 0 .027.115-.016.092-.036Zm4.88-8.748c-.03-.028-.085.024-.075.047.012.032.091-.031.075-.047Zm.115.017c.053.009.013-.064.004-.044-.008.021-.063.034-.004.044ZM88.06 55.16c.045-.01.01-.068 0-.088-.042-.073-.038.07-.027.08.006.005.019.01.026.009ZM68.324 43.6c-.015-.04-.068.022-.066.04.003.024.072-.026.066-.04Zm.667.175c-.013.01-.074.085-.007.06.093-.034.022-.07.007-.06Zm-.418.454c.07-.014-.015-.032-.025-.036-.02-.008-.06.052.025.036Zm9.747-2.049c-.003-.029-.025-.013-.024.013.002.02.028.015.025-.013Zm-10.404 2.21-.001.002-.003.007.002-.004.002-.006Z"/>
  <path fill="#BEBFC2" d="M96.154 66.724c.025-.16-.012-.196-.075-.248l.025-.013-.038.003a.553.553 0 0 1-.11-.108c-.043-.058-.021-.125-.03-.188 0-.007-.006-.011-.016-.009-.01.003-.018.04-.033.042-.02.004-.014-.086-.004-.093.019-.013.024.026.032.027l.004-.006v-.106c.003-.012.033-.073.021-.081-.004-.003-.014.008-.015.01-.006.007-.04.037-.053.026-.009-.007.013-.043.008-.056-.007-.02-.129-.132-.14-.158-.036-.083-.024-.187-.097-.263-.025-.025-.043.016-.073-.003-.083-.054-.039-.123-.069-.153-.039-.037-.154-.033-.173-.093-.011-.038.127-.056.103-.137-.003-.011-.08.008-.1.006-.073-.01-.014-.086.01-.112.081-.084.23-.017.233-.069.006-.067-.174-.184-.094-.37.004-.009.014-.017.01-.028-.029-.095-.11-.277-.086-.413.004-.03.045-.132.041-.147-.011-.036-.088.031-.094-.096a1.703 1.703 0 0 1 .13-.395l.063-.099s.023-.023.014-.03c-.021-.02-.071.016-.101.003-.086-.033-.059-.079-.082-.135-.003-.007-.031-.04-.041-.032l.007.007s.01.011.008.017l-.008.086c-.003.011-.023.014-.027.024-.005.009.002.014.004.021 0 .01-.04.053-.049.05v-.012c-.01-.072.035-.089.009-.17-.026-.075-.166-.132-.169-.15-.003-.014.036-.007.024-.022-.01-.013-.091-.033-.077-.052.01-.013.03.017.043-.011 0-.04-.037-.11-.03-.148 0-.005.117-.106.117-.156 0-.065-.133.056-.151.038-.025-.025.083-.07.088-.078l-.024-.186c-.013-.011-.041-.004-.059-.004-.071 0-.051-.054-.077-.054-.04 0 .003.048-.02.05-.104.008-.216-.063-.279-.113-.026-.02-.112-.019-.114-.033-.01-.036.131.028.114-.033-.016-.054-.154-.037-.219-.398-.031-.173-.552-.263-.7-.485-.061-.093-.191-.475-.254-.517-.027-.017-.006.045-.03.045a.192.192 0 0 1-.103-.052.246.246 0 0 1-.045-.118c0-.008 0-.043-.01-.046-.033-.012-.063.066-.064.067l-.016-.004c-.07-.042.016-.062.009-.073-.009-.016-.043-.01-.06-.023-.029-.022-.126-.06-.128 0 0 .018.047.013.063.024.047.03.035.065.057.099.002.003.008.01 0 .011-.025.006-.117-.096-.17-.071l-.026.069a.022.022 0 0 1-.018-.003c-.09-.03.005-.078-.012-.093-.023-.019-.096-.055-.127-.049-.019.003-.022.03-.039.024-.015-.005-.017-.034-.025-.045a1.685 1.685 0 0 0-.168-.168c-.049-.037-.196-.041-.25-.1-.007-.007-.19-.445-.375-.313-.079.055-.077-.04-.085-.043-.017-.013-.05-.016-.071-.023-.003 0-.022-.009-.016-.015.013-.011.093.028.106-.018 0-.005-.122-.123-.13-.16-.033-.135.07-.09.06-.156-.003-.013-.106-.122-.125-.175-.017-.05.055-.119.035-.159-.013-.025.004-.058-.016-.08-.003-.003-.077-.039-.05-.053.02-.011.05.012.072.004.011-.002.005-.034.005-.041a.287.287 0 0 1 .033-.119.278.278 0 0 0 .04-.166c-.003-.024-.076-.056-.086-.07-.022-.036.018-.094.013-.133-.007-.067-.04-.027-.04.039-.005.015-.026.08-.044.078-.037-.002-.004-.083-.02-.101-.01-.012-.086.037-.082-.069.002-.059.069.034.083.03.027-.007.015-.041.025-.057.008-.012.027 0 .031-.013.016-.049-.067-.037-.091-.066a.165.165 0 0 1-.032-.077c0-.006 0-.027-.011-.027-.036-.003-.006.084-.018.084-.133-.003.07-.11-.147-.124-.054-.005-.047.108-.043.13.024.104.21.382-.019.18-.052-.047-.264-.136-.347-.19-.045-.03-.12-.006-.17-.032-.065-.034-.012-.068-.02-.086-.028-.035-.187-.248-.22-.267-.018-.01-.025.023-.034.027-.101.049-.137.097-.169.202-.008.027.052.033.046.054-.003.013-.043-.013-.047.007-.001.006.006.015.01.019.089.092.096.216.149.315l.03.069s.008.018.005.02l-.01-.006-.028-.024c-.022-.02-.052-.032-.066-.055-.019-.03-.22-.28-.258-.29-.034-.01-.027.047-.041.06a.864.864 0 0 1-.195.106c-.034-.006.046-.05.049-.055a.373.373 0 0 0-.001-.156c-.013-.008-.019.02-.036.009-.029-.02-.026-.059-.056-.077-.021-.013-.066 0-.082-.022-.014-.019.05-.017.038-.049-.03-.078-.156-.181-.138-.281.012-.058-.151-.314-.147-.384.003-.051.069-.027.076-.046.007-.02-.068-.106-.06-.144.005-.032.143-.095.071-.139-.047-.029-.036.099-.116.067-.014-.006-.024-.104-.028-.111-.02-.032-.172.014-.176.005-.03-.048.084-.113.084-.114-.007-.026-.064-.007-.076-.024-.01-.018.043-.015.043-.038 0-.05-.066-.134-.07-.158-.01-.062-.041.028-.07.018l-.01-.007c-.06-.163-.009-.113.014-.253l.005-.019a1.184 1.184 0 0 0-.122-.116c-.014-.011-.059.01-.079 0-.017-.008-.011-.036-.035-.038-.032-.003-.015.025-.033.023-.019-.005-.048.008-.06-.005-.008-.01.008-.02.014-.027.017-.021-.029-.059 0-.064.016-.003.073.032.064 0-.007-.026-.067.003-.097-.006a3.027 3.027 0 0 1-.208-.092c-.017-.003-.053.085-.085.07-.012-.004.02-.027.02-.037 0-.04.014-.08.012-.118l-.01-.015c-.047-.027-.124-.02-.177-.078-.036-.04 0-.094-.004-.104-.015-.027-.142-.081-.118-.118.003-.005.03.008.043.004l.065-.072c.008-.028-.046-.087-.042-.091.04-.037.049.067.125.044.048-.015.004-.056.033-.057.051-.003.088.18.22.142.008-.003-.004-.015-.007-.018-.017-.027-.05-.031-.056-.041-.007-.01.007-.02.017-.023 0 0 .027-.004.023-.008-.047-.042-.077-.018-.122-.09-.037-.06.029-.05.013-.087-.001-.004-.08-.05-.094-.065-.019-.02.02-.01.023-.023.023-.128-.132-.025-.16-.019-.032.006-.065-.057-.065-.057 0-.006.057-.046.024-.053a.05.05 0 0 0-.024.009l-.01.01s.016-.052-.019-.048c-.021.003 0 .05-.01.06-.03.03-.064-.034-.082-.044-.038-.021-.026-.17-.04-.173-.025-.004-.042.044-.074.047-.048.006-.081-.057-.111-.036-.067.046.047.066.047.1 0 .036-.086 0-.08.046.003.019.073-.01.072.019l-.01.01c-.026.006-.046.03-.072.027-.042-.006-.009-.031-.029-.048-.028-.026-.06.01-.136-.08-.027-.032-.087-.038-.083-.045.022-.046.09-.067.03-.1l-.011-.013c-.017-.037.041-.049-.029-.043-.044.003-.034-.027-.053-.034-.01-.005-.104.018-.176-.033-.018-.013-.03-.056-.04-.059-.096-.029-.108.112-.266.022-.114-.066-.094-.26-.159-.262-.034 0-.068-.025-.1-.016-.011.003.009.034.009.041.003.043-.015.066.008.115.005.007.038.036.032.04-.043.034-.22-.046-.258-.083-.018-.02-.02-.05-.041-.07a.11.11 0 0 0-.04-.021l-.009-.008s.052.016.063-.008c.012-.025-.026-.023-.03-.04-.004-.015-.014-.128-.031-.133-.023-.082-.088-.103-.128-.17-.024-.04-.018-.09-.051-.128-.015-.016-.059-.087-.088-.08-.017.004 0 .026.008.03.038.024.1.08.054.119-.017.014-.444 0-.486.004-.075.009-.124-.259-.125-.273-.001-.012-.026-.02-.034-.03l-.015-.018-.005-.005.004.021a.075.075 0 0 1 0 .053 1.005 1.005 0 0 1-.106.103c-.195.024-.2-.133-.312-.173-.037-.013-.172.016-.312-.059-.818-.432-.246-.586-.352-.84a1.109 1.109 0 0 0-.162-.044c-.012 0-.037.024-.041.013-.017-.04-.026-.159-.05-.19-.014-.02-.097 0-.146-.056-.193-.22-.157-.268-.003-.494.032-.046.007-.101.04-.151.007-.01-.044-.1-.038-.115.015-.04.018-.122.041-.157.013-.019.059-.035.059-.058-.002-.055-.095-.101-.125-.151-.033-.058.046-.133.01-.19-.013-.02-.051-.015-.071-.043-.07-.1-.085-.242-.145-.322-.03-.042-.097-.066-.094-.12.001-.054.066-.094.091-.134.01-.015-.008-.045-.003-.051.072-.058-.02-.063-.035-.053-.022.016-.029.059-.068.059-.022 0-.031-.053-.051-.038-.012.009-.086.063-.087.07 0 .009.047.096-.009.083-.006 0-.016-.055-.023-.066-.009-.012-.053-.034-.049-.044.012-.026.096-.007.062-.053-.147-.202-.402-.32-.484-.553-.008-.023-.085.01-.096-.03-.044-.17.1-.238.11-.278v-.016c-.01-.027-.055-.04-.065-.067-.019-.053.066-.115.037-.212-.017-.056-.157-.196-.159-.197-.016-.063.033-.07.033-.102 0-.023-.04-.017-.043-.04-.015-.129-.02-.276-.104-.35-.079-.07.016-.08-.007-.114-.016-.022-.068-.028-.07-.053v-.007c.015-.051.071-.07.077-.08.017-.033-.009-.08-.007-.083.015-.024.114-.054.113-.064-.008-.116-.208.11-.185-.17.006-.073.188-.25.17-.275-.015-.023-.097.044-.123.004-.016-.024-.09-.096-.091-.112-.002-.017.035-.031.025-.045-.002-.005-.025 0-.03.002a.18.18 0 0 1-.087.006l-.189-.05c-.144-.033-.139-.203-.2-.259-.023-.02-.084.006-.127-.011-.122-.049-.043-.042-.09-.076-.013-.012-.085.014-.11.011a.779.779 0 0 1-.134-.124c-.013-.052.049-.169.042-.178-.005-.005-.086.052-.108.028-.017-.02.03-.315-.144-.287l-.019.06c-.031.063-.169.15-.256.152-.064.002-.147-.106-.202-.077-.005.003.01.039.012.044a.118.118 0 0 1-.017.095c-.12.153-.33.232-.497.167-.272-.104-.207-.45-.273-.63-.017-.051-.255-.266-.248-.381.006-.108.078-.208.105-.308-.009-.033.01-.127-.007-.155-.04-.064-.1-.076-.11-.159-.016-.133.007-.387-.023-.489-.01-.034-.026-.057 0-.093l.058-.066c-.008-.017-.067.032-.083.033-.053.005-.129-.004-.18-.006-.013 0-.022.018-.026.025l-.008.011c-.042-.046.061-.229.088-.275.012-.018-.031-.012-.027-.028 0-.007.07-.063.054-.073-.054-.029-.206-.082-.24-.139-.036-.061.044-.106-.04-.18-.08-.072-.25-.047-.275-.063-.031-.03.012-.089.013-.119.003-.037-.019-.107-.014-.139.001-.011.018-.007.027-.011.07-.047.103-.165.165-.222.024-.023.044.013.075-.019-.002-.031-.041-.027-.066-.017-.102.042-.062-.068-.16-.08-.093-.011-.207.12-.376-.08-.034-.04.006-.132.003-.182-.006-.114-.077-.242-.073-.337.007-.138.112-.015.019-.235-.015-.033-.045.006-.052-.023-.031-.129.029-.217-.06-.342-.014-.02-.037-.109-.063-.111-.027-.003-.049.02-.073.03-.009.004-.01.032-.023.028-.026-.007.02-.06.017-.069-.007-.028-.058-.018-.066-.021-.014-.009.026-.084-.054-.099-.099-.017-.067.108-.14.118-.003 0-.01 0-.012-.005-.007-.1.086-.189.166-.254.047-.038-.064-.042-.081-.062-.006-.007-.016-.044-.025-.046-.031-.004-.048.035-.078.04a.109.109 0 0 1-.043.002c-.01-.003-.025-.022-.036-.013-.039.03-.092.237-.162.262-.097.033-.219.013-.297.066-.012.007-.022.024-.02.035.021.195.014.335-.017.523-.032.198-.15.372-.18.576 0 .008-.04.02-.05.03-.025.025-.035.068-.04.098-.005.031-.034.15-.018.171 0 0 .165.058.132.12-.023.044-.078-.03-.102-.03-.02 0-.047.053-.056.066-.003.003-.011.026-.019.023-.008-.003 0-.025 0-.031a.46.46 0 0 0-.027-.093c-.03-.07.026-.058.017-.079-.015-.04-.107.054-.114.062a1.07 1.07 0 0 0-.139.279c-.007.061.022-.028.066.035.003.005.021.005.023.01 0 .005-.017.008-.022.01-.071.03-.101-.051-.124-.01-.054.102-.094.234-.144.342-.01.022-.068.085-.046.105.053.048.071-.01.094-.013.019-.003.044.013.062.003.017-.01-.04-.013-.056-.025a.356.356 0 0 1 .007-.117c.01-.008.033.023.047.023.012 0 .085-.032.098.004.004.01-.095.042-.092.052.001.007.063.014.077.021.049.025.04.125.162.098.026-.006.067 0 .086-.008.017-.005.02-.03.04-.031.01 0 .041.024.05.03l.02.006.008.003c-.01.01-.034-.005-.051-.002a2.008 2.008 0 0 0-.186.093c.003.037.293.096.262.105-.303.083.03.158-.087.252l-.012-.015-.019-.027c-.03-.06-.027-.059-.035-.127-.004-.032-.025-.16-.089-.148-.014.003-.016.014-.023.023l-.011.006s.02-.036.004-.045c-.027-.014-.036.03-.039.042a.361.361 0 0 1-.093.192c-.07.067-.156.087-.187.114-.014.013-.075.102-.049.112.06.023.046.103.05.153.009.094.125.133.11.206-.037.18-.537.737-.31.987.29.32.149.315.049.657-.033.113.13.642.193.724.027.034.038.156.016.183-.212.244-.32.723-.398 1.093-.016.075-.057.03-.029.112.019.053.073.102.067.157-.002.03-.091.15-.114.185-.112.176-.11.474-.255.693-.078.12-.131.087-.21.224-.043.076-.142.133-.177.206-.04.079-.06.545-.187.613-.075.04-.183.07-.247.113-.062.041-.23.147-.306.147-.13 0-.385.102-.553.109a.714.714 0 0 1-.221-.02c-.055-.017-.076-.093-.096-.103-.152-.069-.35-.078-.488-.148-.079-.04-.128-.113-.215-.157-.121-.06-.282-.043-.376-.112a.522.522 0 0 1-.165-.273.403.403 0 0 1-.003-.11c.002-.009.023-.03.013-.037-.303-.245-.289-.158-.66-.28-.293-.094-.128-.034-.411-.06a1.5 1.5 0 0 1-.754-.32v-.017.017a2.437 2.437 0 0 1-.27-.237c-.052-.055-.08-.136-.137-.187-.129-.113-.462-.095-.592-.175-.072-.045-.12-.103-.183-.145-.095-.062-.23-.083-.332-.14-.033-.019-.046-.057-.08-.075-.02-.014-.023-.001-.032.012-.016.024-.067.023-.076.043-.005.014.03.048.009.056-.017.007-.063-.033-.078-.04-.038-.02-.074-.002-.112-.008-.02-.003-.03-.018-.046-.018-.039.001-.042.076-.095.057-.058-.02 0-.064.007-.086.023-.06-.191-.151-.198-.227-.002-.02-.082.024-.12.007-.06-.029-.095-.11-.154-.136-.043-.019-.114-.005-.167-.033-.19-.107.056-.189-.327-.342-.207-.085-.369-.233-.568-.333-.018-.009-.058 0-.061-.003-.016-.013-.082-.09-.09-.093-.117-.04-.18-.02-.282-.115a.508.508 0 0 1-.13-.264c-.006-.035-.03-.08-.029-.08.04-.014.059.028.08.024.037-.009.024-.055.053-.07.022-.012.116-.03.126-.052.014-.031-.013-.07.004-.102.023-.045.32-.41.357-.442.054-.046.196-.064.224-.083.025-.015-.017-.048-.017-.074 0-.05.013-.193.029-.236.001-.005.1-.073.117-.1.043-.069.032-.258.122-.315.017-.012.05-.024 0-.036-.073-.016-.098.209-.264.123-.03-.016-.037-.054-.005-.071l.024-.009s.017.003.019 0c.003-.004-.012-.021-.015-.026l-.002-.005s-.013.018-.036.015c-.076-.01-.08-.382.014-.317.076.051.143.004.12-.029-.008-.011-.051.017-.066.004-.014-.011.009-.031 0-.046-.018-.03-.085-.012-.067-.068.007-.02.069-.1.093-.105.022-.003.022.063.04.04.019-.022 0-.088.035-.1.08-.026.064.13.087.126.029-.005.004-.09.004-.104-.001-.032.046-.002.053-.022.009-.024.049-.134.087-.137.049-.004-.01.123.025.163.011.014.041.003.061.002.017-.002.02-.028.02-.03.012-.04.045-.005.055-.02.013-.022-.06-.107.015-.104.013 0 .013.016.017.022.01.017.07.051.085.027.014-.021-.057-.203.072-.154.004 0 .06.23-.022.269-.007.002 0 .022 0 .028-.003.014-.029.072-.01.076.014.003.089-.114.115-.123.018-.006.03-.022.048-.024.02-.003.003.054.027.047.042-.013.012-.065.028-.089.021-.034.16-.127.131-.18-.004-.007-.127-.059-.117-.102.004-.02.031-.02.05-.011.031.014.026-.046.057-.023.02.014.01.066.03.067.017 0 .034-.041.063-.038.01 0 .032.084.063.038.062-.086-.153-.121-.179-.124-.031-.005.025-.038.009-.052-.025-.024-.172-.069-.126-.147.027-.046.06.067.104.06.083-.015-.035-.112.022-.106.058.007.037.154.104.132.045-.015-.023-.142-.017-.156.022-.06.105-.008.123-.022.016-.011 0-.074.017-.104a.177.177 0 0 1 .115-.088l.007-.004c.016-.039-.075-.076-.057-.114a.287.287 0 0 1 .099-.048c.057.04-.085.102-.03.13.01.004.034-.028.037-.034.017-.028.073-.081.1-.108.037-.038.187-.115.19-.13.004-.024-.033-.012-.041 0l-.01.014c-.009.004-.016-.002-.02-.007-.005-.005.015-.063-.008-.098-.05-.073-.287-.21-.382-.132-.067.058.168.013.103.092-.103.123-.24-.071-.264-.149-.006-.015.021-.07.01-.08-.036-.028-.079-.116-.1-.129-.025-.013-.05.026-.053.026-.016 0-.025-.017-.03-.03-.025-.048.125-.053.158-.073.045-.03.02-.097 0-.09-.005.001 0 .026 0 .029 0 .017-.011.034-.03.044-.058.033-.103.01-.16.013-.077.003-.149.15-.25.151l-.015.005c-.056.027-.091.14-.156.144-.098.006.063.078.066.079.075.022.15-.061.196.019.026.043-.124.29-.199.319-.041.016-.216-.033-.263-.04-.043-.008-.023.075-.056.054-.076-.049-.005-.114-.04-.113-.011 0-.043.02-.044-.012-.003-.032.143-.171.134-.19-.047-.093-.064.105-.187-.013-.06-.058.18-.176.17-.223-.003-.013-.041.009-.049.013-.037.017-.074.084-.103.092-.068.014-.061.048-.07.048-.023.003-.015-.073-.053-.043-.037.029-.088.055-.12.082-.031.027-.004.074-.054.066-.014-.003-.027.011-.033.021l-.017.022-.009.014-.004.007v-.003l.004-.01.003-.02c0-.008-.009-.021-.016-.027-.024-.016-.05-.024-.067-.047-.02-.026-.036-.075-.014-.103.04-.053.13-.082.169-.14a.419.419 0 0 1 .127-.09c.024-.003.051-.003.07-.018.004-.003.019-.018.011-.021-.015-.007-.257.074-.271.047-.006-.011.007-.024.02-.027.09-.027.37-.23.26-.29-.018-.01-.056-.025-.073-.006-.028.028.064.038.013.105-.029.038-.14.085-.189.13-.072.062-.27-.03-.296.134-.016.099.074 0 .11-.009.033-.007.053.016.029.037-.01.009-.13.07-.136.069-.035-.004-.039-.05-.05-.05-.01 0-.037.039-.048.044a.25.25 0 0 1-.104.029c-.11.009.069-.049-.104-.036-.085.006-.088.082-.1.087-.02.01-.114.03-.11.045.015.034.187.066.16.083-.068.044-.13-.046-.25-.019-.035.007.08.067.072.086-.006.011-.031-.004-.037-.007-.032-.014-.067-.06-.086-.063-.127-.016-.074.11-.25-.059-.116-.11-.19-.068-.224-.104-.021-.023-.128-.228-.138-.238-.025-.024-.085-.013-.115.006-.054.037-.086.163-.318.153-.23-.009-.323-.129-.333-.13-.034-.003-.129.159-.16.152-.026-.006.014-.07.014-.082-.001-.067-.017-.097-.061-.135-.016-.012-.008-.073-.033-.062 0 0-.013.05-.079.064-.004 0-.006-.009-.006-.01 0-.011.013-.024.012-.036 0-.011-.052-.07-.069-.073-.026-.004-.179.21-.33.016-.053-.072.148-.096.164-.126.006-.01-.024-.032-.03-.04l-.012-.01c-.127.04-.075-.022-.177-.014-.041.003-.039.064-.076.077-.048.017-.067 0-.11.001l-.009.006c-.011.024-.054.103-.108.077-.02-.01.008-.041-.028-.044-.045-.004-.068.04-.08.067-.002.006-.011.03-.024.023-.013-.007.046-.154.011-.159-.045-.004-.077.069-.118.055-.03-.01-.073-.008-.087-.03-.01-.015.065-.05.015-.062-.054-.011-.05.117-.153.047-.066-.044.157-.087.049-.101-.085-.01-.112.07-.153.068-.258-.011-.232-.264-.275-.312-.033-.035-.076-.053-.11-.103-.04-.058-.039-.025-.07-.052-.02-.018-.055-.08-.072-.088a.236.236 0 0 0-.077-.004c-.01.019.086.057.049.114-.028.042-.068-.05-.105-.023-.026.02-.145.176-.186.17-.136-.016-.195-.255-.306-.25-.007 0-.016-.008-.019-.013-.017-.028-.036-.17-.114-.173-.055-.003-.015.069-.043.076-.023.006-.022.047-.047.043-.032-.004.002-.046.001-.06-.004-.051-.036-.072-.043-.113-.003-.013-.009-.059-.031-.057-.018 0-.005.048-.022.054-.014.004-.096-.037-.091.014.001.019.06.132.015.126-.028-.004-.116-.224-.204-.193-.042.014.074.11.071.129l-.013.123c0 .009.032.003.039.006.016.005.047.046.043.06-.014.037-.063-.035-.077 0-.006.013.057.077.02.074-.02-.001-.006-.008-.035-.003-.073.016-.028-.136-.058-.141-.038-.009-.009.054-.026.056-.065.007-.014-.166-.016-.18-.004-.032-.028.03-.057.01-.019-.014-.083-.117-.139-.137-.083-.03.054.135-.07.178-.033.011-.073-.11-.106-.112-.023 0 .003.053-.01.067-.01.01-.067-.037-.09-.027-.03.013.063.072.043.1-.024.038-.085-.054-.085-.015 0 .038-.08.09.015.08.064-.007.14-.026.202.001.012.006-.022.026-.006.039.017.015.05-.017.073.001.051.043-.075.03-.029.076.016.016.155.027.159.033.026.034-.034.016-.034.04 0 .03.058.09.098.093.093.009.387-.19.584-.097.052.024.052.06.073.073.087.053.033.107.14.166.038.02.12 0 .15.038.006.009-.004.012-.01.015-.075.035-.028.061-.078.111-.016.016-.069.029-.067.055 0 .012.087.04.094.098.013.093-.076.206-.029.304.02.04.072.067.122.081.01.003.066-.003.069.002.003.004-.022.011-.024.013-.036.004-.052.007-.09-.002-.052-.013-.192-.07-.211-.056-.096.072-.192.029-.2.152-.008.086.088.102-.008.193l-.041.033-.011.01c-.04-.02.055-.089.057-.091.008-.02-.065-.15-.093-.156-.049-.012-.112.053-.12.051-.025-.003-.022-.113-.06-.111-.01 0-.232.256-.394.187-.05-.022-.146-.097-.16-.103-.013-.004-.162.069-.196.077-.069.017-.462.04-.524.022-.136-.04-.167-.113-.197-.212-.006-.017-.005-.127-.028-.132-.044-.008-.103.242-.083.252.046.023-.023.027-.041.024-.013-.002-.003-.025-.011-.034-.018-.019-.053-.04-.076-.061-.016-.015-.029.021-.052.01l-.011-.006c-.016-.012-.003-.029-.022-.036-.03-.013-.036.026-.05.027-.008.002-.073-.066-.11-.021-.04.045.074.277.062.299-.008.011-.035-.019-.044-.02-.018-.005-.032.014-.048.011-.036-.005-.076-.007-.107-.023-.003 0-.015-.031-.042-.025-.01.001-.05.067-.066.093-.004.005-.044.007-.045.014-.044.132.143.026.196.143.012.027.018.039.015.04-.004.003-.034-.024-.096-.032-.011 0-.031-.017-.043-.007-.051.049.123.11.14.144.003.004.015.017.008.022-.009.008-.052-.031-.075-.031-.075-.003 0 .054-.035.05-.049-.006-.05-.117-.1-.129a.167.167 0 0 0-.05-.004c-.015.011-.002.034-.006.049-.003.008-.015.01-.019.001-.023-.039.004-.097-.004-.139-.003-.013-.025-.003-.029-.011-.001-.005.007-.013.009-.016l.007-.011s.009-.026 0-.032c-.029-.017-.293-.093-.315-.04-.008.022.062.027.065.041.008.04-.085-.002-.026.076.026.035-.055.096-.046.133.004.02.099-.002.07.043-.023.036-.059.018-.092.013l-.01.003c-.007.016.032.019.04.026.038.033.042.038.048.038.005 0 .011-.004.06.015.014.006.083.017.077.028 0 0-.089.025-.116.023-.011 0-.017-.011-.027-.015-.01-.003-.014 0-.021.004l-.009.006c-.007-.003.009-.033-.006-.038-.014-.005-.03.016-.044.006-.003-.001-.04-.139-.086-.123-.047.016.044.073.016.077-.014.002-.095-.038-.105-.038-.045.004-.058.047-.067.073-.008.024-.059-.029-.07-.019-.027.023.006.189-.003.233-.057.274-.305.019-.362.18l-.011.268s.004.016.01.019c.031.013.317.214.32.226.002.007.006.02 0 .027-.013.011-.054-.037-.08-.041-.024-.003-.05.015-.069.027-.058.035-.117.156-.151.167-.062.02-.23.109-.304.089-.025-.007-.06-.02-.063-.043-.001-.011.013-.099-.021-.077-.036.023-.172.289-.172.36 0 .119.06.062.055.099-.008.056-.123.067-.15.12-.046.089.2.12-.105.246a.104.104 0 0 1-.059.005c-.04-.01-.011-.033-.025-.05-.013-.016-.022.032-.018.042.009.02.066.06-.004.09-.016.008-.01-.022-.023-.027-.024-.008-.034.02-.056.016-.021-.004.006-.047-.023-.044-.007 0-.011.01-.02.011-.017.003-.038-.043-.053-.026-.012.016.019.03.023.043a.223.223 0 0 1-.011.11c-.023.044-.097.06-.117.104-.012.025-.092.26-.083.27.002.003.047-.001.061.006.014.007.086.101.09.103l.292.1c.07.026.18-.073.23-.062.013.003-.007.022-.012.026-.023.02-.056.024-.083.04-.096.055-.166.022-.21.047-.077.046.115.142.12.154.01.017-.022.04.015.064.019.011.075.043.093.039.016-.005.083-.05.093-.04.01.01-.071.064-.056.073.04.02.164-.058.198-.068.031-.01.079-.003.093-.007.037-.013.026-.08.066-.08.04 0-.017.082-.02.089a.234.234 0 0 0-.01.033c-.006-.012-.026-.022-.093 0-.068.021-.079.087-.172.094a.396.396 0 0 1-.179-.021c-.011-.005-.059-.026-.067-.018-.056.058-.032.3.019.368.015.022.124.092.128.12a.24.24 0 0 1-.098.025c-.032-.016.015-.076-.026-.092-.049-.019-.093.053-.116.044-.052-.02.008-.093-.01-.136-.034-.081-.093-.064-.103-.075-.017-.02.005-.048-.012-.07-.077-.092-.197-.07-.21-.08-.027-.02-.029-.054-.07-.064-.037-.008-.08.053-.109.032-.001 0 0-.089-.051-.069l-.012.006c-.021.031.085.34.072.363-.013.023-.049.029-.06.098-.003.014-.009.093-.023.09-.03-.005.018-.102 0-.106-.03-.007-.058.087-.075.094-.028.013-.011-.031-.01-.037l.015-.028c.01-.03.051-.072.053-.093.004-.038-.045-.045-.043-.082 0-.021.024-.102.017-.112-.029-.032-.063-.025-.098-.032l-.007-.008c-.011-.043-.034-.068-.087-.086-.182-.06-.333-.047-.506-.081-.083-.017-.212-.095-.32-.099-.055-.003-.126.05-.171.053-.023 0-.068-.014-.082.01-.011.02.07.052.087.066.012.008-.064.014-.041.081.013.038.114.18.06.198-.066.021-.094-.066-.126-.082-.008-.004-.016 0-.02.006-.011.016.027.083-.003.075-.037-.012-.035-.19-.053-.195-.048-.014-.058.081-.068.089-.12.08-.168.087-.09.203.011.016-.016.09-.008.113.035.104.13.057.122.2-.013.252-.105-.276-.276-.217-.027.008-.009.236-.02.302-.006.031-.1.169-.146.134-.01-.007.011-.024.017-.029.042-.037.064-.051.076-.105.008-.043-.054-.138-.046-.15.002-.002.039 0 .05-.012.004-.004.016-.18 0-.199-.036-.04.089-.319.105-.386.004-.02-.036-.005-.033-.02.007-.032.133-.019.129-.045-.005-.03-.064-.073-.03-.111.032-.036.085.033.074-.013l-.009-.017s.003-.016 0-.022c-.011-.015-.047.003-.066 0-.024-.001-.098-.074-.134-.096-.022-.013-.029.029-.049.009-.03-.032-.03-.09-.098-.113-.03-.01-.038.054-.086.026-.012-.008-.019-.13-.1-.15-.018-.003-.032.02-.048.017-.047-.016.083-.06.01-.093-.04-.019-.011.064-.057.038-.018-.01.007-.06-.003-.08a7.592 7.592 0 0 0-.253-.289c-.07-.06-.169-.1-.249-.16-.012-.009-.07.043-.092-.006-.073-.167.078-.059-.131-.172-.019-.01-.017-.04-.042-.041-.083-.003.052.122-.033.071-.045-.027-.067-.028-.098-.071-.006-.009-.015-.016-.028-.012-.034.012-.028.085-.065.08-.036-.004.017-.11-.053-.094-.036.007.012.037.011.047-.001.012-.051.082-.077.072-.053-.023-.033-.079-.039-.109-.007-.036-.053.01-.06-.004-.011-.02.044-.05.032-.076-.012-.022-.029.01-.043.007-.01-.003.02-.046-.016-.043-.013 0-.004.035-.029.022-.03-.016.01-.05-.008-.068-.029-.027-.059-.065-.103-.068-.006 0-.076.017-.073.027 0 0 .058.023.023.03-.029.007-.09-.057-.12-.013-.023.033.058.047.048.059-.014.017-.083.004-.073-.013.004-.036-.134-.027-.134.008 0 .03.073.108.087.138.006.013-.007.036.007.046.016.01.044-.003.063.007.013.007.033.038.004.027-.01-.004-.038-.019-.05-.014-.053.021.072.032.029.053-.016.007-.106-.012-.125-.012-.021 0 0 .033-.03.037-.028.005-.028-.041-.047-.027-.024.02-.009.066.019.07.012.002.037-.03.045-.025v.034c-.02.041-.021.099-.068.123-.007.003-.02 0-.023-.006-.006-.01.001-.021-.003-.033-.009-.02-.057-.051-.069-.033-.008.016.023.025.02.039-.021.119-.057.073-.078.117a.088.088 0 0 0-.005.047c0 .003.002.013-.004.013-.104.012-.023-.104-.053-.128-.023-.019-.057.041-.08.013-.034-.045.02-.132-.021-.093-.016.015-.083.02-.078-.01.01-.055.236-.195.115-.21-.013 0-.019.015-.02.022a.128.128 0 0 1-.067.079c-.056.028-.045-.032-.062-.027-.062.012-.065.087-.077.1-.008.005-.106.028-.12.063-.042.117.065.073.067.117 0 .016-.06.021-.072.029-.014.008-.01.058-.026.051-.259-.119-.1-.154-.133-.209-.021-.034-.04.022-.057.013-.01-.006.01-.024.004-.031-.004-.006-.024 0-.024-.01 0-.022.083-.017.095-.039.017-.029-.128-.036-.075-.044.019-.003.096-.035.079-.056-.026-.032-.148.097-.17.081-.022-.015.051-.061.058-.07.016-.018-.028-.008-.028-.021 0-.016.045-.013.037-.035-.007-.014-.029.005-.036.008-.013.004-.021-.009-.033-.009-.011 0-.023.009-.034 0-.012-.008.05-.063-.003-.054-.029.004-.024.044-.034.058-.016.022-.08-.046-.08-.008 0 .005.195.081.124.153-.004.004-.024-.006-.029-.009-.025-.015-.015-.055-.035-.064-.05-.02-.012.056-.033.066-.048.02-.056-.072-.083-.057-.003 0-.012.06 0 .07.123.113.223-.009.267.126.046.137-.172.125-.14.185.086.164-.084.105-.129.166-.013.02.148.135.096.186-.02.02-.037-.018-.054-.007-.016.01.011.043-.015.049-.027.006-.038-.049-.113-.036-.064.012.039.17-.023.173-.094.005-.141-.17-.145-.21-.002-.019.084-.041.037-.06-.016-.006-.032.014-.043.02-.04.017 0-.034-.023-.04-.039-.009 0 .043-.067.043-.085 0 .025-.097-.052-.095-.027 0-.017.058-.02.073-.016.078-.061.15-.081.225-.01.037-.05.05-.04.007.015-.056.075-.131.074-.186 0-.024-.053-.15-.049-.161.007-.02 0-.055.026-.058.03-.003.041.039.069.016l.027-.077s.007-.019-.003-.022c-.013-.004-.034.037-.037.037-.003 0-.062-.042-.092-.044-.004 0-.007-.019-.008-.02-.003-.013-.015-.034-.035-.037-.044-.005-.015.03-.018.036-.006.007-.029-.016-.038-.002-.042.066.05.162.056.208a.624.624 0 0 1-.045.217c-.003.004-.09.017-.096.003-.006-.016.031-.023.034-.039.004-.028-.063-.054-.082-.047-.051.022.009.079-.011.086-.017.006-.026-.047-.041-.033l-.012.093c-.009.007-.027-.011-.031.006-.003.011.017.064 0 .064-.012 0-.058-.143-.063-.144-.033-.012-.046.043-.07.064l-.013.02s-.005.01-.006.009c-.033-.043.076-.128.02-.15-.027-.012-.027.087-.06.107-.002 0-.024-.013-.033-.013-.037 0-.123.064-.097.094.01.012.101-.027.101.006 0 .019-.044.01-.056.013-.03.009.006.04-.012.046-.035.01-.012-.036-.064-.016l-.014.006c-.01.011.023.053.006.057-.011.003-.049-.052-.056-.016l.006.039s-.057-.032-.064.011c-.01.046.074.047.08.055.015.018-.032.081.027.107l.01.003c.013-.003.163-.006.167.029.002.014-.034.015-.043.028-.041.06-.143-.031-.17.067-.014.053.064-.007.086.002.016.007-.013.028.016.03.023.001.053-.03.067-.014.003.004-.01.01-.013.011-.011.007-.023.017-.013.029l.009.005c.008.003.206.016.227.015l.013.003c.032.024-.104.058-.107.07-.006.02.041.007.044.02.009.025-.076.03-.044.048.007.005.018.002.026.007.032.026.084 0 .093.016.008.016-.032.042-.048.044-.014.003-.023-.024-.051-.024-.07.002-.07.037-.127.012-.062-.026-.006-.04-.025-.065-.034-.045-.129-.044-.167-.061-.019-.009-.017-.053-.022-.055-.003-.001-.005.005-.01.008-.016.008-.021.02-.02.035.009.046.06.079.04.126-.004.012 0 .022 0 .033l-.005.004c-.05.002-.066-.167-.068-.167l-.011-.011c-.04-.042-.026.042-.06.034-.07-.017.026-.086 0-.115-.026-.028-.047.019-.062.019-.02 0-.028-.03-.051-.026-.016.003.014.026.014.03.002.043.037.086.036.108-.003.055-.039.011-.07.035-.015.01-.029.052-.037.053-.018.002-.01-.02-.013-.025-.008-.008-.045.005-.056.001-.015-.004-.019-.02-.033-.024-.022-.008-.126.078-.126.086-.004.037.067-.01.073.008.014.052-.039.084-.003.119.013.013.09-.067.103-.075a.626.626 0 0 1 .179-.057c.023.012-.04.053-.046.075-.001.007-.003.025-.016.025-.002 0-.116-.05-.137 0-.019.045-.136.202.072.122.081-.032.186-.05.223-.014.011.01.031.01.049.01 0 0 .014 0 .014.003l-.068.027c-.02.014-.058.1-.05.12.015.032.185.107.175.132-.004.008-.043-.013-.047-.016-.023-.013-.116-.077-.133-.076-.039.003-.007.063-.026.064-.062.006-.024-.047-.049-.05-.014-.001-.064.048-.08.009-.011-.026.067-.013.042-.059-.019-.033-.062-.023-.072-.031-.159-.119-.031-.037-.197-.07-.01-.002.014-.032.011-.048-.003-.014-.019-.004-.03-.011l-.023-.024c-.049-.039-.046.066-.089.063-.045-.003.038-.042.025-.069-.019-.037-.093-.037-.105-.027-.014.013-.03-.033-.044-.023-.053.036.043.05.047.074.007.035-.06-.001-.053.046.006.036.078-.027.112.017.007.009-.013.012-.02.015-.026.008-.062.024-.07.048-.019.055.034.112.003.115-.095.008-.023-.09-.062-.088-.027 0-.021.132-.027.134-.087.012-.153-.075-.21-.072-.072.003-.062.154-.132.099-.079-.065.054.157.033.184-.016.019-.02-.04-.033-.04-.022 0-.007.046-.014.052-.013.01-.023-.035-.036-.016-.013.021.02.05.027.067l.009.169c0 .01.002.051.015.056.035.01.049-.066.062-.056.013.01.04.137.04.137.009.01.037-.001.043.015.004.014-.047.075-.01.078.09.008.094-.379.369-.271.023.008-.036.027-.044.038-.012.014-.015.07-.016.072-.013.008-.023-.026-.032-.029-.008-.004-.018 0-.027 0-.051.026-.069.077-.074.12-.002.013.029.039.026.042-.009.013-.108.031-.042.179l.003.007s-.044-.025-.064.005l-.043.06s-.006.026-.012.023c-.056-.02-.076-.21-.14-.168-.023.015-.095.346-.026.4.023.019.183-.027.228-.03.136-.008.283.059.4.103.026.01.146-.001.146.016-.003.083-.236-.033-.247-.034-.087-.012-.21.044-.296.023-.05-.013-.112.014-.158-.006-.008-.004-.106-.069-.119-.065-.071.023-.048.134-.263.07a.048.048 0 0 1-.02-.02c-.024-.03-.033-.107-.069-.128-.094-.058-.197-.042-.297-.066-.016-.004-.095-.044-.1-.04-.018.013.095.073.117.087.026.017-.069 0-.06.029.006.021.08.101.077.11-.014.04-.123-.067-.151-.066-.042.003.041.103-.055.136-.007.003-.014-.013-.017-.017l-.026-.066c.003-.026.035.009.042.007.007-.001.015-.043.011-.048l-.01-.005c-.013-.004-.006-.024-.021-.027-.028-.004-.202-.06-.192-.087.006-.014.129.001.15-.023.019-.022-.097-.01-.099-.043-.001-.02.04 0 .049 0 .053.013-.056-.113-.11-.102-.086.019-.268.04-.265.1 0 .014.04.015.027.074-.005.025-.051-.005-.051.014 0 .001.099.074.111.071.015-.002-.04-.068.015-.041.028.014.038.05.076.054.013 0 .075 0 .077.019.008.121-.137-.019-.137.036 0 .02.125.073.125.081 0 .005-.021.003-.023.003l-.071-.004c-.054-.002-.086-.03-.14-.04-.023-.005.001.034-.056.015-.007-.002-.031-.008-.033.003-.003.018.062.019.073.022.043.008.059.046.099.056.016.004.058.001.067.017.022.041-.107.004-.106.031.002.02.083.04.059.039-.096-.004-.19-.083-.238-.09h-.017c-.029.011.063.028.047.048-.014.019-.094-.017-.106-.014-.018.004.01.024.016.027.026.013.089.073.106.078.062.017.09-.092.17-.026.007.005.009.01.008.018-.005.023-.094.04-.096.049-.01.023.063.06-.05.056-.013 0-.038.016-.026.027.008.007.116.01.14.014.03.006.112.088.153.106.009.005.021 0 .026.009.023.037.077.204.119.21.068.01.233-.063.23-.12 0-.003 0-.013.006-.014.038-.006.03.081.004.097-.041.026-.054.009-.087.053-.016.02-.083.048-.08.067.002.019.091.072.063.093-.028.02-.13-.09-.116-.021a1.5 1.5 0 0 0 .068.191c.025.025.125.092.12.095-.08.06-.261-.186-.319-.225-.047-.031-.028.025-.05.017-.025-.008-.005-.098-.051-.101-.29-.025.003.252-.009.292-.008.027-.146.217-.13.339.003.023.096.203.024.21-.015.002-.028-.117-.061-.143-.069-.056-.092-.15-.155-.207-.024-.023-.09-.019-.106-.068-.024-.076-.018-.101-.064-.177l-.13-.229c-.049-.049-.139-.073-.168-.13-.033-.065.073-.05.005-.146-.022-.029-.069-.01-.079-.039-.04-.104.092-.047.059-.126-.008-.016-.026.037-.046.039-.036.006-.035-.037-.055-.04-.01-.002-.041.023-.07-.012-.018-.022.022-.061-.005-.085-.025-.023-.033.032-.063.02-.029-.013-.003-.202.01-.216.031-.03.086.051.117-.028.013-.031-.079-.005-.094-.04-.005-.008.048-.067.015-.074-.104-.026-.221.215-.26.249-.04.036-.129-.005-.139.071-.006.046-.066.1-.033.138l.078.074c.01.01.025.017.038.024l.013.008-.016-.003-.045-.013c-.085-.02-.147.04-.24.046-.047.002-.032-.042-.07-.033a.073.073 0 0 0-.054.05c-.001.01.012.036-.006.036-.011 0-.037-.008-.04.008 0 .006.068.126.076.14l.026.026.011.009c-.034.037-.163-.089-.19-.08-.011.002.024.081-.01.098-.077.04.004-.063-.046-.037-.04.022-.298.203-.299.225-.003.023.055.011.047.036-.002.012-.034.017-.046.024a.207.207 0 0 0-.058.064c-.02.038-.056.035-.06.045-.136.332.057.578.057.894 0 .03-.006.069-.027.093-.009.01-.043.029-.033.04.029.034.172-.07.276.003.077.054.01.207-.064.246-.079.042-.342.173-.392.225-.07.07-.09.114-.188.174a.278.278 0 0 1-.087.037c-.036.003-.102-.035-.117-.018-.032.036-.095.129-.12.164l-.004.009s.112.026.062.099c-.041.06-.112.067-.186.085-.033.01-.056-.031-.066-.014-.027.049.056.047.053.117-.014.1-.134.244-.186.328-.299.494-.688.794-1.326 1.003-.155.05-.337.086-.481.15-.238.105-.756.135-1.022.147l-.011.002c-.075.033.007.036-.022.062-.034.031-.061-.003-.084.003-.004 0-.053.067-.117.081-.05.01-.072-.013-.113-.027-.082-.027-.04-.037-.093-.067-.048-.003-.447-.065-.463-.063-.018.003-.011.069-.018.07-.005 0-.013-.007-.016-.009-.03-.024-.049-.058-.102-.045-.06.014-.349.332-.399.405-.08.117-.546.063-.71.134-.017.007-.04.017-.057.007-.097-.061-.067.005-.166.019-.104.014-.084-.039-.099-.04l-.02.008c-.093.05-.29.142-.361.2-.01.006-.082.135-.152.167-.193.087-.352.053-.414.075-.169.062-.29.126-.496.07a.313.313 0 0 1-.165-.094c-.017-.018.037-.063-.005-.073-.013-.003-.444.172-.51.153-.186-.05.02-.233.017-.244-.001-.006-.018-.006-.024-.006-.043-.003-.09.037-.097.067-.032.129-.633.394-.783.405-.04.003-.125-.043-.132-.036-.017.017-.002.146-.061.18-.032.016-.065.022-.099.035l-.184.064c-.162.056-.154.178-.255.262-.052.044-.172.047-.218.08-.127.088-.221.242-.342.312-.057.035-.156.053-.226.087-.07.036-.396.144-.446.157-.047.012-.098-.015-.145 0-.088.025-.17.097-.253.138-.064.032-.173.042-.218.082-.054.049-.054.124-.088.183l-.055.079c-.034.061-.044-.08-.087-.053-.048.031.042.094.033.123-.043.15-.163.227-.207.403l-.022.145c-.064.071-.212-.145-.276.033-.023.064-.137.028-.143-.03-.007-.082.122-.215.079-.25-.042-.032-.042.064-.073.05-.019-.01.013-.076.014-.09 0-.032-.079-.108-.072-.161.012-.09.059-.316.096-.394.01-.021.062-.065.063-.075.012-.082-.237.015-.285.083-.098.14-.409.837-.457.867-.128.08-.068.189-.076.309 0 .005.005.008.011.01.059.006.065-.009.103.037a.75.75 0 0 1 .117.233c.08.22-.15.255-.047.511.032.079-.018.095-.015.129.023.253-.116.199-.258.335-.08.077-.276.54-.295.638-.008.046.03.08.025.13-.005.034-.072.044-.076.073-.08.47.247.43.363.717.03.073-.026.129 0 .206.003.007.024.007.03.007.075 0 .02.153.062.223.078.135.174.105.221.178.068.104.095.247.17.35.058.08.124.208.182.272.02.02.166.12.168.138.001.015-.002.067.021.09.012.011.156.043.168.07.016.036-.043.097-.046.13-.004.034.07.043.056.069-.029.05-.12-.033-.13-.017-.019.028.063.103.067.13.009.054-.079.09-.084.146-.01.086.155.2.03.28-.02.013-.048-.014-.07-.004-.023.011-.016.048-.055.064a.1.1 0 0 0-.054.045c-.005.005-.009.017-.019.013-.139-.052-.279-.516-.298-.609-.005-.027.026-.088.013-.094-.096-.039.007.249-.194.343-.108.05-.135-.18-.14-.224 0-.012.098-.123.045-.335 0-.004-.174-.119-.192-.139-.024-.028-.034-.107-.034-.109-.004-.004-.051.01-.083-.024-.034-.037-.003-.13-.026-.147-.021-.018-.04.058-.05.071-.058.067-.118.139-.108.226.004.045.096.078.1.085.011.023-.03.021-.023.041.008.023.073.047.089.082.015.037.07.277.088.299.02.021.06.023.088.038.051.033.042.106.093.14.09.06.281.038.311.185.005.023-.021.04-.025.06-.012.053.053.106.013.172-.015.023-.066.032-.066.057 0 .029-.019.056-.037.078-.015.017-.048-.025-.059-.028-.037-.005-.07.026-.106.039-.054.019.043.076-.043.064l-.023-.002a.535.535 0 0 1-.054-.175c0-.016.017-.094-.007-.092-.053.008-.045.215-.072.2-.03-.017-.047-.324-.043-.371 0-.009-.044-.116-.068-.089-.04.04.054.122-.009.157-.024.009-.023-.037-.022-.047a.386.386 0 0 0-.05-.182c-.025-.042-.02-.1-.063-.133-.01-.008-.015.005-.017.012-.004.018-.005.064-.018.021-.015-.048 0-.087-.023-.141-.003-.006-.015-.046-.029-.04-.015.005.029.095.032.117.007.079-.056.172-.05.239.001.024.061.14.047.146-.032.014-.035-.068-.047-.072-.083-.033-.035-.226-.065-.322-.007-.021.007-.119-.023-.116-.015.002-.024.062-.024.072.006.049.014.193-.009.232-.013.023-.03-.045-.034-.05-.044-.055-.081-.033-.117-.053-.006-.003-.045-.025-.05-.016-.006.011.035.04.044.047.054.037.114.066.133.126.019.06.014.13.064.178.105.1.27.185.367.287.176.183.317.392.486.571.172.182.5.724.505.947.003.105-.075.145-.044.322.066.374.187.275.312.417.133.151.504.563.448.738-.057.177.289.32.388.474.087.135.113.281.153.42.013.045.067.082.068.132.002.056-.041.119-.05.172-.025.181.029.34.005.516-.003.022-.029.072-.025.089.009.03.08.074.08.133 0 .017-.034.094-.013.106.03.017.056.01.066.046.018.058.022.183.053.283.015.046-.044.029.019.103.089.103.114.296.177.408.022.038.086.051.113.086.14.173.192.435.34.59.174.177.42.563.44.79.013.142-.041.254.012.378.057.132-.075.135-.122.163l.007.005.004.011.012.022c.011.005.074-.006.076.037 0 .018-.009.03-.025.041-.004.003-.021.01-.017.016.039.067.08.066.042.167-.01.026-.037.042-.036.072.001.053.083.016.089.06.017.152-.155.036-.17.053-.01.011.078.137.085.166.025.1-.063.047-.07-.009-.007-.06-.079-.11-.063-.17.013-.054.135-.072.113-.132-.004-.011-.026.003-.03.008-.02.015-.027.041-.046.058-.054.052-.111.106-.085.18.074.218.117.43.117.656 0 .023-.029.175-.004.166.03-.013.012-.14.044-.132.029.009.036.129-.022.158-.047.022-.055-.013-.084-.01-.01 0-.026.045-.029.054-.068.193-.339.49-.63.44-.12-.022-.308-.188-.337-.184-.044.006-.026.057-.014.083.05.115-.067.073-.065.16 0 .036.048.108.048.126 0 .035-.033.078-.042.11-.017.082.022.216.017.31 0 .017.063.088.068.124.01.093.028.212.17.258.036.011.056-.058.084-.073.049-.025.166-.016.22-.009.218.03.553.266.736.376.103.062.248.21.312.295.017.023-.01.059.007.069.005.003.185 0 .206.003.1.01.382.137.447.113.066-.026-.053-.062-.019-.082.022-.013.06.044.076.055.029.02.069.021.102.034.011.004.028.019.02.03-.012.014-.2-.043-.212-.016-.009.017.071.043.087.053.094.053.173.05.272.076.02.006.017.036.037.039.003 0 .175-.056.186-.056.085.001.148.064.235.061.06-.001.076-.087.146-.053.028.015.133.016.177.023.027.005.057.037.066.039.032.004.024-.07.086-.072.091-.002.167.016.235.01.067-.005.384.163.437.166.033.002.008-.04.012-.054.01-.039.05-.069.1-.072.122-.008.44.184.51.073.024-.038-.09-.005-.112-.017-.013-.007-.002-.051-.052-.06-.031-.006.01.046-.008.053-.026.011-.115-.037-.099-.066.014-.025.072.007.106-.007.017-.007.308-.051.348-.05.04 0 .101.059.117.044.063-.053-.073-.084-.053-.103.083-.075.35-.04.365-.047.006-.003.007-.017.011-.021.012-.012-.053-.12.066-.212.112-.087.315-.079.444-.152.131-.074-.085-.037.033-.124a.301.301 0 0 1 .166-.058c.02 0 .045.013.06-.004.018-.021-.08-.054-.068-.073.156-.03.385.03.535.055.08.013.046.057.075.058.112.007 0-.13.143-.126.056.002.029.082.073.07.084-.021-.026-.133.049-.163.068-.027.098.058.259.013.002 0-.006-.008-.008-.008l-.03-.009c-.037-.003-.052-.003-.084-.021-.037-.023-.013-.098 0-.13.041-.096.39-.346.515-.398.07-.03.116-.006.178-.016.065-.01.07-.052.166-.06.045-.004.087.033.133.038.126.016.249-.025.406.013l.089.019c.134-.01.179-.107.29-.112.27-.01.511-.056.766-.068.05-.003.12.045.124.045.032-.002.04-.044.07-.053.305-.077.41-.034.66.06.021.01.079-.088.236.02.064.045.182-.074.212-.082a.364.364 0 0 1 .136-.019c.04.003.024.019.034.031h.01c.043.005.135.165.129.19-.004.02-.059.025-.053.046l.07.016c.064.003.1-.025.145-.043.053-.02.008.063.07.028.048-.028-.069-.08.153-.145.044-.013.299.059.323.063.052.009.026-.07.052-.083.045-.026.166.004.217-.004.02-.003.019-.023.056-.025.052-.002.067.045.112.042.156-.007.256-.1.404-.043.075.028.082.139.086.18.005.04.086-.005.1-.01.114-.037.114-.04.202-.117.115-.102.28.043.296.038.03-.005.023-.05.053-.067.073-.044.222-.076.292-.126.039-.028-.004-.09.025-.126.048-.064.316-.201.327-.22.023-.04.006-.11.028-.159.124-.293.334-.755.85-.7.387.015.887-.336 1.243-.472.104-.04.242-.027.345-.074.139-.064.62-.42.767-.38.197.054.161-.058.3-.048.122.009.23.062.35.077.277.039 1.256.035 1.503-.053.08-.028.155-.027.236-.043.005 0 .069-.048.113-.061a4.74 4.74 0 0 1 .66-.124c.276-.04.54-.205.816-.262.237-.049.452-.212.694-.284l.05-.011c.349-.089.815-.067 1.171-.106.258-.027.56-.063.82-.057.338.007 1.02.133 1.285-.085.218-.178 1.604.475 1.748.679.081.114.286.012.39.012.033 0 .075.042.103.03.037-.018-.091-.052-.04-.09.096-.068.373-.031.49-.025.12.005.266.177.337.226.027.018.044-.047.129.003.041.024.136.143.162.111.008-.01.028-.013.042-.011.046.005.08.048.125.047.056 0 .22-.04.278-.039.027 0 .04.032.07.025.014-.005.014-.016.008-.026-.028-.047-.166-.036-.121-.076.02-.017.041.004.054-.004.12-.078.024.064.157.058.1-.004-.041-.164.19-.091.042.013-.01.038-.015.054-.006.023.053.009.059.026.004.014-.028.033-.016.043.026.026.091 0 .119.024.018.017-.017.063.021.072.042.008.03-.092.183.067.032.033.15.14.052.152-.047.005-.03-.048-.062-.033-.038.017-.046.153-.053.184v.015c.026.017.407-.166.462-.122.122.099.225.146.245.302.002.016-.147.266-.164.146 0-.026.058-.05.04-.072-.012-.011-.123-.002-.146-.005l-.057-.012c-.01-.003-.035-.006-.04.007 0 .006.097.12.102.17.008.06-.138.055-.102.122.012.023.187.003.211.035.08.101-.077.083-.08.1-.01.061.11-.005.145.038.041.055.048.2.147.21.003 0 .08-.11.286-.04.026.008.126.04.138.05.01.008.035.05.045.05.023-.002.056-.016.055-.035 0-.026-.142-.054-.153-.077-.032-.066.194-.003.211.005.01.006.052.08.048.086-.01.017-.102-.028-.09.015.007.015.093.043.111.058.096.08.129.15.177.254.028.06.015.181-.024.226-.003.004-.004.011 0 .014.057.049.178.094.252.147.132.093.355.246.415.365.024.05.03.108.014.16-.005.02-.071.02-.063.033.042.065.098.026.122.065.06.097.041.17.08.263.04.099.016.125.024.206a.3.3 0 0 0 .035.079c.034.01.005-.067.056-.055.03.008-.016.068.007.078.01.004.133.001.107.028-.032.033-.22.019-.255-.014-.017-.016.033-.021.009-.037-.026-.017-.066-.01-.079-.042-.005-.023.047-.031.033-.041-.044-.03-.119.001-.167-.037-.028-.022.013-.092-.006-.095-.026-.004-.12.159-.142.182-.008.01-.043.046-.02.054.04.016.146-.101.243-.025.194.15.062.108.094.148.011.013.043-.002.058-.001.033 0 .093.029.122.043a3 3 0 0 1 .247.217.17.17 0 0 1 .042.06c.003.01-.004.038.007.046.12.079.073-.157.258-.13.105.016.197.18.264.209.073.031.078-.076.069-.112-.006-.02-.041-.043-.049-.066-.008-.027.17-.168.058-.203-.052-.015.008.07-.045.076-.027.003-.017-.043-.043-.031 0 0-.219.148-.236.063-.013-.065.136-.055.145-.068.028-.04-.065-.053-.052-.096.056-.186.105-.011.135-.077.016-.033-.049-.04-.037-.071.022-.065.133-.148.204-.15.069 0 .039.095.084.09.035-.006.046-.133.013-.16 0 0 .012-.11.073-.12.228-.04.21-.258.318-.36.014-.013.033-.021.049-.033.063-.046.14-.047.19-.08.053-.036.094-.102.124-.122.075-.051.589-.196.591-.227.003-.026-.054.007-.06.011-.025.017-.088.027-.066-.016.01-.015.038-.017.052-.027.026-.018.023-.066.063-.073.073-.014.016.068.094.079.063.009.274-.051.318-.102.172-.194.233-.402.353-.606.02-.032 0-.089.013-.113.005-.007.019-.012.028-.015.093-.017.138-.09.203-.14.017-.014.008-.097.094-.111.049-.008.155.104.202.054.013-.013-.057-.072-.041-.11.01-.022.027.014.044-.003a.426.426 0 0 0 .038-.072c.052-.113-.073-.191-.082-.229-.012-.043.002-.133.002-.181 0-.033.033-.099.038-.029 0 .026.061.01.063.032a.369.369 0 0 0 .042.174c.013.02.13.052.14.083.005.019-.042.004-.057.023a.353.353 0 0 0 .02.105c.018.035.062.224.068.233.024.028.19.055.148.166-.012.035-.327-.003-.37.197.003.036.067.072.099.08.033.01-.016.083.004.112.04.056.126.127.114.207-.014.098-.123.043-.201.156-.049.07-.294.2-.348.292-.007.013.046.022.04.053-.009.046-.15.088-.166.129-.011.031.087-.003-.011.179-.019.036-.095-.025-.105.014-.006.022.027.044.036.065a.314.314 0 0 1 .026.193c-.012.064-.135.163-.128.189.009.032.047-.033.062-.036.036-.007.063.033.057.057-.016.072.036.122.04.188.004.071-.102.462-.19.47-.042.004-.138-.061-.162-.076-.033-.017-.213.029-.257.033-.052.005-.13-.048-.162-.04-.036.01-.066.13-.077.146-.015.02-.06.014-.06.042 0 .011.067.025.044.091-.036.099-.155.123-.202.206-.004.007.062.093.117.068.04-.018.162-.09.2-.096.07-.012.161.05.23.024.053-.02.034-.089.113-.103.046-.009.118.017.151.006.052-.019.062-.085.166-.086.072 0 .34.103.362.096.048-.015.118-.04.114-.08-.015-.125.261-.669.241-.704-.14-.246.218-.337.208-.451 0-.01-.05-.009-.049-.057 0-.049.079-.086.087-.115.005-.016.003-.057.033-.057.096 0 .11.189.11.19.008.012.062 0 .09.039.188.243.01.174.36.484.026.022.044.114.117.127.066.011.037.02.057.057.003.006.013.039 0 .039l-.011-.019a.058.058 0 0 0-.042-.027c-.043-.003-.048.099-.05.124-.001.075.059.16.053.235-.004.046-.093.117-.096.202 0 .037.005.213-.022.24-.09.093-.537.294-.551.375-.018.097.291.05.297.052.093-.008.322.025.405.002.122-.034.168-.158.31-.165.068-.003.408.064.426.018.004-.011-.013-.018-.025-.02-.053-.007-.313-.036-.297-.083.003-.011.024-.008.035-.006.045.01.321.085.341.068.072-.062-.22-.015-.117-.136.054-.066.183-.032.269-.055.094-.025.067-.094.13-.09.087.004.173.122.187.099.009-.013.042-.036.045-.009.003.029-.023.056-.022.073.002.02.079.043.032.08-.043.033-.12.003-.18.013-.012.002-.07-.004-.06.019.032.073.231 0 .197.18-.005.024.021.066-.017.079-.039.013-.085 0-.128 0-.01 0-.023-.001-.028-.009-.033-.047.038-.041.044-.07.006-.028-.064-.008-.063-.031 0-.01.069-.058.026-.098l-.146-.067a.156.156 0 0 0-.103.059c-.009.013.004.05-.014.047-.015-.003-.05-.03-.056.011-.003.02.018.028.035.035.224.093.504.293.689.43.14.105.16.19.249.308a.398.398 0 0 1 .044.093c0 .005.003.023-.004.025l-.014-.018c-.016-.021-.025-.04-.04-.061a.99.99 0 0 0-.135-.163c-.215-.198-.581-.523-.871-.644-.026-.012-.1-.046-.13-.025-.012.01.09.053.105.063.073.04.15.08.22.125.257.166.47.309.684.514.178.17.556.834.467 1.044-.053.127-.276.165-.292.183 0 .007 0 .013.006.02.033.032.162.165.167.19.006.026.017.064-.011.08-.022.014-.066-.01-.056.018.023.06.36.42.418.455a.029.029 0 0 0 .024 0c.05-.03.125-.006.178.047.041.06-.06.017-.02.066.067.079.196.123.283.245.043.058.049.134.104.184.046.042.098.035.148.06.12.062.206.154.347.184.095.021.18-.022.266-.02.297.005.686.168.872.363.05.051-.046.063-.034.099.027.083.091-.029.153-.016.15.03.07.096.134.096.02 0 .023-.042.045-.056.043-.029.088.026.111-.003.019-.023-.194-.143.108-.183.363-.047.426.116.686.18.152.037.205-.066.36-.05.041.004.091.059.115.06.038.003 0-.064.065-.045.028.008 0 .042.024.047.182.041.305.18.464.234.146.052.319.053.459.113.056.025.192.142.203.144.105.022.212-.008.332.034.04.014.053.077.16.103.1-.01.208-.152.27-.182.048-.023.193-.036.217-.05.173-.1.235-.262.476-.353.1-.038.347-.192.454-.206a1.33 1.33 0 0 1 .207-.013c.04.005.068.037.11.023.078-.026.018-.036.038-.063.038-.053.084-.03.104-.093.039-.122-.36-.009-.51-.023-.043-.005-.078-.029-.05-.065.034-.041.236-.014.243-.018.023-.015-.017-.047.007-.06.069-.04.146-.035.212-.063.178-.078.188-.16.38-.168.027 0-.04-.088.083-.034.085.037.047.146.116.184.02.012.079-.01.119.052.114.175-.199.454-.416.47-.073.005-.248-.122-.278-.084l.02.015c.026.011.056.017.081.03.04.021.166.103.188.134.046.069.226.103.3.059.02-.011.009-.039.023-.056.022-.026.05-.011.07-.026.012-.007.026-.031.036-.041.043-.016.139.021.168.013.018-.006-.039-.116-.039-.128 0-.025.04-.01.051-.024.023-.031.02-.074.03-.094.016-.03.124.02.14.015.187-.048.23-.044.278.128.006.021.062.004.066.038.016.11-.173.053-.212.073-.011.006.012.033.015.042.01.024.004.051-.003.077-.009.037-.095.023-.095.036 0 .013.096.021.115.026.107.021.109.038.156.108.13.19.262-.057.436.032.01.006.06.07.04.073-.037.007-.123-.093-.143-.059l.032.029c.037.028.078.056.109.089.04.045.068.101.1.151.007.012.018.073.021.076.103.077.145-.122.202-.126.164-.011.259.122.339.21.036.04.09.085.129.126.025.029-.04.026-.04.042 0 .037.133.149.18-.003.007-.024.093.006.087-.023-.02-.096-.077-.02-.077-.117 0-.065.107-.122.056-.254-.007-.018-.062-.028-.07-.014-.013.022-.006.064-.025.082-.014.016-.054.005-.076.011-.047.013-.054.073-.105.077-.053.005-.043-.117-.055-.133-.004-.007-.038.005-.05-.005-.014-.012-.077-.09-.069-.1.172-.16.311-.012.347-.013.09-.003.283-.088.395-.092.066-.001.209-.027.28-.022.004 0 .014.005.013.01l-.009.005s-.021.033.002.029h.007c.215-.11.41-.331.608-.467.455-.31 1.146-.764 1.787-.743a8.95 8.95 0 0 0 1.225-.058l.053.02c.03.004.122-.015.143 0 .007.005.004.04.022.041.027.003.04-.033.066-.038.09-.018.198.004.281-.013.056-.012.324-.153.364-.21.015-.02.073-.064.067-.076a.17.17 0 0 0-.044-.062c-.005-.003-.045-.013-.025-.023.01-.004.068.014.082.014.016 0 .026-.037.046-.021.016.011 0 .037-.013.05l-.019.016c.022.016.288-.033.31-.056v-.024l.008.002s-.006 0-.007-.002c-.009-.073-.048-.302-.046-.305.024-.036.077-.039.117-.027.013.004.029.008.039.017l.011.004s-.004-.016-.007-.017l-.043-.05c-.056-.072.027-.076-.109-.157-.012-.008-.088.037-.124-.006-.011-.015.06-.069.082-.066.045.009.015.009.027-.022.011-.03-.033-.03-.036-.061-.001-.014 0-.037.01-.05.004-.004.026-.016.024-.02-.001-.017-.063.003-.064-.03 0-.023.122-.308.136-.345.016-.037.09-.092.106-.126.028-.064.013-.172.02-.235.011-.098.103-.107.117-.144v-.02c-.021-.05-.01-.296-.017-.303-.017-.02-.049-.01-.073-.008l.013-.015c.004-.01-.012-.025.017-.032.034-.008.067.063.083.007.014-.05-.007-.221.012-.239.021-.02.057-.048.088-.047.126.003-.041-.142-.04-.169 0-.04.129.009.132.009.04-.007.071-.11.096-.142.03-.037.107-.093.124-.121.004-.008-.041-.065-.003-.118.023-.031.14-.118.122-.133-.05-.041.091-.215.13-.226.109-.028.29-.01.303-.05.02-.062-.194-.073-.125-.18.011-.019.051-.022.071-.029.135-.049.072.049.072.087 0 .013.028.016.038.026.003.003.005.013.01.014.039.006.083-.111.079-.123-.011-.044-.109.06-.117-.093.002-.043-.068-.018-.065-.04.003-.014.076 0 .059-.03-.006-.01-.096-.027-.09-.037.113-.192.187-.019.224-.352.002-.016.035-.023.05-.023h.02l.008-.004c-.062-.036-.096-.039-.162-.053-.013-.003-.016-.017-.01-.024.01-.016.063-.083.094-.05.012.014-.028.052-.001.057.032.005.039-.045.054-.058.01-.008.03-.007.04-.017.013-.013 0-.02-.011-.028-.019-.013.019-.192.031-.208.058-.073.377-.309.381-.323.009-.037-.064.011-.059-.017.022-.088.152-.02.158-.069.005-.049-.203.017-.223-.03-.013-.029.067-.02.083-.02.084.003.015-.06.061-.06.07 0 .07.091.107.061a.954.954 0 0 0 .063-.193l-.005-.011c-.015-.006-.045.071-.072.023-.03-.056.093-.068.093-.069.004-.039-.013-.12-.01-.132.004-.027.067-.085.067-.146 0-.044-.047.078-.086.068-.038-.01.06-.092.05-.115-.015-.033-.137.06-.148.027-.003-.01.04-.014.037-.03-.003-.017-.037-.007-.043-.015-.016-.022.003-.076.034-.072.018.003.005.056.033.06.235.042.404-.25.387-.289-.019-.011-.04.032-.085.017-.071-.024.013-.04.025-.043l.008-.013c-.001-.011-.039-.005-.036-.02 0-.008.132-.077.16-.057.016.013-.027.055-.037.067-.001.003-.014.022-.004.023.042.006.086-.14.119-.16.011-.008.253-.415.345-.48.088-.065.568-.15.576-.161.073-.09-.103-.05-.151-.074-.007-.005-.046-.002-.043-.018.003-.01.061-.014.071-.015.082-.013.082-.032.16.024l.013.003c.043-.013-.012-.08.018-.107a1.33 1.33 0 0 1 .396-.23c.228-.075 0-.09.087-.165.049-.043 0-.068.015-.125.005-.02.054-.069.054-.07-.026-.04-.132-.064-.096-.123.072-.117.136-.225.266-.32.027-.02.135-.05.145-.072.007-.013-.035-.02-.023-.046.037-.081.136-.147.164-.225.005-.011-.018-.068.01-.113.032-.048.102-.078.12-.111.02-.032-.032-.073-.016-.123.01-.037.051-.062.065-.095.022-.046-.02-.101-.011-.141.021-.096.116-.15.16-.232.006-.01-.017-.004-.026-.02-.011-.019-.023-.037-.014-.059.017-.049.087-.106.062-.157-.005-.007-.088.014-.106-.007-.02-.023-.032-.315-.023-.33.028-.05.018-.133.046-.193.044-.096.101-.17.16-.257.02-.03 0-.065.003-.09l.1-.143c.021-.05-.017-.123-.01-.166.008-.052.113-.114.119-.175.017-.177.123-.374.123-.552 0-.176-.029-.298.1-.472.011-.016.051-.022.057-.042.009-.031-.067-.046.006-.152.04-.057.243-.227.247-.25.06-.268-.09-.368-.035-.698l.01-.003ZM67.915 44.392v-.003.01-.007Z"/>
  <path fill="#BEBFC2" d="M32.296 63.504a.635.635 0 0 0-.1-.136c-.032-.011-.003.026-.004.033-.005.016-.032-.004-.036-.01a.036.036 0 0 1-.009-.028c.002-.026.013-.032.03-.05.003-.005.016-.013.01-.02-.045-.05-.243-.395-.243-.47 0-.026.012-.044.033-.064.003-.003.006-.013.001-.016-.012-.009-.04.007-.054.004-.081-.017-.132.135-.097.195.08.14.091.282.201.416.04.05.108.073.147.13.02.03.024.062.032.095.018.067.178.094.092-.077l-.003-.002Zm-.243-1.082c.034.072.037-.08.039-.084.02-.04.064-.183.045-.216l-.003-.014c-.023.061-.104.269-.083.316l.002-.002Zm.083-.318v.003c.006-.014.008-.022.006-.02l-.006.015v.002Zm.066-.136c.017-.026-.022-.058-.025-.088-.002-.037.032-.07.042-.106.006-.023-.009-.088-.026-.033a1.04 1.04 0 0 0-.05.262c-.001.078.034 0 .059-.037v.002Zm1.128 1.197c-.102-.007-.024.106.016.126.069.036.053-.121-.015-.126Zm47.722 19.217c-.026-.006-.147-.085-.169-.029-.008.022.05.062.013.105-.033.038-.1.037-.129.066-.01.01.025.114.022.134-.006.053-.079.119-.056.175.008.02.066.035.083.058.023.029-.013.146-.006.194.004.028.036.007.046.018.022.024.253-.093.303-.119.14-.07-.003-.207-.003-.21.01-.113.073-.348-.104-.39v-.002Zm6.09.436c.069.145-.016.115-.014.148.001.03.074.007.096.023.021.015.012.071.022.078.013.01.045-.023.07 0 .096.09.012.185.165.234.132.041.142-.082.188-.085.025-.001.193.09.178.015-.005-.028-.1-.062-.065-.062.015 0 .051.05.067.037.007-.006-.037-.091-.042-.109 0-.004-.011-.031-.015-.03l-.018.023c-.013.014-.088.04-.098.016-.006-.016.084-.056.101-.076.025-.027-.005-.064 0-.094l.009-.04s.01-.013.004-.016c-.079-.052-.183.006-.438-.253-.031-.032-.04-.09-.09-.1-.026-.003-.07.051-.089.064-.027.019-.054-.029-.071-.007-.024.028.016.071.003.106-.019.047-.158.023-.165.073-.011.075.176 0 .203.058l-.001-.003Zm.881.674c-.008-.011 0-.034-.004-.037-.009-.006-.04-.003-.056-.011-.031-.017-.1-.093-.118-.092-.03 0-.08.039-.115.046-.017.003-.08-.006-.082-.006-.011.007.022.033-.014.04-.019.004-.114-.031-.172-.026-.035.003-.223.085-.145.12.13.06.545-.02.538.06-.003.047.037.035.105.024.038-.006.025-.065.059-.079.02-.009.043.033.056.007.01-.021-.042-.031-.055-.046h.003Zm-.342.159c.005-.011.017-.018.028-.026l.005-.01s-.061.013-.079.012c-.027-.003-.174.021-.164.05.013.041.097.03.117.067.042.082.092-.091.093-.094v.001Zm-5.285.182c-.067.051-.013.031-.009.064.014.112.139-.035.245.016.084.041-.118-.172-.235-.082l-.001.002Zm.022-.252c.13-.041.138-.091-.012-.124-.018-.005-.158.178.012.124Zm-.228.177.024-.044c-.036-.077.039-.053.03-.136 0-.003-.003-.117-.026-.073-.081.16-.126.037-.054.248 0 .003.016.01.026.005Z"/>
  <path fill="#BEBFC2" d="M87.813 85.943s.084-.065.084-.068c0-.01-.091-.06-.105-.113-.02-.07.04-.145.037-.162-.007-.041-.076-.076-.089-.137-.014-.066.062-.086.06-.1-.014-.09.025-.132.019-.204-.012-.146-.095-.117-.017-.302.024-.058-.01-.044.054-.101.006-.005.02-.023.016-.03-.006-.01-.035.008-.04.013-.02.012-.088.081-.116.061-.032-.021.086-.069.101-.083.029-.027-.078-.083-.081-.139-.003-.055.063-.106.064-.159 0-.025-.054-.022-.053-.038 0-.009.078-.029.092-.056.02-.037-.178-.225-.215-.233-.026-.007-.047.016-.079.006-.055-.018-.11-.112-.213-.13-.128-.022-.084.144-.223.192-.154.055-.27-.108-.41-.054-.082.032-.134.22-.297.242-.031.004-.023-.031-.033-.044-.013-.017-.051-.003-.068-.013-.016-.009 0-.049-.025-.047-.136.002-.159.078-.254.091-.086.013-.194-.036-.252-.044-.033-.004-.082.05-.109.06-.064.026-.272-.01-.207.123.017.037.117.01.173.059.034.028-.153.03-.198.014-.013-.004.016-.166-.132-.126-.044.011-.028.019-.094.026-.011 0-.016.017-.02.024-.016.022-.043.03-.069.041-.014.006-.027.01-.038.02-.019.013.036.035.016.05-.043.032-.06-.084-.086-.078-.508.104-.45.021-.885-.087-.064-.016-.246-.029-.297-.065-.043-.03-.053-.087-.102-.111-.048-.025-.296-.009-.32-.088-.012-.037-.32 0-.4-.107-.041-.057.063-.034.06-.051a.28.28 0 0 0-.091-.07c-.043.014.024.081-.004.108-.028.027-.135-.004-.176.003-.025.004.053.037-.022.043-.074.006-.166-.089-.216-.103-.041-.013-.336-.016-.358-.029 0 0-.061-.123-.074-.123-.02 0-.06.092-.059.098.007.058.099.193.022.251-.026.019-.082.023-.113.053-.015.013.074.072-.007.09-.036.01.071.088.087.124.027.063.014.134.018.197l.075.092c.018.045.073.064.083.123.008.045-.062.024-.046.058.026.056.178.192.228.265.034.052.012.113.037.14.016.019.038-.013.057.003.057.05.123.168.166.199.119.087.426.248.31.416-.02.028-.061.133.036.093l.007-.01c.002-.02.008-.101.065-.098.008 0 .03.005.027.012-.009.042.136.24.203.267.036.014.007-.055.059-.029.03.014 0 .046.01.053.014.011.063-.05.061-.017 0 .011-.035.043-.041.061-.004.012-.007.055-.016.056-.023.003-.037-.028-.054-.023-.01.005.005.125-.012.143-.014.016-.028-.028-.03-.034-.011-.037-.014-.124-.028-.152-.026-.047-.258-.13-.29-.15-.028-.016-.07-.107-.095-.11-.04-.003.01.064.016.076.024.046.007.13.04.196.024.051 0 .1.024.153.011.023.073.067.076.074.013.028-.079.046-.059.073.013.016.049-.003.066 0 .036.006.054.038.081.056.023.016.013.052.03.072.005.008.025.014.026.024.003.021-.048.033-.035.052.007.01.05.012.061.028.054.075.097.173.152.248.024.032.08-.006.117.005.056.017.069.078.113.106.016.01.054.003.064.02.012.019-.047.036-.027.062.027.038.09.004.098.011.017.013.06.1.104.136.044.036.009.15.143.15.023 0 .059 0 .07-.021.033-.06-.108.001-.099-.036.01-.036.086-.008.084-.047-.016-.146.1.114.171.13.079.017.003-.069.063-.061.034.004.013.091.09.073.036-.009.038-.088.076-.08.057.012.123.102.106.153-.014.04-.059-.055-.092-.035-.054.035 0 .07-.028.07-.027 0-.053-.058-.076-.074-.016-.01-.132-.007-.162-.011-.011-.002-.038-.022-.05-.012-.014.011.072.066.019.059-.02-.003-.066-.055-.092-.02-.014.02.067.037.08.044.009.004.08.094.086.106.012.024-.024.099-.017.103.01.006.049-.022.067-.022.015 0 .053.022.06.012.009-.014-.01-.039.015-.044.09-.019.133.053.14.018.003-.014-.003-.027.008-.04.06-.066.09.029.108.042a.057.057 0 0 0 .027.008c.031.004.04-.036.07-.033.11.007.225.07.345.029l.003-.006s-.049-.097.013-.083c.008.002.038.119.061.129.066.029.125.097.156.11.009.004.023 0 .032-.003.177-.084.121.047.304-.025.018-.008.046-.023.042-.042-.007-.027-.073-.008-.08-.036-.02-.071.09-.004.103-.058.004-.02-.052-.036-.04-.052.023-.033.14.022.133-.016-.007-.035-.109-.03-.138-.041-.004-.002-.01-.007-.007-.012l.015-.002c.054 0 .198-.078.197-.105-.003-.044-.227-.003-.126-.041l.026-.009c.043-.019.16.032.167-.033l-.008-.017c-.02-.022-.385-.188-.16-.246.061-.016.03.106.075.126a.07.07 0 0 0 .078-.01l.017-.027.004-.016c.075.05-.031.084-.016.11.012.019.063-.01.088-.001.025.01 0 .03.011.044.023.03.115.026.142 0 .076-.069-.02-.125-.009-.183.009-.047.1-.062.099-.08-.002-.023-.096-.025-.069-.07.043-.07.055.042.106.021.011-.004-.001-.076 0-.092.004-.04.059-.063.06-.077.009-.048-.194-.182-.147-.203h.014c.059.006.082.086.112.112.024.02.067.017.088.038.015.014.01.06.026.059.016 0 .059-.047.077-.032.008.006-.017.045-.017.055-.004.035.062.028.022.084-.055.076-.058-.054-.108-.023-.022.015.006.042.015.056l.004.007c.007.009.283.007.176-.131-.059-.078-.037-.205.112-.16.005.002.094.088.108.092.032.009.244-.001.26.012.02.016-.02.031-.012.05.007.016.056.019.056.023.004.014-.053.018-.055.023-.002.01.023.014.028.02.012.017.001.038.031.045.01.003.059 0 .06.006.007.026-.172.062-.232.023-.085-.054.003-.149-.1-.14-.081.006-.008.037-.01.056-.003.023-.063.02-.084.031-.063.036.011.095.043.116.007.004.153.024.124.053-.017.017-.073.009-.076.037-.004.033.095.076.123.093.018.01.035.05.046.045.103-.053.06-.078.105-.14.004-.008.013-.016.024-.016.034 0 .018.051.027.065.006.01.126.076.155.07.025-.005-.033-.042-.033-.05 0-.018.061-.024.058-.048-.002-.027-.07-.013-.077-.027-.007-.015.039-.016.033-.029-.007-.019-.053-.043-.052-.059.005-.038-.008-.083.022-.114.016-.017.064-.009.069-.032.013-.055-.055-.028-.013-.08.017-.02-.025-.017-.03-.026-.002-.002.017-.057-.032-.038-.087.031-.001-.04-.084-.042-.017 0-.05.02-.043.036.007.016.067.033.046.04-.023.009-.099.002-.106-.024-.006-.026.054-.037.063-.063.008-.026-.017-.052-.003-.076.017-.03.119-.067.122-.074a.57.57 0 0 0-.033-.172.202.202 0 0 0-.06-.056c-.005-.003-.02-.016-.013-.021.041-.039.177.041.186-.042a.479.479 0 0 0 .001-.11c-.003-.016-.03-.024-.023-.04.009-.02.062-.09.059-.105-.01-.065-.089.018-.099.018-.013 0 .024-.055.029-.058.004-.001.147-.158.149-.18.002-.024-.02-.074 0-.093.047-.04.153.022.204-.014l-.01-.003-.028-.004c-.028-.005-.076-.01-.092-.032-.017-.024.037-.021.039-.038.001-.013-.043-.053-.003-.063.024-.006.034.03.061.011.032-.021-.053-.07-.014-.086.009-.004.026-.001.029.006.015.031.074.059.058.09-.02.039-.12.049-.121.066 0 .011.055.011.067.013a.912.912 0 0 1 .173.08c.024.02-.06.034-.064.038-.01.012.044.03.045.055.003.04-.051.041-.07.066-.018.023.049.021.059.03.011.008.004.023.026.021.026 0 .063-.048.078-.063.06-.061-.08-.073-.077-.091l.003-.005ZM71.34 77.025c-.004.047-.097.088-.15.074-.06-.016.015-.102-.043-.102-.05 0-.259.053-.297-.005-.014-.023.103-.092.101-.099-.005-.037-.127.009-.113-.044.01-.039.076-.013.092-.045a.016.016 0 0 0-.012-.021c-.074-.017-.214.041-.289.038-.051 0-.16-.038-.197-.032-.092.014-.228.081-.328.103-.136.02-.317.054-.455.06-.017 0-.369.076-.383.081l-.015.01c-.028.035-.01.082-.018.123-.006.028-.124.048.01.1.023.008.133.06.157.078.015.011.052.063.068.081.005.008-.005.035.01.036.065.004.138-.053.206-.057.044-.003.066.034.094.041l.017-.002c.18-.038.292-.005.38-.022.085-.016.005-.069.07-.082.091-.02.326.058.379.126.021.028.057.013.087-.004.054-.03.15-.047.188-.08.038-.034-.046-.07-.02-.113a2.79 2.79 0 0 1 .234-.092c.192-.064.458.176.608-.01.042-.051-.372-.283-.379-.143l-.003.002Zm-6.687-4.898c-.063.001-.302.081-.165.116.076.018.086-.065.093-.082.006-.017.064-.014.08-.02.014-.006 0-.014-.008-.014Zm5.86 3.132c-.017-.043-.074.039-.057.06.029.037.076-.016.057-.06Zm24.814-12.872c.017.043.014.09.004.134-.009.04-.193.31-.195.318-.004.074.075.096.086.176.006.041.026.129.09.149.059.018.086-.28.116-.36.05-.143.38-.646.386-.73.006-.068-.141-.066-.141-.237 0-.021.004-.2 0-.202-.047-.022-.156.11-.178.125-.108.072.222.084.08.354-.06.111-.253.147-.331.241-.035.04.074.01.083.033v-.001ZM61.17 43.091c.003-.024-.053-.174-.083-.181-.024-.006-.043.021-.07.021-.023 0-.029-.027-.053-.02-.017.004-.023.07-.066.044-.011-.005 0-.025.003-.033.018-.034.01-.114-.063-.081-.13.061-.063.121-.069.187-.001.019.055.096.019.106-.013.003-.023-.044-.029-.056-.026-.051-.053-.064-.071-.13-.003-.011-.012-.024-.028-.023-.01 0-.158.103-.158.103 0 .013-.017.138-.042.115-.02-.017.017-.057-.017-.083a.946.946 0 0 0-.164-.063c-.012.001-.058.061-.1.076-.035.011-.197.027-.21.041-.017.017-.011.06-.012.063l-.003-.006-.015-.011a.1.1 0 0 1-.047-.05c-.006-.019.032-.073.006-.079-.03-.005-.106.138-.155.089-.057-.057.13-.077.016-.156-.053-.037-.077.033-.093.021a.892.892 0 0 1-.17-.183c-.044-.07-.08.105-.063.129.061.092.038.258.101.335.082.099.085.187.11.215.134.133.553.256.699.384.037.033.061-.004.09-.024.135-.104.318-.162.452-.252.059-.038.148-.201.149-.203.026-.017.095.069.15.036.035-.02-.024-.042-.026-.043a.39.39 0 0 1 .015-.105c.034-.083.183.026.101-.151-.031-.07-.111.051-.104-.027v-.005ZM40.587 75.838c-.063-.022-.039.028.01.043.033.012.08-.01-.01-.043Z"/>
  <path fill="#357C77" d="M87.565 78.553h-.017l-.024.013a.123.123 0 0 1-.011.008l-.017.025a.116.116 0 0 1 .062.004l.038-.016.016.013c.078.058 1.572.589 2.29.845l.443.159c-.012-.097-.04-.271-.039-.274.024-.037.076-.04.115-.028a.096.096 0 0 1 .038.018l.012.004s-.005-.016-.007-.017l-.043-.052c-.054-.073.027-.078-.107-.162-.012-.007-.087.038-.122-.006-.011-.014.06-.07.08-.067.045.008.016.008.027-.022.011-.031-.032-.031-.035-.064-.002-.014 0-.038.01-.051.004-.005.025-.016.025-.02-.001-.019-.062.002-.063-.032 0-.023.12-.316.133-.354.016-.039.09-.095.105-.13.028-.066.012-.176.02-.241.01-.102.1-.11.115-.149v-.02c-.021-.052-.01-.305-.017-.312-.017-.02-.048-.01-.072-.008l.013-.016c.004-.01-.012-.025.017-.032.033-.009.066.065.081.007.014-.051-.007-.228.011-.245.022-.021.057-.05.088-.05.124.004-.041-.145-.04-.173 0-.04.127.01.13.01.04-.008.07-.114.094-.147.03-.038.106-.095.123-.125.004-.007-.041-.066-.003-.12.022-.033.138-.122.12-.137-.05-.043.09-.22.128-.233.107-.029.286-.01.298-.051.019-.063-.191-.075-.124-.186.012-.019.051-.022.07-.029.133-.05.071.05.071.09 0 .013.028.016.038.026.003.003.004.013.01.015.038.006.082-.115.078-.127-.012-.045-.108.062-.116-.095.003-.044-.066-.02-.063-.041.002-.015.074 0 .057-.031-.005-.01-.094-.028-.088-.039.11-.197.184-.019.22-.362.002-.016.034-.023.05-.023h.018l.009-.004c-.06-.037-.095-.04-.16-.055-.012-.003-.015-.017-.01-.025.01-.016.063-.085.094-.05.011.013-.028.053-.002.058.031.005.038-.046.054-.06.01-.008.03-.007.04-.017.012-.013 0-.02-.012-.03-.018-.013.018-.197.03-.213.057-.075.37-.318.374-.332.009-.039-.063.011-.058-.018.022-.09.15-.02.155-.07.006-.05-.2.017-.22-.032-.012-.029.067-.02.082-.02.083.003.016-.062.06-.062.07 0 .07.094.106.063a1.01 1.01 0 0 0 .062-.198l-.005-.012c-.014-.006-.044.073-.07.023-.03-.057.09-.069.09-.07.005-.04-.012-.124-.009-.136.004-.027.066-.088.066-.15 0-.045-.046.08-.084.07-.038-.01.057-.095.048-.118-.014-.034-.134.062-.145.028-.003-.01.039-.015.036-.031-.003-.018-.036-.008-.042-.016-.016-.022.003-.078.034-.074.017.003.004.058.032.062.231.043.397-.258.38-.297-.018-.012-.04.032-.083.017-.07-.025.013-.04.024-.044l.009-.013c-.002-.012-.039-.006-.036-.02 0-.01.13-.08.157-.06.016.014-.027.056-.036.07-.001.003-.014.022-.004.023.041.006.085-.144.117-.165.011-.008.25-.426.34-.494.087-.066.558-.153.567-.165.072-.093-.102-.051-.15-.076-.006-.005-.044-.002-.042-.018.003-.01.06-.015.07-.016.081-.013.081-.032.159.025l.012.003c.042-.013-.013-.083.017-.11.085-.082.265-.195.39-.237.224-.077 0-.092.086-.17.048-.044 0-.069.014-.128.006-.02.053-.07.053-.072-.025-.04-.129-.066-.094-.126.07-.12.134-.231.262-.328.027-.021.132-.053.142-.076.007-.013-.033-.02-.022-.047.036-.083.133-.151.162-.23.004-.012-.019-.071.01-.117.03-.05.1-.08.118-.115.018-.032-.033-.075-.017-.126.011-.038.05-.063.065-.097.02-.047-.02-.105-.012-.146.022-.099.115-.154.158-.238.006-.01-.017-.005-.025-.02-.012-.02-.023-.04-.014-.061.017-.05.086-.11.06-.162-.004-.007-.086.015-.104-.007-.02-.024-.03-.324-.022-.339.028-.051.018-.137.045-.198.043-.099.1-.175.157-.265.02-.031 0-.067.003-.093l.099-.147c.02-.05-.017-.127-.01-.17.008-.054.111-.117.117-.18.017-.183.12-.384.12-.568 0-.181-.027-.306.1-.486.01-.016.05-.022.056-.042.008-.033-.067-.048.005-.157.04-.058.24-.233.244-.257.059-.275-.089-.378-.035-.718.02-.137 0-.185-.045-.228l-.027.015-.027-.01a.309.309 0 0 0-.048-.018.736.736 0 0 1-.091.063c-.023.015-.058.037-.065.044l-.006.013h-.011s-.058.022-.09-.004l-.007-.006c-.014 0-.028 0-.042-.007h-.003l-.023.016-.07.032-.013-.003-.032-.01-.011.032-.006.015-.031.013a.345.345 0 0 1-.063.07l-.013.013-.15-.024-.023.01-.013-.004c-.034-.013-.07-.016-.111-.02a.535.535 0 0 1-.116-.02.346.346 0 0 0-.063.046l-.011.01-.041-.006-.03.022-.169-.064v-.012a.265.265 0 0 0-.053-.018.185.185 0 0 1-.042.046l-.026.019-.02-.024-.016-.005-.006.007-.073-.047.01-.056-.006-.003-.036.007-.061.067v.005c-.006.036-.038.06-.07.081l-.013.01-.055-.017-.05.004-.037.04-.02-.003-.1.094-.035-.034-.035-.002a.347.347 0 0 1-.15.048l-.093.085a.09.09 0 0 1-.071-.01v.002c.001.011.016.014.022.014l.025.003.022.102c.02.007.047.019.067.037l.028-.01.035.102-.02.017c-.034.028-.049.067-.044.129v.016l-.01.012c.005.004.01.009.013.016l.007.016-.017.031c-.031.027-.05.044-.064.053a.243.243 0 0 1-.152.052h-.024l-.008-.018-.054-.01-.01.056a.059.059 0 0 1-.036.028l-.016.004-.02-.01-.018-.02-.057.026-.017-.056-.044-.07-.008.006-.016-.002a.342.342 0 0 0-.087.052l-.011.01h-.014c-.085-.01-.154.071-.174.129l.085.01-.09.055a.215.215 0 0 0-.052.05.222.222 0 0 1-.088.072l-.035.04-.056-.007c-.023.017-.048.014-.078-.008-.002-.002-.004-.005-.007-.006l-.014-.005-.03-.06.006-.012a.078.078 0 0 1-.038-.023l-.007-.008-.007-.05.01-.092c.003-.01 0-.025-.01-.043l-.014-.026.016-.014a.155.155 0 0 0-.048-.032l-.014.006-.017-.02a.806.806 0 0 0-.172-.086c-.05.026-.08.014-.097 0-.023-.02-.03-.052-.021-.089a.729.729 0 0 0-.234-.13l-.014.005-.008-.008a.42.42 0 0 1-.07-.042c-.023 0-.042-.01-.057-.017a.118.118 0 0 0-.047-.013c-.027.017-.074.036-.103.03h-.004c-.03.018-.056.03-.079.023l-.008-.004-.028.004-.08-.02-.003-.008h-.019l-.005.013h-.02c-.087.009-.148 0-.183-.027l-.02-.014-.03-.003v-.033c-.003-.035-.103-.076-.141-.091l-.009-.004-.028.016h-.013a.689.689 0 0 1-.138.016c-.077.004-.22.012-.242.047l-.01.016h-.053a.246.246 0 0 1-.076.014c-.02.002-.037-.006-.054-.017a.183.183 0 0 0-.015-.008l-.009.002c-.032.008-.056.012-.074.006a.534.534 0 0 1-.11.01h-.019a.05.05 0 0 1-.013.024c-.02.016-.043.006-.054 0l-.011.01-.045-.038-.021.003c-.029.005-.064.009-.08-.023l-.005-.022a.357.357 0 0 0-.1-.015.214.214 0 0 1-.066.02c-.007.002-.014.003-.017.005-.015.007-.027.028-.042.051-.031.052-.072.121-.2.124a.102.102 0 0 1-.038.03.091.091 0 0 1-.047.013.147.147 0 0 1-.073.04l-.021.029-.017.023h-.015a.85.85 0 0 0-.107.05v.003l-.027.028a.09.09 0 0 1-.019.05l.01.005-.064.087-.023-.008-.038.022.04.037h-.093c-2.8.013-5.647.007-8.4.003-1.319-.003-2.638-.005-3.957-.005-.003.685-.006 6.81-.007 7.146l.008-.023.041.024.025.022.017.006.044-.015.015.014a.126.126 0 0 0 .09.035l.027-.028.037-.006.034.013.004-.008.077.054c.024.003.044.02.058.034l.01-.01c.023-.018.048-.005.063.004.012.006.027.015.033.01l.048-.034.008.072.018.01.09-.017.031.065.01-.003a.181.181 0 0 1 .07-.003c.034-.059.053-.068.12-.1.014-.008.033-.015.053-.025l.007-.003-.012-.022.096.018a.082.082 0 0 1 .077.01l.02.014-.003.01h.01c.013 0 .027.004.041.008a.163.163 0 0 1 .028-.003h.016l-.003-.02.107-.008.011.01c.011.01.04.017.065.014a.04.04 0 0 0 .027-.013c.014-.02.043-.022.056-.022.018 0 .032.005.04.019l.008.01v.016l.02-.001h.007l.007.003c.03.014.03.045.03.061h.003a.04.04 0 0 0 .026-.017l.012-.031.082.03.01.027h.06l.03.037c.017.013.027.041.03.084v.016a.09.09 0 0 1 .005.032h.045l.009.006c.018.014.024.028.024.04l.028.007c.035-.013.101-.019.12.018.004.006.018.035-.014.062l-.01.03-.03.023.008.064.055.012-.047.064s.007.014.008.019l.044.045.101.041v.023c.003.01.003.02 0 .03h.018l.003.033v.017h.014l.01.017c.025.04.032.069.02.095l.043.028a.174.174 0 0 1 .055 0l-.022-.03.04-.02c.013-.007.049-.023.082-.013a.046.046 0 0 1-.007-.023l-.004-.034.03-.006c-.01-.037-.003-.072.018-.094a.083.083 0 0 1 .062-.024v-.01l.067-.036c.013-.01.044-.033.07-.01.02.016.016.038.008.06.017.01.036.02.052.034.008.012.018.02.024.027l.077-.043-.025.06a.142.142 0 0 1 .027-.002h.01l.057.038.013-.027.03.012s.054.022.066.025c.024.01.03.009.03.009l.018-.052.043.052.047-.027.049.046a.293.293 0 0 0 .072.015h.077l-.03.037a.21.21 0 0 0 .034.019c.012-.005.027-.008.041.004.014.01.016.026.016.037l.13.026.005.1-.006.01-.01.017a.33.33 0 0 0-.023.034l.025.038-.011.02c-.031.058-.017.107 0 .173l.01.037c.018.013.02.033.02.045 0 .003.002.007.005.012.01.022.03.069.052.075.001 0 .008.003.021-.006l.021-.015.055.046h.075l.025.01c.05.024.07.036.103.093l.007.012v.013c-.004.02-.016.037-.025.052l-.01.016.06.047c.009 0 .017.003.027.012.025-.018.06-.039.094-.027a.075.075 0 0 1 .04.03l.083.008.007.038c.025.006.056.015.07.036l.058.026.006.014c.004.013.053.019.076.022.036.004.09.011.101.051l.045.04.083-.013-.003.032.024.015c.034.022.08.05.103.09l.025.004.023.038h.022l.009.012.017.009c.015.007.034.014.04.035l.056.047.02-.007h.01a.07.07 0 0 1 .037.026c.038.02.073.044.107.068l.04.028-.026.022a.042.042 0 0 1 .006.022c.068.099.093.112.1.113l.027-.008.01.026c.004.007.029.032.042.046a.338.338 0 0 1 .03.032l.1.044.005.009.032-.003.011.012c.01.009.015.023.019.038.007 0 .014.003.022.004a.044.044 0 0 1 .055-.016c.004.002.024.01.026.034l.052-.009v.043s.002.009.005.01c.013.01.04.01.068.006v-.017l.032-.005c.01 0 .037-.023.06-.054l.01-.012h.013a.24.24 0 0 1 .138.025l.007-.003a.425.425 0 0 0-.057-.059l-.017-.012.004-.062.035-.019.003-.06.018-.018v-.064l.08-.027.026.003.087-.037h.034c.025-.014.062-.004.062-.004l.014.01c.01.01.069.016.169 0h.007l.03.008c.043.013.088.026.132.035a.24.24 0 0 1 .128-.015l.018-.014h.013c.02 0 .048 0 .062-.01l.01-.01.107.008a.158.158 0 0 1 .065.048c.007 0 .015.003.024.008l.01.005.066.06c.007.004.012.01.017.013v.003l.014-.01.02.011.044.03v.008a.22.22 0 0 1 .114.037c.005 0 .009-.003.013-.003l-.008-.02.139-.021.007.003a.107.107 0 0 1 .042.028l.009-.035.128.055-.003.014a.292.292 0 0 1 .103.019c.04.01.084.023.107.013l.01-.004.011.003a.06.06 0 0 1 .037.026.18.18 0 0 0 .057-.028l.014-.006c.03-.006.064.02.085.041a.112.112 0 0 1 .03-.019c.016-.006.037 0 .057.008l.009-.012c.018-.025.079-.102.133-.075l.075.019c.025-.013.072-.024.176-.015h.009c.014.008.022.02.029.03.003.004.007.011.01.013l.034-.013.012.047a.238.238 0 0 0 .083-.01l.024-.008.014.022c.014.02.043.047.054.049l.021-.034.028.023a.137.137 0 0 1 .047.031h.02c.033-.001.09-.004.11.039h.006l.013-.034.02-.003c.018-.003.091.009.114.03l.012.004c.016-.017.027-.036.04-.056a.488.488 0 0 1 .04-.06l.01-.012h.016c.062 0 .123.017.168.045.043-.006.085 0 .128-.007h.01l.02.007a.258.258 0 0 1 .09-.101.076.076 0 0 1 .042-.039.117.117 0 0 1 .088.008c.07-.044.126.013.16.054l.046-.047.024.022a.479.479 0 0 0 .125-.043l.037-.014.026-.009.02.032.064.024.078.006.009.016.165.037-.003.037.008.007c.044.003.104.007.117.056l.006.019-.013.015s-.007.023 0 .036c.008.018.023.017.027.017h.018l.013.011a.065.065 0 0 1 .012.052c0 .007-.004.015-.007.022l.026.043-.023.033c.007.03.01.067.012.076l-.003.022c.012.013.02.029.022.044v.009l-.017.063.01.014.047.027c.007.009.01.02.012.026l.027.006.035.039v.035s.003.01.003.016l.05.012-.036.037.02.032a.144.144 0 0 1 .076.024c.025.016.038.036.036.058a.05.05 0 0 1-.02.037l-.075.15.01.01Z"/>
  <defs>
    <linearGradient id="a" x1="21.34" x2="84.54" y1="14.37" y2="87.07" gradientUnits="userSpaceOnUse">
      <stop stop-color="#fff"/>
      <stop offset="1" stop-color="#F2F2F2"/>
    </linearGradient>
    <linearGradient id="b" x1="93.77" x2="38.45" y1="95.315" y2="36.355" gradientUnits="userSpaceOnUse">
      <stop stop-color="#fff"/>
      <stop offset="1" stop-color="#F2F2F2"/>
    </linearGradient>
  </defs>
</svg>
