<svg xmlns="http://www.w3.org/2000/svg" width="130" height="131" fill="none" viewBox="0 0 130 131">
  <path fill="#70737C" d="M65 130.92c35.899 0 65-29.101 65-65 0-35.898-29.101-65-65-65-35.898 0-65 29.101-65 65s29.102 65 65 65Z"/>
  <path fill="url(#a)" d="M65.72 112.37c25.924 0 46.94-21.016 46.94-46.94S91.644 18.49 65.72 18.49c-25.925 0-46.94 21.016-46.94 46.94s21.015 46.94 46.94 46.94Z"/>
  <path fill="url(#b)" d="M108.443 72.499c3.892-23.59-12.075-45.868-35.665-49.76-23.589-3.893-45.868 12.074-49.76 35.663-3.893 23.59 12.075 45.868 35.664 49.761 23.59 3.892 45.868-12.075 49.761-35.664Z"/>
  <path fill="#357C77" d="m72.12 69.74-.97-.97c.1-.21.19-.43.27-.65h1.36c.42 0 .77-.34.77-.77v-3.26a.77.77 0 0 0-.77-.77h-1.36c-.08-.22-.17-.44-.27-.65l.97-.97c.3-.3.3-.78 0-1.08l-2.31-2.31a.76.76 0 0 0-1.08 0l-.97.97c-.21-.1-.43-.19-.65-.27v-1.36a.77.77 0 0 0-.77-.77h-3.26a.77.77 0 0 0-.77.77v1.36c-.22.08-.44.17-.65.27l-.97-.97a.76.76 0 0 0-1.08 0l-2.31 2.31c-.3.3-.3.78 0 1.08l.97.97c-.1.21-.19.43-.27.65h-1.36a.77.77 0 0 0-.77.77v3.26c0 .42.34.77.77.77H58c.08.22.17.44.27.65l-.97.97c-.3.3-.3.78 0 1.08l2.31 2.31c.3.3.78.3 1.08 0l.97-.97c.21.1.43.19.65.27v1.36c0 .42.34.77.77.77h3.26c.42 0 .77-.34.77-.77v-1.36c.22-.08.44-.17.65-.27l.97.97c.3.3.78.3 1.08 0l2.31-2.31c.3-.3.3-.78 0-1.08Zm-2.44-.28.82.82-1.23 1.23-.82-.82a.758.758 0 0 0-.93-.12c-.43.25-.89.44-1.37.57a.76.76 0 0 0-.57.74v1.16h-1.73v-1.16a.76.76 0 0 0-.57-.74 5.67 5.67 0 0 1-1.37-.57.772.772 0 0 0-.93.12l-.82.82-1.23-1.23.82-.82c.25-.25.29-.63.12-.93a5.67 5.67 0 0 1-.57-1.37.76.76 0 0 0-.74-.57H57.4v-1.73h1.16c.35 0 .65-.23.74-.57.13-.48.32-.94.57-1.37.17-.3.13-.68-.12-.93l-.82-.82 1.23-1.23.82.82c.25.25.63.3.93.12.43-.25.89-.44 1.37-.57a.76.76 0 0 0 .57-.74v-1.16h1.73v1.16c0 .35.23.65.57.74.48.13.94.32 1.37.57.3.17.68.13.93-.12l.82-.82 1.23 1.23-.82.82c-.25.25-.29.63-.12.93.25.43.44.89.57 1.37.09.34.39.57.74.57h1.16v1.73h-1.16a.76.76 0 0 0-.74.57c-.13.48-.32.94-.57 1.37-.17.3-.13.68.12.93Zm-4.97-7.83c-2.26 0-4.1 1.84-4.1 4.1s1.84 4.1 4.1 4.1 4.1-1.84 4.1-4.1-1.84-4.1-4.1-4.1Zm0 6.66a2.57 2.57 0 1 1 2.57-2.57 2.57 2.57 0 0 1-2.57 2.57Zm-3.49-21 2.84-4.91a.76.76 0 0 1 .66-.38c.27 0 .53.15.66.38l2.84 4.91a.77.77 0 0 1-1.33.77l-1.41-2.44v8.99a.77.77 0 0 1-1.54 0v-8.99l-1.41 2.44c-.21.37-.68.49-1.05.28a.767.767 0 0 1-.28-1.05h.02ZM47.33 68.94a.75.75 0 0 1-.66.38c-.13 0-.26-.03-.38-.1l-4.91-2.84a.76.76 0 0 1-.38-.66c0-.27.15-.53.38-.66l4.91-2.84a.77.77 0 0 1 .77 1.33l-2.44 1.41h8.99a.77.77 0 0 1 0 1.54h-8.99l2.44 1.41c.37.21.49.68.28 1.05l-.01-.02Zm20.88 15.21-2.84 4.91a.76.76 0 0 1-.66.38c-.27 0-.53-.15-.66-.38l-2.84-4.91a.77.77 0 0 1 1.33-.77l1.41 2.44v-8.99a.77.77 0 0 1 1.54 0v8.99l1.41-2.44c.21-.37.68-.49 1.05-.28.37.21.49.68.28 1.05h-.02Zm20.23-18.43c0 .27-.15.53-.38.66l-4.91 2.84a.772.772 0 0 1-1.04-.28.77.77 0 0 1 .28-1.05l2.44-1.41h-8.99a.77.77 0 0 1 0-1.54h8.99l-2.44-1.41a.767.767 0 0 1-.28-1.05c.21-.37.68-.49 1.05-.28l4.91 2.84c.24.14.38.39.38.66l-.01.02ZM51.06 53c-.07-.26 0-.55.2-.74.19-.19.48-.27.74-.2l5.48 1.47c.41.11.65.53.54.94-.11.41-.53.65-.94.54l-2.72-.73 3.04 3.04c.3.3.3.78 0 1.08-.3.3-.78.3-1.08 0l-3.04-3.04.73 2.72c.11.41-.13.83-.54.94-.07.02-.13.03-.2.03-.34 0-.65-.23-.74-.57L51.06 53Zm6.96 23.97c.11.41-.13.83-.54.94L52 79.38c-.07.02-.13.03-.2.03-.2 0-.4-.08-.54-.22a.778.778 0 0 1-.2-.74l1.47-5.48c.11-.41.53-.65.94-.54.41.11.65.53.54.94l-.73 2.72 3.04-3.04c.3-.3.78-.3 1.08 0 .3.3.3.78 0 1.08l-3.04 3.04 2.72-.73c.41-.11.83.13.94.54v-.01Zm20.35 1.47c.07.26 0 .55-.2.74-.15.15-.34.22-.54.22-.07 0-.13 0-.2-.03l-5.48-1.47a.765.765 0 0 1-.54-.94c.11-.41.53-.65.94-.54l2.72.73-3.04-3.04a.76.76 0 0 1 0-1.08c.3-.3.78-.3 1.08 0l3.04 3.04-.73-2.72c-.11-.41.13-.83.54-.94.41-.11.83.13.94.54l1.47 5.48v.01Zm-6.96-23.97c-.11-.41.13-.83.54-.94l5.48-1.47c.26-.07.55 0 .74.2.19.19.27.48.2.74l-1.47 5.48c-.09.34-.4.57-.74.57-.07 0-.13 0-.2-.03a.765.765 0 0 1-.54-.94l.73-2.72-3.04 3.04c-.3.3-.78.3-1.08 0a.76.76 0 0 1 0-1.08l3.04-3.04-2.72.73a.765.765 0 0 1-.94-.54Z"/>
  <defs>
    <linearGradient id="a" x1="21.34" x2="84.54" y1="14.37" y2="87.07" gradientUnits="userSpaceOnUse">
      <stop stop-color="#fff"/>
      <stop offset="1" stop-color="#F2F2F2"/>
    </linearGradient>
    <linearGradient id="b" x1="93.77" x2="38.45" y1="95.315" y2="36.355" gradientUnits="userSpaceOnUse">
      <stop stop-color="#fff"/>
      <stop offset="1" stop-color="#F2F2F2"/>
    </linearGradient>
  </defs>
</svg>
