<svg xmlns="http://www.w3.org/2000/svg" width="140" height="140" fill="none" viewBox="0 0 140 140">
  <circle cx="70" cy="70" r="65" fill="#F7F7F7" stroke="#377D78" stroke-width="10"/>
  <circle cx="70" cy="70" r="58.5" fill="#F7F7F7" stroke="#fff" stroke-width="3"/>
  <path fill="#000" d="M67.62 62.552c1.37 0 2.49-1.12 2.49-2.49s-1.12-2.49-2.49-2.49h-9.67c-1.37 0-2.49 1.12-2.49 2.49s1.12 2.49 2.49 2.49h9.67Zm-10.38-2.48c0-.39.32-.72.72-.72h9.67c.39 0 .72.32.72.72 0 .4-.32.72-.72.72h-9.67c-.39 0-.72-.32-.72-.72Zm-8.96 6.91c0 .49.4.89.89.89h27.24c.49 0 .89-.4.89-.89s-.4-.89-.89-.89H49.17c-.49 0-.89.4-.89.89Zm28.13 2.85H49.17c-.49 0-.89.4-.89.89s.4.89.89.89h27.24c.49 0 .89-.4.89-.89s-.4-.89-.89-.89Zm0 3.72H49.17c-.49 0-.89.4-.89.89s.4.89.89.89h27.24c.49 0 .89-.4.89-.89s-.4-.89-.89-.89Zm.88 4.62c0-.49-.4-.89-.89-.89H49.16c-.49 0-.89.4-.89.89s.4.89.89.89H76.4c.49 0 .89-.4.89-.89Zm-7.47 3.72c0-.49-.4-.89-.89-.89H56.65c-.49 0-.89.4-.89.89s.4.89.89.89h12.28c.49 0 .89-.4.89-.89Zm-13.93 5.02h-4.23c-.49 0-.89.4-.89.89s.4.89.89.89h4.23c.49 0 .89-.4.89-.89s-.4-.89-.89-.89Zm13.48 1.77h4.23c.49 0 .89-.4.89-.89s-.4-.89-.89-.89h-4.23c-.49 0-.89.4-.89.89s.4.89.89.89Z"/>
  <path fill="#000" d="M99.85 52.882c-.41-.71-.41-1.59 0-2.29.64-1.1.73-2.41.25-3.59a3.986 3.986 0 0 0-2.71-2.36c-.79-.21-1.41-.83-1.62-1.62a4.007 4.007 0 0 0-2.36-2.71c-1.18-.49-2.49-.4-3.59.25-.71.41-1.59.41-2.29 0-1.1-.64-2.41-.73-3.59-.25a4.007 4.007 0 0 0-2.36 2.71c-.21.79-.83 1.41-1.62 1.62-.32.08-.63.21-.92.36H42.83c-1.56 0-2.83 1.27-2.83 2.83v48.94c0 1.56 1.27 2.83 2.83 2.83h39.95c1.56 0 2.83-1.27 2.83-2.83v-16.96c0-.49-.4-.89-.89-.89s-.89.4-.89.89v16.96c0 .58-.48 1.06-1.06 1.06H42.82c-.58 0-1.06-.48-1.06-1.06v-48.94c0-.58.48-1.06 1.06-1.06h34.52c-.37.74-.49 1.59-.37 2.38H53.58c-.49 0-.89.4-.89.89s.4.89.89.89h24.06c.24.64.19 1.36-.16 1.96-.64 1.1-.73 2.41-.25 3.59a4.006 4.006 0 0 0 2.45 2.28v30.58a5.302 5.302 0 0 0-4.34 4.34H50.25a5.302 5.302 0 0 0-4.34-4.34v-34.07c2.5-.42 4.42-2.61 4.42-5.23 0-.49-.4-.89-.89-.89s-.89.4-.89.89a3.53 3.53 0 0 1-3.53 3.53c-.49 0-.89.4-.89.89v35.7c0 .49.4.89.89.89a3.53 3.53 0 0 1 3.53 3.53c0 .49.4.89.89.89h26.71c.49 0 .89-.4.89-.89 0-1.93 1.55-3.5 3.47-3.53.09 0 .18 0 .27-.02.4-.1.67-.45.67-.86v-13.61h14.44c.57 0 1.11-.28 1.44-.74.33-.46.42-1.06.23-1.6l-3.85-11.17a3.98 3.98 0 0 0 2.06-2.57c.21-.79.83-1.41 1.62-1.62a4.007 4.007 0 0 0 2.71-2.36c.49-1.18.4-2.49-.25-3.59v-.03Zm-18.41 7.24c.33 1.23 1.01 2.34 2.18 2.9l-2.18 6.32v-9.22Zm0 14.65 3.9-11.3h.33v11.3h-4.23Zm6 0v-11.81c.75-.47 1.7-.47 2.44 0v11.81h-2.44Zm4.21 0v-11.3h.33l3.9 11.3h-4.23Zm6.67-21c.36.62.41 1.35.14 2.02-.27.66-.83 1.15-1.52 1.33a4.062 4.062 0 0 0-2.89 2.89c-.33 1.42-2.11 2.16-3.35 1.39a4.027 4.027 0 0 0-4.08 0c-1.24.77-3.02.04-3.35-1.39a4.062 4.062 0 0 0-2.89-2.89c-.69-.18-1.25-.67-1.52-1.33s-.22-1.4.14-2.02c.74-1.26.74-2.82 0-4.08-.77-1.24-.04-3.02 1.39-3.35a4.062 4.062 0 0 0 2.89-2.89c.18-.69.67-1.25 1.33-1.52.28-.12.58-.17.87-.17.4 0 .79.11 1.14.31 1.26.74 2.82.74 4.08 0 .62-.36 1.35-.41 2.02-.14.66.27 1.15.83 1.33 1.52a4.062 4.062 0 0 0 2.89 2.89c.69.18 1.25.67 1.52 1.33s.22 1.4-.14 2.02a4.027 4.027 0 0 0 0 4.08Z"/>
  <path fill="#000" d="M88.66 43.782c-4.38 0-7.95 3.57-7.95 7.95 0 4.38 3.57 7.95 7.95 7.95 4.38 0 7.95-3.57 7.95-7.95 0-4.38-3.57-7.95-7.95-7.95Zm0 14.13c-3.41 0-6.18-2.77-6.18-6.18 0-3.41 2.77-6.18 6.18-6.18 3.41 0 6.18 2.77 6.18 6.18 0 3.41-2.77 6.18-6.18 6.18Zm7.44 23.99h-.51v-.51c0-.49-.4-.89-.89-.89s-.89.4-.89.89v.51h-.51c-.49 0-.89.4-.89.89s.4.89.89.89h.51v.51c0 .49.4.89.89.89s.89-.4.89-.89v-.51h.51c.49 0 .89-.4.89-.89s-.4-.89-.89-.89Z"/>
  <path fill="#000" d="m89.15 50.292-2.22 2.22c-.35.35-.35.91 0 1.25a.894.894 0 0 0 1.26 0l2.22-2.22c.35-.35.35-.91 0-1.25a.875.875 0 0 0-1.25 0h-.01Z"/>
</svg>
