<svg xmlns="http://www.w3.org/2000/svg" width="140" height="140" fill="none" viewBox="0 0 140 140">
  <circle cx="70" cy="70" r="65" fill="#F7F7F7" stroke="#B8A9A4" stroke-width="10"/>
  <circle cx="70" cy="70" r="58.5" fill="#F7F7F7" stroke="#fff" stroke-width="3"/>
  <path fill="#000" d="m51.43 68.74.36 1.31 11.98-3.2.71 2.73 3.8-1.07c-.24.59-.36 1.19-.36 1.78 0 2.49 1.66 4.51 3.92 5.22L63.89 95.8c-.24.59.12 1.31.71 1.54.59.23 1.31-.12 1.54-.71l7.36-18.75 7.36 18.75c.24.47.59.71 1.07.71.12 0 .24 0 .47-.12.59-.24.95-.95.71-1.54l-7.95-20.29c2.25-.71 3.92-2.73 3.92-5.22 0-1.66-.71-3.09-1.9-4.15l11.63-3.09.12.36c.36 1.31 1.54 2.14 2.73 2.14.24 0 .47 0 .71-.12l3.32-.95c1.54-.36 2.49-2.02 2.02-3.56l-4.15-15.66c-.24-.71-.71-1.42-1.31-1.78a2.69 2.69 0 0 0-2.14-.24l-3.32.95c-.83.12-1.42.59-1.9 1.31-.36.71-.47 1.42-.24 2.14l.12.36-24.21 6.41.71 2.73-12.1 3.2.36 1.31L43 63.31l1.9 7.24 6.53-1.78v-.03Zm22.19-1.42c1.78 0 3.09 1.42 3.09 3.09s-1.42 3.09-3.09 3.09-3.09-1.42-3.09-3.09c0-1.31.71-2.37 1.78-2.85l1.07-.24h.24Zm13.29-20.41c-.12-.24.12-.59.36-.59l3.44-.95h.12c.12 0 .24 0 .24.12.12 0 .24.12.24.36l4.27 16.02c.12.24-.12.59-.36.59l-3.32.95c-.24.12-.59-.12-.59-.36l-.12-.36-4.03-15.43-.24-.36-.01.01Zm-1.54 3.2 2.85 10.8-15.43 4.15-1.42.36-5.1 1.31-2.85-10.68 21.95-5.93v-.01ZM53.57 67.2l-.71-2.61-.71-2.73 9.73-2.61 1.42 5.34-9.73 2.61Zm-3.32-3.32.24 1.31.36 1.31-4.15 1.07-.71-2.61 4.27-1.07-.01-.01Z"/>
</svg>
