<svg xmlns="http://www.w3.org/2000/svg" width="140" height="140" fill="none" viewBox="0 0 140 140">
  <circle cx="70" cy="70" r="65" fill="#F7F7F7" stroke="#377D78" stroke-width="10"/>
  <circle cx="70" cy="70" r="58.5" fill="#F7F7F7" stroke="#fff" stroke-width="3"/>
  <path fill="#000" d="M62.792 93.62a1.478 1.478 0 0 1-1.383-.945 1.508 1.508 0 0 1 .83-1.964l14.915-6.085c-.024-3.213 1.323-6.4 5.028-12.122a14.477 14.477 0 0 0 2.321-7.856c0-7.94-6.399-14.388-14.277-14.388-7.879 0-14.278 6.46-14.278 14.389 0 2.8.806 5.515 2.322 7.855 4.137 6.412 5.34 9.637 4.955 13.273a1.493 1.493 0 0 1-1.647 1.334 1.499 1.499 0 0 1-1.324-1.661c.301-2.825-.793-5.576-4.486-11.31a17.42 17.42 0 0 1-2.815-9.504c0-9.6 7.746-17.407 17.273-17.407 9.526 0 17.272 7.807 17.272 17.407 0 3.37-.974 6.668-2.802 9.504-3.705 5.722-4.8 8.473-4.499 11.31a1.526 1.526 0 0 1-.926 1.564L63.37 93.51c-.18.073-.373.11-.566.11h-.012ZM61.23 65.436c0-4.703 3.308-8.8 7.878-9.734a1.515 1.515 0 0 0 1.167-1.782c-.168-.812-.962-1.345-1.768-1.175-5.954 1.224-10.272 6.57-10.272 12.691 0 .837.673 1.504 1.491 1.504.818 0 1.492-.68 1.492-1.504h.012Zm4.727 32.403 11.571-4.752c.77-.315 1.13-1.2.818-1.964a1.483 1.483 0 0 0-1.949-.824l-11.57 4.751a1.508 1.508 0 0 0-.819 1.964c.24.582.794.946 1.383.946.193 0 .373-.037.566-.11v-.011Zm2.526 4.157 8.395-3.442c.77-.315 1.131-1.2.818-1.964a1.483 1.483 0 0 0-1.948-.824l-8.396 3.442c-.77.316-1.13 1.2-.818 1.964.24.582.794.946 1.383.946.193 0 .373-.037.566-.109v-.013Zm2.586-58.149v-5.721c0-.594-.481-1.067-1.059-1.067-.577 0-1.058.485-1.058 1.067v5.721c0 .594.469 1.067 1.058 1.067.59 0 1.059-.485 1.059-1.067Zm7.975 1.794 1.936-5.382a1.063 1.063 0 0 0-.637-1.37 1.055 1.055 0 0 0-1.36.643l-1.948 5.382c-.193.557.084 1.176.637 1.37.12.048.24.06.361.06.433 0 .842-.266.999-.703h.011Zm6.892 4.437 3.644-4.388a1.067 1.067 0 0 0-.132-1.503 1.058 1.058 0 0 0-1.492.133l-3.644 4.388a1.078 1.078 0 0 0 .132 1.503c.193.17.433.255.686.255.3 0 .601-.134.806-.376v-.012Zm4.967 6.546 4.92-2.861c.505-.291.685-.946.385-1.467a1.044 1.044 0 0 0-1.444-.388l-4.92 2.861a1.06 1.06 0 0 0-.384 1.455c.192.34.553.533.914.533.18 0 .36-.048.53-.145v.012Zm-28.579-10.34c.554-.206.83-.813.626-1.37l-1.937-5.382a1.06 1.06 0 0 0-1.359-.643c-.553.206-.83.812-.625 1.37l1.936 5.382c.157.437.565.703.998.703.12 0 .241-.024.361-.06Zm-6.76 3.927a1.078 1.078 0 0 0 .133-1.503L52.05 44.32a1.058 1.058 0 0 0-1.491-.133 1.078 1.078 0 0 0-.133 1.503l3.645 4.388a1.063 1.063 0 0 0 1.503.121l-.012.012Zm-5.015 6.025a1.09 1.09 0 0 0-.385-1.467l-4.92-2.86a1.07 1.07 0 0 0-1.455.387c-.289.51-.12 1.164.385 1.467l4.92 2.86a1.042 1.042 0 0 0 1.443-.387h.012Z"/>
</svg>
