<svg xmlns="http://www.w3.org/2000/svg" width="130" height="131" fill="none" viewBox="0 0 130 131">
  <path fill="#70737C" d="M65 131A65 65 0 1 0 65 1a65 65 0 0 0 0 130Z"/>
  <path fill="url(#a)" d="M65.7 112.4a47 47 0 1 0 0-94 47 47 0 0 0 0 94Z"/>
  <path fill="url(#b)" d="M108.4 72.5A43.3 43.3 0 1 0 23 58.4a43.3 43.3 0 0 0 85.4 14.1Z"/>
  <path fill="#BEBFC2" d="M48.7 75.7Zm-1.6 0ZM36.5 73c0-.2 0 0 0 0Zm1.3-16.6h.1s-.2 0 0 0Zm.1-.1s.1 0 0-.1Zm.1.1c.1-.1-.1 0 0 0Zm0 0s.1 0 0 0Zm0 .1c0 .1.1 0 0 0Zm.3-.2Zm.1 0v-.1s-.1 0 0 0Zm.1-.1-.1-.1h.1Zm12.3-7.3c0 .1 0 0 .1 0-.2.1 0 .2.1 0h-.1c0-.2 0-.2-.1 0Zm0-.1h-.3c.1.1.2 0 .2 0Zm.7-.4c0 .1 0-.1 0 0-.2-.1 0 0 0 0Zm.3-.5c.1 0 .2 0 .1-.1v-.2c-.1.2 0 .1 0 .2-.1-.1-.2.1-.1 0Zm8.4-4.1c.2.1 1 0 .3-.1l-.1-.3c0-.4-.3-.3-.4 0 .1 0 0 .4-.2.3 0 0 0 .1 0 0-.2.3.3.1.4.1Zm3.6-.9v.2c.2.2.2-.2.1-.2v-.3.1h-.2c.1.2.1.2 0 .2Zm.2.7h-.2c.1.3.3 0 .2 0Zm-12.6 5.2s-.1-.1-.1 0Zm2.8-2h-.1.1Zm2.5 1.7v.1c.2.1 0 0 0 0Zm2.3-.2c.1 0 0-.2 0-.2-.1 0 0 .2 0 .2Zm4.6-4c-.1 0-.1 0 0 0 0 0 0-.1 0 0Zm1.8-.9h-.2.2Zm-.2.2h.2c0-.2-.4 0-.2 0Zm2.5.7s.1 0 0-.1c-.1 0 0 0 0 0Zm0-.1s.1 0 0 0Zm-10.6 4.2c.2.2 0 0 0-.2v.2Zm-6.7.4Zm.1.2Zm1.2-.1h-.1Zm-.5-.6Zm.4-.6Zm0-.2Zm.9.2s-.1-.2 0 0Zm.7-.2Zm0 0s.1 0 0 0h.1c0-.1-.1-.1 0 0Zm3.8.5Zm6.2-4.4c0-.1 0-.1 0 0Zm.3-.1Zm16.2-1.4Zm0 .3Zm1.6 1.5Zm0 0Zm.3.1ZM92 58.7v-.2.2Zm1 .2c.1 0 0-.2 0-.2s-.1.2 0 .2Zm4.7 7.1v-.4c-.2 0 0 .2 0 .4Zm0 .6.2-.5h-.2v.5ZM86.4 82.3h.3-.3Zm-1.9-.6v.1c.1 0 .5 0 .2-.1h-.2Zm7.2-22.8v.1-.1Zm2 1.2s0-.1 0 0Zm.7 1v-.2.1Zm0-.2Zm2.6 2.3V63Zm-5-4.6h.2-.1Zm1 .2c0-.1-.1 0-.2 0h.1Zm.6 1.1ZM88 88.5c-.1.1 0 0 0 0s-.2 0-.1.1h.1v.1c.1 0 0-.2 0-.2Zm-.2.3c0 .3-.2-.1-.1.2-.2 0-.2-.1 0 0 0 .2 0 0 0 0 .2.4.4-.5 0-.2Zm1.6-1.4c.4.2-.2 0 0 0Zm-.1.5c-.2-.3-.4.3-.1 0 0 0-.1 0 0 0 0 0 .2 0 0 0ZM69.4 43.7h.1-.1Zm.5 0 .2-.2h-.2s-.3.2 0 .1Zm.8-1-.1.3c-.2 0-.2.2-.3.3 0 .2.4-.4.4-.6Zm-.8 1.4s-.1.1-.1 0l-.1.1.2-.1Zm-.2 2.2Zm5 4.6c-.1-.2 0 .2.2-.2.2.1.2 0 .2 0 0-.1 0 0 0 0v-.1c.1 0 .1-.1.2 0 0 0 .3 0 .2-.1-.2-.2-.4 0-.7 0-.1 0-.4.5-.2.4Zm.5.4c-.1-.1-.2.1-.2.1 0 .1 0 0 0 0 .2 0 .3 0 .2-.1Zm4.4-9c.1 0 0-.2 0-.2-.3 0-.2.4 0 .2ZM86 53s-.1-.1-.2 0c.2 0 .3.5.4.2V53H86c-.1 0 0 0 0 0Zm1 1.2c0 .1.1 0 0 0Zm3.4 1.5v-.1c.2 0 0-.1 0 0Zm0 0c.1.1 0 .1 0 .2h.2c.1 0 0-.1 0-.1 0-.1-.1-.2-.1 0Zm.2.5c.1 0 0 0 0-.1Zm0 0ZM68 44c-.1 0 0 0 0 0Zm2.2 0v-.1Zm.3-.2h-.2.2Zm.3.5c0-.1 0 0 0 0Zm3.8 6.7h-.1Zm5-9h-.1c0 .1 0 0 0 0Zm0 0c.1 0 .1 0 0 0Zm10 13.6c.1 0 0 0 0 0 0-.2 0 0 0 0ZM69.5 43.7c0 .1 0 0 0 0Zm.7.2s0 .1 0 0c.1 0 0 0 0 0Zm-.4.5s-.1 0 0 0Zm10-2.1Zm15 32.2Zm-11.2 7.2ZM66.5 44ZM98 67.5l-.1-.3c-.2 0-.1-.4-.2-.3 0 0 0-.1 0 0v-.2l-.2-.2c0-.3-.2-.2-.2-.4-.5-.2.2-.3-.2-.3-.1-.1.3-.1.3-.2l-.2-1c-.2 0 0-.5.2-.6H97v.2c0-.2 0-.3-.2-.4v-.2s.2-.3 0-.1V63h-.2l-.4-.2c.3 0 0 0 0-.4-.1-.2-.7-.3-.8-.5l-.3-.5H95s0-.3-.1-.1c-.1 0 0-.1 0-.1s-.2-.1-.2 0l.1.1s-.2-.2-.2 0c-.1 0 0-.2-.2-.1 0-.2-.3-.3-.5-.3v-.2c0 .1.2.2.3 0 0 0-.2 0-.1-.3-.2.2 0 0-.2 0h-.1c-.1 0-.1 0 0 0v.2s-.2-.1-.2 0l-.2-.2c.2 0 0 0 0-.1v-.2c-.2-.2 0-.2 0-.4-.2 0-.2 0 0 0v-.6h-.1c0 .2 0 .1 0 0h-.2c0-.1.1 0 .2 0l-.2-.3v.1c-.1 0 .1-.1-.1-.1s.2.6 0 .3c-.5-.3-.5-.1-.9-.6-.3.2 0 .4 0 .7-.3-.2-.2-.5-.6-.2.1-.2 0-.2-.1-.3.1 0-.4-.8-.2-.8-.2-.2.1-.1 0-.3-.2.2 0-.1-.3 0 0-.1.2-.1 0-.1.1 0 0-.2 0-.2 0-.1 0 0-.1 0 0-.2.1-.3-.1-.4h-.2v-.1l-.3-.1c-.1.1 0 0 0-.1 0 0-.3 0-.2-.2-.3-.2 0-.1 0-.3.1-.1.1.2.3.1 0 0-.1 0 0 0 0-.1-.2-.1-.1-.3 0 0-.2 0 0 0 0-.2-.3 0-.3-.1 0 0 0-.1 0 0 0-.1 0-.1 0 0-.2 0-.1-.4-.3-.2-.1 0-.1 0 0 0h-.1c.2 0 0 .2 0 .1l-.3-.1s.1-.1 0-.1v-.1l-.3-.1s0 .1-.2 0c-.1-.2-.4-.5-.3 0l-.3-.3c.2.1-.3-.6-.3-.5.3.2-.3 0-.4.1l-.2-.3c0 .3-.3.1-.4 0h-.3c-.9-.5-.3-.7-.4-1-.3 0-.2.1-.3-.2-.2 0-.3-.3-.1-.5v-.5l-.1-.4-.2-.5s.2-.2 0-.2c0 .1-.1 0-.2 0v.2c0-.3-.4-.5-.5-.8-.3 0 0-.3 0-.3-.2-.2.1-.2-.2-.5l-.1-.5c-.1-.1 0 0 0-.2l.1-.2c0-.1-.2.1-.2-.2l.2-.3c-.1 0-.3 0-.2-.1-.4 0-.4-.3-.7-.3-.1-.2-.4-.1-.3-.4-.2.2 0-.3-.2-.3l-.3.2c-.3-.2-.1.4-.7.3-.3-.1-.2-.5-.3-.7-.4-.3 0-.7-.3-1v-.7h-.2c-.1 0 .1-.2 0-.2.2-.1-.1-.1-.2-.2 0-.5-.4 0-.3-.5l.2-.3c-.3-.2-.3 0-.5-.2l-.1-.5V43c-.1 0 0-.6-.3-.4 0-.3-.1-.1-.2 0-.1-.2.3-.3 0-.4 0-.1 0 0-.1 0-.2.3-.2.2-.5.3 0 .6-.2 1-.3 1.5l.1.1H79c0 .1 0 0 0 0 0-.3-.2.1-.3.2h.1c0 .1-.1 0-.1 0 0 .2-.3.6-.1.5v-.1s.2 0 0 0c.4.3.2.1.5.2-.5 0 0 0 0 .2-.3 0 0 .1 0 .2-.1 0 0-.4-.2-.3l-.2.2c-.3.2-.2.4 0 .6-1 1.4.1.8-.3 1.7l.2 1c-.6.8-.3 2-1.1 2.7 0 .7-1.2 1.2-1.7.9-.4-.2-1.3-.3-1.3-.9-.5-.5-1.3-.2-1.8-.7-.5-.5-1.1-.6-1.7-1-.1 0 0 .2-.2.1 0 0-.3.1-.2 0a.8.8 0 0 0-.7-.4c-.2-.1.1-.2-.3-.4l-1-.5c-.1-.1-.3-.5-.1-.4.2-.1.4-.7.8-.7l.1-.5.1-.3c0-.1 0 .2-.2.1-.1 0 0 0 0-.1v-.3s.1 0 0 0v-.3c.1.1 0 0 .1 0l.1.1v-.1l.2-.2c0 .1-.1.3.1.1.3.1 0-.2.2-.2v.3c0 .2 0 0 .2 0 .3-.3-.1-.3 0-.4h.2s0 .1.1 0h-.2l-.1-.3s0 .1.1 0l.1.1v-.1c.2 0 0-.2.3-.3 0 0-.1 0 0-.1v.1s.5-.3.3-.3c0-.1-.3-.3-.4-.2-.1 0 .1 0 0 0 0 .2-.2 0-.2-.1 0-.2-.4-.2 0-.3-.3 0-.5.2-.7.3l.1.1h.2c0 .4-.3.3-.5.4v-.1c-.2 0 0-.2 0-.2 0-.1 0 0-.2 0l.2-.3-.1.1h-.1l-.3.2c-.2-.2.2-.4.3-.4H69s.4-.2.3-.3c0 .2-.5.2-.6.4h.1c.2 0 0 0 0 0h-.3s.1 0 0 0l-.2.1c-.2 0 0 .1 0 .2 0 0-.3-.2-.1 0l-.4-.1c-.3-.1-.3-.4-.5-.4-.2.4-.7 0-.8.2V44l-.2.1V44s-.2.2-.4 0l.2-.1c-.2 0-.2-.2-.3 0h-.1c-.1.2-.2-.1-.2 0-.1.2 0 0 0 0h-.3c0-.1 0 0-.1 0 0 0 .1-.1 0-.1-.4.2-.3-.3-.5-.4-.1 0-.1-.2-.2-.1 0 .1 0 0-.1 0-.2.4-.3 0-.5 0-.2-.6-.1.2-.3-.3h-.1c0 .4-.1 0-.2 0v.2c.2.1.1 0 0 0 .1.2 0 .2 0 0-.1.2 0 0 0-.1l-.3-.1v.1c-.3-.2 0 0-.3 0 0 0 .1 0 0 0 0 .1 0 0 0 0-.1.2.1 0 .2.1 0 .1 0 0 0 0 .1.1 0 .1 0 .2h.2c0 .4.7-.3 1 .3l-.1.2c.2.1 0 .4.2.5-.7-.1-.3.1-.5.3 0-.2-.1-.3-.2-.2 0-.3-.2.2-.5.1-.3-.2-1 .4-1-.3l-.2.2c0 .1 0 0-.2 0 0 0 0-.1 0 0-.3-.2 0 .3-.1.2H61c0 .2.2.1.2.2-.2 0 0 .2 0 .2.1 0 0 0 0 0L61 45v-.1c0-.1-.3-.2-.4-.1h.1v.2l-.1.1.2.1h-.2V45c-.1 0 0 0 0 0h-.3c0 .6-.2.3-.4.5v.3l.3.2c-.2.1-.6.5-.7.2-.2.3 0 .4-.2.6 0 0 .2 0-.2.2-.1 0 0 0 0 .1h-.2c0 .1-.3.3-.2.5.2 0 .4.3.7.1l-.4.1.2.2c0 .1.1.1.2 0-.2.3.1 0 .2 0s.1 0 0 .1l-.2.1c-.3 0-.4 0-.3.3.1.1.3.2 0 .2 0-.2 0-.1 0 0 0-.4-.2-.2-.2-.4h-.2c0-.1-.1 0-.2 0-.1-.3 0 .2 0 .2v.1c0 .2 0 .1 0 0l-.1.1v-.2c.2-.3-1.6-.6-1.2-.3-.2 0 .2.5-.1.2-.1 0 0-.3-.2 0-.2 0 0 .1 0 .3v.2c0 .2 0-.3-.2-.2 0 0 0 .4-.2.4.2-.1 0-.3 0-.3s.1-.2 0-.2l.2-.4c.1 0 0 0 0-.2h.1l-.2-.1-.2-.1s0-.2-.2-.1c0 0 .1-.1 0-.1 0-.2-.4-.5-.6-.5l-.2-.2c-.2 0-.1-.1-.2 0 0 0 0-.1 0 0 0 0-.2.1-.2 0-.1-.1 0 0 0-.2-.1 0 0 0 0 0-.1 0-.2-.2-.3 0 .1 0 0-.1-.1 0-.2 0-.2 0 0 .2-.1 0 0 0 0 0h-.2c0 .1 0 0 0 0 0 .1 0 .1 0 0 0 .3 0 .2-.1.2v.1c-.1.2-.2 0-.2 0V47c-.3 0 .1-.2 0-.2 0 0-.1.1-.2 0 0 .1-.3.2-.1.3l-.1.1c-.3-.1-.1-.2-.1-.2h-.1c0-.1 0 0-.1 0 0 0 .1 0 0 0 .1-.2 0-.1 0-.1 0-.1 0-.1 0 0h-.2l.2.1c-.2-.2 0 .1-.2 0 0 .2.5 0 .1.4.1.1 0 0-.1.1 0 0 .2.3 0 .2 0 .1 0 0-.1 0v.2l-.2-.2s.1 0 0 0v-.1h-.1s-.1.4-.2.3c.2-.2 0-.5.2-.4v-.1s-.2-.2-.2 0c-.2 0 0 .2 0 .4-.3 0 0-.1-.2-.1v.1c-.1 0 0 0 0 0-.1 0-.1-.1-.2 0v-.1.1H52s.2 0 0 .1c0 .1 0 0 0 0 0 .2-.1 0-.1.1-.1 0 0 0 0 0v.2h.2l-.2.1c0 .1.1 0 .2 0-.2.1.2 0 .2.1 0 0-.2 0 0 .1-.2.1.1 0 0 .1H52c-.1-.1-.2 0-.2-.2-.1 0 0 .2 0 .2-.1 0 0-.3-.2-.1v-.1c-.2-.1 0 .2-.1.1 0 .1 0 0-.2 0 0 0-.2.2 0 .1 0 .2 0 .2 0 0 .2 0 .4 0 .2.1h-.1s-.2.2 0 .2h.3c-.3 0 .2.3 0 .2 0 0-.1-.1-.1 0h-.2s.1 0 0 0c0-.2 0-.2-.2-.2 0-.1 0 0-.1 0 0-.2 0 0-.1-.1-.1 0 0 0 0 0 0 .1.1 0 0 .1v.2c-.1 0 0-.1 0-.1l-.1.1c-.4-.1-.1 0-.4 0v.5l.2.1v.1s0-.4.3-.3v.2c0-.1-.1 0-.2 0v.3c-.3-.3-.3.1-.3.3.3-.1 1.2.2.6 0h-.6s0 .2-.3 0l-.4-.1c-.2-.1 0 0 0 0-.1 0 0 .1 0 .2v-.1l-.1.1c.1-.1-.3-.2-.3-.2h.2-.1c.1 0 0-.2 0-.2-.4 0-.3.1-.4.2h.1l.2.1c0 .1-.1 0-.1 0s.2.1 0 .1h-.2s.4.1.1.1c.2.2-.4-.1-.1 0-.2 0-.1 0 0 .1h.2l-.2.1c-.1 0 .2 0 .3.2.1.2.2.3.4 0 .1.1-.2.2-.2.3 0 0 .1 0 0 0-.2 0 0 .3.1.4l-.3-.3c-.4 0 0 .2-.1.2l-.1.4c.2.6-.5-.7-.7-.8V51c-.1 0 0 0 0 0h-.1l-.1-.2c-.1.1 0-.1 0-.2 0 0 .1 0 0 0 0-.3-.3 0-.3.1-.2 0-.2.2 0 .3-.2 0-.3.1-.4 0v.3c-.1 0-.2-.2-.2 0l-.4.2c.1 0 0 .2 0 .2-.3.4.1.7 0 1h.2c.1.4-.5.5-.7.7l-.3.2c.2 0 0 .2-.2.2 0 1.4-2.3 1.6-3.3 2-.1 0-.6-.4-.7-.2-.1-.2-.4.3-.5.4-.5.2-1.2 0-1.6.5-.4 0-1 .4-1.1 0-.1 0-.9.4-.5-.1-.2 0-.8.6-1 .4 0 .2-.3.3-.4.3l-1.1.8c-.4.2-1 .1-1.2.6 0 .1 0 0-.1 0l-.2.7c-.1 0-.2-.2-.3 0h-.2l.1-.3v-.7c-.3-.1-.8 1.2-.8 1.3.4.2.1.5.2.8v.2c0 .2-.1.2-.3.3-.2.2-.2.7-.3.9-.1.5.4.4.3 1l.7 1c.1 0 .2 0 .2.2.1 0 .2 0 .1.2 0 0 .1 0 0 0-.2 0 .2.1 0 .3 0 .1.1.4-.1.3-.2.4-.5-.4-.4-.6 0 0-.2.8-.4.2.3-.5-.3-.4-.3-.8l-.1.3s.1 0 0 .1l.4.6c.1 0 .3 0 .3.2v.2s0 .2-.1.1l-.2.1v-.2l-.2.2v-.4c-.1-.2 0 0 0 0l-.2-.3-.1-.2v.5l-.1-.5v.3h-.2c.3.5 1.5 1.3 1.6 2.1-.3.7.7 1 .7 1.5.5.7.7.7.6 1.8v.3c.2 0 .1.2.2.4l.2.5c.3.5 1.3 1.6.8 2 0 .1.1.1 0 .2.1 0 0 .1 0 .2.2.2 0 .2 0 .1.2.4 0 .3-.1 0 0 0 .2-.1 0 0-.2.2.1.6 0 1 .1-.2.2-.1 0 0-.3.9-1 .3-1 .4l-.1.2v.2c0 .2 0 .9.4.7.4-.1 1 .3 1.3.7h.2s.6.3.4 0c.2.2.3.2 0 .1.3.3.6.1.8.2h.4c.2-.2.8.2.8 0 .1-.1.6.2.7 0H40h.5s-.1-.1 0-.1l.3-.1c0-.4.6-.2.6-.5 0-.1.3 0 .1-.1h.6c.1 0 0-.2.3 0v-.1h.3c-.5-.2.5-.7.7-.7 1 .2 2-.4 2.9 0 .1 0 .3-.2.4-.1.2.1 0 .4.3.2l.2-.1c.1 0 .4.2.4 0h.8c.1 0 0 .2.2.1.2 0 .3-.2.5 0 0-.2.4-.2.4-.4.6-.3.3-1.1 1.2-1.1.6 0 1.1-.5 1.6-.6.9-.7 2-.1 3-.4.9-.2 1.8-.4 2.6-.8 1-.3 2.4 0 3.4-.2.3-.2 1.7.5 1.8.7h.5c.6-.3 1 .4 1.6.2 0 0-.1 0 0 0 .1-.1 0 0 .2 0 0 0 0-.2.2 0h.1c0 .3 0 0 .2.2 0 0 .2.2 0 .1v.2l.4-.1.3.3-.2.2c.1-.1 0-.1-.1-.1-.2 0 0 0 0 .2-.2.2 0 0 .1.1s0 .1 0 .1c.2.4.4.1.7.3-.2-.1 0-.1.1 0 .1 0 0 0 0 0 .2.1.4.4.3.6.2.1.9.5.6.7.3 0 .1.7.3.6l.1.1-.3-.1h-.1c0-.3-.1 0-.2 0 0 .2.1 0 .2 0 .2.3.5.2.6.6.1 0 .1-.2.3-.2.1 0 .3.4.3.1-.1 0 .2-.2 0-.2 0 0-.2.2-.3 0 0 0 .3.1.1-.1 0-.2.1 0 .1 0 0-.2.2-.4.3-.2V76c.3 0 .3-.3.4-.4.1 0 .3 0 .4-.2l.5-.2c.1-.3.1.1.5-.2.3-.3.3-.7.7-1 .1 0 .3.2.2 0 .1 0 0-.3 0-.4v-.2c0 .2.3.3.2.4 0 .3.2.3.2.5-.6.1-.2.1-.1.6l-.6.4c.2.1 0 .2-.1.2v.2c-.3 0 .1.2-.2.5.3-.2.1 1-.2.6-.3 0-.4-.1-.6.2.2 0 0 .2-.1.3h.5l.3-.1c.2-.3.6.1.7 0l.2-.8c-.1-.3.2-.4.2-.5-.1 0 .2-.4.2 0 .3.1 0 .2.5.5l.2.3c-.2-.2-.1.2 0 .3-.2 0-.2.3-.2.4l-.6.4h.3c.3.1.5 0 .8-.1h.4-.3c0-.1.3 0 .4 0 0 0-.3 0-.2-.2h.3c.2-.2.2 0 .3 0 .1 0 0 0 0 0 .2.2-.1.1-.2.2 0 0 .3 0 .2.2h-.1c0-.2-.3-.3-.3-.1 0 .1 1 .4 1 .9-.3-.4-.8-.8-1.2-1 .5.3 2.1 1.6 1.2 2 0 .1.3.3 0 .3.4.5.8.6 1.1 1 .4.4 1.6.2 1.6.8h.5c-.2-.4.7 0 .8 0 .4-.1.7 0 1 .2 1.5.7 1.4.3 2.7-.4.2 0 .3.1.5-.1 0-.2-.6 0-.6-.1h.2l.3-.1.4-.2.2.1c.4.2-.2.7-.6.5.7.4.3.2.9.1v-.1s0-.2.2-.1c.2-.1.2 0 .3.2h-.2v.2c.4.1 0 .2.5.2.3 0 .3.5.5.2.3 0 .3.2.5.3-.1.1 0 .2.1 0 .2 0 0 0 0 0 0-.1.2-.2.1-.3 0-.1-.3.3-.3 0-.4-.2.2-.2.2-.1.2 0 .5-.2.7-.1 1.8-2 4.3-.7 4.7-1.7 0 0 .2 0 0 .1h.4c0-.3-.1-.5.1-.4L92 80s-.2 0 0-.1v-.2c-.2-.1.3-.5.2-.7 0-.1.2-.1.1-.2v-.6c.3-.1.2 0 .1-.2.2 0 .3-.2.4-.3l.1-.2.1-.3c.7 0 .2 0 .2-.2h.2c0 .2.1 0 .1 0l-.1-.1c-.3-.2.1-.2.1-.5h.1l-.2-.1h.2c-.2-.3.6-.6.4-.7h.1-.2c.2 0 .1-.1.1-.1h.2v-.2l.1-.3c-.1 0 0 0 0 0 0-.1-.2 0-.2 0v-.2c.2.3.5-.2.5-.2s-.2 0 0 0c-.2 0 0-.2 0 0 .3-.5.4-.8 1-.8.1-.2-.1 0-.1-.1h.2c0-.2.3-.3.4-.4.3 0 0 0 .1-.1V73h.1c-.3-.2.2-.5.3-.6l.2-.3.1-.2c0-.2 0-.4.2-.6.2-.4-.2 0-.1-.6l.4-1c.2-.4 0-.8.3-1.1v-.2c.5-.3.2-.5.3-1ZM85.4 82.3l-.1-.1h.1Zm-48.9-7.9Zm-4-10.2-.1-.2c0 .1-.1 0 0 0 0-.1-.4-.5-.2-.6-.5 0 .4 1.2.3.8Zm-.3-1.1.1-.4v.4Zm.1-.4Zm0-.1c.1 0 0 0 0-.1 0 0 .1-.2 0-.1v.2Zm1.2 1.2v.2c.1 0 .1-.2 0-.2Zm49 19.7c-.3-.1 0 .1-.3.2v.6l.4-.1v-.3l-.1-.4Zm6.2.5.1.2c.2 0 .1.2.3.3l.2-.1h.2-.1c.1 0 0-.1 0-.2 0 0-.1.1-.1 0 0 0 .1 0 0-.1l-.4-.3c0-.1 0-.1-.1 0h-.1c-.3.2-.2.1 0 .2Zm1 .7c-.3-.2-.2-.1-.4-.1H89s-.3 0-.2.1h.6v.1c.1-.1.3 0 .1-.1Zm-.4.1c-.1 0-.4 0-.1.1 0 .1 0 0 0 0l.1-.1ZM84 85c-.1 0 0 0 0 0 0 .2.1 0 .2.1 0 0-.1-.2-.2 0Zm0-.4s-.2.2 0 .2c.1 0 .1-.1 0-.2Zm-.2 0c0 .2-.2.2 0 .3v-.2Zm5.7 2.6c.2-.1-.1 0 0-.4-.1-.1 0-.2 0-.4V86c.1-.1 0 0 0 0 0-.1.1 0 0-.2v-.3c0-.2-.3-.2-.5-.3l-.2.2c-.2 0-.3-.2-.4-.1 0 0-.3.4-.4.2h-.3c-.1 0-.7 0-.6.2.2 0 .3 0 0 0 0-.2-.4 0-.4 0 0 .1 0 0 0 0h-1l-.7-.3s-.6 0-.4-.2c-.2-.2.1.1-.2 0h-.6c0-.1-.1-.3-.2 0 0 0 .1.2 0 .2 0 .2-.2 0 0 .2 0 .2.3.4.1.5l.3.3v.1c.2.3.7.4.6.7 0 0-.1.1 0 0 0-.2.2.2.3.2.2 0 .2 0 .1.1 0 .1 0 0 0 0s0 .3-.1.2c0-.3-.3-.3-.4-.5v.5c.2.1.1 0 0 .1.3 0 .3.4.5.5l.3.2c-.1 0 0 0 0 0 .1 0 .2.4.4.3h-.1c0-.2.1 0 .2 0h.2l.2.1h-.5s.1 0 0 0c-.2 0 .1 0 .1.2h.2s.1.1.1 0h.6c0 .3.8.2.5 0 0 0 .2.1 0 0 .3 0 .2 0 0-.1l.3-.1h-.1.2c0-.1-.5-.3-.2-.4 0 0 0 .3.2.1v.1s0 .1.2 0c0 0-.1-.1 0-.2 0-.1 0 0 .1 0v-.2c.1 0-.1-.2 0-.2 0 0 .1.2.3.1v.2H88c.4.1-.1-.5.4-.2h.2v.1l.2.1c-.3.2-.3 0-.4-.1-.1 0 .1 0 0 0-.2.2 0 .2 0 .3-.1 0 .3.3.3 0 0 0 .3.2.2 0v-.4h-.1c-.1 0 0 0 0 0-.2 0 0 0 0-.1.1-.1 0-.3 0-.4.3 0 0-.1.2-.3 0 0-.2.1-.1 0 .2-.2 0-.3.4-.3-.2 0-.2 0-.1-.2 0 .1 0 0 0 0 .2 0 0 .1 0 .1s.4.1.2.2v.1c.2 0 0 0 0-.1Zm-17-9.2-.1.1c-.2 0-.5 0-.3-.2 0 0-.2 0 0 0l-.5-.1c-.3.2-1.1 0-1.2.4 0 0-.2 0 0 0 .2.1.2.4.4.2h.6c.3 0 .4.2.7 0 0-.2 0-.1.2-.2.2 0 .5.2.6 0l-.4-.2Zm-6.8-5c-.4 0-.2.3-.1 0 0 0 .1 0 0 0Zm6 3.2s-.1 0 0 0c0 .1 0 0 0 0ZM97 63c0 .3-.3.5 0 .8l.5-1.1-.1-.2c0-.3 0-.3-.2-.1-.1 0 .2 0 0 .3 0 .2-.4.3-.2.3ZM61.2 44c.3 0 .7-.2.8-.5 0 0 0 .1.1 0 0-.2.2 0 .1-.2 0-.1-.1 0-.1 0 0-.3-.1-.3-.3-.2 0-.3-.2-.1 0 .2-.2-.3-.3-.3-.4 0 0-.2-.2-.2-.3 0h-.2l-.1-.1s-.1.1-.2 0c0 0 .2 0 0-.1-.5-.6-.2.4 0 .5 0 .2.5.3.6.4ZM41 76.8Z"/>
  <path fill="#B8A9A4" d="M98 67.1c-.1 0-.1-.3-.2-.2v-.3l-.1-.2s0-.3-.2-.3c-.1-.2 0 0-.3-.2 0 0 .3-.2 0-.1v-.2h.3c-.1-.2-.2-.7-.1-1-.3 0 0-.5 0-.7-.2 0 0 0-.1-.1v.1h-.1c0-.1 0-.2-.2-.3.1 0 0 0 0 0v-.2s.3-.3 0-.1V63l-.4-.2c.2 0-.1 0-.2-.4 0-.2-.5-.3-.7-.5l-.2-.5h-.2v-.1c-.2 0-.1-.1 0-.1-.4-.1-.2 0-.2 0h-.2s0-.1-.2 0c0-.2-.2-.3-.4-.4 0 0-.2-.4-.4-.3h-.2c.3 0 0-.1 0-.3v-.1c-.2-.2 0-.2 0-.4-.1 0-.1-.1 0 0 .2-.7 0-.3 0-.6 0-.1 0 0 0 0-.1.1-.1 0-.1 0h-.1c0-.2 0 0 .1-.1l-.1-.2h-.2c-.2 0 .3.5 0 .3-.5-.3-.5-.1-.8-.6-.4.2-.1.4 0 .7-.1 0-.4-.5-.4-.3 0 0-.4.2-.2 0 0-.1 0-.2-.2-.2.2 0-.4-.8-.1-.8-.2-.2 0-.2 0-.3-.2.2 0-.1-.4 0 0-.1.2-.2 0-.2.2 0 0-.1 0-.2-.1-.3.1-.3-.3-.4.2 0-.3-.2-.3-.2-.2.2 0 0 0 0-.1-.1-.3-.1-.3-.3-.1 0 0 0 0-.2h.2c0-.1.1.2.2 0 0 0-.1 0 0 0l-.2-.2s-.1 0 0-.1c0-.2-.2 0-.3 0v-.1l-.1-.2h-.2v.1c.1 0-.1.2 0 0h-.3v-.2c0-.1-.2 0-.3-.2-.5.2-.3-.3-.5-.2v.2l-.3-.2c.2 0-.3-.7-.3-.6.3.2-.4.1-.4.2-.2 0-.1-.4-.2-.4 0 .3-.4.1-.5 0h-.3c-.8-.5-.2-.6-.3-1-.3 0-.2.2-.3-.1-.6-.2 0-.6-.1-.9V52c-.2-.2 0-.3-.1-.4-.1-.3-.3-.4-.2-.7-.1.1-.1 0-.2 0 0 .2 0 .1-.1 0 .2 0-.4-.4-.4-.6-.3 0 0-.3 0-.3-.2-.2.1-.2-.2-.5l-.1-.5-.1-.2.2-.2c0-.1-.2 0-.2-.2l.2-.3c-.1 0-.3 0-.2-.1-.5 0-.4-.4-.7-.4-.2 0-.4 0-.3-.3-.2.1 0-.3-.2-.3l-.3.2c-.4-.2-.2.4-.7.2-.3 0-.3-.4-.3-.6-.2-.2-.4-.4-.2-.7 0-.3-.2-.7 0-1h-.4s.2-.2.1-.3c.2 0-.1 0-.2-.2 0-.2-.2-.2-.3-.2 0-.2 0-.5.3-.6H81c-.4.1-.4-.4-.4-.7V43c-.1 0 0-.6-.3-.5 0 .1.1 0 0 0 0-.3-.2-.1-.2 0-.1-.2.3-.3 0-.4H80c-.2.3-.2.3-.5.4 0 .5-.2 1-.3 1.4 0 0 .1.1 0 .2 0 0 0-.1 0 0l-.1-.2c-.1 0-.4.4-.2.4-.2 0-.2.2-.3.5.1 0 .2 0 0 0l.1-.2s.3 0 0 .1c.4.2.2 0 .5.1-.5.2-.1.1 0 .2-.3.1 0 .2 0 .3-.2 0-.1-.4-.3-.3-.2.4-.5.2-.2.8-.8 1.4.2.8-.2 1.7.5 1.3-.3 1.2-.2 2.3-.7 1.5-1.2 3.2-3.1 2-.3 0-.7-.2-.6-.6-.5-.4-1.3-.2-1.8-.7v13.7h4.8v4.2h13v-.1l.4-.3c.4 0 .3-.3.7 0v-.1l1-.1.1.1h.7l.4.3c.1 0 .4.1.3.2 0 .3.2.4.4.1l.4-.2c.2.2 0 0 .3 0h.1s.1 0 0 0l.1-.3c0-.2-.2-.2-.1-.3 0 .1.3-.2.4 0l.2-.2h.1v-.1h.2s.1.1.1 0l.2.1h.6s.1-.2.2-.1h.2l.3-.2Z"/>
  <path fill="#357C77" d="M89.3 79.4c.2 0 2 .8 2.9 1V80H92v-.2c-.2-.2.3-.5.2-.8l.1-.1V78c.3 0 .2 0 .1-.2l.4-.2c-.1-.1 0-.2.1-.3l.1-.2c.7-.1.2 0 .2-.3h.2c0 .2 0 0 0 0l-.1-.1c-.2-.1.2-.2.2-.5h-.1c0-.1.1-.2 0 0l.2-.1c-.2-.3.5-.6.3-.6l.2-.1H94v-.1h.1s.1-.1 0-.2c0 0 0 .1 0 0h.1c0-.1.2-.4 0-.2 0-.2 0-.1-.1-.1 0 0-.1-.1 0-.1.1.2.6-.4.3-.3 0 0 .3-.2.2 0 .3-1 1.4-.8.8-1h.3c0-.2.5-.1.5-.4 0-.4-.2-.3.2-.7.3 0 .2-.4.4-.6v-.3c0-.1.3-.2.2-.3 0 0 .1-.1 0-.2-.4-.2.3-1 .2-1.2.3-.5.2-1 .4-1.5.5-.3.2-.5.3-1l-.1-.2-.3.1h-.2c-.1 0-.1.3-.3.2h-.5c0-.1-.1 0-.2 0v-.1H96c0 .2-.2 0-.3.2-.2 0-.3.2-.4.1v.1c.3.1.1.2.1.4h-.3c0 .2-.1.1-.2.2 0-.2-.3 0-.3 0-.1.1-.3.4-.4.2v-.3l-.3-.1-.2-.1c-.3-.3-.7 0-1-.2 0-.3-1 0-1.1 0-.3-.2-.3 0-.6.1l-.4.3v.1H77.8v7.2h.7v.1c.1.2.3 0 .4 0h.4s.2-.1.2 0h.2l.1.2h.1c.3 0 0 .3.2.3-.2.1.1.1 0 .2l.2.2h.1c0-.1.3-.4.3-.2h.2s.2.2.2 0c0 0 0 .1 0 0l.3.1v.1c.1 0 .2 0 .2.2-.2.5.5.3.3.6l.3.1.4.2h.1l.5.4.6.4c0 .2.2-.1.3 0 0 0-.1-.1 0-.2l.3-.2c.3.1.7 0 .9.2h.5l.6.1h.5c.1 0 .1.1.2 0l.2.1h.2c0-.2.2 0 .4 0 .1-.3.3-.1.4-.2h.3l.3.1.1.1s.1 0 0 .2c.1 0 .1 0 0 0 .1.2 0 .3.2.3v.1c0 .2.3 0 0 .4Z"/>
  <defs>
    <linearGradient id="a" x1="21.3" x2="84.5" y1="14.4" y2="87.1" gradientUnits="userSpaceOnUse">
      <stop stop-color="#fff"/>
      <stop offset="1" stop-color="#F2F2F2"/>
    </linearGradient>
    <linearGradient id="b" x1="93.8" x2="38.5" y1="95.3" y2="36.4" gradientUnits="userSpaceOnUse">
      <stop stop-color="#fff"/>
      <stop offset="1" stop-color="#F2F2F2"/>
    </linearGradient>
  </defs>
</svg>
