<svg xmlns="http://www.w3.org/2000/svg" width="140" height="140" fill="none" viewBox="0 0 140 140">
  <circle cx="70" cy="70" r="65" fill="#F7F7F7" stroke="#B8A9A4" stroke-width="10"/>
  <circle cx="70" cy="70" r="58.5" fill="#F7F7F7" stroke="#fff" stroke-width="3"/>
  <path fill="#000" d="m80.498 75.52-1.431-1.431c.147-.31.28-.635.398-.96h2.006c.62 0 1.136-.501 1.136-1.136v-4.81c0-.62-.501-1.136-1.136-1.136h-2.006c-.118-.325-.25-.65-.398-.96l1.43-1.43a1.122 1.122 0 0 0 0-1.594l-3.407-3.409a1.122 1.122 0 0 0-1.593 0l-1.431 1.432c-.31-.148-.635-.28-.96-.399v-2.006c0-.62-.5-1.137-1.135-1.137h-4.81c-.62 0-1.136.502-1.136 1.137v2.006c-.324.118-.649.251-.958.399l-1.431-1.432a1.122 1.122 0 0 0-1.594 0l-3.407 3.409a1.122 1.122 0 0 0 0 1.594l1.43 1.43c-.147.31-.28.635-.398.96h-2.006c-.62 0-1.136.502-1.136 1.136v4.81c0 .62.502 1.137 1.136 1.137h2.006c.118.324.251.649.399.959l-1.431 1.43a1.122 1.122 0 0 0 0 1.595l3.407 3.408a1.122 1.122 0 0 0 1.594 0l1.43-1.431c.31.147.635.28.96.398v2.007c0 .62.501 1.136 1.136 1.136h4.809c.62 0 1.136-.502 1.136-1.136v-2.007c.324-.118.649-.25.959-.398l1.43 1.431a1.122 1.122 0 0 0 1.594 0l3.408-3.408a1.122 1.122 0 0 0 0-1.594Zm-3.6-.413 1.21 1.21-1.815 1.815-1.21-1.21a1.118 1.118 0 0 0-1.371-.177 8.363 8.363 0 0 1-2.022.84c-.501.134-.84.576-.84 1.093v1.711h-2.552v-1.711c0-.517-.34-.96-.841-1.092a8.363 8.363 0 0 1-2.021-.841 1.14 1.14 0 0 0-1.373.177l-1.21 1.21-1.814-1.815 1.21-1.21a1.14 1.14 0 0 0 .177-1.372 8.368 8.368 0 0 1-.84-2.022 1.12 1.12 0 0 0-1.093-.841h-1.71v-2.553h1.71c.517 0 .96-.339 1.092-.84a8.368 8.368 0 0 1 .841-2.022 1.14 1.14 0 0 0-.177-1.373l-1.21-1.21 1.815-1.814 1.21 1.21a1.12 1.12 0 0 0 1.372.177 8.368 8.368 0 0 1 2.02-.842 1.12 1.12 0 0 0 .841-1.091v-1.712h2.553v1.712c0 .516.339.959.84 1.091a8.368 8.368 0 0 1 2.022.842 1.14 1.14 0 0 0 1.371-.177l1.21-1.21 1.815 1.815-1.21 1.21a1.14 1.14 0 0 0-.177 1.372 8.28 8.28 0 0 1 .84 2.021 1.12 1.12 0 0 0 1.093.841h1.71v2.553h-1.71c-.517 0-.96.34-1.092.841a8.368 8.368 0 0 1-.841 2.022 1.14 1.14 0 0 0 .177 1.372Zm-7.332-11.554a6.057 6.057 0 0 0-6.048 6.05 6.057 6.057 0 0 0 6.048 6.05 6.057 6.057 0 0 0 6.049-6.05 6.057 6.057 0 0 0-6.049-6.05Zm0 9.828a3.8 3.8 0 0 1-3.791-3.793 3.79 3.79 0 1 1 7.582 0 3.79 3.79 0 0 1-3.79 3.793Zm-5.148-30.987 4.19-7.245a1.12 1.12 0 0 1 .973-.56c.398 0 .782.22.974.56l4.19 7.245a1.135 1.135 0 0 1-1.962 1.136l-2.08-3.6v13.265c0 .62-.502 1.136-1.137 1.136a1.127 1.127 0 0 1-1.136-1.136V39.93l-2.08 3.6a1.131 1.131 0 0 1-1.549.413 1.132 1.132 0 0 1-.413-1.549h.03ZM43.926 74.34c-.206.368-.59.56-.973.56a1.1 1.1 0 0 1-.56-.147l-7.244-4.19a1.12 1.12 0 0 1-.56-.975c0-.398.22-.782.56-.974l7.243-4.19a1.135 1.135 0 0 1 1.55.413c.31.546.132 1.225-.414 1.55l-3.6 2.08h13.263c.62 0 1.136.502 1.136 1.136 0 .635-.502 1.136-1.136 1.136H39.93l3.6 2.08c.545.31.722 1.004.412 1.55l-.015-.03ZM74.73 96.782l-4.19 7.245a1.12 1.12 0 0 1-.973.56c-.398 0-.782-.221-.974-.56l-4.19-7.245a1.135 1.135 0 0 1 .414-1.55 1.135 1.135 0 0 1 1.549.413l2.08 3.6V85.983c0-.62.502-1.137 1.136-1.137.634 0 1.136.502 1.136 1.137v13.265l2.08-3.6a1.132 1.132 0 0 1 1.549-.414c.546.31.723 1.004.413 1.55h-.03Zm29.844-27.195c0 .399-.221.782-.56.974l-7.244 4.19a1.1 1.1 0 0 1-.56.148c-.384 0-.767-.206-.974-.56a1.135 1.135 0 0 1 .413-1.55l3.6-2.08H85.985c-.62 0-1.135-.502-1.135-1.136 0-.635.501-1.137 1.136-1.137h13.262l-3.6-2.08a1.132 1.132 0 0 1-.413-1.55 1.132 1.132 0 0 1 1.55-.413l7.243 4.19c.354.207.56.576.56.975l-.015.03ZM49.429 50.82c-.103-.383 0-.811.295-1.092a1.15 1.15 0 0 1 1.092-.295l8.084 2.17c.605.162.96.781.797 1.386-.163.605-.782.96-1.387.797l-4.013-1.077 4.485 4.486a1.12 1.12 0 0 1 0 1.593 1.122 1.122 0 0 1-1.593 0l-4.485-4.485 1.077 4.013a1.129 1.129 0 0 1-.797 1.387 1 1 0 0 1-.295.044c-.501 0-.959-.339-1.091-.84l-2.169-8.087Zm10.268 35.37a1.129 1.129 0 0 1-.797 1.386l-8.084 2.17a1.02 1.02 0 0 1-.295.044 1.14 1.14 0 0 1-.797-.325 1.148 1.148 0 0 1-.295-1.092l2.169-8.086c.162-.605.782-.96 1.386-.797.605.162.96.782.797 1.387l-1.077 4.014 4.485-4.486a1.122 1.122 0 0 1 1.593 0 1.122 1.122 0 0 1 0 1.594l-4.484 4.485 4.012-1.077a1.129 1.129 0 0 1 1.387.797v-.015Zm30.02 2.168c.104.384 0 .812-.294 1.092a1.103 1.103 0 0 1-.797.325c-.103 0-.192 0-.295-.044l-8.084-2.17a1.129 1.129 0 0 1-.797-1.387 1.129 1.129 0 0 1 1.387-.796l4.013 1.077-4.485-4.486a1.122 1.122 0 0 1 0-1.593 1.122 1.122 0 0 1 1.593 0l4.485 4.485-1.077-4.013a1.129 1.129 0 0 1 .797-1.387 1.129 1.129 0 0 1 1.386.797l2.169 8.085v.015ZM79.45 52.988a1.129 1.129 0 0 1 .797-1.387l8.084-2.169c.384-.103.812 0 1.092.295.28.28.398.709.295 1.092l-2.169 8.086c-.133.502-.59.841-1.091.841-.104 0-.192 0-.295-.044a1.129 1.129 0 0 1-.797-1.387l1.077-4.013-4.485 4.485a1.122 1.122 0 0 1-1.593 0 1.122 1.122 0 0 1 0-1.593l4.485-4.486-4.013 1.077a1.129 1.129 0 0 1-1.387-.797Z"/>
</svg>
