<svg xmlns="http://www.w3.org/2000/svg" width="140" height="140" fill="none" viewBox="0 0 140 140">
  <circle cx="70" cy="70" r="65" fill="#F7F7F7" stroke="#B8A9A4" stroke-width="10"/>
  <circle cx="70" cy="70" r="58.5" fill="#F7F7F7" stroke="#fff" stroke-width="3"/>
  <path fill="#000" d="M55.907 66v-8.727h1.34V66h-1.34Zm.682-10.182a.953.953 0 0 1-.676-.267.858.858 0 0 1-.279-.642c0-.25.093-.464.279-.642a.954.954 0 0 1 .676-.267c.261 0 .485.089.67.267a.85.85 0 0 1 .284.642.85.85 0 0 1-.284.642.934.934 0 0 1-.67.267Zm6.66 10.364c-.818 0-1.522-.193-2.113-.58a3.777 3.777 0 0 1-1.364-1.596c-.318-.678-.477-1.453-.477-2.324 0-.887.163-1.669.488-2.347.33-.682.788-1.214 1.375-1.596.591-.387 1.28-.58 2.069-.58.613 0 1.166.114 1.659.341.492.227.895.545 1.21.955.314.409.51.886.585 1.431h-1.34c-.103-.397-.33-.75-.683-1.056-.348-.311-.818-.466-1.409-.466-.522 0-.98.136-1.375.409-.39.269-.695.65-.915 1.142-.215.488-.323 1.062-.323 1.721 0 .675.106 1.262.318 1.762.216.5.519.888.909 1.164.394.277.856.415 1.386.415.349 0 .665-.06.95-.181.283-.122.524-.296.72-.523.198-.227.338-.5.421-.818h1.341a3.112 3.112 0 0 1-.562 1.392 3.153 3.153 0 0 1-1.177.977c-.484.239-1.049.358-1.693.358Zm8.938 0c-.788 0-1.48-.188-2.074-.563-.591-.375-1.053-.9-1.386-1.573-.33-.675-.495-1.463-.495-2.364 0-.91.165-1.703.495-2.38.333-.679.795-1.205 1.386-1.58.595-.375 1.286-.563 2.074-.563.788 0 1.477.188 2.068.563.595.375 1.057.901 1.386 1.58.334.677.5 1.47.5 2.38 0 .901-.166 1.69-.5 2.364a3.769 3.769 0 0 1-1.386 1.573c-.59.375-1.28.563-2.068.563Zm0-1.205c.598 0 1.09-.153 1.477-.46a2.72 2.72 0 0 0 .858-1.21c.186-.5.278-1.042.278-1.625 0-.584-.092-1.127-.278-1.63a2.75 2.75 0 0 0-.858-1.222c-.386-.311-.879-.466-1.477-.466-.599 0-1.091.155-1.477.466a2.75 2.75 0 0 0-.858 1.221 4.681 4.681 0 0 0-.279 1.63c0 .584.093 1.126.279 1.626.185.5.471.903.858 1.21.386.307.878.46 1.477.46Zm7.342-4.227V66h-1.34v-8.727h1.295v1.363h.113c.205-.443.516-.799.932-1.068.417-.273.955-.409 1.614-.409.59 0 1.108.121 1.55.364.444.238.789.602 1.035 1.09.246.486.37 1.1.37 1.842V66h-1.342v-5.455c0-.685-.178-1.22-.534-1.602-.356-.386-.844-.58-1.466-.58-.428 0-.81.093-1.147.279a1.993 1.993 0 0 0-.79.813c-.193.356-.29.787-.29 1.295ZM42.257 76.273v1.136h-4.523v-1.136h4.523Zm-3.204-2.091h1.34V82.5c0 .379.055.663.165.852.114.186.258.31.432.375.178.06.366.091.563.091a2.4 2.4 0 0 0 .363-.022l.228-.046.272 1.204c-.09.035-.218.069-.38.103-.163.038-.37.057-.62.057-.379 0-.75-.082-1.113-.245a2.213 2.213 0 0 1-.898-.744c-.235-.333-.352-.754-.352-1.261v-8.682Zm8.787 11c-.841 0-1.567-.186-2.177-.557a3.737 3.737 0 0 1-1.403-1.568c-.326-.674-.489-1.459-.489-2.353 0-.893.163-1.681.489-2.363.33-.686.788-1.22 1.375-1.602.59-.387 1.28-.58 2.068-.58.455 0 .903.076 1.347.227.443.152.846.398 1.21.739.364.337.653.784.87 1.34.215.558.323 1.243.323 2.058v.568h-6.727v-1.16h5.364c0-.492-.099-.931-.296-1.317a2.226 2.226 0 0 0-.83-.915c-.356-.224-.776-.335-1.26-.335-.535 0-.997.132-1.387.397a2.615 2.615 0 0 0-.892 1.023c-.209.42-.313.871-.313 1.352v.773c0 .66.114 1.218.341 1.676.231.455.551.801.96 1.04.41.235.885.352 1.427.352.352 0 .67-.049.954-.148a2.03 2.03 0 0 0 .744-.454c.209-.204.37-.458.483-.761l1.296.363c-.137.44-.366.826-.688 1.16-.322.329-.72.587-1.193.772a4.426 4.426 0 0 1-1.596.273ZM53.492 85v-8.727h1.295v1.363h.114a2.2 2.2 0 0 1 .88-1.085c.406-.261.893-.392 1.46-.392.577 0 1.056.13 1.438.392.387.258.688.62.904 1.085h.09c.224-.45.56-.808 1.006-1.073.447-.27.983-.404 1.608-.404.78 0 1.419.244 1.915.733.496.485.744 1.24.744 2.267V85h-1.34v-5.84c0-.645-.177-1.105-.529-1.382a1.956 1.956 0 0 0-1.244-.414c-.614 0-1.09.185-1.426.556-.337.368-.506.834-.506 1.398V85h-1.364v-5.977c0-.496-.16-.896-.483-1.2-.322-.306-.736-.46-1.244-.46-.348 0-.674.093-.977.279-.3.186-.542.443-.728.773a2.281 2.281 0 0 0-.272 1.13V85h-1.341Zm13.906 3.273v-12h1.296v1.386h.159c.098-.151.234-.345.409-.58.178-.238.432-.45.761-.636.334-.19.784-.284 1.352-.284.735 0 1.383.184 1.944.551.56.368.998.889 1.312 1.563.314.674.472 1.47.472 2.386 0 .924-.157 1.725-.472 2.403-.314.675-.75 1.198-1.307 1.569-.556.367-1.199.55-1.926.55-.56 0-1.01-.092-1.346-.278-.338-.189-.597-.403-.779-.642a8.623 8.623 0 0 1-.42-.602h-.114v4.614H67.4Zm1.318-7.637c0 .66.097 1.24.29 1.745.193.5.475.892.847 1.176.37.28.826.42 1.363.42.56 0 1.029-.148 1.404-.443.379-.3.663-.7.852-1.205.193-.507.29-1.071.29-1.693 0-.613-.095-1.166-.284-1.659-.186-.496-.468-.888-.847-1.176-.375-.291-.847-.437-1.415-.437-.545 0-1.004.138-1.375.414-.37.273-.651.656-.84 1.148-.19.489-.285 1.059-.285 1.71Zm9.773-7.272V85h-1.34V73.364h1.34Zm5.024 11.84a3.546 3.546 0 0 1-1.505-.312 2.584 2.584 0 0 1-1.074-.915c-.266-.401-.398-.886-.398-1.454 0-.5.098-.906.295-1.216.197-.315.46-.56.79-.739a4.15 4.15 0 0 1 1.091-.397c.402-.092.805-.163 1.21-.217.53-.068.96-.119 1.29-.153.333-.038.576-.1.727-.187.156-.088.233-.239.233-.455v-.045c0-.561-.153-.997-.46-1.307-.303-.31-.763-.466-1.38-.466-.64 0-1.143.14-1.506.42-.364.28-.62.58-.767.898l-1.273-.455c.227-.53.53-.943.909-1.238.383-.3.8-.508 1.25-.625a5.19 5.19 0 0 1 1.34-.182c.281 0 .603.034.967.102a3.09 3.09 0 0 1 1.062.404c.345.204.631.513.858.926.228.413.341.966.341 1.659V85h-1.34v-1.182h-.069a2.36 2.36 0 0 1-.454.608c-.213.216-.495.4-.847.551-.352.152-.782.227-1.29.227ZM83.72 84c.53 0 .977-.104 1.34-.313a2.127 2.127 0 0 0 1.114-1.846v-1.227c-.056.068-.181.13-.375.187-.19.053-.409.1-.659.142a29.81 29.81 0 0 1-1.284.17 5.19 5.19 0 0 0-.977.222 1.67 1.67 0 0 0-.727.45c-.182.196-.273.465-.273.806 0 .466.172.818.517 1.057.348.235.79.352 1.324.352Zm10.038-7.727v1.136h-4.523v-1.136h4.523Zm-3.204-2.091h1.34V82.5c0 .379.055.663.165.852.114.186.258.31.432.375.178.06.366.091.563.091a2.4 2.4 0 0 0 .363-.022l.228-.046.272 1.204c-.09.035-.218.069-.38.103-.163.038-.37.057-.62.057-.379 0-.75-.082-1.113-.245a2.213 2.213 0 0 1-.898-.744c-.235-.333-.352-.754-.352-1.261v-8.682Zm8.787 11c-.841 0-1.567-.186-2.177-.557a3.737 3.737 0 0 1-1.403-1.568c-.326-.674-.489-1.459-.489-2.353 0-.893.163-1.681.489-2.363.33-.686.788-1.22 1.375-1.602.59-.387 1.28-.58 2.068-.58.455 0 .904.076 1.347.227a3.34 3.34 0 0 1 1.21.739c.364.337.653.784.869 1.34.216.558.324 1.243.324 2.058v.568h-6.727v-1.16h5.363c0-.492-.098-.931-.295-1.317a2.225 2.225 0 0 0-.83-.915c-.356-.224-.776-.335-1.26-.335-.535 0-.997.132-1.387.397a2.615 2.615 0 0 0-.892 1.023c-.209.42-.313.871-.313 1.352v.773c0 .66.114 1.218.341 1.676.231.455.551.801.96 1.04.41.235.885.352 1.427.352.352 0 .67-.049.954-.148a2.03 2.03 0 0 0 .744-.454c.209-.204.37-.458.483-.761l1.296.363a2.88 2.88 0 0 1-.688 1.16 3.344 3.344 0 0 1-1.193.772 4.423 4.423 0 0 1-1.597.273Z"/>
</svg>
