<svg xmlns="http://www.w3.org/2000/svg" width="140" height="140" fill="none" viewBox="0 0 140 140">
  <circle cx="70" cy="70" r="65" fill="#F7F7F7" stroke="#6B717A" stroke-width="10"/>
  <circle cx="70" cy="70" r="58.5" fill="#F7F7F7" stroke="#fff" stroke-width="3"/>
  <path fill="#000" d="M79.677 42c-3.886 0-7.326 1.917-9.435 4.843l-9.92-1.974L40 48.91V99l20.323-4.042 19.354 3.85L100 94.766V44.677l-10.887 2.166C87.003 43.917 83.563 42 79.677 42Zm0 1.925c5.357 0 9.678 4.298 9.678 9.625 0 1.174-.605 3.11-1.577 5.223-.971 2.117-2.287 4.433-3.606 6.572-2.245 3.651-3.878 5.847-4.495 6.689-.616-.842-2.249-3.038-4.494-6.689-1.32-2.14-2.635-4.455-3.607-6.572C70.605 56.66 70 54.723 70 53.55c0-5.327 4.32-9.625 9.677-9.625Zm-19.354 2.907 8.88 1.767a11.386 11.386 0 0 0-1.139 4.951c0 1.753.726 3.802 1.75 6.028 1.025 2.222 2.371 4.594 3.713 6.775a125.144 125.144 0 0 0 5.372 7.982l.778 1.053.78-1.053s2.683-3.617 5.37-7.982c1.343-2.18 2.689-4.553 3.713-6.775 1.024-2.226 1.75-4.276 1.75-6.028 0-1.774-.416-3.451-1.138-4.951l7.912-1.576v46.164l-18.387 3.659-19.354-3.85-18.388 3.658V50.49l18.388-3.659Zm0 .943a.967.967 0 0 0-.968.963.967.967 0 0 0 1.935 0 .967.967 0 0 0-.967-.963ZM79.677 49.7c-2.128 0-3.87 1.734-3.87 3.85 0 2.117 1.742 3.85 3.87 3.85 2.129 0 3.871-1.733 3.871-3.85 0-2.116-1.742-3.85-3.87-3.85Zm-19.354 1.925a.967.967 0 0 0-.968.963.967.967 0 0 0 1.935 0 .967.967 0 0 0-.967-.963Zm19.354 0c1.082 0 1.936.85 1.936 1.925a1.915 1.915 0 0 1-1.936 1.925 1.915 1.915 0 0 1-1.935-1.925c0-1.075.854-1.925 1.935-1.925Zm-19.354 3.85a.967.967 0 0 0-.968.963.967.967 0 0 0 1.935 0 .967.967 0 0 0-.967-.963Zm0 3.85a.967.967 0 0 0-.968.963.967.967 0 0 0 1.935 0 .967.967 0 0 0-.967-.962Zm0 3.85a.967.967 0 0 0-.968.963.967.967 0 0 0 1.935 0 .967.967 0 0 0-.967-.962Zm0 3.85a.967.967 0 0 0-.968.963.967.967 0 0 0 1.935 0 .967.967 0 0 0-.967-.962Zm0 3.851a.967.967 0 0 0-.968.962.967.967 0 0 0 1.935 0 .967.967 0 0 0-.967-.962Zm0 3.85a.967.967 0 0 0-.968.963.967.967 0 0 0 1.935 0 .967.967 0 0 0-.967-.963Zm19.354 2.888a.967.967 0 0 0-.967.962.967.967 0 0 0 1.935 0 .967.967 0 0 0-.968-.962Zm-19.354.962a.967.967 0 0 0-.968.963.967.967 0 0 0 1.935 0 .967.967 0 0 0-.967-.963Zm19.354 2.888a.967.967 0 0 0-.967.962.967.967 0 0 0 1.935 0 .967.967 0 0 0-.968-.962Zm-19.354.962a.967.967 0 0 0-.968.963.967.967 0 0 0 1.935 0 .967.967 0 0 0-.967-.963Zm19.354 2.888a.967.967 0 0 0-.967.963.967.967 0 0 0 1.935 0 .967.967 0 0 0-.968-.963Zm-19.354.963a.967.967 0 0 0-.968.962.967.967 0 0 0 1.935 0 .967.967 0 0 0-.967-.963Zm19.354 2.887a.967.967 0 0 0-.967.963.967.967 0 0 0 1.935 0 .967.967 0 0 0-.968-.963Zm-19.354.963a.967.967 0 0 0-.968.962.967.967 0 0 0 1.935 0 .967.967 0 0 0-.967-.962Zm19.354 2.887a.967.967 0 0 0-.967.963.967.967 0 0 0 1.935 0 .967.967 0 0 0-.968-.963Z"/>
</svg>
