<svg xmlns="http://www.w3.org/2000/svg" width="140" height="140" fill="none" viewBox="0 0 140 140">
  <circle cx="70" cy="70" r="65" fill="#F7F7F7" stroke="#B8A9A4" stroke-width="10"/>
  <circle cx="70" cy="70" r="58.5" fill="#F7F7F7" stroke="#fff" stroke-width="3"/>
  <path fill="#000" d="M100.091 97.576V39H86.226v58.576h-1.843V54.905H70.519v42.67h-2.133V70.422h-13.77v27.154h-1.939V83.61H38.812v13.966H36V100h67v-2.424h-2.909Zm-49.838 0h-9.017V86.035h8.92v11.54h.097Zm15.805 0h-8.92V72.749h8.92v24.827Zm15.901 0h-8.92V57.329h8.92v40.247Zm15.708 0h-8.92V41.425h8.92v56.15ZM43.854 64.99l16.483-16.487 3.976 3.976 3.49-13.092-13.186 3.491 3.975 3.88-16.483 16.486 1.745 1.745Zm20.459-22.209-1.358 5.043-3.684-3.685 5.042-1.358Z"/>
</svg>
