<svg xmlns="http://www.w3.org/2000/svg" width="140" height="140" fill="none" viewBox="0 0 140 140">
  <circle cx="70" cy="70" r="65" fill="#F7F7F7" stroke="#377D78" stroke-width="10"/>
  <circle cx="70" cy="70" r="58.5" fill="#F7F7F7" stroke="#fff" stroke-width="3"/>
  <path fill="#000" d="M84.621 37.007a1.405 1.405 0 0 0-1.051.878l-1.315 3.247a32.23 32.23 0 0 0-12.663-2.72 1.423 1.423 0 0 0-.57 0h-.044c-17.473.186-31.642 14.331-31.9 31.811a1.399 1.399 0 0 0 0 .921C37.314 88.761 51.681 103 69.328 103c17.797 0 32.251-14.474 32.251-32.294 0-4.597-.986-8.984-2.716-12.944l3.242-1.317a1.43 1.43 0 0 0 .783-.757 1.41 1.41 0 0 0 .006-1.086A32.304 32.304 0 0 0 85.41 37.095a1.408 1.408 0 0 0-.657-.088h-.132Zm.964 3.379a29.115 29.115 0 0 1 14.023 14.04L97.11 55.48h-.044a1.391 1.391 0 0 0-1.227.483v.044l-20.157 8.336 8.457-20.447a.64.64 0 0 0 .044-.088c.077-.12.137-.252.175-.395.039-.082.066-.175.088-.263l1.14-2.764Zm-17.79.877h.132v28.039h-28c.7-15.15 12.756-27.27 27.868-28.039Zm2.936 0c3.703.17 7.208.999 10.429 2.414l-9.377 22.729a1.41 1.41 0 0 0 .295 1.546 1.404 1.404 0 0 0 1.545.297l22.698-9.39a29.538 29.538 0 0 1 2.454 11.847c0 7.635-2.925 14.556-7.668 19.789L70.73 70.09V41.263ZM39.926 72.11h28.79L89.09 92.513c-5.225 4.75-12.138 7.679-19.762 7.679-15.813 0-28.68-12.429-29.403-28.082Z"/>
</svg>
