<svg xmlns="http://www.w3.org/2000/svg" width="140" height="140" fill="none" viewBox="0 0 140 140">
  <circle cx="70" cy="70" r="65" fill="#F7F7F7" stroke="#377D78" stroke-width="10"/>
  <circle cx="70" cy="70" r="58.5" fill="#F7F7F7" stroke="#fff" stroke-width="3"/>
  <path fill="#000" d="M93.61 44H53.032c-3.466 0-6.253 2.816-6.39 6.318C43.516 50.661 41 53.34 41 56.705v27.95c0 3.572 2.855 6.456 6.39 6.456h6.593c.136.412.272.824.34 1.236.747 3.777-.884 7.21-.884 7.21-.136.344-.136.688.068.962.204.275.476.481.884.481.271 0 3.33-.069 6.66-2.884 1.972-1.648 3.535-4.67 4.487-7.074h22.43c3.468 0 6.254-2.816 6.39-6.318 3.195-.343 5.642-3.09 5.642-6.387V50.455C99.932 46.885 97.077 44 93.61 44Zm-1.359 40.655c0 2.404-1.971 4.396-4.35 4.396H64.79c-.409 0-.816.274-.952.618-1.292 3.227-2.787 5.7-4.215 6.867-1.427 1.236-2.786 1.854-3.806 2.13.476-1.58.952-4.121.408-6.8-.136-.686-.408-1.442-.68-2.266-.136-.412-.544-.618-.952-.618H47.39c-2.379 0-4.35-1.992-4.35-4.395V56.705c0-2.404 1.971-4.395 4.35-4.395h40.512c2.379 0 4.35 1.991 4.35 4.395v27.95Zm5.642-6.249c0 2.198-1.564 3.983-3.603 4.326V56.706c0-3.571-2.855-6.456-6.39-6.456H48.75c.068-2.335 1.971-4.189 4.282-4.189h40.58c2.379 0 4.35 1.992 4.35 4.395v27.951h-.068Zm-13.255-3.502H50.652c-.544 0-1.02.48-1.02 1.03s.476 1.03 1.02 1.03h33.986c.544 0 1.02-.48 1.02-1.03s-.476-1.03-1.02-1.03Zm0-13.049H50.652c-.544 0-1.02.481-1.02 1.03 0 .55.476 1.03 1.02 1.03h33.986c.544 0 1.02-.48 1.02-1.03 0-.549-.476-1.03-1.02-1.03Zm0 6.524H50.652c-.544 0-1.02.481-1.02 1.03 0 .55.476 1.03 1.02 1.03h33.986c.544 0 1.02-.48 1.02-1.03 0-.549-.476-1.03-1.02-1.03Z"/>
</svg>
