<svg xmlns="http://www.w3.org/2000/svg" width="140" height="140" fill="none" viewBox="0 0 140 140">
  <circle cx="70" cy="70" r="65" fill="#F7F7F7" stroke="#377D78" stroke-width="10"/>
  <circle cx="70" cy="70" r="58.5" fill="#F7F7F7" stroke="#fff" stroke-width="3"/>
  <path fill="#3C3C3B" d="M97.24 62.26H85.11V40.21c0-1.21-.99-2.21-2.21-2.21H56.44c-1.21 0-2.21.99-2.21 2.21v22.05H42.1c-.61 0-1.1.5-1.1 1.1v4.41c0 .61.5 1.1 1.1 1.1v29.77a3.32 3.32 0 0 0 3.31 3.31h48.51a3.32 3.32 0 0 0 3.31-3.31V68.87c.61 0 1.1-.5 1.1-1.1v-4.41c0-.61-.5-1.1-1.1-1.1h.01ZM56.44 40.2H82.9v22.05h-2.21V47.92c0-.61-.5-1.1-1.1-1.1a3.32 3.32 0 0 1-3.31-3.31c0-.61-.5-1.1-1.1-1.1H64.15c-.61 0-1.1.5-1.1 1.1a3.32 3.32 0 0 1-3.31 3.31c-.61 0-1.1.5-1.1 1.1v14.33h-2.21V40.2h.01Zm19.75 22.06c-.53-3.12-3.24-5.51-6.52-5.51-3.28 0-5.99 2.39-6.52 5.51h-2.3V48.92a5.524 5.524 0 0 0 4.3-4.3h9.04a5.524 5.524 0 0 0 4.3 4.3v13.34h-2.3Zm-2.25 0h-8.55c.5-1.9 2.22-3.31 4.27-3.31a4.42 4.42 0 0 1 4.27 3.31h.01Zm-30.73 2.2h52.93v2.21H43.21v-2.21Zm51.82 34.18c0 .61-.5 1.1-1.1 1.1H45.42c-.61 0-1.1-.5-1.1-1.1V68.87h50.72v29.77h-.01Z"/>
  <path fill="#3C3C3B" d="M68.89 93.77c.22.22.5.32.78.32s.56-.11.78-.32l8.38-8.38c1.2-1.2 1.86-2.8 1.86-4.5 0-1.7-.66-3.3-1.86-4.5-1.2-1.2-2.8-1.86-4.5-1.86-1.7 0-3.3.66-4.5 1.86l-.15.15-.15-.15c-1.2-1.2-2.8-1.86-4.5-1.86-1.7 0-3.3.66-4.5 1.86-1.2 1.2-1.86 2.8-1.86 4.5 0 1.7.66 3.3 1.86 4.5l8.38 8.38h-.02Zm-6.83-15.84c.78-.78 1.83-1.22 2.94-1.22 1.11 0 2.16.43 2.94 1.22l.93.93c.43.43 1.12.43 1.55 0l.93-.93c1.58-1.58 4.31-1.58 5.89 0 .78.78 1.22 1.83 1.22 2.94 0 1.11-.43 2.16-1.22 2.94l-7.6 7.6-7.6-7.6a4.146 4.146 0 0 1-1.22-2.94c0-1.11.43-2.16 1.22-2.94h.02Z"/>
</svg>
