<svg xmlns="http://www.w3.org/2000/svg" width="140" height="140" fill="none" viewBox="0 0 140 140">
  <circle cx="70" cy="70" r="65" fill="#F7F7F7" stroke="#6B717A" stroke-width="10"/>
  <circle cx="70" cy="70" r="58.5" fill="#F7F7F7" stroke="#fff" stroke-width="3"/>
  <path fill="#000" d="M48.189 40v22.857H38L38.222 100H102V45.714H78.73v28.572h-7.277V40.01L48.189 40Zm2.909 2.857 17.446.011v31.418h-7.246l-.023-11.429H51.098v-20Zm4.363 2.857v2.857h2.908v-2.857h-2.908Zm5.874 0v2.857h2.852v-2.857h-2.852Zm20.304 2.857h17.452v48.572h-7.328v-5.714H88.91v5.714h-7.272V48.57ZM55.461 51.43v2.857h2.908V51.43h-2.908Zm5.817 0v2.857h2.909V51.43h-2.909Zm24.724.005v2.852h2.909v-2.852h-2.909Zm5.846.006v2.876H94.7V51.44h-2.852Zm-5.846 5.725V60h2.909v-2.835h-2.909Zm5.846 0V60H94.7v-2.835h-2.852Zm-5.846 5.692v2.857h2.909v-2.857h-2.909Zm5.818 0v2.857h2.88v-2.857h-2.88Zm-50.894 2.857h17.446l.017 8.572h-.022l.062 22.857h-7.36V91.43h-2.852v5.714h-7.104l-.187-31.429Zm4.354 2.857v2.88h2.966v-2.88H45.28Zm5.874 0v2.88h2.852v-2.88h-2.852Zm34.848.012v2.843h2.909v-2.843h-2.909Zm5.818 0v2.843h2.88v-2.843h-2.88Zm-46.54 5.68v2.88h2.966v-2.88H45.28Zm5.874 0v2.88h2.852v-2.88h-2.852Zm34.848.012v2.879h2.909v-2.88h-2.909Zm5.846 0v2.879H94.7v-2.88h-2.852Zm-30.544 2.868H78.73v20h-7.27V91.43h-2.91v5.714h-7.208l-.037-20ZM45.28 80v2.88h2.966V80H45.28Zm5.874 0v2.88h2.852V80h-2.852Zm14.487 0v2.88h2.909V80h-2.91Zm5.818 0v2.88h2.908V80H71.46Zm14.543 0v2.88h2.909V80h-2.909Zm5.846 0v2.88H94.7V80h-2.852ZM65.64 85.692v2.88h2.909v-2.88H65.64Zm5.818 0v2.88h2.908v-2.88H71.46Zm14.543 0v2.88h2.909v-2.88h-2.909Zm5.846 0v2.88H94.7v-2.88h-2.852Z"/>
</svg>
