<svg width="140" height="140" viewBox="0 0 140 140" fill="none" xmlns="http://www.w3.org/2000/svg">
<circle cx="70" cy="70" r="65" fill="#F7F7F7" stroke="#377D78" stroke-width="10"/>
<circle cx="70" cy="70" r="58.5" fill="#F7F7F7" stroke="white" stroke-width="3"/>
<path d="M70.0393 66.6513C68.1979 66.6513 66.7249 68.1243 66.7249 69.9657C66.7249 71.807 68.1979 73.2801 70.0393 73.2801C71.8806 73.2801 73.3537 71.807 73.3537 69.9657C73.3537 68.198 71.807 66.6513 70.0393 66.6513ZM95.818 44.1869L95.7444 38L88.3054 45.5127L88.379 51.6996L94.5659 51.7732L102.005 44.2606L95.818 44.1869Z" fill="black"/>
<path d="M97.3648 53.4673C100.385 58.4757 102.005 64.2207 102.005 70.0393C102.005 87.5689 87.5689 102.079 69.9657 102.079C52.3625 102.079 38 87.5689 38 70.0393C38 52.5098 52.4361 38 70.0393 38C78.4358 38 86.5377 41.3144 92.5037 47.2067" stroke="black" stroke-width="2" stroke-miterlimit="10"/>
<path d="M88.8209 58.6967C90.8833 62.0848 91.9881 66.0621 91.9881 70.0394C91.9881 82.1185 82.0448 91.9881 70.0393 91.9881C58.0337 91.9881 48.0168 82.0449 48.0168 70.0394C48.0168 58.0338 57.9601 48.0906 69.9656 48.0906C75.7843 48.0906 81.3819 50.3738 85.5065 54.4984" stroke="black" stroke-width="2" stroke-miterlimit="10"/>
<path d="M80.2037 63.8526C81.3085 65.6939 81.8977 67.8299 81.8977 69.9658C81.8977 76.521 76.521 81.8977 69.9658 81.8977C63.4106 81.8977 58.0339 76.521 58.0339 69.9658C58.0339 63.4106 63.4106 58.0339 69.9658 58.0339C73.1329 58.0339 76.1527 59.286 78.436 61.5693" stroke="black" stroke-width="2" stroke-miterlimit="10"/>
<path d="M95.8181 44.1868L70.113 69.8919" stroke="black" stroke-width="2" stroke-miterlimit="10"/>
</svg>
