<svg width="140" height="140" viewBox="0 0 140 140" fill="none" xmlns="http://www.w3.org/2000/svg">
<circle cx="70" cy="70" r="65" fill="#F7F7F7" stroke="#B8A9A4" stroke-width="10"/>
<circle cx="70" cy="70" r="58.5" fill="#F7F7F7" stroke="white" stroke-width="3"/>
<path d="M105.735 69.9766C99.9118 57.8511 85.8824 50 70 50C54.1176 50 40.0882 57.8511 34.2647 69.9766L34 70.5L34.2647 70.9362C40.0882 83.1489 54.1176 91 70 91C85.8824 91 99.9118 83.1489 105.735 71.0234L106 70.5872L105.735 69.9766ZM36.4706 70.5C40.7059 62.0383 49.3529 55.8447 59.6765 53.4021C53.8529 56.8915 49.8824 63.2596 49.8824 70.5C49.8824 77.7404 53.8529 84.1085 59.7647 87.5979C49.3529 85.1553 40.7059 78.9617 36.4706 70.5ZM52.0882 70.5C52.0882 60.7298 60.1176 52.7915 70 52.7915C79.8824 52.7915 87.9118 60.7298 87.9118 70.5C87.9118 80.2702 79.8824 88.2085 70 88.2085C60.1176 88.2085 52.0882 80.2702 52.0882 70.5ZM80.2353 87.5979C86.1471 84.1085 90.1176 77.7404 90.1176 70.5C90.1176 63.2596 86.1471 56.8915 80.2353 53.4021C90.6471 55.8447 99.2941 62.0383 103.529 70.5C99.2941 78.9617 90.6471 85.1553 80.2353 87.5979ZM70.6176 66.6617C70.7941 67.2723 71.4118 67.6213 71.9412 67.4468L75.0294 66.5745L70.4412 71.1106L66.7353 67.4468L58.7059 75.3851C58.2647 75.8213 58.2647 76.5191 58.7059 76.9553C58.8824 77.1298 59.2353 77.3043 59.5 77.3043C59.7647 77.3043 60.0294 77.217 60.2941 76.9553L66.7353 70.5872L70.4412 74.2511L76.6176 68.1447L75.7353 71.1979C75.5588 71.8085 75.9118 72.4191 76.5294 72.5064C76.6176 72.5064 76.7059 72.5064 76.7941 72.5064C77.3235 72.5064 77.7647 72.1574 77.8529 71.7213L80.2353 62.9106L71.3235 65.266C70.7941 65.5277 70.4412 66.1383 70.6176 66.6617Z" fill="black"/>
</svg>
