<svg width="140" height="140" viewBox="0 0 140 140" fill="none" xmlns="http://www.w3.org/2000/svg">
<circle cx="70" cy="70" r="65" fill="#F7F7F7" stroke="#6B717A" stroke-width="10"/>
<circle cx="70" cy="70" r="58.5" fill="#F7F7F7" stroke="white" stroke-width="3"/>
<path fill-rule="evenodd" clip-rule="evenodd" d="M84.7634 44.2494C92.1504 44.4341 98.2447 47.1119 101.107 52.0981C104.062 57.0843 103.323 63.6402 99.722 70.1038C103.231 76.6598 103.97 83.2157 101.107 88.2019C98.2447 93.2805 92.1504 95.8659 84.7634 96.0506C80.8853 102.329 75.7144 106.3 69.8971 106.3C64.0799 106.3 58.8167 102.422 54.9385 96.0506C47.5516 95.8659 41.4573 93.1881 38.5948 88.2019C35.6401 83.1234 36.3788 76.6598 39.9799 70.1038C36.3788 63.6402 35.6401 57.0843 38.5025 52.0981C41.365 47.0195 47.4592 44.4341 54.8462 44.2494C58.7243 37.8782 63.9876 34 69.8048 34C75.6221 34 80.8853 37.8782 84.7634 44.2494ZM98.4293 67.8877C101.107 62.5322 101.476 57.269 99.168 53.2061C96.7673 49.1433 92.0581 46.9272 86.0562 46.4655C87.8106 49.9743 89.1956 53.9448 90.119 58.377C93.5355 61.4241 96.3056 64.6559 98.4293 67.8877ZM73.3136 92.2648C76.9148 93.2805 80.3312 93.7421 83.4707 93.8345C85.0404 91.0644 86.3332 87.8326 87.1642 84.3238C85.1328 85.8935 82.9167 87.3709 80.5159 88.7559C78.1152 90.141 75.7144 91.249 73.3136 92.2648ZM69.8048 91.1567C73.0366 90.0487 76.2684 88.5713 79.4079 86.7245C82.5473 84.8778 85.5021 82.8464 87.9952 80.6303C88.5493 77.3061 88.9186 73.7973 88.9186 70.1038C88.9186 66.4103 88.6416 62.9015 87.9952 59.5774C85.5021 57.3613 82.5473 55.3299 79.4079 53.4831C76.1761 51.6364 72.9443 50.159 69.8048 49.051C66.573 50.159 63.3412 51.6364 60.2017 53.4831C57.0623 55.3299 54.1998 57.3613 51.6144 59.5774C51.0604 62.9015 50.691 66.4103 50.691 70.1038C50.691 73.7973 50.968 77.3061 51.6144 80.6303C54.1075 82.8464 57.0623 84.8778 60.2017 86.7245C63.4335 88.5713 66.6653 90.0487 69.8048 91.1567ZM59.0937 88.6636C56.6929 87.2785 54.4768 85.8012 52.4454 84.2314C53.3688 87.8326 54.6615 91.0644 56.1389 93.7421C59.2784 93.6498 62.7872 93.1881 66.296 92.1724C63.8952 91.249 61.4945 90.0487 59.0937 88.6636ZM42.473 70.1038C44.1351 72.8739 46.2588 75.5517 48.9366 78.1372C48.5673 75.5517 48.3826 72.8739 48.2902 70.1038C48.2902 67.3337 48.4749 64.6559 48.8443 62.0705C46.2588 64.6559 44.1351 67.4261 42.473 70.1038ZM66.296 48.0352C62.6948 47.0195 59.2784 46.5579 56.1389 46.4655C54.6615 49.2356 53.3688 52.4674 52.4454 55.9762C54.4768 54.4065 56.6929 52.9291 59.0937 51.5441C61.4945 50.159 63.8952 49.051 66.296 48.0352ZM80.6083 51.6364C83.009 53.0215 85.2251 54.4988 87.2565 56.0686C86.3332 52.4674 85.0404 49.2356 83.563 46.5579C80.4236 46.6502 76.9148 47.1119 73.406 48.1276C75.8067 49.051 78.2075 50.2513 80.6083 51.6364ZM97.1366 70.1962C95.5669 67.4261 93.3508 64.7483 90.7653 62.1628C91.1347 64.7483 91.3194 67.4261 91.3194 70.1962C91.3194 72.9663 91.1347 75.6441 90.7653 78.2295C93.3508 75.6441 95.4745 72.8739 97.1366 70.1962ZM82.178 44.2494C78.7615 39.3556 74.514 36.3084 69.8048 36.3084C65.188 36.3084 60.8481 39.3556 57.4316 44.2494C61.3098 44.4341 65.5573 45.2651 69.8048 46.6502C74.1447 45.2651 78.2998 44.4341 82.178 44.2494ZM53.6458 46.5579C47.6439 46.9272 42.8424 49.1433 40.5339 53.2061C38.2255 57.269 38.5948 62.5322 41.2726 67.9801C43.3964 64.6559 46.2588 61.4241 49.583 58.4693C50.5063 54.0372 51.8914 49.9743 53.6458 46.5579ZM41.2726 72.4123C38.5948 77.7678 38.2255 83.031 40.5339 87.0939C42.8424 91.1567 47.6439 93.3728 53.6458 93.8345C51.8914 90.3257 50.5063 86.3552 49.583 81.923C46.1665 78.8759 43.3964 75.6441 41.2726 72.4123ZM57.4316 96.0506C60.8481 100.944 65.0956 103.992 69.8048 103.992C74.514 103.992 78.8539 100.944 82.178 96.0506C78.2998 95.8659 74.0523 95.0349 69.8048 93.6498C65.465 95.0349 61.3098 95.8659 57.4316 96.0506ZM86.0562 93.7421C92.0581 93.3728 96.8596 91.1567 99.168 87.0939C101.476 83.031 101.015 77.7678 98.4293 72.3199C96.3056 75.6441 93.4431 78.8759 90.119 81.8307C89.1956 86.2628 87.8106 90.3257 86.0562 93.7421ZM57.9841 67.488C57.9841 63.7921 61.0655 60.7778 64.8435 60.7778C66.92 60.7778 68.732 61.7312 69.988 63.1631C71.2439 61.7312 73.0559 60.7778 75.1325 60.7778C78.9105 60.7778 81.9918 63.7921 81.9918 67.488C81.9918 69.0378 81.188 70.5646 80.0894 72.0489C78.9908 73.5331 77.5707 74.9846 76.1506 76.269C73.3138 78.8377 70.4703 80.7512 70.4703 80.7512L69.988 81.092L69.5057 80.7512C69.5057 80.7512 66.6655 78.8345 63.8253 76.269C62.4052 74.9846 60.9851 73.5364 59.8865 72.0489C58.788 70.5613 57.9841 69.0443 57.9841 67.488ZM69.2645 64.9192C68.3636 63.4514 66.7224 62.4553 64.8435 62.4553C61.9932 62.4553 59.699 64.6997 59.699 67.488C59.699 68.4382 60.2884 69.7357 61.2798 71.079C62.2712 72.4224 63.6377 73.8018 65.0042 75.037C67.4156 77.2152 69.4286 78.608 69.9416 78.9629C69.9588 78.9748 69.9742 78.9855 69.988 78.995C70.0051 78.9832 70.0248 78.9695 70.0471 78.9541C70.5802 78.5857 72.58 77.2038 74.9717 75.037C76.3382 73.7985 77.7047 72.3962 78.6961 71.0528C79.6875 69.7095 80.277 68.4251 80.277 67.488C80.277 64.6997 77.9827 62.4553 75.1325 62.4553C73.2535 62.4553 71.6124 63.4514 70.7114 64.9192L69.988 66.0988L69.2645 64.9192Z" fill="black"/>
</svg>
