<svg width="140" height="140" viewBox="0 0 140 140" fill="none" xmlns="http://www.w3.org/2000/svg">
<circle cx="70" cy="70" r="65" fill="#F7F7F7" stroke="#377D78" stroke-width="10"/>
<circle cx="70" cy="70" r="58.5" fill="#F7F7F7" stroke="white" stroke-width="3"/>
<path d="M71.0137 40C65.5049 40 61.0119 44.4371 61.0119 49.8773C61.0119 52.1682 62.184 54.4012 63.7858 56.5908C65.3877 58.7804 67.4583 60.9121 69.529 62.8027C73.6704 66.579 77.8117 69.4004 77.8117 69.4004L78.515 69.902L79.2182 69.4004C79.2182 69.4004 83.3645 66.5838 87.501 62.8027C89.5716 60.9121 91.6423 58.7755 93.2442 56.5908C94.846 54.406 96.0181 52.1585 96.0181 49.8773C96.0181 44.4371 91.5251 40 86.0163 40C82.9884 40 80.3464 41.4035 78.515 43.5111C76.6836 41.4035 74.0415 40 71.0137 40ZM71.0137 42.4693C73.7534 42.4693 76.1464 43.9355 77.4601 46.0961L78.515 47.8324L79.5699 46.0961C80.8836 43.9355 83.2766 42.4693 86.0163 42.4693C90.1723 42.4693 93.5177 45.773 93.5177 49.8773C93.5177 51.2566 92.6581 53.1472 91.2126 55.1246C89.767 57.102 87.7744 59.1662 85.7819 60.9892C82.1485 64.3122 79.1352 66.3812 78.515 66.8153C77.8948 66.3812 74.8815 64.3026 71.2481 60.9892C69.2555 59.171 67.263 57.1406 65.8174 55.1632C64.3719 53.1858 63.5123 51.2759 63.5123 49.8773C63.5123 45.773 66.8577 42.4693 71.0137 42.4693ZM96.0181 70.9051C94.8069 70.9775 93.5958 71.5225 92.6972 72.4099L80.4685 84.4478H69.0602L68.5523 83.9462L75.8583 82.5187C77.7238 82.1521 79.3257 80.7535 79.6871 78.8147C80.2194 75.9354 77.9387 73.3359 75.0769 73.3359H57.6519C54.668 73.3359 51.7915 74.4934 49.6818 76.5768L38.8595 87.2644L38 88.1518L38.8595 89.0392L50.1115 100.151L51.0101 101L51.9087 100.151L56.1673 95.907C56.4017 95.6755 56.6947 95.5598 57.0268 95.5598H80.195C81.8505 95.5598 83.4377 94.9039 84.6098 93.7464L99.6125 78.9304C101.532 77.035 101.454 73.8712 99.4171 72.0626C98.4404 71.1945 97.2292 70.8328 96.0181 70.9051ZM96.1353 73.3744C96.7311 73.331 97.3318 73.5191 97.7762 73.9146C98.7774 74.802 98.7871 76.273 97.8544 77.1942L82.8517 92.0101C82.1485 92.7046 81.1912 93.0904 80.195 93.0904H57.0268C56.0305 93.0904 55.1124 93.4763 54.4092 94.1708L51.0101 97.4889L41.5553 88.1518L51.479 78.3517C53.1199 76.7312 55.3322 75.8052 57.6519 75.8052H75.0769C76.4345 75.8052 77.4894 76.9579 77.2257 78.3903C77.0694 79.2294 76.288 79.9046 75.3504 80.0879L65.7784 82.0171L63.4733 82.4415L65.1142 84.1006L67.6146 86.5699L68.0053 86.9171H81.5233L81.914 86.5699L94.4553 74.1461C94.9095 73.6976 95.5395 73.4179 96.1353 73.3744Z" fill="black"/>
</svg>
