<?xml version="1.0" encoding="utf-8"?>
<!-- Generator: Adobe Illustrator 25.2.3, SVG Export Plug-In . SVG Version: 6.00 Build 0)  -->
<svg version="1.1" id="Layer_1" xmlns="http://www.w3.org/2000/svg" xmlns:xlink="http://www.w3.org/1999/xlink" x="0px" y="0px"
	 viewBox="0 0 150 150" style="enable-background:new 0 0 150 150;" xml:space="preserve">
<style type="text/css">
	.st0{fill:#ffFFff;}
	.rotateDevice{
		transform-origin:50px 100px;
	    -webkit-animation:rotate1 3s infinite both;
		animation: rotate1 3s infinite both;
		-webkit-animation-timing-function:cubic-bezier(.7,-0.01,.31,1);
		animation-timing-function:cubic-bezier(.7,-0.01,.31,1);
	}
	.rotateCheck{
	    -webkit-animation: rotate2 3s infinite both;
	    animation: rotate2 3s infinite both;
		-webkitanimation-timing-function: ease-in-out;
		animation-timing-function: ease-in-out;
	}

@-webkit-keyframes rotate1{ 0% { transform: rotate(0deg);} 50%{ transform: rotate(90deg);} 90%{ transform: rotate(90deg);}
100%{ transform: rotate(0deg);}}

@keyframes rotate1{ 0% { transform: rotate(0deg);} 50%{ transform: rotate(90deg);} 90%{ transform: rotate(90deg);}
100%{ transform: rotate(0deg);}}

@-webkit-keyframes rotate2{ 0% { opacity:0;} 55%{ opacity:0;} 60%{ opacity:1;} 85%{ opacity:1;} 90%, 100%{ opacity:0;}}
@keyframes rotate2{ 0% { opacity:0;} 55%{ opacity:0;} 60%{ opacity:1;} 85%{ opacity:1;} 90%, 100%{ opacity:0;}}

</style>
<path class="st0" d="M130.9,93.4c1.1-4.7,1.6-9.5,1.6-14.3c0-34.9-28.4-63.2-63.2-63.2c-8.5,0-16.8,1.7-24.6,5l0.7,1.6
	c7.6-3.2,15.6-4.8,24-4.8c33.9,0,61.5,27.6,61.5,61.5c0,4.7-0.5,9.3-1.6,13.8l-4.9-1.6l2.5,11.8l8.9-8.1L130.9,93.4z"/>
<path class="st0 rotateDevice" d="M63.1,36H20.9c-3.7,0-6.7,3-6.7,6.7v84.7c0,3.7,3,6.7,6.7,6.7h42.2c3.7,0,6.7-3,6.7-6.7V42.7
	C69.8,39,66.8,36,63.1,36z M68.1,127.5c0,2.7-2.2,5-5,5H20.9c-2.7,0-5-2.2-5-5V42.7c0-2.7,2.2-5,5-5h42.2c2.7,0,5,2.2,5,5V127.5z
	 M52.4,39.8c0,1.2-1,2.2-2.2,2.2H33.8c-1.2,0-2.2-1-2.2-2.2V39h-0.9v0.8c0,1.7,1.4,3.1,3.1,3.1h16.4c1.7,0,3.1-1.4,3.1-3.1V39h-0.9
	V39.8z"/>
	<polygon class="st0 rotateCheck" points="63.7,100.9 54.7,89.8 56.3,88.5 63.6,97.6 76.2,78.5 77.9,79.6 	"/>
</svg>
