<?xml version="1.0" encoding="utf-8"?>
<!-- Generator: Adobe Illustrator 25.2.3, SVG Export Plug-In . SVG Version: 6.00 Build 0)  -->
<svg version="1.1" id="Layer_1" xmlns="http://www.w3.org/2000/svg" xmlns:xlink="http://www.w3.org/1999/xlink" x="0px" y="0px"
	 viewBox="0 0 433.5 78.4" style="enable-background:new 0 0 433.5 78.4;" xml:space="preserve">
<style type="text/css">
	.st0{fill:#ffffff;}
	.st1{fill:#ffffff;}
	.st2{fill:#ffffff;}
	.st3{fill:#ffffff;}
</style>
<g>
	<path class="st0" d="M111.6,64.5h22.6c6,0,14.6-2,14.6-9.4c0-7-8.6-10.7-14.6-10.7h-22.6V64.5z M111.6,31.5h22.6
		c9.3,0,12.3-3.9,12.3-8.4c0-3.6-2.9-9.6-12.3-9.6h-22.6V31.5z M161,22.8c0,6-2.9,11.8-10.2,15.1c9.2,2.8,12.5,12.5,12.5,17.4
		c0,17.4-13.1,23-29.3,23H97V0.1h37.1C149.5,0.1,161,7,161,22.8"/>
	<rect x="173.9" y="0.1" class="st0" width="14.6" height="78.2"/>
	<polygon class="st0" points="253.7,0 268.4,0 268.4,78.3 259.3,78.3 259.3,78.4 218.2,25.6 218.2,78.3 203.5,78.3 203.5,0.1 
		215.4,0.1 253.7,48.6 	"/>
	<path class="st0" d="M317,16.5l-14.5,33.3h29L317,16.5z M337.5,63.5h-40.9l-6.7,14.7h-16L309,0.1h16.1l35.1,78.2H344L337.5,63.5z"
		/>
	<polygon class="st0" points="418.9,78.4 418.9,46.8 380.4,46.8 380.4,78.4 365.7,78.4 365.7,0.2 380.4,0.2 380.4,33.2 418.9,33.2 
		418.9,0.2 433.5,0.2 433.5,78.4 	"/>
	<rect y="0" class="st1" width="24.3" height="51.5"/>
	<rect x="26.7" y="0" class="st2" width="24.6" height="51.5"/>
	<rect x="53.7" class="st3" width="24.6" height="24.9"/>
	<rect x="53.7" y="27.3" class="st3" width="24.6" height="51.1"/>
	<rect x="0" y="53.8" class="st2" width="51.3" height="24.6"/>
</g>
</svg>
