<svg xmlns="http://www.w3.org/2000/svg" width="90" height="90" fill="none" viewBox="0 0 90 90">
  <g class="Frame 2" clip-path="url(#a)">
    <g class="Frame 1">
      <path fill="#C00" d="M-26.98 74.054 72.054-24.98l21.92 21.92-99.033 99.034z"/>
      <path fill="#fff" d="M16.357 59.16c-.937.938-2.04 1.426-3.307 1.466-1.273.033-2.475-.515-3.603-1.644-1.129-1.128-1.673-2.326-1.633-3.593.04-1.28.524-2.386 1.455-3.317.752-.752 1.587-1.19 2.504-1.316.918-.139 1.786.056 2.604.584l-.693 1.089c-.614-.39-1.237-.545-1.871-.465-.627.072-1.211.379-1.752.92-.726.726-1.073 1.554-1.04 2.485.04.924.492 1.818 1.356 2.683.865.864 1.76 1.316 2.683 1.356.924.026 1.75-.323 2.475-1.05.535-.534.842-1.105.92-1.712.087-.614-.049-1.224-.405-1.831l1.089-.713c.482.838.657 1.706.525 2.603-.132.898-.568 1.716-1.307 2.456Zm7.324-8.77c.007.958-.36 1.806-1.099 2.545-.739.74-1.587 1.105-2.544 1.099-.963-.013-1.818-.393-2.564-1.139-.746-.745-1.122-1.597-1.128-2.554-.014-.963.35-1.815 1.089-2.554.739-.739 1.59-1.102 2.554-1.089.963 0 1.818.373 2.564 1.119.745.746 1.121 1.604 1.128 2.574Zm-3.564 2.495c.647.027 1.218-.207 1.713-.702.495-.495.73-1.066.703-1.713-.033-.653-.317-1.247-.852-1.782-.534-.535-1.125-.815-1.772-.841-.653-.033-1.227.198-1.722.693-.495.495-.726 1.069-.693 1.722.026.647.307 1.238.841 1.772.535.535 1.129.819 1.782.852Zm6.007-3.65-4.99-4.99.842-.841.94.94a2.94 2.94 0 0 1-.03-1.455c.113-.482.354-.907.724-1.277.521-.521 1.108-.785 1.762-.792.66-.013 1.254.244 1.782.772L30.46 44.9l-.841.841-3.148-3.148c-.344-.343-.723-.518-1.139-.524-.422-.014-.805.151-1.148.495-.469.468-.65 1.032-.545 1.692.106.647.485 1.297 1.139 1.95l2.188 2.188-.842.842Zm6.054-6.054-4.247-4.247-.851.852-.743-.743.852-.851-.466-.466c-.534-.534-.811-1.082-.831-1.643-.027-.567.181-1.072.623-1.514.264-.265.515-.463.753-.595l.712.793a2.051 2.051 0 0 0-.623.425.957.957 0 0 0-.297.792c.026.29.171.568.435.832l.535.534 1.277-1.277.742.743-1.277 1.277 4.247 4.247-.841.841Zm-3.938-10.08.97-.97 1.07 1.07-.97.97-1.07-1.07Zm7.068 6.95-4.99-4.99.842-.841 4.99 4.99-.842.84Zm.957-9.293a2.301 2.301 0 0 0-.762.525c-.423.423-.565.974-.426 1.653.139.667.597 1.39 1.376 2.168l1.9 1.901-.84.841-4.99-4.989.841-.841 1.01 1.01a2.718 2.718 0 0 1-.129-1.436c.086-.495.284-.898.595-1.208.217-.218.438-.38.663-.485l.762.862Zm5.037 3.299-4.99-4.99.842-.84.94.94c-.395-.964-.234-1.806.486-2.525.409-.409.851-.666 1.326-.772.482-.112.93-.046 1.346.198a2.48 2.48 0 0 1-.118-1.386c.092-.488.32-.914.683-1.277.534-.535 1.112-.802 1.732-.802.627-.006 1.205.254 1.733.782l3.346 3.346-.842.842-3.178-3.178c-.35-.35-.722-.531-1.118-.544-.403-.02-.776.141-1.119.485-.416.415-.57.907-.465 1.475.105.567.429 1.122.97 1.663l2.505 2.504-.842.842-3.178-3.178c-.35-.35-.722-.531-1.118-.544-.396-.027-.766.132-1.109.475-.416.415-.57.907-.465 1.475.105.567.429 1.122.97 1.663l2.505 2.504-.842.842Zm10.483-15.928c.139.139.26.274.366.406l-3.94 3.94c.528.475 1.092.723 1.693.743.6.006 1.125-.215 1.574-.664.383-.382.614-.785.693-1.207.08-.423 0-.825-.238-1.208l.98-.604c.357.607.472 1.244.347 1.91-.119.66-.465 1.278-1.04 1.852-.732.732-1.57 1.076-2.514 1.03-.937-.053-1.769-.443-2.495-1.169-.732-.732-1.125-1.56-1.178-2.485-.053-.937.287-1.771 1.02-2.504.72-.72 1.524-1.07 2.415-1.05.885.014 1.657.35 2.317 1.01Zm-4.227 3.594 3.02-3.02c-.436-.356-.908-.524-1.417-.504-.508.02-.976.244-1.405.673-.39.39-.6.838-.634 1.346-.04.502.106 1.003.436 1.505Zm10.23-3.994c-.752.752-1.58 1.105-2.484 1.06-.905-.06-1.736-.47-2.495-1.228-.76-.76-1.165-1.587-1.218-2.485-.06-.904.287-1.732 1.04-2.485.33-.33.716-.57 1.158-.722.449-.159.871-.198 1.267-.12l-2.732-2.731.841-.842 7.009 7.009-.841.841-.723-.722c.119.343.102.742-.05 1.197a3.105 3.105 0 0 1-.772 1.228Zm-2.346-.148c.627.033 1.185-.195 1.673-.683.488-.489.716-1.046.683-1.673-.04-.634-.333-1.225-.88-1.772-.549-.548-1.136-.839-1.763-.872-.634-.04-1.195.185-1.683.674-.488.488-.713 1.049-.673 1.682.033.627.323 1.215.871 1.763.548.547 1.139.841 1.772.88Z" class="Confirmed"/>
    </g>
  </g>
  <defs>
    <clipPath id="a" class="a">
      <path fill="#fff" d="M0 0h90v90H0z"/>
    </clipPath>
  </defs>
</svg>
